solid (null).stl
facet normal 0.00000000 -0.00000000 86.60253906
outer loop
vertex 0.00000000 0.00000000 0.00000000
vertex 10.00000000 0.00000000 0.00000000
vertex -5.00000048 8.66025352 0.00000000
endloop
endfacet
facet normal 0.00000000 0.00000000 86.60253906
outer loop
vertex 0.00000000 0.00000000 0.00000000
vertex -5.00000048 8.66025352 0.00000000
vertex -4.99999905 -8.66025448 0.00000000
endloop
endfacet
facet normal -0.00000000 0.00000000 86.60254669
outer loop
vertex 0.00000000 0.00000000 0.00000000
vertex -4.99999905 -8.66025448 0.00000000
vertex 10.00000000 0.00000000 0.00000000
endloop
endfacet
facet normal 17.32050705 30.00000000 0.00000000
outer loop
vertex 10.00000000 0.00000000 2.00000000
vertex 10.00000000 0.00000000 0.00000000
vertex -5.00000048 8.66025352 2.00000000
endloop
endfacet
facet normal 17.32050705 30.00000000 0.00000000
outer loop
vertex -5.00000048 8.66025352 2.00000000
vertex 10.00000000 0.00000000 0.00000000
vertex -5.00000048 8.66025352 0.00000000
endloop
endfacet
facet normal -34.64101410 -0.00000286 -0.00000000
outer loop
vertex -5.00000048 8.66025352 2.00000000
vertex -5.00000048 8.66025352 0.00000000
vertex -4.99999905 -8.66025448 2.00000000
endloop
endfacet
facet normal -34.64101410 -0.00000286 -0.00000000
outer loop
vertex -4.99999905 -8.66025448 2.00000000
vertex -5.00000048 8.66025352 0.00000000
vertex -4.99999905 -8.66025448 0.00000000
endloop
endfacet
facet normal 17.32050896 -29.99999809 0.00000000
outer loop
vertex -4.99999905 -8.66025448 2.00000000
vertex -4.99999905 -8.66025448 0.00000000
vertex 10.00000000 0.00000000 2.00000000
endloop
endfacet
facet normal 17.32050896 -29.99999809 0.00000000
outer loop
vertex 10.00000000 0.00000000 2.00000000
vertex -4.99999905 -8.66025448 0.00000000
vertex 10.00000000 0.00000000 0.00000000
endloop
endfacet
facet normal 34.54681778 59.83684921 0.00000000
outer loop
vertex 10.00000000 0.00000000 5.98912334
vertex 10.00000000 0.00000000 2.00000000
vertex -5.00000048 8.66025352 4.76181793
endloop
endfacet
facet normal 23.91804314 41.42726898 0.00000000
outer loop
vertex -5.00000048 8.66025352 4.76181793
vertex 10.00000000 0.00000000 2.00000000
vertex -5.00000048 8.66025352 2.00000000
endloop
endfacet
facet normal -47.83608627 -0.00000395 -0.00000000
outer loop
vertex -5.00000048 8.66025352 4.76181793
vertex -5.00000048 8.66025352 2.00000000
vertex -4.99999905 -8.66025448 1.24905825
endloop
endfacet
facet normal 13.00669193 0.00000107 -0.00000000
outer loop
vertex -4.99999905 -8.66025448 1.24905825
vertex -5.00000048 8.66025352 2.00000000
vertex -4.99999905 -8.66025448 2.00000000
endloop
endfacet
facet normal -6.50334692 11.26412582 0.00000000
outer loop
vertex -4.99999905 -8.66025448 1.24905825
vertex -4.99999905 -8.66025448 2.00000000
vertex 10.00000000 0.00000000 5.98912334
endloop
endfacet
facet normal 34.54682159 -59.83684540 0.00000000
outer loop
vertex 10.00000000 0.00000000 5.98912334
vertex -4.99999905 -8.66025448 2.00000000
vertex 10.00000000 0.00000000 2.00000000
endloop
endfacet
facet normal 26.51861763 50.61960983 33.97267914
outer loop
vertex 8.61619282 -1.46659970 9.25455189
vertex 10.00000000 0.00000000 5.98912334
vertex -6.02986145 7.56123304 7.23550987
endloop
endfacet
facet normal 20.07396507 38.36933517 25.40416336
outer loop
vertex -6.02986145 7.56123304 7.23550987
vertex 10.00000000 0.00000000 5.98912334
vertex -5.00000048 8.66025352 4.76181793
endloop
endfacet
facet normal -46.68845749 3.61378741 -17.83204651
outer loop
vertex -6.02986145 7.56123304 7.23550987
vertex -5.00000048 8.66025352 4.76181793
vertex -4.73866034 -8.37586021 0.62508249
endloop
endfacet
facet normal 11.80658627 -0.91801924 4.52651978
outer loop
vertex -4.73866034 -8.37586021 0.62508249
vertex -5.00000048 8.66025352 4.76181793
vertex -4.99999905 -8.66025448 1.24905825
endloop
endfacet
facet normal -6.76538277 10.58831787 1.99238622
outer loop
vertex -4.73866034 -8.37586021 0.62508249
vertex -4.99999905 -8.66025448 1.24905825
vertex 8.61619282 -1.46659970 9.25455189
endloop
endfacet
facet normal 35.23122025 -55.54076004 -10.01487160
outer loop
vertex 8.61619282 -1.46659970 9.25455189
vertex -4.99999905 -8.66025448 1.24905825
vertex 10.00000000 0.00000000 5.98912334
endloop
endfacet
facet normal 1.16191816 2.21471119 1.47422540
outer loop
vertex 8.55694103 -1.53073370 9.39759922
vertex 8.61619282 -1.46659970 9.25455189
vertex -6.41978979 7.13917732 8.17688084
endloop
endfacet
facet normal 7.64639139 14.57465172 9.70165825
outer loop
vertex -6.41978979 7.13917732 8.17688084
vertex 8.61619282 -1.46659970 9.25455189
vertex -6.02986145 7.56123304 7.23550987
endloop
endfacet
facet normal -17.79268646 1.36209452 -6.75928211
outer loop
vertex -6.41978979 7.13917732 8.17688084
vertex -6.02986145 7.56123304 7.23550987
vertex -6.41186714 -10.18692684 4.66456175
endloop
endfacet
facet normal -76.34947968 5.84483194 -29.00450325
outer loop
vertex -6.41186714 -10.18692684 4.66456175
vertex -6.02986145 7.56123304 7.23550987
vertex -4.73866034 -8.37586021 0.62508249
endloop
endfacet
facet normal 43.53835678 -68.38554382 -12.62590790
outer loop
vertex -6.41186714 -10.18692684 4.66456175
vertex -4.73866034 -8.37586021 0.62508249
vertex 8.55694103 -1.53073370 9.39759922
endloop
endfacet
facet normal 1.54179370 -2.42168760 -0.44711414
outer loop
vertex 8.55694103 -1.53073370 9.39759922
vertex -4.73866034 -8.37586021 0.62508249
vertex 8.61619282 -1.46659970 9.25455189
endloop
endfacet
facet normal 0.14388113 0.24920942 -0.24981186
outer loop
vertex 8.58578682 -1.53073370 9.41421318
vertex 8.55694103 -1.53073370 9.39759922
vertex -6.41421413 7.12952042 9.41421318
endloop
endfacet
facet normal 10.71577358 18.52438736 0.09628844
outer loop
vertex -6.41421413 7.12952042 9.41421318
vertex 8.55694103 -1.53073370 9.39759922
vertex -6.41978979 7.13917732 8.17688084
endloop
endfacet
facet normal -21.43122673 -0.00000236 0.09657320
outer loop
vertex -6.41421413 7.12952042 9.41421318
vertex -6.41978979 7.13917732 8.17688084
vertex -6.41421223 -10.19098854 9.41421318
endloop
endfacet
facet normal -82.30722046 -0.02939313 -0.04066337
outer loop
vertex -6.41421223 -10.19098854 9.41421318
vertex -6.41978979 7.13917732 8.17688084
vertex -6.41186714 -10.18692684 4.66456175
endloop
endfacet
facet normal 41.13319016 -71.24476624 -0.04061645
outer loop
vertex -6.41421223 -10.19098854 9.41421318
vertex -6.41186714 -10.18692684 4.66456175
vertex 8.58578682 -1.53073370 9.41421318
endloop
endfacet
facet normal 0.14381364 -0.11216299 -0.24969469
outer loop
vertex 8.58578682 -1.53073370 9.41421318
vertex -6.41186714 -10.18692684 4.66456175
vertex 8.55694103 -1.53073370 9.39759922
endloop
endfacet
facet normal 34.54682159 59.83685303 0.00000000
outer loop
vertex 8.58578682 -1.53073370 13.40333652
vertex 8.58578682 -1.53073370 9.41421318
vertex -6.41421413 7.12952042 12.17603111
endloop
endfacet
facet normal 23.91804695 41.42727280 0.00000000
outer loop
vertex -6.41421413 7.12952042 12.17603111
vertex 8.58578682 -1.53073370 9.41421318
vertex -6.41421413 7.12952042 9.41421318
endloop
endfacet
facet normal -47.83609390 -0.00000527 -0.00000000
outer loop
vertex -6.41421413 7.12952042 12.17603111
vertex -6.41421413 7.12952042 9.41421318
vertex -6.41421223 -10.19098854 8.66327095
endloop
endfacet
facet normal 13.00670147 0.00000143 -0.00000000
outer loop
vertex -6.41421223 -10.19098854 8.66327095
vertex -6.41421413 7.12952042 9.41421318
vertex -6.41421223 -10.19098854 9.41421318
endloop
endfacet
facet normal -6.50335073 11.26413250 0.00000000
outer loop
vertex -6.41421223 -10.19098854 8.66327095
vertex -6.41421223 -10.19098854 9.41421318
vertex 8.58578682 -1.53073370 13.40333652
endloop
endfacet
facet normal 34.54682159 -59.83684540 0.00000000
outer loop
vertex 8.58578682 -1.53073370 13.40333652
vertex -6.41421223 -10.19098854 9.41421318
vertex 8.58578682 -1.53073370 9.41421318
endloop
endfacet
facet normal 26.51861000 50.61959076 33.97267914
outer loop
vertex 7.20197916 -2.99733329 16.66876411
vertex 8.58578682 -1.53073370 13.40333652
vertex -7.44407415 6.03049946 14.64972305
endloop
endfacet
facet normal 20.07396507 38.36933517 25.40416527
outer loop
vertex -7.44407415 6.03049946 14.64972305
vertex 8.58578682 -1.53073370 13.40333652
vertex -6.41421413 7.12952042 12.17603111
endloop
endfacet
facet normal -46.68846130 3.61378288 -17.83203125
outer loop
vertex -7.44407415 6.03049946 14.64972305
vertex -6.41421413 7.12952042 12.17603111
vertex -6.15287352 -9.90659428 8.03929520
endloop
endfacet
facet normal 11.80658627 -0.91801906 4.52651978
outer loop
vertex -6.15287352 -9.90659428 8.03929520
vertex -6.41421413 7.12952042 12.17603111
vertex -6.41421223 -10.19098854 8.66327095
endloop
endfacet
facet normal -6.76538277 10.58831787 1.99238622
outer loop
vertex -6.15287352 -9.90659428 8.03929520
vertex -6.41421223 -10.19098854 8.66327095
vertex 7.20197916 -2.99733329 16.66876411
endloop
endfacet
facet normal 35.23121262 -55.54075241 -10.01486683
outer loop
vertex 7.20197916 -2.99733329 16.66876411
vertex -6.41421223 -10.19098854 8.66327095
vertex 8.58578682 -1.53073370 13.40333652
endloop
endfacet
facet normal 14.91290474 28.42522049 18.92133331
outer loop
vertex 6.44149399 -3.82047653 18.50473785
vertex 7.20197916 -2.99733329 16.66876411
vertex -7.51735640 5.95117950 14.82664204
endloop
endfacet
facet normal 1.43704486 2.73912454 1.82330406
outer loop
vertex -7.51735640 5.95117950 14.82664204
vertex 7.20197916 -2.99733329 16.66876411
vertex -7.44407415 6.03049946 14.64972305
endloop
endfacet
facet normal -3.34391403 0.25598907 -1.27032423
outer loop
vertex -7.51735640 5.95117950 14.82664204
vertex -7.44407415 6.03049946 14.64972305
vertex -7.43929482 -11.29900646 11.14499092
endloop
endfacet
facet normal -58.70020294 4.49371910 -22.29969978
outer loop
vertex -7.43929482 -11.29900646 11.14499092
vertex -7.44407415 6.03049946 14.64972305
vertex -6.15287352 -9.90659428 8.03929520
endloop
endfacet
facet normal 33.47383881 -52.57723999 -9.70723915
outer loop
vertex -7.43929482 -11.29900646 11.14499092
vertex -6.15287352 -9.90659428 8.03929520
vertex 6.44149399 -3.82047653 18.50473785
endloop
endfacet
facet normal 19.78850937 -31.08174324 -5.73856688
outer loop
vertex 6.44149399 -3.82047653 18.50473785
vertex -6.15287352 -9.90659428 8.03929520
vertex 7.20197916 -2.99733329 16.66876411
endloop
endfacet
facet normal 19.41866112 30.76723480 8.04347038
outer loop
vertex 5.61835098 -3.82047653 20.49198151
vertex 6.44149399 -3.82047653 18.50473785
vertex -7.59667587 5.95117903 15.01813698
endloop
endfacet
facet normal 1.87122107 2.96479392 0.77508932
outer loop
vertex -7.59667587 5.95117903 15.01813698
vertex 6.44149399 -3.82047653 18.50473785
vertex -7.51735640 5.95117950 14.82664204
endloop
endfacet
facet normal -3.30332351 0.27707919 -1.36827505
outer loop
vertex -7.59667587 5.95117903 15.01813698
vertex -7.51735640 5.95117950 14.82664204
vertex -8.83170605 -11.29900551 14.50657082
endloop
endfacet
facet normal -57.98787689 4.86396217 -24.01935387
outer loop
vertex -8.83170605 -11.29900551 14.50657082
vertex -7.51735640 5.95117950 14.82664204
vertex -7.43929482 -11.29900646 11.14499092
endloop
endfacet
facet normal 25.13966751 -56.90917206 10.41320133
outer loop
vertex -8.83170605 -11.29900551 14.50657082
vertex -7.43929482 -11.29900646 11.14499092
vertex 5.61835098 -3.82047653 20.49198151
endloop
endfacet
facet normal 14.86166096 -33.64263153 6.15589952
outer loop
vertex 5.61835098 -3.82047653 20.49198151
vertex -7.43929482 -11.29900646 11.14499092
vertex 6.44149399 -3.82047653 18.50473785
endloop
endfacet
facet normal 1.53968143 2.43949413 0.63775355
outer loop
vertex 5.55308533 -3.82047653 20.64954758
vertex 5.61835098 -3.82047653 20.49198151
vertex -7.99236202 5.95117903 15.97340775
endloop
endfacet
facet normal 9.33457756 14.78985310 3.86650896
outer loop
vertex -7.99236202 5.95117903 15.97340775
vertex 5.61835098 -3.82047653 20.49198151
vertex -7.59667587 5.95117903 15.01813698
endloop
endfacet
facet normal -16.47859764 1.38220716 -6.82565928
outer loop
vertex -7.99236202 5.95117903 15.97340775
vertex -7.59667587 5.95117903 15.01813698
vertex -10.66796589 -11.29900551 18.93969536
endloop
endfacet
facet normal -76.47222137 6.41441059 -31.67582130
outer loop
vertex -10.66796589 -11.29900551 18.93969536
vertex -7.59667587 5.95117903 15.01813698
vertex -8.83170605 -11.29900551 14.50657082
endloop
endfacet
facet normal 33.15325165 -75.04966736 13.73252201
outer loop
vertex -10.66796589 -11.29900551 18.93969536
vertex -8.83170605 -11.29900551 14.50657082
vertex 5.55308533 -3.82047653 20.64954758
endloop
endfacet
facet normal 1.17836237 -2.66748047 0.48809108
outer loop
vertex 5.55308533 -3.82047653 20.64954758
vertex -8.83170605 -11.29900551 14.50657082
vertex 5.61835098 -3.82047653 20.49198151
endloop
endfacet
facet normal 3.53619099 4.17168236 -1.47207832
outer loop
vertex 5.52609348 -3.69165850 20.94976234
vertex 5.55308533 -3.82047653 20.64954758
vertex -7.99710512 6.30964565 16.80708504
endloop
endfacet
facet normal 9.82264709 11.31471062 -4.80924273
outer loop
vertex -7.99710512 6.30964565 16.80708504
vertex 5.55308533 -3.82047653 20.64954758
vertex -7.99236202 5.95117903 15.97340775
endloop
endfacet
facet normal -15.49641418 2.19123554 -1.03035772
outer loop
vertex -7.99710512 6.30964565 16.80708504
vertex -7.99236202 5.95117903 15.97340775
vertex -10.66268539 -9.46826077 23.34250832
endloop
endfacet
facet normal -81.37985229 11.79584694 -4.80725813
outer loop
vertex -10.66268539 -9.46826077 23.34250832
vertex -7.99236202 5.95117903 15.97340775
vertex -10.66796589 -11.29900551 18.93969536
endloop
endfacet
facet normal 29.81380653 -71.28879547 29.60701561
outer loop
vertex -10.66268539 -9.46826077 23.34250832
vertex -10.66796589 -11.29900551 18.93969536
vertex 5.52609348 -3.69165850 20.94976234
endloop
endfacet
facet normal 2.02490497 -4.91595125 2.29142332
outer loop
vertex 5.52609348 -3.69165850 20.94976234
vertex -10.66796589 -11.29900551 18.93969536
vertex 5.55308533 -3.82047653 20.64954758
endloop
endfacet
facet normal 39.71582031 45.83708572 -18.98634338
outer loop
vertex 5.52609348 -2.28767538 24.33927727
vertex 5.52609348 -3.69165850 20.94976234
vertex -7.99710512 7.49368000 19.66559601
endloop
endfacet
facet normal 33.49391174 38.65621185 -16.01193237
outer loop
vertex -7.99710512 7.49368000 19.66559601
vertex 5.52609348 -3.69165850 20.94976234
vertex -7.99710512 6.30964565 16.80708504
endloop
endfacet
facet normal -52.83948517 7.61959028 -3.15613866
outer loop
vertex -7.99710512 7.49368000 19.66559601
vertex -7.99710512 6.30964565 16.80708504
vertex -10.66268539 -9.76137638 22.63486481
endloop
endfacet
facet normal 13.08076763 -1.88628054 0.78132319
outer loop
vertex -10.66268539 -9.76137638 22.63486481
vertex -7.99710512 6.30964565 16.80708504
vertex -10.66268539 -9.46826077 23.34250832
endloop
endfacet
facet normal -4.78912592 11.45588398 -4.74518347
outer loop
vertex -10.66268539 -9.76137638 22.63486481
vertex -10.66268539 -9.46826077 23.34250832
vertex 5.52609348 -2.28767538 24.33927727
endloop
endfacet
facet normal 22.93925476 -54.87210464 22.72877121
outer loop
vertex 5.52609348 -2.28767538 24.33927727
vertex -10.66268539 -9.46826077 23.34250832
vertex 5.52609348 -3.69165850 20.94976234
endloop
endfacet
facet normal 34.61690140 54.70462418 14.08359146
outer loop
vertex 4.08761883 -2.28974223 27.88301849
vertex 5.52609348 -2.28767538 24.33927727
vertex -9.12740898 7.48191261 22.40917397
endloop
endfacet
facet normal 26.78091431 42.38462830 11.21503735
outer loop
vertex -9.12740898 7.48191261 22.40917397
vertex 5.52609348 -2.28767538 24.33927727
vertex -7.99710512 7.49368000 19.66559601
endloop
endfacet
facet normal -47.33324814 3.96662927 -19.48341751
outer loop
vertex -9.12740898 7.48191261 22.40917397
vertex -7.99710512 7.49368000 19.66559601
vertex -10.36244011 -9.76827240 21.89760780
endloop
endfacet
facet normal 12.74188709 -1.07370877 5.19913054
outer loop
vertex -10.36244011 -9.76827240 21.89760780
vertex -7.99710512 7.49368000 19.66559601
vertex -10.66268539 -9.76137638 22.63486481
endloop
endfacet
facet normal -5.47232294 12.45049858 -2.34504128
outer loop
vertex -10.36244011 -9.76827240 21.89760780
vertex -10.66268539 -9.76137638 22.63486481
vertex 4.08761883 -2.28974223 27.88301849
endloop
endfacet
facet normal 26.48838425 -59.82059479 10.71726894
outer loop
vertex 4.08761883 -2.28974223 27.88301849
vertex -10.66268539 -9.76137638 22.63486481
vertex 5.52609348 -2.28767538 24.33927727
endloop
endfacet
facet normal 35.96133423 56.97771835 14.89567089
outer loop
vertex 2.56324339 -2.28974223 31.56318665
vertex 4.08761883 -2.28974223 27.88301849
vertex -9.56297016 7.48191261 23.46071053
endloop
endfacet
facet normal 10.27525234 16.28027916 4.25615358
outer loop
vertex -9.56297016 7.48191261 23.46071053
vertex 4.08761883 -2.28974223 27.88301849
vertex -9.12740898 7.48191261 22.40917397
endloop
endfacet
facet normal -18.13920021 1.52149868 -7.51351070
outer loop
vertex -9.56297016 7.48191261 23.46071053
vertex -9.12740898 7.48191261 22.40917397
vertex -10.69624424 -9.76827240 22.70348167
endloop
endfacet
facet normal -13.90147305 1.16604221 -5.75818300
outer loop
vertex -10.69624424 -9.76827240 22.70348167
vertex -9.12740898 7.48191261 22.40917397
vertex -10.36244011 -9.76827240 21.89760780
endloop
endfacet
facet normal 6.02675200 -13.64288044 2.49636412
outer loop
vertex -10.69624424 -9.76827240 22.70348167
vertex -10.36244011 -9.76827240 21.89760780
vertex 2.56324339 -2.28974223 31.56318665
endloop
endfacet
facet normal 27.52224731 -62.30266190 11.40008736
outer loop
vertex 2.56324339 -2.28974223 31.56318665
vertex -10.36244011 -9.76827240 21.89760780
vertex 4.08761883 -2.28974223 27.88301849
endloop
endfacet
facet normal 27.52363396 56.97777176 27.52363968
outer loop
vertex -0.25343847 -2.28974199 34.37986755
vertex 2.56324339 -2.28974223 31.56318665
vertex -10.36778164 7.48191261 24.26552200
endloop
endfacet
facet normal 7.86434031 16.28028107 7.86434031
outer loop
vertex -10.36778164 7.48191261 24.26552200
vertex 2.56324339 -2.28974223 31.56318665
vertex -9.56297016 7.48191261 23.46071053
endloop
endfacet
facet normal -13.88314724 1.52149844 -13.88314724
outer loop
vertex -10.36778164 7.48191261 24.26552200
vertex -9.56297016 7.48191261 23.46071053
vertex -11.31303310 -9.76827240 23.32027054
endloop
endfacet
facet normal -10.63972187 1.16604114 -10.63972187
outer loop
vertex -11.31303310 -9.76827240 23.32027054
vertex -9.56297016 7.48191261 23.46071053
vertex -10.69624424 -9.76827240 22.70348167
endloop
endfacet
facet normal 4.61267424 -13.64287186 4.61267424
outer loop
vertex -11.31303310 -9.76827240 23.32027054
vertex -10.69624424 -9.76827240 22.70348167
vertex -0.25343847 -2.28974199 34.37986755
endloop
endfacet
facet normal 21.06463242 -62.30271912 21.06464195
outer loop
vertex -0.25343847 -2.28974199 34.37986755
vertex -10.69624424 -9.76827240 22.70348167
vertex 2.56324339 -2.28974223 31.56318665
endloop
endfacet
facet normal 1.17840314 2.43944740 1.17839086
outer loop
vertex -0.37403125 -2.28974199 34.50046158
vertex -0.25343847 -2.28974199 34.37986755
vertex -11.09891319 7.48191261 24.99665260
endloop
endfacet
facet normal 7.14435530 14.78982258 7.14436483
outer loop
vertex -11.09891319 7.48191261 24.99665260
vertex -0.25343847 -2.28974199 34.37986755
vertex -10.36778164 7.48191261 24.26552200
endloop
endfacet
facet normal -12.61213779 1.38220227 -12.61215496
outer loop
vertex -11.09891319 7.48191261 24.99665260
vertex -10.36778164 7.48191261 24.26552200
vertex -14.70599842 -9.76827240 26.71323586
endloop
endfacet
facet normal -58.52927780 6.41441154 -58.52927780
outer loop
vertex -14.70599842 -9.76827240 26.71323586
vertex -10.36778164 7.48191261 24.26552200
vertex -11.31303310 -9.76827240 23.32027054
endloop
endfacet
facet normal 25.37439346 -75.04965210 25.37439346
outer loop
vertex -14.70599842 -9.76827240 26.71323586
vertex -11.31303310 -9.76827240 23.32027054
vertex -0.37403125 -2.28974199 34.50046158
endloop
endfacet
facet normal 0.90186608 -2.66742849 0.90185672
outer loop
vertex -0.37403125 -2.28974199 34.50046158
vertex -11.31303310 -9.76827240 23.32027054
vertex -0.25343847 -2.28974199 34.37986755
endloop
endfacet
facet normal 3.83034611 4.17168140 -0.00677407
outer loop
vertex -0.51385593 -2.16092443 34.76749420
vertex -0.37403125 -2.28974199 34.50046158
vertex -11.42233086 7.84037828 25.76505661
endloop
endfacet
facet normal 10.91536808 11.31474304 -0.68417621
outer loop
vertex -11.42233086 7.84037828 25.76505661
vertex -0.37403125 -2.28974199 34.50046158
vertex -11.09891319 7.48191261 24.99665260
endloop
endfacet
facet normal -13.92253971 2.19123888 -6.88215971
outer loop
vertex -11.42233086 7.84037828 25.76505661
vertex -11.09891319 7.48191261 24.99665260
vertex -16.38600540 -7.93752670 30.78292847
endloop
endfacet
facet normal -73.34557343 11.79585648 -35.58408737
outer loop
vertex -16.38600540 -7.93752670 30.78292847
vertex -11.09891319 7.48191261 24.99665260
vertex -14.70599842 -9.76827240 26.71323586
endloop
endfacet
facet normal 16.21426773 -71.28887177 38.76259995
outer loop
vertex -16.38600540 -7.93752670 30.78292847
vertex -14.70599842 -9.76827240 26.71323586
vertex -0.51385593 -2.16092443 34.76749420
endloop
endfacet
facet normal 0.99388003 -4.91594934 2.89189219
outer loop
vertex -0.51385593 -2.16092443 34.76749420
vertex -14.70599842 -9.76827240 26.71323586
vertex -0.37403125 -2.28974199 34.50046158
endloop
endfacet
facet normal 7.84466982 8.17993736 -0.41803765
outer loop
vertex -0.74533415 -1.91037416 35.32633209
vertex -0.51385593 -2.16092443 34.76749420
vertex -11.65948868 8.09707642 26.33760643
endloop
endfacet
facet normal 8.03715324 8.38064384 -0.42829776
outer loop
vertex -11.65948868 8.09707642 26.33760643
vertex -0.51385593 -2.16092443 34.76749420
vertex -11.42233086 7.84037828 25.76505661
endloop
endfacet
facet normal -10.32171631 1.65192366 -5.01602030
outer loop
vertex -11.65948868 8.09707642 26.33760643
vertex -11.42233086 7.84037828 25.76505661
vertex -18.03899765 -6.14834118 34.77360535
endloop
endfacet
facet normal -71.94242859 11.51391888 -34.96168900
outer loop
vertex -18.03899765 -6.14834118 34.77360535
vertex -11.42233086 7.84037828 25.76505661
vertex -16.38600540 -7.93752670 30.78292847
endloop
endfacet
facet normal 15.92342663 -69.92707062 37.94689941
outer loop
vertex -18.03899765 -6.14834118 34.77360535
vertex -16.38600540 -7.93752670 30.78292847
vertex -0.74533415 -1.91037416 35.32633209
endloop
endfacet
facet normal 2.22985029 -9.79229832 5.31392860
outer loop
vertex -0.74533415 -1.91037416 35.32633209
vertex -16.38600540 -7.93752670 30.78292847
vertex -0.51385593 -2.16092443 34.76749420
endloop
endfacet
facet normal 14.93812275 8.84754276 -8.22419834
outer loop
vertex -0.79275513 -1.11249793 36.09854889
vertex -0.74533415 -1.91037416 35.32633209
vertex -11.66583157 8.40166569 26.58438492
endloop
endfacet
facet normal 5.20749283 2.75039315 -3.26085830
outer loop
vertex -11.66583157 8.40166569 26.58438492
vertex -0.74533415 -1.91037416 35.32633209
vertex -11.65948868 8.09707642 26.33760643
endloop
endfacet
facet normal -6.25781441 1.49186814 -2.00219917
outer loop
vertex -11.66583157 8.40166569 26.58438492
vertex -11.65948868 8.09707642 26.33760643
vertex -18.00292206 -2.94795275 37.93400574
endloop
endfacet
facet normal -72.01969910 20.46613503 -19.90299416
outer loop
vertex -18.00292206 -2.94795275 37.93400574
vertex -11.65948868 8.09707642 26.33760643
vertex -18.03899765 -6.14834118 34.77360535
endloop
endfacet
facet normal 11.67494774 -54.45723343 55.01300430
outer loop
vertex -18.00292206 -2.94795275 37.93400574
vertex -18.03899765 -6.14834118 34.77360535
vertex -0.79275513 -1.11249793 36.09854889
endloop
endfacet
facet normal 2.83162212 -13.38066769 13.99917221
outer loop
vertex -0.79275513 -1.11249793 36.09854889
vertex -18.03899765 -6.14834118 34.77360535
vertex -0.74533415 -1.91037416 35.32633209
endloop
endfacet
facet normal 17.34656334 9.91208458 -9.91210175
outer loop
vertex -0.79275519 -0.20087898 37.01016617
vertex -0.79275513 -1.11249793 36.09854889
vertex -11.66583157 11.20576954 29.38848877
endloop
endfacet
facet normal 53.35740662 30.48923492 -30.48923492
outer loop
vertex -11.66583157 11.20576954 29.38848877
vertex -0.79275513 -1.11249793 36.09854889
vertex -11.66583157 8.40166569 26.58438492
endloop
endfacet
facet normal -63.65103149 17.76985931 -17.76985931
outer loop
vertex -11.66583157 11.20576954 29.38848877
vertex -11.66583157 8.40166569 26.58438492
vertex -18.00292206 -2.40143013 38.48052979
endloop
endfacet
facet normal -12.40566349 3.46337223 -3.46336317
outer loop
vertex -18.00292206 -2.40143013 38.48052979
vertex -11.66583157 8.40166569 26.58438492
vertex -18.00292206 -2.94795275 37.93400574
endloop
endfacet
facet normal 2.00624084 -9.40577030 9.40574551
outer loop
vertex -18.00292206 -2.40143013 38.48052979
vertex -18.00292206 -2.94795275 37.93400574
vertex -0.79275519 -0.20087898 37.01016617
endloop
endfacet
facet normal 3.34646940 -15.68908596 15.68911457
outer loop
vertex -0.79275519 -0.20087898 37.01016617
vertex -18.00292206 -2.94795275 37.93400574
vertex -0.79275513 -1.11249793 36.09854889
endloop
endfacet
facet normal 17.34661674 12.95081234 -5.36439371
outer loop
vertex -0.79275608 0.29248691 38.20125580
vertex -0.79275519 -0.20087898 37.01016617
vertex -11.66583157 12.72334099 33.05222702
endloop
endfacet
facet normal 53.35741425 39.83610535 -16.50066948
outer loop
vertex -11.66583157 12.72334099 33.05222702
vertex -0.79275519 -0.20087898 37.01016617
vertex -11.66583157 11.20576954 29.38848877
endloop
endfacet
facet normal -63.65103912 23.21743393 -9.61698437
outer loop
vertex -11.66583157 12.72334099 33.05222702
vertex -11.66583157 11.20576954 29.38848877
vertex -18.00292015 -2.10565281 39.19459915
endloop
endfacet
facet normal -12.40570354 4.52513933 -1.87434173
outer loop
vertex -18.00292015 -2.10565281 39.19459915
vertex -11.66583157 11.20576954 29.38848877
vertex -18.00292206 -2.40143013 38.48052979
endloop
endfacet
facet normal 2.00624657 -12.28925228 5.09037113
outer loop
vertex -18.00292015 -2.10565281 39.19459915
vertex -18.00292206 -2.40143013 38.48052979
vertex -0.79275608 0.29248691 38.20125580
endloop
endfacet
facet normal 3.34648085 -20.49885178 8.49091244
outer loop
vertex -0.79275608 0.29248691 38.20125580
vertex -18.00292206 -2.40143013 38.48052979
vertex -0.79275519 -0.20087898 37.01016617
endloop
endfacet
facet normal 42.49322510 31.72501373 -13.14092922
outer loop
vertex -0.79275620 1.50106227 41.11901474
vertex -0.79275608 0.29248691 38.20125580
vertex -11.66583157 14.10965538 36.39908600
endloop
endfacet
facet normal 48.74248886 36.39065170 -15.07350063
outer loop
vertex -11.66583157 14.10965538 36.39908600
vertex -0.79275608 0.29248691 38.20125580
vertex -11.66583157 12.72334099 33.05222702
endloop
endfacet
facet normal -58.14580536 21.20934105 -8.78519726
outer loop
vertex -11.66583157 14.10965538 36.39908600
vertex -11.66583157 12.72334099 33.05222702
vertex -18.00292015 -2.39889598 38.48664856
endloop
endfacet
facet normal 12.29940414 -4.48634577 1.85830796
outer loop
vertex -18.00292015 -2.39889598 38.48664856
vertex -11.66583157 12.72334099 33.05222702
vertex -18.00292015 -2.10565281 39.19459915
endloop
endfacet
facet normal -1.98905432 12.18394470 -5.04676294
outer loop
vertex -18.00292015 -2.39889598 38.48664856
vertex -18.00292015 -2.10565281 39.19459915
vertex -0.79275620 1.50106227 41.11901474
endloop
endfacet
facet normal 8.19772339 -50.21510696 20.79977989
outer loop
vertex -0.79275620 1.50106227 41.11901474
vertex -18.00292015 -2.10565281 39.19459915
vertex -0.79275608 0.29248691 38.20125580
endloop
endfacet
facet normal 38.73880386 39.42721939 15.85488224
outer loop
vertex -2.04609871 1.49522734 44.19586182
vertex -0.79275620 1.50106227 41.11901474
vertex -13.01029205 14.09426308 39.65434647
endloop
endfacet
facet normal 40.97160339 41.74045181 17.11911774
outer loop
vertex -13.01029205 14.09426308 39.65434647
vertex -0.79275620 1.50106227 41.11901474
vertex -11.66583157 14.10965538 36.39908600
endloop
endfacet
facet normal -53.75985718 17.86678886 -22.11896706
outer loop
vertex -13.01029205 14.09426308 39.65434647
vertex -11.66583157 14.10965538 36.39908600
vertex -17.69708824 -2.41132069 37.71301270
endloop
endfacet
facet normal 12.79754543 -4.26415586 5.12757826
outer loop
vertex -17.69708824 -2.41132069 37.71301270
vertex -11.66583157 14.10965538 36.39908600
vertex -18.00292015 -2.39889598 38.48664856
endloop
endfacet
facet normal -2.94169807 14.09082890 -1.38920605
outer loop
vertex -17.69708824 -2.41132069 37.71301270
vertex -18.00292015 -2.39889598 38.48664856
vertex -2.04609871 1.49522734 44.19586182
endloop
endfacet
facet normal 12.01493454 -56.25229645 4.78756285
outer loop
vertex -2.04609871 1.49522734 44.19586182
vertex -18.00292015 -2.39889598 38.48664856
vertex -0.79275620 1.50106227 41.11901474
endloop
endfacet
facet normal 29.91098213 30.49575043 12.38952923
outer loop
vertex -3.02946997 1.49522734 46.56993103
vertex -2.04609871 1.49522734 44.19586182
vertex -13.03461838 14.09426308 39.71307373
endloop
endfacet
facet normal 0.73990685 0.75437546 0.30648822
outer loop
vertex -13.03461838 14.09426308 39.71307373
vertex -2.04609871 1.49522734 44.19586182
vertex -13.01029205 14.09426308 39.65434647
endloop
endfacet
facet normal -0.96932787 0.32246611 -0.40152022
outer loop
vertex -13.03461838 14.09426308 39.71307373
vertex -13.01029205 14.09426308 39.65434647
vertex -18.97782707 -2.41132069 40.80498886
endloop
endfacet
facet normal -51.03487396 16.97780228 -21.13934326
outer loop
vertex -18.97782707 -2.41132069 40.80498886
vertex -13.01029205 14.09426308 39.65434647
vertex -17.69708824 -2.41132069 37.71301270
endloop
endfacet
facet normal 12.07895374 -56.69532394 5.00326777
outer loop
vertex -18.97782707 -2.41132069 40.80498886
vertex -17.69708824 -2.41132069 37.71301270
vertex -3.02946997 1.49522734 46.56993103
endloop
endfacet
facet normal 9.27441502 -43.53157806 3.84158707
outer loop
vertex -3.02946997 1.49522734 46.56993103
vertex -17.69708824 -2.41132069 37.71301270
vertex -2.04609871 1.49522734 44.19586182
endloop
endfacet
facet normal 34.37694550 28.17436218 1.60763931
outer loop
vertex -3.93798447 2.47859764 48.76328278
vertex -3.02946997 1.49522734 46.56993103
vertex -13.05709362 14.11858940 39.76733398
endloop
endfacet
facet normal 0.85042894 0.69699144 0.03977786
outer loop
vertex -13.05709362 14.11858940 39.76733398
vertex -3.02946997 1.49522734 46.56993103
vertex -13.03461838 14.09426308 39.71307373
endloop
endfacet
facet normal -0.92215717 0.29793915 -0.51554257
outer loop
vertex -13.05709362 14.11858940 39.76733398
vertex -13.03461838 14.09426308 39.71307373
vertex -20.16107559 -1.13058090 43.66160583
endloop
endfacet
facet normal -48.54858780 15.68546486 -27.14191055
outer loop
vertex -20.16107559 -1.13058090 43.66160583
vertex -13.03461838 14.09426308 39.71307373
vertex -18.97782707 -2.41132069 40.80498886
endloop
endfacet
facet normal 3.77611971 -52.37971115 25.04811287
outer loop
vertex -20.16107559 -1.13058090 43.66160583
vertex -18.97782707 -2.41132069 40.80498886
vertex -3.93798447 2.47859764 48.76328278
endloop
endfacet
facet normal 2.89936161 -40.21788788 19.23229599
outer loop
vertex -3.93798447 2.47859764 48.76328278
vertex -18.97782707 -2.41132069 40.80498886
vertex -3.02946997 1.49522734 46.56993103
endloop
endfacet
facet normal 13.21306229 10.82905388 0.61791539
outer loop
vertex -4.28717995 2.85656404 49.60631561
vertex -3.93798447 2.47859764 48.76328278
vertex -13.18306446 14.25493908 40.07145309
endloop
endfacet
facet normal 4.76653862 3.90652251 0.22291195
outer loop
vertex -13.18306446 14.25493908 40.07145309
vertex -3.93798447 2.47859764 48.76328278
vertex -13.05709362 14.11858940 39.76733398
endloop
endfacet
facet normal -5.16854906 1.66988945 -2.88957596
outer loop
vertex -13.18306446 14.25493908 40.07145309
vertex -13.05709362 14.11858940 39.76733398
vertex -21.80365753 0.64733720 47.62715149
endloop
endfacet
facet normal -67.39498138 21.77450371 -37.67831039
outer loop
vertex -21.80365753 0.64733720 47.62715149
vertex -13.05709362 14.11858940 39.76733398
vertex -20.16107559 -1.13058090 43.66160583
endloop
endfacet
facet normal 5.24199820 -72.71333313 34.77169800
outer loop
vertex -21.80365753 0.64733720 47.62715149
vertex -20.16107559 -1.13058090 43.66160583
vertex -4.28717995 2.85656404 49.60631561
endloop
endfacet
facet normal 1.11439347 -15.45808125 7.39209223
outer loop
vertex -4.28717995 2.85656404 49.60631561
vertex -20.16107559 -1.13058090 43.66160583
vertex -3.93798447 2.47859764 48.76328278
endloop
endfacet
facet normal 21.45519257 9.29310322 -8.85100174
outer loop
vertex -4.31862545 3.89218450 50.61743927
vertex -4.28717995 2.85656404 49.60631561
vertex -13.18348789 14.37477875 40.13484192
endloop
endfacet
facet normal 1.86518443 0.56793702 -1.06125343
outer loop
vertex -13.18348789 14.37477875 40.13484192
vertex -4.28717995 2.85656404 49.60631561
vertex -13.18306446 14.25493908 40.07145309
endloop
endfacet
facet normal -1.94018137 0.53865463 -1.03131318
outer loop
vertex -13.18348789 14.37477875 40.13484192
vertex -13.18306446 14.25493908 40.07145309
vertex -21.75184822 3.78591609 50.72370529
endloop
endfacet
facet normal -65.85083008 27.08558464 -26.35141182
outer loop
vertex -21.75184822 3.78591609 50.72370529
vertex -13.18306446 14.25493908 40.07145309
vertex -21.80365753 0.64733720 47.62715149
endloop
endfacet
facet normal 0.66259015 -53.98841858 54.71004486
outer loop
vertex -21.75184822 3.78591609 50.72370529
vertex -21.80365753 0.64733720 47.62715149
vertex -4.31862545 3.89218450 50.61743927
endloop
endfacet
facet normal 0.18413877 -17.77355957 18.20989227
outer loop
vertex -4.31862545 3.89218450 50.61743927
vertex -21.80365753 0.64733720 47.62715149
vertex -4.28717995 2.85656404 49.60631561
endloop
endfacet
facet normal 15.42071056 6.52044725 -6.52045393
outer loop
vertex -4.31862545 4.62772369 51.35297775
vertex -4.31862545 3.89218450 50.61743927
vertex -13.18348789 17.19543839 42.95550156
endloop
endfacet
facet normal 59.13567352 25.00475883 -25.00475883
outer loop
vertex -13.18348789 17.19543839 42.95550156
vertex -4.31862545 3.89218450 50.61743927
vertex -13.18348789 14.37477875 40.13484192
endloop
endfacet
facet normal -59.73515320 24.16842842 -24.16842842
outer loop
vertex -13.18348789 17.19543839 42.95550156
vertex -13.18348789 14.37477875 40.13484192
vertex -21.75184822 4.50031853 51.43810654
endloop
endfacet
facet normal -15.12940598 6.12124729 -6.12125731
outer loop
vertex -21.75184822 4.50031853 51.43810654
vertex -13.18348789 14.37477875 40.13484192
vertex -21.75184822 3.78591609 50.72370529
endloop
endfacet
facet normal 0.15183462 -12.45431709 12.45433712
outer loop
vertex -21.75184822 4.50031853 51.43810654
vertex -21.75184822 3.78591609 50.72370529
vertex -4.31862545 4.62772369 51.35297775
endloop
endfacet
facet normal 0.15632731 -12.82280731 12.82281971
outer loop
vertex -4.31862545 4.62772369 51.35297775
vertex -21.75184822 3.78591609 50.72370529
vertex -4.31862545 3.89218450 50.61743927
endloop
endfacet
facet normal 15.42073154 8.51938534 -3.52886081
outer loop
vertex -4.31862450 5.02579498 52.31400681
vertex -4.31862545 4.62772369 51.35297775
vertex -13.18348789 18.72196388 46.64086533
endloop
endfacet
facet normal 59.13556290 32.67024231 -13.53243828
outer loop
vertex -13.18348789 18.72196388 46.64086533
vertex -4.31862545 4.62772369 51.35297775
vertex -13.18348789 17.19543839 42.95550156
endloop
endfacet
facet normal -59.73504639 31.57753181 -13.07982349
outer loop
vertex -13.18348789 18.72196388 46.64086533
vertex -13.18348789 17.19543839 42.95550156
vertex -21.75185013 4.88695002 52.37151718
endloop
endfacet
facet normal -15.12940216 7.99778223 -3.31282210
outer loop
vertex -21.75185013 4.88695002 52.37151718
vertex -13.18348789 17.19543839 42.95550156
vertex -21.75184822 4.50031853 51.43810654
endloop
endfacet
facet normal 0.15183468 -16.27235794 6.74023438
outer loop
vertex -21.75185013 4.88695002 52.37151718
vertex -21.75184822 4.50031853 51.43810654
vertex -4.31862450 5.02579498 52.31400681
endloop
endfacet
facet normal 0.15632740 -16.75383377 6.93966532
outer loop
vertex -4.31862450 5.02579498 52.31400681
vertex -21.75184822 4.50031853 51.43810654
vertex -4.31862545 4.62772369 51.35297775
endloop
endfacet
facet normal 22.74448967 12.56550026 -5.20479822
outer loop
vertex -4.31862450 5.61292171 53.73145676
vertex -4.31862450 5.02579498 52.31400681
vertex -13.18348789 18.69713402 46.58091736
endloop
endfacet
facet normal -0.96192086 -0.53143054 0.22011335
outer loop
vertex -13.18348789 18.69713402 46.58091736
vertex -4.31862450 5.02579498 52.31400681
vertex -13.18348789 18.72196388 46.64086533
endloop
endfacet
facet normal 0.97166646 -0.51365590 0.21275127
outer loop
vertex -13.18348789 18.69713402 46.58091736
vertex -13.18348789 18.72196388 46.64086533
vertex -21.75185013 6.60629654 56.52238464
endloop
endfacet
facet normal -67.28028870 35.56613541 -14.73198414
outer loop
vertex -21.75185013 6.60629654 56.52238464
vertex -13.18348789 18.72196388 46.64086533
vertex -21.75185013 4.88695002 52.37151718
endloop
endfacet
facet normal 0.67520475 -72.36300659 29.97375679
outer loop
vertex -21.75185013 6.60629654 56.52238464
vertex -21.75185013 4.88695002 52.37151718
vertex -4.31862450 5.61292171 53.73145676
endloop
endfacet
facet normal 0.23057163 -24.71072388 10.23551273
outer loop
vertex -4.31862450 5.61292171 53.73145676
vertex -21.75185013 4.88695002 52.37151718
vertex -4.31862450 5.02579498 52.31400681
endloop
endfacet
facet normal 27.04697037 7.69397068 -19.38602638
outer loop
vertex -3.79151535 7.02009106 55.02534866
vertex -4.31862450 5.61292171 53.73145676
vertex -13.23931503 18.57628059 46.43042755
endloop
endfacet
facet normal -2.83320761 -0.93487746 1.80180335
outer loop
vertex -13.23931503 18.57628059 46.43042755
vertex -4.31862450 5.61292171 53.73145676
vertex -13.18348789 18.69713402 46.58091736
endloop
endfacet
facet normal 2.89904594 -1.81546140 0.38247967
outer loop
vertex -13.23931503 18.57628059 46.43042755
vertex -13.18348789 18.69713402 46.58091736
vertex -20.56280899 9.57367706 59.20826721
endloop
endfacet
facet normal -61.97468567 34.83442688 -11.04908752
outer loop
vertex -20.56280899 9.57367706 59.20826721
vertex -13.18348789 18.69713402 46.58091736
vertex -21.75185013 6.60629654 56.52238464
endloop
endfacet
facet normal 5.55367851 -50.01939011 52.80313110
outer loop
vertex -20.56280899 9.57367706 59.20826721
vertex -21.75185013 6.60629654 56.52238464
vertex -3.79151535 7.02009106 55.02534866
endloop
endfacet
facet normal 2.64198852 -24.02783203 25.05511856
outer loop
vertex -3.79151535 7.02009106 55.02534866
vertex -21.75185013 6.60629654 56.52238464
vertex -4.31862450 5.61292171 53.73145676
endloop
endfacet
facet normal 27.48631096 7.75820112 -19.78260040
outer loop
vertex -3.24570537 8.44636154 56.34305191
vertex -3.79151535 7.02009106 55.02534866
vertex -12.10140038 21.54979324 49.17759705
endloop
endfacet
facet normal 57.30391693 16.17441940 -41.24311066
outer loop
vertex -12.10140038 21.54979324 49.17759705
vertex -3.79151535 7.02009106 55.02534866
vertex -13.23931503 18.57628059 46.43042755
endloop
endfacet
facet normal -62.72674942 34.65896988 -11.53230762
outer loop
vertex -12.10140038 21.54979324 49.17759705
vertex -13.23931503 18.57628059 46.43042755
vertex -20.60574532 9.46147919 59.10461044
endloop
endfacet
facet normal 2.36682725 -1.30776322 0.43514177
outer loop
vertex -20.60574532 9.46147919 59.10461044
vertex -13.23931503 18.57628059 46.43042755
vertex -20.56280899 9.57367706 59.20826721
endloop
endfacet
facet normal -0.20461720 1.91805685 -1.99134517
outer loop
vertex -20.60574532 9.46147919 59.10461044
vertex -20.56280899 9.57367706 59.20826721
vertex -3.24570537 8.44636154 56.34305191
endloop
endfacet
facet normal 2.60110474 -24.38266754 25.31417465
outer loop
vertex -3.24570537 8.44636154 56.34305191
vertex -20.56280899 9.57367706 59.20826721
vertex -3.79151535 7.02009106 55.02534866
endloop
endfacet
facet normal 36.54653931 20.15459061 -8.45022297
outer loop
vertex -3.23623371 9.38495445 58.62265015
vertex -3.24570537 8.44636154 56.34305191
vertex -12.10109615 23.08112526 52.94950867
endloop
endfacet
facet normal 60.39767456 33.40071487 -13.56499481
outer loop
vertex -12.10109615 23.08112526 52.94950867
vertex -3.24570537 8.44636154 56.34305191
vertex -12.10140038 21.54979324 49.17759705
endloop
endfacet
facet normal -60.95998383 32.32084274 -13.11679554
outer loop
vertex -12.10109615 23.08112526 52.94950867
vertex -12.10140038 21.54979324 49.17759705
vertex -20.66945648 9.24611092 58.68016052
endloop
endfacet
facet normal 7.26884794 -4.24213028 1.06140542
outer loop
vertex -20.66945648 9.24611092 58.68016052
vertex -12.10140038 21.54979324 49.17759705
vertex -20.60574532 9.46147919 59.10461044
endloop
endfacet
facet normal -0.07131804 7.40319443 -3.74571753
outer loop
vertex -20.66945648 9.24611092 58.68016052
vertex -20.60574532 9.46147919 59.10461044
vertex -3.23623371 9.38495445 58.62265015
endloop
endfacet
facet normal 0.27791888 -39.60007095 16.30362511
outer loop
vertex -3.23623371 9.38495445 58.62265015
vertex -20.60574532 9.46147919 59.10461044
vertex -3.24570537 8.44636154 56.34305191
endloop
endfacet
facet normal 41.48873520 22.92100525 -9.49420071
outer loop
vertex -3.23623371 10.45594692 61.20825195
vertex -3.23623371 9.38495445 58.62265015
vertex -12.10109615 24.58470917 56.57947922
endloop
endfacet
facet normal 58.24674225 32.17918777 -13.32906437
outer loop
vertex -12.10109615 24.58470917 56.57947922
vertex -3.23623371 9.38495445 58.62265015
vertex -12.10109615 23.08112526 52.94950867
endloop
endfacet
facet normal -58.83720779 31.10289574 -12.88324833
outer loop
vertex -12.10109615 24.58470917 56.57947922
vertex -12.10109615 23.08112526 52.94950867
vertex -20.66945648 8.98083782 58.03973389
endloop
endfacet
facet normal 10.38049984 -5.48740625 2.27295542
outer loop
vertex -20.66945648 8.98083782 58.03973389
vertex -12.10109615 23.08112526 52.94950867
vertex -20.66945648 9.24611092 58.68016052
endloop
endfacet
facet normal -0.10417658 11.16470051 -4.62456512
outer loop
vertex -20.66945648 8.98083782 58.03973389
vertex -20.66945648 9.24611092 58.68016052
vertex -3.23623371 10.45594692 61.20825195
endloop
endfacet
facet normal 0.42058730 -45.07537460 18.67085075
outer loop
vertex -3.23623371 10.45594692 61.20825195
vertex -20.66945648 9.24611092 58.68016052
vertex -3.23623371 9.38495445 58.62265015
endloop
endfacet
facet normal 38.71652985 29.56334305 15.89943981
outer loop
vertex -4.35832119 10.44987297 63.95192719
vertex -3.23623371 10.45594692 61.20825195
vertex -13.57250786 24.56951523 60.13528442
endloop
endfacet
facet normal 50.16879654 38.33255386 20.92391968
outer loop
vertex -13.57250786 24.56951523 60.13528442
vertex -3.23623371 10.45594692 61.20825195
vertex -12.10109615 24.58470917 56.57947922
endloop
endfacet
facet normal -55.52082062 28.39318085 -22.85349655
outer loop
vertex -13.57250786 24.56951523 60.13528442
vertex -12.10109615 24.58470917 56.57947922
vertex -20.38913345 8.96744537 57.31174469
endloop
endfacet
facet normal 11.37900639 -5.82833099 4.48887587
outer loop
vertex -20.38913345 8.96744537 57.31174469
vertex -12.10109615 24.58470917 56.57947922
vertex -20.66945648 8.98083782 58.03973389
endloop
endfacet
facet normal -0.99026304 13.53165340 -0.63025045
outer loop
vertex -20.38913345 8.96744537 57.31174469
vertex -20.66945648 8.98083782 58.03973389
vertex -4.35832119 10.44987297 63.95192719
endloop
endfacet
facet normal 4.06646585 -51.38645554 1.54931295
outer loop
vertex -4.35832119 10.44987297 63.95192719
vertex -20.66945648 8.98083782 58.03973389
vertex -3.23623371 10.45594692 61.20825195
endloop
endfacet
facet normal 36.87963867 28.19611931 15.27606297
outer loop
vertex -5.44022274 10.44987297 66.56386566
vertex -4.35832119 10.44987297 63.95192719
vertex -13.57961655 24.56951523 60.15244675
endloop
endfacet
facet normal 0.24232586 0.18526818 0.10037214
outer loop
vertex -13.57961655 24.56951523 60.15244675
vertex -4.35832119 10.44987297 63.95192719
vertex -13.57250786 24.56951523 60.13528442
endloop
endfacet
facet normal -0.26776776 0.13706131 -0.11091025
outer loop
vertex -13.57961655 24.56951523 60.15244675
vertex -13.57250786 24.56951523 60.13528442
vertex -21.58387947 8.96744537 60.19611740
endloop
endfacet
facet normal -45.00218582 23.03510284 -18.64051056
outer loop
vertex -21.58387947 8.96744537 60.19611740
vertex -13.57250786 24.56951523 60.13528442
vertex -20.38913345 8.96744537 57.31174469
endloop
endfacet
facet normal 4.27587366 -54.17216873 1.77112448
outer loop
vertex -21.58387947 8.96744537 60.19611740
vertex -20.38913345 8.96744537 57.31174469
vertex -5.44022274 10.44987297 66.56386566
endloop
endfacet
facet normal 3.87200975 -49.05551910 1.60384071
outer loop
vertex -5.44022274 10.44987297 66.56386566
vertex -20.38913345 8.96744537 57.31174469
vertex -4.35832119 10.44987297 63.95192719
endloop
endfacet
facet normal 41.00898743 26.04989243 5.30722761
outer loop
vertex -6.43977118 11.53177643 68.97698975
vertex -5.44022274 10.44987297 66.56386566
vertex -13.58618259 24.57662201 60.16829681
endloop
endfacet
facet normal 0.26936182 0.17110762 0.03486535
outer loop
vertex -13.58618259 24.57662201 60.16829681
vertex -5.44022274 10.44987297 66.56386566
vertex -13.57961655 24.56951523 60.15244675
endloop
endfacet
facet normal -0.24760562 0.12657939 -0.15932816
outer loop
vertex -13.58618259 24.57662201 60.16829681
vertex -13.57961655 24.56951523 60.15244675
vertex -22.68767738 10.16219044 62.86092377
endloop
endfacet
facet normal -41.62866974 21.28160858 -26.78458595
outer loop
vertex -22.68767738 10.16219044 62.86092377
vertex -13.57961655 24.56951523 60.15244675
vertex -21.58387947 8.96744537 60.19611740
endloop
endfacet
facet normal -3.65745831 -50.04842377 20.92385101
outer loop
vertex -22.68767738 10.16219044 62.86092377
vertex -21.58387947 8.96744537 60.19611740
vertex -6.43977118 11.53177643 68.97698975
endloop
endfacet
facet normal -3.31200743 -45.32151794 18.94763565
outer loop
vertex -6.43977118 11.53177643 68.97698975
vertex -21.58387947 8.96744537 60.19611740
vertex -5.44022274 10.44987297 66.56386566
endloop
endfacet
facet normal 53.60070801 34.04845428 6.93680573
outer loop
vertex -7.74622965 12.94587708 72.13105774
vertex -6.43977118 11.53177643 68.97698975
vertex -14.21201992 25.25402451 61.67920303
endloop
endfacet
facet normal 25.67656898 16.31036758 3.32295465
outer loop
vertex -14.21201992 25.25402451 61.67920303
vertex -6.43977118 11.53177643 68.97698975
vertex -13.58618259 24.57662201 60.16829681
endloop
endfacet
facet normal -23.60284615 12.06635857 -15.18646431
outer loop
vertex -14.21201992 25.25402451 61.67920303
vertex -13.58618259 24.57662201 60.16829681
vertex -22.87359810 10.36343002 63.30977631
endloop
endfacet
facet normal -7.01181746 3.58461404 -4.51152229
outer loop
vertex -22.87359810 10.36343002 63.30977631
vertex -13.58618259 24.57662201 60.16829681
vertex -22.68767738 10.16219044 62.86092377
endloop
endfacet
facet normal -0.61605310 -8.43001747 3.52435589
outer loop
vertex -22.87359810 10.36343002 63.30977631
vertex -22.68767738 10.16219044 62.86092377
vertex -7.74622965 12.94587708 72.13105774
endloop
endfacet
facet normal -4.32896519 -59.23738861 24.76548195
outer loop
vertex -7.74622965 12.94587708 72.13105774
vertex -22.68767738 10.16219044 62.86092377
vertex -6.43977118 11.53177643 68.97698975
endloop
endfacet
facet normal 45.12844849 41.36183167 20.79160690
outer loop
vertex -10.18603706 14.37590790 74.58185577
vertex -7.74622965 12.94587708 72.13105774
vertex -15.28046036 25.88369751 62.74631882
endloop
endfacet
facet normal 19.71546936 18.06693268 9.07918930
outer loop
vertex -15.28046036 25.88369751 62.74631882
vertex -7.74622965 12.94587708 72.13105774
vertex -14.21201992 25.25402451 61.67920303
endloop
endfacet
facet normal -16.91291809 7.48678493 -21.35164070
outer loop
vertex -15.28046036 25.88369751 62.74631882
vertex -14.21201992 25.25402451 61.67920303
vertex -23.26409340 10.60482788 63.71284485
endloop
endfacet
facet normal -6.39554691 2.85447836 -7.90559340
outer loop
vertex -23.26409340 10.60482788 63.71284485
vertex -14.21201992 25.25402451 61.67920303
vertex -22.87359810 10.36343002 63.30977631
endloop
endfacet
facet normal -1.10375226 -9.51565075 4.62960386
outer loop
vertex -23.26409340 10.60482788 63.71284485
vertex -22.87359810 10.36343002 63.30977631
vertex -10.18603706 14.37590790 74.58185577
endloop
endfacet
facet normal -6.28564835 -58.59635162 27.93327713
outer loop
vertex -10.18603706 14.37590790 74.58185577
vertex -22.87359810 10.36343002 63.30977631
vertex -7.74622965 12.94587708 72.13105774
endloop
endfacet
facet normal 11.50430489 10.56171989 5.31739902
outer loop
vertex -10.80988503 14.74134922 75.20570374
vertex -10.18603706 14.37590790 74.58185577
vertex -15.52269554 26.02559662 62.98855591
endloop
endfacet
facet normal 4.46706581 4.10104179 2.06469750
outer loop
vertex -15.52269554 26.02559662 62.98855591
vertex -10.18603706 14.37590790 74.58185577
vertex -15.28046036 25.88369751 62.74631882
endloop
endfacet
facet normal -3.83825731 1.69981158 -4.83395338
outer loop
vertex -15.52269554 26.02559662 62.98855591
vertex -15.28046036 25.88369751 62.74631882
vertex -26.30084610 12.38371658 66.74959564
endloop
endfacet
facet normal -48.11746216 21.30920219 -60.60014343
outer loop
vertex -26.30084610 12.38371658 66.74959564
vertex -15.28046036 25.88369751 62.74631882
vertex -23.26409340 10.60482788 63.71284485
endloop
endfacet
facet normal -7.88293219 -72.72129822 34.71624374
outer loop
vertex -26.30084610 12.38371658 66.74959564
vertex -23.26409340 10.60482788 63.71284485
vertex -10.80988503 14.74134922 75.20570374
endloop
endfacet
facet normal -1.61940503 -14.93932915 7.13184261
outer loop
vertex -10.80988503 14.74134922 75.20570374
vertex -23.26409340 10.60482788 63.71284485
vertex -10.18603706 14.37590790 74.58185577
endloop
endfacet
facet normal 22.57612228 9.23016739 -0.13912106
outer loop
vertex -11.21836948 15.75402832 76.10565948
vertex -10.80988503 14.74134922 75.20570374
vertex -15.55073738 26.15387917 63.05442047
endloop
endfacet
facet normal 2.31047893 0.65299851 -0.28814027
outer loop
vertex -15.55073738 26.15387917 63.05442047
vertex -10.80988503 14.74134922 75.20570374
vertex -15.52269554 26.02559662 62.98855591
endloop
endfacet
facet normal -1.54396188 0.59859520 -1.82320869
outer loop
vertex -15.55073738 26.15387917 63.05442047
vertex -15.52269554 26.02559662 62.98855591
vertex -27.43997955 15.52595711 69.63332367
endloop
endfacet
facet normal -51.15756226 26.79693031 -49.40746307
outer loop
vertex -27.43997955 15.52595711 69.63332367
vertex -15.52269554 26.02559662 62.98855591
vertex -26.30084610 12.38371658 66.74959564
endloop
endfacet
facet normal -19.67993927 -54.15156555 51.23200607
outer loop
vertex -27.43997955 15.52595711 69.63332367
vertex -26.30084610 12.38371658 66.74959564
vertex -11.21836948 15.75402832 76.10565948
endloop
endfacet
facet normal -6.44155884 -17.39536858 16.65042877
outer loop
vertex -11.21836948 15.75402832 76.10565948
vertex -26.30084610 12.38371658 66.74959564
vertex -10.80988503 14.74134922 75.20570374
endloop
endfacet
facet normal 52.46538544 20.83172226 -0.81621265
outer loop
vertex -12.10443020 18.06941605 78.24479675
vertex -11.21836948 15.75402832 76.10565948
vertex -16.05908203 27.48224640 64.28166962
endloop
endfacet
facet normal 30.10004807 11.95142174 -0.46826696
outer loop
vertex -16.05908203 27.48224640 64.28166962
vertex -11.21836948 15.75402832 76.10565948
vertex -15.55073738 26.15387917 63.05442047
endloop
endfacet
facet normal -21.78230667 11.24671078 -21.19592667
outer loop
vertex -16.05908203 27.48224640 64.28166962
vertex -15.55073738 26.15387917 63.05442047
vertex -27.66866112 16.12353134 70.18540955
endloop
endfacet
facet normal -9.79890823 5.05940866 -9.53511429
outer loop
vertex -27.66866112 16.12353134 70.18540955
vertex -15.55073738 26.15387917 63.05442047
vertex -27.43997955 15.52595711 69.63332367
endloop
endfacet
facet normal -3.74178648 -10.43582535 9.74577141
outer loop
vertex -27.66866112 16.12353134 70.18540955
vertex -27.43997955 15.52595711 69.63332367
vertex -12.10443020 18.06941605 78.24479675
endloop
endfacet
facet normal -14.49809265 -40.43513107 37.76140213
outer loop
vertex -12.10443020 18.06941605 78.24479675
vertex -27.43997955 15.52595711 69.63332367
vertex -11.21836948 15.75402832 76.10565948
endloop
endfacet
facet normal 48.77061844 29.89606857 6.34014082
outer loop
vertex -13.76959038 20.43018913 79.92189789
vertex -12.10443020 18.06941605 78.24479675
vertex -16.90236473 28.67919159 65.12326813
endloop
endfacet
facet normal 24.63492203 15.10309219 3.20417595
outer loop
vertex -16.90236473 28.67919159 65.12326813
vertex -12.10443020 18.06941605 78.24479675
vertex -16.05908203 27.48224640 64.28166962
endloop
endfacet
facet normal -16.62560463 4.78054380 -23.45790100
outer loop
vertex -16.90236473 28.67919159 65.12326813
vertex -16.05908203 27.48224640 64.28166962
vertex -28.13958359 16.81180191 70.66907501
endloop
endfacet
facet normal -9.55718803 2.83494854 -13.33960533
outer loop
vertex -28.13958359 16.81180191 70.66907501
vertex -16.05908203 27.48224640 64.28166962
vertex -27.66866112 16.12353134 70.18540955
endloop
endfacet
facet normal -4.61835670 -11.30763245 11.59442329
outer loop
vertex -28.13958359 16.81180191 70.66907501
vertex -27.66866112 16.12353134 70.18540955
vertex -13.76959038 20.43018913 79.92189789
endloop
endfacet
facet normal -15.76293945 -39.52296066 39.98382950
outer loop
vertex -13.76959038 20.43018913 79.92189789
vertex -27.66866112 16.12353134 70.18540955
vertex -12.10443020 18.06941605 78.24479675
endloop
endfacet
facet normal 35.25988388 21.66946793 4.61463451
outer loop
vertex -14.97805500 22.13921547 81.13036346
vertex -13.76959038 20.43018913 79.92189789
vertex -16.95058823 28.74739075 65.17149353
endloop
endfacet
facet normal 1.40706551 0.86472094 0.18414317
outer loop
vertex -16.95058823 28.74739075 65.17149353
vertex -13.76959038 20.43018913 79.92189789
vertex -16.90236473 28.67919159 65.12326813
endloop
endfacet
facet normal -0.95052576 0.27448449 -1.33865738
outer loop
vertex -16.95058823 28.74739075 65.17149353
vertex -16.90236473 28.67919159 65.12326813
vertex -29.85698318 19.24057198 72.38647461
endloop
endfacet
facet normal -33.85054016 9.77442837 -47.67366791
outer loop
vertex -29.85698318 19.24057198 72.38647461
vertex -16.90236473 28.67919159 65.12326813
vertex -28.13958359 16.81180191 70.66907501
endloop
endfacet
facet normal -16.25876617 -40.56981659 41.11562729
outer loop
vertex -29.85698318 19.24057198 72.38647461
vertex -28.13958359 16.81180191 70.66907501
vertex -14.97805500 22.13921547 81.13036346
endloop
endfacet
facet normal -11.44062233 -28.54735184 28.93138885
outer loop
vertex -14.97805500 22.13921547 81.13036346
vertex -28.13958359 16.81180191 70.66907501
vertex -13.76959038 20.43018913 79.92189789
endloop
endfacet
facet normal 39.95723343 11.72747231 -0.08269167
outer loop
vertex -15.63207436 24.37216759 81.78437805
vertex -14.97805500 22.13921547 81.13036346
vertex -16.97668457 28.83649826 65.19759369
endloop
endfacet
facet normal 1.59452963 0.46795160 -0.00331831
outer loop
vertex -16.97668457 28.83649826 65.19759369
vertex -14.97805500 22.13921547 81.13036346
vertex -16.95058823 28.74739075 65.17149353
endloop
endfacet
facet normal -0.89103484 0.14857787 -1.39815843
outer loop
vertex -16.97668457 28.83649826 65.19759369
vertex -16.95058823 28.74739075 65.17149353
vertex -30.78643417 22.41391182 73.31592560
endloop
endfacet
facet normal -31.73170853 5.28988981 -49.79249954
outer loop
vertex -30.78643417 22.41391182 73.31592560
vertex -16.95058823 28.74739075 65.17149353
vertex -29.85698318 19.24057198 72.38647461
endloop
endfacet
facet normal -25.05317497 -21.95624542 49.91003799
outer loop
vertex -30.78643417 22.41391182 73.31592560
vertex -29.85698318 19.24057198 72.38647461
vertex -15.63207436 24.37216759 81.78437805
endloop
endfacet
facet normal -17.62893105 -15.44970894 35.11970139
outer loop
vertex -15.63207436 24.37216759 81.78437805
vertex -29.85698318 19.24057198 72.38647461
vertex -14.97805500 22.13921547 81.13036346
endloop
endfacet
facet normal 45.40307617 13.32577229 -0.09397840
outer loop
vertex -16.37522697 26.90945053 82.52753448
vertex -15.63207436 24.37216759 81.78437805
vertex -17.44145584 30.42332649 65.66236115
endloop
endfacet
facet normal 28.39525414 8.33399200 -0.05877280
outer loop
vertex -17.44145584 30.42332649 65.66236115
vertex -15.63207436 24.37216759 81.78437805
vertex -16.97668457 28.83649826 65.19759369
endloop
endfacet
facet normal -15.86741161 2.64515328 -24.89873314
outer loop
vertex -17.44145584 30.42332649 65.66236115
vertex -16.97668457 28.83649826 65.19759369
vertex -31.20061111 23.82800293 73.73010254
endloop
endfacet
facet normal -14.14014816 2.35725403 -22.18833160
outer loop
vertex -31.20061111 23.82800293 73.73010254
vertex -16.97668457 28.83649826 65.19759369
vertex -30.78643417 22.41391182 73.31592560
endloop
endfacet
facet normal -11.16410637 -9.78402519 22.24070740
outer loop
vertex -31.20061111 23.82800293 73.73010254
vertex -30.78643417 22.41391182 73.31592560
vertex -16.37522697 26.90945053 82.52753448
endloop
endfacet
facet normal -20.03156853 -17.55541229 39.90618134
outer loop
vertex -16.37522697 26.90945053 82.52753448
vertex -30.78643417 22.41391182 73.31592560
vertex -15.63207436 24.37216759 81.78437805
endloop
endfacet
facet normal 44.28020096 16.82956314 0.71269298
outer loop
vertex -17.34746742 29.45044136 82.93056488
vertex -16.37522697 26.90945053 82.52753448
vertex -18.00418472 31.89984131 65.89271545
endloop
endfacet
facet normal 25.71111298 9.73613071 0.40305686
outer loop
vertex -18.00418472 31.89984131 65.89271545
vertex -16.37522697 26.90945053 82.52753448
vertex -17.44145584 30.42332649 65.66236115
endloop
endfacet
facet normal -13.43687916 -1.37316442 -24.02309036
outer loop
vertex -18.00418472 31.89984131 65.89271545
vertex -17.44145584 30.42332649 65.66236115
vertex -31.77747726 25.34851456 73.97103119
endloop
endfacet
facet normal -13.85609722 -1.33903241 -24.72557449
outer loop
vertex -31.77747726 25.34851456 73.97103119
vertex -17.44145584 30.42332649 65.66236115
vertex -31.20061111 23.82800293 73.73010254
endloop
endfacet
facet normal -12.63480377 -8.64505482 24.30726051
outer loop
vertex -31.77747726 25.34851456 73.97103119
vertex -31.20061111 23.82800293 73.73010254
vertex -17.34746742 29.45044136 82.93056488
endloop
endfacet
facet normal -21.11227608 -14.52829933 40.66707230
outer loop
vertex -17.34746742 29.45044136 82.93056488
vertex -31.20061111 23.82800293 73.73010254
vertex -16.37522697 26.90945053 82.52753448
endloop
endfacet
facet normal 27.34037018 10.39292622 0.44028893
outer loop
vertex -17.94787216 31.01937294 83.17926025
vertex -17.34746742 29.45044136 82.93056488
vertex -18.15445900 32.29253006 65.95496368
endloop
endfacet
facet normal 6.84304285 2.60123014 0.11019629
outer loop
vertex -18.15445900 32.29253006 65.95496368
vertex -17.34746742 29.45044136 82.93056488
vertex -18.00418472 31.89984131 65.89271545
endloop
endfacet
facet normal -3.58006477 -0.35659635 -6.39311743
outer loop
vertex -18.15445900 32.29253006 65.95496368
vertex -18.00418472 31.89984131 65.89271545
vertex -33.13169861 28.88726234 74.53196716
endloop
endfacet
facet normal -32.26199722 -3.21389198 -57.61215210
outer loop
vertex -33.13169861 28.88726234 74.53196716
vertex -18.00418472 31.89984131 65.89271545
vertex -31.77747726 25.34851456 73.97103119
endloop
endfacet
facet normal -29.40461159 -20.22750473 56.61907959
outer loop
vertex -33.13169861 28.88726234 74.53196716
vertex -31.77747726 25.34851456 73.97103119
vertex -17.94787216 31.01937294 83.17926025
endloop
endfacet
facet normal -13.03676510 -8.96802330 25.10251427
outer loop
vertex -17.94787216 31.01937294 83.17926025
vertex -31.77747726 25.34851456 73.97103119
vertex -17.34746742 29.45044136 82.93056488
endloop
endfacet
facet normal 29.25033760 0.00000000 -0.35082296
outer loop
vertex -17.94787216 32.71757507 83.17926025
vertex -17.94787216 31.01937294 83.17926025
vertex -18.15445709 32.71757507 65.95496368
endloop
endfacet
facet normal 7.32110119 -0.00003285 -0.08781113
outer loop
vertex -18.15445709 32.71757507 65.95496368
vertex -17.94787216 31.01937294 83.17926025
vertex -18.15445900 32.29253006 65.95496368
endloop
endfacet
facet normal -3.64561248 0.00001636 -6.36600161
outer loop
vertex -18.15445709 32.71757507 65.95496368
vertex -18.15445900 32.29253006 65.95496368
vertex -33.13169861 32.71757507 74.53196716
endloop
endfacet
facet normal -32.85260391 -0.00000000 -57.36751175
outer loop
vertex -33.13169861 32.71757507 74.53196716
vertex -18.15445900 32.29253006 65.95496368
vertex -33.13169861 28.88726234 74.53196716
endloop
endfacet
facet normal -33.12183762 0.00000000 58.15880203
outer loop
vertex -33.13169861 32.71757507 74.53196716
vertex -33.13169861 28.88726234 74.53196716
vertex -17.94787216 32.71757507 83.17926025
endloop
endfacet
facet normal -14.68485165 0.00000000 25.78520584
outer loop
vertex -17.94787216 32.71757507 83.17926025
vertex -33.13169861 28.88726234 74.53196716
vertex -17.94787216 31.01937294 83.17926025
endloop
endfacet
facet normal 46.15362930 0.00000000 -0.55355781
outer loop
vertex -17.94787216 35.39714050 83.17926025
vertex -17.94787216 32.71757507 83.17926025
vertex -18.15445709 36.02524185 65.95496368
endloop
endfacet
facet normal 56.97223282 0.00000000 -0.68331409
outer loop
vertex -18.15445709 36.02524185 65.95496368
vertex -17.94787216 32.71757507 83.17926025
vertex -18.15445709 32.71757507 65.95496368
endloop
endfacet
facet normal -28.36986923 -0.00000000 -49.53972244
outer loop
vertex -18.15445709 36.02524185 65.95496368
vertex -18.15445709 32.71757507 65.95496368
vertex -33.13169861 32.77049255 74.53196716
endloop
endfacet
facet normal -0.45387343 -0.00000000 -0.79255790
outer loop
vertex -33.13169861 32.77049255 74.53196716
vertex -18.15445709 32.71757507 65.95496368
vertex -33.13169861 32.71757507 74.53196716
endloop
endfacet
facet normal -0.45759296 0.00000000 0.80348986
outer loop
vertex -33.13169861 32.77049255 74.53196716
vertex -33.13169861 32.71757507 74.53196716
vertex -17.94787216 35.39714050 83.17926025
endloop
endfacet
facet normal -23.17098808 0.00000000 40.68605804
outer loop
vertex -17.94787216 35.39714050 83.17926025
vertex -33.13169861 32.71757507 74.53196716
vertex -17.94787216 32.71757507 83.17926025
endloop
endfacet
facet normal 53.65893173 21.57199478 -0.05560841
outer loop
vertex -19.19973564 38.51122284 83.23876190
vertex -17.94787216 35.39714050 83.17926025
vertex -19.21504402 38.50488281 66.00758362
endloop
endfacet
facet normal 42.74312210 18.27873421 0.15389943
outer loop
vertex -19.21504402 38.50488281 66.00758362
vertex -17.94787216 35.39714050 83.17926025
vertex -18.15445709 36.02524185 65.95496368
endloop
endfacet
facet normal -21.44044876 -8.30817318 -40.63427353
outer loop
vertex -19.21504402 38.50488281 66.00758362
vertex -18.15445709 36.02524185 65.95496368
vertex -33.13589478 32.73867798 74.53181458
endloop
endfacet
facet normal 0.27337036 -0.03827589 0.46283710
outer loop
vertex -33.13589478 32.73867798 74.53181458
vertex -18.15445709 36.02524185 65.95496368
vertex -33.13169861 32.77049255 74.53196716
endloop
endfacet
facet normal 0.27612701 -0.03440931 -0.41915044
outer loop
vertex -33.13589478 32.73867798 74.53181458
vertex -33.13169861 32.77049255 74.53196716
vertex -19.19973564 38.51122284 83.23876190
endloop
endfacet
facet normal -26.77209282 -11.72869301 50.57189178
outer loop
vertex -19.19973564 38.51122284 83.23876190
vertex -33.13169861 32.77049255 74.53196716
vertex -17.94787216 35.39714050 83.17926025
endloop
endfacet
facet normal 10.10033703 4.18369293 -0.01051332
outer loop
vertex -19.44253349 39.09738922 83.23876190
vertex -19.19973564 38.51122284 83.23876190
vertex -19.71539116 39.71282578 66.00758362
endloop
endfacet
facet normal 20.81428146 8.62157059 -0.02166384
outer loop
vertex -19.71539116 39.71282578 66.00758362
vertex -19.19973564 38.51122284 83.23876190
vertex -19.21504402 38.50488281 66.00758362
endloop
endfacet
facet normal -10.29678440 -4.26507473 -19.70069504
outer loop
vertex -19.71539116 39.71282578 66.00758362
vertex -19.21504402 38.50488281 66.00758362
vertex -34.67850876 36.46287918 74.53181458
endloop
endfacet
facet normal -31.74595070 -13.14959812 -60.73907852
outer loop
vertex -34.67850876 36.46287918 74.53181458
vertex -19.21504402 38.50488281 66.00758362
vertex -33.13589478 32.73867798 74.53181458
endloop
endfacet
facet normal -32.42642212 -13.43145847 60.80587006
outer loop
vertex -34.67850876 36.46287918 74.53181458
vertex -33.13589478 32.73867798 74.53181458
vertex -19.44253349 39.09738922 83.23876190
endloop
endfacet
facet normal -5.10371971 -2.11402822 9.57046986
outer loop
vertex -19.44253349 39.09738922 83.23876190
vertex -33.13589478 32.73867798 74.53181458
vertex -19.19973564 38.51122284 83.23876190
endloop
endfacet
facet normal 22.66208267 0.60905182 -0.27180219
outer loop
vertex -19.47860718 40.41309357 83.17926025
vertex -19.44253349 39.09738922 83.23876190
vertex -19.68519020 40.41309357 65.95496368
endloop
endfacet
facet normal 12.03405476 -0.53475583 -0.20966020
outer loop
vertex -19.68519020 40.41309357 65.95496368
vertex -19.44253349 39.09738922 83.23876190
vertex -19.71539116 39.71282578 66.00758362
endloop
endfacet
facet normal -6.00619936 -0.52906764 -10.48807812
outer loop
vertex -19.68519020 40.41309357 65.95496368
vertex -19.71539116 39.71282578 66.00758362
vertex -34.66242981 40.41309357 74.53196716
endloop
endfacet
facet normal -33.67303467 0.13934387 -59.05526733
outer loop
vertex -34.66242981 40.41309357 74.53196716
vertex -19.71539116 39.71282578 66.00758362
vertex -34.67850876 36.46287918 74.53181458
endloop
endfacet
facet normal -34.15866089 0.13672252 59.97935486
outer loop
vertex -34.66242981 40.41309357 74.53196716
vertex -34.67850876 36.46287918 74.53181458
vertex -19.47860718 40.41309357 83.17926025
endloop
endfacet
facet normal -11.61252594 0.59247398 20.14107513
outer loop
vertex -19.47860718 40.41309357 83.17926025
vertex -34.67850876 36.46287918 74.53181458
vertex -19.44253349 39.09738922 83.23876190
endloop
endfacet
facet normal 0.00000000 -87.52911377 0.00000000
outer loop
vertex -24.66289139 40.41309357 74.62805176
vertex -19.68519020 40.41309357 65.95496368
vertex -19.47860718 40.41309357 83.17926025
endloop
endfacet
facet normal 0.00000000 -87.20515442 -0.00000000
outer loop
vertex -24.66289139 40.41309357 74.62805176
vertex -34.66242981 40.41309357 74.53196716
vertex -19.68519020 40.41309357 65.95496368
endloop
endfacet
facet normal -0.00000000 -85.01000977 0.00000000
outer loop
vertex -24.66289139 40.41309357 74.62805176
vertex -19.47860718 40.41309357 83.17926025
vertex -34.66242981 40.41309357 74.53196716
endloop
endfacet
endsolid