solid (null).stl
facet normal 0.00000000 -0.00000000 86.60253906
outer loop
vertex 0.00000000 0.00000000 0.00000000
vertex 10.00000000 0.00000000 0.00000000
vertex -5.00000048 8.66025352 0.00000000
endloop
endfacet
facet normal 0.00000000 0.00000000 86.60253906
outer loop
vertex 0.00000000 0.00000000 0.00000000
vertex -5.00000048 8.66025352 0.00000000
vertex -4.99999905 -8.66025448 0.00000000
endloop
endfacet
facet normal -0.00000000 0.00000000 86.60254669
outer loop
vertex 0.00000000 0.00000000 0.00000000
vertex -4.99999905 -8.66025448 0.00000000
vertex 10.00000000 0.00000000 0.00000000
endloop
endfacet
facet normal 17.32050705 30.00000000 0.00000000
outer loop
vertex 10.00000000 0.00000000 2.00000000
vertex 10.00000000 0.00000000 0.00000000
vertex -5.00000048 8.66025352 2.00000000
endloop
endfacet
facet normal 17.32050705 30.00000000 0.00000000
outer loop
vertex -5.00000048 8.66025352 2.00000000
vertex 10.00000000 0.00000000 0.00000000
vertex -5.00000048 8.66025352 0.00000000
endloop
endfacet
facet normal -34.64101410 -0.00000286 -0.00000000
outer loop
vertex -5.00000048 8.66025352 2.00000000
vertex -5.00000048 8.66025352 0.00000000
vertex -4.99999905 -8.66025448 2.00000000
endloop
endfacet
facet normal -34.64101410 -0.00000286 -0.00000000
outer loop
vertex -4.99999905 -8.66025448 2.00000000
vertex -5.00000048 8.66025352 0.00000000
vertex -4.99999905 -8.66025448 0.00000000
endloop
endfacet
facet normal 17.32050896 -29.99999809 0.00000000
outer loop
vertex -4.99999905 -8.66025448 2.00000000
vertex -4.99999905 -8.66025448 0.00000000
vertex 10.00000000 0.00000000 2.00000000
endloop
endfacet
facet normal 17.32050896 -29.99999809 0.00000000
outer loop
vertex 10.00000000 0.00000000 2.00000000
vertex -4.99999905 -8.66025448 0.00000000
vertex 10.00000000 0.00000000 0.00000000
endloop
endfacet
facet normal 34.54681778 59.83684921 0.00000000
outer loop
vertex 10.00000000 0.00000000 5.98912334
vertex 10.00000000 0.00000000 2.00000000
vertex -5.00000048 8.66025352 4.76181793
endloop
endfacet
facet normal 23.91804314 41.42726898 0.00000000
outer loop
vertex -5.00000048 8.66025352 4.76181793
vertex 10.00000000 0.00000000 2.00000000
vertex -5.00000048 8.66025352 2.00000000
endloop
endfacet
facet normal -47.83608627 -0.00000395 -0.00000000
outer loop
vertex -5.00000048 8.66025352 4.76181793
vertex -5.00000048 8.66025352 2.00000000
vertex -4.99999905 -8.66025448 1.24905825
endloop
endfacet
facet normal 13.00669193 0.00000107 -0.00000000
outer loop
vertex -4.99999905 -8.66025448 1.24905825
vertex -5.00000048 8.66025352 2.00000000
vertex -4.99999905 -8.66025448 2.00000000
endloop
endfacet
facet normal -6.50334692 11.26412582 0.00000000
outer loop
vertex -4.99999905 -8.66025448 1.24905825
vertex -4.99999905 -8.66025448 2.00000000
vertex 10.00000000 0.00000000 5.98912334
endloop
endfacet
facet normal 34.54682159 -59.83684540 0.00000000
outer loop
vertex 10.00000000 0.00000000 5.98912334
vertex -4.99999905 -8.66025448 2.00000000
vertex 10.00000000 0.00000000 2.00000000
endloop
endfacet
facet normal 26.51861763 50.61960983 33.97267914
outer loop
vertex 8.61619282 -1.46659970 9.25455189
vertex 10.00000000 0.00000000 5.98912334
vertex -6.02986145 7.56123304 7.23550987
endloop
endfacet
facet normal 20.07396507 38.36933517 25.40416336
outer loop
vertex -6.02986145 7.56123304 7.23550987
vertex 10.00000000 0.00000000 5.98912334
vertex -5.00000048 8.66025352 4.76181793
endloop
endfacet
facet normal -46.68845749 3.61378741 -17.83204651
outer loop
vertex -6.02986145 7.56123304 7.23550987
vertex -5.00000048 8.66025352 4.76181793
vertex -4.73866034 -8.37586021 0.62508249
endloop
endfacet
facet normal 11.80658627 -0.91801924 4.52651978
outer loop
vertex -4.73866034 -8.37586021 0.62508249
vertex -5.00000048 8.66025352 4.76181793
vertex -4.99999905 -8.66025448 1.24905825
endloop
endfacet
facet normal -6.76538277 10.58831787 1.99238622
outer loop
vertex -4.73866034 -8.37586021 0.62508249
vertex -4.99999905 -8.66025448 1.24905825
vertex 8.61619282 -1.46659970 9.25455189
endloop
endfacet
facet normal 35.23122025 -55.54076004 -10.01487160
outer loop
vertex 8.61619282 -1.46659970 9.25455189
vertex -4.99999905 -8.66025448 1.24905825
vertex 10.00000000 0.00000000 5.98912334
endloop
endfacet
facet normal 1.16191816 2.21471119 1.47422540
outer loop
vertex 8.55694103 -1.53073370 9.39759922
vertex 8.61619282 -1.46659970 9.25455189
vertex -6.41978979 7.13917732 8.17688084
endloop
endfacet
facet normal 7.64639139 14.57465172 9.70165825
outer loop
vertex -6.41978979 7.13917732 8.17688084
vertex 8.61619282 -1.46659970 9.25455189
vertex -6.02986145 7.56123304 7.23550987
endloop
endfacet
facet normal -17.79268646 1.36209452 -6.75928211
outer loop
vertex -6.41978979 7.13917732 8.17688084
vertex -6.02986145 7.56123304 7.23550987
vertex -6.41186714 -10.18692684 4.66456175
endloop
endfacet
facet normal -76.34947968 5.84483194 -29.00450325
outer loop
vertex -6.41186714 -10.18692684 4.66456175
vertex -6.02986145 7.56123304 7.23550987
vertex -4.73866034 -8.37586021 0.62508249
endloop
endfacet
facet normal 43.53835678 -68.38554382 -12.62590790
outer loop
vertex -6.41186714 -10.18692684 4.66456175
vertex -4.73866034 -8.37586021 0.62508249
vertex 8.55694103 -1.53073370 9.39759922
endloop
endfacet
facet normal 1.54179370 -2.42168760 -0.44711414
outer loop
vertex 8.55694103 -1.53073370 9.39759922
vertex -4.73866034 -8.37586021 0.62508249
vertex 8.61619282 -1.46659970 9.25455189
endloop
endfacet
facet normal 0.14388113 0.24920942 -0.24981186
outer loop
vertex 8.58578682 -1.53073370 9.41421318
vertex 8.55694103 -1.53073370 9.39759922
vertex -6.41421413 7.12952042 9.41421318
endloop
endfacet
facet normal 10.71577358 18.52438736 0.09628844
outer loop
vertex -6.41421413 7.12952042 9.41421318
vertex 8.55694103 -1.53073370 9.39759922
vertex -6.41978979 7.13917732 8.17688084
endloop
endfacet
facet normal -21.43122673 -0.00000236 0.09657320
outer loop
vertex -6.41421413 7.12952042 9.41421318
vertex -6.41978979 7.13917732 8.17688084
vertex -6.41421223 -10.19098854 9.41421318
endloop
endfacet
facet normal -82.30722046 -0.02939313 -0.04066337
outer loop
vertex -6.41421223 -10.19098854 9.41421318
vertex -6.41978979 7.13917732 8.17688084
vertex -6.41186714 -10.18692684 4.66456175
endloop
endfacet
facet normal 41.13319016 -71.24476624 -0.04061645
outer loop
vertex -6.41421223 -10.19098854 9.41421318
vertex -6.41186714 -10.18692684 4.66456175
vertex 8.58578682 -1.53073370 9.41421318
endloop
endfacet
facet normal 0.14381364 -0.11216299 -0.24969469
outer loop
vertex 8.58578682 -1.53073370 9.41421318
vertex -6.41186714 -10.18692684 4.66456175
vertex 8.55694103 -1.53073370 9.39759922
endloop
endfacet
facet normal 34.54682159 59.83685303 0.00000000
outer loop
vertex 8.58578682 -1.53073370 13.40333652
vertex 8.58578682 -1.53073370 9.41421318
vertex -6.41421413 7.12952042 12.17603111
endloop
endfacet
facet normal 23.91804695 41.42727280 0.00000000
outer loop
vertex -6.41421413 7.12952042 12.17603111
vertex 8.58578682 -1.53073370 9.41421318
vertex -6.41421413 7.12952042 9.41421318
endloop
endfacet
facet normal -47.83609390 -0.00000527 -0.00000000
outer loop
vertex -6.41421413 7.12952042 12.17603111
vertex -6.41421413 7.12952042 9.41421318
vertex -6.41421223 -10.19098854 8.66327095
endloop
endfacet
facet normal 13.00670147 0.00000143 -0.00000000
outer loop
vertex -6.41421223 -10.19098854 8.66327095
vertex -6.41421413 7.12952042 9.41421318
vertex -6.41421223 -10.19098854 9.41421318
endloop
endfacet
facet normal -6.50335073 11.26413250 0.00000000
outer loop
vertex -6.41421223 -10.19098854 8.66327095
vertex -6.41421223 -10.19098854 9.41421318
vertex 8.58578682 -1.53073370 13.40333652
endloop
endfacet
facet normal 34.54682159 -59.83684540 0.00000000
outer loop
vertex 8.58578682 -1.53073370 13.40333652
vertex -6.41421223 -10.19098854 9.41421318
vertex 8.58578682 -1.53073370 9.41421318
endloop
endfacet
facet normal 26.51861000 50.61959076 33.97267914
outer loop
vertex 7.20197916 -2.99733329 16.66876411
vertex 8.58578682 -1.53073370 13.40333652
vertex -7.44407415 6.03049946 14.64972305
endloop
endfacet
facet normal 20.07396507 38.36933517 25.40416527
outer loop
vertex -7.44407415 6.03049946 14.64972305
vertex 8.58578682 -1.53073370 13.40333652
vertex -6.41421413 7.12952042 12.17603111
endloop
endfacet
facet normal -46.68846130 3.61378288 -17.83203125
outer loop
vertex -7.44407415 6.03049946 14.64972305
vertex -6.41421413 7.12952042 12.17603111
vertex -6.15287352 -9.90659428 8.03929520
endloop
endfacet
facet normal 11.80658627 -0.91801906 4.52651978
outer loop
vertex -6.15287352 -9.90659428 8.03929520
vertex -6.41421413 7.12952042 12.17603111
vertex -6.41421223 -10.19098854 8.66327095
endloop
endfacet
facet normal -6.76538277 10.58831787 1.99238622
outer loop
vertex -6.15287352 -9.90659428 8.03929520
vertex -6.41421223 -10.19098854 8.66327095
vertex 7.20197916 -2.99733329 16.66876411
endloop
endfacet
facet normal 35.23121262 -55.54075241 -10.01486683
outer loop
vertex 7.20197916 -2.99733329 16.66876411
vertex -6.41421223 -10.19098854 8.66327095
vertex 8.58578682 -1.53073370 13.40333652
endloop
endfacet
facet normal 14.91290474 28.42522049 18.92133331
outer loop
vertex 6.44149399 -3.82047653 18.50473785
vertex 7.20197916 -2.99733329 16.66876411
vertex -7.51735640 5.95117950 14.82664204
endloop
endfacet
facet normal 1.43704486 2.73912454 1.82330406
outer loop
vertex -7.51735640 5.95117950 14.82664204
vertex 7.20197916 -2.99733329 16.66876411
vertex -7.44407415 6.03049946 14.64972305
endloop
endfacet
facet normal -3.34391403 0.25598907 -1.27032423
outer loop
vertex -7.51735640 5.95117950 14.82664204
vertex -7.44407415 6.03049946 14.64972305
vertex -7.43929482 -11.29900646 11.14499092
endloop
endfacet
facet normal -58.70020294 4.49371910 -22.29969978
outer loop
vertex -7.43929482 -11.29900646 11.14499092
vertex -7.44407415 6.03049946 14.64972305
vertex -6.15287352 -9.90659428 8.03929520
endloop
endfacet
facet normal 33.47383881 -52.57723999 -9.70723915
outer loop
vertex -7.43929482 -11.29900646 11.14499092
vertex -6.15287352 -9.90659428 8.03929520
vertex 6.44149399 -3.82047653 18.50473785
endloop
endfacet
facet normal 19.78850937 -31.08174324 -5.73856688
outer loop
vertex 6.44149399 -3.82047653 18.50473785
vertex -6.15287352 -9.90659428 8.03929520
vertex 7.20197916 -2.99733329 16.66876411
endloop
endfacet
facet normal 19.41866112 30.76723480 8.04347038
outer loop
vertex 5.61835098 -3.82047653 20.49198151
vertex 6.44149399 -3.82047653 18.50473785
vertex -7.59667587 5.95117903 15.01813698
endloop
endfacet
facet normal 1.87122107 2.96479392 0.77508932
outer loop
vertex -7.59667587 5.95117903 15.01813698
vertex 6.44149399 -3.82047653 18.50473785
vertex -7.51735640 5.95117950 14.82664204
endloop
endfacet
facet normal -3.30332351 0.27707919 -1.36827505
outer loop
vertex -7.59667587 5.95117903 15.01813698
vertex -7.51735640 5.95117950 14.82664204
vertex -8.83170605 -11.29900551 14.50657082
endloop
endfacet
facet normal -57.98787689 4.86396217 -24.01935387
outer loop
vertex -8.83170605 -11.29900551 14.50657082
vertex -7.51735640 5.95117950 14.82664204
vertex -7.43929482 -11.29900646 11.14499092
endloop
endfacet
facet normal 25.13966751 -56.90917206 10.41320133
outer loop
vertex -8.83170605 -11.29900551 14.50657082
vertex -7.43929482 -11.29900646 11.14499092
vertex 5.61835098 -3.82047653 20.49198151
endloop
endfacet
facet normal 14.86166096 -33.64263153 6.15589952
outer loop
vertex 5.61835098 -3.82047653 20.49198151
vertex -7.43929482 -11.29900646 11.14499092
vertex 6.44149399 -3.82047653 18.50473785
endloop
endfacet
facet normal 1.53968143 2.43949413 0.63775355
outer loop
vertex 5.55308533 -3.82047653 20.64954758
vertex 5.61835098 -3.82047653 20.49198151
vertex -7.99236202 5.95117903 15.97340775
endloop
endfacet
facet normal 9.33457756 14.78985310 3.86650896
outer loop
vertex -7.99236202 5.95117903 15.97340775
vertex 5.61835098 -3.82047653 20.49198151
vertex -7.59667587 5.95117903 15.01813698
endloop
endfacet
facet normal -16.47859764 1.38220716 -6.82565928
outer loop
vertex -7.99236202 5.95117903 15.97340775
vertex -7.59667587 5.95117903 15.01813698
vertex -10.66796589 -11.29900551 18.93969536
endloop
endfacet
facet normal -76.47222137 6.41441059 -31.67582130
outer loop
vertex -10.66796589 -11.29900551 18.93969536
vertex -7.59667587 5.95117903 15.01813698
vertex -8.83170605 -11.29900551 14.50657082
endloop
endfacet
facet normal 33.15325165 -75.04966736 13.73252201
outer loop
vertex -10.66796589 -11.29900551 18.93969536
vertex -8.83170605 -11.29900551 14.50657082
vertex 5.55308533 -3.82047653 20.64954758
endloop
endfacet
facet normal 1.17836237 -2.66748047 0.48809108
outer loop
vertex 5.55308533 -3.82047653 20.64954758
vertex -8.83170605 -11.29900551 14.50657082
vertex 5.61835098 -3.82047653 20.49198151
endloop
endfacet
facet normal 3.53619099 4.17168236 -1.47207832
outer loop
vertex 5.52609348 -3.69165850 20.94976234
vertex 5.55308533 -3.82047653 20.64954758
vertex -7.99710512 6.30964565 16.80708504
endloop
endfacet
facet normal 9.82264709 11.31471062 -4.80924273
outer loop
vertex -7.99710512 6.30964565 16.80708504
vertex 5.55308533 -3.82047653 20.64954758
vertex -7.99236202 5.95117903 15.97340775
endloop
endfacet
facet normal -15.49641418 2.19123554 -1.03035772
outer loop
vertex -7.99710512 6.30964565 16.80708504
vertex -7.99236202 5.95117903 15.97340775
vertex -10.66268539 -9.46826077 23.34250832
endloop
endfacet
facet normal -81.37985229 11.79584694 -4.80725813
outer loop
vertex -10.66268539 -9.46826077 23.34250832
vertex -7.99236202 5.95117903 15.97340775
vertex -10.66796589 -11.29900551 18.93969536
endloop
endfacet
facet normal 29.81380653 -71.28879547 29.60701561
outer loop
vertex -10.66268539 -9.46826077 23.34250832
vertex -10.66796589 -11.29900551 18.93969536
vertex 5.52609348 -3.69165850 20.94976234
endloop
endfacet
facet normal 2.02490497 -4.91595125 2.29142332
outer loop
vertex 5.52609348 -3.69165850 20.94976234
vertex -10.66796589 -11.29900551 18.93969536
vertex 5.55308533 -3.82047653 20.64954758
endloop
endfacet
facet normal 39.71582031 45.83708572 -18.98634338
outer loop
vertex 5.52609348 -2.28767538 24.33927727
vertex 5.52609348 -3.69165850 20.94976234
vertex -7.99710512 7.49368000 19.66559601
endloop
endfacet
facet normal 33.49391174 38.65621185 -16.01193237
outer loop
vertex -7.99710512 7.49368000 19.66559601
vertex 5.52609348 -3.69165850 20.94976234
vertex -7.99710512 6.30964565 16.80708504
endloop
endfacet
facet normal -52.83948517 7.61959028 -3.15613866
outer loop
vertex -7.99710512 7.49368000 19.66559601
vertex -7.99710512 6.30964565 16.80708504
vertex -10.66268539 -9.76137638 22.63486481
endloop
endfacet
facet normal 13.08076763 -1.88628054 0.78132319
outer loop
vertex -10.66268539 -9.76137638 22.63486481
vertex -7.99710512 6.30964565 16.80708504
vertex -10.66268539 -9.46826077 23.34250832
endloop
endfacet
facet normal -4.78912592 11.45588398 -4.74518347
outer loop
vertex -10.66268539 -9.76137638 22.63486481
vertex -10.66268539 -9.46826077 23.34250832
vertex 5.52609348 -2.28767538 24.33927727
endloop
endfacet
facet normal 22.93925476 -54.87210464 22.72877121
outer loop
vertex 5.52609348 -2.28767538 24.33927727
vertex -10.66268539 -9.46826077 23.34250832
vertex 5.52609348 -3.69165850 20.94976234
endloop
endfacet
facet normal 34.61690140 54.70462418 14.08359146
outer loop
vertex 4.08761883 -2.28974223 27.88301849
vertex 5.52609348 -2.28767538 24.33927727
vertex -9.12740898 7.48191261 22.40917397
endloop
endfacet
facet normal 26.78091431 42.38462830 11.21503735
outer loop
vertex -9.12740898 7.48191261 22.40917397
vertex 5.52609348 -2.28767538 24.33927727
vertex -7.99710512 7.49368000 19.66559601
endloop
endfacet
facet normal -47.33324814 3.96662927 -19.48341751
outer loop
vertex -9.12740898 7.48191261 22.40917397
vertex -7.99710512 7.49368000 19.66559601
vertex -10.36244011 -9.76827240 21.89760780
endloop
endfacet
facet normal 12.74188709 -1.07370877 5.19913054
outer loop
vertex -10.36244011 -9.76827240 21.89760780
vertex -7.99710512 7.49368000 19.66559601
vertex -10.66268539 -9.76137638 22.63486481
endloop
endfacet
facet normal -5.47232294 12.45049858 -2.34504128
outer loop
vertex -10.36244011 -9.76827240 21.89760780
vertex -10.66268539 -9.76137638 22.63486481
vertex 4.08761883 -2.28974223 27.88301849
endloop
endfacet
facet normal 26.48838425 -59.82059479 10.71726894
outer loop
vertex 4.08761883 -2.28974223 27.88301849
vertex -10.66268539 -9.76137638 22.63486481
vertex 5.52609348 -2.28767538 24.33927727
endloop
endfacet
facet normal 35.96133423 56.97771835 14.89567089
outer loop
vertex 2.56324339 -2.28974223 31.56318665
vertex 4.08761883 -2.28974223 27.88301849
vertex -9.56297016 7.48191261 23.46071053
endloop
endfacet
facet normal 10.27525234 16.28027916 4.25615358
outer loop
vertex -9.56297016 7.48191261 23.46071053
vertex 4.08761883 -2.28974223 27.88301849
vertex -9.12740898 7.48191261 22.40917397
endloop
endfacet
facet normal -18.13920021 1.52149868 -7.51351070
outer loop
vertex -9.56297016 7.48191261 23.46071053
vertex -9.12740898 7.48191261 22.40917397
vertex -10.69624424 -9.76827240 22.70348167
endloop
endfacet
facet normal -13.90147305 1.16604221 -5.75818300
outer loop
vertex -10.69624424 -9.76827240 22.70348167
vertex -9.12740898 7.48191261 22.40917397
vertex -10.36244011 -9.76827240 21.89760780
endloop
endfacet
facet normal 6.02675200 -13.64288044 2.49636412
outer loop
vertex -10.69624424 -9.76827240 22.70348167
vertex -10.36244011 -9.76827240 21.89760780
vertex 2.56324339 -2.28974223 31.56318665
endloop
endfacet
facet normal 27.52224731 -62.30266190 11.40008736
outer loop
vertex 2.56324339 -2.28974223 31.56318665
vertex -10.36244011 -9.76827240 21.89760780
vertex 4.08761883 -2.28974223 27.88301849
endloop
endfacet
facet normal 27.52363396 56.97777176 27.52363968
outer loop
vertex -0.25343847 -2.28974199 34.37986755
vertex 2.56324339 -2.28974223 31.56318665
vertex -10.36778164 7.48191261 24.26552200
endloop
endfacet
facet normal 7.86434031 16.28028107 7.86434031
outer loop
vertex -10.36778164 7.48191261 24.26552200
vertex 2.56324339 -2.28974223 31.56318665
vertex -9.56297016 7.48191261 23.46071053
endloop
endfacet
facet normal -13.88314724 1.52149844 -13.88314724
outer loop
vertex -10.36778164 7.48191261 24.26552200
vertex -9.56297016 7.48191261 23.46071053
vertex -11.31303310 -9.76827240 23.32027054
endloop
endfacet
facet normal -10.63972187 1.16604114 -10.63972187
outer loop
vertex -11.31303310 -9.76827240 23.32027054
vertex -9.56297016 7.48191261 23.46071053
vertex -10.69624424 -9.76827240 22.70348167
endloop
endfacet
facet normal 4.61267424 -13.64287186 4.61267424
outer loop
vertex -11.31303310 -9.76827240 23.32027054
vertex -10.69624424 -9.76827240 22.70348167
vertex -0.25343847 -2.28974199 34.37986755
endloop
endfacet
facet normal 21.06463242 -62.30271912 21.06464195
outer loop
vertex -0.25343847 -2.28974199 34.37986755
vertex -10.69624424 -9.76827240 22.70348167
vertex 2.56324339 -2.28974223 31.56318665
endloop
endfacet
facet normal 1.17840314 2.43944740 1.17839086
outer loop
vertex -0.37403125 -2.28974199 34.50046158
vertex -0.25343847 -2.28974199 34.37986755
vertex -11.09891319 7.48191261 24.99665260
endloop
endfacet
facet normal 7.14435530 14.78982258 7.14436483
outer loop
vertex -11.09891319 7.48191261 24.99665260
vertex -0.25343847 -2.28974199 34.37986755
vertex -10.36778164 7.48191261 24.26552200
endloop
endfacet
facet normal -12.61213779 1.38220227 -12.61215496
outer loop
vertex -11.09891319 7.48191261 24.99665260
vertex -10.36778164 7.48191261 24.26552200
vertex -14.70599842 -9.76827240 26.71323586
endloop
endfacet
facet normal -58.52927780 6.41441154 -58.52927780
outer loop
vertex -14.70599842 -9.76827240 26.71323586
vertex -10.36778164 7.48191261 24.26552200
vertex -11.31303310 -9.76827240 23.32027054
endloop
endfacet
facet normal 25.37439346 -75.04965210 25.37439346
outer loop
vertex -14.70599842 -9.76827240 26.71323586
vertex -11.31303310 -9.76827240 23.32027054
vertex -0.37403125 -2.28974199 34.50046158
endloop
endfacet
facet normal 0.90186608 -2.66742849 0.90185672
outer loop
vertex -0.37403125 -2.28974199 34.50046158
vertex -11.31303310 -9.76827240 23.32027054
vertex -0.25343847 -2.28974199 34.37986755
endloop
endfacet
facet normal 3.83034611 4.17168140 -0.00677407
outer loop
vertex -0.51385593 -2.16092443 34.76749420
vertex -0.37403125 -2.28974199 34.50046158
vertex -11.42233086 7.84037828 25.76505661
endloop
endfacet
facet normal 10.91536808 11.31474304 -0.68417621
outer loop
vertex -11.42233086 7.84037828 25.76505661
vertex -0.37403125 -2.28974199 34.50046158
vertex -11.09891319 7.48191261 24.99665260
endloop
endfacet
facet normal -13.92253971 2.19123888 -6.88215971
outer loop
vertex -11.42233086 7.84037828 25.76505661
vertex -11.09891319 7.48191261 24.99665260
vertex -16.38600540 -7.93752670 30.78292847
endloop
endfacet
facet normal -73.34557343 11.79585648 -35.58408737
outer loop
vertex -16.38600540 -7.93752670 30.78292847
vertex -11.09891319 7.48191261 24.99665260
vertex -14.70599842 -9.76827240 26.71323586
endloop
endfacet
facet normal 16.21426773 -71.28887177 38.76259995
outer loop
vertex -16.38600540 -7.93752670 30.78292847
vertex -14.70599842 -9.76827240 26.71323586
vertex -0.51385593 -2.16092443 34.76749420
endloop
endfacet
facet normal 0.99388003 -4.91594934 2.89189219
outer loop
vertex -0.51385593 -2.16092443 34.76749420
vertex -14.70599842 -9.76827240 26.71323586
vertex -0.37403125 -2.28974199 34.50046158
endloop
endfacet
facet normal 7.84466982 8.17993736 -0.41803765
outer loop
vertex -0.74533415 -1.91037416 35.32633209
vertex -0.51385593 -2.16092443 34.76749420
vertex -11.65948868 8.09707642 26.33760643
endloop
endfacet
facet normal 8.03715324 8.38064384 -0.42829776
outer loop
vertex -11.65948868 8.09707642 26.33760643
vertex -0.51385593 -2.16092443 34.76749420
vertex -11.42233086 7.84037828 25.76505661
endloop
endfacet
facet normal -10.32171631 1.65192366 -5.01602030
outer loop
vertex -11.65948868 8.09707642 26.33760643
vertex -11.42233086 7.84037828 25.76505661
vertex -18.03899765 -6.14834118 34.77360535
endloop
endfacet
facet normal -71.94242859 11.51391888 -34.96168900
outer loop
vertex -18.03899765 -6.14834118 34.77360535
vertex -11.42233086 7.84037828 25.76505661
vertex -16.38600540 -7.93752670 30.78292847
endloop
endfacet
facet normal 15.92342663 -69.92707062 37.94689941
outer loop
vertex -18.03899765 -6.14834118 34.77360535
vertex -16.38600540 -7.93752670 30.78292847
vertex -0.74533415 -1.91037416 35.32633209
endloop
endfacet
facet normal 2.22985029 -9.79229832 5.31392860
outer loop
vertex -0.74533415 -1.91037416 35.32633209
vertex -16.38600540 -7.93752670 30.78292847
vertex -0.51385593 -2.16092443 34.76749420
endloop
endfacet
facet normal 14.93812275 8.84754276 -8.22419834
outer loop
vertex -0.79275513 -1.11249793 36.09854889
vertex -0.74533415 -1.91037416 35.32633209
vertex -11.66583157 8.40166569 26.58438492
endloop
endfacet
facet normal 5.20749283 2.75039315 -3.26085830
outer loop
vertex -11.66583157 8.40166569 26.58438492
vertex -0.74533415 -1.91037416 35.32633209
vertex -11.65948868 8.09707642 26.33760643
endloop
endfacet
facet normal -6.25781441 1.49186814 -2.00219917
outer loop
vertex -11.66583157 8.40166569 26.58438492
vertex -11.65948868 8.09707642 26.33760643
vertex -18.00292206 -2.94795275 37.93400574
endloop
endfacet
facet normal -72.01969910 20.46613503 -19.90299416
outer loop
vertex -18.00292206 -2.94795275 37.93400574
vertex -11.65948868 8.09707642 26.33760643
vertex -18.03899765 -6.14834118 34.77360535
endloop
endfacet
facet normal 11.67494774 -54.45723343 55.01300430
outer loop
vertex -18.00292206 -2.94795275 37.93400574
vertex -18.03899765 -6.14834118 34.77360535
vertex -0.79275513 -1.11249793 36.09854889
endloop
endfacet
facet normal 2.83162212 -13.38066769 13.99917221
outer loop
vertex -0.79275513 -1.11249793 36.09854889
vertex -18.03899765 -6.14834118 34.77360535
vertex -0.74533415 -1.91037416 35.32633209
endloop
endfacet
facet normal 17.34656334 9.91208458 -9.91210175
outer loop
vertex -0.79275519 -0.20087898 37.01016617
vertex -0.79275513 -1.11249793 36.09854889
vertex -11.66583157 11.20576954 29.38848877
endloop
endfacet
facet normal 53.35740662 30.48923492 -30.48923492
outer loop
vertex -11.66583157 11.20576954 29.38848877
vertex -0.79275513 -1.11249793 36.09854889
vertex -11.66583157 8.40166569 26.58438492
endloop
endfacet
facet normal -63.65103149 17.76985931 -17.76985931
outer loop
vertex -11.66583157 11.20576954 29.38848877
vertex -11.66583157 8.40166569 26.58438492
vertex -18.00292206 -2.40143013 38.48052979
endloop
endfacet
facet normal -12.40566349 3.46337223 -3.46336317
outer loop
vertex -18.00292206 -2.40143013 38.48052979
vertex -11.66583157 8.40166569 26.58438492
vertex -18.00292206 -2.94795275 37.93400574
endloop
endfacet
facet normal 2.00624084 -9.40577030 9.40574551
outer loop
vertex -18.00292206 -2.40143013 38.48052979
vertex -18.00292206 -2.94795275 37.93400574
vertex -0.79275519 -0.20087898 37.01016617
endloop
endfacet
facet normal 3.34646940 -15.68908596 15.68911457
outer loop
vertex -0.79275519 -0.20087898 37.01016617
vertex -18.00292206 -2.94795275 37.93400574
vertex -0.79275513 -1.11249793 36.09854889
endloop
endfacet
facet normal 17.34661674 12.95081234 -5.36439371
outer loop
vertex -0.79275608 0.29248691 38.20125580
vertex -0.79275519 -0.20087898 37.01016617
vertex -11.66583157 12.72334099 33.05222702
endloop
endfacet
facet normal 53.35741425 39.83610535 -16.50066948
outer loop
vertex -11.66583157 12.72334099 33.05222702
vertex -0.79275519 -0.20087898 37.01016617
vertex -11.66583157 11.20576954 29.38848877
endloop
endfacet
facet normal -63.65103912 23.21743393 -9.61698437
outer loop
vertex -11.66583157 12.72334099 33.05222702
vertex -11.66583157 11.20576954 29.38848877
vertex -18.00292015 -2.10565281 39.19459915
endloop
endfacet
facet normal -12.40570354 4.52513933 -1.87434173
outer loop
vertex -18.00292015 -2.10565281 39.19459915
vertex -11.66583157 11.20576954 29.38848877
vertex -18.00292206 -2.40143013 38.48052979
endloop
endfacet
facet normal 2.00624657 -12.28925228 5.09037113
outer loop
vertex -18.00292015 -2.10565281 39.19459915
vertex -18.00292206 -2.40143013 38.48052979
vertex -0.79275608 0.29248691 38.20125580
endloop
endfacet
facet normal 3.34648085 -20.49885178 8.49091244
outer loop
vertex -0.79275608 0.29248691 38.20125580
vertex -18.00292206 -2.40143013 38.48052979
vertex -0.79275519 -0.20087898 37.01016617
endloop
endfacet
facet normal 4.21424913 3.14631653 -1.30324411
outer loop
vertex -0.79275608 0.41234666 38.49062347
vertex -0.79275608 0.29248691 38.20125580
vertex -11.66583157 13.57011223 35.09651184
endloop
endfacet
facet normal 29.77225494 22.22766304 -9.20700741
outer loop
vertex -11.66583157 13.57011223 35.09651184
vertex -0.79275608 0.29248691 38.20125580
vertex -11.66583157 12.72334099 33.05222702
endloop
endfacet
facet normal -35.51587296 12.95481396 -5.36606455
outer loop
vertex -11.66583157 13.57011223 35.09651184
vertex -11.66583157 12.72334099 33.05222702
vertex -18.00292015 -0.77207053 42.41415024
endloop
endfacet
facet normal -55.93406296 20.40258026 -8.45102882
outer loop
vertex -18.00292015 -0.77207053 42.41415024
vertex -11.66583157 12.72334099 33.05222702
vertex -18.00292015 -2.10565281 39.19459915
endloop
endfacet
facet normal 9.04563713 -55.40900040 22.95116806
outer loop
vertex -18.00292015 -0.77207053 42.41415024
vertex -18.00292015 -2.10565281 39.19459915
vertex -0.79275608 0.41234666 38.49062347
endloop
endfacet
facet normal 0.81300598 -4.98006487 2.06280589
outer loop
vertex -0.79275608 0.41234666 38.49062347
vertex -18.00292015 -2.10565281 39.19459915
vertex -0.79275608 0.29248691 38.20125580
endloop
endfacet
facet normal 4.67930460 3.02902508 -3.19858074
outer loop
vertex -0.66991901 0.55880976 38.80902481
vertex -0.79275608 0.41234666 38.49062347
vertex -10.93111324 14.36323071 36.87025452
endloop
endfacet
facet normal 26.03042221 16.79232216 -18.29088974
outer loop
vertex -10.93111324 14.36323071 36.87025452
vertex -0.79275608 0.41234666 38.49062347
vertex -11.66583157 13.57011223 35.09651184
endloop
endfacet
facet normal -31.25052261 16.63602066 5.50586843
outer loop
vertex -10.93111324 14.36323071 36.87025452
vertex -11.66583157 13.57011223 35.09651184
vertex -16.75259399 0.58517170 45.45886993
endloop
endfacet
facet normal -53.59973145 28.44409180 9.33144188
outer loop
vertex -16.75259399 0.58517170 45.45886993
vertex -11.66583157 13.57011223 35.09651184
vertex -18.00292015 -0.77207053 42.41415024
endloop
endfacet
facet normal 8.94518566 -57.28171539 21.86104774
outer loop
vertex -16.75259399 0.58517170 45.45886993
vertex -18.00292015 -0.77207053 42.41415024
vertex -0.66991901 0.55880976 38.80902481
endloop
endfacet
facet normal 0.95177186 -5.96169329 2.37516332
outer loop
vertex -0.66991901 0.55880976 38.80902481
vertex -18.00292015 -0.77207053 42.41415024
vertex -0.79275608 0.41234666 38.49062347
endloop
endfacet
facet normal 34.60469818 22.30499077 -24.33397675
outer loop
vertex 0.30691528 1.61612761 41.16731262
vertex -0.66991901 0.55880976 38.80902481
vertex -9.53764248 15.87151337 40.23439026
endloop
endfacet
facet normal 49.36416245 31.81843185 -34.71283722
outer loop
vertex -9.53764248 15.87151337 40.23439026
vertex -0.66991901 0.55880976 38.80902481
vertex -10.93111324 14.36323071 36.87025452
endloop
endfacet
facet normal -59.30532074 31.55223656 10.41888428
outer loop
vertex -9.53764248 15.87151337 40.23439026
vertex -10.93111324 14.36323071 36.87025452
vertex -16.99587250 0.32184845 44.87154388
endloop
endfacet
facet normal 10.35379410 -5.50853300 -1.81897414
outer loop
vertex -16.99587250 0.32184845 44.87154388
vertex -10.93111324 14.36323071 36.87025452
vertex -16.75259399 0.58517170 45.45886993
endloop
endfacet
facet normal -1.73557401 11.06353855 -4.24135590
outer loop
vertex -16.99587250 0.32184845 44.87154388
vertex -16.75259399 0.58517170 45.45886993
vertex 0.30691528 1.61612761 41.16731262
endloop
endfacet
facet normal 6.96883106 -44.42337036 17.03025055
outer loop
vertex 0.30691528 1.61612761 41.16731262
vertex -16.75259399 0.58517170 45.45886993
vertex -0.66991901 0.55880976 38.80902481
endloop
endfacet
facet normal 41.71970749 28.86294174 -0.12129404
outer loop
vertex 0.31957817 1.61013079 44.09578323
vertex 0.30691528 1.61612761 41.16731262
vertex -9.53639984 15.85637569 44.09578323
endloop
endfacet
facet normal 55.03152466 38.01254654 0.13130940
outer loop
vertex -9.53639984 15.85637569 44.09578323
vertex 0.30691528 1.61612761 41.16731262
vertex -9.53764248 15.87151337 40.23439026
endloop
endfacet
facet normal -60.03659821 28.88078690 0.13254067
outer loop
vertex -9.53639984 15.85637569 44.09578323
vertex -9.53764248 15.87151337 40.23439026
vertex -17.01576996 0.30846405 44.09578323
endloop
endfacet
facet normal 12.12488365 -5.87806892 -0.20957491
outer loop
vertex -17.01576996 0.30846405 44.09578323
vertex -9.53764248 15.87151337 40.23439026
vertex -16.99587250 0.32184845 44.87154388
endloop
endfacet
facet normal -1.00978184 13.44808102 -0.20612341
outer loop
vertex -17.01576996 0.30846405 44.09578323
vertex -16.99587250 0.32184845 44.87154388
vertex 0.31957817 1.61013079 44.09578323
endloop
endfacet
facet normal 3.76804519 -50.71760941 -0.12015107
outer loop
vertex 0.31957817 1.61013079 44.09578323
vertex -16.99587250 0.32184845 44.87154388
vertex 0.30691528 1.61612761 41.16731262
endloop
endfacet
facet normal 2.88132334 1.99338567 0.00000000
outer loop
vertex 0.31957817 1.61013079 44.29803467
vertex 0.31957817 1.61013079 44.09578323
vertex -9.53639984 15.85637569 46.25851059
endloop
endfacet
facet normal 30.81074333 21.31579399 0.00000000
outer loop
vertex -9.53639984 15.85637569 46.25851059
vertex 0.31957817 1.61013079 44.09578323
vertex -9.53639984 15.85637569 44.09578323
endloop
endfacet
facet normal -33.62589264 16.17583847 0.00000000
outer loop
vertex -9.53639984 15.85637569 46.25851059
vertex -9.53639984 15.85637569 44.09578323
vertex -17.01576996 0.30846405 47.74625015
endloop
endfacet
facet normal -56.75713730 27.30319405 0.00000000
outer loop
vertex -17.01576996 0.30846405 47.74625015
vertex -9.53639984 15.85637569 44.09578323
vertex -17.01576996 0.30846405 44.09578323
endloop
endfacet
facet normal 4.75169134 -63.28211594 0.00000000
outer loop
vertex -17.01576996 0.30846405 47.74625015
vertex -17.01576996 0.30846405 44.09578323
vertex 0.31957817 1.61013079 44.29803467
endloop
endfacet
facet normal 0.26326397 -3.50609899 0.00000000
outer loop
vertex 0.31957817 1.61013079 44.29803467
vertex -17.01576996 0.30846405 44.09578323
vertex 0.31957817 1.61013079 44.09578323
endloop
endfacet
facet normal 2.66198850 1.99337995 -1.10263085
outer loop
vertex 0.39697647 1.61013031 44.48488998
vertex 0.31957817 1.61013079 44.29803467
vertex -8.70876122 15.85637569 48.25660706
endloop
endfacet
facet normal 28.46537018 21.31576157 -11.79074192
outer loop
vertex -8.70876122 15.85637569 48.25660706
vertex 0.31957817 1.61013079 44.29803467
vertex -9.53639984 15.85637569 46.25851059
endloop
endfacet
facet normal -31.06622505 16.17581367 12.86805153
outer loop
vertex -8.70876122 15.85637569 48.25660706
vertex -9.53639984 15.85637569 46.25851059
vertex -15.61879730 0.30846500 51.11883926
endloop
endfacet
facet normal -52.43671799 27.30317307 21.72000122
outer loop
vertex -15.61879730 0.30846500 51.11883926
vertex -9.53639984 15.85637569 46.25851059
vertex -17.01576996 0.30846405 47.74625015
endloop
endfacet
facet normal 4.38998842 -63.28207016 -1.81837559
outer loop
vertex -15.61879730 0.30846500 51.11883926
vertex -17.01576996 0.30846405 47.74625015
vertex 0.39697647 1.61013031 44.48488998
endloop
endfacet
facet normal 0.24322172 -3.50608802 -0.10075506
outer loop
vertex 0.39697647 1.61013031 44.48488998
vertex -17.01576996 0.30846405 47.74625015
vertex 0.31957817 1.61013079 44.29803467
endloop
endfacet
facet normal 15.11897373 11.32156086 -6.26248646
outer loop
vertex 0.83656502 1.61013031 45.54615021
vertex 0.39697647 1.61013031 44.48488998
vertex -7.18474054 15.85637569 51.93591690
endloop
endfacet
facet normal 52.41635132 39.25100708 -21.71157265
outer loop
vertex -7.18474054 15.85637569 51.93591690
vertex 0.39697647 1.61013031 44.48488998
vertex -8.70876122 15.85637569 48.25660706
endloop
endfacet
facet normal -57.20558167 29.78626633 23.69533730
outer loop
vertex -7.18474054 15.85637569 51.93591690
vertex -8.70876122 15.85637569 48.25660706
vertex -15.27829170 0.30846500 51.94089127
endloop
endfacet
facet normal -12.78119087 6.65501499 5.29415083
outer loop
vertex -15.27829170 0.30846500 51.94089127
vertex -8.70876122 15.85637569 48.25660706
vertex -15.61879730 0.30846500 51.11883926
endloop
endfacet
facet normal 1.07003653 -15.42469597 -0.44322434
outer loop
vertex -15.27829170 0.30846500 51.94089127
vertex -15.61879730 0.30846500 51.11883926
vertex 0.83656502 1.61013031 45.54615021
endloop
endfacet
facet normal 1.38140559 -19.91311073 -0.57219714
outer loop
vertex 0.83656502 1.61013031 45.54615021
vertex -15.61879730 0.30846500 51.11883926
vertex 0.39697647 1.61013031 44.48488998
endloop
endfacet
facet normal 16.77703857 10.45979404 -2.25971484
outer loop
vertex 1.24269295 1.17054057 46.52663040
vertex 0.83656502 1.61013031 45.54615021
vertex -5.77672911 14.33235550 55.33515930
endloop
endfacet
facet normal 58.16457367 36.26322937 -7.83424473
outer loop
vertex -5.77672911 14.33235550 55.33515930
vertex 0.83656502 1.61013031 45.54615021
vertex -7.18474054 15.85637569 51.93591690
endloop
endfacet
facet normal -52.84354019 27.51894379 34.22637177
outer loop
vertex -5.77672911 14.33235550 55.33515930
vertex -7.18474054 15.85637569 51.93591690
vertex -14.96370411 -0.03204107 52.70037079
endloop
endfacet
facet normal -11.80662537 6.14845133 7.64708328
outer loop
vertex -14.96370411 -0.03204107 52.70037079
vertex -7.18474054 15.85637569 51.93591690
vertex -15.27829170 0.30846500 51.94089127
endloop
endfacet
facet normal -1.18886006 -14.25061035 -5.89669418
outer loop
vertex -14.96370411 -0.03204107 52.70037079
vertex -15.27829170 0.30846500 51.94089127
vertex 1.24269295 1.17054057 46.52663040
endloop
endfacet
facet normal -1.53480554 -18.39738083 -7.61256838
outer loop
vertex 1.24269295 1.17054057 46.52663040
vertex -15.27829170 0.30846500 51.94089127
vertex 0.83656502 1.61013031 45.54615021
endloop
endfacet
facet normal 38.35644913 23.91367340 -5.16626930
outer loop
vertex 2.17120242 0.16552901 48.76824951
vertex 1.24269295 1.17054057 46.52663040
vertex -4.38427496 12.82517338 58.69684219
endloop
endfacet
facet normal 57.52190399 35.86254501 -7.74767685
outer loop
vertex -4.38427496 12.82517338 58.69684219
vertex 1.24269295 1.17054057 46.52663040
vertex -5.77672911 14.33235550 55.33515930
endloop
endfacet
facet normal -52.25965118 27.21487808 33.84821320
outer loop
vertex -4.38427496 12.82517338 58.69684219
vertex -5.77672911 14.33235550 55.33515930
vertex -15.16020298 0.18064730 52.22598267
endloop
endfacet
facet normal 7.37468815 -3.84045911 -4.77655077
outer loop
vertex -15.16020298 0.18064730 52.22598267
vertex -5.77672911 14.33235550 55.33515930
vertex -14.96370411 -0.03204107 52.70037079
endloop
endfacet
facet normal 0.74259156 8.90125370 3.68321776
outer loop
vertex -15.16020298 0.18064730 52.22598267
vertex -14.96370411 -0.03204107 52.70037079
vertex 2.17120242 0.16552901 48.76824951
endloop
endfacet
facet normal -3.50895047 -42.06094742 -17.40422440
outer loop
vertex 2.17120242 0.16552901 48.76824951
vertex -14.96370411 -0.03204107 52.70037079
vertex 1.24269295 1.17054057 46.52663040
endloop
endfacet
facet normal 34.74408722 9.92879772 10.15162277
outer loop
vertex 2.15684319 -1.36270142 50.31208038
vertex 2.17120242 0.16552901 48.76824951
vertex -4.37962151 9.94699669 61.62178040
endloop
endfacet
facet normal 65.60491943 19.22056770 18.80891228
outer loop
vertex -4.37962151 9.94699669 61.62178040
vertex 2.17120242 0.16552901 48.76824951
vertex -4.38427496 12.82517338 58.69684219
endloop
endfacet
facet normal -55.49526978 31.29578400 30.88374138
outer loop
vertex -4.37962151 9.94699669 61.62178040
vertex -4.38427496 12.82517338 58.69684219
vertex -15.09447479 0.38398314 52.05876541
endloop
endfacet
facet normal 3.43014073 -2.22723889 -1.36003041
outer loop
vertex -15.09447479 0.38398314 52.05876541
vertex -4.38427496 12.82517338 58.69684219
vertex -15.16020298 0.18064730 52.22598267
endloop
endfacet
facet normal 0.64723945 2.76991153 3.62261748
outer loop
vertex -15.09447479 0.38398314 52.05876541
vertex -15.16020298 0.18064730 52.22598267
vertex 2.15684319 -1.36270142 50.31208038
endloop
endfacet
facet normal -5.30755281 -26.70710945 -26.48659897
outer loop
vertex 2.15684319 -1.36270142 50.31208038
vertex -15.16020298 0.18064730 52.22598267
vertex 2.17120242 0.16552901 48.76824951
endloop
endfacet
facet normal 51.36996841 14.84468460 14.84469604
outer loop
vertex 2.15684319 -3.63376021 52.58313751
vertex 2.15684319 -1.36270142 50.31208038
vertex -4.37962151 9.92557812 61.64319992
endloop
endfacet
facet normal 0.48448598 0.14000797 0.14000173
outer loop
vertex -4.37962151 9.92557812 61.64319992
vertex 2.15684319 -1.36270142 50.31208038
vertex -4.37962151 9.94699669 61.62178040
endloop
endfacet
facet normal -0.40966314 0.22950707 0.22949685
outer loop
vertex -4.37962151 9.92557812 61.64319992
vertex -4.37962151 9.94699669 61.62178040
vertex -15.09447479 -1.53963780 53.98238754
endloop
endfacet
facet normal -36.79124069 20.61132812 20.61131668
outer loop
vertex -15.09447479 -1.53963780 53.98238754
vertex -4.37962151 9.94699669 61.62178040
vertex -15.09447479 0.38398314 52.05876541
endloop
endfacet
facet normal -6.71992683 -33.18501663 -33.18499756
outer loop
vertex -15.09447479 -1.53963780 53.98238754
vertex -15.09447479 0.38398314 52.05876541
vertex 2.15684319 -3.63376021 52.58313751
endloop
endfacet
facet normal -7.93364429 -39.17873001 -39.17875671
outer loop
vertex 2.15684319 -3.63376021 52.58313751
vertex -15.09447479 0.38398314 52.05876541
vertex 2.15684319 -1.36270142 50.31208038
endloop
endfacet
facet normal 51.36998749 19.39551544 8.03390598
outer loop
vertex 2.15684175 -4.86284781 55.55041885
vertex 2.15684319 -3.63376021 52.58313751
vertex -4.37962103 9.91398811 61.67118454
endloop
endfacet
facet normal 0.48445907 0.18292479 0.07575119
outer loop
vertex -4.37962103 9.91398811 61.67118454
vertex 2.15684319 -3.63376021 52.58313751
vertex -4.37962151 9.92557812 61.64319992
endloop
endfacet
facet normal -0.40964258 0.29984862 0.12419115
outer loop
vertex -4.37962103 9.91398811 61.67118454
vertex -4.37962151 9.92557812 61.64319992
vertex -15.09447479 -2.58069372 56.49571991
endloop
endfacet
facet normal -36.79123306 26.92998695 11.15476131
outer loop
vertex -15.09447479 -2.58069372 56.49571991
vertex -4.37962151 9.92557812 61.64319992
vertex -15.09447479 -1.53963780 53.98238754
endloop
endfacet
facet normal -6.71992302 -43.35829163 -17.95958519
outer loop
vertex -15.09447479 -2.58069372 56.49571991
vertex -15.09447479 -1.53963780 53.98238754
vertex 2.15684175 -4.86284781 55.55041885
endloop
endfacet
facet normal -7.93365097 -51.18951035 -21.20338249
outer loop
vertex 2.15684175 -4.86284781 55.55041885
vertex -15.09447479 -1.53963780 53.98238754
vertex 2.15684319 -3.63376021 52.58313751
endloop
endfacet
facet normal 25.79868317 9.74068737 4.03472471
outer loop
vertex 2.15684175 -5.48011208 57.04062653
vertex 2.15684175 -4.86284781 55.55041885
vertex -4.37962103 9.99358559 61.47901917
endloop
endfacet
facet normal -3.32679391 -1.25608182 -0.52028590
outer loop
vertex -4.37962103 9.99358559 61.47901917
vertex 2.15684175 -4.86284781 55.55041885
vertex -4.37962103 9.91398811 61.67118454
endloop
endfacet
facet normal 2.81299949 -2.05902386 -0.85287523
outer loop
vertex -4.37962103 9.99358559 61.47901917
vertex -4.37962103 9.91398811 61.67118454
vertex -15.09447479 -4.32482672 60.70642853
endloop
endfacet
facet normal -61.63816452 45.11712646 18.68812943
outer loop
vertex -15.09447479 -4.32482672 60.70642853
vertex -4.37962103 9.91398811 61.67118454
vertex -15.09447479 -2.58069372 56.49571991
endloop
endfacet
facet normal -11.25821686 -72.64026642 -30.08858871
outer loop
vertex -15.09447479 -4.32482672 60.70642853
vertex -15.09447479 -2.58069372 56.49571991
vertex 2.15684175 -5.48011208 57.04062653
endloop
endfacet
facet normal -3.98438406 -25.70804405 -10.64862061
outer loop
vertex 2.15684175 -5.48011208 57.04062653
vertex -15.09447479 -2.58069372 56.49571991
vertex 2.15684175 -4.86284781 55.55041885
endloop
endfacet
facet normal 20.68351173 11.22500038 -8.63951588
outer loop
vertex 2.71742916 -5.48431969 58.37723923
vertex 2.15684175 -5.48011208 57.04062653
vertex -4.43764973 9.98092461 61.34097290
endloop
endfacet
facet normal -2.07989168 -1.15988839 0.98067653
outer loop
vertex -4.43764973 9.98092461 61.34097290
vertex 2.15684175 -5.48011208 57.04062653
vertex -4.37962103 9.99358559 61.47901917
endloop
endfacet
facet normal 2.02317619 -1.44173527 -0.71822655
outer loop
vertex -4.43764973 9.98092461 61.34097290
vertex -4.37962103 9.99358559 61.47901917
vertex -13.33271980 -4.33693743 65.02542877
endloop
endfacet
facet normal -61.85058212 44.91633987 25.35529900
outer loop
vertex -13.33271980 -4.33693743 65.02542877
vertex -4.37962103 9.99358559 61.47901917
vertex -15.09447479 -4.32482672 60.70642853
endloop
endfacet
facet normal -5.03605890 -81.03307343 1.82702768
outer loop
vertex -13.33271980 -4.33693743 65.02542877
vertex -15.09447479 -4.32482672 60.70642853
vertex 2.71742916 -5.48431969 58.37723923
endloop
endfacet
facet normal -1.55959332 -25.11333275 0.57505161
outer loop
vertex 2.71742916 -5.48431969 58.37723923
vertex -15.09447479 -4.32482672 60.70642853
vertex 2.15684175 -5.48011208 57.04062653
endloop
endfacet
facet normal 36.44913864 19.75668716 -15.09771919
outer loop
vertex 3.69366455 -5.48431969 60.73408127
vertex 2.71742916 -5.48431969 58.37723923
vertex -2.85065317 9.98092461 65.17231750
endloop
endfacet
facet normal 59.25268173 32.11700821 -24.54328918
outer loop
vertex -2.85065317 9.98092461 65.17231750
vertex 2.71742916 -5.48431969 58.37723923
vertex -4.43764973 9.98092461 61.34097290
endloop
endfacet
facet normal -54.85666275 39.92729950 22.72239685
outer loop
vertex -2.85065317 9.98092461 65.17231750
vertex -4.43764973 9.98092461 61.34097290
vertex -13.58984089 -4.33693743 64.40468597
endloop
endfacet
facet normal 8.88770962 -6.46890163 -3.68142414
outer loop
vertex -13.58984089 -4.33693743 64.40468597
vertex -4.43764973 9.98092461 61.34097290
vertex -13.33271980 -4.33693743 65.02542877
endloop
endfacet
facet normal 0.71222925 11.67240047 -0.29501617
outer loop
vertex -13.58984089 -4.33693743 64.40468597
vertex -13.33271980 -4.33693743 65.02542877
vertex 3.69366455 -5.48431969 60.73408127
endloop
endfacet
facet normal -2.70419884 -44.31786346 1.12011516
outer loop
vertex 3.69366455 -5.48431969 60.73408127
vertex -13.33271980 -4.33693743 65.02542877
vertex 2.71742916 -5.48431969 58.37723923
endloop
endfacet
facet normal 38.18332672 14.39113426 6.03332138
outer loop
vertex 3.68757629 -6.39358139 62.94145203
vertex 3.69366455 -5.48431969 60.73408127
vertex -2.84888768 8.38325310 69.06221771
endloop
endfacet
facet normal 67.24909973 25.46457863 10.42836666
outer loop
vertex -2.84888768 8.38325310 69.06221771
vertex 3.69366455 -5.48431969 60.73408127
vertex -2.85065317 9.98092461 65.17231750
endloop
endfacet
facet normal -56.87175369 41.67057800 17.14087677
outer loop
vertex -2.84888768 8.38325310 69.06221771
vertex -2.85065317 9.98092461 65.17231750
vertex -13.56374168 -4.11142588 63.88674927
endloop
endfacet
facet normal 7.58885574 -5.58225441 -2.04812622
outer loop
vertex -13.56374168 -4.11142588 63.88674927
vertex -2.85065317 9.98092461 65.17231750
vertex -13.58984089 -4.33693743 64.40468597
endloop
endfacet
facet normal 1.39518750 8.91041946 3.94993401
outer loop
vertex -13.56374168 -4.11142588 63.88674927
vertex -13.58984089 -4.33693743 64.40468597
vertex 3.68757629 -6.39358139 62.94145203
endloop
endfacet
facet normal -5.87023830 -38.12875748 -15.72221470
outer loop
vertex 3.68757629 -6.39358139 62.94145203
vertex -13.58984089 -4.33693743 64.40468597
vertex 3.69366455 -5.48431969 60.73408127
endloop
endfacet
facet normal 25.79874420 9.74071312 4.03473186
outer loop
vertex 3.68757629 -7.01084661 64.43166351
vertex 3.68757629 -6.39358139 62.94145203
vertex -2.84888768 8.46284962 68.87005615
endloop
endfacet
facet normal -3.32673120 -1.25605702 -0.52027977
outer loop
vertex -2.84888768 8.46284962 68.87005615
vertex 3.68757629 -6.39358139 62.94145203
vertex -2.84888768 8.38325310 69.06221771
endloop
endfacet
facet normal 2.81294394 -2.05898309 -0.85286510
outer loop
vertex -2.84888768 8.46284962 68.87005615
vertex -2.84888768 8.38325310 69.06221771
vertex -13.56374168 -5.85556221 68.09746552
endloop
endfacet
facet normal -61.63827133 45.11721039 18.68816566
outer loop
vertex -13.56374168 -5.85556221 68.09746552
vertex -2.84888768 8.38325310 69.06221771
vertex -13.56374168 -4.11142588 63.88674927
endloop
endfacet
facet normal -11.25823402 -72.64040375 -30.08864975
outer loop
vertex -13.56374168 -5.85556221 68.09746552
vertex -13.56374168 -4.11142588 63.88674927
vertex 3.68757629 -7.01084661 64.43166351
endloop
endfacet
facet normal -3.98439360 -25.70811272 -10.64863873
outer loop
vertex 3.68757629 -7.01084661 64.43166351
vertex -13.56374168 -4.11142588 63.88674927
vertex 3.68757629 -6.39358139 62.94145203
endloop
endfacet
facet normal 20.68356705 11.22502422 -8.63951874
outer loop
vertex 4.24816322 -7.01505280 65.76828003
vertex 3.68757629 -7.01084661 64.43166351
vertex -2.90691519 8.45019150 68.73200989
endloop
endfacet
facet normal -2.07990432 -1.15988326 0.98063940
outer loop
vertex -2.90691519 8.45019150 68.73200989
vertex 3.68757629 -7.01084661 64.43166351
vertex -2.84888768 8.46284962 68.87005615
endloop
endfacet
facet normal 2.02316594 -1.44173121 -0.71823508
outer loop
vertex -2.90691519 8.45019150 68.73200989
vertex -2.84888768 8.46284962 68.87005615
vertex -11.80198383 -5.86767197 72.41647339
endloop
endfacet
facet normal -61.85068893 44.91642380 25.35532761
outer loop
vertex -11.80198383 -5.86767197 72.41647339
vertex -2.84888768 8.46284962 68.87005615
vertex -13.56374168 -5.85556221 68.09746552
endloop
endfacet
facet normal -5.03605509 -81.03322601 1.82704377
outer loop
vertex -11.80198383 -5.86767197 72.41647339
vertex -13.56374168 -5.85556221 68.09746552
vertex 4.24816322 -7.01505280 65.76828003
endloop
endfacet
facet normal -1.55959129 -25.11339760 0.57507515
outer loop
vertex 4.24816322 -7.01505280 65.76828003
vertex -13.56374168 -5.85556221 68.09746552
vertex 3.68757629 -7.01084661 64.43166351
endloop
endfacet
facet normal 36.44902039 19.75662994 -15.09769630
outer loop
vertex 5.22439718 -7.01505280 68.12511444
vertex 4.24816322 -7.01505280 65.76828003
vertex -1.31991863 8.45019150 72.56335449
endloop
endfacet
facet normal 59.25268173 32.11700058 -24.54328918
outer loop
vertex -1.31991863 8.45019150 72.56335449
vertex 4.24816322 -7.01505280 65.76828003
vertex -2.90691519 8.45019150 68.73200989
endloop
endfacet
facet normal -54.85667038 39.92731094 22.72240067
outer loop
vertex -1.31991863 8.45019150 72.56335449
vertex -2.90691519 8.45019150 68.73200989
vertex -12.05910873 -5.86767197 71.79572296
endloop
endfacet
facet normal 8.88782024 -6.46898460 -3.68147922
outer loop
vertex -12.05910873 -5.86767197 71.79572296
vertex -2.90691519 8.45019150 68.73200989
vertex -11.80198383 -5.86767197 72.41647339
endloop
endfacet
facet normal 0.71223712 11.67254829 -0.29502019
outer loop
vertex -12.05910873 -5.86767197 71.79572296
vertex -11.80198383 -5.86767197 72.41647339
vertex 5.22439718 -7.01505280 68.12511444
endloop
endfacet
facet normal -2.70418668 -44.31772995 1.12011218
outer loop
vertex 5.22439718 -7.01505280 68.12511444
vertex -11.80198383 -5.86767197 72.41647339
vertex 4.24816322 -7.01505280 65.76828003
endloop
endfacet
facet normal 38.18350220 14.39120960 6.03332281
outer loop
vertex 5.21830940 -7.92431593 70.33249664
vertex 5.22439718 -7.01505280 68.12511444
vertex -1.31815314 6.85251951 76.45325470
endloop
endfacet
facet normal 67.24910736 25.46457100 10.42836666
outer loop
vertex -1.31815314 6.85251951 76.45325470
vertex 5.22439718 -7.01505280 68.12511444
vertex -1.31991863 8.45019150 72.56335449
endloop
endfacet
facet normal -56.87174988 41.67058563 17.14088440
outer loop
vertex -1.31815314 6.85251951 76.45325470
vertex -1.31991863 8.45019150 72.56335449
vertex -12.03300953 -5.64216042 71.27779388
endloop
endfacet
facet normal 7.58874750 -5.58217335 -2.04812646
outer loop
vertex -12.03300953 -5.64216042 71.27779388
vertex -1.31991863 8.45019150 72.56335449
vertex -12.05910873 -5.86767197 71.79572296
endloop
endfacet
facet normal 1.39517009 8.91028881 3.94993424
outer loop
vertex -12.03300953 -5.64216042 71.27779388
vertex -12.05910873 -5.86767197 71.79572296
vertex 5.21830940 -7.92431593 70.33249664
endloop
endfacet
facet normal -5.87025690 -38.12895966 -15.72224045
outer loop
vertex 5.21830940 -7.92431593 70.33249664
vertex -12.05910873 -5.86767197 71.79572296
vertex 5.22439718 -7.01505280 68.12511444
endloop
endfacet
facet normal 54.55822754 20.59929276 8.53250790
outer loop
vertex 5.21830940 -9.22968674 73.48394012
vertex 5.21830940 -7.92431593 70.33249664
vertex -1.31815326 5.96324110 78.60016632
endloop
endfacet
facet normal 37.16761780 14.03320694 5.81273651
outer loop
vertex -1.31815326 5.96324110 78.60016632
vertex 5.21830940 -7.92431593 70.33249664
vertex -1.31815314 6.85251951 76.45325470
endloop
endfacet
facet normal -31.42739868 23.00384903 9.52848911
outer loop
vertex -1.31815326 5.96324110 78.60016632
vertex -1.31815314 6.85251951 76.45325470
vertex -12.03300953 -5.74431276 71.52441406
endloop
endfacet
facet normal -3.61012554 2.64249969 1.09454775
outer loop
vertex -12.03300953 -5.74431276 71.52441406
vertex -1.31815314 6.85251951 76.45325470
vertex -12.03300953 -5.64216042 71.27779388
endloop
endfacet
facet normal -0.65939331 -4.25452375 -1.76226282
outer loop
vertex -12.03300953 -5.74431276 71.52441406
vertex -12.03300953 -5.64216042 71.27779388
vertex 5.21830940 -9.22968674 73.48394012
endloop
endfacet
facet normal -8.42604733 -54.36655807 -22.51936913
outer loop
vertex 5.21830940 -9.22968674 73.48394012
vertex -12.03300953 -5.64216042 71.27779388
vertex 5.21830940 -7.92431593 70.33249664
endloop
endfacet
facet normal 49.51435852 12.44703960 26.21615410
outer loop
vertex 4.03514624 -10.49209213 76.31794739
vertex 5.21830940 -9.22968674 73.48394012
vertex -2.18602180 5.02776194 80.69924927
endloop
endfacet
facet normal 36.67733765 9.28036499 19.30018806
outer loop
vertex -2.18602180 5.02776194 80.69924927
vertex 5.21830940 -9.22968674 73.48394012
vertex -1.31815326 5.96324110 78.60016632
endloop
endfacet
facet normal -31.20126152 28.64784050 -0.13297939
outer loop
vertex -2.18602180 5.02776194 80.69924927
vertex -1.31815326 5.96324110 78.60016632
vertex -12.11945534 -5.83275318 71.71546936
endloop
endfacet
facet normal -2.86257267 2.65879917 -0.06444257
outer loop
vertex -12.11945534 -5.83275318 71.71546936
vertex -1.31815326 5.96324110 78.60016632
vertex -12.03300953 -5.74431276 71.52441406
endloop
endfacet
facet normal -0.48314628 -3.48428726 -1.83150005
outer loop
vertex -12.11945534 -5.83275318 71.71546936
vertex -12.03300953 -5.74431276 71.52441406
vertex 4.03514624 -10.49209213 76.31794739
endloop
endfacet
facet normal -7.40385866 -51.20880127 -25.90192413
outer loop
vertex 4.03514624 -10.49209213 76.31794739
vertex -12.03300953 -5.74431276 71.52441406
vertex 5.21830940 -9.22968674 73.48394012
endloop
endfacet
facet normal 51.26332474 12.91941166 27.02629852
outer loop
vertex 2.82067752 -11.80662346 79.24993134
vertex 4.03514624 -10.49209213 76.31794739
vertex -2.21911263 4.99194479 80.77913666
endloop
endfacet
facet normal 1.39676642 0.35201198 0.73638934
outer loop
vertex -2.21911263 4.99194479 80.77913666
vertex 4.03514624 -10.49209213 76.31794739
vertex -2.18602180 5.02776194 80.69924927
endloop
endfacet
facet normal -1.18939090 1.09083593 -0.00359634
outer loop
vertex -2.21911263 4.99194479 80.77913666
vertex -2.18602180 5.02776194 80.69924927
vertex -12.97925282 -6.76339149 73.79120636
endloop
endfacet
facet normal -30.90422058 28.34342766 -0.09340858
outer loop
vertex -12.97925282 -6.76339149 73.79120636
vertex -2.18602180 5.02776194 80.69924927
vertex -12.11945534 -5.83275318 71.71546936
endloop
endfacet
facet normal -5.38832426 -37.48989868 -19.04017830
outer loop
vertex -12.97925282 -6.76339149 73.79120636
vertex -12.11945534 -5.83275318 71.71546936
vertex 2.82067752 -11.80662346 79.24993134
endloop
endfacet
facet normal -7.61100483 -52.95459747 -26.89435196
outer loop
vertex 2.82067752 -11.80662346 79.24993134
vertex -12.11945534 -5.83275318 71.71546936
vertex 4.03514624 -10.49209213 76.31794739
endloop
endfacet
facet normal 53.31141663 13.98393059 22.08228683
outer loop
vertex 1.50614405 -11.80662441 82.42350006
vertex 2.82067752 -11.80662346 79.24993134
vertex -2.25493073 4.99194622 80.86560822
endloop
endfacet
facet normal 1.45259619 0.38102528 0.60168552
outer loop
vertex -2.25493073 4.99194622 80.86560822
vertex 2.82067752 -11.80662346 79.24993134
vertex -2.21911263 4.99194479 80.77913666
endloop
endfacet
facet normal -1.01649559 1.18073964 -0.42107055
outer loop
vertex -2.25493073 4.99194622 80.86560822
vertex -2.21911263 4.99194479 80.77913666
vertex -13.90989399 -6.76339197 76.03797150
endloop
endfacet
facet normal -26.41148186 30.67876434 -10.93999481
outer loop
vertex -13.90989399 -6.76339197 76.03797150
vertex -2.21911263 4.99194479 80.77913666
vertex -12.97925282 -6.76339149 73.79120636
endloop
endfacet
facet normal -11.33095551 -40.57885361 -4.69344711
outer loop
vertex -13.90989399 -6.76339197 76.03797150
vertex -12.97925282 -6.76339149 73.79120636
vertex 1.50614405 -11.80662441 82.42350006
endloop
endfacet
facet normal -16.00503922 -57.31784439 -6.62951231
outer loop
vertex 1.50614405 -11.80662441 82.42350006
vertex -12.97925282 -6.76339149 73.79120636
vertex 2.82067752 -11.80662346 79.24993134
endloop
endfacet
facet normal 52.41696930 13.74931526 21.71181679
outer loop
vertex 0.21366405 -11.80662441 85.54382324
vertex 1.50614405 -11.80662441 82.42350006
vertex -3.23752880 4.99194622 83.23780823
endloop
endfacet
facet normal 39.84957123 10.45280361 16.50624275
outer loop
vertex -3.23752880 4.99194622 83.23780823
vertex 1.50614405 -11.80662441 82.42350006
vertex -2.25493073 4.99194622 80.86560822
endloop
endfacet
facet normal -27.88601494 32.39153290 -11.55077267
outer loop
vertex -3.23752880 4.99194622 83.23780823
vertex -2.25493073 4.99194622 80.86560822
vertex -13.93221188 -6.76339197 76.09185028
endloop
endfacet
facet normal -0.63336337 0.73569793 -0.26235431
outer loop
vertex -13.93221188 -6.76339197 76.09185028
vertex -2.25493073 4.99194622 80.86560822
vertex -13.90989399 -6.76339197 76.03797150
endloop
endfacet
facet normal -0.27172324 -0.97311068 -0.11255429
outer loop
vertex -13.93221188 -6.76339197 76.09185028
vertex -13.90989399 -6.76339197 76.03797150
vertex 0.21366405 -11.80662441 85.54382324
endloop
endfacet
facet normal -15.73651505 -56.35618591 -6.51827717
outer loop
vertex 0.21366405 -11.80662441 85.54382324
vertex -13.90989399 -6.76339197 76.03797150
vertex 1.50614405 -11.80662441 82.42350006
endloop
endfacet
facet normal 40.11833191 13.74936104 40.11828995
outer loop
vertex -2.17453289 -11.80662346 87.93202209
vertex 0.21366405 -11.80662441 85.54382324
vertex -5.05313587 4.99194717 85.05341339
endloop
endfacet
facet normal 30.49957466 10.45282078 30.49960136
outer loop
vertex -5.05313587 4.99194717 85.05341339
vertex 0.21366405 -11.80662441 85.54382324
vertex -3.23752880 4.99194622 83.23780823
endloop
endfacet
facet normal -21.34304619 32.39157104 -21.34308434
outer loop
vertex -5.05313587 4.99194717 85.05341339
vertex -3.23752880 4.99194622 83.23780823
vertex -13.97345543 -6.76339149 76.13309479
endloop
endfacet
facet normal -0.48483971 0.73582160 -0.48483703
outer loop
vertex -13.97345543 -6.76339149 76.13309479
vertex -3.23752880 4.99194622 83.23780823
vertex -13.93221188 -6.76339197 76.09185028
endloop
endfacet
facet normal -0.20801125 -0.97327042 -0.20799518
outer loop
vertex -13.97345543 -6.76339149 76.13309479
vertex -13.93221188 -6.76339197 76.09185028
vertex -2.17453289 -11.80662346 87.93202209
endloop
endfacet
facet normal -12.04425144 -56.35633850 -12.04421902
outer loop
vertex -2.17453289 -11.80662346 87.93202209
vertex -13.93221188 -6.76339197 76.09185028
vertex 0.21366405 -11.80662441 85.54382324
endloop
endfacet
facet normal 24.77517509 8.49094772 24.77512741
outer loop
vertex -3.64936829 -11.80662346 89.40686035
vertex -2.17453289 -11.80662346 87.93202209
vertex -4.69151831 4.99194717 84.69179535
endloop
endfacet
facet normal -6.07466602 -2.08191013 -6.07465839
outer loop
vertex -4.69151831 4.99194717 84.69179535
vertex -2.17453289 -11.80662346 87.93202209
vertex -5.05313587 4.99194717 85.05341339
endloop
endfacet
facet normal 4.25094271 -6.45149469 4.25093699
outer loop
vertex -4.69151831 4.99194717 84.69179535
vertex -5.05313587 4.99194717 85.05341339
vertex -17.07200623 -6.76339149 79.23164368
endloop
endfacet
facet normal -36.42449188 55.28010559 -36.42451477
outer loop
vertex -17.07200623 -6.76339149 79.23164368
vertex -5.05313587 4.99194717 85.05341339
vertex -13.97345543 -6.76339149 76.13309479
endloop
endfacet
facet normal -15.62670040 -73.11912537 -15.62671089
outer loop
vertex -17.07200623 -6.76339149 79.23164368
vertex -13.97345543 -6.76339149 76.13309479
vertex -3.64936829 -11.80662346 89.40686035
endloop
endfacet
facet normal -7.43795156 -34.80297852 -7.43793678
outer loop
vertex -3.64936829 -11.80662346 89.40686035
vertex -13.97345543 -6.76339149 76.13309479
vertex -2.17453289 -11.80662346 87.93202209
endloop
endfacet
facet normal 36.17221832 5.71602106 12.39478874
outer loop
vertex -4.43992472 -10.95142555 91.31958771
vertex -3.64936829 -11.80662346 89.40686035
vertex -4.50050020 4.79266596 84.23577118
endloop
endfacet
facet normal -8.60017776 -1.37590837 -3.00115013
outer loop
vertex -4.50050020 4.79266596 84.23577118
vertex -3.64936829 -11.80662346 89.40686035
vertex -4.69151831 4.99194717 84.69179535
endloop
endfacet
facet normal 4.25403452 -6.66601658 4.69494724
outer loop
vertex -4.50050020 4.79266596 84.23577118
vertex -4.69151831 4.99194717 84.69179535
vertex -18.54543495 -5.13338566 82.86843109
endloop
endfacet
facet normal -33.85158920 53.07034302 -37.50091934
outer loop
vertex -18.54543495 -5.13338566 82.86843109
vertex -4.69151831 4.99194717 84.69179535
vertex -17.07200623 -6.76339149 79.23164368
endloop
endfacet
facet normal -34.93441010 -63.75092316 14.41959858
outer loop
vertex -18.54543495 -5.13338566 82.86843109
vertex -17.07200623 -6.76339149 79.23164368
vertex -4.43992472 -10.95142555 91.31958771
endloop
endfacet
facet normal -18.34815216 -33.71792984 7.49205256
outer loop
vertex -4.43992472 -10.95142555 91.31958771
vertex -17.07200623 -6.76339149 79.23164368
vertex -3.64936829 -11.80662346 89.40686035
endloop
endfacet
facet normal 30.81400299 -33.35283661 -74.39163208
outer loop
vertex -9.19238758 -3.82683516 86.15680695
vertex -4.50050020 4.79266596 84.23577118
vertex -4.43992472 -10.95142555 91.31958771
endloop
endfacet
facet normal 30.85408974 -33.39622879 -74.48841095
outer loop
vertex -9.19238758 -3.82683516 86.15680695
vertex -18.54543495 -5.13338566 82.86843109
vertex -4.50050020 4.79266596 84.23577118
endloop
endfacet
facet normal 30.17376518 -32.65984726 -72.84597015
outer loop
vertex -9.19238758 -3.82683516 86.15680695
vertex -4.43992472 -10.95142555 91.31958771
vertex -18.54543495 -5.13338566 82.86843109
endloop
endfacet
endsolid