solid (null).stl
facet normal 0.00000000 -0.00000000 86.60253906
outer loop
vertex 0.00000000 0.00000000 0.00000000
vertex 10.00000000 0.00000000 0.00000000
vertex -5.00000048 8.66025352 0.00000000
endloop
endfacet
facet normal 0.00000000 0.00000000 86.60253906
outer loop
vertex 0.00000000 0.00000000 0.00000000
vertex -5.00000048 8.66025352 0.00000000
vertex -4.99999905 -8.66025448 0.00000000
endloop
endfacet
facet normal -0.00000000 0.00000000 86.60254669
outer loop
vertex 0.00000000 0.00000000 0.00000000
vertex -4.99999905 -8.66025448 0.00000000
vertex 10.00000000 0.00000000 0.00000000
endloop
endfacet
facet normal 17.32050705 30.00000000 0.00000000
outer loop
vertex 10.00000000 0.00000000 2.00000000
vertex 10.00000000 0.00000000 0.00000000
vertex -5.00000048 8.66025352 2.00000000
endloop
endfacet
facet normal 17.32050705 30.00000000 0.00000000
outer loop
vertex -5.00000048 8.66025352 2.00000000
vertex 10.00000000 0.00000000 0.00000000
vertex -5.00000048 8.66025352 0.00000000
endloop
endfacet
facet normal -34.64101410 -0.00000286 -0.00000000
outer loop
vertex -5.00000048 8.66025352 2.00000000
vertex -5.00000048 8.66025352 0.00000000
vertex -4.99999905 -8.66025448 2.00000000
endloop
endfacet
facet normal -34.64101410 -0.00000286 -0.00000000
outer loop
vertex -4.99999905 -8.66025448 2.00000000
vertex -5.00000048 8.66025352 0.00000000
vertex -4.99999905 -8.66025448 0.00000000
endloop
endfacet
facet normal 17.32050896 -29.99999809 0.00000000
outer loop
vertex -4.99999905 -8.66025448 2.00000000
vertex -4.99999905 -8.66025448 0.00000000
vertex 10.00000000 0.00000000 2.00000000
endloop
endfacet
facet normal 17.32050896 -29.99999809 0.00000000
outer loop
vertex 10.00000000 0.00000000 2.00000000
vertex -4.99999905 -8.66025448 0.00000000
vertex 10.00000000 0.00000000 0.00000000
endloop
endfacet
facet normal 34.54681778 59.83684921 0.00000000
outer loop
vertex 10.00000000 0.00000000 5.98912334
vertex 10.00000000 0.00000000 2.00000000
vertex -5.00000048 8.66025352 4.76181793
endloop
endfacet
facet normal 23.91804314 41.42726898 0.00000000
outer loop
vertex -5.00000048 8.66025352 4.76181793
vertex 10.00000000 0.00000000 2.00000000
vertex -5.00000048 8.66025352 2.00000000
endloop
endfacet
facet normal -47.83608627 -0.00000395 -0.00000000
outer loop
vertex -5.00000048 8.66025352 4.76181793
vertex -5.00000048 8.66025352 2.00000000
vertex -4.99999905 -8.66025448 1.24905825
endloop
endfacet
facet normal 13.00669193 0.00000107 -0.00000000
outer loop
vertex -4.99999905 -8.66025448 1.24905825
vertex -5.00000048 8.66025352 2.00000000
vertex -4.99999905 -8.66025448 2.00000000
endloop
endfacet
facet normal -6.50334692 11.26412582 0.00000000
outer loop
vertex -4.99999905 -8.66025448 1.24905825
vertex -4.99999905 -8.66025448 2.00000000
vertex 10.00000000 0.00000000 5.98912334
endloop
endfacet
facet normal 34.54682159 -59.83684540 0.00000000
outer loop
vertex 10.00000000 0.00000000 5.98912334
vertex -4.99999905 -8.66025448 2.00000000
vertex 10.00000000 0.00000000 2.00000000
endloop
endfacet
facet normal 26.51861763 50.61960983 33.97267914
outer loop
vertex 8.61619282 -1.46659970 9.25455189
vertex 10.00000000 0.00000000 5.98912334
vertex -6.02986145 7.56123304 7.23550987
endloop
endfacet
facet normal 20.07396507 38.36933517 25.40416336
outer loop
vertex -6.02986145 7.56123304 7.23550987
vertex 10.00000000 0.00000000 5.98912334
vertex -5.00000048 8.66025352 4.76181793
endloop
endfacet
facet normal -46.68845749 3.61378741 -17.83204651
outer loop
vertex -6.02986145 7.56123304 7.23550987
vertex -5.00000048 8.66025352 4.76181793
vertex -4.73866034 -8.37586021 0.62508249
endloop
endfacet
facet normal 11.80658627 -0.91801924 4.52651978
outer loop
vertex -4.73866034 -8.37586021 0.62508249
vertex -5.00000048 8.66025352 4.76181793
vertex -4.99999905 -8.66025448 1.24905825
endloop
endfacet
facet normal -6.76538277 10.58831787 1.99238622
outer loop
vertex -4.73866034 -8.37586021 0.62508249
vertex -4.99999905 -8.66025448 1.24905825
vertex 8.61619282 -1.46659970 9.25455189
endloop
endfacet
facet normal 35.23122025 -55.54076004 -10.01487160
outer loop
vertex 8.61619282 -1.46659970 9.25455189
vertex -4.99999905 -8.66025448 1.24905825
vertex 10.00000000 0.00000000 5.98912334
endloop
endfacet
facet normal 1.16191816 2.21471119 1.47422540
outer loop
vertex 8.55694103 -1.53073370 9.39759922
vertex 8.61619282 -1.46659970 9.25455189
vertex -6.41978979 7.13917732 8.17688084
endloop
endfacet
facet normal 7.64639139 14.57465172 9.70165825
outer loop
vertex -6.41978979 7.13917732 8.17688084
vertex 8.61619282 -1.46659970 9.25455189
vertex -6.02986145 7.56123304 7.23550987
endloop
endfacet
facet normal -17.79268646 1.36209452 -6.75928211
outer loop
vertex -6.41978979 7.13917732 8.17688084
vertex -6.02986145 7.56123304 7.23550987
vertex -6.41186714 -10.18692684 4.66456175
endloop
endfacet
facet normal -76.34947968 5.84483194 -29.00450325
outer loop
vertex -6.41186714 -10.18692684 4.66456175
vertex -6.02986145 7.56123304 7.23550987
vertex -4.73866034 -8.37586021 0.62508249
endloop
endfacet
facet normal 43.53835678 -68.38554382 -12.62590790
outer loop
vertex -6.41186714 -10.18692684 4.66456175
vertex -4.73866034 -8.37586021 0.62508249
vertex 8.55694103 -1.53073370 9.39759922
endloop
endfacet
facet normal 1.54179370 -2.42168760 -0.44711414
outer loop
vertex 8.55694103 -1.53073370 9.39759922
vertex -4.73866034 -8.37586021 0.62508249
vertex 8.61619282 -1.46659970 9.25455189
endloop
endfacet
facet normal 0.14388113 0.24920942 -0.24981186
outer loop
vertex 8.58578682 -1.53073370 9.41421318
vertex 8.55694103 -1.53073370 9.39759922
vertex -6.41421413 7.12952042 9.41421318
endloop
endfacet
facet normal 10.71577358 18.52438736 0.09628844
outer loop
vertex -6.41421413 7.12952042 9.41421318
vertex 8.55694103 -1.53073370 9.39759922
vertex -6.41978979 7.13917732 8.17688084
endloop
endfacet
facet normal -21.43122673 -0.00000236 0.09657320
outer loop
vertex -6.41421413 7.12952042 9.41421318
vertex -6.41978979 7.13917732 8.17688084
vertex -6.41421223 -10.19098854 9.41421318
endloop
endfacet
facet normal -82.30722046 -0.02939313 -0.04066337
outer loop
vertex -6.41421223 -10.19098854 9.41421318
vertex -6.41978979 7.13917732 8.17688084
vertex -6.41186714 -10.18692684 4.66456175
endloop
endfacet
facet normal 41.13319016 -71.24476624 -0.04061645
outer loop
vertex -6.41421223 -10.19098854 9.41421318
vertex -6.41186714 -10.18692684 4.66456175
vertex 8.58578682 -1.53073370 9.41421318
endloop
endfacet
facet normal 0.14381364 -0.11216299 -0.24969469
outer loop
vertex 8.58578682 -1.53073370 9.41421318
vertex -6.41186714 -10.18692684 4.66456175
vertex 8.55694103 -1.53073370 9.39759922
endloop
endfacet
facet normal 34.54682159 59.83685303 0.00000000
outer loop
vertex 8.58578682 -1.53073370 13.40333652
vertex 8.58578682 -1.53073370 9.41421318
vertex -6.41421413 7.12952042 12.17603111
endloop
endfacet
facet normal 23.91804695 41.42727280 0.00000000
outer loop
vertex -6.41421413 7.12952042 12.17603111
vertex 8.58578682 -1.53073370 9.41421318
vertex -6.41421413 7.12952042 9.41421318
endloop
endfacet
facet normal -47.83609390 -0.00000527 -0.00000000
outer loop
vertex -6.41421413 7.12952042 12.17603111
vertex -6.41421413 7.12952042 9.41421318
vertex -6.41421223 -10.19098854 8.66327095
endloop
endfacet
facet normal 13.00670147 0.00000143 -0.00000000
outer loop
vertex -6.41421223 -10.19098854 8.66327095
vertex -6.41421413 7.12952042 9.41421318
vertex -6.41421223 -10.19098854 9.41421318
endloop
endfacet
facet normal -6.50335073 11.26413250 0.00000000
outer loop
vertex -6.41421223 -10.19098854 8.66327095
vertex -6.41421223 -10.19098854 9.41421318
vertex 8.58578682 -1.53073370 13.40333652
endloop
endfacet
facet normal 34.54682159 -59.83684540 0.00000000
outer loop
vertex 8.58578682 -1.53073370 13.40333652
vertex -6.41421223 -10.19098854 9.41421318
vertex 8.58578682 -1.53073370 9.41421318
endloop
endfacet
facet normal 26.51861000 50.61959076 33.97267914
outer loop
vertex 7.20197916 -2.99733329 16.66876411
vertex 8.58578682 -1.53073370 13.40333652
vertex -7.44407415 6.03049946 14.64972305
endloop
endfacet
facet normal 20.07396507 38.36933517 25.40416527
outer loop
vertex -7.44407415 6.03049946 14.64972305
vertex 8.58578682 -1.53073370 13.40333652
vertex -6.41421413 7.12952042 12.17603111
endloop
endfacet
facet normal -46.68846130 3.61378288 -17.83203125
outer loop
vertex -7.44407415 6.03049946 14.64972305
vertex -6.41421413 7.12952042 12.17603111
vertex -6.15287352 -9.90659428 8.03929520
endloop
endfacet
facet normal 11.80658627 -0.91801906 4.52651978
outer loop
vertex -6.15287352 -9.90659428 8.03929520
vertex -6.41421413 7.12952042 12.17603111
vertex -6.41421223 -10.19098854 8.66327095
endloop
endfacet
facet normal -6.76538277 10.58831787 1.99238622
outer loop
vertex -6.15287352 -9.90659428 8.03929520
vertex -6.41421223 -10.19098854 8.66327095
vertex 7.20197916 -2.99733329 16.66876411
endloop
endfacet
facet normal 35.23121262 -55.54075241 -10.01486683
outer loop
vertex 7.20197916 -2.99733329 16.66876411
vertex -6.41421223 -10.19098854 8.66327095
vertex 8.58578682 -1.53073370 13.40333652
endloop
endfacet
facet normal 1.16191769 2.21471143 1.47423482
outer loop
vertex 7.14272690 -3.06146765 16.81181145
vertex 7.20197916 -2.99733329 16.66876411
vertex -7.83400249 5.60844374 15.59109402
endloop
endfacet
facet normal 7.64639187 14.57465076 9.70165825
outer loop
vertex -7.83400249 5.60844374 15.59109402
vertex 7.20197916 -2.99733329 16.66876411
vertex -7.44407415 6.03049946 14.64972305
endloop
endfacet
facet normal -17.79268646 1.36209536 -6.75928307
outer loop
vertex -7.83400249 5.60844374 15.59109402
vertex -7.44407415 6.03049946 14.64972305
vertex -7.82608080 -11.71766090 12.07877541
endloop
endfacet
facet normal -76.34950256 5.84483624 -29.00451279
outer loop
vertex -7.82608080 -11.71766090 12.07877541
vertex -7.44407415 6.03049946 14.64972305
vertex -6.15287352 -9.90659428 8.03929520
endloop
endfacet
facet normal 43.53836060 -68.38555145 -12.62590218
outer loop
vertex -7.82608080 -11.71766090 12.07877541
vertex -6.15287352 -9.90659428 8.03929520
vertex 7.14272690 -3.06146765 16.81181145
endloop
endfacet
facet normal 1.54179680 -2.42169166 -0.44711560
outer loop
vertex 7.14272690 -3.06146765 16.81181145
vertex -6.15287352 -9.90659428 8.03929520
vertex 7.20197916 -2.99733329 16.66876411
endloop
endfacet
facet normal 0.14388938 0.24922369 -0.24980773
outer loop
vertex 7.17157221 -3.06146765 16.82842636
vertex 7.14272690 -3.06146765 16.81181145
vertex -7.82842684 5.59878683 16.82842636
endloop
endfacet
facet normal 10.71577358 18.52438545 0.09628841
outer loop
vertex -7.82842684 5.59878683 16.82842636
vertex 7.14272690 -3.06146765 16.81181145
vertex -7.83400249 5.60844374 15.59109402
endloop
endfacet
facet normal -21.43122673 -0.00000118 0.09657321
outer loop
vertex -7.82842684 5.59878683 16.82842636
vertex -7.83400249 5.60844374 15.59109402
vertex -7.82842588 -11.72172165 16.82842636
endloop
endfacet
facet normal -82.30721283 -0.02938860 -0.04066336
outer loop
vertex -7.82842588 -11.72172165 16.82842636
vertex -7.83400249 5.60844374 15.59109402
vertex -7.82608080 -11.71766090 12.07877541
endloop
endfacet
facet normal 41.13318253 -71.24475861 -0.04060214
outer loop
vertex -7.82842588 -11.72172165 16.82842636
vertex -7.82608080 -11.71766090 12.07877541
vertex 7.17157221 -3.06146765 16.82842636
endloop
endfacet
facet normal 0.14382190 -0.11217956 -0.24969056
outer loop
vertex 7.17157221 -3.06146765 16.82842636
vertex -7.82608080 -11.71766090 12.07877541
vertex 7.14272690 -3.06146765 16.81181145
endloop
endfacet
facet normal 0.09418634 0.16313551 0.00000000
outer loop
vertex 7.17157221 -3.06146765 16.83930206
vertex 7.17157221 -3.06146765 16.82842636
vertex -7.82842684 5.59878683 19.82298851
endloop
endfacet
facet normal 25.93367004 44.91843033 0.00000000
outer loop
vertex -7.82842684 5.59878683 19.82298851
vertex 7.17157221 -3.06146765 16.82842636
vertex -7.82842684 5.59878683 16.82842636
endloop
endfacet
facet normal -51.86734009 -0.00000286 -0.00000000
outer loop
vertex -7.82842684 5.59878683 19.82298851
vertex -7.82842684 5.59878683 16.82842636
vertex -7.82842588 -11.72172165 19.82298851
endloop
endfacet
facet normal -51.86734009 -0.00000286 -0.00000000
outer loop
vertex -7.82842588 -11.72172165 19.82298851
vertex -7.82842684 5.59878683 16.82842636
vertex -7.82842588 -11.72172165 16.82842636
endloop
endfacet
facet normal 25.93366814 -44.91842651 0.00000000
outer loop
vertex -7.82842588 -11.72172165 19.82298851
vertex -7.82842588 -11.72172165 16.82842636
vertex 7.17157221 -3.06146765 16.83930206
endloop
endfacet
facet normal 0.09418634 -0.16313551 0.00000000
outer loop
vertex 7.17157221 -3.06146765 16.83930206
vertex -7.82842588 -11.72172165 16.82842636
vertex 7.17157221 -3.06146765 16.82842636
endloop
endfacet
facet normal 0.08703399 0.16316779 -0.03605081
outer loop
vertex 7.17573500 -3.06146765 16.84935188
vertex 7.17157221 -3.06146765 16.83930206
vertex -6.68245792 5.59878683 22.58960342
endloop
endfacet
facet normal 23.95958900 44.91843414 -9.92438221
outer loop
vertex -6.68245792 5.59878683 22.58960342
vertex 7.17157221 -3.06146765 16.83930206
vertex -7.82842684 5.59878683 19.82298851
endloop
endfacet
facet normal -47.91917801 -0.00000132 19.84876442
outer loop
vertex -6.68245792 5.59878683 22.58960342
vertex -7.82842684 5.59878683 19.82298851
vertex -6.68245745 -11.72172165 22.58960342
endloop
endfacet
facet normal -47.91917801 -0.00000262 19.84875679
outer loop
vertex -6.68245745 -11.72172165 22.58960342
vertex -7.82842684 5.59878683 19.82298851
vertex -7.82842588 -11.72172165 19.82298851
endloop
endfacet
facet normal 23.95958710 -44.91843033 -9.92437744
outer loop
vertex -6.68245745 -11.72172165 22.58960342
vertex -7.82842588 -11.72172165 19.82298851
vertex 7.17573500 -3.06146765 16.84935188
endloop
endfacet
facet normal 0.08703399 -0.16316773 -0.03605080
outer loop
vertex 7.17573500 -3.06146765 16.84935188
vertex -7.82842588 -11.72172165 19.82298851
vertex 7.17157221 -3.06146765 16.83930206
endloop
endfacet
facet normal 16.00206566 30.00000000 -6.62826920
outer loop
vertex 7.94110155 -3.06146765 18.69711113
vertex 7.17573500 -3.06146765 16.84935188
vertex -5.25786877 5.59878683 26.02886581
endloop
endfacet
facet normal 29.78488731 55.83946228 -12.33730507
outer loop
vertex -5.25786877 5.59878683 26.02886581
vertex 7.17573500 -3.06146765 16.84935188
vertex -6.68245792 5.59878683 22.58960342
endloop
endfacet
facet normal -59.56977463 -0.00000191 24.67461014
outer loop
vertex -5.25786877 5.59878683 26.02886581
vertex -6.68245792 5.59878683 22.58960342
vertex -6.57631350 -11.72172165 22.84585762
endloop
endfacet
facet normal -4.43845320 -0.00000012 1.83846724
outer loop
vertex -6.57631350 -11.72172165 22.84585762
vertex -6.68245792 5.59878683 22.58960342
vertex -6.68245745 -11.72172165 22.58960342
endloop
endfacet
facet normal 2.21922636 -4.16051292 -0.91923350
outer loop
vertex -6.57631350 -11.72172165 22.84585762
vertex -6.68245745 -11.72172165 22.58960342
vertex 7.94110155 -3.06146765 18.69711113
endloop
endfacet
facet normal 16.00206375 -30.00000000 -6.62826824
outer loop
vertex 7.94110155 -3.06146765 18.69711113
vertex -6.68245745 -11.72172165 22.58960342
vertex 7.17573500 -3.06146765 16.84935188
endloop
endfacet
facet normal 20.39546967 27.71640015 3.97833061
outer loop
vertex 8.64820862 -3.82683468 20.40421867
vertex 7.94110155 -3.06146765 18.69711113
vertex -3.94171977 4.17419720 29.20633125
endloop
endfacet
facet normal 37.96240234 51.58895111 7.40493107
outer loop
vertex -3.94171977 4.17419720 29.20633125
vertex 7.94110155 -3.06146765 18.69711113
vertex -5.25786877 5.59878683 26.02886581
endloop
endfacet
facet normal -59.56979752 -0.00000095 24.67461205
outer loop
vertex -3.94171977 4.17419720 29.20633125
vertex -5.25786877 5.59878683 26.02886581
vertex -6.47824860 -11.82786655 23.08260727
endloop
endfacet
facet normal -4.43848419 -0.00000006 1.83848011
outer loop
vertex -6.47824860 -11.82786655 23.08260727
vertex -5.25786877 5.59878683 26.02886581
vertex -6.57631350 -11.72172165 22.84585762
endloop
endfacet
facet normal 1.60994411 -3.84383941 -2.39021683
outer loop
vertex -6.47824860 -11.82786655 23.08260727
vertex -6.57631350 -11.72172165 22.84585762
vertex 8.64820862 -3.82683468 20.40421867
endloop
endfacet
facet normal 11.60867119 -27.71639442 -17.23487663
outer loop
vertex 8.64820862 -3.82683468 20.40421867
vertex -6.57631350 -11.72172165 22.84585762
vertex 7.94110155 -3.06146765 18.69711113
endloop
endfacet
facet normal 39.08230972 53.11084747 7.62338066
outer loop
vertex 10.00318432 -5.29345036 23.67542076
vertex 8.64820862 -3.82683468 20.40421867
vertex -3.53740072 3.73656535 30.18244362
endloop
endfacet
facet normal 11.66199112 15.84804726 2.27478409
outer loop
vertex -3.53740072 3.73656535 30.18244362
vertex 8.64820862 -3.82683468 20.40421867
vertex -3.94171977 4.17419720 29.20633125
endloop
endfacet
facet normal -18.29974937 -0.00000119 7.58000469
outer loop
vertex -3.53740072 3.73656535 30.18244362
vertex -3.94171977 4.17419720 29.20633125
vertex -6.11622477 -12.21971798 23.95660973
endloop
endfacet
facet normal -16.38543320 -0.00000155 6.78707075
outer loop
vertex -6.11622477 -12.21971798 23.95660973
vertex -3.94171977 4.17419720 29.20633125
vertex -6.47824860 -11.82786655 23.08260727
endloop
endfacet
facet normal 5.94339085 -14.19020081 -8.82388687
outer loop
vertex -6.11622477 -12.21971798 23.95660973
vertex -6.47824860 -11.82786655 23.08260727
vertex 10.00318432 -5.29345036 23.67542076
endloop
endfacet
facet normal 22.24482727 -53.11085129 -33.02590179
outer loop
vertex 10.00318432 -5.29345036 23.67542076
vertex -6.47824860 -11.82786655 23.08260727
vertex 8.64820862 -3.82683468 20.40421867
endloop
endfacet
facet normal 41.36867142 47.78913116 19.81253815
outer loop
vertex 10.00132275 -6.75585699 27.20672798
vertex 10.00318432 -5.29345036 23.67542076
vertex -3.53384709 3.24368715 31.34867477
endloop
endfacet
facet normal 13.73825550 15.81457520 6.64176989
outer loop
vertex -3.53384709 3.24368715 31.34867477
vertex 10.00318432 -5.29345036 23.67542076
vertex -3.53740072 3.73656535 30.18244362
endloop
endfacet
facet normal -21.68048859 2.99679279 1.33258176
outer loop
vertex -3.53384709 3.24368715 31.34867477
vertex -3.53740072 3.73656535 30.18244362
vertex -6.12345409 -12.57700729 24.79552841
endloop
endfacet
facet normal -15.61044788 2.20843220 0.80603302
outer loop
vertex -6.12345409 -12.57700729 24.79552841
vertex -3.53740072 3.73656535 30.18244362
vertex -6.11622477 -12.21971798 23.95660973
endloop
endfacet
facet normal 5.74496794 -13.54480743 -5.71912766
outer loop
vertex -6.12345409 -12.57700729 24.79552841
vertex -6.11622477 -12.21971798 23.95660973
vertex 10.00132275 -6.75585699 27.20672798
endloop
endfacet
facet normal 24.04756546 -56.92206192 -23.56023788
outer loop
vertex 10.00132275 -6.75585699 27.20672798
vertex -6.11622477 -12.21971798 23.95660973
vertex 10.00318432 -5.29345036 23.67542076
endloop
endfacet
facet normal 3.59208822 4.15012312 1.71904206
outer loop
vertex 10.00132275 -6.88286257 27.51334572
vertex 10.00132275 -6.75585699 27.20672798
vertex -3.53384709 2.89567971 32.18883896
endloop
endfacet
facet normal 9.84268665 11.37176514 4.71033955
outer loop
vertex -3.53384709 2.89567971 32.18883896
vertex 10.00132275 -6.75585699 27.20672798
vertex -3.53384709 3.24368715 31.34867477
endloop
endfacet
facet normal -15.57252502 2.17569494 0.90120250
outer loop
vertex -3.53384709 2.89567971 32.18883896
vertex -3.53384709 3.24368715 31.34867477
vertex -6.12345409 -14.39984608 29.19625092
endloop
endfacet
facet normal -81.56781769 11.39614201 4.72043610
outer loop
vertex -6.12345409 -14.39984608 29.19625092
vertex -3.53384709 3.24368715 31.34867477
vertex -6.12345409 -12.57700729 24.79552841
endloop
endfacet
facet normal 30.01249313 -70.96067047 -29.39286804
outer loop
vertex -6.12345409 -14.39984608 29.19625092
vertex -6.12345409 -12.57700729 24.79552841
vertex 10.00132275 -6.88286257 27.51334572
endloop
endfacet
facet normal 2.09110379 -4.94414282 -2.04793668
outer loop
vertex 10.00132275 -6.88286257 27.51334572
vertex -6.12345409 -12.57700729 24.79552841
vertex 10.00132275 -6.75585699 27.20672798
endloop
endfacet
facet normal 1.49994588 2.52209306 -0.87616694
outer loop
vertex 10.09382057 -6.88493681 27.66572571
vertex 10.00132275 -6.88286257 27.51334572
vertex -3.13205528 2.88394833 33.14406204
endloop
endfacet
facet normal 9.39554024 14.80768204 -3.77015209
outer loop
vertex -3.13205528 2.88394833 33.14406204
vertex 10.00132275 -6.88286257 27.51334572
vertex -3.53384709 2.89567971 32.18883896
endloop
endfacet
facet normal -16.51055527 1.30301285 6.96077490
outer loop
vertex -3.13205528 2.88394833 33.14406204
vertex -3.53384709 2.89567971 32.18883896
vertex -4.29374695 -14.40646458 33.62525177
endloop
endfacet
facet normal -76.62171173 5.99381161 31.66288757
outer loop
vertex -4.29374695 -14.40646458 33.62525177
vertex -3.53384709 2.89567971 32.18883896
vertex -6.12345409 -14.39984608 29.19625092
endloop
endfacet
facet normal 33.27341080 -74.62673950 -13.85741711
outer loop
vertex -4.29374695 -14.40646458 33.62525177
vertex -6.12345409 -14.39984608 29.19625092
vertex 10.09382057 -6.88493681 27.66572571
endloop
endfacet
facet normal 1.14194715 -2.61275840 -0.72875130
outer loop
vertex 10.09382057 -6.88493681 27.66572571
vertex -6.12345409 -14.39984608 29.19625092
vertex 10.00132275 -6.88286257 27.51334572
endloop
endfacet
facet normal 0.15036564 0.23850177 -0.06227969
outer loop
vertex 10.10019588 -6.88493681 27.68111801
vertex 10.09382057 -6.88493681 27.66572571
vertex -2.03597021 2.88394833 35.79024506
endloop
endfacet
facet normal 25.85025597 41.00281525 -10.70752907
outer loop
vertex -2.03597021 2.88394833 35.79024506
vertex 10.09382057 -6.88493681 27.66572571
vertex -3.13205528 2.88394833 33.14406204
endloop
endfacet
facet normal -45.75359726 3.60147548 18.95176315
outer loop
vertex -2.03597021 2.88394833 35.79024506
vertex -3.13205528 2.88394833 33.14406204
vertex -3.10194802 -14.40646458 36.50251007
endloop
endfacet
facet normal -49.74898529 3.91596866 20.60669518
outer loop
vertex -3.10194802 -14.40646458 36.50251007
vertex -3.13205528 2.88394833 33.14406204
vertex -4.29374695 -14.40646458 33.62525177
endloop
endfacet
facet normal 21.64137840 -48.49930191 -8.96414852
outer loop
vertex -3.10194802 -14.40646458 36.50251007
vertex -4.29374695 -14.40646458 33.62525177
vertex 10.10019588 -6.88493681 27.68111801
endloop
endfacet
facet normal 0.11577364 -0.25945166 -0.04795209
outer loop
vertex 10.10019588 -6.88493681 27.68111801
vertex -4.29374695 -14.40646458 33.62525177
vertex 10.09382057 -6.88493681 27.66572571
endloop
endfacet
facet normal 0.11507536 0.23848519 -0.11507536
outer loop
vertex 10.11197567 -6.88493681 27.69289780
vertex 10.10019588 -6.88493681 27.68111801
vertex -0.01066947 2.88394833 37.81554413
endloop
endfacet
facet normal 19.78491211 41.00278854 -19.78492928
outer loop
vertex -0.01066947 2.88394833 37.81554413
vertex 10.10019588 -6.88493681 27.68111801
vertex -2.03597021 2.88394833 35.79024506
endloop
endfacet
facet normal -35.01825714 3.60147595 35.01828766
outer loop
vertex -0.01066947 2.88394833 37.81554413
vertex -2.03597021 2.88394833 35.79024506
vertex -0.89979076 -14.40646458 38.70466614
endloop
endfacet
facet normal -38.07618713 3.91596913 38.07621002
outer loop
vertex -0.89979076 -14.40646458 38.70466614
vertex -2.03597021 2.88394833 35.79024506
vertex -3.10194802 -14.40646458 36.50251007
endloop
endfacet
facet normal 16.56357765 -48.49927521 -16.56358719
outer loop
vertex -0.89979076 -14.40646458 38.70466614
vertex -3.10194802 -14.40646458 36.50251007
vertex 10.11197567 -6.88493681 27.69289780
endloop
endfacet
facet normal 0.08860198 -0.25943249 -0.08860198
outer loop
vertex 10.11197567 -6.88493681 27.69289780
vertex -3.10194802 -14.40646458 36.50251007
vertex 10.10019588 -6.88493681 27.68111801
endloop
endfacet
facet normal 12.76827812 26.46132660 -12.76828766
outer loop
vertex 11.41901207 -6.88493681 28.99993324
vertex 10.11197567 -6.88493681 27.69289780
vertex 2.67038298 2.88394833 40.49659729
endloop
endfacet
facet normal 26.19089890 54.27869415 -26.19089127
outer loop
vertex 2.67038298 2.88394833 40.49659729
vertex 10.11197567 -6.88493681 27.69289780
vertex -0.01066947 2.88394833 37.81554413
endloop
endfacet
facet normal -46.35651779 4.76756239 46.35650253
outer loop
vertex 2.67038298 2.88394833 40.49659729
vertex -0.01066947 2.88394833 37.81554413
vertex -0.65067524 -14.40646458 38.95378113
endloop
endfacet
facet normal -4.30730104 0.44298753 4.30731010
outer loop
vertex -0.65067524 -14.40646458 38.95378113
vertex -0.01066947 2.88394833 37.81554413
vertex -0.89979076 -14.40646458 38.70466614
endloop
endfacet
facet normal 1.87372530 -5.48639774 -1.87372935
outer loop
vertex -0.65067524 -14.40646458 38.95378113
vertex -0.89979076 -14.40646458 38.70466614
vertex 11.41901207 -6.88493681 28.99993324
endloop
endfacet
facet normal 9.83090305 -28.78555107 -9.83091068
outer loop
vertex 11.41901207 -6.88493681 28.99993324
vertex -0.89979076 -14.40646458 38.70466614
vertex 10.11197567 -6.88493681 27.69289780
endloop
endfacet
facet normal 19.92863846 24.44706345 -5.60790634
outer loop
vertex 12.62655640 -7.59229946 30.20747375
vertex 11.41901207 -6.88493681 28.99993324
vertex 5.14735126 1.43297243 42.97356415
endloop
endfacet
facet normal 40.87858582 50.14693451 -11.50316811
outer loop
vertex 5.14735126 1.43297243 42.97356415
vertex 11.41901207 -6.88493681 28.99993324
vertex 2.67038298 2.88394833 40.49659729
endloop
endfacet
facet normal -45.06636810 4.40464306 47.64657593
outer loop
vertex 5.14735126 1.43297243 42.97356415
vertex 2.67038298 2.88394833 40.49659729
vertex -0.42052269 -14.54128456 39.18393326
endloop
endfacet
facet normal -4.18742752 0.40926555 4.42717743
outer loop
vertex -0.42052269 -14.54128456 39.18393326
vertex 2.67038298 2.88394833 40.49659729
vertex -0.65067524 -14.40646458 38.95378113
endloop
endfacet
facet normal 0.38911760 -5.06876802 -3.35833359
outer loop
vertex -0.42052269 -14.54128456 39.18393326
vertex -0.65067524 -14.40646458 38.95378113
vertex 12.62655640 -7.59229946 30.20747375
endloop
endfacet
facet normal 2.04156923 -26.59434891 -17.62022400
outer loop
vertex 12.62655640 -7.59229946 30.20747375
vertex -0.65067524 -14.40646458 38.95378113
vertex 11.41901207 -6.88493681 28.99993324
endloop
endfacet
facet normal 37.90289307 46.49658966 -10.66582108
outer loop
vertex 14.92321777 -8.93765259 32.50413513
vertex 12.62655640 -7.59229946 30.20747375
vertex 7.20284796 0.22889030 45.02906036
endloop
endfacet
facet normal 33.92283249 41.61413574 -9.54583931
outer loop
vertex 7.20284796 0.22889030 45.02906036
vertex 12.62655640 -7.59229946 30.20747375
vertex 5.14735126 1.43297243 42.97356415
endloop
endfacet
facet normal -37.39805222 3.65517044 39.53921127
outer loop
vertex 7.20284796 0.22889030 45.02906036
vertex 5.14735126 1.43297243 42.97356415
vertex -0.85559326 -14.28642654 38.74886322
endloop
endfacet
facet normal 7.91573811 -0.77365816 -8.36894608
outer loop
vertex -0.85559326 -14.28642654 38.74886322
vertex 5.14735126 1.43297243 42.97356415
vertex -0.42052269 -14.54128456 39.18393326
endloop
endfacet
facet normal -0.73557222 9.58178520 6.34845066
outer loop
vertex -0.85559326 -14.28642654 38.74886322
vertex -0.42052269 -14.54128456 39.18393326
vertex 14.92321777 -8.93765259 32.50413513
endloop
endfacet
facet normal 3.88295746 -50.58061218 -33.51239395
outer loop
vertex 14.92321777 -8.93765259 32.50413513
vertex -0.42052269 -14.54128456 39.18393326
vertex 12.62655640 -7.59229946 30.20747375
endloop
endfacet
facet normal 45.67474365 25.39989853 9.34118271
outer loop
vertex 15.70612717 -11.09389687 34.53912354
vertex 14.92321777 -8.93765259 32.50413513
vertex 8.13967896 -2.18618822 47.31488419
endloop
endfacet
facet normal 51.20178223 29.38114357 10.05779839
outer loop
vertex 8.13967896 -2.18618822 47.31488419
vertex 14.92321777 -8.93765259 32.50413513
vertex 7.20284796 0.22889030 45.02906036
endloop
endfacet
facet normal -48.27169800 12.47452354 32.96377563
outer loop
vertex 8.13967896 -2.18618822 47.31488419
vertex 7.20284796 0.22889030 45.02906036
vertex -0.96676111 -13.89695263 38.41125870
endloop
endfacet
facet normal 7.34640980 -2.02241015 -4.75218916
outer loop
vertex -0.96676111 -13.89695263 38.41125870
vertex 7.20284796 0.22889030 45.02906036
vertex -0.85559326 -14.28642654 38.74886322
endloop
endfacet
facet normal 0.56177133 6.05929947 6.80526447
outer loop
vertex -0.96676111 -13.89695263 38.41125870
vertex -0.85559326 -14.28642654 38.74886322
vertex 15.70612717 -11.09389687 34.53912354
endloop
endfacet
facet normal -2.58046579 -36.99875259 -38.21057510
outer loop
vertex 15.70612717 -11.09389687 34.53912354
vertex -0.85559326 -14.28642654 38.74886322
vertex 14.92321777 -8.93765259 32.50413513
endloop
endfacet
facet normal 38.17131042 21.58769417 7.55527210
outer loop
vertex 16.40154457 -12.91110992 36.21800995
vertex 15.70612717 -11.09389687 34.53912354
vertex 8.15703773 -2.23154807 47.35679245
endloop
endfacet
facet normal 0.95281315 0.53886831 0.18858600
outer loop
vertex 8.15703773 -2.23154807 47.35679245
vertex 15.70612717 -11.09389687 34.53912354
vertex 8.13967896 -2.18618822 47.31488419
endloop
endfacet
facet normal -0.89464790 0.22707859 0.61635208
outer loop
vertex 8.15703773 -2.23154807 47.35679245
vertex 8.13967896 -2.18618822 47.31488419
vertex -0.05797464 -16.27172661 40.60526276
endloop
endfacet
facet normal -46.83756256 11.88807201 32.26832199
outer loop
vertex -0.05797464 -16.27172661 40.60526276
vertex 8.13967896 -2.18618822 47.31488419
vertex -0.96676111 -13.89695263 38.41125870
endloop
endfacet
facet normal -3.04552698 -40.09932709 -42.14171982
outer loop
vertex -0.05797464 -16.27172661 40.60526276
vertex -0.96676111 -13.89695263 38.41125870
vertex 16.40154457 -12.91110992 36.21800995
endloop
endfacet
facet normal -2.33048248 -30.68463516 -32.24748230
outer loop
vertex 16.40154457 -12.91110992 36.21800995
vertex -0.96676111 -13.89695263 38.41125870
vertex 15.70612717 -11.09389687 34.53912354
endloop
endfacet
facet normal 34.38101196 28.20567703 -1.59530449
outer loop
vertex 17.31015205 -13.89457989 38.41157913
vertex 16.40154457 -12.91110992 36.21800995
vertex 8.17971706 -2.25609684 47.41154480
endloop
endfacet
facet normal 0.85817456 0.70402622 -0.03981279
outer loop
vertex 8.17971706 -2.25609684 47.41154480
vertex 16.40154457 -12.91110992 36.21800995
vertex 8.15703773 -2.23154807 47.35679245
endloop
endfacet
facet normal -0.93447155 0.29667154 0.52008927
outer loop
vertex 8.17971706 -2.25609684 47.41154480
vertex 8.15703773 -2.23154807 47.35679245
vertex 1.12941265 -17.55694580 43.47187042
endloop
endfacet
facet normal -48.92488098 15.53253746 27.22922134
outer loop
vertex 1.12941265 -17.55694580 43.47187042
vertex 8.15703773 -2.23154807 47.35679245
vertex -0.05797464 -16.27172661 40.60526276
endloop
endfacet
facet normal 3.99498320 -52.39236069 -25.14444351
outer loop
vertex 1.12941265 -17.55694580 43.47187042
vertex -0.05797464 -16.27172661 40.60526276
vertex 17.31015205 -13.89457989 38.41157913
endloop
endfacet
facet normal 3.05701351 -40.09138489 -19.24092293
outer loop
vertex 17.31015205 -13.89457989 38.41157913
vertex -0.05797464 -16.27172661 40.60526276
vertex 16.40154457 -12.91110992 36.21800995
endloop
endfacet
facet normal 40.29510880 33.05751038 -1.86972046
outer loop
vertex 18.37505341 -15.04722118 40.98247910
vertex 17.31015205 -13.89457989 38.41157913
vertex 9.46701050 -3.64945340 50.51934814
endloop
endfacet
facet normal 48.71028137 39.96119308 -2.26019192
outer loop
vertex 9.46701050 -3.64945340 50.51934814
vertex 17.31015205 -13.89457989 38.41157913
vertex 8.17971706 -2.25609684 47.41154480
endloop
endfacet
facet normal -53.04140472 16.83944321 29.52027130
outer loop
vertex 9.46701050 -3.64945340 50.51934814
vertex 8.17971706 -2.25609684 47.41154480
vertex 0.89995110 -17.30857849 42.91790009
endloop
endfacet
facet normal 9.45470333 -3.00165582 -5.26202154
outer loop
vertex 0.89995110 -17.30857849 42.91790009
vertex 8.17971706 -2.25609684 47.41154480
vertex 1.12941265 -17.55694580 43.47187042
endloop
endfacet
facet normal -0.77202958 10.12479305 4.85913849
outer loop
vertex 0.89995110 -17.30857849 42.91790009
vertex 1.12941265 -17.55694580 43.47187042
vertex 18.37505341 -15.04722118 40.98247910
endloop
endfacet
facet normal 3.58287573 -46.98777008 -22.55064583
outer loop
vertex 18.37505341 -15.04722118 40.98247910
vertex 1.12941265 -17.55694580 43.47187042
vertex 17.31015205 -13.89457989 38.41157913
endloop
endfacet
facet normal 37.84099579 15.80077362 16.24231339
outer loop
vertex 18.34362411 -16.83979416 42.79954529
vertex 18.37505341 -15.04722118 40.98247910
vertex 9.46653557 -6.35647583 53.28286362
endloop
endfacet
facet normal 57.31442642 24.61298561 24.11968422
outer loop
vertex 9.46653557 -6.35647583 53.28286362
vertex 18.37505341 -15.04722118 40.98247910
vertex 9.46701050 -3.64945340 50.51934814
endloop
endfacet
facet normal -58.19271469 23.53806686 23.04688835
outer loop
vertex 9.46653557 -6.35647583 53.28286362
vertex 9.46701050 -3.64945340 50.51934814
vertex 0.95092773 -16.99394989 42.64538574
endloop
endfacet
facet normal 6.11394072 -2.72214293 -1.99914575
outer loop
vertex 0.95092773 -16.99394989 42.64538574
vertex 9.46701050 -3.64945340 50.51934814
vertex 0.89995110 -17.30857849 42.91790009
endloop
endfacet
facet normal -0.09051265 4.74761820 5.46438122
outer loop
vertex 0.95092773 -16.99394989 42.64538574
vertex 0.89995110 -17.30857849 42.91790009
vertex 18.34362411 -16.83979416 42.79954529
endloop
endfacet
facet normal 0.63965261 -31.69258690 -31.25432014
outer loop
vertex 18.34362411 -16.83979416 42.79954529
vertex 0.89995110 -17.30857849 42.91790009
vertex 18.37505341 -15.04722118 40.98247910
endloop
endfacet
facet normal 21.49089241 9.09906292 9.09904671
outer loop
vertex 18.34362411 -17.86479759 43.82455063
vertex 18.34362411 -16.83979416 42.79954529
vertex 9.46653557 -6.44433403 53.37071991
endloop
endfacet
facet normal 1.84207106 0.77990806 0.77992505
outer loop
vertex 9.46653557 -6.44433403 53.37071991
vertex 18.34362411 -16.83979416 42.79954529
vertex 9.46653557 -6.35647583 53.28286362
endloop
endfacet
facet normal -1.86915278 0.74814975 0.74816597
outer loop
vertex 9.46653557 -6.44433403 53.37071991
vertex 9.46653557 -6.35647583 53.28286362
vertex 0.95092762 -20.10592651 45.75736237
endloop
endfacet
facet normal -66.20715332 26.50037193 26.50037003
outer loop
vertex 0.95092762 -20.10592651 45.75736237
vertex 9.46653557 -6.35647583 53.28286362
vertex 0.95092773 -16.99394989 42.64538574
endloop
endfacet
facet normal 0.95947599 -54.12566376 -54.12566376
outer loop
vertex 0.95092762 -20.10592651 45.75736237
vertex 0.95092773 -16.99394989 42.64538574
vertex 18.34362411 -17.86479759 43.82455063
endloop
endfacet
facet normal 0.31602454 -17.82760620 -17.82757378
outer loop
vertex 18.34362411 -17.86479759 43.82455063
vertex 0.95092773 -16.99394989 42.64538574
vertex 18.34362411 -16.83979416 42.79954529
endloop
endfacet
facet normal 13.15655136 11.00190353 -0.88004971
outer loop
vertex 18.72436523 -18.25373840 44.65422058
vertex 18.34362411 -17.86479759 43.82455063
vertex 9.59393120 -6.61525822 53.65418625
endloop
endfacet
facet normal 4.86898804 3.73249602 0.06239200
outer loop
vertex 9.59393120 -6.61525822 53.65418625
vertex 18.34362411 -17.86479759 43.82455063
vertex 9.46653557 -6.44433403 53.37071991
endloop
endfacet
facet normal -5.01066160 1.49662590 3.15432882
outer loop
vertex 9.59393120 -6.61525822 53.65418625
vertex 9.46653557 -6.44433403 53.37071991
vertex 2.54362774 -21.91610718 49.71450806
endloop
endfacet
facet normal -67.84246063 21.57170486 37.17360687
outer loop
vertex 2.54362774 -21.91610718 49.71450806
vertex 9.46653557 -6.44433403 53.37071991
vertex 0.95092762 -20.10592651 45.75736237
endloop
endfacet
facet normal 5.33249283 -72.08905029 -35.12311172
outer loop
vertex 2.54362774 -21.91610718 49.71450806
vertex 0.95092762 -20.10592651 45.75736237
vertex 18.72436523 -18.25373840 44.65422058
endloop
endfacet
facet normal 1.10764790 -15.16609859 -7.61801910
outer loop
vertex 18.72436523 -18.25373840 44.65422058
vertex 0.95092762 -20.10592651 45.75736237
vertex 18.34362411 -17.86479759 43.82455063
endloop
endfacet
facet normal 40.29509735 33.05752945 -1.86973763
outer loop
vertex 19.78926849 -19.40637970 47.22512054
vertex 18.72436523 -18.25373840 44.65422058
vertex 10.88122463 -8.00861454 56.76198578
endloop
endfacet
facet normal 48.71022034 39.96115494 -2.26019096
outer loop
vertex 10.88122463 -8.00861454 56.76198578
vertex 18.72436523 -18.25373840 44.65422058
vertex 9.59393120 -6.61525822 53.65418625
endloop
endfacet
facet normal -53.04135132 16.83940887 29.52026939
outer loop
vertex 10.88122463 -8.00861454 56.76198578
vertex 9.59393120 -6.61525822 53.65418625
vertex 2.31416726 -21.66774178 49.16054153
endloop
endfacet
facet normal 9.45463753 -3.00163198 -5.26199150
outer loop
vertex 2.31416726 -21.66774178 49.16054153
vertex 9.59393120 -6.61525822 53.65418625
vertex 2.54362774 -21.91610718 49.71450806
endloop
endfacet
facet normal -0.77202731 10.12472343 4.85910368
outer loop
vertex 2.31416726 -21.66774178 49.16054153
vertex 2.54362774 -21.91610718 49.71450806
vertex 19.78926849 -19.40637970 47.22512054
endloop
endfacet
facet normal 3.58288717 -46.98777008 -22.55065346
outer loop
vertex 19.78926849 -19.40637970 47.22512054
vertex 2.54362774 -21.91610718 49.71450806
vertex 18.72436523 -18.25373840 44.65422058
endloop
endfacet
facet normal 37.84106445 15.80080986 16.24234009
outer loop
vertex 19.75783920 -21.19895554 49.04219055
vertex 19.78926849 -19.40637970 47.22512054
vertex 10.88074970 -10.71563721 59.52550888
endloop
endfacet
facet normal 57.31449509 24.61305618 24.11968994
outer loop
vertex 10.88074970 -10.71563721 59.52550888
vertex 19.78926849 -19.40637970 47.22512054
vertex 10.88122463 -8.00861454 56.76198578
endloop
endfacet
facet normal -58.19281006 23.53813171 23.04689026
outer loop
vertex 10.88074970 -10.71563721 59.52550888
vertex 10.88122463 -8.00861454 56.76198578
vertex 2.36514187 -21.35311508 48.88803101
endloop
endfacet
facet normal 6.11387348 -2.72209382 -1.99915624
outer loop
vertex 2.36514187 -21.35311508 48.88803101
vertex 10.88122463 -8.00861454 56.76198578
vertex 2.31416726 -21.66774178 49.16054153
endloop
endfacet
facet normal -0.09051281 4.74755096 5.46434832
outer loop
vertex 2.36514187 -21.35311508 48.88803101
vertex 2.31416726 -21.66774178 49.16054153
vertex 19.75783920 -21.19895554 49.04219055
endloop
endfacet
facet normal 0.63966429 -31.69265366 -31.25437164
outer loop
vertex 19.75783920 -21.19895554 49.04219055
vertex 2.31416726 -21.66774178 49.16054153
vertex 19.78926849 -19.40637970 47.22512054
endloop
endfacet
facet normal 43.88423920 18.58020973 18.58019257
outer loop
vertex 19.75783920 -23.29200554 51.13524246
vertex 19.75783920 -21.19895554 49.04219055
vertex 10.88074970 -10.72342587 59.53329849
endloop
endfacet
facet normal 0.16331196 0.06914908 0.06914061
outer loop
vertex 10.88074970 -10.72342587 59.53329849
vertex 19.75783920 -21.19895554 49.04219055
vertex 10.88074970 -10.71563721 59.52550888
endloop
endfacet
facet normal -0.16571553 0.06633328 0.06632516
outer loop
vertex 10.88074970 -10.72342587 59.53329849
vertex 10.88074970 -10.71563721 59.52550888
vertex 2.36514187 -23.47682953 51.01174545
endloop
endfacet
facet normal -45.18193054 18.08471870 18.08471870
outer loop
vertex 2.36514187 -23.47682953 51.01174545
vertex 10.88074970 -10.71563721 59.52550888
vertex 2.36514187 -21.35311508 48.88803101
endloop
endfacet
facet normal 0.65478575 -36.93712234 -36.93712234
outer loop
vertex 2.36514187 -23.47682953 51.01174545
vertex 2.36514187 -21.35311508 48.88803101
vertex 19.75783920 -23.29200554 51.13524246
endloop
endfacet
facet normal 0.64532757 -36.40381622 -36.40378189
outer loop
vertex 19.75783920 -23.29200554 51.13524246
vertex 2.36514187 -21.35311508 48.88803101
vertex 19.75783920 -21.19895554 49.04219055
endloop
endfacet
facet normal 43.88423920 24.27620316 10.05553627
outer loop
vertex 19.75783920 -24.42475700 53.86994553
vertex 19.75783920 -23.29200554 51.13524246
vertex 10.88074970 -10.72764397 59.54347610
endloop
endfacet
facet normal 0.16334197 0.09034757 0.03744446
outer loop
vertex 10.88074970 -10.72764397 59.54347610
vertex 19.75783920 -23.29200554 51.13524246
vertex 10.88074970 -10.72342587 59.53329849
endloop
endfacet
facet normal -0.16573733 0.08666856 0.03591970
outer loop
vertex 10.88074970 -10.72764397 59.54347610
vertex 10.88074970 -10.72342587 59.53329849
vertex 2.36514187 -24.62617683 53.78651428
endloop
endfacet
facet normal -45.18196869 23.62884331 9.78739071
outer loop
vertex 2.36514187 -24.62617683 53.78651428
vertex 10.88074970 -10.72342587 59.53329849
vertex 2.36514187 -23.47682953 51.01174545
endloop
endfacet
facet normal 0.65478492 -48.26071167 -19.99024963
outer loop
vertex 2.36514187 -24.62617683 53.78651428
vertex 2.36514187 -23.47682953 51.01174545
vertex 19.75783920 -24.42475700 53.86994553
endloop
endfacet
facet normal 0.64533019 -47.56386185 -19.70160294
outer loop
vertex 19.75783920 -24.42475700 53.86994553
vertex 2.36514187 -23.47682953 51.01174545
vertex 19.75783920 -23.29200554 51.13524246
endloop
endfacet
facet normal 36.55133438 20.21973991 8.37528419
outer loop
vertex 19.75783920 -25.36822891 56.14768982
vertex 19.75783920 -24.42475700 53.86994553
vertex 10.88074970 -12.28237057 63.29691696
endloop
endfacet
facet normal 60.23209381 33.31962967 13.80144691
outer loop
vertex 10.88074970 -12.28237057 63.29691696
vertex 19.75783920 -24.42475700 53.86994553
vertex 10.88074970 -10.72764397 59.54347610
endloop
endfacet
facet normal -61.11782074 31.96282959 13.23944187
outer loop
vertex 10.88074970 -12.28237057 63.29691696
vertex 10.88074970 -10.72764397 59.54347610
vertex 2.36514187 -24.43463707 53.32409668
endloop
endfacet
facet normal 7.52961349 -3.93776703 -1.63107753
outer loop
vertex 2.36514187 -24.43463707 53.32409668
vertex 10.88074970 -10.72764397 59.54347610
vertex 2.36514187 -24.62617683 53.78651428
endloop
endfacet
facet normal -0.10912108 8.04268932 3.33139300
outer loop
vertex 2.36514187 -24.43463707 53.32409668
vertex 2.36514187 -24.62617683 53.78651428
vertex 19.75783920 -25.36822891 56.14768982
endloop
endfacet
facet normal 0.53749800 -39.61611557 -16.40952110
outer loop
vertex 19.75783920 -25.36822891 56.14768982
vertex 2.36514187 -24.62617683 53.78651428
vertex 19.75783920 -24.42475700 53.86994553
endloop
endfacet
facet normal 27.45684814 7.70696926 19.85969353
outer loop
vertex 19.20266342 -26.78925323 57.46670151
vertex 19.75783920 -25.36822891 56.14768982
vertex 9.74292850 -15.23042774 66.05953217
endloop
endfacet
facet normal 57.22752380 16.38944054 41.05953217
outer loop
vertex 9.74292850 -15.23042774 66.05953217
vertex 19.75783920 -25.36822891 56.14768982
vertex 10.88074970 -12.28237057 63.29691696
endloop
endfacet
facet normal -62.80160522 34.66222000 11.12323189
outer loop
vertex 9.74292850 -15.23042774 66.05953217
vertex 10.88074970 -12.28237057 63.29691696
vertex 2.47400045 -24.28807640 53.24471664
endloop
endfacet
facet normal 2.42627048 -1.76159644 0.07482529
outer loop
vertex 2.47400045 -24.28807640 53.24471664
vertex 10.88074970 -12.28237057 63.29691696
vertex 2.36514187 -24.43463707 53.32409668
endloop
endfacet
facet normal -0.42023343 1.78752112 2.72403836
outer loop
vertex 2.47400045 -24.28807640 53.24471664
vertex 2.36514187 -24.43463707 53.32409668
vertex 19.20266342 -26.78925323 57.46670151
endloop
endfacet
facet normal 2.78097582 -24.50876045 -25.23375320
outer loop
vertex 19.20266342 -26.78925323 57.46670151
vertex 2.36514187 -24.43463707 53.32409668
vertex 19.75783920 -25.36822891 56.14768982
endloop
endfacet
facet normal 27.02665710 7.64489937 19.46959114
outer loop
vertex 18.66599083 -28.19164848 58.76234436
vertex 19.20266342 -26.78925323 57.46670151
vertex 9.79801559 -15.08647919 65.92654419
endloop
endfacet
facet normal -2.77411032 -0.78467703 -1.99845719
outer loop
vertex 9.79801559 -15.08647919 65.92654419
vertex 19.20266342 -26.78925323 57.46670151
vertex 9.74292850 -15.23042774 66.05953217
endloop
endfacet
facet normal 3.04922318 -1.67260635 -0.54739112
outer loop
vertex 9.79801559 -15.08647919 65.92654419
vertex 9.74292850 -15.23042774 66.05953217
vertex 1.34588563 -27.23598289 55.96822739
endloop
endfacet
facet normal -62.44548035 34.25358963 11.21005344
outer loop
vertex 1.34588563 -27.23598289 55.96822739
vertex 9.74292850 -15.23042774 66.05953217
vertex 2.47400045 -24.28807640 53.24471664
endloop
endfacet
facet normal 5.63402987 -50.32357407 -52.13615036
outer loop
vertex 1.34588563 -27.23598289 55.96822739
vertex 2.47400045 -24.28807640 53.24471664
vertex 18.66599083 -28.19164848 58.76234436
endloop
endfacet
facet normal 2.68025970 -23.94019508 -24.80250931
outer loop
vertex 18.66599083 -28.19164848 58.76234436
vertex 2.47400045 -24.28807640 53.24471664
vertex 19.20266342 -26.78925323 57.46670151
endloop
endfacet
facet normal 22.75866699 12.62573433 5.12811232
outer loop
vertex 18.67544556 -28.78391647 60.17858505
vertex 18.66599083 -28.19164848 58.76234436
vertex 9.79835796 -15.08679962 65.85211945
endloop
endfacet
facet normal -0.97305316 -0.65754396 -0.00164520
outer loop
vertex 9.79835796 -15.08679962 65.85211945
vertex 18.66599083 -28.19164848 58.76234436
vertex 9.79801559 -15.08647919 65.92654419
endloop
endfacet
facet normal 1.03255022 -0.63574296 0.00748712
outer loop
vertex 9.79835796 -15.08679962 65.85211945
vertex 9.79801559 -15.08647919 65.92654419
vertex 1.28275013 -28.98533630 60.09515762
endloop
endfacet
facet normal -67.56076813 35.51007462 14.01869774
outer loop
vertex 1.28275013 -28.98533630 60.09515762
vertex 9.79801559 -15.08647919 65.92654419
vertex 1.34588563 -27.23598289 55.96822739
endloop
endfacet
facet normal 0.97718966 -71.78370667 -30.41325569
outer loop
vertex 1.28275013 -28.98533630 60.09515762
vertex 1.34588563 -27.23598289 55.96822739
vertex 18.67544556 -28.78391647 60.17858505
endloop
endfacet
facet normal 0.30141354 -24.50301933 -10.24910831
outer loop
vertex 18.67544556 -28.78391647 60.17858505
vertex 1.34588563 -27.23598289 55.96822739
vertex 18.66599083 -28.19164848 58.76234436
endloop
endfacet
facet normal 36.55140686 20.21976852 8.37529945
outer loop
vertex 18.67544556 -29.72739029 62.45633316
vertex 18.67544556 -28.78391647 60.17858505
vertex 9.79835796 -16.64152718 69.60556030
endloop
endfacet
facet normal 60.23211670 33.31962204 13.80145264
outer loop
vertex 9.79835796 -16.64152718 69.60556030
vertex 18.67544556 -28.78391647 60.17858505
vertex 9.79835796 -15.08679962 65.85211945
endloop
endfacet
facet normal -61.11784363 31.96282959 13.23945045
outer loop
vertex 9.79835796 -16.64152718 69.60556030
vertex 9.79835796 -15.08679962 65.85211945
vertex 1.28275013 -28.79379654 59.63274002
endloop
endfacet
facet normal 7.52961493 -3.93776703 -1.63107753
outer loop
vertex 1.28275013 -28.79379654 59.63274002
vertex 9.79835796 -15.08679962 65.85211945
vertex 1.28275013 -28.98533630 60.09515762
endloop
endfacet
facet normal -0.10912019 8.04268932 3.33139300
outer loop
vertex 1.28275013 -28.79379654 59.63274002
vertex 1.28275013 -28.98533630 60.09515762
vertex 18.67544556 -29.72739029 62.45633316
endloop
endfacet
facet normal 0.53749537 -39.61618042 -16.40955353
outer loop
vertex 18.67544556 -29.72739029 62.45633316
vertex 1.28275013 -28.98533630 60.09515762
vertex 18.67544556 -28.78391647 60.17858505
endloop
endfacet
facet normal 27.45685387 7.70696640 19.85969353
outer loop
vertex 18.12026978 -31.14841461 63.77534485
vertex 18.67544556 -29.72739029 62.45633316
vertex 8.66053581 -19.58958817 72.36817932
endloop
endfacet
facet normal 57.22761536 16.38946152 41.05958176
outer loop
vertex 8.66053581 -19.58958817 72.36817932
vertex 18.67544556 -29.72739029 62.45633316
vertex 9.79835796 -16.64152718 69.60556030
endloop
endfacet
facet normal -62.80169296 34.66225433 11.12324142
outer loop
vertex 8.66053581 -19.58958817 72.36817932
vertex 9.79835796 -16.64152718 69.60556030
vertex 1.39161015 -28.64723778 59.55336380
endloop
endfacet
facet normal 2.42620540 -1.76157808 0.07485926
outer loop
vertex 1.39161015 -28.64723778 59.55336380
vertex 9.79835796 -16.64152718 69.60556030
vertex 1.28275013 -28.79379654 59.63274002
endloop
endfacet
facet normal -0.42023438 1.78746271 2.72400975
outer loop
vertex 1.39161015 -28.64723778 59.55336380
vertex 1.28275013 -28.79379654 59.63274002
vertex 18.12026978 -31.14841461 63.77534485
endloop
endfacet
facet normal 2.78097343 -24.50876045 -25.23375320
outer loop
vertex 18.12026978 -31.14841461 63.77534485
vertex 1.28275013 -28.79379654 59.63274002
vertex 18.67544556 -29.72739029 62.45633316
endloop
endfacet
facet normal 27.02672577 7.64491510 19.46963120
outer loop
vertex 17.58359528 -32.55081177 65.07099152
vertex 18.12026978 -31.14841461 63.77534485
vertex 8.71562290 -19.44563866 72.23519135
endloop
endfacet
facet normal -2.77411938 -0.78467667 -1.99846625
outer loop
vertex 8.71562290 -19.44563866 72.23519135
vertex 18.12026978 -31.14841461 63.77534485
vertex 8.66053581 -19.58958817 72.36817932
endloop
endfacet
facet normal 3.04923296 -1.67260599 -0.54739869
outer loop
vertex 8.71562290 -19.44563866 72.23519135
vertex 8.66053581 -19.58958817 72.36817932
vertex 0.26349545 -31.59514427 62.27687454
endloop
endfacet
facet normal -62.44548416 34.25357819 11.21004677
outer loop
vertex 0.26349545 -31.59514427 62.27687454
vertex 8.66053581 -19.58958817 72.36817932
vertex 1.39161015 -28.64723778 59.55336380
endloop
endfacet
facet normal 5.63402462 -50.32355881 -52.13613510
outer loop
vertex 0.26349545 -31.59514427 62.27687454
vertex 1.39161015 -28.64723778 59.55336380
vertex 17.58359528 -32.55081177 65.07099152
endloop
endfacet
facet normal 2.68025303 -23.94026375 -24.80254364
outer loop
vertex 17.58359528 -32.55081177 65.07099152
vertex 1.39161015 -28.64723778 59.55336380
vertex 18.12026978 -31.14841461 63.77534485
endloop
endfacet
facet normal 22.75872803 12.62580395 5.12805271
outer loop
vertex 17.59305573 -33.14308167 66.48723602
vertex 17.58359528 -32.55081177 65.07099152
vertex 8.71596527 -19.44596100 72.16075897
endloop
endfacet
facet normal -0.97313982 -0.65761143 -0.00162829
outer loop
vertex 8.71596527 -19.44596100 72.16075897
vertex 17.58359528 -32.55081177 65.07099152
vertex 8.71562290 -19.44563866 72.23519135
endloop
endfacet
facet normal 1.03264534 -0.63580775 0.00750337
outer loop
vertex 8.71596527 -19.44596100 72.16075897
vertex 8.71562290 -19.44563866 72.23519135
vertex 0.20035934 -33.34449768 66.40380096
endloop
endfacet
facet normal -67.56072998 35.51003647 14.01868534
outer loop
vertex 0.20035934 -33.34449768 66.40380096
vertex 8.71562290 -19.44563866 72.23519135
vertex 0.26349545 -31.59514427 62.27687454
endloop
endfacet
facet normal 0.97718650 -71.78364563 -30.41325569
outer loop
vertex 0.20035934 -33.34449768 66.40380096
vertex 0.26349545 -31.59514427 62.27687454
vertex 17.59305573 -33.14308167 66.48723602
endloop
endfacet
facet normal 0.30141258 -24.50306129 -10.24913216
outer loop
vertex 17.59305573 -33.14308167 66.48723602
vertex 0.26349545 -31.59514427 62.27687454
vertex 17.58359528 -32.55081177 65.07099152
endloop
endfacet
facet normal 5.36330223 2.96690893 1.22893715
outer loop
vertex 17.59305573 -33.28152084 66.82145691
vertex 17.59305573 -33.14308167 66.48723602
vertex 8.71596527 -20.24609566 74.09245300
endloop
endfacet
facet normal 30.99822807 17.14782333 7.10286760
outer loop
vertex 8.71596527 -20.24609566 74.09245300
vertex 17.59305573 -33.14308167 66.48723602
vertex 8.71596527 -19.44596100 72.16075897
endloop
endfacet
facet normal -31.45406342 16.44954491 6.81363153
outer loop
vertex 8.71596527 -20.24609566 74.09245300
vertex 8.71596527 -19.44596100 72.16075897
vertex 0.20035920 -34.70202637 69.68115997
endloop
endfacet
facet normal -53.36573029 27.90869713 11.56017780
outer loop
vertex 0.20035920 -34.70202637 69.68115997
vertex 8.71596527 -19.44596100 72.16075897
vertex 0.20035934 -33.34449768 66.40380096
endloop
endfacet
facet normal 0.77337766 -57.00210953 -23.61108398
outer loop
vertex 0.20035920 -34.70202637 69.68115997
vertex 0.20035934 -33.34449768 66.40380096
vertex 17.59305573 -33.28152084 66.82145691
endloop
endfacet
facet normal 0.07886812 -5.81300259 -2.40783072
outer loop
vertex 17.59305573 -33.28152084 66.82145691
vertex 0.20035934 -33.34449768 66.40380096
vertex 17.59305573 -33.14308167 66.48723602
endloop
endfacet
facet normal 4.22102261 3.13318825 -0.43950582
outer loop
vertex 17.70870590 -33.40139008 67.07762909
vertex 17.59305573 -33.28152084 66.82145691
vertex 9.50303555 -21.09606361 75.99351501
endloop
endfacet
facet normal 30.96126556 22.59868431 -2.71455288
outer loop
vertex 9.50303555 -21.09606361 75.99351501
vertex 17.59305573 -33.28152084 66.82145691
vertex 8.71596527 -20.24609566 74.09245300
endloop
endfacet
facet normal -31.22594452 12.69694138 18.60486794
outer loop
vertex 9.50303555 -21.09606361 75.99351501
vertex 8.71596527 -20.24609566 74.09245300
vertex 1.43668365 -36.02322769 72.64223480
endloop
endfacet
facet normal -48.63330078 19.76155663 29.12305069
outer loop
vertex 1.43668365 -36.02322769 72.64223480
vertex 8.71596527 -20.24609566 74.09245300
vertex 0.20035920 -34.70202637 69.68115997
endloop
endfacet
facet normal 0.41149282 -55.06233215 -24.74005890
outer loop
vertex 1.43668365 -36.02322769 72.64223480
vertex 0.20035920 -34.70202637 69.68115997
vertex 17.70870590 -33.40139008 67.07762909
endloop
endfacet
facet normal 0.02110359 -4.78625011 -2.24913073
outer loop
vertex 17.70870590 -33.40139008 67.07762909
vertex 0.20035920 -34.70202637 69.68115997
vertex 17.59305573 -33.28152084 66.82145691
endloop
endfacet
facet normal 39.76603699 29.02383232 -3.45906925
outer loop
vertex 18.71907043 -34.49499893 69.51686096
vertex 17.70870590 -33.40139008 67.07762909
vertex 10.84157562 -22.54488945 79.22503662
endloop
endfacet
facet normal 52.68249512 38.45107269 -4.58258533
outer loop
vertex 10.84157562 -22.54488945 79.22503662
vertex 17.70870590 -33.40139008 67.07762909
vertex 9.50303555 -21.09606361 75.99351501
endloop
endfacet
facet normal -53.09288025 21.58076668 31.66734695
outer loop
vertex 10.84157562 -22.54488945 79.22503662
vertex 9.50303555 -21.09606361 75.99351501
vertex 1.21915817 -35.78778076 72.11708069
endloop
endfacet
facet normal 8.62810993 -3.50708890 -5.14623642
outer loop
vertex 1.21915817 -35.78778076 72.11708069
vertex 9.50303555 -21.09606361 75.99351501
vertex 1.43668365 -36.02322769 72.64223480
endloop
endfacet
facet normal -0.06669599 9.75576496 4.40151358
outer loop
vertex 1.21915817 -35.78778076 72.11708069
vertex 1.43668365 -36.02322769 72.64223480
vertex 18.71907043 -34.49499893 69.51686096
endloop
endfacet
facet normal 0.30976772 -45.31351852 -20.44423866
outer loop
vertex 18.71907043 -34.49499893 69.51686096
vertex 1.43668365 -36.02322769 72.64223480
vertex 17.70870590 -33.40139008 67.07762909
endloop
endfacet
facet normal 36.79550934 13.14086056 13.49700260
outer loop
vertex 18.69476318 -36.18057632 71.22422791
vertex 18.71907043 -34.49499893 69.51686096
vertex 10.84380531 -25.33586884 82.06894684
endloop
endfacet
facet normal 61.08035278 22.42453384 21.95928001
outer loop
vertex 10.84380531 -25.33586884 82.06894684
vertex 18.71907043 -34.49499893 69.51686096
vertex 10.84157562 -22.54488945 79.22503662
endloop
endfacet
facet normal -57.37248611 27.18359184 26.72263145
outer loop
vertex 10.84380531 -25.33586884 82.06894684
vertex 10.84157562 -22.54488945 79.22503662
vertex 1.27729607 -35.51751709 71.88729095
endloop
endfacet
facet normal 4.96410275 -2.62437439 -1.83067608
outer loop
vertex 1.27729607 -35.51751709 71.88729095
vertex 10.84157562 -22.54488945 79.22503662
vertex 1.21915817 -35.78778076 72.11708069
endloop
endfacet
facet normal 0.33156607 3.96380591 4.74585772
outer loop
vertex 1.27729607 -35.51751709 71.88729095
vertex 1.21915817 -35.78778076 72.11708069
vertex 18.69476318 -36.18057632 71.22422791
endloop
endfacet
facet normal -2.17561865 -29.81556702 -29.46603203
outer loop
vertex 18.69476318 -36.18057632 71.22422791
vertex 1.21915817 -35.78778076 72.11708069
vertex 18.71907043 -34.49499893 69.51686096
endloop
endfacet
facet normal 47.91888046 17.34527969 17.34527969
outer loop
vertex 18.69476318 -38.38989639 73.43354797
vertex 18.69476318 -36.18057632 71.22422791
vertex 10.84380531 -26.87713051 83.61020660
endloop
endfacet
facet normal 33.42906189 12.10036564 12.10038090
outer loop
vertex 10.84380531 -26.87713051 83.61020660
vertex 18.69476318 -36.18057632 71.22422791
vertex 10.84380531 -25.33586884 82.06894684
endloop
endfacet
facet normal -31.38516617 14.74447536 14.74449444
outer loop
vertex 10.84380531 -26.87713051 83.61020660
vertex 10.84380531 -25.33586884 82.06894684
vertex 1.27729607 -36.01779556 72.38756561
endloop
endfacet
facet normal -10.18728447 4.78588200 4.78591871
outer loop
vertex 1.27729607 -36.01779556 72.38756561
vertex 10.84380531 -25.33586884 82.06894684
vertex 1.27729607 -35.51751709 71.88729095
endloop
endfacet
facet normal -0.66341943 -8.71351719 -8.71358395
outer loop
vertex 1.27729607 -36.01779556 72.38756561
vertex 1.27729607 -35.51751709 71.88729095
vertex 18.69476318 -38.38989639 73.43354797
endloop
endfacet
facet normal -2.92982888 -38.48075867 -38.48075867
outer loop
vertex 18.69476318 -38.38989639 73.43354797
vertex 1.27729607 -35.51751709 71.88729095
vertex 18.69476318 -36.18057632 71.22422791
endloop
endfacet
facet normal 44.11388397 7.02123737 26.04915619
outer loop
vertex 17.87219238 -40.50420380 75.39644623
vertex 18.69476318 -38.38989639 73.43354797
vertex 10.20327663 -28.54813766 85.16103363
endloop
endfacet
facet normal 34.85957718 5.65703630 20.49326324
outer loop
vertex 10.20327663 -28.54813766 85.16103363
vertex 18.69476318 -38.38989639 73.43354797
vertex 10.84380531 -26.87713051 83.61020660
endloop
endfacet
facet normal -32.94000244 22.03831863 10.14115143
outer loop
vertex 10.20327663 -28.54813766 85.16103363
vertex 10.84380531 -26.87713051 83.61020660
vertex 1.09525204 -36.47662354 72.80663300
endloop
endfacet
facet normal -8.97981644 6.05202675 2.72537851
outer loop
vertex 1.09525204 -36.47662354 72.80663300
vertex 10.84380531 -26.87713051 83.61020660
vertex 1.27729607 -36.01779556 72.38756561
endloop
endfacet
facet normal -0.49954867 -7.50212812 -8.43092632
outer loop
vertex 1.09525204 -36.47662354 72.80663300
vertex 1.27729607 -36.01779556 72.38756561
vertex 17.87219238 -40.50420380 75.39644623
endloop
endfacet
facet normal -2.44466448 -35.04911041 -38.77709961
outer loop
vertex 17.87219238 -40.50420380 75.39644623
vertex 1.27729607 -36.01779556 72.38756561
vertex 18.69476318 -38.38989639 73.43354797
endloop
endfacet
facet normal 51.29259491 8.25294495 30.17904663
outer loop
vertex 16.92897606 -42.96894455 77.67356873
vertex 17.87219238 -40.50420380 75.39644623
vertex 10.17016315 -28.63466835 85.24097443
endloop
endfacet
facet normal 1.80071390 0.28971973 1.05950356
outer loop
vertex 10.17016315 -28.63466835 85.24097443
vertex 17.87219238 -40.50420380 75.39644623
vertex 10.20327663 -28.54813766 85.16103363
endloop
endfacet
facet normal -1.70283890 1.13719845 0.52558446
outer loop
vertex 10.17016315 -28.63466835 85.24097443
vertex 10.20327663 -28.54813766 85.16103363
vertex 0.45861781 -38.14022827 74.34360504
endloop
endfacet
facet normal -32.73870087 21.86401367 10.10460663
outer loop
vertex 0.45861781 -38.14022827 74.34360504
vertex 10.20327663 -28.54813766 85.16103363
vertex 1.09525204 -36.47662354 72.80663300
endloop
endfacet
facet normal -1.88185835 -27.43444824 -30.47429085
outer loop
vertex 0.45861781 -38.14022827 74.34360504
vertex 1.09525204 -36.47662354 72.80663300
vertex 16.92897606 -42.96894455 77.67356873
endloop
endfacet
facet normal -2.78807545 -40.64590073 -45.14968872
outer loop
vertex 16.92897606 -42.96894455 77.67356873
vertex 1.09525204 -36.47662354 72.80663300
vertex 17.87219238 -40.50420380 75.39644623
endloop
endfacet
facet normal 52.74162674 10.78301334 26.68075943
outer loop
vertex 15.69660664 -44.30285263 80.64877319
vertex 16.92897606 -42.96894455 77.67356873
vertex 10.12689590 -28.68149948 85.34542847
endloop
endfacet
facet normal 1.85166323 0.37856451 0.93672758
outer loop
vertex 10.12689590 -28.68149948 85.34542847
vertex 16.92897606 -42.96894455 77.67356873
vertex 10.17016315 -28.63466835 85.24097443
endloop
endfacet
facet normal -1.50323021 1.48590732 0.04352224
outer loop
vertex 10.12689590 -28.68149948 85.34542847
vertex 10.17016315 -28.63466835 85.24097443
vertex -0.37318230 -39.04056549 76.35175323
endloop
endfacet
facet normal -28.89987946 28.56665421 0.83693981
outer loop
vertex -0.37318230 -39.04056549 76.35175323
vertex 10.17016315 -28.63466835 85.24097443
vertex 0.45861781 -38.14022827 74.34360504
endloop
endfacet
facet normal -6.69868565 -35.84477997 -18.84540176
outer loop
vertex -0.37318230 -39.04056549 76.35175323
vertex 0.45861781 -38.14022827 74.34360504
vertex 15.69660664 -44.30285263 80.64877319
endloop
endfacet
facet normal -9.92455292 -53.10643005 -27.92070580
outer loop
vertex 15.69660664 -44.30285263 80.64877319
vertex 0.45861781 -38.14022827 74.34360504
vertex 16.92897606 -42.96894455 77.67356873
endloop
endfacet
facet normal 47.91819000 9.79686546 24.24070358
outer loop
vertex 14.57694244 -45.51477051 83.35188293
vertex 15.69660664 -44.30285263 80.64877319
vertex 9.18287754 -29.70329857 87.62448883
endloop
endfacet
facet normal 40.40104675 8.25997734 20.43796921
outer loop
vertex 9.18287754 -29.70329857 87.62448883
vertex 15.69660664 -44.30285263 80.64877319
vertex 10.12689590 -28.68149948 85.34542847
endloop
endfacet
facet normal -32.79867172 32.42050934 0.94982052
outer loop
vertex 9.18287754 -29.70329857 87.62448883
vertex 10.12689590 -28.68149948 85.34542847
vertex -0.43835604 -39.11111069 76.50909424
endloop
endfacet
facet normal -2.26436639 2.23824453 0.06559098
outer loop
vertex -0.43835604 -39.11111069 76.50909424
vertex 10.12689590 -28.68149948 85.34542847
vertex -0.37318230 -39.04056549 76.35175323
endloop
endfacet
facet normal -0.52483237 -2.80849218 -1.47660768
outer loop
vertex -0.43835604 -39.11111069 76.50909424
vertex -0.37318230 -39.04056549 76.35175323
vertex 14.57694244 -45.51477051 83.35188293
endloop
endfacet
facet normal -9.01690388 -48.24962234 -25.36725998
outer loop
vertex 14.57694244 -45.51477051 83.35188293
vertex -0.37318230 -39.04056549 76.35175323
vertex 15.69660664 -44.30285263 80.64877319
endloop
endfacet
facet normal 36.53322983 2.17025948 37.96523666
outer loop
vertex 12.57129860 -46.67603302 85.34825897
vertex 14.57694244 -45.51477051 83.35188293
vertex 7.35806942 -30.76527786 89.45532227
endloop
endfacet
facet normal 33.48559189 2.07894802 34.58128738
outer loop
vertex 7.35806942 -30.76527786 89.45532227
vertex 14.57694244 -45.51477051 83.35188293
vertex 9.18287754 -29.70329857 87.62448883
endloop
endfacet
facet normal -29.03165436 37.90553284 -6.94891644
outer loop
vertex 7.35806942 -30.76527786 89.45532227
vertex 9.18287754 -29.70329857 87.62448883
vertex -0.55148220 -39.17640686 76.61865234
endloop
endfacet
facet normal -1.75649476 2.31152606 -0.43603992
outer loop
vertex -0.55148220 -39.17640686 76.61865234
vertex 9.18287754 -29.70329857 87.62448883
vertex -0.43835604 -39.11111069 76.50909424
endloop
endfacet
facet normal -0.25163496 -2.42525387 -1.70527124
outer loop
vertex -0.55148220 -39.17640686 76.61865234
vertex -0.43835604 -39.11111069 76.50909424
vertex 12.57129860 -46.67603302 85.34825897
endloop
endfacet
facet normal -4.83783913 -43.70037842 -30.28016472
outer loop
vertex 12.57129860 -46.67603302 85.34825897
vertex -0.43835604 -39.11111069 76.50909424
vertex 14.57694244 -45.51477051 83.35188293
endloop
endfacet
facet normal 30.52388000 1.84338737 31.60365677
outer loop
vertex 10.90484333 -47.65222168 87.01471710
vertex 12.57129860 -46.67603302 85.34825897
vertex 7.78422594 -30.51564026 89.02916718
endloop
endfacet
facet normal -7.80572701 -0.47139251 -8.08189011
outer loop
vertex 7.78422594 -30.51564026 89.02916718
vertex 12.57129860 -46.67603302 85.34825897
vertex 7.35806942 -30.76527786 89.45532227
endloop
endfacet
facet normal 6.78895664 -8.84112167 1.60993433
outer loop
vertex 7.78422594 -30.51564026 89.02916718
vertex 7.35806942 -30.76527786 89.45532227
vertex -3.18866372 -40.72123337 79.25583649
endloop
endfacet
facet normal -42.01212311 54.71157074 -9.96278763
outer loop
vertex -3.18866372 -40.72123337 79.25583649
vertex 7.35806942 -30.76527786 89.45532227
vertex -0.55148220 -39.17640686 76.61865234
endloop
endfacet
facet normal -6.29216766 -57.62874603 -40.05029678
outer loop
vertex -3.18866372 -40.72123337 79.25583649
vertex -0.55148220 -39.17640686 76.61865234
vertex 10.90484333 -47.65222168 87.01471710
endloop
endfacet
facet normal -3.97607040 -36.41606140 -25.30810165
outer loop
vertex 10.90484333 -47.65222168 87.01471710
vertex -0.55148220 -39.17640686 76.61865234
vertex 12.57129860 -46.67603302 85.34825897
endloop
endfacet
facet normal 38.04181290 5.07046318 15.82318020
outer loop
vertex 9.98052979 -47.64668274 89.23516083
vertex 10.90484333 -47.65222168 87.01471710
vertex 8.03282833 -30.51616669 88.42839813
endloop
endfacet
facet normal -10.29406738 -1.37397325 -4.25855207
outer loop
vertex 8.03282833 -30.51616669 88.42839813
vertex 10.90484333 -47.65222168 87.01471710
vertex 7.78422594 -30.51564026 89.02916718
endloop
endfacet
facet normal 6.12994957 -9.04234982 2.54453897
outer loop
vertex 8.03282833 -30.51616669 88.42839813
vertex 7.78422594 -30.51564026 89.02916718
vertex -4.81609821 -40.72433472 83.10619354
endloop
endfacet
facet normal -39.32548523 58.15499878 -16.57490349
outer loop
vertex -4.81609821 -40.72433472 83.10619354
vertex 7.78422594 -30.51564026 89.02916718
vertex -3.18866372 -40.72123337 79.25583649
endloop
endfacet
facet normal -26.63450241 -66.94679260 -11.31155777
outer loop
vertex -4.81609821 -40.72433472 83.10619354
vertex -3.18866372 -40.72123337 79.25583649
vertex 9.98052979 -47.64668274 89.23516083
endloop
endfacet
facet normal -15.43284512 -38.46547699 -6.32834339
outer loop
vertex 9.98052979 -47.64668274 89.23516083
vertex -3.18866372 -40.72123337 79.25583649
vertex 10.90484333 -47.65222168 87.01471710
endloop
endfacet
facet normal 38.06047821 5.06985569 15.76517296
outer loop
vertex 9.06023216 -47.64668274 91.45695496
vertex 9.98052979 -47.64668274 89.23516083
vertex 8.28158569 -30.51616669 87.82784271
endloop
endfacet
facet normal -10.28782463 -1.37039077 -4.26134205
outer loop
vertex 8.28158569 -30.51616669 87.82784271
vertex 9.98052979 -47.64668274 89.23516083
vertex 8.03282833 -30.51616669 88.42839813
endloop
endfacet
facet normal 6.13057041 -9.04043388 2.53935695
outer loop
vertex 8.28158569 -30.51616669 87.82784271
vertex 8.03282833 -30.51616669 88.42839813
vertex -6.41826773 -40.72433472 86.97417450
endloop
endfacet
facet normal -39.48500061 58.22647476 -16.35521507
outer loop
vertex -6.41826773 -40.72433472 86.97417450
vertex 8.03282833 -30.51616669 88.42839813
vertex -4.81609821 -40.72433472 83.10619354
endloop
endfacet
facet normal -26.77551079 -67.05271912 -11.09077454
outer loop
vertex -6.41826773 -40.72433472 86.97417450
vertex -4.81609821 -40.72433472 83.10619354
vertex 9.06023216 -47.64668274 91.45695496
endloop
endfacet
facet normal -15.38003254 -38.51553345 -6.37062025
outer loop
vertex 9.06023216 -47.64668274 91.45695496
vertex -4.81609821 -40.72433472 83.10619354
vertex 9.98052979 -47.64668274 89.23516083
endloop
endfacet
facet normal 43.92407990 1.81981623 -0.81961036
outer loop
vertex 9.06402779 -46.67602921 93.81555176
vertex 9.06023216 -47.64668274 91.45695496
vertex 8.28185463 -30.76527786 87.22511292
endloop
endfacet
facet normal -11.22912502 -0.47028941 0.18936251
outer loop
vertex 8.28185463 -30.76527786 87.22511292
vertex 9.06023216 -47.64668274 91.45695496
vertex 8.28158569 -30.51616669 87.82784271
endloop
endfacet
facet normal 5.93754196 -8.84098625 3.65667224
outer loop
vertex 8.28185463 -30.76527786 87.22511292
vertex 8.28158569 -30.51616669 87.82784271
vertex -6.38794184 -39.17641068 90.70910645
endloop
endfacet
facet normal -36.80539703 54.87705994 -22.44468307
outer loop
vertex -6.38794184 -39.17641068 90.70910645
vertex 8.28158569 -30.51616669 87.82784271
vertex -6.41826773 -40.72433472 86.97417450
endloop
endfacet
facet normal -32.81910706 -57.61784744 24.14590645
outer loop
vertex -6.38794184 -39.17641068 90.70910645
vertex -6.41826773 -40.72433472 86.97417450
vertex 9.06402779 -46.67602921 93.81555176
endloop
endfacet
facet normal -20.67825317 -36.49052811 15.05053616
outer loop
vertex 9.06402779 -46.67602921 93.81555176
vertex -6.41826773 -40.72433472 86.97417450
vertex 9.06023216 -47.64668274 91.45695496
endloop
endfacet
facet normal 24.95601463 1.04717231 -0.43375427
outer loop
vertex 9.06402779 -46.12147903 95.15435028
vertex 9.06402779 -46.67602921 93.81555176
vertex 8.28185463 -28.98490524 91.52330780
endloop
endfacet
facet normal 80.12094879 3.36193275 -1.39255965
outer loop
vertex 8.28185463 -28.98490524 91.52330780
vertex 9.06402779 -46.67602921 93.81555176
vertex 8.28185463 -30.76527786 87.22511292
endloop
endfacet
facet normal -42.35549164 63.05364227 -26.11770248
outer loop
vertex 8.28185463 -28.98490524 91.52330780
vertex 8.28185463 -30.76527786 87.22511292
vertex -6.38794184 -39.19049835 90.67509460
endloop
endfacet
facet normal 0.33515948 -0.49894676 0.20666334
outer loop
vertex -6.38794184 -39.19049835 90.67509460
vertex 8.28185463 -30.76527786 87.22511292
vertex -6.38794184 -39.17641068 90.70910645
endloop
endfacet
facet normal 0.29883772 0.52554989 -0.21768235
outer loop
vertex -6.38794184 -39.19049835 90.67509460
vertex -6.38794184 -39.17641068 90.70910645
vertex 9.06402779 -46.12147903 95.15435028
endloop
endfacet
facet normal -11.76315784 -20.68707275 8.56889248
outer loop
vertex 9.06402779 -46.12147903 95.15435028
vertex -6.38794184 -39.17641068 90.70910645
vertex 9.06402779 -46.67602921 93.81555176
endloop
endfacet
facet normal 25.21797180 3.36225891 10.51130581
outer loop
vertex 8.44979763 -46.11594772 96.62619781
vertex 9.06402779 -46.12147903 95.15435028
vertex 6.50209522 -28.98543167 95.81943512
endloop
endfacet
facet normal 73.61899567 9.82269764 30.49938965
outer loop
vertex 6.50209522 -28.98543167 95.81943512
vertex 9.06402779 -46.12147903 95.15435028
vertex 8.28185463 -28.98490524 91.52330780
endloop
endfacet
facet normal -43.85839081 64.67287445 -18.16131973
outer loop
vertex 6.50209522 -28.98543167 95.81943512
vertex 8.28185463 -28.98490524 91.52330780
vertex -6.34683228 -39.19359970 90.49723053
endloop
endfacet
facet normal 1.81257784 -2.64409924 0.46504363
outer loop
vertex -6.34683228 -39.19359970 90.49723053
vertex 8.28185463 -28.98490524 91.52330780
vertex -6.38794184 -39.19049835 90.67509460
endloop
endfacet
facet normal 1.25024509 2.88374805 0.23868518
outer loop
vertex -6.34683228 -39.19359970 90.49723053
vertex -6.38794184 -39.19049835 90.67509460
vertex 8.44979763 -46.11594772 96.62619781
endloop
endfacet
facet normal -10.22612286 -25.49423790 -4.17174768
outer loop
vertex 8.44979763 -46.11594772 96.62619781
vertex -6.38794184 -39.19049835 90.67509460
vertex 9.06402779 -46.12147903 95.15435028
endloop
endfacet
facet normal 25.24552727 3.36283827 10.45703411
outer loop
vertex 7.83936453 -46.11594772 98.09991455
vertex 8.44979763 -46.11594772 96.62619781
vertex 4.72260904 -28.98543167 100.11549377
endloop
endfacet
facet normal 73.59370422 9.80306625 30.48351669
outer loop
vertex 4.72260904 -28.98543167 100.11549377
vertex 8.44979763 -46.11594772 96.62619781
vertex 6.50209522 -28.98543167 95.81943512
endloop
endfacet
facet normal -43.85488892 64.67053223 -18.16529465
outer loop
vertex 4.72260904 -28.98543167 100.11549377
vertex 6.50209522 -28.98543167 95.81943512
vertex -6.27539539 -39.19359970 90.32476807
endloop
endfacet
facet normal 1.76052582 -2.59615946 0.72923970
outer loop
vertex -6.27539539 -39.19359970 90.32476807
vertex 6.50209522 -28.98543167 95.81943512
vertex -6.34683228 -39.19359970 90.49723053
endloop
endfacet
facet normal 1.19384515 2.98969841 0.49451095
outer loop
vertex -6.27539539 -39.19359970 90.32476807
vertex -6.34683228 -39.19359970 90.49723053
vertex 7.83936453 -46.11594772 98.09991455
endloop
endfacet
facet normal -10.20158005 -25.54736710 -4.22563028
outer loop
vertex 7.83936453 -46.11594772 98.09991455
vertex -6.34683228 -39.19359970 90.49723053
vertex 8.44979763 -46.11594772 96.62619781
endloop
endfacet
facet normal 17.38414001 1.07072759 17.91824532
outer loop
vertex 6.89670563 -46.67602921 99.04794312
vertex 7.83936453 -46.11594772 98.09991455
vertex 1.68347192 -30.76527977 103.15501404
endloop
endfacet
facet normal 55.65597534 3.34782028 57.60934067
outer loop
vertex 1.68347192 -30.76527977 103.15501404
vertex 7.83936453 -46.11594772 98.09991455
vertex 4.72260904 -28.98543167 100.11549377
endloop
endfacet
facet normal -48.41312790 63.05365753 -11.48477459
outer loop
vertex 1.68347192 -30.76527977 103.15501404
vertex 4.72260904 -28.98543167 100.11549377
vertex -6.22607613 -39.17640686 90.31833649
endloop
endfacet
facet normal 0.23398504 -0.55360597 0.31437248
outer loop
vertex -6.22607613 -39.17640686 90.31833649
vertex 4.72260904 -28.98543167 100.11549377
vertex -6.27539539 -39.19359970 90.32476807
endloop
endfacet
facet normal -0.10185231 0.51493800 0.59549379
outer loop
vertex -6.22607613 -39.17640686 90.31833649
vertex -6.27539539 -39.19359970 90.32476807
vertex 6.89670563 -46.67602921 99.04794312
endloop
endfacet
facet normal -2.20786810 -20.71050644 -14.43082809
outer loop
vertex 6.89670563 -46.67602921 99.04794312
vertex -6.27539539 -39.19359970 90.32476807
vertex 7.83936453 -46.11594772 98.09991455
endloop
endfacet
facet normal 43.87955856 2.64993668 45.43187714
outer loop
vertex 4.50109005 -48.07934952 101.44355774
vertex 6.89670563 -46.67602921 99.04794312
vertex 1.52574146 -30.85767555 103.31274414
endloop
endfacet
facet normal 2.88908029 0.17447370 2.99129057
outer loop
vertex 1.52574146 -30.85767555 103.31274414
vertex 6.89670563 -46.67602921 99.04794312
vertex 1.68347192 -30.76527977 103.15501404
endloop
endfacet
facet normal -2.51274347 3.27230883 -0.59588277
outer loop
vertex 1.52574146 -30.85767555 103.31274414
vertex 1.68347192 -30.76527977 103.15501404
vertex -7.56685305 -39.96181488 91.65911102
endloop
endfacet
facet normal -21.35945511 27.81604195 -5.06522179
outer loop
vertex -7.56685305 -39.96181488 91.65911102
vertex 1.68347192 -30.76527977 103.15501404
vertex -6.22607613 -39.17640686 90.31833649
endloop
endfacet
facet normal -3.19900036 -29.29915237 -20.36206436
outer loop
vertex -7.56685305 -39.96181488 91.65911102
vertex -6.22607613 -39.17640686 90.31833649
vertex 4.50109005 -48.07934952 101.44355774
endloop
endfacet
facet normal -5.71577072 -52.34990692 -36.38167572
outer loop
vertex 4.50109005 -48.07934952 101.44355774
vertex -6.22607613 -39.17640686 90.31833649
vertex 6.89670563 -46.67602921 99.04794312
endloop
endfacet
facet normal 44.65571213 2.86826944 44.65571976
outer loop
vertex 1.90809524 -48.07935333 104.03655243
vertex 4.50109005 -48.07934952 101.44355774
vertex 1.35501206 -30.85767746 103.48347473
endloop
endfacet
facet normal 2.94026995 0.18885797 2.94025159
outer loop
vertex 1.35501206 -30.85767746 103.48347473
vertex 4.50109005 -48.07934952 101.44355774
vertex 1.52574146 -30.85767555 103.31274414
endloop
endfacet
facet normal -1.55437458 3.54200315 -1.55432415
outer loop
vertex 1.35501206 -30.85767746 103.48347473
vertex 1.52574146 -30.85767555 103.31274414
vertex -9.01809883 -39.96181488 93.11035919
endloop
endfacet
facet normal -13.21236515 30.10789871 -13.21234417
outer loop
vertex -9.01809883 -39.96181488 93.11035919
vertex 1.52574146 -30.85767555 103.31274414
vertex -7.56685305 -39.96181488 91.65911102
endloop
endfacet
facet normal -11.78056240 -31.71321106 -11.78054333
outer loop
vertex -9.01809883 -39.96181488 93.11035919
vertex -7.56685305 -39.96181488 91.65911102
vertex 1.90809524 -48.07935333 104.03655243
endloop
endfacet
facet normal -21.04868698 -56.66312790 -21.04877090
outer loop
vertex 1.90809524 -48.07935333 104.03655243
vertex -7.56685305 -39.96181488 91.65911102
vertex 4.50109005 -48.07934952 101.44355774
endloop
endfacet
facet normal 31.83892059 2.04504108 31.83895111
outer loop
vertex 0.05932331 -48.07935333 105.88532257
vertex 1.90809524 -48.07935333 104.03655243
vertex 1.86595154 -30.85767746 102.97253418
endloop
endfacet
facet normal -8.79925251 -0.56518191 -8.79923439
outer loop
vertex 1.86595154 -30.85767746 102.97253418
vertex 1.90809524 -48.07935333 104.03655243
vertex 1.35501206 -30.85767746 103.48347473
endloop
endfacet
facet normal 4.65167284 -10.60008049 4.65166330
outer loop
vertex 1.86595154 -30.85767746 102.97253418
vertex 1.35501206 -30.85767746 103.48347473
vertex -11.87610817 -39.96181488 95.96836853
endloop
endfacet
facet normal -26.01971054 59.29290771 -26.01971054
outer loop
vertex -11.87610817 -39.96181488 95.96836853
vertex 1.35501206 -30.85767746 103.48347473
vertex -9.01809883 -39.96181488 93.11035919
endloop
endfacet
facet normal -23.20000076 -62.45432281 -23.20000076
outer loop
vertex -11.87610817 -39.96181488 95.96836853
vertex -9.01809883 -39.96181488 93.11035919
vertex 0.05932331 -48.07935333 105.88532257
endloop
endfacet
facet normal -15.00746250 -40.40006256 -15.00747681
outer loop
vertex 0.05932331 -48.07935333 105.88532257
vertex -9.01809883 -39.96181488 93.11035919
vertex 1.90809524 -48.07935333 104.03655243
endloop
endfacet
facet normal 43.59728622 -1.42683029 18.60047913
outer loop
vertex -0.91130233 -47.03321838 108.24060059
vertex 0.05932331 -48.07935333 105.88532257
vertex 2.11571026 -31.13232422 102.36539459
endloop
endfacet
facet normal -11.25594902 0.36938125 -4.79744816
outer loop
vertex 2.11571026 -31.13232422 102.36539459
vertex 0.05932331 -48.07935333 105.88532257
vertex 1.86595154 -30.85767746 102.97253418
endloop
endfacet
facet normal 3.61596537 -10.07917023 6.04692936
outer loop
vertex 2.11571026 -31.13232422 102.36539459
vertex 1.86595154 -30.85767746 102.97253418
vertex -13.22532654 -38.47366333 99.30236053
endloop
endfacet
facet normal -19.92986107 55.26606750 -32.73373795
outer loop
vertex -13.22532654 -38.47366333 99.30236053
vertex 1.86595154 -30.85767746 102.97253418
vertex -11.87610817 -39.96181488 95.96836853
endloop
endfacet
facet normal -41.83894348 -53.11449814 6.77642536
outer loop
vertex -13.22532654 -38.47366333 99.30236053
vertex -11.87610817 -39.96181488 95.96836853
vertex -0.91130233 -47.03321838 108.24060059
endloop
endfacet
facet normal -29.49353027 -37.73690796 4.60698032
outer loop
vertex -0.91130233 -47.03321838 108.24060059
vertex -11.87610817 -39.96181488 95.96836853
vertex 0.05932331 -48.07935333 105.88532257
endloop
endfacet
facet normal 19.70332718 -0.63082838 8.44420528
outer loop
vertex -1.35162520 -46.55661774 109.30363464
vertex -0.91130233 -47.03321838 108.24060059
vertex 0.45018089 -29.32956886 106.38633728
endloop
endfacet
facet normal 74.52814484 -2.38611579 31.94036865
outer loop
vertex 0.45018089 -29.32956886 106.38633728
vertex -0.91130233 -47.03321838 108.24060059
vertex 2.11571026 -31.13232422 102.36539459
endloop
endfacet
facet normal -23.99720955 66.78700256 -39.88335419
outer loop
vertex 0.45018089 -29.32956886 106.38633728
vertex 2.11571026 -31.13232422 102.36539459
vertex -13.26538181 -38.43030930 99.39906311
endloop
endfacet
facet normal -0.57713151 1.60620844 -0.95915520
outer loop
vertex -13.26538181 -38.43030930 99.39906311
vertex 2.11571026 -31.13232422 102.36539459
vertex -13.22532654 -38.47366333 99.30236053
endloop
endfacet
facet normal -1.21523809 -1.54882121 0.19100788
outer loop
vertex -13.26538181 -38.43030930 99.39906311
vertex -13.22532654 -38.47366333 99.30236053
vertex -1.35162520 -46.55661774 109.30363464
endloop
endfacet
facet normal -13.35906982 -17.02593803 2.09990406
outer loop
vertex -1.35162520 -46.55661774 109.30363464
vertex -13.22532654 -38.47366333 99.30236053
vertex -0.91130233 -47.03321838 108.24060059
endloop
endfacet
facet normal 16.80526161 1.08320689 16.92317390
outer loop
vertex -2.33454871 -46.54862213 110.27919769
vertex -1.35162520 -46.55661774 109.30363464
vertex -2.88763070 -29.32693863 109.72611237
endloop
endfacet
facet normal 57.54214478 3.71976185 57.50538254
outer loop
vertex -2.88763070 -29.32693863 109.72611237
vertex -1.35162520 -46.55661774 109.30363464
vertex 0.45018089 -29.32956886 106.38633728
endloop
endfacet
facet normal -30.37849998 69.26731873 -30.41519165
outer loop
vertex -2.88763070 -29.32693863 109.72611237
vertex 0.45018089 -29.32956886 106.38633728
vertex -13.26073742 -38.43107986 99.35300446
endloop
endfacet
facet normal 0.41378367 -0.66417199 0.05283621
outer loop
vertex -13.26073742 -38.43107986 99.35300446
vertex 0.45018089 -29.32956886 106.38633728
vertex -13.26538181 -38.43030930 99.39906311
endloop
endfacet
facet normal 0.38230246 0.55399108 0.02928168
outer loop
vertex -13.26073742 -38.43107986 99.35300446
vertex -13.26538181 -38.43030930 99.39906311
vertex -2.33454871 -46.54862213 110.27919769
endloop
endfacet
facet normal -8.00691986 -21.35805511 -7.89228201
outer loop
vertex -2.33454871 -46.54862213 110.27919769
vertex -13.26538181 -38.43030930 99.39906311
vertex -1.35162520 -46.55661774 109.30363464
endloop
endfacet
facet normal 31.83893394 2.04504442 31.83895493
outer loop
vertex -4.18332005 -46.54862213 112.12796783
vertex -2.33454871 -46.54862213 110.27919769
vertex -2.37669444 -29.32693863 109.21517944
endloop
endfacet
facet normal -8.79912472 -0.56517917 -8.79918289
outer loop
vertex -2.37669444 -29.32693863 109.21517944
vertex -2.33454871 -46.54862213 110.27919769
vertex -2.88763070 -29.32693863 109.72611237
endloop
endfacet
facet normal 4.65160561 -10.59994984 4.65163565
outer loop
vertex -2.37669444 -29.32693863 109.21517944
vertex -2.88763070 -29.32693863 109.72611237
vertex -16.11874771 -38.43107986 102.21101379
endloop
endfacet
facet normal -26.01972008 59.29288483 -26.01972961
outer loop
vertex -16.11874771 -38.43107986 102.21101379
vertex -2.88763070 -29.32693863 109.72611237
vertex -13.26073742 -38.43107986 99.35300446
endloop
endfacet
facet normal -23.20001221 -62.45432281 -23.20001984
outer loop
vertex -16.11874771 -38.43107986 102.21101379
vertex -13.26073742 -38.43107986 99.35300446
vertex -4.18332005 -46.54862213 112.12796783
endloop
endfacet
facet normal -15.00747013 -40.40004730 -15.00747967
outer loop
vertex -4.18332005 -46.54862213 112.12796783
vertex -13.26073742 -38.43107986 99.35300446
vertex -2.33454871 -46.54862213 110.27919769
endloop
endfacet
facet normal 43.59729385 -1.42682743 18.60046768
outer loop
vertex -5.15394497 -45.50248718 114.48324585
vertex -4.18332005 -46.54862213 112.12796783
vertex -2.12693548 -29.60158920 108.60803986
endloop
endfacet
facet normal -11.25596428 0.36937898 -4.79746056
outer loop
vertex -2.12693548 -29.60158920 108.60803986
vertex -4.18332005 -46.54862213 112.12796783
vertex -2.37669444 -29.32693863 109.21517944
endloop
endfacet
facet normal 3.61595368 -10.07916832 6.04698849
outer loop
vertex -2.12693548 -29.60158920 108.60803986
vertex -2.37669444 -29.32693863 109.21517944
vertex -17.46796799 -36.94292831 105.54500580
endloop
endfacet
facet normal -19.92987442 55.26605988 -32.73374939
outer loop
vertex -17.46796799 -36.94292831 105.54500580
vertex -2.37669444 -29.32693863 109.21517944
vertex -16.11874771 -38.43107986 102.21101379
endloop
endfacet
facet normal -41.83895493 -53.11450958 6.77640152
outer loop
vertex -17.46796799 -36.94292831 105.54500580
vertex -16.11874771 -38.43107986 102.21101379
vertex -5.15394497 -45.50248718 114.48324585
endloop
endfacet
facet normal -29.49354172 -37.73689270 4.60697889
outer loop
vertex -5.15394497 -45.50248718 114.48324585
vertex -16.11874771 -38.43107986 102.21101379
vertex -4.18332005 -46.54862213 112.12796783
endloop
endfacet
facet normal 30.96568871 -33.51703262 -74.75779724
outer loop
vertex -8.31344223 -37.40242767 109.54294586
vertex -2.12693548 -29.60158920 108.60803986
vertex -5.15394497 -45.50248718 114.48324585
endloop
endfacet
facet normal 30.75769615 -33.29190445 -74.25567627
outer loop
vertex -8.31344223 -37.40242767 109.54294586
vertex -17.46796799 -36.94292831 105.54500580
vertex -2.12693548 -29.60158920 108.60803986
endloop
endfacet
facet normal 30.11348724 -32.59462357 -72.70041656
outer loop
vertex -8.31344223 -37.40242767 109.54294586
vertex -5.15394497 -45.50248718 114.48324585
vertex -17.46796799 -36.94292831 105.54500580
endloop
endfacet
endsolid