solid (null).stl
facet normal 0.00000000 -0.00000000 86.60253906
outer loop
vertex 0.00000000 0.00000000 0.00000000
vertex 10.00000000 0.00000000 0.00000000
vertex -5.00000048 8.66025352 0.00000000
endloop
endfacet
facet normal 0.00000000 0.00000000 86.60253906
outer loop
vertex 0.00000000 0.00000000 0.00000000
vertex -5.00000048 8.66025352 0.00000000
vertex -4.99999905 -8.66025448 0.00000000
endloop
endfacet
facet normal -0.00000000 0.00000000 86.60254669
outer loop
vertex 0.00000000 0.00000000 0.00000000
vertex -4.99999905 -8.66025448 0.00000000
vertex 10.00000000 0.00000000 0.00000000
endloop
endfacet
facet normal 17.32050705 30.00000000 0.00000000
outer loop
vertex 10.00000000 0.00000000 2.00000000
vertex 10.00000000 0.00000000 0.00000000
vertex -5.00000048 8.66025352 2.00000000
endloop
endfacet
facet normal 17.32050705 30.00000000 0.00000000
outer loop
vertex -5.00000048 8.66025352 2.00000000
vertex 10.00000000 0.00000000 0.00000000
vertex -5.00000048 8.66025352 0.00000000
endloop
endfacet
facet normal -34.64101410 -0.00000286 -0.00000000
outer loop
vertex -5.00000048 8.66025352 2.00000000
vertex -5.00000048 8.66025352 0.00000000
vertex -4.99999905 -8.66025448 2.00000000
endloop
endfacet
facet normal -34.64101410 -0.00000286 -0.00000000
outer loop
vertex -4.99999905 -8.66025448 2.00000000
vertex -5.00000048 8.66025352 0.00000000
vertex -4.99999905 -8.66025448 0.00000000
endloop
endfacet
facet normal 17.32050896 -29.99999809 0.00000000
outer loop
vertex -4.99999905 -8.66025448 2.00000000
vertex -4.99999905 -8.66025448 0.00000000
vertex 10.00000000 0.00000000 2.00000000
endloop
endfacet
facet normal 17.32050896 -29.99999809 0.00000000
outer loop
vertex 10.00000000 0.00000000 2.00000000
vertex -4.99999905 -8.66025448 0.00000000
vertex 10.00000000 0.00000000 0.00000000
endloop
endfacet
facet normal 34.54681778 59.83684921 0.00000000
outer loop
vertex 10.00000000 0.00000000 5.98912334
vertex 10.00000000 0.00000000 2.00000000
vertex -5.00000048 8.66025352 4.76181793
endloop
endfacet
facet normal 23.91804314 41.42726898 0.00000000
outer loop
vertex -5.00000048 8.66025352 4.76181793
vertex 10.00000000 0.00000000 2.00000000
vertex -5.00000048 8.66025352 2.00000000
endloop
endfacet
facet normal -47.83608627 -0.00000395 -0.00000000
outer loop
vertex -5.00000048 8.66025352 4.76181793
vertex -5.00000048 8.66025352 2.00000000
vertex -4.99999905 -8.66025448 1.24905825
endloop
endfacet
facet normal 13.00669193 0.00000107 -0.00000000
outer loop
vertex -4.99999905 -8.66025448 1.24905825
vertex -5.00000048 8.66025352 2.00000000
vertex -4.99999905 -8.66025448 2.00000000
endloop
endfacet
facet normal -6.50334692 11.26412582 0.00000000
outer loop
vertex -4.99999905 -8.66025448 1.24905825
vertex -4.99999905 -8.66025448 2.00000000
vertex 10.00000000 0.00000000 5.98912334
endloop
endfacet
facet normal 34.54682159 -59.83684540 0.00000000
outer loop
vertex 10.00000000 0.00000000 5.98912334
vertex -4.99999905 -8.66025448 2.00000000
vertex 10.00000000 0.00000000 2.00000000
endloop
endfacet
facet normal 26.51861763 50.61960983 33.97267914
outer loop
vertex 8.61619282 -1.46659970 9.25455189
vertex 10.00000000 0.00000000 5.98912334
vertex -6.02986145 7.56123304 7.23550987
endloop
endfacet
facet normal 20.07396507 38.36933517 25.40416336
outer loop
vertex -6.02986145 7.56123304 7.23550987
vertex 10.00000000 0.00000000 5.98912334
vertex -5.00000048 8.66025352 4.76181793
endloop
endfacet
facet normal -46.68845749 3.61378741 -17.83204651
outer loop
vertex -6.02986145 7.56123304 7.23550987
vertex -5.00000048 8.66025352 4.76181793
vertex -4.73866034 -8.37586021 0.62508249
endloop
endfacet
facet normal 11.80658627 -0.91801924 4.52651978
outer loop
vertex -4.73866034 -8.37586021 0.62508249
vertex -5.00000048 8.66025352 4.76181793
vertex -4.99999905 -8.66025448 1.24905825
endloop
endfacet
facet normal -6.76538277 10.58831787 1.99238622
outer loop
vertex -4.73866034 -8.37586021 0.62508249
vertex -4.99999905 -8.66025448 1.24905825
vertex 8.61619282 -1.46659970 9.25455189
endloop
endfacet
facet normal 35.23122025 -55.54076004 -10.01487160
outer loop
vertex 8.61619282 -1.46659970 9.25455189
vertex -4.99999905 -8.66025448 1.24905825
vertex 10.00000000 0.00000000 5.98912334
endloop
endfacet
facet normal 1.16191816 2.21471119 1.47422540
outer loop
vertex 8.55694103 -1.53073370 9.39759922
vertex 8.61619282 -1.46659970 9.25455189
vertex -6.41978979 7.13917732 8.17688084
endloop
endfacet
facet normal 7.64639139 14.57465172 9.70165825
outer loop
vertex -6.41978979 7.13917732 8.17688084
vertex 8.61619282 -1.46659970 9.25455189
vertex -6.02986145 7.56123304 7.23550987
endloop
endfacet
facet normal -17.79268646 1.36209452 -6.75928211
outer loop
vertex -6.41978979 7.13917732 8.17688084
vertex -6.02986145 7.56123304 7.23550987
vertex -6.41186714 -10.18692684 4.66456175
endloop
endfacet
facet normal -76.34947968 5.84483194 -29.00450325
outer loop
vertex -6.41186714 -10.18692684 4.66456175
vertex -6.02986145 7.56123304 7.23550987
vertex -4.73866034 -8.37586021 0.62508249
endloop
endfacet
facet normal 43.53835678 -68.38554382 -12.62590790
outer loop
vertex -6.41186714 -10.18692684 4.66456175
vertex -4.73866034 -8.37586021 0.62508249
vertex 8.55694103 -1.53073370 9.39759922
endloop
endfacet
facet normal 1.54179370 -2.42168760 -0.44711414
outer loop
vertex 8.55694103 -1.53073370 9.39759922
vertex -4.73866034 -8.37586021 0.62508249
vertex 8.61619282 -1.46659970 9.25455189
endloop
endfacet
facet normal 0.14388113 0.24920942 -0.24981186
outer loop
vertex 8.58578682 -1.53073370 9.41421318
vertex 8.55694103 -1.53073370 9.39759922
vertex -6.41421413 7.12952042 9.41421318
endloop
endfacet
facet normal 10.71577358 18.52438736 0.09628844
outer loop
vertex -6.41421413 7.12952042 9.41421318
vertex 8.55694103 -1.53073370 9.39759922
vertex -6.41978979 7.13917732 8.17688084
endloop
endfacet
facet normal -21.43122673 -0.00000236 0.09657320
outer loop
vertex -6.41421413 7.12952042 9.41421318
vertex -6.41978979 7.13917732 8.17688084
vertex -6.41421223 -10.19098854 9.41421318
endloop
endfacet
facet normal -82.30722046 -0.02939313 -0.04066337
outer loop
vertex -6.41421223 -10.19098854 9.41421318
vertex -6.41978979 7.13917732 8.17688084
vertex -6.41186714 -10.18692684 4.66456175
endloop
endfacet
facet normal 41.13319016 -71.24476624 -0.04061645
outer loop
vertex -6.41421223 -10.19098854 9.41421318
vertex -6.41186714 -10.18692684 4.66456175
vertex 8.58578682 -1.53073370 9.41421318
endloop
endfacet
facet normal 0.14381364 -0.11216299 -0.24969469
outer loop
vertex 8.58578682 -1.53073370 9.41421318
vertex -6.41186714 -10.18692684 4.66456175
vertex 8.55694103 -1.53073370 9.39759922
endloop
endfacet
facet normal 34.54682159 59.83685303 0.00000000
outer loop
vertex 8.58578682 -1.53073370 13.40333652
vertex 8.58578682 -1.53073370 9.41421318
vertex -6.41421413 7.12952042 12.17603111
endloop
endfacet
facet normal 23.91804695 41.42727280 0.00000000
outer loop
vertex -6.41421413 7.12952042 12.17603111
vertex 8.58578682 -1.53073370 9.41421318
vertex -6.41421413 7.12952042 9.41421318
endloop
endfacet
facet normal -47.83609390 -0.00000527 -0.00000000
outer loop
vertex -6.41421413 7.12952042 12.17603111
vertex -6.41421413 7.12952042 9.41421318
vertex -6.41421223 -10.19098854 8.66327095
endloop
endfacet
facet normal 13.00670147 0.00000143 -0.00000000
outer loop
vertex -6.41421223 -10.19098854 8.66327095
vertex -6.41421413 7.12952042 9.41421318
vertex -6.41421223 -10.19098854 9.41421318
endloop
endfacet
facet normal -6.50335073 11.26413250 0.00000000
outer loop
vertex -6.41421223 -10.19098854 8.66327095
vertex -6.41421223 -10.19098854 9.41421318
vertex 8.58578682 -1.53073370 13.40333652
endloop
endfacet
facet normal 34.54682159 -59.83684540 0.00000000
outer loop
vertex 8.58578682 -1.53073370 13.40333652
vertex -6.41421223 -10.19098854 9.41421318
vertex 8.58578682 -1.53073370 9.41421318
endloop
endfacet
facet normal 26.51861000 50.61959076 33.97267914
outer loop
vertex 7.20197916 -2.99733329 16.66876411
vertex 8.58578682 -1.53073370 13.40333652
vertex -7.44407415 6.03049946 14.64972305
endloop
endfacet
facet normal 20.07396507 38.36933517 25.40416527
outer loop
vertex -7.44407415 6.03049946 14.64972305
vertex 8.58578682 -1.53073370 13.40333652
vertex -6.41421413 7.12952042 12.17603111
endloop
endfacet
facet normal -46.68846130 3.61378288 -17.83203125
outer loop
vertex -7.44407415 6.03049946 14.64972305
vertex -6.41421413 7.12952042 12.17603111
vertex -6.15287352 -9.90659428 8.03929520
endloop
endfacet
facet normal 11.80658627 -0.91801906 4.52651978
outer loop
vertex -6.15287352 -9.90659428 8.03929520
vertex -6.41421413 7.12952042 12.17603111
vertex -6.41421223 -10.19098854 8.66327095
endloop
endfacet
facet normal -6.76538277 10.58831787 1.99238622
outer loop
vertex -6.15287352 -9.90659428 8.03929520
vertex -6.41421223 -10.19098854 8.66327095
vertex 7.20197916 -2.99733329 16.66876411
endloop
endfacet
facet normal 35.23121262 -55.54075241 -10.01486683
outer loop
vertex 7.20197916 -2.99733329 16.66876411
vertex -6.41421223 -10.19098854 8.66327095
vertex 8.58578682 -1.53073370 13.40333652
endloop
endfacet
facet normal 14.91290474 28.42522049 18.92133331
outer loop
vertex 6.44149399 -3.82047653 18.50473785
vertex 7.20197916 -2.99733329 16.66876411
vertex -7.51735640 5.95117950 14.82664204
endloop
endfacet
facet normal 1.43704486 2.73912454 1.82330406
outer loop
vertex -7.51735640 5.95117950 14.82664204
vertex 7.20197916 -2.99733329 16.66876411
vertex -7.44407415 6.03049946 14.64972305
endloop
endfacet
facet normal -3.34391403 0.25598907 -1.27032423
outer loop
vertex -7.51735640 5.95117950 14.82664204
vertex -7.44407415 6.03049946 14.64972305
vertex -7.43929482 -11.29900646 11.14499092
endloop
endfacet
facet normal -58.70020294 4.49371910 -22.29969978
outer loop
vertex -7.43929482 -11.29900646 11.14499092
vertex -7.44407415 6.03049946 14.64972305
vertex -6.15287352 -9.90659428 8.03929520
endloop
endfacet
facet normal 33.47383881 -52.57723999 -9.70723915
outer loop
vertex -7.43929482 -11.29900646 11.14499092
vertex -6.15287352 -9.90659428 8.03929520
vertex 6.44149399 -3.82047653 18.50473785
endloop
endfacet
facet normal 19.78850937 -31.08174324 -5.73856688
outer loop
vertex 6.44149399 -3.82047653 18.50473785
vertex -6.15287352 -9.90659428 8.03929520
vertex 7.20197916 -2.99733329 16.66876411
endloop
endfacet
facet normal 19.41866112 30.76723480 8.04347038
outer loop
vertex 5.61835098 -3.82047653 20.49198151
vertex 6.44149399 -3.82047653 18.50473785
vertex -7.59667587 5.95117903 15.01813698
endloop
endfacet
facet normal 1.87122107 2.96479392 0.77508932
outer loop
vertex -7.59667587 5.95117903 15.01813698
vertex 6.44149399 -3.82047653 18.50473785
vertex -7.51735640 5.95117950 14.82664204
endloop
endfacet
facet normal -3.30332351 0.27707919 -1.36827505
outer loop
vertex -7.59667587 5.95117903 15.01813698
vertex -7.51735640 5.95117950 14.82664204
vertex -8.83170605 -11.29900551 14.50657082
endloop
endfacet
facet normal -57.98787689 4.86396217 -24.01935387
outer loop
vertex -8.83170605 -11.29900551 14.50657082
vertex -7.51735640 5.95117950 14.82664204
vertex -7.43929482 -11.29900646 11.14499092
endloop
endfacet
facet normal 25.13966751 -56.90917206 10.41320133
outer loop
vertex -8.83170605 -11.29900551 14.50657082
vertex -7.43929482 -11.29900646 11.14499092
vertex 5.61835098 -3.82047653 20.49198151
endloop
endfacet
facet normal 14.86166096 -33.64263153 6.15589952
outer loop
vertex 5.61835098 -3.82047653 20.49198151
vertex -7.43929482 -11.29900646 11.14499092
vertex 6.44149399 -3.82047653 18.50473785
endloop
endfacet
facet normal 1.53968143 2.43949413 0.63775355
outer loop
vertex 5.55308533 -3.82047653 20.64954758
vertex 5.61835098 -3.82047653 20.49198151
vertex -7.99236202 5.95117903 15.97340775
endloop
endfacet
facet normal 9.33457756 14.78985310 3.86650896
outer loop
vertex -7.99236202 5.95117903 15.97340775
vertex 5.61835098 -3.82047653 20.49198151
vertex -7.59667587 5.95117903 15.01813698
endloop
endfacet
facet normal -16.47859764 1.38220716 -6.82565928
outer loop
vertex -7.99236202 5.95117903 15.97340775
vertex -7.59667587 5.95117903 15.01813698
vertex -10.66796589 -11.29900551 18.93969536
endloop
endfacet
facet normal -76.47222137 6.41441059 -31.67582130
outer loop
vertex -10.66796589 -11.29900551 18.93969536
vertex -7.59667587 5.95117903 15.01813698
vertex -8.83170605 -11.29900551 14.50657082
endloop
endfacet
facet normal 33.15325165 -75.04966736 13.73252201
outer loop
vertex -10.66796589 -11.29900551 18.93969536
vertex -8.83170605 -11.29900551 14.50657082
vertex 5.55308533 -3.82047653 20.64954758
endloop
endfacet
facet normal 1.17836237 -2.66748047 0.48809108
outer loop
vertex 5.55308533 -3.82047653 20.64954758
vertex -8.83170605 -11.29900551 14.50657082
vertex 5.61835098 -3.82047653 20.49198151
endloop
endfacet
facet normal 3.53619099 4.17168236 -1.47207832
outer loop
vertex 5.52609348 -3.69165850 20.94976234
vertex 5.55308533 -3.82047653 20.64954758
vertex -7.99710512 6.30964565 16.80708504
endloop
endfacet
facet normal 9.82264709 11.31471062 -4.80924273
outer loop
vertex -7.99710512 6.30964565 16.80708504
vertex 5.55308533 -3.82047653 20.64954758
vertex -7.99236202 5.95117903 15.97340775
endloop
endfacet
facet normal -15.49641418 2.19123554 -1.03035772
outer loop
vertex -7.99710512 6.30964565 16.80708504
vertex -7.99236202 5.95117903 15.97340775
vertex -10.66268539 -9.46826077 23.34250832
endloop
endfacet
facet normal -81.37985229 11.79584694 -4.80725813
outer loop
vertex -10.66268539 -9.46826077 23.34250832
vertex -7.99236202 5.95117903 15.97340775
vertex -10.66796589 -11.29900551 18.93969536
endloop
endfacet
facet normal 29.81380653 -71.28879547 29.60701561
outer loop
vertex -10.66268539 -9.46826077 23.34250832
vertex -10.66796589 -11.29900551 18.93969536
vertex 5.52609348 -3.69165850 20.94976234
endloop
endfacet
facet normal 2.02490497 -4.91595125 2.29142332
outer loop
vertex 5.52609348 -3.69165850 20.94976234
vertex -10.66796589 -11.29900551 18.93969536
vertex 5.55308533 -3.82047653 20.64954758
endloop
endfacet
facet normal 39.71582031 45.83708572 -18.98634338
outer loop
vertex 5.52609348 -2.28767538 24.33927727
vertex 5.52609348 -3.69165850 20.94976234
vertex -7.99710512 7.49368000 19.66559601
endloop
endfacet
facet normal 33.49391174 38.65621185 -16.01193237
outer loop
vertex -7.99710512 7.49368000 19.66559601
vertex 5.52609348 -3.69165850 20.94976234
vertex -7.99710512 6.30964565 16.80708504
endloop
endfacet
facet normal -52.83948517 7.61959028 -3.15613866
outer loop
vertex -7.99710512 7.49368000 19.66559601
vertex -7.99710512 6.30964565 16.80708504
vertex -10.66268539 -9.76137638 22.63486481
endloop
endfacet
facet normal 13.08076763 -1.88628054 0.78132319
outer loop
vertex -10.66268539 -9.76137638 22.63486481
vertex -7.99710512 6.30964565 16.80708504
vertex -10.66268539 -9.46826077 23.34250832
endloop
endfacet
facet normal -4.78912592 11.45588398 -4.74518347
outer loop
vertex -10.66268539 -9.76137638 22.63486481
vertex -10.66268539 -9.46826077 23.34250832
vertex 5.52609348 -2.28767538 24.33927727
endloop
endfacet
facet normal 22.93925476 -54.87210464 22.72877121
outer loop
vertex 5.52609348 -2.28767538 24.33927727
vertex -10.66268539 -9.46826077 23.34250832
vertex 5.52609348 -3.69165850 20.94976234
endloop
endfacet
facet normal 34.61690140 54.70462418 14.08359146
outer loop
vertex 4.08761883 -2.28974223 27.88301849
vertex 5.52609348 -2.28767538 24.33927727
vertex -9.12740898 7.48191261 22.40917397
endloop
endfacet
facet normal 26.78091431 42.38462830 11.21503735
outer loop
vertex -9.12740898 7.48191261 22.40917397
vertex 5.52609348 -2.28767538 24.33927727
vertex -7.99710512 7.49368000 19.66559601
endloop
endfacet
facet normal -47.33324814 3.96662927 -19.48341751
outer loop
vertex -9.12740898 7.48191261 22.40917397
vertex -7.99710512 7.49368000 19.66559601
vertex -10.36244011 -9.76827240 21.89760780
endloop
endfacet
facet normal 12.74188709 -1.07370877 5.19913054
outer loop
vertex -10.36244011 -9.76827240 21.89760780
vertex -7.99710512 7.49368000 19.66559601
vertex -10.66268539 -9.76137638 22.63486481
endloop
endfacet
facet normal -5.47232294 12.45049858 -2.34504128
outer loop
vertex -10.36244011 -9.76827240 21.89760780
vertex -10.66268539 -9.76137638 22.63486481
vertex 4.08761883 -2.28974223 27.88301849
endloop
endfacet
facet normal 26.48838425 -59.82059479 10.71726894
outer loop
vertex 4.08761883 -2.28974223 27.88301849
vertex -10.66268539 -9.76137638 22.63486481
vertex 5.52609348 -2.28767538 24.33927727
endloop
endfacet
facet normal 1.53968132 2.43949437 0.63775349
outer loop
vertex 4.02235317 -2.28974223 28.04058456
vertex 4.08761883 -2.28974223 27.88301849
vertex -9.52309513 7.48191261 23.36444473
endloop
endfacet
facet normal 9.33457661 14.78985405 3.86650848
outer loop
vertex -9.52309513 7.48191261 23.36444473
vertex 4.08761883 -2.28974223 27.88301849
vertex -9.12740898 7.48191261 22.40917397
endloop
endfacet
facet normal -16.47859764 1.38220811 -6.82565928
outer loop
vertex -9.52309513 7.48191261 23.36444473
vertex -9.12740898 7.48191261 22.40917397
vertex -12.19869995 -9.76827240 26.33073235
endloop
endfacet
facet normal -76.47222137 6.41441536 -31.67582130
outer loop
vertex -12.19869995 -9.76827240 26.33073235
vertex -9.12740898 7.48191261 22.40917397
vertex -10.36244011 -9.76827240 21.89760780
endloop
endfacet
facet normal 33.15325546 -75.04968262 13.73252392
outer loop
vertex -12.19869995 -9.76827240 26.33073235
vertex -10.36244011 -9.76827240 21.89760780
vertex 4.02235317 -2.28974223 28.04058456
endloop
endfacet
facet normal 1.17836261 -2.66748071 0.48809117
outer loop
vertex 4.02235317 -2.28974223 28.04058456
vertex -10.36244011 -9.76827240 21.89760780
vertex 4.08761883 -2.28974223 27.88301849
endloop
endfacet
facet normal 3.53618932 4.17168474 -1.47207034
outer loop
vertex 3.99536085 -2.16092443 28.34079933
vertex 4.02235317 -2.28974223 28.04058456
vertex -9.52783775 7.84037828 24.19812202
endloop
endfacet
facet normal 9.82264233 11.31471062 -4.80923510
outer loop
vertex -9.52783775 7.84037828 24.19812202
vertex 4.02235317 -2.28974223 28.04058456
vertex -9.52309513 7.48191261 23.36444473
endloop
endfacet
facet normal -15.49640751 2.19123912 -1.03034782
outer loop
vertex -9.52783775 7.84037828 24.19812202
vertex -9.52309513 7.48191261 23.36444473
vertex -12.19341850 -7.93752718 30.73354721
endloop
endfacet
facet normal -81.37989044 11.79585934 -4.80724478
outer loop
vertex -12.19341850 -7.93752718 30.73354721
vertex -9.52309513 7.48191261 23.36444473
vertex -12.19869995 -9.76827240 26.33073235
endloop
endfacet
facet normal 29.81382561 -71.28883362 29.60702324
outer loop
vertex -12.19341850 -7.93752718 30.73354721
vertex -12.19869995 -9.76827240 26.33073235
vertex 3.99536085 -2.16092443 28.34079933
endloop
endfacet
facet normal 2.02490592 -4.91595268 2.29142332
outer loop
vertex 3.99536085 -2.16092443 28.34079933
vertex -12.19869995 -9.76827240 26.33073235
vertex 4.02235317 -2.28974223 28.04058456
endloop
endfacet
facet normal 18.39803505 21.23366165 -8.79527855
outer loop
vertex 3.99536085 -1.51054001 29.91096497
vertex 3.99536085 -2.16092443 28.34079933
vertex -9.52783775 9.31479263 27.75767136
endloop
endfacet
facet normal 41.70815277 48.13649368 -19.93879890
outer loop
vertex -9.52783775 9.31479263 27.75767136
vertex 3.99536085 -2.16092443 28.34079933
vertex -9.52783775 7.84037828 24.19812202
endloop
endfacet
facet normal -65.79815674 9.48826599 -3.93017054
outer loop
vertex -9.52783775 9.31479263 27.75767136
vertex -9.52783775 7.84037828 24.19812202
vertex -12.19341850 -7.76309061 31.15467453
endloop
endfacet
facet normal -7.78452396 1.12254882 -0.46497476
outer loop
vertex -12.19341850 -7.76309061 31.15467453
vertex -9.52783775 7.84037828 24.19812202
vertex -12.19341850 -7.93752718 30.73354721
endloop
endfacet
facet normal 2.85006833 -6.81753731 2.82391524
outer loop
vertex -12.19341850 -7.76309061 31.15467453
vertex -12.19341850 -7.93752718 30.73354721
vertex 3.99536085 -1.51054001 29.91096497
endloop
endfacet
facet normal 10.62642956 -25.41906548 10.52893066
outer loop
vertex 3.99536085 -1.51054001 29.91096497
vertex -12.19341850 -7.93752718 30.73354721
vertex 3.99536085 -2.16092443 28.34079933
endloop
endfacet
facet normal 18.39803505 22.98315430 0.00000000
outer loop
vertex 3.99536085 -1.51054001 31.61050034
vertex 3.99536085 -1.51054001 29.91096497
vertex -9.52783775 9.31479263 31.61050034
endloop
endfacet
facet normal 41.70815659 52.10257339 0.00000000
outer loop
vertex -9.52783775 9.31479263 31.61050034
vertex 3.99536085 -1.51054001 29.91096497
vertex -9.52783775 9.31479263 27.75767136
endloop
endfacet
facet normal -65.79816437 10.27002716 0.00000000
outer loop
vertex -9.52783775 9.31479263 31.61050034
vertex -9.52783775 9.31479263 27.75767136
vertex -12.19341850 -7.76309061 31.61050034
endloop
endfacet
facet normal -7.78453970 1.21504045 0.00000000
outer loop
vertex -12.19341850 -7.76309061 31.61050034
vertex -9.52783775 9.31479263 27.75767136
vertex -12.19341850 -7.76309061 31.15467453
endloop
endfacet
facet normal 2.85007381 -7.37926340 0.00000000
outer loop
vertex -12.19341850 -7.76309061 31.61050034
vertex -12.19341850 -7.76309061 31.15467453
vertex 3.99536085 -1.51054001 31.61050034
endloop
endfacet
facet normal 10.62643051 -27.51340485 0.00000000
outer loop
vertex 3.99536085 -1.51054001 31.61050034
vertex -12.19341850 -7.76309061 31.15467453
vertex 3.99536085 -1.51054001 29.91096497
endloop
endfacet
facet normal 3.68117213 4.59858608 0.00000000
outer loop
vertex 3.99536085 -1.51054001 31.95055199
vertex 3.99536085 -1.51054001 31.61050034
vertex -9.52783775 9.31479263 32.44500732
endloop
endfacet
facet normal 9.03381538 11.28520393 0.00000000
outer loop
vertex -9.52783775 9.31479263 32.44500732
vertex 3.99536085 -1.51054001 31.61050034
vertex -9.52783775 9.31479263 31.61050034
endloop
endfacet
facet normal -14.25161266 2.22444582 0.00000000
outer loop
vertex -9.52783775 9.31479263 32.44500732
vertex -9.52783775 9.31479263 31.61050034
vertex -12.19341850 -7.76309061 36.43877792
endloop
endfacet
facet normal -82.45675659 12.87016392 0.00000000
outer loop
vertex -12.19341850 -7.76309061 36.43877792
vertex -9.52783775 9.31479263 31.61050034
vertex -12.19341850 -7.76309061 31.61050034
endloop
endfacet
facet normal 30.18905067 -78.16392517 0.00000000
outer loop
vertex -12.19341850 -7.76309061 36.43877792
vertex -12.19341850 -7.76309061 31.61050034
vertex 3.99536085 -1.51054001 31.95055199
endloop
endfacet
facet normal 2.12619019 -5.50502110 0.00000000
outer loop
vertex 3.99536085 -1.51054001 31.95055199
vertex -12.19341850 -7.76309061 31.61050034
vertex 3.99536085 -1.51054001 31.61050034
endloop
endfacet
facet normal 4.60746241 5.93243217 -4.31216717
outer loop
vertex 4.14857483 -1.31397164 32.38468552
vertex 3.99536085 -1.51054001 31.95055199
vertex -9.28048229 9.60173702 33.05321884
endloop
endfacet
facet normal 6.44221115 8.34727097 -6.55811119
outer loop
vertex -9.28048229 9.60173702 33.05321884
vertex 3.99536085 -1.51054001 31.95055199
vertex -9.52783775 9.31479263 32.44500732
endloop
endfacet
facet normal -11.58449745 2.58499575 3.49177670
outer loop
vertex -9.28048229 9.60173702 33.05321884
vertex -9.52783775 9.31479263 32.44500732
vertex -10.49514389 -5.92376184 40.51707077
endloop
endfacet
facet normal -76.99446106 17.65353775 24.10005569
outer loop
vertex -10.49514389 -5.92376184 40.51707077
vertex -9.52783775 9.31479263 32.44500732
vertex -12.19341850 -7.76309061 36.43877792
endloop
endfacet
facet normal 33.75820541 -73.53239441 19.10592270
outer loop
vertex -10.49514389 -5.92376184 40.51707077
vertex -12.19341850 -7.76309061 36.43877792
vertex 4.14857483 -1.31397164 32.38468552
endloop
endfacet
facet normal 3.59668541 -7.71575117 2.22422361
outer loop
vertex 4.14857483 -1.31397164 32.38468552
vertex -12.19341850 -7.76309061 36.43877792
vertex 3.99536085 -1.51054001 31.95055199
endloop
endfacet
facet normal 14.06601810 18.16021347 -13.96830750
outer loop
vertex 4.69740152 -0.71992588 33.70967102
vertex 4.14857483 -1.31397164 32.38468552
vertex -7.90074730 11.09515190 36.38419342
endloop
endfacet
facet normal 35.36155319 45.65424728 -35.11593628
outer loop
vertex -7.90074730 11.09515190 36.38419342
vertex 4.14857483 -1.31397164 32.38468552
vertex -9.28048229 9.60173702 33.05321884
endloop
endfacet
facet normal -62.86167145 14.34414291 19.60708237
outer loop
vertex -7.90074730 11.09515190 36.38419342
vertex -9.28048229 9.60173702 33.05321884
vertex -10.29721546 -5.70952606 40.99491119
endloop
endfacet
facet normal -9.01773548 2.05772281 2.81271362
outer loop
vertex -10.29721546 -5.70952606 40.99491119
vertex -9.28048229 9.60173702 33.05321884
vertex -10.49514389 -5.92376184 40.51707077
endloop
endfacet
facet normal 3.94499207 -8.60699081 2.22479987
outer loop
vertex -10.29721546 -5.70952606 40.99491119
vertex -10.49514389 -5.92376184 40.51707077
vertex 4.69740152 -0.71992588 33.70967102
endloop
endfacet
facet normal 10.93891430 -23.86598396 6.16906357
outer loop
vertex 4.69740152 -0.71992588 33.70967102
vertex -10.49514389 -5.92376184 40.51707077
vertex 4.14857483 -1.31397164 32.38468552
endloop
endfacet
facet normal 16.94460106 19.65642738 -7.01868153
outer loop
vertex 5.29144573 -0.71992564 35.14382172
vertex 4.69740152 -0.71992588 33.70967102
vertex -6.40733242 11.09515190 39.98961639
endloop
endfacet
facet normal 42.59835434 49.41582870 -17.64481354
outer loop
vertex -6.40733242 11.09515190 39.98961639
vertex 4.69740152 -0.71992588 33.70967102
vertex -7.90074730 11.09515190 36.38419342
endloop
endfacet
facet normal -60.58797836 15.52600002 25.09635925
outer loop
vertex -6.40733242 11.09515190 39.98961639
vertex -7.90074730 11.09515190 36.38419342
vertex -10.08298206 -5.70952702 41.51211929
endloop
endfacet
facet normal -8.69151211 2.22724247 3.60012579
outer loop
vertex -10.08298206 -5.70952702 41.51211929
vertex -7.90074730 11.09515190 36.38419342
vertex -10.29721546 -5.70952606 40.99491119
endloop
endfacet
facet normal 2.58065605 -9.31608009 -1.06895387
outer loop
vertex -10.08298206 -5.70952702 41.51211929
vertex -10.29721546 -5.70952606 40.99491119
vertex 5.29144573 -0.71992564 35.14382172
endloop
endfacet
facet normal 7.15583992 -25.83229446 -2.96403933
outer loop
vertex 5.29144573 -0.71992564 35.14382172
vertex -10.29721546 -5.70952606 40.99491119
vertex 4.69740152 -0.71992588 33.70967102
endloop
endfacet
facet normal 0.67579377 0.78395265 -0.27993000
outer loop
vertex 5.31513834 -0.71992564 35.20101929
vertex 5.29144573 -0.71992564 35.14382172
vertex -5.41975212 11.09515190 42.37384796
endloop
endfacet
facet normal 28.16988182 32.67820740 -11.66833782
outer loop
vertex -5.41975212 11.09515190 42.37384796
vertex 5.29144573 -0.71992564 35.14382172
vertex -6.40733242 11.09515190 39.98961639
endloop
endfacet
facet normal -40.06624985 10.26719284 16.59597015
outer loop
vertex -5.41975212 11.09515190 42.37384796
vertex -6.40733242 11.09515190 39.98961639
vertex -8.79255676 -5.70952702 44.62748337
endloop
endfacet
facet normal -52.35269547 13.41566277 21.68518448
outer loop
vertex -8.79255676 -5.70952702 44.62748337
vertex -6.40733242 11.09515190 39.98961639
vertex -10.08298206 -5.70952702 41.51211929
endloop
endfacet
facet normal 15.54442406 -56.11474991 -6.43870735
outer loop
vertex -8.79255676 -5.70952702 44.62748337
vertex -10.08298206 -5.70952702 41.51211929
vertex 5.31513834 -0.71992564 35.20101929
endloop
endfacet
facet normal 0.28539306 -1.03026152 -0.11821666
outer loop
vertex 5.31513834 -0.71992564 35.20101929
vertex -10.08298206 -5.70952702 41.51211929
vertex 5.29144573 -0.71992564 35.14382172
endloop
endfacet
facet normal 0.51723629 0.78395879 -0.51723760
outer loop
vertex 5.35891628 -0.71992588 35.24479675
vertex 5.31513834 -0.71992564 35.20101929
vertex -3.59494376 11.09515095 44.19865417
endloop
endfacet
facet normal 21.56023407 32.67813110 -21.56024361
outer loop
vertex -3.59494376 11.09515095 44.19865417
vertex 5.31513834 -0.71992564 35.20101929
vertex -5.41975212 11.09515190 42.37384796
endloop
endfacet
facet normal -30.66527557 10.26716805 30.66531563
outer loop
vertex -3.59494376 11.09515095 44.19865417
vertex -5.41975212 11.09515190 42.37384796
vertex -6.40816259 -5.70952606 47.01187515
endloop
endfacet
facet normal -40.06893921 13.41564274 40.06897736
outer loop
vertex -6.40816259 -5.70952606 47.01187515
vertex -5.41975212 11.09515190 42.37384796
vertex -8.79255676 -5.70952702 44.62748337
endloop
endfacet
facet normal 11.89717293 -56.11467743 -11.89716244
outer loop
vertex -6.40816259 -5.70952606 47.01187515
vertex -8.79255676 -5.70952702 44.62748337
vertex 5.35891628 -0.71992588 35.24479675
endloop
endfacet
facet normal 0.21842986 -1.03027034 -0.21843784
outer loop
vertex 5.35891628 -0.71992588 35.24479675
vertex -8.79255676 -5.70952702 44.62748337
vertex 5.31513834 -0.71992564 35.20101929
endloop
endfacet
facet normal 12.96884823 19.65645981 -12.96885872
outer loop
vertex 6.45656967 -0.71992588 36.34244919
vertex 5.35891628 -0.71992588 35.24479675
vertex -0.83547115 11.09515095 46.95812607
endloop
endfacet
facet normal 32.60337067 49.41585159 -32.60338211
outer loop
vertex -0.83547115 11.09515095 46.95812607
vertex 5.35891628 -0.71992588 35.24479675
vertex -3.59494376 11.09515095 44.19865417
endloop
endfacet
facet normal -46.37203217 15.52600479 46.37204361
outer loop
vertex -0.83547115 11.09515095 46.95812607
vertex -3.59494376 11.09515095 44.19865417
vertex -6.01230764 -5.70952606 47.40773010
endloop
endfacet
facet normal -6.65221405 2.22725415 6.65221405
outer loop
vertex -6.01230764 -5.70952606 47.40773010
vertex -3.59494376 11.09515095 44.19865417
vertex -6.40816259 -5.70952606 47.01187515
endloop
endfacet
facet normal 1.97515798 -9.31611252 -1.97515798
outer loop
vertex -6.01230764 -5.70952606 47.40773010
vertex -6.40816259 -5.70952606 47.01187515
vertex 6.45656967 -0.71992588 36.34244919
endloop
endfacet
facet normal 5.47684669 -25.83233643 -5.47685146
outer loop
vertex 6.45656967 -0.71992588 36.34244919
vertex -6.40816259 -5.70952606 47.01187515
vertex 5.35891628 -0.71992588 35.24479675
endloop
endfacet
facet normal 18.28789330 18.16020584 -7.64984560
outer loop
vertex 7.47066784 -1.31397140 37.35655212
vertex 6.45656967 -0.71992588 36.34244919
vertex 1.71394849 9.60173607 49.50754547
endloop
endfacet
facet normal 45.97519684 45.65428543 -19.23154640
outer loop
vertex 1.71394849 9.60173607 49.50754547
vertex 6.45656967 -0.71992588 36.34244919
vertex -0.83547115 11.09515095 46.95812607
endloop
endfacet
facet normal -42.17072296 14.34415913 50.57334137
outer loop
vertex 1.71394849 9.60173607 49.50754547
vertex -0.83547115 11.09515095 46.95812607
vertex -5.64658594 -5.92376232 47.77345276
endloop
endfacet
facet normal -6.04952955 2.05771637 7.25490093
outer loop
vertex -5.64658594 -5.92376232 47.77345276
vertex -0.83547115 11.09515095 46.95812607
vertex -6.01230764 -5.70952606 47.40773010
endloop
endfacet
facet normal -0.54577279 -8.60696411 -4.49609184
outer loop
vertex -5.64658594 -5.92376232 47.77345276
vertex -6.01230764 -5.70952606 47.40773010
vertex 7.47066784 -1.31397140 37.35655212
endloop
endfacet
facet normal -1.51331234 -23.86600494 -12.46702385
outer loop
vertex 7.47066784 -1.31397140 37.35655212
vertex -6.01230764 -5.70952606 47.40773010
vertex 6.45656967 -0.71992588 36.34244919
endloop
endfacet
facet normal 37.31418228 37.05370712 -15.60861874
outer loop
vertex 9.53981590 -2.52605009 39.42570114
vertex 7.47066784 -1.31397140 37.35655212
vertex 4.00167036 8.26161957 51.79526520
endloop
endfacet
facet normal 41.25582886 40.96785355 -17.25742912
outer loop
vertex 4.00167036 8.26161957 51.79526520
vertex 7.47066784 -1.31397140 37.35655212
vertex 1.71394849 9.60173607 49.50754547
endloop
endfacet
facet normal -37.84187698 12.87171745 45.38199615
outer loop
vertex 4.00167036 8.26161957 51.79526520
vertex 1.71394849 9.60173607 49.50754547
vertex -6.08183527 -5.66879940 47.33820343
endloop
endfacet
facet normal 7.19959164 -2.44890499 -8.63412571
outer loop
vertex -6.08183527 -5.66879940 47.33820343
vertex 1.71394849 9.60173607 49.50754547
vertex -5.64658594 -5.92376232 47.77345276
endloop
endfacet
facet normal 0.64951527 10.24322414 5.35082102
outer loop
vertex -6.08183527 -5.66879940 47.33820343
vertex -5.64658594 -5.92376232 47.77345276
vertex 9.53981590 -2.52605009 39.42570114
endloop
endfacet
facet normal -3.08775854 -48.69566345 -25.43748474
outer loop
vertex 9.53981590 -2.52605009 39.42570114
vertex -5.64658594 -5.92376232 47.77345276
vertex 7.47066784 -1.31397140 37.35655212
endloop
endfacet
facet normal 42.90966034 18.53282166 2.85728359
outer loop
vertex 10.24179649 -4.42830086 41.22192764
vertex 9.53981590 -2.52605009 39.42570114
vertex 5.02577209 5.63594294 54.27593613
endloop
endfacet
facet normal 59.23913574 26.40600967 3.49370766
outer loop
vertex 5.02577209 5.63594294 54.27593613
vertex 9.53981590 -2.52605009 39.42570114
vertex 4.00167036 8.26161957 51.79526520
endloop
endfacet
facet normal -46.18371201 20.33007812 40.58459473
outer loop
vertex 5.02577209 5.63594294 54.27593613
vertex 4.00167036 8.26161957 51.79526520
vertex -6.15569115 -5.32555437 47.04281235
endloop
endfacet
facet normal 5.64478588 -2.64939761 -4.48995686
outer loop
vertex -6.15569115 -5.32555437 47.04281235
vertex 4.00167036 8.26161957 51.79526520
vertex -6.08183527 -5.66879940 47.33820343
endloop
endfacet
facet normal 1.73294902 5.27357817 5.69462347
outer loop
vertex -6.15569115 -5.32555437 47.04281235
vertex -6.08183527 -5.66879940 47.33820343
vertex 10.24179649 -4.42830086 41.22192764
endloop
endfacet
facet normal -9.40647411 -33.61444855 -31.92244530
outer loop
vertex 10.24179649 -4.42830086 41.22192764
vertex -6.08183527 -5.66879940 47.33820343
vertex 9.53981590 -2.52605009 39.42570114
endloop
endfacet
facet normal 20.46060944 8.98397446 1.24912882
outer loop
vertex 10.59209538 -5.34367657 42.06762314
vertex 10.24179649 -4.42830086 41.22192764
vertex 5.09028673 5.46735764 54.43169022
endloop
endfacet
facet normal 3.76826119 1.65459180 0.23005402
outer loop
vertex 5.09028673 5.46735764 54.43169022
vertex 10.24179649 -4.42830086 41.22192764
vertex 5.02577209 5.63594294 54.27593613
endloop
endfacet
facet normal -2.92670107 1.27491379 2.59220672
outer loop
vertex 5.09028673 5.46735764 54.43169022
vertex 5.02577209 5.63594294 54.27593613
vertex -4.95355034 -8.46689892 49.94503784
endloop
endfacet
facet normal -54.53447342 23.75589371 48.30209351
outer loop
vertex -4.95355034 -8.46689892 49.94503784
vertex 5.02577209 5.63594294 54.27593613
vertex -6.15569115 -5.32555437 47.04281235
endloop
endfacet
facet normal -15.68137836 -54.58673096 -52.58878326
outer loop
vertex -4.95355034 -8.46689892 49.94503784
vertex -6.15569115 -5.32555437 47.04281235
vertex 10.59209538 -5.34367657 42.06762314
endloop
endfacet
facet normal -4.56949329 -15.90633202 -15.32416916
outer loop
vertex 10.59209538 -5.34367657 42.06762314
vertex -6.15569115 -5.32555437 47.04281235
vertex 10.24179649 -4.42830086 41.22192764
endloop
endfacet
facet normal 9.62674332 9.94151497 -4.37002850
outer loop
vertex 11.16618633 -5.67313147 42.58280182
vertex 10.59209538 -5.34367657 42.06762314
vertex 5.40946579 5.24257469 54.73379517
endloop
endfacet
facet normal 6.04529858 5.60847521 -2.21394300
outer loop
vertex 5.40946579 5.24257469 54.73379517
vertex 10.59209538 -5.34367657 42.06762314
vertex 5.09028673 5.46735764 54.43169022
endloop
endfacet
facet normal -5.08012342 1.67016768 6.60993528
outer loop
vertex 5.40946579 5.24257469 54.73379517
vertex 5.09028673 5.46735764 54.43169022
vertex -1.95106840 -10.28292084 52.99970245
endloop
endfacet
facet normal -50.71233749 17.20946121 60.07718277
outer loop
vertex -1.95106840 -10.28292084 52.99970245
vertex 5.09028673 5.46735764 54.43169022
vertex -4.95355034 -8.46689892 49.94503784
endloop
endfacet
facet normal -4.83595943 -71.34536743 -37.66202927
outer loop
vertex -1.95106840 -10.28292084 52.99970245
vertex -4.95355034 -8.46689892 49.94503784
vertex 11.16618633 -5.67313147 42.58280182
endloop
endfacet
facet normal -0.98623526 -12.53113747 -6.91460228
outer loop
vertex 11.16618633 -5.67313147 42.58280182
vertex -4.95355034 -8.46689892 49.94503784
vertex 10.59209538 -5.34367657 42.06762314
endloop
endfacet
facet normal 2.34459829 2.32823992 -0.98075700
outer loop
vertex 11.29619980 -5.74929142 42.71281433
vertex 11.16618633 -5.67313147 42.58280182
vertex 7.10864639 4.24721766 56.43297577
endloop
endfacet
facet normal 30.64233208 30.42844009 -12.81776333
outer loop
vertex 7.10864639 4.24721766 56.43297577
vertex 11.16618633 -5.67313147 42.58280182
vertex 5.40946579 5.24257469 54.73379517
endloop
endfacet
facet normal -28.10666084 9.56034279 33.70697784
outer loop
vertex 7.10864639 4.24721766 56.43297577
vertex 5.40946579 5.24257469 54.73379517
vertex 0.14855862 -11.51285362 55.09933090
endloop
endfacet
facet normal -34.73059082 11.81343842 41.65071106
outer loop
vertex 0.14855862 -11.51285362 55.09933090
vertex 5.40946579 5.24257469 54.73379517
vertex -1.95106840 -10.28292084 52.99970245
endloop
endfacet
facet normal -3.13324356 -49.41297150 -25.81217957
outer loop
vertex 0.14855862 -11.51285362 55.09933090
vertex -1.95106840 -10.28292084 52.99970245
vertex 11.29619980 -5.74929142 42.71281433
endloop
endfacet
facet normal -0.19402039 -3.05974460 -1.59834433
outer loop
vertex 11.29619980 -5.74929142 42.71281433
vertex -1.95106840 -10.28292084 52.99970245
vertex 11.16618633 -5.67313147 42.58280182
endloop
endfacet
facet normal 1.54229951 2.36914778 -1.24999344
outer loop
vertex 11.44993782 -5.81788540 42.77249527
vertex 11.29619980 -5.74929142 42.71281433
vertex 9.43806171 3.21043491 57.40177917
endloop
endfacet
facet normal 23.90947723 36.01687241 -18.94443893
outer loop
vertex 9.43806171 3.21043491 57.40177917
vertex 11.29619980 -5.74929142 42.71281433
vertex 7.10864639 4.24721766 56.43297577
endloop
endfacet
facet normal -16.66036415 3.60823774 43.92001724
outer loop
vertex 9.43806171 3.21043491 57.40177917
vertex 7.10864639 4.24721766 56.43297577
vertex 2.80827236 -12.69328499 56.19343948
endloop
endfacet
facet normal -18.81750488 4.06797838 50.13318253
outer loop
vertex 2.80827236 -12.69328499 56.19343948
vertex 7.10864639 4.24721766 56.43297577
vertex 0.14855862 -11.51285362 55.09933090
endloop
endfacet
facet normal -8.32007027 -45.15079117 -28.48748779
outer loop
vertex 2.80827236 -12.69328499 56.19343948
vertex 0.14855862 -11.51285362 55.09933090
vertex 11.44993782 -5.81788540 42.77249527
endloop
endfacet
facet normal -0.50566566 -2.56958032 -1.65073967
outer loop
vertex 11.44993782 -5.81788540 42.77249527
vertex 0.14855862 -11.51285362 55.09933090
vertex 11.29619980 -5.74929142 42.71281433
endloop
endfacet
facet normal 16.26851654 24.42611885 -12.83703136
outer loop
vertex 13.02962494 -6.52612495 43.42682266
vertex 11.44993782 -5.81788540 42.77249527
vertex 12.67689323 1.75833225 58.74334717
endloop
endfacet
facet normal 33.35532761 50.08085251 -26.31975746
outer loop
vertex 12.67689323 1.75833225 58.74334717
vertex 11.44993782 -5.81788540 42.77249527
vertex 9.43806171 3.21043491 57.40177917
endloop
endfacet
facet normal -23.09055519 4.98070526 61.13660431
outer loop
vertex 12.67689323 1.75833225 58.74334717
vertex 9.43806171 3.21043491 57.40177917
vertex 3.12446117 -12.83504581 56.32440948
endloop
endfacet
facet normal -2.25420547 0.48624000 5.96842289
outer loop
vertex 3.12446117 -12.83504581 56.32440948
vertex 9.43806171 3.21043491 57.40177917
vertex 2.80827236 -12.69328499 56.19343948
endloop
endfacet
facet normal -1.00209320 -5.37535191 -3.39897442
outer loop
vertex 3.12446117 -12.83504581 56.32440948
vertex 2.80827236 -12.69328499 56.19343948
vertex 13.02962494 -6.52612495 43.42682266
endloop
endfacet
facet normal -5.00648165 -26.85536957 -16.98134995
outer loop
vertex 13.02962494 -6.52612495 43.42682266
vertex 2.80827236 -12.69328499 56.19343948
vertex 11.44993782 -5.81788540 42.77249527
endloop
endfacet
facet normal 24.19292068 18.69494820 -9.55463982
outer loop
vertex 14.23866558 -7.83478069 43.92762375
vertex 13.02962494 -6.52612495 43.42682266
vertex 15.15578747 -0.92480373 59.77013779
endloop
endfacet
facet normal 49.60272217 38.33022690 -19.58986664
outer loop
vertex 15.15578747 -0.92480373 59.77013779
vertex 13.02962494 -6.52612495 43.42682266
vertex 12.67689323 1.75833225 58.74334717
endloop
endfacet
facet normal -21.47468567 3.81205654 61.80591965
outer loop
vertex 15.15578747 -0.92480373 59.77013779
vertex 12.67689323 1.75833225 58.74334717
vertex 3.36645985 -13.09698486 56.42464828
endloop
endfacet
facet normal -2.09643698 0.37214464 6.03373337
outer loop
vertex 3.36645985 -13.09698486 56.42464828
vertex 12.67689323 1.75833225 58.74334717
vertex 3.12446117 -12.83504581 56.32440948
endloop
endfacet
facet normal -2.74598169 -4.11408043 -4.12130165
outer loop
vertex 3.36645985 -13.09698486 56.42464828
vertex 3.12446117 -12.83504581 56.32440948
vertex 14.23866558 -7.83478069 43.92762375
endloop
endfacet
facet normal -13.71898746 -20.55422211 -20.59019089
outer loop
vertex 14.23866558 -7.83478069 43.92762375
vertex 3.12446117 -12.83504581 56.32440948
vertex 13.02962494 -6.52612495 43.42682266
endloop
endfacet
facet normal 7.89258480 6.09893990 -3.11705661
outer loop
vertex 14.63309669 -8.26171017 44.09100342
vertex 14.23866558 -7.83478069 43.92762375
vertex 16.91205406 -2.82577372 60.49760818
endloop
endfacet
facet normal 35.14294815 27.15649986 -13.87918282
outer loop
vertex 16.91205406 -2.82577372 60.49760818
vertex 14.23866558 -7.83478069 43.92762375
vertex 15.15578747 -0.92480373 59.77013779
endloop
endfacet
facet normal -15.21458054 2.70081186 43.78875351
outer loop
vertex 16.91205406 -2.82577372 60.49760818
vertex 15.15578747 -0.92480373 59.77013779
vertex 5.14291859 -15.01980972 57.16048050
endloop
endfacet
facet normal -15.38947296 2.73184299 44.29219055
outer loop
vertex 5.14291859 -15.01980972 57.16048050
vertex 15.15578747 -0.92480373 59.77013779
vertex 3.36645985 -13.09698486 56.42464828
endloop
endfacet
facet normal -20.15748787 -30.20056534 -30.25343323
outer loop
vertex 5.14291859 -15.01980972 57.16048050
vertex 3.36645985 -13.09698486 56.42464828
vertex 14.63309669 -8.26171017 44.09100342
endloop
endfacet
facet normal -4.47561073 -6.70551252 -6.71724224
outer loop
vertex 14.63309669 -8.26171017 44.09100342
vertex 3.36645985 -13.09698486 56.42464828
vertex 14.23866558 -7.83478069 43.92762375
endloop
endfacet
facet normal 7.16182709 7.14062691 -3.36730671
outer loop
vertex 15.06855202 -8.69766140 44.09269333
vertex 14.63309669 -8.26171017 44.09100342
vertex 18.93277359 -4.83344269 60.50576019
endloop
endfacet
facet normal 32.98334503 33.13457108 -15.55989456
outer loop
vertex 18.93277359 -4.83344269 60.50576019
vertex 14.63309669 -8.26171017 44.09100342
vertex 16.91205406 -2.82577372 60.49760818
endloop
endfacet
facet normal -6.82100487 -6.66937256 48.26357651
outer loop
vertex 18.93277359 -4.83344269 60.50576019
vertex 16.91205406 -2.82577372 60.49760818
vertex 6.95190763 -16.81430626 57.15693283
endloop
endfacet
facet normal -5.94520330 -6.07858038 43.17855072
outer loop
vertex 6.95190763 -16.81430626 57.15693283
vertex 16.91205406 -2.82577372 60.49760818
vertex 5.14291859 -15.01980972 57.16048050
endloop
endfacet
facet normal -23.47252846 -23.60427094 -29.24821091
outer loop
vertex 6.95190763 -16.81430626 57.15693283
vertex 5.14291859 -15.01980972 57.16048050
vertex 15.06855202 -8.69766140 44.09269333
endloop
endfacet
facet normal -5.68623400 -5.70721054 -7.08010530
outer loop
vertex 15.06855202 -8.69766140 44.09269333
vertex 5.14291859 -15.01980972 57.16048050
vertex 14.63309669 -8.26171017 44.09100342
endloop
endfacet
facet normal 27.89610672 27.89608955 -13.13546944
outer loop
vertex 16.76817894 -10.39728928 44.09269333
vertex 15.06855202 -8.69766140 44.09269333
vertex 21.40104103 -7.30171108 60.50576019
endloop
endfacet
facet normal 40.51185608 40.51183701 -19.07586098
outer loop
vertex 21.40104103 -7.30171108 60.50576019
vertex 15.06855202 -8.69766140 44.09269333
vertex 18.93277359 -4.83344269 60.50576019
endloop
endfacet
facet normal -8.26580429 -8.26580143 59.14397430
outer loop
vertex 21.40104103 -7.30171108 60.50576019
vertex 18.93277359 -4.83344269 60.50576019
vertex 7.03703356 -16.89943314 57.15693283
endloop
endfacet
facet normal -0.28507522 -0.28507203 2.03977585
outer loop
vertex 7.03703356 -16.89943314 57.15693283
vertex 18.93277359 -4.83344269 60.50576019
vertex 6.95190763 -16.81430626 57.15693283
endloop
endfacet
facet normal -1.11211789 -1.11210549 -1.38188314
outer loop
vertex 7.03703356 -16.89943314 57.15693283
vertex 6.95190763 -16.81430626 57.15693283
vertex 16.76817894 -10.39728928 44.09269333
endloop
endfacet
facet normal -22.20434570 -22.20433235 -27.59054184
outer loop
vertex 16.76817894 -10.39728928 44.09269333
vertex 6.95190763 -16.81430626 57.15693283
vertex 15.06855202 -8.69766140 44.09269333
endloop
endfacet
facet normal 36.44801712 15.09726810 -13.13547325
outer loop
vertex 17.68801117 -12.61795998 44.09269333
vertex 16.76817894 -10.39728928 44.09269333
vertex 22.73685837 -10.52665901 60.50576019
endloop
endfacet
facet normal 52.93128586 21.92486000 -19.07586670
outer loop
vertex 22.73685837 -10.52665901 60.50576019
vertex 16.76817894 -10.39728928 44.09269333
vertex 21.40104103 -7.30171108 60.50576019
endloop
endfacet
facet normal -10.79979420 -4.47342157 59.14398193
outer loop
vertex 22.73685837 -10.52665901 60.50576019
vertex 21.40104103 -7.30171108 60.50576019
vertex 7.08310413 -17.01065636 57.15693283
endloop
endfacet
facet normal -0.37246737 -0.15428241 2.03978372
outer loop
vertex 7.08310413 -17.01065636 57.15693283
vertex 21.40104103 -7.30171108 60.50576019
vertex 7.03703356 -16.89943314 57.15693283
endloop
endfacet
facet normal -1.45304680 -0.60187703 -1.38188601
outer loop
vertex 7.08310413 -17.01065636 57.15693283
vertex 7.03703356 -16.89943314 57.15693283
vertex 17.68801117 -12.61795998 44.09269333
endloop
endfacet
facet normal -29.01137352 -12.01690865 -27.59055138
outer loop
vertex 17.68801117 -12.61795998 44.09269333
vertex 7.03703356 -16.89943314 57.15693283
vertex 16.76817894 -10.39728928 44.09269333
endloop
endfacet
facet normal 41.65365601 17.25352478 -15.01152992
outer loop
vertex 18.73921776 -15.15579510 44.09269333
vertex 17.68801117 -12.61795998 44.09269333
vertex 23.33206177 -11.96360683 60.50576019
endloop
endfacet
facet normal 23.58472061 9.76911354 -8.49967957
outer loop
vertex 23.33206177 -11.96360683 60.50576019
vertex 17.68801117 -12.61795998 44.09269333
vertex 22.73685837 -10.52665901 60.50576019
endloop
endfacet
facet normal -4.81209040 -1.99323344 26.35292435
outer loop
vertex 23.33206177 -11.96360683 60.50576019
vertex 22.73685837 -10.52665901 60.50576019
vertex 7.73008156 -18.57259750 57.15693283
endloop
endfacet
facet normal -5.23067141 -2.16661572 28.64524460
outer loop
vertex 7.73008156 -18.57259750 57.15693283
vertex 22.73685837 -10.52665901 60.50576019
vertex 7.08310413 -17.01065636 57.15693283
endloop
endfacet
facet normal -20.40557289 -8.45226765 -19.40621758
outer loop
vertex 7.73008156 -18.57259750 57.15693283
vertex 7.08310413 -17.01065636 57.15693283
vertex 18.73921776 -15.15579510 44.09269333
endloop
endfacet
facet normal -33.15488434 -13.73321438 -31.53113747
outer loop
vertex 18.73921776 -15.15579510 44.09269333
vertex 7.08310413 -17.01065636 57.15693283
vertex 17.68801117 -12.61795998 44.09269333
endloop
endfacet
facet normal 42.97749710 14.10870457 -14.76359749
outer loop
vertex 19.71154594 -17.69647980 44.49520111
vertex 18.73921776 -15.15579510 44.09269333
vertex 23.92012978 -13.50971031 60.74762726
endloop
endfacet
facet normal 26.14838600 8.54114246 -8.97823620
outer loop
vertex 23.92012978 -13.50971031 60.74762726
vertex 18.73921776 -15.15579510 44.09269333
vertex 23.33206177 -11.96360683 60.50576019
endloop
endfacet
facet normal -6.76961470 1.80699408 28.01040077
outer loop
vertex 23.92012978 -13.50971031 60.74762726
vertex 23.33206177 -11.96360683 60.50576019
vertex 8.28208256 -20.02657890 57.38860321
endloop
endfacet
facet normal -6.40023994 1.76596069 26.33315659
outer loop
vertex 8.28208256 -20.02657890 57.38860321
vertex 23.33206177 -11.96360683 60.50576019
vertex 7.73008156 -18.57259750 57.15693283
endloop
endfacet
facet normal -18.20695114 -9.76503944 -17.90444374
outer loop
vertex 8.28208256 -20.02657890 57.38860321
vertex 7.73008156 -18.57259750 57.15693283
vertex 19.71154594 -17.69647980 44.49520111
endloop
endfacet
facet normal -31.81682396 -17.13399124 -31.29299736
outer loop
vertex 19.71154594 -17.69647980 44.49520111
vertex 7.73008156 -18.57259750 57.15693283
vertex 18.73921776 -15.15579510 44.09269333
endloop
endfacet
facet normal 36.18331146 11.87656498 -12.42921829
outer loop
vertex 20.53010178 -19.83546829 44.83425903
vertex 19.71154594 -17.69647980 44.49520111
vertex 23.96927834 -13.63814068 60.76798630
endloop
endfacet
facet normal 2.17254376 0.71310061 -0.74628365
outer loop
vertex 23.96927834 -13.63814068 60.76798630
vertex 19.71154594 -17.69647980 44.49520111
vertex 23.92012978 -13.50971031 60.74762726
endloop
endfacet
facet normal -0.56408167 0.15328316 2.32869625
outer loop
vertex 23.96927834 -13.63814068 60.76798630
vertex 23.92012978 -13.50971031 60.74762726
vertex 9.52884293 -23.28452110 57.90502930
endloop
endfacet
facet normal -14.30898666 3.88799739 59.07283020
outer loop
vertex 9.52884293 -23.28452110 57.90502930
vertex 23.92012978 -13.50971031 60.74762726
vertex 8.28208256 -20.02657890 57.38860321
endloop
endfacet
facet normal -40.80263138 -21.97745514 -40.14160919
outer loop
vertex 9.52884293 -23.28452110 57.90502930
vertex 8.28208256 -20.02657890 57.38860321
vertex 20.53010178 -19.83546829 44.83425903
endloop
endfacet
facet normal -26.78879929 -14.42922020 -26.35480690
outer loop
vertex 20.53010178 -19.83546829 44.83425903
vertex 8.28208256 -20.02657890 57.38860321
vertex 19.71154594 -17.69647980 44.49520111
endloop
endfacet
facet normal 29.96785736 21.94502640 -15.00372505
outer loop
vertex 22.04259491 -21.47257805 45.46075439
vertex 20.53010178 -19.83546829 44.83425903
vertex 24.06009102 -13.73643589 60.80560303
endloop
endfacet
facet normal 1.79933226 1.31761396 -0.90085053
outer loop
vertex 24.06009102 -13.73643589 60.80560303
vertex 20.53010178 -19.83546829 44.83425903
vertex 23.96927834 -13.63814068 60.76798630
endloop
endfacet
facet normal -0.64428234 0.28320706 2.29543900
outer loop
vertex 24.06009102 -13.73643589 60.80560303
vertex 23.96927834 -13.63814068 60.76798630
vertex 11.83255291 -25.77804184 58.85925674
endloop
endfacet
facet normal -16.34368324 7.18403769 58.22998810
outer loop
vertex 11.83255291 -25.77804184 58.85925674
vertex 23.96927834 -13.63814068 60.76798630
vertex 9.52884293 -23.28452110 57.90502930
endloop
endfacet
facet normal -29.30105209 -40.60896683 -35.37749100
outer loop
vertex 11.83255291 -25.77804184 58.85925674
vertex 9.52884293 -23.28452110 57.90502930
vertex 22.04259491 -21.47257805 45.46075439
endloop
endfacet
facet normal -19.23747063 -26.66168785 -23.22693634
outer loop
vertex 22.04259491 -21.47257805 45.46075439
vertex 9.52884293 -23.28452110 57.90502930
vertex 20.53010178 -19.83546829 44.83425903
endloop
endfacet
facet normal 8.39288521 6.14596605 -4.20197582
outer loop
vertex 22.46618652 -21.93107224 45.63621140
vertex 22.04259491 -21.47257805 45.46075439
vertex 24.59392548 -14.31425476 61.02672577
endloop
endfacet
facet normal 10.57718086 7.74549532 -5.29556656
outer loop
vertex 24.59392548 -14.31425476 61.02672577
vertex 22.04259491 -21.47257805 45.46075439
vertex 24.06009102 -13.73643589 60.80560303
endloop
endfacet
facet normal -3.78731132 1.66475689 13.49352455
outer loop
vertex 24.59392548 -14.31425476 61.02672577
vertex 24.06009102 -13.73643589 60.80560303
vertex 14.79035473 -28.97954369 60.08441925
endloop
endfacet
facet normal -20.98415375 9.22381496 74.76316833
outer loop
vertex 14.79035473 -28.97954369 60.08441925
vertex 24.06009102 -13.73643589 60.80560303
vertex 11.83255291 -25.77804184 58.85925674
endloop
endfacet
facet normal -37.62043762 -52.13907623 -45.42217255
outer loop
vertex 14.79035473 -28.97954369 60.08441925
vertex 11.83255291 -25.77804184 58.85925674
vertex 22.46618652 -21.93107224 45.63621140
endloop
endfacet
facet normal -5.38771152 -7.46691656 -6.50500298
outer loop
vertex 22.46618652 -21.93107224 45.63621140
vertex 11.83255291 -25.77804184 58.85925674
vertex 22.04259491 -21.47257805 45.46075439
endloop
endfacet
facet normal 0.74776447 3.33806849 -1.70657396
outer loop
vertex 22.66931725 -22.01108932 45.56870270
vertex 22.46618652 -21.93107224 45.63621140
vertex 25.66111374 -14.78825665 61.00751114
endloop
endfacet
facet normal 7.14877844 16.46545982 -9.13713074
outer loop
vertex 25.66111374 -14.78825665 61.00751114
vertex 22.46618652 -21.93107224 45.63621140
vertex 24.59392548 -14.31425476 61.02672577
endloop
endfacet
facet normal -0.12590405 -1.10166776 20.18406105
outer loop
vertex 25.66111374 -14.78825665 61.00751114
vertex 24.59392548 -14.31425476 61.02672577
vertex 19.04430389 -30.76264572 60.09433746
endloop
endfacet
facet normal -1.82568216 -3.91129017 79.86615753
outer loop
vertex 19.04430389 -30.76264572 60.09433746
vertex 24.59392548 -14.31425476 61.02672577
vertex 14.79035473 -28.97954369 60.08441925
endloop
endfacet
facet normal -25.81388855 -61.82726669 -43.69244385
outer loop
vertex 19.04430389 -30.76264572 60.09433746
vertex 14.79035473 -28.97954369 60.08441925
vertex 22.66931725 -22.01108932 45.56870270
endloop
endfacet
facet normal -1.63193655 -2.41668940 -2.04595900
outer loop
vertex 22.66931725 -22.01108932 45.56870270
vertex 14.79035473 -28.97954369 60.08441925
vertex 22.46618652 -21.93107224 45.63621140
endloop
endfacet
facet normal 22.41467094 54.11380386 -29.65999985
outer loop
vertex 26.17436790 -23.46292877 45.56870270
vertex 22.66931725 -22.01108932 45.56870270
vertex 28.27544403 -15.87114811 61.00751114
endloop
endfacet
facet normal 16.71855354 40.36214447 -22.12266159
outer loop
vertex 28.27544403 -15.87114811 61.00751114
vertex 22.66931725 -22.01108932 45.56870270
vertex 25.66111374 -14.78825665 61.00751114
endloop
endfacet
facet normal -0.98886800 -2.38733768 48.92761612
outer loop
vertex 28.27544403 -15.87114811 61.00751114
vertex 25.66111374 -14.78825665 61.00751114
vertex 18.47314453 -30.52606392 60.09433746
endloop
endfacet
facet normal 0.21604027 0.52156770 -10.68933868
outer loop
vertex 18.47314453 -30.52606392 60.09433746
vertex 25.66111374 -14.78825665 61.00751114
vertex 19.04430389 -30.76264572 60.09433746
endloop
endfacet
facet normal 3.43650079 8.29645252 5.85614491
outer loop
vertex 18.47314453 -30.52606392 60.09433746
vertex 19.04430389 -30.76264572 60.09433746
vertex 26.17436790 -23.46292877 45.56870270
endloop
endfacet
facet normal -21.08889008 -50.91308594 -35.93758774
outer loop
vertex 26.17436790 -23.46292877 45.56870270
vertex 19.04430389 -30.76264572 60.09433746
vertex 22.66931725 -22.01108932 45.56870270
endloop
endfacet
facet normal 43.88750076 31.43782234 -21.61965370
outer loop
vertex 28.35123825 -25.83174133 46.54314423
vertex 26.17436790 -23.46292877 45.56870270
vertex 30.36873436 -18.09559631 61.88799667
endloop
endfacet
facet normal 41.02728271 30.46793938 -20.56553650
outer loop
vertex 30.36873436 -18.09559631 61.88799667
vertex 26.17436790 -23.46292877 45.56870270
vertex 28.27544403 -15.87114811 61.00751114
endloop
endfacet
facet normal -14.93201447 6.69189167 52.40609360
outer loop
vertex 30.36873436 -18.09559631 61.88799667
vertex 28.27544403 -15.87114811 61.00751114
vertex 18.14119911 -30.13720131 59.94164658
endloop
endfacet
facet normal 2.59277129 -1.19359791 -8.67638016
outer loop
vertex 18.14119911 -30.13720131 59.94164658
vertex 28.27544403 -15.87114811 61.00751114
vertex 18.47314453 -30.52606392 60.09433746
endloop
endfacet
facet normal 4.55277205 6.00655127 5.39948034
outer loop
vertex 18.14119911 -30.13720131 59.94164658
vertex 18.47314453 -30.52606392 60.09433746
vertex 28.35123825 -25.83174133 46.54314423
endloop
endfacet
facet normal -27.52589226 -39.12481689 -33.61828613
outer loop
vertex 28.35123825 -25.83174133 46.54314423
vertex 18.47314453 -30.52606392 60.09433746
vertex 26.17436790 -23.46292877 45.56870270
endloop
endfacet
facet normal 35.84969711 26.25219536 -17.94852066
outer loop
vertex 30.16058922 -27.79016876 47.29260254
vertex 28.35123825 -25.83174133 46.54314423
vertex 32.69097900 -20.60917664 62.84990311
endloop
endfacet
facet normal 46.01197052 33.69385910 -23.03635979
outer loop
vertex 32.69097900 -20.60917664 62.84990311
vertex 28.35123825 -25.83174133 46.54314423
vertex 30.36873436 -18.09559631 61.88799667
endloop
endfacet
facet normal -16.47520447 7.24184370 58.69844818
outer loop
vertex 32.69097900 -20.60917664 62.84990311
vertex 30.36873436 -18.09559631 61.88799667
vertex 17.93748474 -29.91670418 59.85726547
endloop
endfacet
facet normal 1.44524860 -0.63527346 -5.14918423
outer loop
vertex 17.93748474 -29.91670418 59.85726547
vertex 30.36873436 -18.09559631 61.88799667
vertex 18.14119911 -30.13720131 59.94164658
endloop
endfacet
facet normal 2.59103274 3.59100151 3.12836528
outer loop
vertex 17.93748474 -29.91670418 59.85726547
vertex 18.14119911 -30.13720131 59.94164658
vertex 30.16058922 -27.79016876 47.29260254
endloop
endfacet
facet normal -23.01323128 -31.89459229 -27.78570747
outer loop
vertex 30.16058922 -27.79016876 47.29260254
vertex 18.14119911 -30.13720131 59.94164658
vertex 28.35123825 -25.83174133 46.54314423
endloop
endfacet
facet normal 34.54524612 7.19075394 -9.06051350
outer loop
vertex 30.72254181 -29.73598862 47.89089966
vertex 30.16058922 -27.79016876 47.29260254
vertex 33.76517487 -24.14815521 63.92633057
endloop
endfacet
facet normal 62.78676987 13.98780632 -16.66878700
outer loop
vertex 33.76517487 -24.14815521 63.92633057
vertex 30.16058922 -27.79016876 47.29260254
vertex 32.69097900 -20.60917664 62.84990311
endloop
endfacet
facet normal -20.66876602 12.56516933 61.93651581
outer loop
vertex 33.76517487 -24.14815521 63.92633057
vertex 32.69097900 -20.60917664 62.84990311
vertex 18.02551651 -29.95175552 59.85125351
endloop
endfacet
facet normal -0.04893947 -0.35214466 1.33648801
outer loop
vertex 18.02551651 -29.95175552 59.85125351
vertex 32.69097900 -20.60917664 62.84990311
vertex 17.93748474 -29.91670418 59.85726547
endloop
endfacet
facet normal -0.42052367 -0.97655708 -0.46404216
outer loop
vertex 18.02551651 -29.95175552 59.85125351
vertex 17.93748474 -29.91670418 59.85726547
vertex 30.72254181 -29.73598862 47.89089966
endloop
endfacet
facet normal -23.17626953 -14.37379265 -24.97897148
outer loop
vertex 30.72254181 -29.73598862 47.89089966
vertex 17.93748474 -29.91670418 59.85726547
vertex 30.16058922 -27.79016876 47.29260254
endloop
endfacet
facet normal 30.83585358 6.64018297 -8.16482258
outer loop
vertex 31.23360825 -31.48088074 48.40196609
vertex 30.72254181 -29.73598862 47.89089966
vertex 33.80279541 -24.27659607 63.96395111
endloop
endfacet
facet normal 2.26982164 0.48879614 -0.60101575
outer loop
vertex 33.80279541 -24.27659607 63.96395111
vertex 30.72254181 -29.73598862 47.89089966
vertex 33.76517487 -24.14815521 63.92633057
endloop
endfacet
facet normal -0.74174511 0.43882784 2.23995376
outer loop
vertex 33.80279541 -24.27659607 63.96395111
vertex 33.76517487 -24.14815521 63.92633057
vertex 19.08908272 -33.58299637 60.91481781
endloop
endfacet
facet normal -20.97008896 12.40602493 63.32700348
outer loop
vertex 19.08908272 -33.58299637 60.91481781
vertex 33.76517487 -24.14815521 63.92633057
vertex 18.02551651 -29.95175552 59.85125351
endloop
endfacet
facet normal -43.20144272 -26.22473145 -46.33543777
outer loop
vertex 19.08908272 -33.58299637 60.91481781
vertex 18.02551651 -29.95175552 59.85125351
vertex 31.23360825 -31.48088074 48.40196609
endloop
endfacet
facet normal -20.75925636 -12.60155869 -22.26521111
outer loop
vertex 31.23360825 -31.48088074 48.40196609
vertex 18.02551651 -29.95175552 59.85125351
vertex 30.72254181 -29.73598862 47.89089966
endloop
endfacet
facet normal 15.79075050 11.86029720 -8.05552292
outer loop
vertex 32.04675293 -32.35568619 48.70793152
vertex 31.23360825 -31.48088074 48.40196609
vertex 34.06425095 -24.61954117 64.05278015
endloop
endfacet
facet normal 5.97685623 3.84054852 -2.76469016
outer loop
vertex 34.06425095 -24.61954117 64.05278015
vertex 31.23360825 -31.48088074 48.40196609
vertex 33.80279541 -24.27659607 63.96395111
endloop
endfacet
facet normal -1.73713553 0.57727617 7.34171772
outer loop
vertex 34.06425095 -24.61954117 64.05278015
vertex 33.80279541 -24.27659607 63.96395111
vertex 21.83671570 -36.66114807 62.10643005
endloop
endfacet
facet normal -20.47531509 9.15514183 70.86161041
outer loop
vertex 21.83671570 -36.66114807 62.10643005
vertex 33.80279541 -24.27659607 63.96395111
vertex 19.08908272 -33.58299637 60.91481781
endloop
endfacet
facet normal -36.11217117 -48.98056030 -43.25787354
outer loop
vertex 21.83671570 -36.66114807 62.10643005
vertex 19.08908272 -33.58299637 60.91481781
vertex 32.04675293 -32.35568619 48.70793152
endloop
endfacet
facet normal -10.30313683 -13.89056396 -12.33342171
outer loop
vertex 32.04675293 -32.35568619 48.70793152
vertex 19.08908272 -33.58299637 60.91481781
vertex 31.23360825 -31.48088074 48.40196609
endloop
endfacet
facet normal 43.49005508 31.84713173 -21.77376556
outer loop
vertex 34.24171829 -34.73149872 49.61711502
vertex 32.04675293 -32.35568619 48.70793152
vertex 35.10879517 -25.75014877 64.48544312
endloop
endfacet
facet normal 20.69614601 15.15547657 -10.36174393
outer loop
vertex 35.10879517 -25.75014877 64.48544312
vertex 32.04675293 -32.35568619 48.70793152
vertex 34.06425095 -24.61954117 64.05278015
endloop
endfacet
facet normal -7.41051292 3.25735426 26.40253067
outer loop
vertex 35.10879517 -25.75014877 64.48544312
vertex 34.06425095 -24.61954117 64.05278015
vertex 22.51118088 -37.39118195 62.38580322
endloop
endfacet
facet normal -4.78500319 2.10329986 17.04816055
outer loop
vertex 22.51118088 -37.39118195 62.38580322
vertex 34.06425095 -24.61954117 64.05278015
vertex 21.83671570 -36.66114807 62.10643005
endloop
endfacet
facet normal -8.57853127 -11.88923264 -10.35755348
outer loop
vertex 22.51118088 -37.39118195 62.38580322
vertex 21.83671570 -36.66114807 62.10643005
vertex 34.24171829 -34.73149872 49.61711502
endloop
endfacet
facet normal -27.91786575 -38.69203949 -33.70747375
outer loop
vertex 34.24171829 -34.73149872 49.61711502
vertex 21.83671570 -36.66114807 62.10643005
vertex 32.04675293 -32.35568619 48.70793152
endloop
endfacet
facet normal 49.56330872 23.06211090 -16.81801987
outer loop
vertex 35.89015579 -37.06503677 51.27519989
vertex 34.24171829 -34.73149872 49.61711502
vertex 35.99946594 -27.01737595 65.37543488
endloop
endfacet
facet normal 26.83487701 12.47109413 -9.09820938
outer loop
vertex 35.99946594 -27.01737595 65.37543488
vertex 34.24171829 -34.73149872 49.61711502
vertex 35.10879517 -25.75014877 64.48544312
endloop
endfacet
facet normal -13.01684380 9.35584927 26.34823227
outer loop
vertex 35.99946594 -27.01737595 65.37543488
vertex 35.10879517 -25.75014877 64.48544312
vertex 22.95144272 -38.03538895 62.84163284
endloop
endfacet
facet normal -6.65893078 4.81797409 13.24057388
outer loop
vertex 22.95144272 -38.03538895 62.84163284
vertex 35.10879517 -25.75014877 64.48544312
vertex 22.51118088 -37.39118195 62.38580322
endloop
endfacet
facet normal -7.00886202 -10.99010754 -8.76241875
outer loop
vertex 22.95144272 -38.03538895 62.84163284
vertex 22.51118088 -37.39118195 62.38580322
vertex 35.89015579 -37.06503677 51.27519989
endloop
endfacet
facet normal -25.38623810 -40.49861145 -31.75797653
outer loop
vertex 35.89015579 -37.06503677 51.27519989
vertex 22.51118088 -37.39118195 62.38580322
vertex 34.24171829 -34.73149872 49.61711502
endloop
endfacet
facet normal 42.64855957 19.89745522 -14.50931835
outer loop
vertex 37.31232452 -39.07628632 52.69736862
vertex 35.89015579 -37.06503677 51.27519989
vertex 36.00840759 -27.03002167 65.38437653
endloop
endfacet
facet normal 0.26815033 0.12510195 -0.09122498
outer loop
vertex 36.00840759 -27.03002167 65.38437653
vertex 35.89015579 -37.06503677 51.27519989
vertex 35.99946594 -27.01737595 65.37543488
endloop
endfacet
facet normal -0.13056047 0.09401449 0.26352039
outer loop
vertex 36.00840759 -27.03002167 65.38437653
vertex 35.99946594 -27.01737595 65.37543488
vertex 24.51009369 -40.23965454 64.40028381
endloop
endfacet
facet normal -22.75840950 16.38800049 45.93454742
outer loop
vertex 24.51009369 -40.23965454 64.40028381
vertex 35.99946594 -27.01737595 65.37543488
vertex 22.95144272 -38.03538895 62.84163284
endloop
endfacet
facet normal -23.98304749 -38.19496918 -30.03280258
outer loop
vertex 24.51009369 -40.23965454 64.40028381
vertex 22.95144272 -38.03538895 62.84163284
vertex 37.31232452 -39.07628632 52.69736862
endloop
endfacet
facet normal -21.88297844 -34.85045242 -27.40298462
outer loop
vertex 37.31232452 -39.07628632 52.69736862
vertex 22.95144272 -38.03538895 62.84163284
vertex 35.89015579 -37.06503677 51.27519989
endloop
endfacet
facet normal 36.19339371 25.99729729 -20.96452522
outer loop
vertex 39.17047882 -40.16476822 54.55552292
vertex 37.31232452 -39.07628632 52.69736862
vertex 36.02008820 -27.03686523 65.39605713
endloop
endfacet
facet normal 0.22753203 0.16342244 -0.13178419
outer loop
vertex 36.02008820 -27.03686523 65.39605713
vertex 37.31232452 -39.07628632 52.69736862
vertex 36.00840759 -27.03002167 65.38437653
endloop
endfacet
facet normal -0.16102868 0.12281249 0.23298347
outer loop
vertex 36.02008820 -27.03686523 65.39605713
vertex 36.00840759 -27.03002167 65.38437653
vertex 26.54656601 -41.43259430 66.43675995
endloop
endfacet
facet normal -28.07506561 21.41196442 40.61784744
outer loop
vertex 26.54656601 -41.43259430 66.43675995
vertex 36.00840759 -27.03002167 65.38437653
vertex 24.51009369 -40.23965454 64.40028381
endloop
endfacet
facet normal -11.59170246 -49.90410614 -17.64146042
outer loop
vertex 26.54656601 -41.43259430 66.43675995
vertex 24.51009369 -40.23965454 64.40028381
vertex 39.17047882 -40.16476822 54.55552292
endloop
endfacet
facet normal -10.57669353 -45.53433990 -16.09671402
outer loop
vertex 39.17047882 -40.16476822 54.55552292
vertex 24.51009369 -40.23965454 64.40028381
vertex 37.31232452 -39.07628632 52.69736862
endloop
endfacet
facet normal 46.18884277 33.17693329 -26.75428200
outer loop
vertex 41.54179764 -41.55385208 56.92684174
vertex 39.17047882 -40.16476822 54.55552292
vertex 37.27121353 -27.76975822 66.64717865
endloop
endfacet
facet normal 24.36955261 17.50438881 -14.11575317
outer loop
vertex 37.27121353 -27.76975822 66.64717865
vertex 39.17047882 -40.16476822 54.55552292
vertex 36.02008820 -27.03686523 65.39605713
endloop
endfacet
facet normal -17.24807739 13.15458298 24.95393753
outer loop
vertex 37.27121353 -27.76975822 66.64717865
vertex 36.02008820 -27.03686523 65.39605713
vertex 26.83737183 -41.60294342 66.72756958
endloop
endfacet
facet normal -4.00913382 3.05763388 5.80016804
outer loop
vertex 26.83737183 -41.60294342 66.72756958
vertex 36.02008820 -27.03686523 65.39605713
vertex 26.54656601 -41.43259430 66.43675995
endloop
endfacet
facet normal -1.65526915 -7.12629747 -2.51916194
outer loop
vertex 26.83737183 -41.60294342 66.72756958
vertex 26.54656601 -41.43259430 66.43675995
vertex 41.54179764 -41.55385208 56.92684174
endloop
endfacet
facet normal -13.49761391 -58.10952377 -20.54209328
outer loop
vertex 41.54179764 -41.55385208 56.92684174
vertex 26.54656601 -41.43259430 66.43675995
vertex 39.17047882 -40.16476822 54.55552292
endloop
endfacet
facet normal 55.18188477 25.16821861 -11.46505070
outer loop
vertex 42.79419708 -42.91188049 59.97354507
vertex 41.54179764 -41.55385208 56.92684174
vertex 37.99630356 -28.55485916 68.39774323
endloop
endfacet
facet normal 31.76139259 14.52405262 -6.64186907
outer loop
vertex 37.99630356 -28.55485916 68.39774323
vertex 41.54179764 -41.55385208 56.92684174
vertex 37.27121353 -27.76975822 66.64717865
endloop
endfacet
facet normal -24.15854073 18.34176445 18.23254776
outer loop
vertex 37.99630356 -28.55485916 68.39774323
vertex 37.27121353 -27.76975822 66.64717865
vertex 26.96123314 -41.75170898 67.05192566
endloop
endfacet
facet normal -4.47491789 3.39423728 3.26559281
outer loop
vertex 26.96123314 -41.75170898 67.05192566
vertex 37.27121353 -27.76975822 66.64717865
vertex 26.83737183 -41.60294342 66.72756958
endloop
endfacet
facet normal -1.42932796 -6.01225567 -2.21169949
outer loop
vertex 26.96123314 -41.75170898 67.05192566
vertex 26.83737183 -41.60294342 66.72756958
vertex 42.79419708 -42.91188049 59.97354507
endloop
endfacet
facet normal -13.16009998 -57.07444763 -20.03050995
outer loop
vertex 42.79419708 -42.91188049 59.97354507
vertex 26.83737183 -41.60294342 66.72756958
vertex 41.54179764 -41.55385208 56.92684174
endloop
endfacet
facet normal 48.07904434 21.97238541 -10.06386375
outer loop
vertex 43.89241409 -44.10058212 62.62487411
vertex 42.79419708 -42.91188049 59.97354507
vertex 38.00165939 -28.56065369 68.41066742
endloop
endfacet
facet normal 0.23436716 0.10712752 -0.04909232
outer loop
vertex 38.00165939 -28.56065369 68.41066742
vertex 42.79419708 -42.91188049 59.97354507
vertex 37.99630356 -28.55485916 68.39774323
endloop
endfacet
facet normal -0.17835684 0.13541743 0.13462576
outer loop
vertex 38.00165939 -28.56065369 68.41066742
vertex 37.99630356 -28.55485916 68.39774323
vertex 27.97113609 -42.84482193 69.49005127
endloop
endfacet
facet normal -33.64670944 25.54574203 25.39011574
outer loop
vertex 27.97113609 -42.84482193 69.49005127
vertex 37.99630356 -28.55485916 68.39774323
vertex 26.96123314 -41.75170898 67.05192566
endloop
endfacet
facet normal -10.56611538 -45.75123978 -16.13555908
outer loop
vertex 27.97113609 -42.84482193 69.49005127
vertex 26.96123314 -41.75170898 67.05192566
vertex 43.89241409 -44.10058212 62.62487411
endloop
endfacet
facet normal -11.49007893 -49.75199509 -17.54654884
outer loop
vertex 43.89241409 -44.10058212 62.62487411
vertex 26.96123314 -41.75170898 67.05192566
vertex 42.79419708 -42.91188049 59.97354507
endloop
endfacet
facet normal 44.59601974 23.78264427 -18.47221947
outer loop
vertex 45.08110809 -44.10058212 65.49464417
vertex 43.89241409 -44.10058212 62.62487411
vertex 38.00745392 -28.56065369 68.42465210
endloop
endfacet
facet normal 0.21732093 0.11590624 -0.09004650
outer loop
vertex 38.00745392 -28.56065369 68.42465210
vertex 43.89241409 -44.10058212 62.62487411
vertex 38.00165939 -28.56065369 68.41066742
endloop
endfacet
facet normal -0.19975947 0.14653310 0.08276995
outer loop
vertex 38.00745392 -28.56065369 68.42465210
vertex 38.00165939 -28.56065369 68.41066742
vertex 29.06424904 -42.84481812 72.12905121
endloop
endfacet
facet normal -37.69592285 27.65043831 15.61417103
outer loop
vertex 29.06424904 -42.84481812 72.12905121
vertex 38.00165939 -28.56065369 68.41066742
vertex 27.97113609 -42.84482193 69.49005127
endloop
endfacet
facet normal -3.31393576 -49.52064514 1.37275302
outer loop
vertex 29.06424904 -42.84481812 72.12905121
vertex 27.97113609 -42.84482193 69.49005127
vertex 45.08110809 -44.10058212 65.49464417
endloop
endfacet
facet normal -3.60374308 -53.85100174 1.49271464
outer loop
vertex 45.08110809 -44.10058212 65.49464417
vertex 27.97113609 -42.84482193 69.49005127
vertex 43.89241409 -44.10058212 62.62487411
endloop
endfacet
facet normal 21.17320061 11.29148579 -8.77025700
outer loop
vertex 45.64547729 -44.10058212 66.85714722
vertex 45.08110809 -44.10058212 65.49464417
vertex 37.94855118 -28.56065369 68.28245544
endloop
endfacet
facet normal -2.20972586 -1.17843544 0.91534436
outer loop
vertex 37.94855118 -28.56065369 68.28245544
vertex 45.08110809 -44.10058212 65.49464417
vertex 38.00745392 -28.56065369 68.42465210
endloop
endfacet
facet normal 2.03116035 -1.48990583 -0.84137642
outer loop
vertex 37.94855118 -28.56065369 68.28245544
vertex 38.00745392 -28.56065369 68.42465210
vertex 30.85081673 -42.84481812 76.44220734
endloop
endfacet
facet normal -61.60983276 45.19159698 25.51962662
outer loop
vertex 30.85081673 -42.84481812 76.44220734
vertex 38.00745392 -28.56065369 68.42465210
vertex 29.06424904 -42.84481812 72.12905121
endloop
endfacet
facet normal -5.41630602 -80.93603516 2.24350739
outer loop
vertex 30.85081673 -42.84481812 76.44220734
vertex 29.06424904 -42.84481812 72.12905121
vertex 45.64547729 -44.10058212 66.85714722
endloop
endfacet
facet normal -1.71098232 -25.56727409 0.70871454
outer loop
vertex 45.64547729 -44.10058212 66.85714722
vertex 29.06424904 -42.84481812 72.12905121
vertex 45.08110809 -44.10058212 65.49464417
endloop
endfacet
facet normal 15.79120064 9.77547073 -21.42130280
outer loop
vertex 46.71044922 -43.46953201 67.93019104
vertex 45.64547729 -44.10058212 66.85714722
vertex 37.80826950 -28.63009644 68.13962555
endloop
endfacet
facet normal -2.12058902 -1.29929566 2.71446276
outer loop
vertex 37.80826950 -28.63009644 68.13962555
vertex 45.64547729 -44.10058212 66.85714722
vertex 37.94855118 -28.56065369 68.28245544
endloop
endfacet
facet normal 2.56165051 -2.14560080 -1.47277439
outer loop
vertex 37.80826950 -28.63009644 68.13962555
vertex 37.94855118 -28.56065369 68.28245544
vertex 33.84623337 -41.09009171 79.40056610
endloop
endfacet
facet normal -56.57581711 45.43950272 30.33244324
outer loop
vertex 33.84623337 -41.09009171 79.40056610
vertex 37.94855118 -28.56065369 68.28245544
vertex 30.85081673 -42.84481812 76.44220734
endloop
endfacet
facet normal 13.08813286 -72.41551208 29.70059395
outer loop
vertex 33.84623337 -41.09009171 79.40056610
vertex 30.85081673 -42.84481812 76.44220734
vertex 46.71044922 -43.46953201 67.93019104
endloop
endfacet
facet normal 4.70116329 -26.08313751 10.67352486
outer loop
vertex 46.71044922 -43.46953201 67.93019104
vertex 30.85081673 -42.84481812 76.44220734
vertex 45.64547729 -44.10058212 66.85714722
endloop
endfacet
facet normal 22.70411301 14.05685616 -30.93843842
outer loop
vertex 48.25318909 -42.56581497 69.47293091
vertex 46.71044922 -43.46953201 67.93019104
vertex 40.56140137 -27.01734924 70.89276123
endloop
endfacet
facet normal 40.51721191 25.08551025 -55.21188736
outer loop
vertex 40.56140137 -27.01734924 70.89276123
vertex 46.71044922 -43.46953201 67.93019104
vertex 37.80826950 -28.63009644 68.13962555
endloop
endfacet
facet normal -52.46511459 41.91088867 27.91424942
outer loop
vertex 40.56140137 -27.01734924 70.89276123
vertex 37.80826950 -28.63009644 68.13962555
vertex 33.48442841 -41.30203247 79.03876495
endloop
endfacet
facet normal 6.89469337 -5.50773335 -3.66837120
outer loop
vertex 33.48442841 -41.30203247 79.03876495
vertex 37.80826950 -28.63009644 68.13962555
vertex 33.84623337 -41.09009171 79.40056610
endloop
endfacet
facet normal -1.57015228 8.80432129 -3.58734512
outer loop
vertex 33.48442841 -41.30203247 79.03876495
vertex 33.84623337 -41.09009171 79.40056610
vertex 48.25318909 -42.56581497 69.47293091
endloop
endfacet
facet normal 6.69511604 -37.54194260 15.29646873
outer loop
vertex 48.25318909 -42.56581497 69.47293091
vertex 33.84623337 -41.09009171 79.40056610
vertex 46.71044922 -43.46953201 67.93019104
endloop
endfacet
facet normal 36.22552490 19.33155823 -15.07295799
outer loop
vertex 49.22497177 -42.56983948 71.80329895
vertex 48.25318909 -42.56581497 69.47293091
vertex 42.15131378 -27.02991867 74.73330688
endloop
endfacet
facet normal 59.73244095 31.79806709 -24.62401772
outer loop
vertex 42.15131378 -27.02991867 74.73330688
vertex 48.25318909 -42.56581497 69.47293091
vertex 40.56140137 -27.01734924 70.89276123
endloop
endfacet
facet normal -54.81243896 40.23645020 22.82298851
outer loop
vertex 42.15131378 -27.02991867 74.73330688
vertex 40.56140137 -27.01734924 70.89276123
vertex 33.20811081 -41.31408691 78.43770599
endloop
endfacet
facet normal 8.68413258 -6.50456238 -3.86180043
outer loop
vertex 33.20811081 -41.31408691 78.43770599
vertex 40.56140137 -27.01734924 70.89276123
vertex 33.48442841 -41.30203247 79.03876495
endloop
endfacet
facet normal 0.67480719 11.46028137 -0.54006088
outer loop
vertex 33.20811081 -41.31408691 78.43770599
vertex 33.48442841 -41.30203247 79.03876495
vertex 49.22497177 -42.56983948 71.80329895
endloop
endfacet
facet normal -2.98357630 -43.71255875 1.16868496
outer loop
vertex 49.22497177 -42.56983948 71.80329895
vertex 33.48442841 -41.30203247 79.03876495
vertex 48.25318909 -42.56581497 69.47293091
endloop
endfacet
facet normal 21.17307091 11.29142094 -8.77019310
outer loop
vertex 49.78933716 -42.56983948 73.16579437
vertex 49.22497177 -42.56983948 71.80329895
vertex 42.09241104 -27.02991867 74.59110260
endloop
endfacet
facet normal -2.20984340 -1.17848992 0.91534394
outer loop
vertex 42.09241104 -27.02991867 74.59110260
vertex 49.22497177 -42.56983948 71.80329895
vertex 42.15131378 -27.02991867 74.73330688
endloop
endfacet
facet normal 2.03127003 -1.48996019 -0.84137666
outer loop
vertex 42.09241104 -27.02991867 74.59110260
vertex 42.15131378 -27.02991867 74.73330688
vertex 34.99467468 -41.31408691 82.75085449
endloop
endfacet
facet normal -61.60973740 45.19150925 25.51957893
outer loop
vertex 34.99467468 -41.31408691 82.75085449
vertex 42.15131378 -27.02991867 74.73330688
vertex 33.20811081 -41.31408691 78.43770599
endloop
endfacet
facet normal -5.41624737 -80.93589783 2.24348211
outer loop
vertex 34.99467468 -41.31408691 82.75085449
vertex 33.20811081 -41.31408691 78.43770599
vertex 49.78933716 -42.56983948 73.16579437
endloop
endfacet
facet normal -1.71095717 -25.56712914 0.70870328
outer loop
vertex 49.78933716 -42.56983948 73.16579437
vertex 33.20811081 -41.31408691 78.43770599
vertex 49.22497177 -42.56983948 71.80329895
endloop
endfacet
facet normal 15.79108334 9.77541161 -21.42127037
outer loop
vertex 50.85430908 -41.93879318 74.23883057
vertex 49.78933716 -42.56983948 73.16579437
vertex 41.95212936 -27.09935760 74.44827271
endloop
endfacet
facet normal -2.12059355 -1.29929566 2.71443248
outer loop
vertex 41.95212936 -27.09935760 74.44827271
vertex 49.78933716 -42.56983948 73.16579437
vertex 42.09241104 -27.02991867 74.59110260
endloop
endfacet
facet normal 2.56160808 -2.14560080 -1.47279000
outer loop
vertex 41.95212936 -27.09935760 74.44827271
vertex 42.09241104 -27.02991867 74.59110260
vertex 37.99009323 -39.55935669 85.70921326
endloop
endfacet
facet normal -56.57585907 45.43952179 30.33244896
outer loop
vertex 37.99009323 -39.55935669 85.70921326
vertex 42.09241104 -27.02991867 74.59110260
vertex 34.99467468 -41.31408691 82.75085449
endloop
endfacet
facet normal 13.08820152 -72.41555786 29.70063782
outer loop
vertex 37.99009323 -39.55935669 85.70921326
vertex 34.99467468 -41.31408691 82.75085449
vertex 50.85430908 -41.93879318 74.23883057
endloop
endfacet
facet normal 4.70114851 -26.08302689 10.67345810
outer loop
vertex 50.85430908 -41.93879318 74.23883057
vertex 34.99467468 -41.31408691 82.75085449
vertex 49.78933716 -42.56983948 73.16579437
endloop
endfacet
facet normal 22.70411301 14.05686760 -30.93849945
outer loop
vertex 52.39705276 -41.03507614 75.78157043
vertex 50.85430908 -41.93879318 74.23883057
vertex 44.70526123 -25.48661041 77.20140076
endloop
endfacet
facet normal 40.51708984 25.08546066 -55.21188736
outer loop
vertex 44.70526123 -25.48661041 77.20140076
vertex 50.85430908 -41.93879318 74.23883057
vertex 41.95212936 -27.09935760 74.44827271
endloop
endfacet
facet normal -52.46502686 41.91085815 27.91425705
outer loop
vertex 44.70526123 -25.48661041 77.20140076
vertex 41.95212936 -27.09935760 74.44827271
vertex 37.62828827 -39.77129745 85.34741211
endloop
endfacet
facet normal 6.89469433 -5.50773335 -3.66837263
outer loop
vertex 37.62828827 -39.77129745 85.34741211
vertex 41.95212936 -27.09935760 74.44827271
vertex 37.99009323 -39.55935669 85.70921326
endloop
endfacet
facet normal -1.57015538 8.80432510 -3.58734465
outer loop
vertex 37.62828827 -39.77129745 85.34741211
vertex 37.99009323 -39.55935669 85.70921326
vertex 52.39705276 -41.03507614 75.78157043
endloop
endfacet
facet normal 6.69512844 -37.54199982 15.29647160
outer loop
vertex 52.39705276 -41.03507614 75.78157043
vertex 37.99009323 -39.55935669 85.70921326
vertex 50.85430908 -41.93879318 74.23883057
endloop
endfacet
facet normal 36.22551727 19.33156586 -15.07295418
outer loop
vertex 53.36883545 -41.03910065 78.11193848
vertex 52.39705276 -41.03507614 75.78157043
vertex 46.29517365 -25.49918365 81.04194641
endloop
endfacet
facet normal 59.73244476 31.79808235 -24.62398720
outer loop
vertex 46.29517365 -25.49918365 81.04194641
vertex 52.39705276 -41.03507614 75.78157043
vertex 44.70526123 -25.48661041 77.20140076
endloop
endfacet
facet normal -54.81242371 40.23645020 22.82302284
outer loop
vertex 46.29517365 -25.49918365 81.04194641
vertex 44.70526123 -25.48661041 77.20140076
vertex 37.35196686 -39.78335190 84.74633789
endloop
endfacet
facet normal 8.68435287 -6.50470352 -3.86185575
outer loop
vertex 37.35196686 -39.78335190 84.74633789
vertex 44.70526123 -25.48661041 77.20140076
vertex 37.62828827 -39.77129745 85.34741211
endloop
endfacet
facet normal 0.67482418 11.46055317 -0.54006469
outer loop
vertex 37.35196686 -39.78335190 84.74633789
vertex 37.62828827 -39.77129745 85.34741211
vertex 53.36883545 -41.03910065 78.11193848
endloop
endfacet
facet normal -2.98356724 -43.71257401 1.16868126
outer loop
vertex 53.36883545 -41.03910065 78.11193848
vertex 37.62828827 -39.77129745 85.34741211
vertex 52.39705276 -41.03507614 75.78157043
endloop
endfacet
facet normal 21.17306519 11.29143047 -8.77019119
outer loop
vertex 53.93320084 -41.03910065 79.47443390
vertex 53.36883545 -41.03910065 78.11193848
vertex 46.23627090 -25.49918365 80.89974976
endloop
endfacet
facet normal -2.20972419 -1.17843652 0.91534370
outer loop
vertex 46.23627090 -25.49918365 80.89974976
vertex 53.36883545 -41.03910065 78.11193848
vertex 46.29517365 -25.49918365 81.04194641
endloop
endfacet
facet normal 2.03116083 -1.48990560 -0.84137666
outer loop
vertex 46.23627090 -25.49918365 80.89974976
vertex 46.29517365 -25.49918365 81.04194641
vertex 39.13853836 -39.78335190 89.05950165
endloop
endfacet
facet normal -61.60995865 45.19167709 25.51968765
outer loop
vertex 39.13853836 -39.78335190 89.05950165
vertex 46.29517365 -25.49918365 81.04194641
vertex 37.35196686 -39.78335190 84.74633789
endloop
endfacet
facet normal -5.41625023 -80.93621063 2.24348497
outer loop
vertex 39.13853836 -39.78335190 89.05950165
vertex 37.35196686 -39.78335190 84.74633789
vertex 53.93320084 -41.03910065 79.47443390
endloop
endfacet
facet normal -1.71095192 -25.56713676 0.70870113
outer loop
vertex 53.93320084 -41.03910065 79.47443390
vertex 37.35196686 -39.78335190 84.74633789
vertex 53.36883545 -41.03910065 78.11193848
endloop
endfacet
facet normal 15.79107094 9.77542305 -21.42126465
outer loop
vertex 54.99817276 -40.40805435 80.54747009
vertex 53.93320084 -41.03910065 79.47443390
vertex 46.09598923 -25.56862640 80.75691986
endloop
endfacet
facet normal -2.12058687 -1.29929733 2.71446180
outer loop
vertex 46.09598923 -25.56862640 80.75691986
vertex 53.93320084 -41.03910065 79.47443390
vertex 46.23627090 -25.49918365 80.89974976
endloop
endfacet
facet normal 2.56165051 -2.14560032 -1.47277462
outer loop
vertex 46.09598923 -25.56862640 80.75691986
vertex 46.23627090 -25.49918365 80.89974976
vertex 42.13395691 -38.02862167 92.01786041
endloop
endfacet
facet normal -56.57585907 45.43951035 30.33245659
outer loop
vertex 42.13395691 -38.02862167 92.01786041
vertex 46.23627090 -25.49918365 80.89974976
vertex 39.13853836 -39.78335190 89.05950165
endloop
endfacet
facet normal 13.08822632 -72.41558838 29.70062637
outer loop
vertex 42.13395691 -38.02862167 92.01786041
vertex 39.13853836 -39.78335190 89.05950165
vertex 54.99817276 -40.40805435 80.54747009
endloop
endfacet
facet normal 4.70115805 -26.08303642 10.67345428
outer loop
vertex 54.99817276 -40.40805435 80.54747009
vertex 39.13853836 -39.78335190 89.05950165
vertex 53.93320084 -41.03910065 79.47443390
endloop
endfacet
facet normal -56.66962433 -33.19629288 -56.66957092
outer loop
vertex 47.76248169 -34.71237946 84.44671631
vertex 46.09598923 -25.56862640 80.75691986
vertex 54.99817276 -40.40805435 80.54747009
endloop
endfacet
facet normal -56.99240875 -33.38536453 -56.99233246
outer loop
vertex 47.76248169 -34.71237946 84.44671631
vertex 42.13395691 -38.02862167 92.01786041
vertex 46.09598923 -25.56862640 80.75691986
endloop
endfacet
facet normal -56.05361938 -32.83545685 -56.05355072
outer loop
vertex 47.76248169 -34.71237946 84.44671631
vertex 54.99817276 -40.40805435 80.54747009
vertex 42.13395691 -38.02862167 92.01786041
endloop
endfacet
endsolid