solid (null).stl
facet normal 0.00000000 -0.00000000 86.60253906
outer loop
vertex 0.00000000 0.00000000 0.00000000
vertex 10.00000000 0.00000000 0.00000000
vertex -5.00000048 8.66025352 0.00000000
endloop
endfacet
facet normal 0.00000000 0.00000000 86.60253906
outer loop
vertex 0.00000000 0.00000000 0.00000000
vertex -5.00000048 8.66025352 0.00000000
vertex -4.99999905 -8.66025448 0.00000000
endloop
endfacet
facet normal -0.00000000 0.00000000 86.60254669
outer loop
vertex 0.00000000 0.00000000 0.00000000
vertex -4.99999905 -8.66025448 0.00000000
vertex 10.00000000 0.00000000 0.00000000
endloop
endfacet
facet normal 17.32050705 30.00000000 0.00000000
outer loop
vertex 10.00000000 0.00000000 2.00000000
vertex 10.00000000 0.00000000 0.00000000
vertex -5.00000048 8.66025352 2.00000000
endloop
endfacet
facet normal 17.32050705 30.00000000 0.00000000
outer loop
vertex -5.00000048 8.66025352 2.00000000
vertex 10.00000000 0.00000000 0.00000000
vertex -5.00000048 8.66025352 0.00000000
endloop
endfacet
facet normal -34.64101410 -0.00000286 -0.00000000
outer loop
vertex -5.00000048 8.66025352 2.00000000
vertex -5.00000048 8.66025352 0.00000000
vertex -4.99999905 -8.66025448 2.00000000
endloop
endfacet
facet normal -34.64101410 -0.00000286 -0.00000000
outer loop
vertex -4.99999905 -8.66025448 2.00000000
vertex -5.00000048 8.66025352 0.00000000
vertex -4.99999905 -8.66025448 0.00000000
endloop
endfacet
facet normal 17.32050896 -29.99999809 0.00000000
outer loop
vertex -4.99999905 -8.66025448 2.00000000
vertex -4.99999905 -8.66025448 0.00000000
vertex 10.00000000 0.00000000 2.00000000
endloop
endfacet
facet normal 17.32050896 -29.99999809 0.00000000
outer loop
vertex 10.00000000 0.00000000 2.00000000
vertex -4.99999905 -8.66025448 0.00000000
vertex 10.00000000 0.00000000 0.00000000
endloop
endfacet
facet normal 34.54681778 59.83684921 0.00000000
outer loop
vertex 10.00000000 0.00000000 5.98912334
vertex 10.00000000 0.00000000 2.00000000
vertex -5.00000048 8.66025352 4.76181793
endloop
endfacet
facet normal 23.91804314 41.42726898 0.00000000
outer loop
vertex -5.00000048 8.66025352 4.76181793
vertex 10.00000000 0.00000000 2.00000000
vertex -5.00000048 8.66025352 2.00000000
endloop
endfacet
facet normal -47.83608627 -0.00000395 -0.00000000
outer loop
vertex -5.00000048 8.66025352 4.76181793
vertex -5.00000048 8.66025352 2.00000000
vertex -4.99999905 -8.66025448 1.24905825
endloop
endfacet
facet normal 13.00669193 0.00000107 -0.00000000
outer loop
vertex -4.99999905 -8.66025448 1.24905825
vertex -5.00000048 8.66025352 2.00000000
vertex -4.99999905 -8.66025448 2.00000000
endloop
endfacet
facet normal -6.50334692 11.26412582 0.00000000
outer loop
vertex -4.99999905 -8.66025448 1.24905825
vertex -4.99999905 -8.66025448 2.00000000
vertex 10.00000000 0.00000000 5.98912334
endloop
endfacet
facet normal 34.54682159 -59.83684540 0.00000000
outer loop
vertex 10.00000000 0.00000000 5.98912334
vertex -4.99999905 -8.66025448 2.00000000
vertex 10.00000000 0.00000000 2.00000000
endloop
endfacet
facet normal 26.51861763 50.61960983 33.97267914
outer loop
vertex 8.61619282 -1.46659970 9.25455189
vertex 10.00000000 0.00000000 5.98912334
vertex -6.02986145 7.56123304 7.23550987
endloop
endfacet
facet normal 20.07396507 38.36933517 25.40416336
outer loop
vertex -6.02986145 7.56123304 7.23550987
vertex 10.00000000 0.00000000 5.98912334
vertex -5.00000048 8.66025352 4.76181793
endloop
endfacet
facet normal -46.68845749 3.61378741 -17.83204651
outer loop
vertex -6.02986145 7.56123304 7.23550987
vertex -5.00000048 8.66025352 4.76181793
vertex -4.73866034 -8.37586021 0.62508249
endloop
endfacet
facet normal 11.80658627 -0.91801924 4.52651978
outer loop
vertex -4.73866034 -8.37586021 0.62508249
vertex -5.00000048 8.66025352 4.76181793
vertex -4.99999905 -8.66025448 1.24905825
endloop
endfacet
facet normal -6.76538277 10.58831787 1.99238622
outer loop
vertex -4.73866034 -8.37586021 0.62508249
vertex -4.99999905 -8.66025448 1.24905825
vertex 8.61619282 -1.46659970 9.25455189
endloop
endfacet
facet normal 35.23122025 -55.54076004 -10.01487160
outer loop
vertex 8.61619282 -1.46659970 9.25455189
vertex -4.99999905 -8.66025448 1.24905825
vertex 10.00000000 0.00000000 5.98912334
endloop
endfacet
facet normal 14.91289616 28.42520905 18.92132187
outer loop
vertex 7.85570812 -2.28974247 11.09052467
vertex 8.61619282 -1.46659970 9.25455189
vertex -6.10314369 7.48191309 7.41242838
endloop
endfacet
facet normal 1.43704033 2.73911810 1.82330418
outer loop
vertex -6.10314369 7.48191309 7.41242838
vertex 8.61619282 -1.46659970 9.25455189
vertex -6.02986145 7.56123304 7.23550987
endloop
endfacet
facet normal -3.34390545 0.25598893 -1.27032423
outer loop
vertex -6.10314369 7.48191309 7.41242838
vertex -6.02986145 7.56123304 7.23550987
vertex -6.02508116 -9.76827240 3.73077774
endloop
endfacet
facet normal -58.70019531 4.49371386 -22.29969406
outer loop
vertex -6.02508116 -9.76827240 3.73077774
vertex -6.02986145 7.56123304 7.23550987
vertex -4.73866034 -8.37586021 0.62508249
endloop
endfacet
facet normal 33.47383499 -52.57723236 -9.70724297
outer loop
vertex -6.02508116 -9.76827240 3.73077774
vertex -4.73866034 -8.37586021 0.62508249
vertex 7.85570812 -2.28974247 11.09052467
endloop
endfacet
facet normal 19.78849983 -31.08172607 -5.73856306
outer loop
vertex 7.85570812 -2.28974247 11.09052467
vertex -4.73866034 -8.37586021 0.62508249
vertex 8.61619282 -1.46659970 9.25455189
endloop
endfacet
facet normal 19.41864967 30.76722717 8.04347420
outer loop
vertex 7.03256464 -2.28974247 13.07776737
vertex 7.85570812 -2.28974247 11.09052467
vertex -6.18246365 7.48191261 7.60392380
endloop
endfacet
facet normal 1.87122548 2.96480250 0.77509391
outer loop
vertex -6.18246365 7.48191261 7.60392380
vertex 7.85570812 -2.28974247 11.09052467
vertex -6.10314369 7.48191309 7.41242838
endloop
endfacet
facet normal -3.30333161 0.27707985 -1.36828327
outer loop
vertex -6.18246365 7.48191261 7.60392380
vertex -6.10314369 7.48191309 7.41242838
vertex -7.41749334 -9.76827240 7.09235859
endloop
endfacet
facet normal -57.98789215 4.86396170 -24.01936722
outer loop
vertex -7.41749334 -9.76827240 7.09235859
vertex -6.10314369 7.48191309 7.41242838
vertex -6.02508116 -9.76827240 3.73077774
endloop
endfacet
facet normal 25.13968277 -56.90919495 10.41319656
outer loop
vertex -7.41749334 -9.76827240 7.09235859
vertex -6.02508116 -9.76827240 3.73077774
vertex 7.03256464 -2.28974247 13.07776737
endloop
endfacet
facet normal 14.86165428 -33.64262390 6.15590334
outer loop
vertex 7.03256464 -2.28974247 13.07776737
vertex -6.02508116 -9.76827240 3.73077774
vertex 7.85570812 -2.28974247 11.09052467
endloop
endfacet
facet normal 0.14999825 0.23765917 0.06212962
outer loop
vertex 7.02620649 -2.28974247 13.09311771
vertex 7.03256464 -2.28974247 13.07776737
vertex -7.27763700 7.48191261 10.24790573
endloop
endfacet
facet normal 25.83607864 40.93510437 10.70165634
outer loop
vertex -7.27763700 7.48191261 10.24790573
vertex 7.03256464 -2.28974247 13.07776737
vertex -6.18246365 7.48191261 7.60392380
endloop
endfacet
facet normal -45.60917664 3.82564783 -18.89194298
outer loop
vertex -7.27763700 7.48191261 10.24790573
vertex -6.18246365 7.48191261 7.60392380
vertex -8.61442280 -9.76827240 9.98200226
endloop
endfacet
facet normal -49.84688950 4.18110323 -20.64725494
outer loop
vertex -8.61442280 -9.76827240 9.98200226
vertex -6.18246365 7.48191261 7.60392380
vertex -7.41749334 -9.76827240 7.09235859
endloop
endfacet
facet normal 21.61028671 -48.91962814 8.95127296
outer loop
vertex -8.61442280 -9.76827240 9.98200226
vertex -7.41749334 -9.76827240 7.09235859
vertex 7.02620649 -2.28974247 13.09311771
endloop
endfacet
facet normal 0.11479799 -0.25986946 0.04754959
outer loop
vertex 7.02620649 -2.28974247 13.09311771
vertex -7.41749334 -9.76827240 7.09235859
vertex 7.03256464 -2.28974247 13.07776737
endloop
endfacet
facet normal 0.16234589 0.23764347 0.00000466
outer loop
vertex 7.02620602 -2.28974247 13.10973167
vertex 7.02620649 -2.28974247 13.09311771
vertex -7.27763700 7.48191261 13.10973167
endloop
endfacet
facet normal 27.96477509 40.93511200 0.00000000
outer loop
vertex -7.27763700 7.48191261 13.10973167
vertex 7.02620649 -2.28974247 13.09311771
vertex -7.27763700 7.48191261 10.24790573
endloop
endfacet
facet normal -49.36702728 3.82564831 0.00000000
outer loop
vertex -7.27763700 7.48191261 13.10973167
vertex -7.27763700 7.48191261 10.24790573
vertex -8.61442280 -9.76827240 13.10973167
endloop
endfacet
facet normal -53.95391083 4.18110418 0.00000000
outer loop
vertex -8.61442280 -9.76827240 13.10973167
vertex -7.27763700 7.48191261 10.24790573
vertex -8.61442280 -9.76827240 9.98200226
endloop
endfacet
facet normal 23.39081764 -48.91965485 0.00000000
outer loop
vertex -8.61442280 -9.76827240 13.10973167
vertex -8.61442280 -9.76827240 9.98200226
vertex 7.02620602 -2.28974247 13.10973167
endloop
endfacet
facet normal 0.12424800 -0.25985429 0.00000357
outer loop
vertex 7.02620602 -2.28974247 13.10973167
vertex -8.61442280 -9.76827240 9.98200226
vertex 7.02620649 -2.28974247 13.09311771
endloop
endfacet
facet normal 18.06802368 26.44814491 0.00000000
outer loop
vertex 7.02620602 -2.28974247 14.95875549
vertex 7.02620602 -2.28974247 13.10973167
vertex -7.27763700 7.48191261 16.90245819
endloop
endfacet
facet normal 37.06121445 54.25056458 0.00000000
outer loop
vertex -7.27763700 7.48191261 16.90245819
vertex 7.02620602 -2.28974247 13.10973167
vertex -7.27763700 7.48191261 13.10973167
endloop
endfacet
facet normal -65.42523193 5.07006311 0.00000000
outer loop
vertex -7.27763700 7.48191261 16.90245819
vertex -7.27763700 7.48191261 13.10973167
vertex -8.61442280 -9.76827240 13.47118282
endloop
endfacet
facet normal -6.23509932 0.48318276 0.00000000
outer loop
vertex -8.61442280 -9.76827240 13.47118282
vertex -7.27763700 7.48191261 13.10973167
vertex -8.61442280 -9.76827240 13.10973167
endloop
endfacet
facet normal 2.70312333 -5.65332317 0.00000000
outer loop
vertex -8.61442280 -9.76827240 13.47118282
vertex -8.61442280 -9.76827240 13.10973167
vertex 7.02620602 -2.28974247 14.95875549
endloop
endfacet
facet normal 13.82798004 -28.91989517 0.00000000
outer loop
vertex 7.02620602 -2.28974247 14.95875549
vertex -8.61442280 -9.76827240 13.10973167
vertex 7.02620602 -2.28974247 13.10973167
endloop
endfacet
facet normal 18.06802177 24.43489647 10.12127209
outer loop
vertex 7.02620602 -2.99733353 16.66703033
vertex 7.02620602 -2.28974247 14.95875549
vertex -7.27763748 6.03049946 20.40648079
endloop
endfacet
facet normal 37.06121445 50.12098694 20.76078987
outer loop
vertex -7.27763748 6.03049946 20.40648079
vertex 7.02620602 -2.28974247 14.95875549
vertex -7.27763700 7.48191261 16.90245819
endloop
endfacet
facet normal -65.42523956 4.68412924 1.94022012
outer loop
vertex -7.27763748 6.03049946 20.40648079
vertex -7.27763700 7.48191261 16.90245819
vertex -8.61442280 -9.90659428 13.80512047
endloop
endfacet
facet normal -6.23510695 0.44640309 0.18490672
outer loop
vertex -8.61442280 -9.90659428 13.80512047
vertex -7.27763700 7.48191261 16.90245819
vertex -8.61442280 -9.76827240 13.47118282
endloop
endfacet
facet normal 2.70312691 -5.22299480 -2.16344118
outer loop
vertex -8.61442280 -9.90659428 13.80512047
vertex -8.61442280 -9.76827240 13.47118282
vertex 7.02620602 -2.99733353 16.66703033
endloop
endfacet
facet normal 13.82797813 -26.71849251 -11.06716919
outer loop
vertex 7.02620602 -2.99733353 16.66703033
vertex -8.61442280 -9.76827240 13.47118282
vertex 7.02620602 -2.28974247 14.95875549
endloop
endfacet
facet normal 34.35945129 46.46716690 19.24732780
outer loop
vertex 7.02620602 -4.34293890 19.91560936
vertex 7.02620602 -2.99733353 16.66703033
vertex -7.27763748 4.82518816 23.31635857
endloop
endfacet
facet normal 30.77709198 41.62243652 17.24058342
outer loop
vertex -7.27763748 4.82518816 23.31635857
vertex 7.02620602 -2.99733353 16.66703033
vertex -7.27763748 6.03049946 20.40648079
endloop
endfacet
facet normal -54.33168793 3.88988185 1.61124241
outer loop
vertex -7.27763748 4.82518816 23.31635857
vertex -7.27763748 6.03049946 20.40648079
vertex -8.61442280 -9.65106964 13.18822956
endloop
endfacet
facet normal 11.51825905 -0.82465070 -0.34158158
outer loop
vertex -8.61442280 -9.65106964 13.18822956
vertex -7.27763748 6.03049946 20.40648079
vertex -8.61442280 -9.90659428 13.80512047
endloop
endfacet
facet normal -4.99354887 9.64856148 3.99656606
outer loop
vertex -8.61442280 -9.65106964 13.18822956
vertex -8.61442280 -9.90659428 13.80512047
vertex 7.02620602 -4.34293890 19.91560936
endloop
endfacet
facet normal 26.29627991 -50.80981827 -21.04611397
outer loop
vertex 7.02620602 -4.34293890 19.91560936
vertex -8.61442280 -9.90659428 13.80512047
vertex 7.02620602 -2.99733353 16.66703033
endloop
endfacet
facet normal 25.70813751 25.37871933 38.88703537
outer loop
vertex 6.14064074 -6.49967718 21.90859985
vertex 7.02620602 -4.34293890 19.91560936
vertex -8.23223686 2.40819120 25.59696579
endloop
endfacet
facet normal 29.12849808 29.37509537 43.32423401
outer loop
vertex -8.23223686 2.40819120 25.59696579
vertex 7.02620602 -4.34293890 19.91560936
vertex -7.27763748 4.82518816 23.31635857
endloop
endfacet
facet normal -57.37101364 12.65256119 -10.60468864
outer loop
vertex -8.23223686 2.40819120 25.59696579
vertex -7.27763748 4.82518816 23.31635857
vertex -8.45409966 -9.26259995 12.87269592
endloop
endfacet
facet normal 8.50221729 -2.04557419 1.80157840
outer loop
vertex -8.45409966 -9.26259995 12.87269592
vertex -7.27763748 4.82518816 23.31635857
vertex -8.61442280 -9.65106964 13.18822956
endloop
endfacet
facet normal -4.38196993 6.05379581 5.22665405
outer loop
vertex -8.45409966 -9.26259995 12.87269592
vertex -8.61442280 -9.65106964 13.18822956
vertex 6.14064074 -6.49967718 21.90859985
endloop
endfacet
facet normal 25.08825111 -37.12915802 -29.03204727
outer loop
vertex 6.14064074 -6.49967718 21.90859985
vertex -8.61442280 -9.65106964 13.18822956
vertex 7.02620602 -4.34293890 19.91560936
endloop
endfacet
facet normal 21.65307236 21.56072235 32.30613708
outer loop
vertex 5.44537687 -8.31648922 23.58711624
vertex 6.14064074 -6.49967718 21.90859985
vertex -8.24942970 2.36326385 25.63847351
endloop
endfacet
facet normal 0.53545386 0.53317183 0.79888701
outer loop
vertex -8.24942970 2.36326385 25.63847351
vertex 6.14064074 -6.49967718 21.90859985
vertex -8.23223686 2.40819120 25.59696579
endloop
endfacet
facet normal -1.05609632 0.22797583 -0.19068606
outer loop
vertex -8.24942970 2.36326385 25.63847351
vertex -8.23223686 2.40819120 25.59696579
vertex -9.35967827 -11.62899017 15.05895615
endloop
endfacet
facet normal -55.62597656 12.00787640 -10.04380608
outer loop
vertex -9.35967827 -11.62899017 15.05895615
vertex -8.23223686 2.40819120 25.59696579
vertex -8.45409966 -9.26259995 12.87269592
endloop
endfacet
facet normal 27.42294312 -40.09062195 -32.03480911
outer loop
vertex -9.35967827 -11.62899017 15.05895615
vertex -8.45409966 -9.26259995 12.87269592
vertex 5.44537687 -8.31648922 23.58711624
endloop
endfacet
facet normal 21.05414963 -30.77985001 -24.59494019
outer loop
vertex 5.44537687 -8.31648922 23.58711624
vertex -8.45409966 -9.26259995 12.87269592
vertex 6.14064074 -6.49967718 21.90859985
endloop
endfacet
facet normal 25.43860435 28.17041206 23.16697121
outer loop
vertex 4.53697300 -9.29974079 25.78020096
vertex 5.44537687 -8.31648922 23.58711624
vertex -8.27189445 2.33895063 25.69270515
endloop
endfacet
facet normal 0.62905562 0.69660866 0.57288277
outer loop
vertex -8.27189445 2.33895063 25.69270515
vertex 5.44537687 -8.31648922 23.58711624
vertex -8.24942970 2.36326385 25.63847351
endloop
endfacet
facet normal -1.01604807 0.29787317 -0.28734174
outer loop
vertex -8.27189445 2.33895063 25.69270515
vertex -8.24942970 2.36326385 25.63847351
vertex -10.54287338 -12.90967178 17.91544342
endloop
endfacet
facet normal -53.51768875 15.68904495 -15.13369274
outer loop
vertex -10.54287338 -12.90967178 17.91544342
vertex -8.24942970 2.36326385 25.63847351
vertex -9.35967827 -11.62899017 15.05895615
endloop
endfacet
facet normal 20.38397217 -52.38093185 -15.04123020
outer loop
vertex -10.54287338 -12.90967178 17.91544342
vertex -9.35967827 -11.62899017 15.05895615
vertex 4.53697300 -9.29974079 25.78020096
endloop
endfacet
facet normal 15.64992142 -40.21575546 -11.54800510
outer loop
vertex 4.53697300 -9.29974079 25.78020096
vertex -9.35967827 -11.62899017 15.05895615
vertex 5.44537687 -8.31648922 23.58711624
endloop
endfacet
facet normal 29.82836342 33.03157806 27.16474152
outer loop
vertex 3.47181082 -10.45266438 28.35173035
vertex 4.53697300 -9.29974079 25.78020096
vertex -9.56019020 0.94450915 28.80292702
endloop
endfacet
facet normal 36.07690430 39.95114136 32.85529327
outer loop
vertex -9.56019020 0.94450915 28.80292702
vertex 4.53697300 -9.29974079 25.78020096
vertex -8.27189445 2.33895063 25.69270515
endloop
endfacet
facet normal -58.27153778 17.08266068 -16.47798920
outer loop
vertex -9.56019020 0.94450915 28.80292702
vertex -8.27189445 2.33895063 25.69270515
vertex -10.31451893 -12.66250324 17.36414719
endloop
endfacet
facet normal 10.32880211 -3.02795458 2.92077613
outer loop
vertex -10.31451893 -12.66250324 17.36414719
vertex -8.27189445 2.33895063 25.69270515
vertex -10.54287338 -12.90967178 17.91544342
endloop
endfacet
facet normal -3.93406057 10.10941505 2.90292048
outer loop
vertex -10.31451893 -12.66250324 17.36414719
vertex -10.54287338 -12.90967178 17.91544342
vertex 3.47181082 -10.45266438 28.35173035
endloop
endfacet
facet normal 18.35050774 -47.15550995 -13.54074860
outer loop
vertex 3.47181082 -10.45266438 28.35173035
vertex -10.54287338 -12.90967178 17.91544342
vertex 4.53697300 -9.29974079 25.78020096
endloop
endfacet
facet normal 15.28786373 15.78305626 38.23405838
outer loop
vertex 2.16432953 -12.24575520 29.61471558
vertex 3.47181082 -10.45266438 28.35173035
vertex -11.51572323 -1.76416683 30.75786591
endloop
endfacet
facet normal 23.50292206 24.59443665 57.58701324
outer loop
vertex -11.51572323 -1.76416683 30.75786591
vertex 3.47181082 -10.45266438 28.35173035
vertex -9.56019020 0.94450915 28.80292702
endloop
endfacet
facet normal -57.39279938 23.70040512 -24.57202339
outer loop
vertex -11.51572323 -1.76416683 30.75786591
vertex -9.56019020 0.94450915 28.80292702
vertex -10.08832169 -12.35240841 17.21123314
endloop
endfacet
facet normal 5.62781000 -2.70276809 2.84395528
outer loop
vertex -10.08832169 -12.35240841 17.21123314
vertex -9.56019020 0.94450915 28.80292702
vertex -10.31451893 -12.66250324 17.36414719
endloop
endfacet
facet normal -3.86256456 4.67923594 3.77535915
outer loop
vertex -10.08832169 -12.35240841 17.21123314
vertex -10.31451893 -12.66250324 17.36414719
vertex 2.16432953 -12.24575520 29.61471558
endloop
endfacet
facet normal 22.49272728 -31.77799034 -21.83082008
outer loop
vertex 2.16432953 -12.24575520 29.61471558
vertex -10.31451893 -12.66250324 17.36414719
vertex 3.47181082 -10.45266438 28.35173035
endloop
endfacet
facet normal 8.76419640 9.08196545 21.60805511
outer loop
vertex 1.43991017 -13.27023888 30.33913422
vertex 2.16432953 -12.24575520 29.61471558
vertex -11.57669544 -1.85039485 30.81883812
endloop
endfacet
facet normal 0.73765719 0.76440269 1.81868935
outer loop
vertex -11.57669544 -1.85039485 30.81883812
vertex 2.16432953 -12.24575520 29.61471558
vertex -11.51572323 -1.76416683 30.75786591
endloop
endfacet
facet normal -1.81368709 0.73893636 -0.76866990
outer loop
vertex -11.57669544 -1.85039485 30.81883812
vertex -11.51572323 -1.76416683 30.75786591
vertex -12.28558350 -15.45980549 19.40849495
endloop
endfacet
facet normal -65.35990906 26.62912369 -27.70064163
outer loop
vertex -12.28558350 -15.45980549 19.40849495
vertex -11.51572323 -1.76416683 30.75786591
vertex -10.08832169 -12.35240841 17.21123314
endloop
endfacet
facet normal 38.77688599 -54.17597961 -37.83950806
outer loop
vertex -12.28558350 -15.45980549 19.40849495
vertex -10.08832169 -12.35240841 17.21123314
vertex 1.43991017 -13.27023888 30.33913422
endloop
endfacet
facet normal 12.78442764 -17.86137199 -12.47537899
outer loop
vertex 1.43991017 -13.27023888 30.33913422
vertex -10.08832169 -12.35240841 17.21123314
vertex 2.16432953 -12.24575520 29.61471558
endloop
endfacet
facet normal 9.92031002 10.98289013 8.66953850
outer loop
vertex 1.12275982 -13.65890121 31.19441223
vertex 1.43991017 -13.27023888 30.33913422
vertex -11.68610573 -2.02021122 31.10691643
endloop
endfacet
facet normal 3.37127090 3.69731712 3.45988131
outer loop
vertex -11.68610573 -2.02021122 31.10691643
vertex 1.43991017 -13.27023888 30.33913422
vertex -11.57669544 -1.85039485 30.81883812
endloop
endfacet
facet normal -5.71350336 1.50513279 -1.28270626
outer loop
vertex -11.68610573 -2.02021122 31.10691643
vertex -11.57669544 -1.85039485 30.81883812
vertex -13.95708656 -17.26883316 23.32965469
endloop
endfacet
facet normal -74.00629425 21.85208702 -21.46577454
outer loop
vertex -13.95708656 -17.26883316 23.32965469
vertex -11.57669544 -1.85039485 30.81883812
vertex -12.28558350 -15.45980549 19.40849495
endloop
endfacet
facet normal 28.38268280 -72.27645111 -21.24584770
outer loop
vertex -13.95708656 -17.26883316 23.32965469
vertex -12.28558350 -15.45980549 19.40849495
vertex 1.12275982 -13.65890121 31.19441223
endloop
endfacet
facet normal 6.12101603 -15.20576859 -4.64016056
outer loop
vertex 1.12275982 -13.65890121 31.19441223
vertex -12.28558350 -15.45980549 19.40849495
vertex 1.43991017 -13.27023888 30.33913422
endloop
endfacet
facet normal 36.98939133 40.96161652 33.68628693
outer loop
vertex -0.19812047 -15.08861160 34.38330078
vertex 1.12275982 -13.65890121 31.19441223
vertex -12.26889896 -2.65102196 32.51390457
endloop
endfacet
facet normal 16.32030678 18.07291412 14.86291981
outer loop
vertex -12.26889896 -2.65102196 32.51390457
vertex 1.12275982 -13.65890121 31.19441223
vertex -11.68610573 -2.02021122 31.10691643
endloop
endfacet
facet normal -26.36061096 7.72777843 -7.45423460
outer loop
vertex -12.26889896 -2.65102196 32.51390457
vertex -11.68610573 -2.02021122 31.10691643
vertex -14.17082500 -17.50018120 23.84566498
endloop
endfacet
facet normal -9.66769981 2.83414936 -2.73382950
outer loop
vertex -14.17082500 -17.50018120 23.84566498
vertex -11.68610573 -2.02021122 31.10691643
vertex -13.95708656 -17.26883316 23.32965469
endloop
endfacet
facet normal 3.68225622 -9.46235752 -2.71711254
outer loop
vertex -14.17082500 -17.50018120 23.84566498
vertex -13.95708656 -17.26883316 23.32965469
vertex -0.19812047 -15.08861160 34.38330078
endloop
endfacet
facet normal 22.75599670 -58.47635269 -16.79152489
outer loop
vertex -0.19812047 -15.08861160 34.38330078
vertex -13.95708656 -17.26883316 23.32965469
vertex 1.12275982 -13.65890121 31.19441223
endloop
endfacet
facet normal 27.26421928 33.52586746 47.01367188
outer loop
vertex -2.61328411 -16.49641037 36.78781891
vertex -0.19812047 -15.08861160 34.38330078
vertex -13.43221378 -3.33672333 33.67765427
endloop
endfacet
facet normal 13.19239330 16.22206116 22.74578094
outer loop
vertex -13.43221378 -3.33672333 33.67765427
vertex -0.19812047 -15.08861160 34.38330078
vertex -12.26889896 -2.65102196 32.51390457
endloop
endfacet
facet normal -23.23655891 12.31392193 -15.97230148
outer loop
vertex -13.43221378 -3.33672333 33.67765427
vertex -12.26889896 -2.65102196 32.51390457
vertex -14.51607132 -17.70557976 24.17671585
endloop
endfacet
facet normal -6.69627142 3.62231207 -4.73596478
outer loop
vertex -14.51607132 -17.70557976 24.17671585
vertex -12.26889896 -2.65102196 32.51390457
vertex -14.17082500 -17.50018120 23.84566498
endloop
endfacet
facet normal 2.99059916 -8.29436493 -2.02735424
outer loop
vertex -14.51607132 -17.70557976 24.17671585
vertex -14.17082500 -17.50018120 23.84566498
vertex -2.61328411 -16.49641037 36.78781891
endloop
endfacet
facet normal 20.63353348 -59.04773712 -13.84642029
outer loop
vertex -2.61328411 -16.49641037 36.78781891
vertex -14.17082500 -17.50018120 23.84566498
vertex -0.19812047 -15.08861160 34.38330078
endloop
endfacet
facet normal 7.69352818 9.45191956 13.23034382
outer loop
vertex -3.29185867 -16.89390945 37.46639252
vertex -2.61328411 -16.49641037 36.78781891
vertex -13.57403374 -3.41979957 33.81947327
endloop
endfacet
facet normal 1.60791290 1.97541320 2.76510215
outer loop
vertex -13.57403374 -3.41979957 33.81947327
vertex -2.61328411 -16.49641037 36.78781891
vertex -13.43221378 -3.33672333 33.67765427
endloop
endfacet
facet normal -2.82707739 1.50113130 -1.94774771
outer loop
vertex -13.57403374 -3.41979957 33.81947327
vertex -13.43221378 -3.33672333 33.67765427
vertex -17.61050987 -19.51826096 27.27115440
endloop
endfacet
facet normal -61.68571472 32.75400162 -42.49885559
outer loop
vertex -17.61050987 -19.51826096 27.27115440
vertex -13.43221378 -3.33672333 33.67765427
vertex -14.51607132 -17.70557976 24.17671585
endloop
endfacet
facet normal 26.60161209 -75.85671997 -17.83425522
outer loop
vertex -17.61050987 -19.51826096 27.27115440
vertex -14.51607132 -17.70557976 24.17671585
vertex -3.29185867 -16.89390945 37.46639252
endloop
endfacet
facet normal 5.83341217 -16.63449097 -3.91083527
outer loop
vertex -3.29185867 -16.89390945 37.46639252
vertex -14.51607132 -17.70557976 24.17671585
vertex -2.61328411 -16.49641037 36.78781891
endloop
endfacet
facet normal 10.92202473 9.52762413 4.36229563
outer loop
vertex -3.61119652 -16.90011024 38.27947235
vertex -3.29185867 -16.89390945 37.46639252
vertex -13.68956470 -3.43536854 34.10487747
endloop
endfacet
facet normal 3.78878880 3.35590816 1.71675980
outer loop
vertex -13.68956470 -3.43536854 34.10487747
vertex -3.29185867 -16.89390945 37.46639252
vertex -13.57403374 -3.41979957 33.81947327
endloop
endfacet
facet normal -4.63115072 1.92561960 -1.76963544
outer loop
vertex -13.68956470 -3.43536854 34.10487747
vertex -13.57403374 -3.41979957 33.81947327
vertex -19.46771812 -19.53144646 31.71149063
endloop
endfacet
facet normal -71.56892395 30.08490372 -29.84497261
outer loop
vertex -19.46771812 -19.53144646 31.71149063
vertex -13.57403374 -3.41979957 33.81947327
vertex -17.61050987 -19.51826096 27.27115440
endloop
endfacet
facet normal 11.77061939 -82.60639954 4.67786312
outer loop
vertex -19.46771812 -19.53144646 31.71149063
vertex -17.61050987 -19.51826096 27.27115440
vertex -3.61119652 -16.90011024 38.27947235
endloop
endfacet
facet normal 2.19702578 -14.89793205 0.74926776
outer loop
vertex -3.61119652 -16.90011024 38.27947235
vertex -17.61050987 -19.51826096 27.27115440
vertex -3.29185867 -16.89390945 37.46639252
endloop
endfacet
facet normal 38.91864395 34.12865448 16.12062263
outer loop
vertex -4.80844355 -16.90011024 41.16988373
vertex -3.61119652 -16.90011024 38.27947235
vertex -15.10145473 -3.43536854 37.51348114
endloop
endfacet
facet normal 45.89596939 40.24723434 19.01073456
outer loop
vertex -15.10145473 -3.43536854 37.51348114
vertex -3.61119652 -16.90011024 38.27947235
vertex -13.68956470 -3.43536854 34.10487747
endloop
endfacet
facet normal -54.86514664 23.07463074 -22.72589111
outer loop
vertex -15.10145473 -3.43536854 37.51348114
vertex -13.68956470 -3.43536854 34.10487747
vertex -19.15428734 -19.53144646 30.95480347
endloop
endfacet
facet normal 12.17969513 -5.12241554 5.04500628
outer loop
vertex -19.15428734 -19.53144646 30.95480347
vertex -13.68956470 -3.43536854 34.10487747
vertex -19.46771812 -19.53144646 31.71149063
endloop
endfacet
facet normal -1.99109828 14.05703735 -0.82474178
outer loop
vertex -19.15428734 -19.53144646 30.95480347
vertex -19.46771812 -19.53144646 31.71149063
vertex -4.80844355 -16.90011024 41.16988373
endloop
endfacet
facet normal 7.60564423 -53.69536591 3.15035939
outer loop
vertex -4.80844355 -16.90011024 41.16988373
vertex -19.46771812 -19.53144646 31.71149063
vertex -3.61119652 -16.90011024 38.27947235
endloop
endfacet
facet normal 21.84795761 26.90434456 37.83755493
outer loop
vertex -6.75714397 -18.02714157 43.09646606
vertex -4.80844355 -16.90011024 41.16988373
vertex -17.57607269 -4.86745739 39.98629761
endloop
endfacet
facet normal 28.05954170 34.50092697 48.06060028
outer loop
vertex -17.57607269 -4.86745739 39.98629761
vertex -4.80844355 -16.90011024 41.16988373
vertex -15.10145473 -3.43536854 37.51348114
endloop
endfacet
facet normal -49.13774109 26.19138145 -34.00525665
outer loop
vertex -17.57607269 -4.86745739 39.98629761
vertex -15.10145473 -3.43536854 37.51348114
vertex -18.65993118 -19.23631668 30.48535728
endloop
endfacet
facet normal 9.49190331 -5.14490938 6.76108360
outer loop
vertex -18.65993118 -19.23631668 30.48535728
vertex -15.10145473 -3.43536854 37.51348114
vertex -19.15428734 -19.53144646 30.95480347
endloop
endfacet
facet normal -4.28955650 11.82209778 2.91510391
outer loop
vertex -18.65993118 -19.23631668 30.48535728
vertex -19.15428734 -19.53144646 30.95480347
vertex -6.75714397 -18.02714157 43.09646606
endloop
endfacet
facet normal 16.58220100 -47.54457855 -11.04052925
outer loop
vertex -6.75714397 -18.02714157 43.09646606
vertex -19.15428734 -19.53144646 30.95480347
vertex -4.80844355 -16.90011024 41.16988373
endloop
endfacet
facet normal 7.69352436 9.45191765 13.23032188
outer loop
vertex -7.43571711 -18.42464066 43.77503967
vertex -6.75714397 -18.02714157 43.09646606
vertex -17.71789360 -4.95053387 40.12811661
endloop
endfacet
facet normal 1.60791135 1.97541654 2.76511693
outer loop
vertex -17.71789360 -4.95053387 40.12811661
vertex -6.75714397 -18.02714157 43.09646606
vertex -17.57607269 -4.86745739 39.98629761
endloop
endfacet
facet normal -2.82707953 1.50113809 -1.94776249
outer loop
vertex -17.71789360 -4.95053387 40.12811661
vertex -17.57607269 -4.86745739 39.98629761
vertex -21.75437164 -21.04899788 33.57979584
endloop
endfacet
facet normal -61.68572998 32.75402832 -42.49888992
outer loop
vertex -21.75437164 -21.04899788 33.57979584
vertex -17.57607269 -4.86745739 39.98629761
vertex -18.65993118 -19.23631668 30.48535728
endloop
endfacet
facet normal 26.60163879 -75.85677338 -17.83423996
outer loop
vertex -21.75437164 -21.04899788 33.57979584
vertex -18.65993118 -19.23631668 30.48535728
vertex -7.43571711 -18.42464066 43.77503967
endloop
endfacet
facet normal 5.83341837 -16.63447762 -3.91083360
outer loop
vertex -7.43571711 -18.42464066 43.77503967
vertex -18.65993118 -19.23631668 30.48535728
vertex -6.75714397 -18.02714157 43.09646606
endloop
endfacet
facet normal 10.92202187 9.52763081 4.36231375
outer loop
vertex -7.75505638 -18.43084145 44.58811951
vertex -7.43571711 -18.42464066 43.77503967
vertex -17.83342552 -4.96610260 40.41352463
endloop
endfacet
facet normal 3.78884006 3.35595179 1.71676993
outer loop
vertex -17.83342552 -4.96610260 40.41352463
vertex -7.43571711 -18.42464066 43.77503967
vertex -17.71789360 -4.95053387 40.12811661
endloop
endfacet
facet normal -4.63121128 1.92564404 -1.76965213
outer loop
vertex -17.83342552 -4.96610260 40.41352463
vertex -17.71789360 -4.95053387 40.12811661
vertex -23.61157799 -21.06217957 38.02013397
endloop
endfacet
facet normal -71.56893921 30.08491135 -29.84496117
outer loop
vertex -23.61157799 -21.06217957 38.02013397
vertex -17.71789360 -4.95053387 40.12811661
vertex -21.75437164 -21.04899788 33.57979584
endloop
endfacet
facet normal 11.77060795 -82.60642242 4.67792177
outer loop
vertex -23.61157799 -21.06217957 38.02013397
vertex -21.75437164 -21.04899788 33.57979584
vertex -7.75505638 -18.43084145 44.58811951
endloop
endfacet
facet normal 2.19703031 -14.89795113 0.74927336
outer loop
vertex -7.75505638 -18.43084145 44.58811951
vertex -21.75437164 -21.04899788 33.57979584
vertex -7.43571711 -18.42464066 43.77503967
endloop
endfacet
facet normal 47.97475815 42.07017899 19.87179565
outer loop
vertex -9.23089600 -18.43084145 48.15111160
vertex -7.75505638 -18.43084145 44.58811951
vertex -18.47888565 -4.96610260 41.97180557
endloop
endfacet
facet normal 20.98184586 18.39946556 8.69095230
outer loop
vertex -18.47888565 -4.96610260 41.97180557
vertex -7.75505638 -18.43084145 44.58811951
vertex -17.83342552 -4.96610260 40.41352463
endloop
endfacet
facet normal -25.08221054 10.54882240 -10.38937569
outer loop
vertex -18.47888565 -4.96610260 41.97180557
vertex -17.83342552 -4.96610260 40.41352463
vertex -23.78096390 -21.06217957 38.42906952
endloop
endfacet
facet normal -6.58225822 2.76829863 -2.72644854
outer loop
vertex -23.78096390 -21.06217957 38.42906952
vertex -17.83342552 -4.96610260 40.41352463
vertex -23.61157799 -21.06217957 38.02013397
endloop
endfacet
facet normal 1.07604766 -7.59681702 0.44571161
outer loop
vertex -23.78096390 -21.06217957 38.42906952
vertex -23.61157799 -21.06217957 38.02013397
vertex -9.23089600 -18.43084145 48.15111160
endloop
endfacet
facet normal 9.37543678 -66.18995667 3.88343310
outer loop
vertex -9.23089600 -18.43084145 48.15111160
vertex -23.61157799 -21.06217957 38.02013397
vertex -7.75505638 -18.43084145 44.58811951
endloop
endfacet
facet normal 36.71829987 42.07019424 36.71833038
outer loop
vertex -11.95789337 -18.43084335 50.87810898
vertex -9.23089600 -18.43084145 48.15111160
vertex -19.67154312 -4.96610165 43.16446304
endloop
endfacet
facet normal 16.05882645 18.39947891 16.05881310
outer loop
vertex -19.67154312 -4.96610165 43.16446304
vertex -9.23089600 -18.43084145 48.15111160
vertex -18.47888565 -4.96610260 41.97180557
endloop
endfacet
facet normal -19.19710350 10.54883385 -19.19711113
outer loop
vertex -19.67154312 -4.96610165 43.16446304
vertex -18.47888565 -4.96610260 41.97180557
vertex -24.09394836 -21.06217957 38.74205399
endloop
endfacet
facet normal -5.03782225 2.76828957 -5.03782225
outer loop
vertex -24.09394836 -21.06217957 38.74205399
vertex -18.47888565 -4.96610260 41.97180557
vertex -23.78096390 -21.06217957 38.42906952
endloop
endfacet
facet normal 0.82356739 -7.59679317 0.82356739
outer loop
vertex -24.09394836 -21.06217957 38.74205399
vertex -23.78096390 -21.06217957 38.42906952
vertex -11.95789337 -18.43084335 50.87810898
endloop
endfacet
facet normal 7.17567062 -66.18997955 7.17562437
outer loop
vertex -11.95789337 -18.43084335 50.87810898
vertex -23.78096390 -21.06217957 38.42906952
vertex -9.23089600 -18.43084145 48.15111160
endloop
endfacet
facet normal 8.29701805 9.50635719 8.29703140
outer loop
vertex -12.57409763 -18.43084335 51.49431229
vertex -11.95789337 -18.43084335 50.87810898
vertex -19.89113617 -4.96610165 43.38405609
endloop
endfacet
facet normal 2.95676374 3.38772678 2.95676374
outer loop
vertex -19.89113617 -4.96610165 43.38405609
vertex -11.95789337 -18.43084335 50.87810898
vertex -19.67154312 -4.96610165 43.16446304
endloop
endfacet
facet normal -3.53458667 1.94225979 -3.53458667
outer loop
vertex -19.89113617 -4.96610165 43.38405609
vertex -19.67154312 -4.96610165 43.16446304
vertex -27.50151825 -21.06217957 42.14962387
endloop
endfacet
facet normal -54.84850693 30.13932228 -54.84850693
outer loop
vertex -27.50151825 -21.06217957 42.14962387
vertex -19.67154312 -4.96610165 43.16446304
vertex -24.09394836 -21.06217957 38.74205399
endloop
endfacet
facet normal 8.96646214 -82.70890808 8.96646214
outer loop
vertex -27.50151825 -21.06217957 42.14962387
vertex -24.09394836 -21.06217957 38.74205399
vertex -12.57409763 -18.43084335 51.49431229
endloop
endfacet
facet normal 1.62143803 -14.95656586 1.62144053
outer loop
vertex -12.57409763 -18.43084335 51.49431229
vertex -24.09394836 -21.06217957 38.74205399
vertex -11.95789337 -18.43084335 50.87810898
endloop
endfacet
facet normal 15.09015656 9.49416828 2.16955113
outer loop
vertex -12.95411873 -18.02714348 52.37089157
vertex -12.57409763 -18.43084335 51.49431229
vertex -19.96776199 -4.86745834 43.56571198
endloop
endfacet
facet normal 3.24597192 1.95063806 0.30997008
outer loop
vertex -19.96776199 -4.86745834 43.56571198
vertex -12.57409763 -18.43084335 51.49431229
vertex -19.89113617 -4.96610165 43.38405609
endloop
endfacet
facet normal -2.87006283 1.46800065 -2.00780368
outer loop
vertex -19.96776199 -4.86745834 43.56571198
vertex -19.89113617 -4.96610165 43.38405609
vertex -29.16025925 -19.23631477 46.20021057
endloop
endfacet
facet normal -62.94465256 32.87411499 -40.59475327
outer loop
vertex -29.16025925 -19.23631477 46.20021057
vertex -19.89113617 -4.96610165 43.38405609
vertex -27.50151825 -21.06217957 42.14962387
endloop
endfacet
facet normal -6.36897612 -75.87994385 31.59592438
outer loop
vertex -29.16025925 -19.23631477 46.20021057
vertex -27.50151825 -21.06217957 42.14962387
vertex -12.95411873 -18.02714348 52.37089157
endloop
endfacet
facet normal -1.46587491 -16.63624573 7.02616119
outer loop
vertex -12.95411873 -18.02714348 52.37089157
vertex -27.50151825 -21.06217957 42.14962387
vertex -12.57409763 -18.43084335 51.49431229
endloop
endfacet
facet normal 43.24094391 26.94656372 5.82972813
outer loop
vertex -14.00109100 -16.89390945 54.89850616
vertex -12.95411873 -18.02714348 52.37089157
vertex -21.30522346 -3.41979980 46.79463196
endloop
endfacet
facet normal 55.23846436 34.42308044 7.44721031
outer loop
vertex -21.30522346 -3.41979980 46.79463196
vertex -12.95411873 -18.02714348 52.37089157
vertex -19.96776199 -4.86745834 43.56571198
endloop
endfacet
facet normal -50.20974350 26.15830040 -32.52539062
outer loop
vertex -21.30522346 -3.41979980 46.79463196
vertex -19.96776199 -4.86745834 43.56571198
vertex -28.89977646 -19.51826096 45.57134628
endloop
endfacet
facet normal 9.77884769 -5.09459162 6.33462906
outer loop
vertex -28.89977646 -19.51826096 45.57134628
vertex -19.96776199 -4.86745834 43.56571198
vertex -29.16025925 -19.23631477 46.20021057
endloop
endfacet
facet normal 0.97939622 11.79881573 -4.88422585
outer loop
vertex -28.89977646 -19.51826096 45.57134628
vertex -29.16025925 -19.23631477 46.20021057
vertex -14.00109100 -16.89390945 54.89850616
endloop
endfacet
facet normal -3.93650675 -47.42340851 19.63131714
outer loop
vertex -14.00109100 -16.89390945 54.89850616
vertex -29.16025925 -19.23631477 46.20021057
vertex -12.95411873 -18.02714348 52.37089157
endloop
endfacet
facet normal 29.87411499 34.10733414 29.66274834
outer loop
vertex -16.20053291 -16.90011024 57.12075043
vertex -14.00109100 -16.89390945 54.89850616
vertex -23.91418076 -3.43536854 49.40710068
endloop
endfacet
facet normal 35.07452393 40.22447968 35.26709366
outer loop
vertex -23.91418076 -3.43536854 49.40710068
vertex -14.00109100 -16.89390945 54.89850616
vertex -21.30522346 -3.41979980 46.79463196
endloop
endfacet
facet normal -42.11935043 23.09128189 -41.92512512
outer loop
vertex -23.91418076 -3.43536854 49.40710068
vertex -21.30522346 -3.41979980 46.79463196
vertex -28.33658981 -19.53144455 44.98469162
endloop
endfacet
facet normal 9.42810917 -5.14431810 9.16656208
outer loop
vertex -28.33658981 -19.53144455 44.98469162
vertex -21.30522346 -3.41979980 46.79463196
vertex -28.89977646 -19.51826096 45.57134628
endloop
endfacet
facet normal -1.38368762 13.95454025 -1.64192915
outer loop
vertex -28.33658981 -19.53144455 44.98469162
vertex -28.89977646 -19.51826096 45.57134628
vertex -16.20053291 -16.90011024 57.12075043
endloop
endfacet
facet normal 5.88978577 -53.62306213 5.67972517
outer loop
vertex -16.20053291 -16.90011024 57.12075043
vertex -28.89977646 -19.51826096 45.57134628
vertex -14.00109100 -16.89390945 54.89850616
endloop
endfacet
facet normal 8.29701805 9.50636578 8.29704380
outer loop
vertex -16.81673813 -16.90011024 57.73695374
vertex -16.20053291 -16.90011024 57.12075043
vertex -24.13377762 -3.43536854 49.62669754
endloop
endfacet
facet normal 2.95681500 3.38778615 2.95681500
outer loop
vertex -24.13377762 -3.43536854 49.62669754
vertex -16.20053291 -16.90011024 57.12075043
vertex -23.91418076 -3.43536854 49.40710068
endloop
endfacet
facet normal -3.53464794 1.94229388 -3.53464794
outer loop
vertex -24.13377762 -3.43536854 49.62669754
vertex -23.91418076 -3.43536854 49.40710068
vertex -31.74416161 -19.53144455 48.39226532
endloop
endfacet
facet normal -54.84856796 30.13936043 -54.84853745
outer loop
vertex -31.74416161 -19.53144455 48.39226532
vertex -23.91418076 -3.43536854 49.40710068
vertex -28.33658981 -19.53144455 44.98469162
endloop
endfacet
facet normal 8.96646595 -82.70899200 8.96646023
outer loop
vertex -31.74416161 -19.53144455 48.39226532
vertex -28.33658981 -19.53144455 44.98469162
vertex -16.81673813 -16.90011024 57.73695374
endloop
endfacet
facet normal 1.62143695 -14.95658112 1.62144196
outer loop
vertex -16.81673813 -16.90011024 57.73695374
vertex -28.33658981 -19.53144455 44.98469162
vertex -16.20053291 -16.90011024 57.12075043
endloop
endfacet
facet normal 15.09015846 9.49414444 2.16951346
outer loop
vertex -17.19675636 -16.49641037 58.61353302
vertex -16.81673813 -16.90011024 57.73695374
vertex -24.21040154 -3.33672333 49.80835342
endloop
endfacet
facet normal 3.24598742 1.95062280 0.30993032
outer loop
vertex -24.21040154 -3.33672333 49.80835342
vertex -16.81673813 -16.90011024 57.73695374
vertex -24.13377762 -3.43536854 49.62669754
endloop
endfacet
facet normal -2.87006807 1.46800530 -2.00779366
outer loop
vertex -24.21040154 -3.33672333 49.80835342
vertex -24.13377762 -3.43536854 49.62669754
vertex -33.40289688 -17.70557976 52.44285202
endloop
endfacet
facet normal -62.94464493 32.87411880 -40.59466171
outer loop
vertex -33.40289688 -17.70557976 52.44285202
vertex -24.13377762 -3.43536854 49.62669754
vertex -31.74416161 -19.53144455 48.39226532
endloop
endfacet
facet normal -6.36898422 -75.87990570 31.59591293
outer loop
vertex -33.40289688 -17.70557976 52.44285202
vertex -31.74416161 -19.53144455 48.39226532
vertex -17.19675636 -16.49641037 58.61353302
endloop
endfacet
facet normal -1.46587658 -16.63622284 7.02615404
outer loop
vertex -17.19675636 -16.49641037 58.61353302
vertex -31.74416161 -19.53144455 48.39226532
vertex -16.81673813 -16.90011024 57.73695374
endloop
endfacet
facet normal 43.24095154 26.94656754 5.82971954
outer loop
vertex -18.24372864 -15.36317539 61.14114761
vertex -17.19675636 -16.49641037 58.61353302
vertex -25.54786301 -1.88906479 53.03727341
endloop
endfacet
facet normal 55.23847198 34.42308807 7.44721127
outer loop
vertex -25.54786301 -1.88906479 53.03727341
vertex -17.19675636 -16.49641037 58.61353302
vertex -24.21040154 -3.33672333 49.80835342
endloop
endfacet
facet normal -50.20973587 26.15829468 -32.52538681
outer loop
vertex -25.54786301 -1.88906479 53.03727341
vertex -24.21040154 -3.33672333 49.80835342
vertex -33.14241409 -17.98752403 51.81398773
endloop
endfacet
facet normal 9.77884293 -5.09459066 6.33461094
outer loop
vertex -33.14241409 -17.98752403 51.81398773
vertex -24.21040154 -3.33672333 49.80835342
vertex -33.40289688 -17.70557976 52.44285202
endloop
endfacet
facet normal 0.97938013 11.79881573 -4.88419676
outer loop
vertex -33.14241409 -17.98752403 51.81398773
vertex -33.40289688 -17.70557976 52.44285202
vertex -18.24372864 -15.36317539 61.14114761
endloop
endfacet
facet normal -3.93651772 -47.42340851 19.63133240
outer loop
vertex -18.24372864 -15.36317539 61.14114761
vertex -33.40289688 -17.70557976 52.44285202
vertex -17.19675636 -16.49641037 58.61353302
endloop
endfacet
facet normal 29.87416649 34.10739899 29.66279984
outer loop
vertex -20.44317436 -15.36937618 63.36339569
vertex -18.24372864 -15.36317539 61.14114761
vertex -28.15682030 -1.90463448 55.64974213
endloop
endfacet
facet normal 35.07452011 40.22448349 35.26710129
outer loop
vertex -28.15682030 -1.90463448 55.64974213
vertex -18.24372864 -15.36317539 61.14114761
vertex -25.54786301 -1.88906479 53.03727341
endloop
endfacet
facet normal -42.11934662 23.09127808 -41.92511749
outer loop
vertex -28.15682030 -1.90463448 55.64974213
vertex -25.54786301 -1.88906479 53.03727341
vertex -32.57923126 -18.00070953 51.22733688
endloop
endfacet
facet normal 9.42804527 -5.14428329 9.16651440
outer loop
vertex -32.57923126 -18.00070953 51.22733688
vertex -25.54786301 -1.88906479 53.03727341
vertex -33.14241409 -17.98752403 51.81398773
endloop
endfacet
facet normal -1.38365400 13.95444775 -1.64194179
outer loop
vertex -32.57923126 -18.00070953 51.22733688
vertex -33.14241409 -17.98752403 51.81398773
vertex -20.44317436 -15.36937618 63.36339569
endloop
endfacet
facet normal 5.88978958 -53.62315750 5.67972851
outer loop
vertex -20.44317436 -15.36937618 63.36339569
vertex -33.14241409 -17.98752403 51.81398773
vertex -18.24372864 -15.36317539 61.14114761
endloop
endfacet
facet normal 25.84005547 29.60641289 25.84010696
outer loop
vertex -22.36226845 -15.36937618 65.28248596
vertex -20.44317436 -15.36937618 63.36339569
vertex -28.18207169 -1.90463448 55.67499161
endloop
endfacet
facet normal 0.33997774 0.38954604 0.34000343
outer loop
vertex -28.18207169 -1.90463448 55.67499161
vertex -20.44317436 -15.36937618 63.36339569
vertex -28.15682030 -1.90463448 55.64974213
endloop
endfacet
facet normal -0.40641755 0.22333118 -0.40644825
outer loop
vertex -28.18207169 -1.90463448 55.67499161
vertex -28.15682030 -1.90463448 55.64974213
vertex -34.86843109 -18.00070953 53.51653290
endloop
endfacet
facet normal -36.84707260 20.24753571 -36.84713364
outer loop
vertex -34.86843109 -18.00070953 53.51653290
vertex -28.15682030 -1.90463448 55.64974213
vertex -32.57923126 -18.00070953 51.22733688
endloop
endfacet
facet normal 6.02363777 -55.56367493 6.02364779
outer loop
vertex -34.86843109 -18.00070953 53.51653290
vertex -32.57923126 -18.00070953 51.22733688
vertex -22.36226845 -15.36937618 65.28248596
endloop
endfacet
facet normal 5.04976606 -46.58042908 5.04977608
outer loop
vertex -22.36226845 -15.36937618 65.28248596
vertex -32.57923126 -18.00070953 51.22733688
vertex -20.44317436 -15.36937618 63.36339569
endloop
endfacet
facet normal 33.85165405 27.35285568 17.82870674
outer loop
vertex -24.13528442 -14.33076763 67.05550385
vertex -22.36226845 -15.36937618 65.28248596
vertex -28.20539856 -1.89096928 55.69831848
endloop
endfacet
facet normal 0.44537866 0.35987061 0.23456156
outer loop
vertex -28.20539856 -1.89096928 55.69831848
vertex -22.36226845 -15.36937618 65.28248596
vertex -28.18207169 -1.90463448 55.67499161
endloop
endfacet
facet normal -0.34597665 0.20632195 -0.46684286
outer loop
vertex -28.20539856 -1.89096928 55.69831848
vertex -28.18207169 -1.90463448 55.67499161
vertex -36.98337555 -16.76180267 55.63147736
endloop
endfacet
facet normal -31.36817551 18.70629883 -42.32608032
outer loop
vertex -36.98337555 -16.76180267 55.63147736
vertex -28.18207169 -1.90463448 55.67499161
vertex -34.86843109 -18.00070953 53.51653290
endloop
endfacet
facet normal -9.01180077 -51.33418274 21.05909348
outer loop
vertex -36.98337555 -16.76180267 55.63147736
vertex -34.86843109 -18.00070953 53.51653290
vertex -24.13528442 -14.33076763 67.05550385
endloop
endfacet
facet normal -7.55481863 -43.03487396 17.65440369
outer loop
vertex -24.13528442 -14.33076763 67.05550385
vertex -34.86843109 -18.00070953 53.51653290
vertex -22.36226845 -15.36937618 65.28248596
endloop
endfacet
facet normal 14.72273731 11.89631271 7.75407982
outer loop
vertex -24.90640640 -13.87905502 67.82662201
vertex -24.13528442 -14.33076763 67.05550385
vertex -28.34108734 -1.81148493 55.83400726
endloop
endfacet
facet normal 2.59065938 2.09331131 1.36443067
outer loop
vertex -28.34108734 -1.81148493 55.83400726
vertex -24.13528442 -14.33076763 67.05550385
vertex -28.20539856 -1.89096928 55.69831848
endloop
endfacet
facet normal -2.01249146 1.20014262 -2.71551609
outer loop
vertex -28.34108734 -1.81148493 55.83400726
vertex -28.20539856 -1.89096928 55.69831848
vertex -39.99525833 -14.99748230 58.64336014
endloop
endfacet
facet normal -44.67127609 26.63955307 -60.27637100
outer loop
vertex -39.99525833 -14.99748230 58.64336014
vertex -28.20539856 -1.89096928 55.69831848
vertex -36.98337555 -16.76180267 55.63147736
endloop
endfacet
facet normal -12.83364296 -73.10476685 29.99014091
outer loop
vertex -39.99525833 -14.99748230 58.64336014
vertex -36.98337555 -16.76180267 55.63147736
vertex -24.90640640 -13.87905502 67.82662201
endloop
endfacet
facet normal -3.28576136 -18.71671295 7.67826939
outer loop
vertex -24.90640640 -13.87905502 67.82662201
vertex -36.98337555 -16.76180267 55.63147736
vertex -24.13528442 -14.33076763 67.05550385
endloop
endfacet
facet normal 26.77028275 9.13054848 1.56517625
outer loop
vertex -25.36663628 -12.71002960 68.87866974
vertex -24.90640640 -13.87905502 67.82662201
vertex -28.33168411 -1.77768278 55.81742096
endloop
endfacet
facet normal 0.20521981 -0.16973796 -0.22957373
outer loop
vertex -28.33168411 -1.77768278 55.81742096
vertex -24.90640640 -13.87905502 67.82662201
vertex -28.34108734 -1.81148493 55.83400726
endloop
endfacet
facet normal -0.02364871 -0.15862380 -0.33667535
outer loop
vertex -28.33168411 -1.77768278 55.81742096
vertex -28.34108734 -1.81148493 55.83400726
vertex -41.10902023 -11.90464211 61.48621750
endloop
endfacet
facet normal -46.17478943 30.00219727 -50.73055267
outer loop
vertex -41.10902023 -11.90464211 61.48621750
vertex -28.34108734 -1.81148493 55.83400726
vertex -39.99525833 -14.99748230 58.64336014
endloop
endfacet
facet normal -25.15327644 -52.98678589 47.79166794
outer loop
vertex -41.10902023 -11.90464211 61.48621750
vertex -39.99525833 -14.99748230 58.64336014
vertex -25.36663628 -12.71002960 68.87866974
endloop
endfacet
facet normal -9.55882740 -20.10060501 18.15398407
outer loop
vertex -25.36663628 -12.71002960 68.87866974
vertex -39.99525833 -14.99748230 58.64336014
vertex -24.90640640 -13.87905502 67.82662201
endloop
endfacet
facet normal 14.90182686 4.97834682 0.78403163
outer loop
vertex -25.61285210 -12.06663799 69.47308350
vertex -25.36663628 -12.71002960 68.87866974
vertex -29.41007423 1.04028749 58.42088699
endloop
endfacet
facet normal 65.26820374 21.80452347 3.43391800
outer loop
vertex -29.41007423 1.04028749 58.42088699
vertex -25.36663628 -12.71002960 68.87866974
vertex -28.33168411 -1.77768278 55.81742096
endloop
endfacet
facet normal -42.33969498 27.15218544 -46.92696762
outer loop
vertex -29.41007423 1.04028749 58.42088699
vertex -28.33168411 -1.77768278 55.81742096
vertex -41.41654205 -11.10104942 62.22864151
endloop
endfacet
facet normal -12.07390022 7.74292278 -13.38203526
outer loop
vertex -41.41654205 -11.10104942 62.22864151
vertex -28.33168411 -1.77768278 55.81742096
vertex -41.10902023 -11.90464211 61.48621750
endloop
endfacet
facet normal -6.53845644 -13.96086311 12.40279007
outer loop
vertex -41.41654205 -11.10104942 62.22864151
vertex -41.10902023 -11.90464211 61.48621750
vertex -25.61285210 -12.06663799 69.47308350
endloop
endfacet
facet normal -5.23497486 -11.17762852 9.93021870
outer loop
vertex -25.61285210 -12.06663799 69.47308350
vertex -41.10902023 -11.90464211 61.48621750
vertex -25.36663628 -12.71002960 68.87866974
endloop
endfacet
facet normal 14.02777863 6.50453663 2.89426422
outer loop
vertex -25.93454933 -11.71843624 70.24972534
vertex -25.61285210 -12.06663799 69.47308350
vertex -30.81905746 2.56536245 61.82247543
endloop
endfacet
facet normal 61.43979263 28.48894501 12.67638969
outer loop
vertex -30.81905746 2.56536245 61.82247543
vertex -25.61285210 -12.06663799 69.47308350
vertex -29.41007423 1.04028749 58.42088699
endloop
endfacet
facet normal -47.10694885 35.47601318 -35.41770935
outer loop
vertex -30.81905746 2.56536245 61.82247543
vertex -29.41007423 1.04028749 58.42088699
vertex -41.81834030 -10.66615200 63.19866180
endloop
endfacet
facet normal -13.43332577 10.11656857 -10.09994984
outer loop
vertex -41.81834030 -10.66615200 63.19866180
vertex -29.41007423 1.04028749 58.42088699
vertex -41.41654205 -11.10104942 62.22864151
endloop
endfacet
facet normal -4.08722639 -18.24070358 6.48501396
outer loop
vertex -41.81834030 -10.66615200 63.19866180
vertex -41.41654205 -11.10104942 62.22864151
vertex -25.93454933 -11.71843624 70.24972534
endloop
endfacet
facet normal -3.27244377 -14.60432339 5.19224548
outer loop
vertex -25.93454933 -11.71843624 70.24972534
vertex -41.41654205 -11.10104942 62.22864151
vertex -25.61285210 -12.06663799 69.47308350
endloop
endfacet
facet normal 26.77770233 12.41651917 5.52483177
outer loop
vertex -26.54863548 -11.05375290 71.73226166
vertex -25.93454933 -11.71843624 70.24972534
vertex -30.75401306 2.49495840 61.66544342
endloop
endfacet
facet normal -2.83632612 -1.31516957 -0.58519197
outer loop
vertex -30.75401306 2.49495840 61.66544342
vertex -25.93454933 -11.71843624 70.24972534
vertex -30.81905746 2.56536245 61.82247543
endloop
endfacet
facet normal 2.17466044 -1.63772798 1.63503075
outer loop
vertex -30.75401306 2.49495840 61.66544342
vertex -30.81905746 2.56536245 61.82247543
vertex -43.37994766 -8.97588062 66.96871185
endloop
endfacet
facet normal -52.20959854 39.31878662 -39.25420380
outer loop
vertex -43.37994766 -8.97588062 66.96871185
vertex -30.81905746 2.56536245 61.82247543
vertex -41.81834030 -10.66615200 63.19866180
endloop
endfacet
facet normal -15.88537407 -70.89368439 25.20466614
outer loop
vertex -43.37994766 -8.97588062 66.96871185
vertex -41.81834030 -10.66615200 63.19866180
vertex -26.54863548 -11.05375290 71.73226166
endloop
endfacet
facet normal -6.24677372 -27.87825775 9.91149807
outer loop
vertex -26.54863548 -11.05375290 71.73226166
vertex -41.81834030 -10.66615200 63.19866180
vertex -25.93454933 -11.71843624 70.24972534
endloop
endfacet
facet normal 36.39210510 6.47254276 -6.44901228
outer loop
vertex -26.54997063 -9.51365280 73.27044678
vertex -26.54863548 -11.05375290 71.73226166
vertex -30.74761772 2.30854607 61.44824600
endloop
endfacet
facet normal -4.81932402 -0.97777790 0.69728565
outer loop
vertex -30.74761772 2.30854607 61.44824600
vertex -26.54863548 -11.05375290 71.73226166
vertex -30.75401306 2.49495840 61.66544342
endloop
endfacet
facet normal 3.38636065 -2.67390394 2.39462137
outer loop
vertex -30.74761772 2.30854607 61.44824600
vertex -30.75401306 2.49495840 61.66544342
vertex -43.30560303 -6.08163834 69.83843231
endloop
endfacet
facet normal -48.26704407 36.62717056 -35.68972015
outer loop
vertex -43.30560303 -6.08163834 69.83843231
vertex -30.75401306 2.49495840 61.66544342
vertex -43.37994766 -8.97588062 66.96871185
endloop
endfacet
facet normal -19.78200340 -47.82882690 48.75001526
outer loop
vertex -43.30560303 -6.08163834 69.83843231
vertex -43.37994766 -8.97588062 66.96871185
vertex -26.54997063 -9.51365280 73.27044678
endloop
endfacet
facet normal -10.53249550 -25.89603424 25.91913223
outer loop
vertex -26.54997063 -9.51365280 73.27044678
vertex -43.37994766 -8.97588062 66.96871185
vertex -26.54863548 -11.05375290 71.73226166
endloop
endfacet
facet normal 9.74388123 1.72985768 -1.72984970
outer loop
vertex -26.54997063 -9.10155296 73.68254852
vertex -26.54997063 -9.51365280 73.27044678
vertex -30.74761772 5.07222843 64.21192932
endloop
endfacet
facet normal 65.34561920 11.60096741 -11.60096359
outer loop
vertex -30.74761772 5.07222843 64.21192932
vertex -26.54997063 -9.51365280 73.27044678
vertex -30.74761772 2.30854607 61.44824600
endloop
endfacet
facet normal -46.37562943 34.70629501 -34.70628357
outer loop
vertex -30.74761772 5.07222843 64.21192932
vertex -30.74761772 2.30854607 61.44824600
vertex -43.30560303 -4.98686886 70.93320465
endloop
endfacet
facet normal -18.37066269 13.74813461 -13.74809933
outer loop
vertex -43.30560303 -4.98686886 70.93320465
vertex -30.74761772 2.30854607 61.44824600
vertex -43.30560303 -6.08163834 69.83843231
endloop
endfacet
facet normal -7.51454020 -18.34360313 18.34355545
outer loop
vertex -43.30560303 -4.98686886 70.93320465
vertex -43.30560303 -6.08163834 69.83843231
vertex -26.54997063 -9.10155296 73.68254852
endloop
endfacet
facet normal -2.82867169 -6.90502548 6.90499353
outer loop
vertex -26.54997063 -9.10155296 73.68254852
vertex -43.30560303 -6.08163834 69.83843231
vertex -26.54997063 -9.51365280 73.27044678
endloop
endfacet
facet normal 9.74375343 2.26012492 -0.93620348
outer loop
vertex -26.54996872 -8.87852955 74.22097778
vertex -26.54997063 -9.10155296 73.68254852
vertex -30.74761772 6.56791973 67.82284546
endloop
endfacet
facet normal 65.34545898 15.15735149 -6.27838421
outer loop
vertex -30.74761772 6.56791973 67.82284546
vertex -26.54997063 -9.10155296 73.68254852
vertex -30.74761772 5.07222843 64.21192932
endloop
endfacet
facet normal -46.37551117 45.34581757 -18.78286362
outer loop
vertex -30.74761772 6.56791973 67.82284546
vertex -30.74761772 5.07222843 64.21192932
vertex -43.30559921 -4.39438534 72.36358643
endloop
endfacet
facet normal -18.37059402 17.96273804 -7.44036102
outer loop
vertex -43.30559921 -4.39438534 72.36358643
vertex -30.74761772 5.07222843 64.21192932
vertex -43.30560303 -4.98686886 70.93320465
endloop
endfacet
facet normal -7.51451206 -23.96693993 9.92745209
outer loop
vertex -43.30559921 -4.39438534 72.36358643
vertex -43.30560303 -4.98686886 70.93320465
vertex -26.54996872 -8.87852955 74.22097778
endloop
endfacet
facet normal -2.82863426 -9.02171707 3.73690605
outer loop
vertex -26.54996872 -8.87852955 74.22097778
vertex -43.30560303 -4.98686886 70.93320465
vertex -26.54997063 -9.10155296 73.68254852
endloop
endfacet
facet normal 12.76314354 2.96050310 -1.22628522
outer loop
vertex -26.54996872 -8.58639336 74.92625427
vertex -26.54996872 -8.87852955 74.22097778
vertex -30.74761772 7.11022663 69.13208771
endloop
endfacet
facet normal 23.69289589 5.49573946 -2.27641392
outer loop
vertex -30.74761772 7.11022663 69.13208771
vertex -26.54996872 -8.87852955 74.22097778
vertex -30.74761772 6.56791973 67.82284546
endloop
endfacet
facet normal -16.81479263 16.44144058 -6.81027985
outer loop
vertex -30.74761772 7.11022663 69.13208771
vertex -30.74761772 6.56791973 67.82284546
vertex -43.30559921 -2.94009066 75.87456512
endloop
endfacet
facet normal -45.09199524 44.09080505 -18.26300621
outer loop
vertex -43.30559921 -2.94009066 75.87456512
vertex -30.74761772 6.56791973 67.82284546
vertex -43.30559921 -4.39438534 72.36358643
endloop
endfacet
facet normal -18.44492531 -58.82866287 24.36762428
outer loop
vertex -43.30559921 -2.94009066 75.87456512
vertex -43.30559921 -4.39438534 72.36358643
vertex -26.54996872 -8.58639336 74.92625427
endloop
endfacet
facet normal -3.70517254 -11.81735229 4.89492607
outer loop
vertex -26.54996872 -8.58639336 74.92625427
vertex -43.30559921 -4.39438534 72.36358643
vertex -26.54996872 -8.87852955 74.22097778
endloop
endfacet
facet normal 13.57807350 1.36305523 -6.10957479
outer loop
vertex -26.25150299 -8.24536037 75.66565704
vertex -26.54996872 -8.58639336 74.92625427
vertex -30.28940964 7.61078262 70.22924042
endloop
endfacet
facet normal 20.12189293 1.95052814 -9.29347706
outer loop
vertex -30.28940964 7.61078262 70.22924042
vertex -26.54996872 -8.58639336 74.92625427
vertex -30.74761772 7.11022663 69.13208771
endloop
endfacet
facet normal -14.43101311 16.88416862 -1.67621613
outer loop
vertex -30.28940964 7.61078262 70.22924042
vertex -30.74761772 7.11022663 69.13208771
vertex -41.95809555 -1.47813308 79.13750458
endloop
endfacet
facet normal -42.65079498 50.06144714 -4.81639576
outer loop
vertex -41.95809555 -1.47813308 79.13750458
vertex -30.74761772 7.11022663 69.13208771
vertex -43.30559921 -2.94009066 75.87456512
endloop
endfacet
facet normal -17.00535965 -55.92798615 32.08123398
outer loop
vertex -41.95809555 -1.47813308 79.13750458
vertex -43.30559921 -2.94009066 75.87456512
vertex -26.25150299 -8.24536037 75.66565704
endloop
endfacet
facet normal -3.85148668 -12.67219830 7.39945078
outer loop
vertex -26.25150299 -8.24536037 75.66565704
vertex -43.30559921 -2.94009066 75.87456512
vertex -26.54996872 -8.58639336 74.92625427
endloop
endfacet
facet normal 24.77730751 2.41910696 -11.34768200
outer loop
vertex -25.69047928 -7.63811302 77.02008820
vertex -26.25150299 -8.24536037 75.66565704
vertex -28.66089249 9.37347794 74.16082764
endloop
endfacet
facet normal 71.92256165 7.02208424 -32.93960190
outer loop
vertex -28.66089249 9.37347794 74.16082764
vertex -26.25150299 -8.24536037 75.66565704
vertex -30.28940964 7.61078262 70.22924042
endloop
endfacet
facet normal -51.43641663 60.38371277 -5.76688194
outer loop
vertex -28.66089249 9.37347794 74.16082764
vertex -30.28940964 7.61078262 70.22924042
vertex -42.00430298 -1.52814746 79.02594757
endloop
endfacet
facet normal 1.45947349 -1.71335173 0.16362661
outer loop
vertex -42.00430298 -1.52814746 79.02594757
vertex -30.28940964 7.61078262 70.22924042
vertex -41.95809555 -1.47813308 79.13750458
endloop
endfacet
facet normal 0.58128762 1.91260695 -1.09825146
outer loop
vertex -42.00430298 -1.52814746 79.02594757
vertex -41.95809555 -1.47813308 79.13750458
vertex -25.69047928 -7.63811302 77.02008820
endloop
endfacet
facet normal -7.05747318 -23.22128868 13.33436108
outer loop
vertex -25.69047928 -7.63811302 77.02008820
vertex -41.95809555 -1.47813308 79.13750458
vertex -26.25150299 -8.24536037 75.66565704
endloop
endfacet
facet normal 29.52666283 5.15362406 0.04409963
outer loop
vertex -25.69374657 -7.63425159 78.75642395
vertex -25.69047928 -7.63811302 77.02008820
vertex -28.66184998 9.37090683 78.75642395
endloop
endfacet
facet normal 78.17105103 13.65355778 0.02392566
outer loop
vertex -28.66184998 9.37090683 78.75642395
vertex -25.69047928 -7.63811302 77.02008820
vertex -28.66089249 9.37347794 74.16082764
endloop
endfacet
facet normal -50.10920334 61.45544052 0.02394236
outer loop
vertex -28.66184998 9.37090683 78.75642395
vertex -28.66089249 9.37347794 74.16082764
vertex -42.03453064 -1.53283656 78.75642395
endloop
endfacet
facet normal 2.96105862 -3.74342537 -0.26696211
outer loop
vertex -42.03453064 -1.53283656 78.75642395
vertex -28.66089249 9.37347794 74.16082764
vertex -42.00430298 -1.52814746 79.02594757
endloop
endfacet
facet normal 1.64447546 4.40422726 -0.26105505
outer loop
vertex -42.03453064 -1.53283656 78.75642395
vertex -42.00430298 -1.52814746 79.02594757
vertex -25.69374657 -7.63425159 78.75642395
endloop
endfacet
facet normal -10.60120583 -28.31972122 0.04303163
outer loop
vertex -25.69374657 -7.63425159 78.75642395
vertex -42.00430298 -1.52814746 79.02594757
vertex -25.69047928 -7.63811302 77.02008820
endloop
endfacet
facet normal 55.85798264 9.74952888 0.00000000
outer loop
vertex -25.69374657 -7.63425159 82.04119110
vertex -25.69374657 -7.63425159 78.75642395
vertex -28.66184998 9.37090683 81.45079803
endloop
endfacet
facet normal 45.81825638 7.99718094 0.00000000
outer loop
vertex -28.66184998 9.37090683 81.45079803
vertex -25.69374657 -7.63425159 78.75642395
vertex -28.66184998 9.37090683 78.75642395
endloop
endfacet
facet normal -29.37876511 36.03100586 0.00000000
outer loop
vertex -28.66184998 9.37090683 81.45079803
vertex -28.66184998 9.37090683 78.75642395
vertex -42.03453064 -1.53283656 78.79080963
endloop
endfacet
facet normal -0.37493265 0.45982873 0.00000000
outer loop
vertex -42.03453064 -1.53283656 78.79080963
vertex -28.66184998 9.37090683 78.75642395
vertex -42.03453064 -1.53283656 78.75642395
endloop
endfacet
facet normal -0.20980132 -0.56188899 -0.00000000
outer loop
vertex -42.03453064 -1.53283656 78.79080963
vertex -42.03453064 -1.53283656 78.75642395
vertex -25.69374657 -7.63425159 82.04119110
endloop
endfacet
facet normal -20.04172897 -53.67567062 -0.00000000
outer loop
vertex -25.69374657 -7.63425159 82.04119110
vertex -42.03453064 -1.53283656 78.75642395
vertex -25.69374657 -7.63425159 78.75642395
endloop
endfacet
facet normal 51.60617828 9.74955750 21.37593842
outer loop
vertex -26.95077324 -7.63425159 85.07592773
vertex -25.69374657 -7.63425159 82.04119110
vertex -29.69294357 9.37090778 83.94007874
endloop
endfacet
facet normal 42.33061600 7.99719286 17.53390694
outer loop
vertex -29.69294357 9.37090778 83.94007874
vertex -25.69374657 -7.63425159 82.04119110
vertex -28.66184998 9.37090683 81.45079803
endloop
endfacet
facet normal -27.14247513 36.03105545 -11.24279308
outer loop
vertex -29.69294357 9.37090778 83.94007874
vertex -28.66184998 9.37090683 81.45079803
vertex -42.04769135 -1.53283691 78.82257843
endloop
endfacet
facet normal -0.34639978 0.45984134 -0.14349617
outer loop
vertex -42.04769135 -1.53283691 78.82257843
vertex -28.66184998 9.37090683 81.45079803
vertex -42.03453064 -1.53283656 78.79080963
endloop
endfacet
facet normal -0.19383238 -0.56190944 -0.08030432
outer loop
vertex -42.04769135 -1.53283691 78.82257843
vertex -42.03453064 -1.53283656 78.79080963
vertex -26.95077324 -7.63425159 85.07592773
endloop
endfacet
facet normal -18.51618767 -53.67579269 -7.66964149
outer loop
vertex -26.95077324 -7.63425159 85.07592773
vertex -42.03453064 -1.53283656 78.79080963
vertex -25.69374657 -7.63425159 82.04119110
endloop
endfacet
facet normal 35.56160736 6.71837997 14.73008728
outer loop
vertex -27.81698608 -7.63425159 87.16715240
vertex -26.95077324 -7.63425159 85.07592773
vertex -29.46529198 9.37090778 83.39048004
endloop
endfacet
facet normal -9.34601307 -1.76567113 -3.87125158
outer loop
vertex -29.46529198 9.37090778 83.39048004
vertex -26.95077324 -7.63425159 85.07592773
vertex -29.69294357 9.37090778 83.94007874
endloop
endfacet
facet normal 5.99268389 -7.95515823 2.48225498
outer loop
vertex -29.46529198 9.37090778 83.39048004
vertex -29.69294357 9.37090778 83.94007874
vertex -43.68423080 -1.53283691 82.77353668
endloop
endfacet
facet normal -43.08023834 57.18808365 -17.84440804
outer loop
vertex -43.68423080 -1.53283691 82.77353668
vertex -29.69294357 9.37090778 83.94007874
vertex -42.04769135 -1.53283691 78.82257843
endloop
endfacet
facet normal -24.10643387 -69.88114929 -9.98520565
outer loop
vertex -43.68423080 -1.53283691 82.77353668
vertex -42.04769135 -1.53283691 78.82257843
vertex -27.81698608 -7.63425159 87.16715240
endloop
endfacet
facet normal -12.75942898 -36.98777771 -5.28512383
outer loop
vertex -27.81698608 -7.63425159 87.16715240
vertex -42.04769135 -1.53283691 78.82257843
vertex -26.95077324 -7.63425159 85.07592773
endloop
endfacet
facet normal 41.41274261 3.66169024 -1.56451404
outer loop
vertex -27.81402016 -6.71462679 89.39801025
vertex -27.81698608 -7.63425159 87.16715240
vertex -29.46413422 9.14151859 82.83018494
endloop
endfacet
facet normal -10.39423466 -0.92791021 0.35841566
outer loop
vertex -29.46413422 9.14151859 82.83018494
vertex -27.81698608 -7.63425159 87.16715240
vertex -29.46529198 9.37090778 83.39048004
endloop
endfacet
facet normal 5.95606899 -7.94595242 3.26544237
outer loop
vertex -29.46413422 9.14151859 82.83018494
vertex -29.46529198 9.37090778 83.39048004
vertex -43.65364075 0.05260038 86.59493256
endloop
endfacet
facet normal -40.68940353 54.31732559 -22.20969009
outer loop
vertex -43.65364075 0.05260038 86.59493256
vertex -29.46529198 9.37090778 83.39048004
vertex -43.68423080 -1.53283691 82.77353668
endloop
endfacet
facet normal -30.30435753 -60.44371414 25.31973648
outer loop
vertex -43.65364075 0.05260038 86.59493256
vertex -43.68423080 -1.53283691 82.77353668
vertex -27.81402016 -6.71462679 89.39801025
endloop
endfacet
facet normal -17.65186691 -35.38453293 14.61000824
outer loop
vertex -27.81402016 -6.71462679 89.39801025
vertex -43.68423080 -1.53283691 82.77353668
vertex -27.81698608 -7.63425159 87.16715240
endloop
endfacet
facet normal 46.35144043 4.11727810 -1.70543408
outer loop
vertex -27.81402016 -5.68110180 91.89315796
vertex -27.81402016 -6.71462679 89.39801025
vertex -29.46413422 8.91312504 82.27879333
endloop
endfacet
facet normal -10.24299431 -0.90985906 0.37687543
outer loop
vertex -29.46413422 8.91312504 82.27879333
vertex -27.81402016 -6.71462679 89.39801025
vertex -29.46413422 9.14151859 82.83018494
endloop
endfacet
facet normal 5.87139654 -7.82397461 3.24079180
outer loop
vertex -29.46413422 8.91312504 82.27879333
vertex -29.46413422 9.14151859 82.83018494
vertex -43.65364075 1.52013600 90.13787842
endloop
endfacet
facet normal -37.72644806 50.27265167 -20.82360649
outer loop
vertex -43.65364075 1.52013600 90.13787842
vertex -29.46413422 9.14151859 82.83018494
vertex -43.65364075 0.05260038 86.59493256
endloop
endfacet
facet normal -28.08953094 -56.11891937 23.24520683
outer loop
vertex -43.65364075 1.52013600 90.13787842
vertex -43.65364075 0.05260038 86.59493256
vertex -27.81402016 -5.68110180 91.89315796
endloop
endfacet
facet normal -19.78228188 -39.52219391 16.37064362
outer loop
vertex -27.81402016 -5.68110180 91.89315796
vertex -43.65364075 0.05260038 86.59493256
vertex -27.81402016 -6.71462679 89.39801025
endloop
endfacet
facet normal 49.99560547 -4.81712246 -15.92680168
outer loop
vertex -26.96497726 -3.53514671 93.90932465
vertex -27.81402016 -5.68110180 91.89315796
vertex -29.61322784 8.52993774 81.94710541
endloop
endfacet
facet normal -8.52483082 0.88611764 2.80820894
outer loop
vertex -29.61322784 8.52993774 81.94710541
vertex -27.81402016 -5.68110180 91.89315796
vertex -29.46413422 8.91312504 82.27879333
endloop
endfacet
facet normal 5.51200438 -5.87936068 4.31457233
outer loop
vertex -29.61322784 8.52993774 81.94710541
vertex -29.46413422 8.91312504 82.27879333
vertex -42.66615295 3.92113805 92.34233856
endloop
endfacet
facet normal -35.16722870 39.04095459 -26.76854706
outer loop
vertex -42.66615295 3.92113805 92.34233856
vertex -29.46413422 8.91312504 82.27879333
vertex -43.65364075 1.52013600 90.13787842
endloop
endfacet
facet normal -20.19941902 -33.06523895 45.06154633
outer loop
vertex -42.66615295 3.92113805 92.34233856
vertex -43.65364075 1.52013600 90.13787842
vertex -26.96497726 -3.53514671 93.90932465
endloop
endfacet
facet normal -18.28564644 -30.44500923 40.10527420
outer loop
vertex -26.96497726 -3.53514671 93.90932465
vertex -43.65364075 1.52013600 90.13787842
vertex -27.81402016 -5.68110180 91.89315796
endloop
endfacet
facet normal 15.23385048 -1.40485811 -4.78948641
outer loop
vertex -26.71270370 -2.87592554 94.51836395
vertex -26.96497726 -3.53514671 93.90932465
vertex -28.38916779 11.72856140 84.90225220
endloop
endfacet
facet normal 73.91673279 -6.81650591 -23.23914337
outer loop
vertex -28.38916779 11.72856140 84.90225220
vertex -26.96497726 -3.53514671 93.90932465
vertex -29.61322784 8.52993774 81.94710541
endloop
endfacet
facet normal -46.87012482 51.29769897 -36.10994339
outer loop
vertex -28.38916779 11.72856140 84.90225220
vertex -29.61322784 8.52993774 81.94710541
vertex -42.50255585 4.34863424 92.73729706
endloop
endfacet
facet normal -6.26420689 6.85599375 -4.82608938
outer loop
vertex -42.50255585 4.34863424 92.73729706
vertex -29.61322784 8.52993774 81.94710541
vertex -42.66615295 3.92113805 92.34233856
endloop
endfacet
facet normal -3.61480045 -5.94495869 7.93201876
outer loop
vertex -42.50255585 4.34863424 92.73729706
vertex -42.66615295 3.92113805 92.34233856
vertex -26.71270370 -2.87592554 94.51836395
endloop
endfacet
facet normal -5.57416105 -9.16732407 12.23157120
outer loop
vertex -26.71270370 -2.87592554 94.51836395
vertex -42.66615295 3.92113805 92.34233856
vertex -26.96497726 -3.53514671 93.90932465
endloop
endfacet
facet normal 22.26016808 2.08510828 -0.55880988
outer loop
vertex -26.73162460 -2.35546494 95.70666504
vertex -26.71270370 -2.87592554 94.51836395
vertex -28.38174438 13.50067902 89.13883972
endloop
endfacet
facet normal 78.91406250 7.03110266 -3.07930660
outer loop
vertex -28.38174438 13.50067902 89.13883972
vertex -26.71270370 -2.87592554 94.51836395
vertex -28.38916779 11.72856140 84.90225220
endloop
endfacet
facet normal -45.17758179 60.14301682 -25.07799721
outer loop
vertex -28.38174438 13.50067902 89.13883972
vertex -28.38916779 11.72856140 84.90225220
vertex -42.57124710 4.41176176 92.90359497
endloop
endfacet
facet normal -1.72187340 1.80882788 -1.39787960
outer loop
vertex -42.57124710 4.41176176 92.90359497
vertex -28.38916779 11.72856140 84.90225220
vertex -42.50255585 4.34863424 92.73729706
endloop
endfacet
facet normal -1.30232644 -2.82664251 0.53506678
outer loop
vertex -42.57124710 4.41176176 92.90359497
vertex -42.50255585 4.34863424 92.73729706
vertex -26.73162460 -2.35546494 95.70666504
endloop
endfacet
facet normal -9.51192760 -18.79679680 8.08130074
outer loop
vertex -26.73162460 -2.35546494 95.70666504
vertex -42.50255585 4.34863424 92.73729706
vertex -26.71270370 -2.87592554 94.51836395
endloop
endfacet
facet normal 46.35129547 4.11728001 -1.70543551
outer loop
vertex -26.73162460 -1.32194269 98.20180511
vertex -26.73162460 -2.35546494 95.70666504
vertex -28.38174438 13.27228260 88.58744049
endloop
endfacet
facet normal -10.24313354 -0.90987480 0.37688145
outer loop
vertex -28.38174438 13.27228260 88.58744049
vertex -26.73162460 -2.35546494 95.70666504
vertex -28.38174438 13.50067902 89.13883972
endloop
endfacet
facet normal 5.87147570 -7.82408094 3.24083161
outer loop
vertex -28.38174438 13.27228260 88.58744049
vertex -28.38174438 13.50067902 89.13883972
vertex -42.57124710 5.87929249 96.44652557
endloop
endfacet
facet normal -37.72629547 50.27242279 -20.82353210
outer loop
vertex -42.57124710 5.87929249 96.44652557
vertex -28.38174438 13.50067902 89.13883972
vertex -42.57124710 4.41176176 92.90359497
endloop
endfacet
facet normal -28.08940506 -56.11868286 23.24513245
outer loop
vertex -42.57124710 5.87929249 96.44652557
vertex -42.57124710 4.41176176 92.90359497
vertex -26.73162460 -1.32194269 98.20180511
endloop
endfacet
facet normal -19.78221512 -39.52207565 16.37060165
outer loop
vertex -26.73162460 -1.32194269 98.20180511
vertex -42.57124710 4.41176176 92.90359497
vertex -26.73162460 -2.35546494 95.70666504
endloop
endfacet
facet normal 49.99563599 -4.81709957 -15.92678642
outer loop
vertex -25.88258362 0.82401419 100.21797180
vertex -26.73162460 -1.32194269 98.20180511
vertex -28.53083420 12.88910294 88.25575256
endloop
endfacet
facet normal -8.52475739 0.88607895 2.80814266
outer loop
vertex -28.53083420 12.88910294 88.25575256
vertex -26.73162460 -1.32194269 98.20180511
vertex -28.38174438 13.27228260 88.58744049
endloop
endfacet
facet normal 5.51192713 -5.87932110 4.31448936
outer loop
vertex -28.53083420 12.88910294 88.25575256
vertex -28.38174438 13.27228260 88.58744049
vertex -41.58375931 8.28029728 98.65098572
endloop
endfacet
facet normal -35.16725159 39.04094315 -26.76857758
outer loop
vertex -41.58375931 8.28029728 98.65098572
vertex -28.38174438 13.27228260 88.58744049
vertex -42.57124710 5.87929249 96.44652557
endloop
endfacet
facet normal -20.19941902 -33.06523895 45.06158447
outer loop
vertex -41.58375931 8.28029728 98.65098572
vertex -42.57124710 5.87929249 96.44652557
vertex -25.88258362 0.82401419 100.21797180
endloop
endfacet
facet normal -18.28564453 -30.44501686 40.10528946
outer loop
vertex -25.88258362 0.82401419 100.21797180
vertex -42.57124710 5.87929249 96.44652557
vertex -26.73162460 -1.32194269 98.20180511
endloop
endfacet
facet normal 15.23385620 -1.40486002 -4.78948689
outer loop
vertex -25.63031006 1.48323512 100.82701111
vertex -25.88258362 0.82401419 100.21797180
vertex -27.30677414 16.08772659 91.21089172
endloop
endfacet
facet normal 73.91664886 -6.81652546 -23.23915100
outer loop
vertex -27.30677414 16.08772659 91.21089172
vertex -25.88258362 0.82401419 100.21797180
vertex -28.53083420 12.88910294 88.25575256
endloop
endfacet
facet normal -46.87010956 51.29760361 -36.10993576
outer loop
vertex -27.30677414 16.08772659 91.21089172
vertex -28.53083420 12.88910294 88.25575256
vertex -41.42016220 8.70779419 99.04594421
endloop
endfacet
facet normal -6.26421690 6.85599375 -4.82609797
outer loop
vertex -41.42016220 8.70779419 99.04594421
vertex -28.53083420 12.88910294 88.25575256
vertex -41.58375931 8.28029728 98.65098572
endloop
endfacet
facet normal -3.61480141 -5.94495869 7.93202972
outer loop
vertex -41.42016220 8.70779419 99.04594421
vertex -41.58375931 8.28029728 98.65098572
vertex -25.63031006 1.48323512 100.82701111
endloop
endfacet
facet normal -5.57415962 -9.16732407 12.23156643
outer loop
vertex -25.63031006 1.48323512 100.82701111
vertex -41.58375931 8.28029728 98.65098572
vertex -25.88258362 0.82401419 100.21797180
endloop
endfacet
facet normal 22.26019287 2.08512902 -0.55875248
outer loop
vertex -25.64923477 2.00369883 102.01531219
vertex -25.63031006 1.48323512 100.82701111
vertex -27.29935074 17.85984230 95.44747925
endloop
endfacet
facet normal 78.91408539 7.03110218 -3.07930326
outer loop
vertex -27.29935074 17.85984230 95.44747925
vertex -25.63031006 1.48323512 100.82701111
vertex -27.30677414 16.08772659 91.21089172
endloop
endfacet
facet normal -45.17759705 60.14301682 -25.07797050
outer loop
vertex -27.29935074 17.85984230 95.44747925
vertex -27.30677414 16.08772659 91.21089172
vertex -41.48885345 8.77091980 99.21223450
endloop
endfacet
facet normal -1.72180355 1.80871964 -1.39785302
outer loop
vertex -41.48885345 8.77091980 99.21223450
vertex -27.30677414 16.08772659 91.21089172
vertex -41.42016220 8.70779419 99.04594421
endloop
endfacet
facet normal -1.30226898 -2.82652164 0.53503668
outer loop
vertex -41.48885345 8.77091980 99.21223450
vertex -41.42016220 8.70779419 99.04594421
vertex -25.64923477 2.00369883 102.01531219
endloop
endfacet
facet normal -9.51193237 -18.79680443 8.08132267
outer loop
vertex -25.64923477 2.00369883 102.01531219
vertex -41.42016220 8.70779419 99.04594421
vertex -25.63031006 1.48323512 100.82701111
endloop
endfacet
facet normal 0.00007248 -33.43681335 -80.72358704
outer loop
vertex -31.51865959 9.48369026 98.91699219
vertex -27.29935074 17.85984230 95.44747925
vertex -25.64923477 2.00369883 102.01531219
endloop
endfacet
facet normal -0.00002813 -33.34599686 -80.50445557
outer loop
vertex -31.51865959 9.48369026 98.91699219
vertex -41.48885345 8.77091980 99.21223450
vertex -27.29935074 17.85984230 95.44747925
endloop
endfacet
facet normal -0.00001907 -32.62375641 -78.76052094
outer loop
vertex -31.51865959 9.48369026 98.91699219
vertex -25.64923477 2.00369883 102.01531219
vertex -41.48885345 8.77091980 99.21223450
endloop
endfacet
endsolid