solid (null).stl
facet normal 0.00000000 -0.00000000 86.60253906
outer loop
vertex 0.00000000 0.00000000 0.00000000
vertex 10.00000000 0.00000000 0.00000000
vertex -5.00000048 8.66025352 0.00000000
endloop
endfacet
facet normal 0.00000000 0.00000000 86.60253906
outer loop
vertex 0.00000000 0.00000000 0.00000000
vertex -5.00000048 8.66025352 0.00000000
vertex -4.99999905 -8.66025448 0.00000000
endloop
endfacet
facet normal -0.00000000 0.00000000 86.60254669
outer loop
vertex 0.00000000 0.00000000 0.00000000
vertex -4.99999905 -8.66025448 0.00000000
vertex 10.00000000 0.00000000 0.00000000
endloop
endfacet
facet normal 17.32050705 30.00000000 0.00000000
outer loop
vertex 10.00000000 0.00000000 2.00000000
vertex 10.00000000 0.00000000 0.00000000
vertex -5.00000048 8.66025352 2.00000000
endloop
endfacet
facet normal 17.32050705 30.00000000 0.00000000
outer loop
vertex -5.00000048 8.66025352 2.00000000
vertex 10.00000000 0.00000000 0.00000000
vertex -5.00000048 8.66025352 0.00000000
endloop
endfacet
facet normal -34.64101410 -0.00000286 -0.00000000
outer loop
vertex -5.00000048 8.66025352 2.00000000
vertex -5.00000048 8.66025352 0.00000000
vertex -4.99999905 -8.66025448 2.00000000
endloop
endfacet
facet normal -34.64101410 -0.00000286 -0.00000000
outer loop
vertex -4.99999905 -8.66025448 2.00000000
vertex -5.00000048 8.66025352 0.00000000
vertex -4.99999905 -8.66025448 0.00000000
endloop
endfacet
facet normal 17.32050896 -29.99999809 0.00000000
outer loop
vertex -4.99999905 -8.66025448 2.00000000
vertex -4.99999905 -8.66025448 0.00000000
vertex 10.00000000 0.00000000 2.00000000
endloop
endfacet
facet normal 17.32050896 -29.99999809 0.00000000
outer loop
vertex 10.00000000 0.00000000 2.00000000
vertex -4.99999905 -8.66025448 0.00000000
vertex 10.00000000 0.00000000 0.00000000
endloop
endfacet
facet normal 34.54681778 59.83684921 0.00000000
outer loop
vertex 10.00000000 0.00000000 5.98912334
vertex 10.00000000 0.00000000 2.00000000
vertex -5.00000048 8.66025352 4.76181793
endloop
endfacet
facet normal 23.91804314 41.42726898 0.00000000
outer loop
vertex -5.00000048 8.66025352 4.76181793
vertex 10.00000000 0.00000000 2.00000000
vertex -5.00000048 8.66025352 2.00000000
endloop
endfacet
facet normal -47.83608627 -0.00000395 -0.00000000
outer loop
vertex -5.00000048 8.66025352 4.76181793
vertex -5.00000048 8.66025352 2.00000000
vertex -4.99999905 -8.66025448 1.24905825
endloop
endfacet
facet normal 13.00669193 0.00000107 -0.00000000
outer loop
vertex -4.99999905 -8.66025448 1.24905825
vertex -5.00000048 8.66025352 2.00000000
vertex -4.99999905 -8.66025448 2.00000000
endloop
endfacet
facet normal -6.50334692 11.26412582 0.00000000
outer loop
vertex -4.99999905 -8.66025448 1.24905825
vertex -4.99999905 -8.66025448 2.00000000
vertex 10.00000000 0.00000000 5.98912334
endloop
endfacet
facet normal 34.54682159 -59.83684540 0.00000000
outer loop
vertex 10.00000000 0.00000000 5.98912334
vertex -4.99999905 -8.66025448 2.00000000
vertex 10.00000000 0.00000000 2.00000000
endloop
endfacet
facet normal 26.51861763 50.61960983 33.97267914
outer loop
vertex 8.61619282 -1.46659970 9.25455189
vertex 10.00000000 0.00000000 5.98912334
vertex -6.02986145 7.56123304 7.23550987
endloop
endfacet
facet normal 20.07396507 38.36933517 25.40416336
outer loop
vertex -6.02986145 7.56123304 7.23550987
vertex 10.00000000 0.00000000 5.98912334
vertex -5.00000048 8.66025352 4.76181793
endloop
endfacet
facet normal -46.68845749 3.61378741 -17.83204651
outer loop
vertex -6.02986145 7.56123304 7.23550987
vertex -5.00000048 8.66025352 4.76181793
vertex -4.73866034 -8.37586021 0.62508249
endloop
endfacet
facet normal 11.80658627 -0.91801924 4.52651978
outer loop
vertex -4.73866034 -8.37586021 0.62508249
vertex -5.00000048 8.66025352 4.76181793
vertex -4.99999905 -8.66025448 1.24905825
endloop
endfacet
facet normal -6.76538277 10.58831787 1.99238622
outer loop
vertex -4.73866034 -8.37586021 0.62508249
vertex -4.99999905 -8.66025448 1.24905825
vertex 8.61619282 -1.46659970 9.25455189
endloop
endfacet
facet normal 35.23122025 -55.54076004 -10.01487160
outer loop
vertex 8.61619282 -1.46659970 9.25455189
vertex -4.99999905 -8.66025448 1.24905825
vertex 10.00000000 0.00000000 5.98912334
endloop
endfacet
facet normal 1.16191816 2.21471119 1.47422540
outer loop
vertex 8.55694103 -1.53073370 9.39759922
vertex 8.61619282 -1.46659970 9.25455189
vertex -6.41978979 7.13917732 8.17688084
endloop
endfacet
facet normal 7.64639139 14.57465172 9.70165825
outer loop
vertex -6.41978979 7.13917732 8.17688084
vertex 8.61619282 -1.46659970 9.25455189
vertex -6.02986145 7.56123304 7.23550987
endloop
endfacet
facet normal -17.79268646 1.36209452 -6.75928211
outer loop
vertex -6.41978979 7.13917732 8.17688084
vertex -6.02986145 7.56123304 7.23550987
vertex -6.41186714 -10.18692684 4.66456175
endloop
endfacet
facet normal -76.34947968 5.84483194 -29.00450325
outer loop
vertex -6.41186714 -10.18692684 4.66456175
vertex -6.02986145 7.56123304 7.23550987
vertex -4.73866034 -8.37586021 0.62508249
endloop
endfacet
facet normal 43.53835678 -68.38554382 -12.62590790
outer loop
vertex -6.41186714 -10.18692684 4.66456175
vertex -4.73866034 -8.37586021 0.62508249
vertex 8.55694103 -1.53073370 9.39759922
endloop
endfacet
facet normal 1.54179370 -2.42168760 -0.44711414
outer loop
vertex 8.55694103 -1.53073370 9.39759922
vertex -4.73866034 -8.37586021 0.62508249
vertex 8.61619282 -1.46659970 9.25455189
endloop
endfacet
facet normal 0.14388113 0.24920942 -0.24981186
outer loop
vertex 8.58578682 -1.53073370 9.41421318
vertex 8.55694103 -1.53073370 9.39759922
vertex -6.41421413 7.12952042 9.41421318
endloop
endfacet
facet normal 10.71577358 18.52438736 0.09628844
outer loop
vertex -6.41421413 7.12952042 9.41421318
vertex 8.55694103 -1.53073370 9.39759922
vertex -6.41978979 7.13917732 8.17688084
endloop
endfacet
facet normal -21.43122673 -0.00000236 0.09657320
outer loop
vertex -6.41421413 7.12952042 9.41421318
vertex -6.41978979 7.13917732 8.17688084
vertex -6.41421223 -10.19098854 9.41421318
endloop
endfacet
facet normal -82.30722046 -0.02939313 -0.04066337
outer loop
vertex -6.41421223 -10.19098854 9.41421318
vertex -6.41978979 7.13917732 8.17688084
vertex -6.41186714 -10.18692684 4.66456175
endloop
endfacet
facet normal 41.13319016 -71.24476624 -0.04061645
outer loop
vertex -6.41421223 -10.19098854 9.41421318
vertex -6.41186714 -10.18692684 4.66456175
vertex 8.58578682 -1.53073370 9.41421318
endloop
endfacet
facet normal 0.14381364 -0.11216299 -0.24969469
outer loop
vertex 8.58578682 -1.53073370 9.41421318
vertex -6.41186714 -10.18692684 4.66456175
vertex 8.55694103 -1.53073370 9.39759922
endloop
endfacet
facet normal 34.54682159 59.83685303 0.00000000
outer loop
vertex 8.58578682 -1.53073370 13.40333652
vertex 8.58578682 -1.53073370 9.41421318
vertex -6.41421413 7.12952042 12.17603111
endloop
endfacet
facet normal 23.91804695 41.42727280 0.00000000
outer loop
vertex -6.41421413 7.12952042 12.17603111
vertex 8.58578682 -1.53073370 9.41421318
vertex -6.41421413 7.12952042 9.41421318
endloop
endfacet
facet normal -47.83609390 -0.00000527 -0.00000000
outer loop
vertex -6.41421413 7.12952042 12.17603111
vertex -6.41421413 7.12952042 9.41421318
vertex -6.41421223 -10.19098854 8.66327095
endloop
endfacet
facet normal 13.00670147 0.00000143 -0.00000000
outer loop
vertex -6.41421223 -10.19098854 8.66327095
vertex -6.41421413 7.12952042 9.41421318
vertex -6.41421223 -10.19098854 9.41421318
endloop
endfacet
facet normal -6.50335073 11.26413250 0.00000000
outer loop
vertex -6.41421223 -10.19098854 8.66327095
vertex -6.41421223 -10.19098854 9.41421318
vertex 8.58578682 -1.53073370 13.40333652
endloop
endfacet
facet normal 34.54682159 -59.83684540 0.00000000
outer loop
vertex 8.58578682 -1.53073370 13.40333652
vertex -6.41421223 -10.19098854 9.41421318
vertex 8.58578682 -1.53073370 9.41421318
endloop
endfacet
facet normal 26.51861000 50.61959076 33.97267914
outer loop
vertex 7.20197916 -2.99733329 16.66876411
vertex 8.58578682 -1.53073370 13.40333652
vertex -7.44407415 6.03049946 14.64972305
endloop
endfacet
facet normal 20.07396507 38.36933517 25.40416527
outer loop
vertex -7.44407415 6.03049946 14.64972305
vertex 8.58578682 -1.53073370 13.40333652
vertex -6.41421413 7.12952042 12.17603111
endloop
endfacet
facet normal -46.68846130 3.61378288 -17.83203125
outer loop
vertex -7.44407415 6.03049946 14.64972305
vertex -6.41421413 7.12952042 12.17603111
vertex -6.15287352 -9.90659428 8.03929520
endloop
endfacet
facet normal 11.80658627 -0.91801906 4.52651978
outer loop
vertex -6.15287352 -9.90659428 8.03929520
vertex -6.41421413 7.12952042 12.17603111
vertex -6.41421223 -10.19098854 8.66327095
endloop
endfacet
facet normal -6.76538277 10.58831787 1.99238622
outer loop
vertex -6.15287352 -9.90659428 8.03929520
vertex -6.41421223 -10.19098854 8.66327095
vertex 7.20197916 -2.99733329 16.66876411
endloop
endfacet
facet normal 35.23121262 -55.54075241 -10.01486683
outer loop
vertex 7.20197916 -2.99733329 16.66876411
vertex -6.41421223 -10.19098854 8.66327095
vertex 8.58578682 -1.53073370 13.40333652
endloop
endfacet
facet normal 14.91290474 28.42522049 18.92133331
outer loop
vertex 6.44149399 -3.82047653 18.50473785
vertex 7.20197916 -2.99733329 16.66876411
vertex -7.51735640 5.95117950 14.82664204
endloop
endfacet
facet normal 1.43704486 2.73912454 1.82330406
outer loop
vertex -7.51735640 5.95117950 14.82664204
vertex 7.20197916 -2.99733329 16.66876411
vertex -7.44407415 6.03049946 14.64972305
endloop
endfacet
facet normal -3.34391403 0.25598907 -1.27032423
outer loop
vertex -7.51735640 5.95117950 14.82664204
vertex -7.44407415 6.03049946 14.64972305
vertex -7.43929482 -11.29900646 11.14499092
endloop
endfacet
facet normal -58.70020294 4.49371910 -22.29969978
outer loop
vertex -7.43929482 -11.29900646 11.14499092
vertex -7.44407415 6.03049946 14.64972305
vertex -6.15287352 -9.90659428 8.03929520
endloop
endfacet
facet normal 33.47383881 -52.57723999 -9.70723915
outer loop
vertex -7.43929482 -11.29900646 11.14499092
vertex -6.15287352 -9.90659428 8.03929520
vertex 6.44149399 -3.82047653 18.50473785
endloop
endfacet
facet normal 19.78850937 -31.08174324 -5.73856688
outer loop
vertex 6.44149399 -3.82047653 18.50473785
vertex -6.15287352 -9.90659428 8.03929520
vertex 7.20197916 -2.99733329 16.66876411
endloop
endfacet
facet normal 19.41866112 30.76723480 8.04347038
outer loop
vertex 5.61835098 -3.82047653 20.49198151
vertex 6.44149399 -3.82047653 18.50473785
vertex -7.59667587 5.95117903 15.01813698
endloop
endfacet
facet normal 1.87122107 2.96479392 0.77508932
outer loop
vertex -7.59667587 5.95117903 15.01813698
vertex 6.44149399 -3.82047653 18.50473785
vertex -7.51735640 5.95117950 14.82664204
endloop
endfacet
facet normal -3.30332351 0.27707919 -1.36827505
outer loop
vertex -7.59667587 5.95117903 15.01813698
vertex -7.51735640 5.95117950 14.82664204
vertex -8.83170605 -11.29900551 14.50657082
endloop
endfacet
facet normal -57.98787689 4.86396217 -24.01935387
outer loop
vertex -8.83170605 -11.29900551 14.50657082
vertex -7.51735640 5.95117950 14.82664204
vertex -7.43929482 -11.29900646 11.14499092
endloop
endfacet
facet normal 25.13966751 -56.90917206 10.41320133
outer loop
vertex -8.83170605 -11.29900551 14.50657082
vertex -7.43929482 -11.29900646 11.14499092
vertex 5.61835098 -3.82047653 20.49198151
endloop
endfacet
facet normal 14.86166096 -33.64263153 6.15589952
outer loop
vertex 5.61835098 -3.82047653 20.49198151
vertex -7.43929482 -11.29900646 11.14499092
vertex 6.44149399 -3.82047653 18.50473785
endloop
endfacet
facet normal 0.14997962 0.23763050 0.06212496
outer loop
vertex 5.61199331 -3.82047653 20.50732994
vertex 5.61835098 -3.82047653 20.49198151
vertex -8.69184875 5.95117903 17.66211891
endloop
endfacet
facet normal 25.83608246 40.93510056 10.70165253
outer loop
vertex -8.69184875 5.95117903 17.66211891
vertex 5.61835098 -3.82047653 20.49198151
vertex -7.59667587 5.95117903 15.01813698
endloop
endfacet
facet normal -45.60917664 3.82565141 -18.89193535
outer loop
vertex -8.69184875 5.95117903 17.66211891
vertex -7.59667587 5.95117903 15.01813698
vertex -10.02863598 -11.29900551 17.39621544
endloop
endfacet
facet normal -49.84690475 4.18110752 -20.64726257
outer loop
vertex -10.02863598 -11.29900551 17.39621544
vertex -7.59667587 5.95117903 15.01813698
vertex -8.83170605 -11.29900551 14.50657082
endloop
endfacet
facet normal 21.61029053 -48.91964340 8.95127487
outer loop
vertex -10.02863598 -11.29900551 17.39621544
vertex -8.83170605 -11.29900551 14.50657082
vertex 5.61199331 -3.82047653 20.50732994
endloop
endfacet
facet normal 0.11478371 -0.25983900 0.04754602
outer loop
vertex 5.61199331 -3.82047653 20.50732994
vertex -8.83170605 -11.29900551 14.50657082
vertex 5.61835098 -3.82047653 20.49198151
endloop
endfacet
facet normal 0.16235523 0.23765710 0.00000466
outer loop
vertex 5.61199284 -3.82047653 20.52394485
vertex 5.61199331 -3.82047653 20.50732994
vertex -8.69184875 5.95117998 20.52394485
endloop
endfacet
facet normal 27.96477890 40.93510818 -0.00001364
outer loop
vertex -8.69184875 5.95117998 20.52394485
vertex 5.61199331 -3.82047653 20.50732994
vertex -8.69184875 5.95117903 17.66211891
endloop
endfacet
facet normal -49.36702728 3.82565498 -0.00000127
outer loop
vertex -8.69184875 5.95117998 20.52394485
vertex -8.69184875 5.95117903 17.66211891
vertex -10.02863693 -11.29900551 20.52394485
endloop
endfacet
facet normal -53.95391083 4.18110895 -0.00001645
outer loop
vertex -10.02863693 -11.29900551 20.52394485
vertex -8.69184875 5.95117903 17.66211891
vertex -10.02863598 -11.29900551 17.39621544
endloop
endfacet
facet normal 23.39081573 -48.91965866 0.00000713
outer loop
vertex -10.02863693 -11.29900551 20.52394485
vertex -10.02863598 -11.29900551 17.39621544
vertex 5.61199284 -3.82047653 20.52394485
endloop
endfacet
facet normal 0.12425511 -0.25986919 0.00000357
outer loop
vertex 5.61199284 -3.82047653 20.52394485
vertex -10.02863598 -11.29900551 17.39621544
vertex 5.61199331 -3.82047653 20.50732994
endloop
endfacet
facet normal 37.42009354 54.77588272 0.00000000
outer loop
vertex 5.61199284 -3.82047653 24.35339737
vertex 5.61199284 -3.82047653 20.52394485
vertex -8.69184875 5.95117998 23.48996735
endloop
endfacet
facet normal 28.98295212 42.42551422 0.00000000
outer loop
vertex -8.69184875 5.95117998 23.48996735
vertex 5.61199284 -3.82047653 20.52394485
vertex -8.69184875 5.95117998 20.52394485
endloop
endfacet
facet normal -51.16443634 3.96494389 0.00000000
outer loop
vertex -8.69184875 5.95117998 23.48996735
vertex -8.69184875 5.95117998 20.52394485
vertex -10.02863693 -11.29900551 19.72556686
endloop
endfacet
facet normal 13.77216816 -1.06726229 0.00000000
outer loop
vertex -10.02863693 -11.29900551 19.72556686
vertex -8.69184875 5.95117998 20.52394485
vertex -10.02863693 -11.29900551 20.52394485
endloop
endfacet
facet normal -5.97069311 12.48713493 0.00000000
outer loop
vertex -10.02863693 -11.29900551 19.72556686
vertex -10.02863693 -11.29900551 20.52394485
vertex 5.61199284 -3.82047653 24.35339737
endloop
endfacet
facet normal 28.63867188 -59.89505005 0.00000000
outer loop
vertex 5.61199284 -3.82047653 24.35339737
vertex -10.02863693 -11.29900551 20.52394485
vertex 5.61199284 -3.82047653 20.52394485
endloop
endfacet
facet normal 29.37982178 45.80351639 32.98210907
outer loop
vertex 4.28773212 -5.22239256 27.47991753
vertex 5.61199284 -3.82047653 24.35339737
vertex -9.79140854 4.77891159 26.13214874
endloop
endfacet
facet normal 24.80631828 38.74273682 27.51246262
outer loop
vertex -9.79140854 4.77891159 26.13214874
vertex 5.61199284 -3.82047653 24.35339737
vertex -8.69184875 5.95117998 23.48996735
endloop
endfacet
facet normal -49.96197891 7.65946293 -17.39367294
outer loop
vertex -9.79140854 4.77891159 26.13214874
vertex -8.69184875 5.95117998 23.48996735
vertex -9.75308800 -10.99899387 19.07413101
endloop
endfacet
facet normal 12.36675358 -1.90810823 4.35221815
outer loop
vertex -9.75308800 -10.99899387 19.07413101
vertex -8.69184875 5.95117998 23.48996735
vertex -10.02863693 -11.29900551 19.72556686
endloop
endfacet
facet normal -6.28491879 11.46289825 2.62067318
outer loop
vertex -9.75308800 -10.99899387 19.07413101
vertex -10.02863693 -11.29900551 19.72556686
vertex 4.28773212 -5.22239256 27.47991753
endloop
endfacet
facet normal 29.86960220 -55.02919769 -12.02332687
outer loop
vertex 4.28773212 -5.22239256 27.47991753
vertex -10.02863693 -11.29900551 19.72556686
vertex 5.61199284 -3.82047653 24.35339737
endloop
endfacet
facet normal 26.83208656 41.79528046 29.85278320
outer loop
vertex 3.10499668 -6.50257635 30.33529282
vertex 4.28773212 -5.22239256 27.47991753
vertex -10.96846485 3.50487494 28.97381401
endloop
endfacet
facet normal 26.70325089 41.59460449 29.70943832
outer loop
vertex -10.96846485 3.50487494 28.97381401
vertex 4.28773212 -5.22239256 27.47991753
vertex -9.79140854 4.77891159 26.13214874
endloop
endfacet
facet normal -53.82769775 8.19878960 -18.62030602
outer loop
vertex -10.96846485 3.50487494 28.97381401
vertex -9.79140854 4.77891159 26.13214874
vertex -9.51430893 -10.74054146 18.49766731
endloop
endfacet
facet normal 10.91955185 -1.66321659 3.77733755
outer loop
vertex -9.51430893 -10.74054146 18.49766731
vertex -9.79140854 4.77891159 26.13214874
vertex -9.75308800 -10.99899387 19.07413101
endloop
endfacet
facet normal -5.50249577 10.10114861 2.24955273
outer loop
vertex -9.51430893 -10.74054146 18.49766731
vertex -9.75308800 -10.99899387 19.07413101
vertex 3.10499668 -6.50257635 30.33529282
endloop
endfacet
facet normal 27.25531769 -50.03363037 -11.14264011
outer loop
vertex 3.10499668 -6.50257635 30.33529282
vertex -9.75308800 -10.99899387 19.07413101
vertex 4.28773212 -5.22239256 27.47991753
endloop
endfacet
facet normal 11.56304550 21.90613365 43.42462158
outer loop
vertex 1.61750221 -8.53312874 31.75572014
vertex 3.10499668 -6.50257635 30.33529282
vertex -12.79845238 0.98103809 30.79483032
endloop
endfacet
facet normal 14.78758144 28.11949158 53.83263397
outer loop
vertex -12.79845238 0.98103809 30.79483032
vertex 3.10499668 -6.50257635 30.33529282
vertex -10.96846485 3.50487494 28.97381401
endloop
endfacet
facet normal -52.23194122 16.43214798 -29.71512985
outer loop
vertex -12.79845238 0.98103809 30.79483032
vertex -10.96846485 3.50487494 28.97381401
vertex -9.25406075 -10.36858177 18.28843689
endloop
endfacet
facet normal 6.87727880 -2.42214441 4.24823141
outer loop
vertex -9.25406075 -10.36858177 18.28843689
vertex -10.96846485 3.50487494 28.97381401
vertex -9.51430893 -10.74054146 18.49766731
endloop
endfacet
facet normal -5.39331913 5.77949810 3.56610990
outer loop
vertex -9.25406075 -10.36858177 18.28843689
vertex -9.51430893 -10.74054146 18.49766731
vertex 1.61750221 -8.53312874 31.75572014
endloop
endfacet
facet normal 30.05664062 -35.53321075 -19.32021141
outer loop
vertex 1.61750221 -8.53312874 31.75572014
vertex -9.51430893 -10.74054146 18.49766731
vertex 3.10499668 -6.50257635 30.33529282
endloop
endfacet
facet normal 11.05353355 20.84157181 40.52800751
outer loop
vertex 0.26211393 -10.44993687 33.11110687
vertex 1.61750221 -8.53312874 31.75572014
vertex -12.81565094 0.95671523 30.81202888
endloop
endfacet
facet normal 0.14025842 0.26445961 0.51426739
outer loop
vertex -12.81565094 0.95671523 30.81202888
vertex 1.61750221 -8.53312874 31.75572014
vertex -12.79845238 0.98103809 30.79483032
endloop
endfacet
facet normal -0.49938780 0.15413356 -0.28140622
outer loop
vertex -12.81565094 0.95671523 30.81202888
vertex -12.79845238 0.98103809 30.79483032
vertex -10.86760902 -12.65048409 19.90198517
endloop
endfacet
facet normal -46.85152817 14.46062279 -26.40111542
outer loop
vertex -10.86760902 -12.65048409 19.90198517
vertex -12.79845238 0.98103809 30.79483032
vertex -9.25406075 -10.36858177 18.28843689
endloop
endfacet
facet normal 33.69261551 -39.27190018 -21.84625053
outer loop
vertex -10.86760902 -12.65048409 19.90198517
vertex -9.25406075 -10.36858177 18.28843689
vertex 0.26211393 -10.44993687 33.11110687
endloop
endfacet
facet normal 28.30194664 -32.98857117 -18.35094833
outer loop
vertex 0.26211393 -10.44993687 33.11110687
vertex -9.25406075 -10.36858177 18.28843689
vertex 1.61750221 -8.53312874 31.75572014
endloop
endfacet
facet normal 17.81505585 27.23085785 33.76651001
outer loop
vertex -1.50878525 -11.48730659 34.88200760
vertex 0.26211393 -10.44993687 33.11110687
vertex -12.83812237 0.94355202 30.83450127
endloop
endfacet
facet normal 0.22607142 0.34555209 0.42846912
outer loop
vertex -12.83812237 0.94355202 30.83450127
vertex 0.26211393 -10.44993687 33.11110687
vertex -12.81565094 0.95671523 30.81202888
endloop
endfacet
facet normal -0.44939908 0.20138918 -0.33141622
outer loop
vertex -12.83812237 0.94355202 30.83450127
vertex -12.81565094 0.95671523 30.81202888
vertex -12.97581100 -13.88544083 22.01018524
endloop
endfacet
facet normal -42.16013336 18.89371490 -31.09247398
outer loop
vertex -12.97581100 -13.88544083 22.01018524
vertex -12.81565094 0.95671523 30.81202888
vertex -10.86760902 -12.65048409 19.90198517
endloop
endfacet
facet normal 20.95189095 -51.31118774 -9.10552979
outer loop
vertex -12.97581100 -13.88544083 22.01018524
vertex -10.86760902 -12.65048409 19.90198517
vertex -1.50878525 -11.48730659 34.88200760
endloop
endfacet
facet normal 17.59969330 -43.10165405 -7.64869118
outer loop
vertex -1.50878525 -11.48730659 34.88200760
vertex -10.86760902 -12.65048409 19.90198517
vertex 0.26211393 -10.44993687 33.11110687
endloop
endfacet
facet normal 5.53254843 8.45666122 10.48632240
outer loop
vertex -2.05874538 -11.80946541 35.43196869
vertex -1.50878525 -11.48730659 34.88200760
vertex -13.08466148 0.79913270 31.08104134
endloop
endfacet
facet normal 2.48016644 3.79100418 4.70086765
outer loop
vertex -13.08466148 0.79913270 31.08104134
vertex -1.50878525 -11.48730659 34.88200760
vertex -12.83812237 0.94355202 30.83450127
endloop
endfacet
facet normal -4.93034410 2.20948792 -3.63604188
outer loop
vertex -13.08466148 0.79913270 31.08104134
vertex -12.83812237 0.94355202 30.83450127
vertex -16.08953476 -15.70941830 25.12390900
endloop
endfacet
facet normal -62.26873779 27.90520477 -45.92224121
outer loop
vertex -16.08953476 -15.70941830 25.12390900
vertex -12.83812237 0.94355202 30.83450127
vertex -12.97581100 -13.88544083 22.01018524
endloop
endfacet
facet normal 30.94504547 -75.78445435 -13.44846821
outer loop
vertex -16.08953476 -15.70941830 25.12390900
vertex -12.97581100 -13.88544083 22.01018524
vertex -2.05874538 -11.80946541 35.43196869
endloop
endfacet
facet normal 5.46565151 -13.38540649 -2.37532520
outer loop
vertex -2.05874538 -11.80946541 35.43196869
vertex -12.97581100 -13.88544083 22.01018524
vertex -1.50878525 -11.48730659 34.88200760
endloop
endfacet
facet normal 7.95637321 8.04297447 3.10437822
outer loop
vertex -2.30006504 -11.81530094 36.06557846
vertex -2.05874538 -11.80946541 35.43196869
vertex -13.26425457 0.78374004 31.52406311
endloop
endfacet
facet normal 5.51891136 5.66611719 2.43413544
outer loop
vertex -13.26425457 0.78374004 31.52406311
vertex -2.05874538 -11.80946541 35.43196869
vertex -13.08466148 0.79913270 31.08104134
endloop
endfacet
facet normal -7.34221411 2.42500520 -2.89214587
outer loop
vertex -13.26425457 0.78374004 31.52406311
vertex -13.08466148 0.79913270 31.08104134
vertex -17.95105553 -15.72184181 29.58272934
endloop
endfacet
facet normal -73.68267822 24.48751640 -30.69368172
outer loop
vertex -17.95105553 -15.72184181 29.58272934
vertex -13.08466148 0.79913270 31.08104134
vertex -16.08953476 -15.70941830 25.12390900
endloop
endfacet
facet normal 17.49910355 -81.85291290 7.07766676
outer loop
vertex -17.95105553 -15.72184181 29.58272934
vertex -16.08953476 -15.70941830 25.12390900
vertex -2.30006504 -11.81530094 36.06557846
endloop
endfacet
facet normal 2.53120112 -11.37758255 0.85925817
outer loop
vertex -2.30006504 -11.81530094 36.06557846
vertex -16.08953476 -15.70941830 25.12390900
vertex -2.05874538 -11.80946541 35.43196869
endloop
endfacet
facet normal 38.70265198 39.45927048 16.03115654
outer loop
vertex -3.57247591 -11.81530094 39.13745117
vertex -2.30006504 -11.81530094 36.06557846
vertex -14.61113548 0.78374004 34.77572250
endloop
endfacet
facet normal 40.96778870 41.76868820 16.96940804
outer loop
vertex -14.61113548 0.78374004 34.77572250
vertex -2.30006504 -11.81530094 36.06557846
vertex -13.26425457 0.78374004 31.52406311
endloop
endfacet
facet normal -53.67052841 17.85462570 -22.23105240
outer loop
vertex -14.61113548 0.78374004 34.77572250
vertex -13.26425457 0.78374004 31.52406311
vertex -17.63075256 -15.72184181 28.80945015
endloop
endfacet
facet normal 12.76342201 -4.24602079 5.28678656
outer loop
vertex -17.63075256 -15.72184181 28.80945015
vertex -13.26425457 0.78374004 31.52406311
vertex -17.95105553 -15.72184181 29.58272934
endloop
endfacet
facet normal -3.02084684 14.17906284 -1.25127661
outer loop
vertex -17.63075256 -15.72184181 28.80945015
vertex -17.95105553 -15.72184181 29.58272934
vertex -3.57247591 -11.81530094 39.13745117
endloop
endfacet
facet normal 12.00039673 -56.32669830 4.97072506
outer loop
vertex -3.57247591 -11.81530094 39.13745117
vertex -17.95105553 -15.72184181 29.58272934
vertex -2.30006504 -11.81530094 36.06557846
endloop
endfacet
facet normal 20.65497971 31.68093491 39.48453140
outer loop
vertex -5.65264416 -13.01804161 41.19065475
vertex -3.57247591 -11.81530094 39.13745117
vertex -16.98198128 -0.58718300 37.14314651
endloop
endfacet
facet normal 23.84767914 36.47417450 45.00353622
outer loop
vertex -16.98198128 -0.58718300 37.14314651
vertex -3.57247591 -11.81530094 39.13745117
vertex -14.61113548 0.78374004 34.77572250
endloop
endfacet
facet normal -47.20396423 21.24705315 -34.96849060
outer loop
vertex -16.98198128 -0.58718300 37.14314651
vertex -14.61113548 0.78374004 34.77572250
vertex -17.11967087 -15.41617489 28.31883430
endloop
endfacet
facet normal 9.92159271 -4.53072453 7.51270390
outer loop
vertex -17.11967087 -15.41617489 28.31883430
vertex -14.61113548 0.78374004 34.77572250
vertex -17.63075256 -15.72184181 28.80945015
endloop
endfacet
facet normal -5.11105204 12.20445633 2.27944875
outer loop
vertex -17.11967087 -15.41617489 28.31883430
vertex -17.63075256 -15.72184181 28.80945015
vertex -5.65264416 -13.01804161 41.19065475
endloop
endfacet
facet normal 20.44283104 -50.34848404 -8.78219891
outer loop
vertex -5.65264416 -13.01804161 41.19065475
vertex -17.63075256 -15.72184181 28.80945015
vertex -3.57247591 -11.81530094 39.13745117
endloop
endfacet
facet normal 5.53250408 8.45661259 10.48628807
outer loop
vertex -6.20260239 -13.34019947 41.74061203
vertex -5.65264416 -13.01804161 41.19065475
vertex -17.22851944 -0.73160166 37.38968277
endloop
endfacet
facet normal 2.48012161 3.79095769 4.70084858
outer loop
vertex -17.22851944 -0.73160166 37.38968277
vertex -5.65264416 -13.01804161 41.19065475
vertex -16.98198128 -0.58718300 37.14314651
endloop
endfacet
facet normal -4.93027592 2.20946884 -3.63602781
outer loop
vertex -17.22851944 -0.73160166 37.38968277
vertex -16.98198128 -0.58718300 37.14314651
vertex -20.23339081 -17.24015045 31.43255615
endloop
endfacet
facet normal -62.26868439 27.90516472 -45.92218399
outer loop
vertex -20.23339081 -17.24015045 31.43255615
vertex -16.98198128 -0.58718300 37.14314651
vertex -17.11967087 -15.41617489 28.31883430
endloop
endfacet
facet normal 30.94500351 -75.78437042 -13.44846058
outer loop
vertex -20.23339081 -17.24015045 31.43255615
vertex -17.11967087 -15.41617489 28.31883430
vertex -6.20260239 -13.34019947 41.74061203
endloop
endfacet
facet normal 5.46562910 -13.38533783 -2.37531972
outer loop
vertex -6.20260239 -13.34019947 41.74061203
vertex -17.11967087 -15.41617489 28.31883430
vertex -5.65264416 -13.01804161 41.19065475
endloop
endfacet
facet normal 7.95637703 8.04298210 3.10439157
outer loop
vertex -6.44392395 -13.34603405 42.37422180
vertex -6.20260239 -13.34019947 41.74061203
vertex -17.40811348 -0.74699402 37.83271027
endloop
endfacet
facet normal 5.51898432 5.66618538 2.43414402
outer loop
vertex -17.40811348 -0.74699402 37.83271027
vertex -6.20260239 -13.34019947 41.74061203
vertex -17.22851944 -0.73160166 37.38968277
endloop
endfacet
facet normal -7.34230900 2.42503381 -2.89216328
outer loop
vertex -17.40811348 -0.74699402 37.83271027
vertex -17.22851944 -0.73160166 37.38968277
vertex -22.09491348 -17.25257683 35.89137268
endloop
endfacet
facet normal -73.68260956 24.48749733 -30.69369698
outer loop
vertex -22.09491348 -17.25257683 35.89137268
vertex -17.22851944 -0.73160166 37.38968277
vertex -20.23339081 -17.24015045 31.43255615
endloop
endfacet
facet normal 17.49911690 -81.85285950 7.07763290
outer loop
vertex -22.09491348 -17.25257683 35.89137268
vertex -20.23339081 -17.24015045 31.43255615
vertex -6.44392395 -13.34603405 42.37422180
endloop
endfacet
facet normal 2.53119016 -11.37760067 0.85927856
outer loop
vertex -6.44392395 -13.34603405 42.37422180
vertex -20.23339081 -17.24015045 31.43255615
vertex -6.20260239 -13.34019947 41.74061203
endloop
endfacet
facet normal 16.64904022 16.97451973 6.89625168
outer loop
vertex -6.99128723 -13.34603405 43.69567490
vertex -6.44392395 -13.34603405 42.37422180
vertex -18.91452026 -0.74699402 41.46949768
endloop
endfacet
facet normal 45.82003021 46.71578979 18.97927856
outer loop
vertex -18.91452026 -0.74699402 41.46949768
vertex -6.44392395 -13.34603405 42.37422180
vertex -17.40811348 -0.74699402 37.83271027
endloop
endfacet
facet normal -60.02729416 19.96934128 -24.86412239
outer loop
vertex -18.91452026 -0.74699402 41.46949768
vertex -17.40811348 -0.74699402 37.83271027
vertex -22.34490776 -17.25257683 36.49491119
endloop
endfacet
facet normal -9.96175480 3.31398773 -4.12630129
outer loop
vertex -22.34490776 -17.25257683 36.49491119
vertex -17.40811348 -0.74699402 37.83271027
vertex -22.09491348 -17.25257683 35.89137268
endloop
endfacet
facet normal 2.35774899 -11.06665134 0.97661334
outer loop
vertex -22.34490776 -17.25257683 36.49491119
vertex -22.09491348 -17.25257683 35.89137268
vertex -6.99128723 -13.34603405 43.69567490
endloop
endfacet
facet normal 5.16231298 -24.23052216 2.13829803
outer loop
vertex -6.99128723 -13.34603405 43.69567490
vertex -22.09491348 -17.25257683 35.89137268
vertex -6.44392395 -13.34603405 42.37422180
endloop
endfacet
facet normal 14.16313553 15.68236160 12.89762878
outer loop
vertex -7.49698448 -13.89339638 44.91653442
vertex -6.99128723 -13.34603405 43.69567490
vertex -20.30625916 -2.25339985 44.82945251
endloop
endfacet
facet normal 38.97867584 43.15978241 35.49580002
outer loop
vertex -20.30625916 -2.25339985 44.82945251
vertex -6.99128723 -13.34603405 43.69567490
vertex -18.91452026 -0.74699402 41.46949768
endloop
endfacet
facet normal -62.95175934 18.44927406 -17.80390549
outer loop
vertex -20.30625916 -2.25339985 44.82945251
vertex -18.91452026 -0.74699402 41.46949768
vertex -22.57587433 -17.50257301 37.05251312
endloop
endfacet
facet normal -10.44717216 3.06175375 -2.95465422
outer loop
vertex -22.57587433 -17.50257301 37.05251312
vertex -18.91452026 -0.74699402 41.46949768
vertex -22.34490776 -17.25257683 36.49491119
endloop
endfacet
facet normal 3.97845912 -10.22434425 -2.93606591
outer loop
vertex -22.57587433 -17.50257301 37.05251312
vertex -22.34490776 -17.25257683 36.49491119
vertex -7.49698448 -13.89339638 44.91653442
endloop
endfacet
facet normal 8.71076679 -22.38602066 -6.42846489
outer loop
vertex -7.49698448 -13.89339638 44.91653442
vertex -22.34490776 -17.25257683 36.49491119
vertex -6.99128723 -13.34603405 43.69567490
endloop
endfacet
facet normal 2.22328138 2.46176791 2.02460694
outer loop
vertex -7.57636642 -13.97931862 45.10818100
vertex -7.49698448 -13.89339638 44.91653442
vertex -21.18527031 -3.20483422 46.95157242
endloop
endfacet
facet normal 24.61861610 27.25936317 22.41887093
outer loop
vertex -21.18527031 -3.20483422 46.95157242
vertex -7.49698448 -13.89339638 44.91653442
vertex -20.30625916 -2.25339985 44.82945251
endloop
endfacet
facet normal -39.75981903 11.65241051 -11.24480438
outer loop
vertex -21.18527031 -3.20483422 46.95157242
vertex -20.30625916 -2.25339985 44.82945251
vertex -23.74324036 -18.76612091 39.87078476
endloop
endfacet
facet normal -52.80284882 15.47492790 -14.93359947
outer loop
vertex -23.74324036 -18.76612091 39.87078476
vertex -20.30625916 -2.25339985 44.82945251
vertex -22.57587433 -17.50257301 37.05251312
endloop
endfacet
facet normal 20.10820961 -51.67659760 -14.83967018
outer loop
vertex -23.74324036 -18.76612091 39.87078476
vertex -22.57587433 -17.50257301 37.05251312
vertex -7.57636642 -13.97931862 45.10818100
endloop
endfacet
facet normal 1.36738062 -3.51407886 -1.00910854
outer loop
vertex -7.57636642 -13.97931862 45.10818100
vertex -22.57587433 -17.50257301 37.05251312
vertex -7.49698448 -13.89339638 44.91653442
endloop
endfacet
facet normal 2.08650875 2.47792125 0.97770602
outer loop
vertex -7.57123661 -14.05483341 45.28862000
vertex -7.57636642 -13.97931862 45.10818100
vertex -21.18791962 -4.19971466 49.37074661
endloop
endfacet
facet normal 27.89930916 32.91742706 13.56777763
outer loop
vertex -21.18791962 -4.19971466 49.37074661
vertex -7.57636642 -13.97931862 45.10818100
vertex -21.18527031 -3.20483422 46.95157242
endloop
endfacet
facet normal -44.68587112 6.18026495 2.49268436
outer loop
vertex -21.18791962 -4.19971466 49.37074661
vertex -21.18527031 -3.20483422 46.95157242
vertex -23.73546028 -19.98270798 42.83321381
endloop
endfacet
facet normal -54.71360397 7.52271557 3.23306131
outer loop
vertex -23.73546028 -19.98270798 42.83321381
vertex -21.18527031 -3.20483422 46.95157242
vertex -23.74324036 -18.76612091 39.87078476
endloop
endfacet
facet normal 20.54812241 -47.86626053 -19.71130371
outer loop
vertex -23.73546028 -19.98270798 42.83321381
vertex -23.74324036 -18.76612091 39.87078476
vertex -7.57123661 -14.05483341 45.28862000
endloop
endfacet
facet normal 1.25922668 -2.89026785 -1.24539363
outer loop
vertex -7.57123661 -14.05483341 45.28862000
vertex -23.74324036 -18.76612091 39.87078476
vertex -7.57636642 -13.97931862 45.10818100
endloop
endfacet
facet normal 36.00418472 42.46128464 17.58803749
outer loop
vertex -7.57123661 -15.34648705 48.40694809
vertex -7.57123661 -14.05483341 45.28862000
vertex -21.18791962 -5.46660089 52.42927933
endloop
endfacet
facet normal 35.31379318 41.64707184 17.25078773
outer loop
vertex -21.18791962 -5.46660089 52.42927933
vertex -7.57123661 -14.05483341 45.28862000
vertex -21.18791962 -4.19971466 49.37074661
endloop
endfacet
facet normal -56.55511093 7.79173660 3.22744417
outer loop
vertex -21.18791962 -5.46660089 52.42927933
vertex -21.18791962 -4.19971466 49.37074661
vertex -23.73546028 -19.72425270 42.20924759
endloop
endfacet
facet normal 11.53771496 -1.58957934 -0.65842533
outer loop
vertex -23.73546028 -19.72425270 42.20924759
vertex -21.18791962 -4.19971466 49.37074661
vertex -23.73546028 -19.98270798 42.83321381
endloop
endfacet
facet normal -4.33340645 10.08592892 4.17772865
outer loop
vertex -23.73546028 -19.72425270 42.20924759
vertex -23.73546028 -19.98270798 42.83321381
vertex -7.57123661 -15.34648705 48.40694809
endloop
endfacet
facet normal 21.65659332 -50.40534973 -20.87857628
outer loop
vertex -7.57123661 -15.34648705 48.40694809
vertex -23.73546028 -19.98270798 42.83321381
vertex -7.57123661 -14.05483341 45.28862000
endloop
endfacet
facet normal 27.12941170 22.39365578 36.16976547
outer loop
vertex -8.41154194 -17.39893913 50.30795288
vertex -7.57123661 -15.34648705 48.40694809
vertex -22.17773247 -7.97936440 54.80148315
endloop
endfacet
facet normal 33.54427338 28.32019234 43.99474335
outer loop
vertex -22.17773247 -7.97936440 54.80148315
vertex -7.57123661 -15.34648705 48.40694809
vertex -21.18791962 -5.46660089 52.42927933
endloop
endfacet
facet normal -59.35726929 16.07029915 -7.74458218
outer loop
vertex -22.17773247 -7.97936440 54.80148315
vertex -21.18791962 -5.46660089 52.42927933
vertex -23.57497597 -19.35073090 41.91444778
endloop
endfacet
facet normal 8.02055740 -2.39116931 1.33656764
outer loop
vertex -23.57497597 -19.35073090 41.91444778
vertex -21.18791962 -5.46660089 52.42927933
vertex -23.73546028 -19.72425270 42.20924759
endloop
endfacet
facet normal -3.71054506 5.81720304 5.35064125
outer loop
vertex -23.57497597 -19.35073090 41.91444778
vertex -23.73546028 -19.72425270 42.20924759
vertex -8.41154194 -17.39893913 50.30795288
endloop
endfacet
facet normal 21.04263687 -35.93622589 -29.49763489
outer loop
vertex -8.41154194 -17.39893913 50.30795288
vertex -23.73546028 -19.72425270 42.20924759
vertex -7.57123661 -15.34648705 48.40694809
endloop
endfacet
facet normal 6.15169334 5.12733984 8.09788132
outer loop
vertex -8.58993912 -17.86511421 50.73864365
vertex -8.41154194 -17.39893913 50.30795288
vertex -22.80565071 -9.62019253 56.31740952
endloop
endfacet
facet normal 21.65249252 18.04696274 28.50267601
outer loop
vertex -22.80565071 -9.62019253 56.31740952
vertex -8.41154194 -17.39893913 50.30795288
vertex -22.17773247 -7.97936440 54.80148315
endloop
endfacet
facet normal -38.38356400 10.21012211 -4.84765244
outer loop
vertex -22.80565071 -9.62019253 56.31740952
vertex -22.17773247 -7.97936440 54.80148315
vertex -24.39521408 -21.49411583 43.89467621
endloop
endfacet
facet normal -50.13977814 13.33729839 -6.33239698
outer loop
vertex -24.39521408 -21.49411583 43.89467621
vertex -22.17773247 -7.97936440 54.80148315
vertex -23.57497597 -19.35073090 41.91444778
endloop
endfacet
facet normal 21.85550880 -36.91173935 -30.90014267
outer loop
vertex -24.39521408 -21.49411583 43.89467621
vertex -23.57497597 -19.35073090 41.91444778
vertex -8.58993912 -17.86511421 50.73864365
endloop
endfacet
facet normal 4.75346184 -8.02812862 -6.72062063
outer loop
vertex -8.58993912 -17.86511421 50.73864365
vertex -23.57497597 -19.35073090 41.91444778
vertex -8.41154194 -17.39893913 50.30795288
endloop
endfacet
facet normal 6.05214119 6.25702715 6.18892431
outer loop
vertex -8.58442783 -18.30288506 51.17584229
vertex -8.58993912 -17.86511421 50.73864365
vertex -22.80886841 -11.38591003 58.09281540
endloop
endfacet
facet normal 24.48860550 25.22070885 25.12746048
outer loop
vertex -22.80886841 -11.38591003 58.09281540
vertex -8.58993912 -17.86511421 50.73864365
vertex -22.80565071 -9.62019253 56.31740952
endloop
endfacet
facet normal -43.00865936 2.84163785 2.74818349
outer loop
vertex -22.80886841 -11.38591003 58.09281540
vertex -22.80565071 -9.62019253 56.31740952
vertex -24.38741302 -23.53139496 45.94733047
endloop
endfacet
facet normal -49.68163300 3.16591358 3.33101344
outer loop
vertex -24.38741302 -23.53139496 45.94733047
vertex -22.80565071 -9.62019253 56.31740952
vertex -24.39521408 -21.49411583 43.89467621
endloop
endfacet
facet normal 21.38426208 -32.39727783 -32.23587799
outer loop
vertex -24.38741302 -23.53139496 45.94733047
vertex -24.39521408 -21.49411583 43.89467621
vertex -8.58442783 -18.30288506 51.17584229
endloop
endfacet
facet normal 4.58268404 -6.87232542 -6.93908882
outer loop
vertex -8.58442783 -18.30288506 51.17584229
vertex -24.39521408 -21.49411583 43.89467621
vertex -8.58993912 -17.86511421 50.73864365
endloop
endfacet
facet normal 18.14236641 18.65449333 18.65446663
outer loop
vertex -8.58442783 -19.61432266 52.48728180
vertex -8.58442783 -18.30288506 51.17584229
vertex -22.80886841 -14.07322121 60.78012466
endloop
endfacet
facet normal 37.17610931 38.22547150 38.22549820
outer loop
vertex -22.80886841 -14.07322121 60.78012466
vertex -8.58442783 -18.30288506 51.17584229
vertex -22.80886841 -11.38591003 58.09281540
endloop
endfacet
facet normal -65.27737427 4.24203777 4.24204063
outer loop
vertex -22.80886841 -14.07322121 60.78012466
vertex -22.80886841 -11.38591003 58.09281540
vertex -24.38741302 -23.80281830 46.21875381
endloop
endfacet
facet normal -6.59313631 0.42845386 0.42845386
outer loop
vertex -24.38741302 -23.80281830 46.21875381
vertex -22.80886841 -11.38591003 58.09281540
vertex -24.38741302 -23.53139496 45.94733047
endloop
endfacet
facet normal 2.83828020 -4.28929901 -4.28929901
outer loop
vertex -24.38741302 -23.80281830 46.21875381
vertex -24.38741302 -23.53139496 45.94733047
vertex -8.58442783 -19.61432266 52.48728180
endloop
endfacet
facet normal 13.71374130 -20.72465897 -20.72462845
outer loop
vertex -8.58442783 -19.61432266 52.48728180
vertex -24.38741302 -23.53139496 45.94733047
vertex -8.58442783 -18.30288506 51.17584229
endloop
endfacet
facet normal 18.14240265 10.09574890 24.37329674
outer loop
vertex -8.58442879 -21.32780266 53.19702911
vertex -8.58442783 -19.61432266 52.48728180
vertex -22.80886841 -17.58436394 62.23448944
endloop
endfacet
facet normal 37.17613983 20.68752480 49.94404221
outer loop
vertex -22.80886841 -17.58436394 62.23448944
vertex -8.58442783 -19.61432266 52.48728180
vertex -22.80886841 -14.07322121 60.78012466
endloop
endfacet
facet normal -65.27744293 2.29577971 5.54249525
outer loop
vertex -22.80886841 -17.58436394 62.23448944
vertex -22.80886841 -14.07322121 60.78012466
vertex -24.38741302 -24.15745163 46.36564636
endloop
endfacet
facet normal -6.59315300 0.23187643 0.55980456
outer loop
vertex -24.38741302 -24.15745163 46.36564636
vertex -22.80886841 -14.07322121 60.78012466
vertex -24.38741302 -23.80281830 46.21875381
endloop
endfacet
facet normal 2.83829045 -2.32134056 -5.60426474
outer loop
vertex -24.38741302 -24.15745163 46.36564636
vertex -24.38741302 -23.80281830 46.21875381
vertex -8.58442879 -21.32780266 53.19702911
endloop
endfacet
facet normal 13.71377087 -11.21613216 -27.07809639
outer loop
vertex -8.58442879 -21.32780266 53.19702911
vertex -24.38741302 -23.80281830 46.21875381
vertex -8.58442783 -19.61432266 52.48728180
endloop
endfacet
facet normal 21.90643883 12.19032288 29.43007088
outer loop
vertex -8.58442879 -23.39678192 54.05402756
vertex -8.58442879 -21.32780266 53.19702911
vertex -22.80886841 -20.97487831 63.63888550
endloop
endfacet
facet normal 35.89891052 19.97674751 48.22816849
outer loop
vertex -22.80886841 -20.97487831 63.63888550
vertex -8.58442879 -21.32780266 53.19702911
vertex -22.80886841 -17.58436394 62.23448944
endloop
endfacet
facet normal -63.03475571 2.21690178 5.35207844
outer loop
vertex -22.80886841 -20.97487831 63.63888550
vertex -22.80886841 -17.58436394 62.23448944
vertex -24.38741302 -24.27404022 46.41394043
endloop
endfacet
facet normal -2.16756725 0.07623434 0.18404029
outer loop
vertex -24.38741302 -24.27404022 46.41394043
vertex -22.80886841 -17.58436394 62.23448944
vertex -24.38741302 -24.15745163 46.36564636
endloop
endfacet
facet normal 0.93311340 -0.76319039 -1.84244764
outer loop
vertex -24.38741302 -24.27404022 46.41394043
vertex -24.38741302 -24.15745163 46.36564636
vertex -8.58442879 -23.39678192 54.05402756
endloop
endfacet
facet normal 16.55899429 -13.54313278 -32.69604492
outer loop
vertex -8.58442879 -23.39678192 54.05402756
vertex -24.38741302 -24.15745163 46.36564636
vertex -8.58442879 -21.32780266 53.19702911
endloop
endfacet
facet normal 14.43131161 0.08498657 21.36806870
outer loop
vertex -8.57476425 -24.89593697 54.05346298
vertex -8.58442879 -23.39678192 54.05402756
vertex -22.82817268 -24.89593697 63.67975998
endloop
endfacet
facet normal 37.68178558 0.39638788 55.82161713
outer loop
vertex -22.82817268 -24.89593697 63.67975998
vertex -8.58442879 -23.39678192 54.05402756
vertex -22.80886841 -20.97487831 63.63888550
endloop
endfacet
facet normal -67.44349670 0.39387536 5.93183088
outer loop
vertex -22.82817268 -24.89593697 63.67975998
vertex -22.80886841 -20.97487831 63.63888550
vertex -24.34098625 -24.89593697 46.47943115
endloop
endfacet
facet normal -10.92820168 -0.69631863 1.13486123
outer loop
vertex -24.34098625 -24.89593697 46.47943115
vertex -22.80886841 -20.97487831 63.63888550
vertex -24.38741302 -24.27404022 46.41394043
endloop
endfacet
facet normal 4.71026564 -0.68090343 -9.80496216
outer loop
vertex -24.34098625 -24.89593697 46.47943115
vertex -24.38741302 -24.27404022 46.41394043
vertex -8.57476425 -24.89593697 54.05346298
endloop
endfacet
facet normal 11.45317936 0.08275986 -23.69960213
outer loop
vertex -8.57476425 -24.89593697 54.05346298
vertex -24.38741302 -24.27404022 46.41394043
vertex -8.58442879 -23.39678192 54.05402756
endloop
endfacet
facet normal 27.60078430 -0.00000000 40.86776352
outer loop
vertex -8.57476425 -27.76316452 54.05346298
vertex -8.57476425 -24.89593697 54.05346298
vertex -22.82817268 -24.90915489 63.67975998
endloop
endfacet
facet normal 0.12723967 -0.00000000 0.18840049
outer loop
vertex -22.82817268 -24.90915489 63.67975998
vertex -8.57476425 -24.89593697 54.05346298
vertex -22.82817268 -24.89593697 63.67975998
endloop
endfacet
facet normal -0.22735268 0.00000000 0.01999626
outer loop
vertex -22.82817268 -24.90915489 63.67975998
vertex -22.82817268 -24.89593697 63.67975998
vertex -24.34098625 -27.95491982 46.47943115
endloop
endfacet
facet normal -52.61550903 0.00000000 4.62767076
outer loop
vertex -24.34098625 -27.95491982 46.47943115
vertex -22.82817268 -24.89593697 63.67975998
vertex -24.34098625 -24.89593697 46.47943115
endloop
endfacet
facet normal 23.16883278 0.00000000 -48.22860336
outer loop
vertex -24.34098625 -27.95491982 46.47943115
vertex -24.34098625 -24.89593697 46.47943115
vertex -8.57476425 -27.76316452 54.05346298
endloop
endfacet
facet normal 21.71647263 0.00000000 -45.20534515
outer loop
vertex -8.57476425 -27.76316452 54.05346298
vertex -24.34098625 -24.89593697 46.47943115
vertex -8.57476425 -24.89593697 54.05346298
endloop
endfacet
facet normal 28.39298439 10.40688705 38.95531464
outer loop
vertex -8.99466038 -30.41213989 55.06718063
vertex -8.57476425 -27.76316452 54.05346298
vertex -22.83010864 -24.92136574 63.68443298
endloop
endfacet
facet normal 0.13088202 0.04797012 0.17957142
outer loop
vertex -22.83010864 -24.92136574 63.68443298
vertex -8.57476425 -27.76316452 54.05346298
vertex -22.82817268 -24.90915489 63.67975998
endloop
endfacet
facet normal -0.22426379 0.04036817 0.01257521
outer loop
vertex -22.83010864 -24.92136574 63.68443298
vertex -22.82817268 -24.90915489 63.67975998
vertex -24.78896713 -30.78105354 47.56094360
endloop
endfacet
facet normal -51.90446472 9.34154510 2.91096878
outer loop
vertex -24.78896713 -30.78105354 47.56094360
vertex -22.82817268 -24.90915489 63.67975998
vertex -24.34098625 -27.95491982 46.47943115
endloop
endfacet
facet normal 21.61261368 -20.44438934 -44.47155380
outer loop
vertex -24.78896713 -30.78105354 47.56094360
vertex -24.34098625 -27.95491982 46.47943115
vertex -8.99466038 -30.41213989 55.06718063
endloop
endfacet
facet normal 20.25781059 -19.16280365 -41.68381500
outer loop
vertex -8.99466038 -30.41213989 55.06718063
vertex -24.34098625 -27.95491982 46.47943115
vertex -8.57476425 -27.76316452 54.05346298
endloop
endfacet
facet normal 26.18320465 9.59694099 35.92349243
outer loop
vertex -9.38187695 -32.85494995 56.00200272
vertex -8.99466038 -30.41213989 55.06718063
vertex -23.12764931 -26.79843903 64.40275574
endloop
endfacet
facet normal 20.11936378 7.37433386 27.60387802
outer loop
vertex -23.12764931 -26.79843903 64.40275574
vertex -8.99466038 -30.41213989 55.06718063
vertex -22.83010864 -24.92136574 63.68443298
endloop
endfacet
facet normal -34.47411728 6.20448494 1.93342364
outer loop
vertex -23.12764931 -26.79843903 64.40275574
vertex -22.83010864 -24.92136574 63.68443298
vertex -24.98373604 -32.00978470 48.03115845
endloop
endfacet
facet normal -22.56674576 4.06143856 1.26562548
outer loop
vertex -24.98373604 -32.00978470 48.03115845
vertex -22.83010864 -24.92136574 63.68443298
vertex -24.78896713 -30.78105354 47.56094360
endloop
endfacet
facet normal 9.39661503 -8.88869858 -19.33510208
outer loop
vertex -24.98373604 -32.00978470 48.03115845
vertex -24.78896713 -30.78105354 47.56094360
vertex -9.38187695 -32.85494995 56.00200272
endloop
endfacet
facet normal 18.68117905 -17.67140579 -38.43964386
outer loop
vertex -9.38187695 -32.85494995 56.00200272
vertex -24.78896713 -30.78105354 47.56094360
vertex -8.99466038 -30.41213989 55.06718063
endloop
endfacet
facet normal 24.09005165 3.66501427 36.76060104
outer loop
vertex -10.08027649 -35.22216797 56.69569016
vertex -9.38187695 -32.85494995 56.00200272
vertex -23.71441269 -28.79944229 64.99010468
endloop
endfacet
facet normal 20.36721992 3.14431047 31.05907440
outer loop
vertex -23.71441269 -28.79944229 64.99010468
vertex -9.38187695 -32.85494995 56.00200272
vertex -23.12764931 -26.79843903 64.40275574
endloop
endfacet
facet normal -35.82790756 10.69947433 0.65919733
outer loop
vertex -23.71441269 -28.79944229 64.99010468
vertex -23.12764931 -26.79843903 64.40275574
vertex -25.33197021 -33.19225311 48.37454224
endloop
endfacet
facet normal -21.14838791 6.33849955 0.37999535
outer loop
vertex -25.33197021 -33.19225311 48.37454224
vertex -23.12764931 -26.79843903 64.40275574
vertex -24.98373604 -32.00978470 48.03115845
endloop
endfacet
facet normal 9.14245510 -8.13489246 -18.74153328
outer loop
vertex -25.33197021 -33.19225311 48.37454224
vertex -24.98373604 -32.00978470 48.03115845
vertex -10.08027649 -35.22216797 56.69569016
endloop
endfacet
facet normal 18.28244591 -16.38964844 -37.52326584
outer loop
vertex -10.08027649 -35.22216797 56.69569016
vertex -24.98373604 -32.00978470 48.03115845
vertex -9.38187695 -32.85494995 56.00200272
endloop
endfacet
facet normal 24.60650444 3.78196907 37.51895905
outer loop
vertex -10.78854752 -37.64035797 57.40396118
vertex -10.08027649 -35.22216797 56.69569016
vertex -23.67477608 -28.66411591 64.95046997
endloop
endfacet
facet normal -1.37701595 -0.21162245 -2.09963346
outer loop
vertex -23.67477608 -28.66411591 64.95046997
vertex -10.08027649 -35.22216797 56.69569016
vertex -23.71441269 -28.79944229 64.99010468
endloop
endfacet
facet normal 2.42262721 -0.72269428 -0.04478055
outer loop
vertex -23.67477608 -28.66411591 64.95046997
vertex -23.71441269 -28.79944229 64.99010468
vertex -26.26856613 -36.38999557 49.31113815
endloop
endfacet
facet normal -57.24657822 17.07706642 1.05824423
outer loop
vertex -26.26856613 -36.38999557 49.31113815
vertex -23.71441269 -28.79944229 64.99010468
vertex -25.33197021 -33.19225311 48.37454224
endloop
endfacet
facet normal 24.70767975 -22.07822800 -50.67219925
outer loop
vertex -26.26856613 -36.38999557 49.31113815
vertex -25.33197021 -33.19225311 48.37454224
vertex -10.78854752 -37.64035797 57.40396118
endloop
endfacet
facet normal 18.68438721 -16.69596100 -38.31922150
outer loop
vertex -10.78854752 -37.64035797 57.40396118
vertex -25.33197021 -33.19225311 48.37454224
vertex -10.08027649 -35.22216797 56.69569016
endloop
endfacet
facet normal 22.38530159 12.65060234 23.21902084
outer loop
vertex -11.34935379 -39.05257797 58.71406174
vertex -10.78854752 -37.64035797 57.40396118
vertex -23.65253067 -28.63146019 64.89765167
endloop
endfacet
facet normal -0.72054648 -0.51275349 -0.62048918
outer loop
vertex -23.65253067 -28.63146019 64.89765167
vertex -10.78854752 -37.64035797 57.40396118
vertex -23.67477608 -28.66411591 64.95046997
endloop
endfacet
facet normal 0.98632711 -0.48848781 0.11339496
outer loop
vertex -23.65253067 -28.63146019 64.89765167
vertex -23.67477608 -28.66411591 64.95046997
vertex -27.40847778 -39.24255371 51.85652924
endloop
endfacet
facet normal -64.27748871 24.42966652 -1.40788269
outer loop
vertex -27.40847778 -39.24255371 51.85652924
vertex -23.67477608 -28.66411591 64.95046997
vertex -26.26856613 -36.38999557 49.31113815
endloop
endfacet
facet normal 20.04507256 -48.69373322 -45.59302902
outer loop
vertex -27.40847778 -39.24255371 51.85652924
vertex -26.26856613 -36.38999557 49.31113815
vertex -11.34935379 -39.05257797 58.71406174
endloop
endfacet
facet normal 9.79074574 -24.81888580 -22.56240273
outer loop
vertex -11.34935379 -39.05257797 58.71406174
vertex -26.26856613 -36.38999557 49.31113815
vertex -10.78854752 -37.64035797 57.40396118
endloop
endfacet
facet normal 35.55941010 20.24136353 36.63828659
outer loop
vertex -12.20999622 -41.30154419 60.79183578
vertex -11.34935379 -39.05257797 58.71406174
vertex -24.21262932 -30.09506798 66.24984741
endloop
endfacet
facet normal 23.14174080 13.17288399 23.84387970
outer loop
vertex -24.21262932 -30.09506798 66.24984741
vertex -11.34935379 -39.05257797 58.71406174
vertex -23.65253067 -28.63146019 64.89765167
endloop
endfacet
facet normal -33.43536758 12.38308907 -0.44602776
outer loop
vertex -24.21262932 -30.09506798 66.24984741
vertex -23.65253067 -28.63146019 64.89765167
vertex -27.61029243 -39.76992416 52.34375381
endloop
endfacet
facet normal -12.04748821 4.46187925 -0.16069865
outer loop
vertex -27.61029243 -39.76992416 52.34375381
vertex -23.65253067 -28.63146019 64.89765167
vertex -27.40847778 -39.24255371 51.85652924
endloop
endfacet
facet normal 3.70902586 -9.20834923 -8.43076420
outer loop
vertex -27.61029243 -39.76992416 52.34375381
vertex -27.40847778 -39.24255371 51.85652924
vertex -12.20999622 -41.30154419 60.79183578
endloop
endfacet
facet normal 15.81708622 -39.26911545 -35.95292282
outer loop
vertex -12.20999622 -41.30154419 60.79183578
vertex -27.40847778 -39.24255371 51.85652924
vertex -11.34935379 -39.05257797 58.71406174
endloop
endfacet
facet normal 28.96664810 9.93519020 43.23950958
outer loop
vertex -13.75430584 -43.46377182 62.32320404
vertex -12.20999622 -41.30154419 60.79183578
vertex -25.34389687 -31.69140625 67.38225555
endloop
endfacet
facet normal 21.40313721 7.41740847 31.83778572
outer loop
vertex -25.34389687 -31.69140625 67.38225555
vertex -12.20999622 -41.30154419 60.79183578
vertex -24.21262932 -30.09506798 66.24984741
endloop
endfacet
facet normal -33.17024994 19.59388924 -5.51563549
outer loop
vertex -25.34389687 -31.69140625 67.38225555
vertex -24.21262932 -30.09506798 66.24984741
vertex -27.95238495 -40.24788284 52.67307663
endloop
endfacet
facet normal -9.83268929 5.87609863 -1.68575335
outer loop
vertex -27.95238495 -40.24788284 52.67307663
vertex -24.21262932 -30.09506798 66.24984741
vertex -27.61029243 -39.76992416 52.34375381
endloop
endfacet
facet normal 3.55329680 -7.97698784 -7.88622665
outer loop
vertex -27.95238495 -40.24788284 52.67307663
vertex -27.61029243 -39.76992416 52.34375381
vertex -13.75430584 -43.46377182 62.32320404
endloop
endfacet
facet normal 15.92120171 -36.62997818 -35.66424179
outer loop
vertex -13.75430584 -43.46377182 62.32320404
vertex -27.61029243 -39.76992416 52.34375381
vertex -12.20999622 -41.30154419 60.79183578
endloop
endfacet
facet normal 20.10401917 6.93669224 29.91393280
outer loop
vertex -14.81649494 -44.96593475 63.38539505
vertex -13.75430584 -43.46377182 62.32320404
vertex -25.21429825 -31.50812531 67.25265503
endloop
endfacet
facet normal -2.45293236 -0.84637100 -3.64983368
outer loop
vertex -25.21429825 -31.50812531 67.25265503
vertex -13.75430584 -43.46377182 62.32320404
vertex -25.34389687 -31.69140625 67.38225555
endloop
endfacet
facet normal 3.80483961 -2.24435472 0.63081962
outer loop
vertex -25.21429825 -31.50812531 67.25265503
vertex -25.34389687 -31.69140625 67.38225555
vertex -29.99423218 -43.13549042 54.71492386
endloop
endfacet
facet normal -59.94535065 35.36003113 -9.93872738
outer loop
vertex -29.99423218 -43.13549042 54.71492386
vertex -25.34389687 -31.69140625 67.38225555
vertex -27.95238495 -40.24788284 52.67307663
endloop
endfacet
facet normal 21.29943085 -48.69439697 -47.56483841
outer loop
vertex -29.99423218 -43.13549042 54.71492386
vertex -27.95238495 -40.24788284 52.67307663
vertex -14.81649494 -44.96593475 63.38539505
endloop
endfacet
facet normal 11.08017540 -25.33133316 -24.74370956
outer loop
vertex -14.81649494 -44.96593475 63.38539505
vertex -27.95238495 -40.24788284 52.67307663
vertex -13.75430584 -43.46377182 62.32320404
endloop
endfacet
facet normal 21.78849030 12.65026760 14.65331078
outer loop
vertex -15.40753365 -45.61175537 64.82176971
vertex -14.81649494 -44.96593475 63.38539505
vertex -25.16019630 -31.47589493 67.11977386
endloop
endfacet
facet normal -1.91293275 -1.17244601 -1.06321871
outer loop
vertex -25.16019630 -31.47589493 67.11977386
vertex -14.81649494 -44.96593475 63.38539505
vertex -25.21429825 -31.50812531 67.25265503
endloop
endfacet
facet normal 2.05762267 -1.32666612 0.51596808
outer loop
vertex -25.16019630 -31.47589493 67.11977386
vertex -25.21429825 -31.50812531 67.25265503
vertex -31.61317635 -44.85711670 58.44750595
endloop
endfacet
facet normal -64.98538208 38.13938141 -10.59479427
outer loop
vertex -31.61317635 -44.85711670 58.44750595
vertex -25.21429825 -31.50812531 67.25265503
vertex -29.99423218 -43.13549042 54.71492386
endloop
endfacet
facet normal 8.15734959 -70.80847168 -29.12177849
outer loop
vertex -31.61317635 -44.85711670 58.44750595
vertex -29.99423218 -43.13549042 54.71492386
vertex -15.40753365 -45.61175537 64.82176971
endloop
endfacet
facet normal 2.97036505 -26.92550087 -10.88395977
outer loop
vertex -15.40753365 -45.61175537 64.82176971
vertex -29.99423218 -43.13549042 54.71492386
vertex -14.81649494 -44.96593475 63.38539505
endloop
endfacet
facet normal 17.49432945 10.15181732 11.79791737
outer loop
vertex -15.88533497 -46.12892532 65.97528076
vertex -15.40753365 -45.61175537 64.82176971
vertex -25.15398216 -31.46916771 67.10476685
endloop
endfacet
facet normal -0.22759631 -0.13207826 -0.15345053
outer loop
vertex -25.15398216 -31.46916771 67.10476685
vertex -15.40753365 -45.61175537 64.82176971
vertex -25.16019630 -31.47589493 67.11977386
endloop
endfacet
facet normal 0.25915664 -0.15073854 0.03974041
outer loop
vertex -25.15398216 -31.46916771 67.10476685
vertex -25.16019630 -31.47589493 67.11977386
vertex -33.25731277 -46.63671494 62.41679764
endloop
endfacet
facet normal -68.54712677 39.87215042 -10.51684189
outer loop
vertex -33.25731277 -46.63671494 62.41679764
vertex -25.16019630 -31.47589493 67.11977386
vertex -31.61317635 -44.85711670 58.44750595
endloop
endfacet
facet normal 8.34823513 -74.80508423 -30.08026695
outer loop
vertex -33.25731277 -46.63671494 62.41679764
vertex -31.61317635 -44.85711670 58.44750595
vertex -15.88533497 -46.12892532 65.97528076
endloop
endfacet
facet normal 2.42609358 -21.73901939 -8.74163914
outer loop
vertex -15.88533497 -46.12892532 65.97528076
vertex -31.61317635 -44.85711670 58.44750595
vertex -15.40753365 -45.61175537 64.82176971
endloop
endfacet
facet normal 17.37771606 11.00580311 -0.10450079
outer loop
vertex -15.87463379 -46.13455963 67.16141510
vertex -15.88533497 -46.12892532 65.97528076
vertex -25.15334892 -31.48384476 67.16141510
endloop
endfacet
facet normal 0.84702724 0.52576786 0.12675324
outer loop
vertex -25.15334892 -31.48384476 67.16141510
vertex -15.88533497 -46.12892532 65.97528076
vertex -25.15398216 -31.46916771 67.10476685
endloop
endfacet
facet normal -0.85913050 0.46031019 0.12886593
outer loop
vertex -25.15334892 -31.48384476 67.16141510
vertex -25.15398216 -31.46916771 67.10476685
vertex -33.27910995 -46.64989853 67.16141510
endloop
endfacet
facet normal -72.02601624 38.54938889 -0.22377874
outer loop
vertex -33.27910995 -46.64989853 67.16141510
vertex -25.15398216 -31.46916771 67.10476685
vertex -33.25731277 -46.63671494 62.41679764
endloop
endfacet
facet normal 2.44508600 -82.57758331 -0.21822062
outer loop
vertex -33.27910995 -46.64989853 67.16141510
vertex -33.25731277 -46.63671494 62.41679764
vertex -15.87463379 -46.13455963 67.16141510
endloop
endfacet
facet normal 0.62235630 -20.56741905 -0.10331302
outer loop
vertex -15.87463379 -46.13455963 67.16141510
vertex -33.25731277 -46.63671494 62.41679764
vertex -15.88533497 -46.12892532 65.97528076
endloop
endfacet
facet normal 41.23967361 26.11826134 0.00000000
outer loop
vertex -15.87463379 -46.13455963 69.97627258
vertex -15.87463379 -46.13455963 67.16141510
vertex -25.15334892 -31.48384476 71.10192108
endloop
endfacet
facet normal 57.73122787 36.56283188 0.00000000
outer loop
vertex -25.15334892 -31.48384476 71.10192108
vertex -15.87463379 -46.13455963 67.16141510
vertex -25.15334892 -31.48384476 67.16141510
endloop
endfacet
facet normal -59.76192474 32.01961136 0.00000000
outer loop
vertex -25.15334892 -31.48384476 71.10192108
vertex -25.15334892 -31.48384476 67.16141510
vertex -33.27910995 -46.64989853 66.40979004
endloop
endfacet
facet normal 11.39918613 -6.10752583 0.00000000
outer loop
vertex -33.27910995 -46.64989853 66.40979004
vertex -25.15334892 -31.48384476 67.16141510
vertex -33.27910995 -46.64989853 67.16141510
endloop
endfacet
facet normal -0.38734162 13.08164024 0.00000000
outer loop
vertex -33.27910995 -46.64989853 66.40979004
vertex -33.27910995 -46.64989853 67.16141510
vertex -15.87463379 -46.13455963 69.97627258
endloop
endfacet
facet normal 1.45060551 -48.99111938 0.00000000
outer loop
vertex -15.87463379 -46.13455963 69.97627258
vertex -33.27910995 -46.64989853 67.16141510
vertex -15.87463379 -46.13455963 67.16141510
endloop
endfacet
facet normal 34.25919724 19.86173820 23.21826172
outer loop
vertex -16.82174683 -47.14249039 72.23598480
vertex -15.87463379 -46.13455963 69.97627258
vertex -26.57441139 -33.00663757 74.53399658
endloop
endfacet
facet normal 51.99648666 30.24563599 34.94914246
outer loop
vertex -26.57441139 -33.00663757 74.53399658
vertex -15.87463379 -46.13455963 69.97627258
vertex -25.15334892 -31.48384476 71.10192108
endloop
endfacet
facet normal -59.13141251 34.47097397 -9.18898106
outer loop
vertex -26.57441139 -33.00663757 74.53399658
vertex -25.15334892 -31.48384476 71.10192108
vertex -33.02739716 -46.38785172 65.86172485
endloop
endfacet
facet normal 9.54154396 -5.63451624 1.68815994
outer loop
vertex -33.02739716 -46.38785172 65.86172485
vertex -25.15334892 -31.48384476 71.10192108
vertex -33.27910995 -46.64989853 66.40979004
endloop
endfacet
facet normal -1.25676334 10.48623562 4.43659163
outer loop
vertex -33.02739716 -46.38785172 65.86172485
vertex -33.27910995 -46.64989853 66.40979004
vertex -16.82174683 -47.14249039 72.23598480
endloop
endfacet
facet normal 4.75928497 -42.70697021 -17.05442238
outer loop
vertex -16.82174683 -47.14249039 72.23598480
vertex -33.27910995 -46.64989853 66.40979004
vertex -15.87463379 -46.13455963 69.97627258
endloop
endfacet
facet normal 45.52180862 26.41595650 30.69910431
outer loop
vertex -18.06502533 -48.48820496 75.23752594
vertex -16.82174683 -47.14249039 72.23598480
vertex -27.32827377 -33.82261276 76.35398102
endloop
endfacet
facet normal 27.60215378 16.01731300 18.61442184
outer loop
vertex -27.32827377 -33.82261276 76.35398102
vertex -16.82174683 -47.14249039 72.23598480
vertex -26.57441139 -33.00663757 74.53399658
endloop
endfacet
facet normal -31.42995834 18.28203392 -4.82211685
outer loop
vertex -27.32827377 -33.82261276 76.35398102
vertex -26.57441139 -33.00663757 74.53399658
vertex -33.14463806 -46.51475143 66.14476776
endloop
endfacet
facet normal -4.88796663 2.84321690 -0.74994361
outer loop
vertex -33.14463806 -46.51475143 66.14476776
vertex -26.57441139 -33.00663757 74.53399658
vertex -33.02739716 -46.38785172 65.86172485
endloop
endfacet
facet normal 0.59529644 -5.33422089 -2.14496803
outer loop
vertex -33.14463806 -46.51475143 66.14476776
vertex -33.02739716 -46.38785172 65.86172485
vertex -18.06502533 -48.48820496 75.23752594
endloop
endfacet
facet normal 6.31285572 -56.56690598 -22.74640656
outer loop
vertex -18.06502533 -48.48820496 75.23752594
vertex -33.02739716 -46.38785172 65.86172485
vertex -16.82174683 -47.14249039 72.23598480
endloop
endfacet
facet normal 34.31556702 18.21668243 45.14419556
outer loop
vertex -20.31810188 -49.79589462 77.47784424
vertex -18.06502533 -48.48820496 75.23752594
vertex -28.80982590 -34.68781662 77.83623505
endloop
endfacet
facet normal 22.70409393 12.07640076 29.74243927
outer loop
vertex -28.80982590 -34.68781662 77.83623505
vertex -18.06502533 -48.48820496 75.23752594
vertex -27.32827377 -33.82261276 76.35398102
endloop
endfacet
facet normal -27.65600586 23.76437187 -13.77145004
outer loop
vertex -28.80982590 -34.68781662 77.83623505
vertex -27.32827377 -33.82261276 76.35398102
vertex -33.33270264 -46.62439346 66.32106781
endloop
endfacet
facet normal -3.35698366 2.94541669 -1.74922371
outer loop
vertex -33.33270264 -46.62439346 66.32106781
vertex -27.32827377 -33.82261276 76.35398102
vertex -33.14463806 -46.51475143 66.14476776
endloop
endfacet
facet normal 0.66411579 -4.39266920 -2.02339411
outer loop
vertex -33.33270264 -46.62439346 66.32106781
vertex -33.14463806 -46.51475143 66.14476776
vertex -20.31810188 -49.79589462 77.47784424
endloop
endfacet
facet normal 7.46934128 -54.26981354 -24.16579437
outer loop
vertex -20.31810188 -49.79589462 77.47784424
vertex -33.14463806 -46.51475143 66.14476776
vertex -18.06502533 -48.48820496 75.23752594
endloop
endfacet
facet normal 17.67441559 9.38449383 23.17173004
outer loop
vertex -21.47193336 -50.47179413 78.63167572
vertex -20.31810188 -49.79589462 77.47784424
vertex -28.62645912 -34.58040237 77.65287018
endloop
endfacet
facet normal -2.80878711 -1.49136686 -3.68245173
outer loop
vertex -28.62645912 -34.58040237 77.65287018
vertex -20.31810188 -49.79589462 77.47784424
vertex -28.80982590 -34.68781662 77.83623505
endloop
endfacet
facet normal 3.42563725 -2.94082928 1.70294929
outer loop
vertex -28.62645912 -34.58040237 77.65287018
vertex -28.80982590 -34.68781662 77.83623505
vertex -36.26687241 -48.34319305 69.25524139
endloop
endfacet
facet normal -54.81625366 47.05836105 -27.25002289
outer loop
vertex -36.26687241 -48.34319305 69.25524139
vertex -28.80982590 -34.68781662 77.83623505
vertex -33.33270264 -46.62439346 66.32106781
endloop
endfacet
facet normal 9.87052536 -70.92297363 -31.67521286
outer loop
vertex -36.26687241 -48.34319305 69.25524139
vertex -33.33270264 -46.62439346 66.32106781
vertex -21.47193336 -50.47179413 78.63167572
endloop
endfacet
facet normal 3.88148212 -27.88969612 -12.45594025
outer loop
vertex -21.47193336 -50.47179413 78.63167572
vertex -33.33270264 -46.62439346 66.32106781
vertex -20.31810188 -49.79589462 77.47784424
endloop
endfacet
facet normal 23.55791664 11.21364594 9.71038723
outer loop
vertex -22.08207512 -50.47482300 80.11540985
vertex -21.47193336 -50.47179413 78.63167572
vertex -28.53982544 -34.59191132 77.44052124
endloop
endfacet
facet normal -3.38578510 -1.60405350 -1.29438877
outer loop
vertex -28.53982544 -34.59191132 77.44052124
vertex -21.47193336 -50.47179413 78.63167572
vertex -28.62645912 -34.58040237 77.65287018
endloop
endfacet
facet normal 2.87706923 -2.36173916 1.30178297
outer loop
vertex -28.53982544 -34.59191132 77.44052124
vertex -28.62645912 -34.58040237 77.65287018
vertex -38.05400085 -48.35428238 73.49962616
endloop
endfacet
facet normal -58.50770187 47.43649292 -24.51114655
outer loop
vertex -38.05400085 -48.35428238 73.49962616
vertex -28.62645912 -34.58040237 77.65287018
vertex -36.26687241 -48.34319305 69.25524139
endloop
endfacet
facet normal -8.92702579 -79.61425781 -3.96679640
outer loop
vertex -38.05400085 -48.35428238 73.49962616
vertex -36.26687241 -48.34319305 69.25524139
vertex -22.08207512 -50.47482300 80.11540985
endloop
endfacet
facet normal -3.12987804 -27.67271042 -1.34356034
outer loop
vertex -22.08207512 -50.47482300 80.11540985
vertex -36.26687241 -48.34319305 69.25524139
vertex -21.47193336 -50.47179413 78.63167572
endloop
endfacet
facet normal 35.15744781 16.74703407 14.56268787
outer loop
vertex -22.99895287 -50.47482300 82.32894897
vertex -22.08207512 -50.47482300 80.11540985
vertex -30.15733719 -34.59191132 81.34553528
endloop
endfacet
facet normal 62.02299118 29.54426956 25.69079590
outer loop
vertex -30.15733719 -34.59191132 81.34553528
vertex -22.08207512 -50.47482300 80.11540985
vertex -28.53982544 -34.59191132 77.44052124
endloop
endfacet
facet normal -53.74225235 43.52743530 -22.26079750
outer loop
vertex -30.15733719 -34.59191132 81.34553528
vertex -28.53982544 -34.59191132 77.44052124
vertex -37.81949615 -48.35428238 72.93347931
endloop
endfacet
facet normal 7.79152298 -6.31057882 3.22734070
outer loop
vertex -37.81949615 -48.35428238 72.93347931
vertex -28.53982544 -34.59191132 77.44052124
vertex -38.05400085 -48.35428238 73.49962616
endloop
endfacet
facet normal 1.20053744 10.59388542 0.49727675
outer loop
vertex -37.81949615 -48.35428238 72.93347931
vertex -38.05400085 -48.35428238 73.49962616
vertex -22.99895287 -50.47482300 82.32894897
endloop
endfacet
facet normal -4.69389963 -41.42034531 -1.94427645
outer loop
vertex -22.99895287 -50.47482300 82.32894897
vertex -38.05400085 -48.35428238 73.49962616
vertex -22.08207512 -50.47482300 80.11540985
endloop
endfacet
facet normal 22.32605934 11.85280800 29.33666611
outer loop
vertex -24.46196365 -51.32663727 83.78649902
vertex -22.99895287 -50.47482300 82.32894897
vertex -32.95368958 -36.21855164 84.14487457
endloop
endfacet
facet normal 42.86199951 22.78871918 56.05833435
outer loop
vertex -32.95368958 -36.21855164 84.14487457
vertex -22.99895287 -50.47482300 82.32894897
vertex -30.15733719 -34.59191132 81.34553528
endloop
endfacet
facet normal -52.14556122 44.86149979 -26.02179909
outer loop
vertex -32.95368958 -36.21855164 84.14487457
vertex -30.15733719 -34.59191132 81.34553528
vertex -37.47656250 -48.15513229 72.62971497
endloop
endfacet
facet normal 5.85577917 -5.21226788 3.19366074
outer loop
vertex -37.47656250 -48.15513229 72.62971497
vertex -30.15733719 -34.59191132 81.34553528
vertex -37.81949615 -48.35428238 72.93347931
endloop
endfacet
facet normal -1.25848436 7.77940750 3.67947435
outer loop
vertex -37.47656250 -48.15513229 72.62971497
vertex -37.81949615 -48.35428238 72.93347931
vertex -24.46196365 -51.32663727 83.78649902
endloop
endfacet
facet normal 4.91240072 -35.34735870 -15.72672367
outer loop
vertex -24.46196365 -51.32663727 83.78649902
vertex -37.81949615 -48.35428238 72.93347931
vertex -22.99895287 -50.47482300 82.32894897
endloop
endfacet
facet normal 32.99535370 17.51940727 43.25802994
outer loop
vertex -26.61598778 -52.58843613 85.94052124
vertex -24.46196365 -51.32663727 83.78649902
vertex -32.98273087 -36.23556519 84.17391968
endloop
endfacet
facet normal 0.44491318 0.23623538 0.58323270
outer loop
vertex -32.98273087 -36.23556519 84.17391968
vertex -24.46196365 -51.32663727 83.78649902
vertex -32.95368958 -36.21855164 84.14487457
endloop
endfacet
facet normal -0.54261410 0.46578902 -0.26970088
outer loop
vertex -32.98273087 -36.23556519 84.17391968
vertex -32.95368958 -36.21855164 84.14487457
vertex -39.18451309 -49.15562439 74.33766174
endloop
endfacet
facet normal -31.90787125 27.39215088 -15.86199093
outer loop
vertex -39.18451309 -49.15562439 74.33766174
vertex -32.95368958 -36.21855164 84.14487457
vertex -37.47656250 -48.15513229 72.62971497
endloop
endfacet
facet normal 5.74550962 -41.28348160 -18.43778229
outer loop
vertex -39.18451309 -49.15562439 74.33766174
vertex -37.47656250 -48.15513229 72.62971497
vertex -26.61598778 -52.58843613 85.94052124
endloop
endfacet
facet normal 7.24612617 -52.06571960 -23.25330353
outer loop
vertex -26.61598778 -52.58843613 85.94052124
vertex -37.47656250 -48.15513229 72.62971497
vertex -24.46196365 -51.32663727 83.78649902
endloop
endfacet
facet normal 38.12679672 18.96292877 38.12676620
outer loop
vertex -28.94749069 -52.58843613 88.27202606
vertex -26.61598778 -52.58843613 85.94052124
vertex -33.01416397 -36.23556519 84.20535278
endloop
endfacet
facet normal 0.51402152 0.25565627 0.51402152
outer loop
vertex -33.01416397 -36.23556519 84.20535278
vertex -26.61598778 -52.58843613 85.94052124
vertex -32.98273087 -36.23556519 84.17391968
endloop
endfacet
facet normal -0.40611759 0.50412506 -0.40611759
outer loop
vertex -33.01416397 -36.23556519 84.20535278
vertex -32.98273087 -36.23556519 84.17391968
vertex -41.03318024 -49.15562439 76.18634033
endloop
endfacet
facet normal -23.88503647 29.64906883 -23.88488960
outer loop
vertex -41.03318024 -49.15562439 76.18634033
vertex -32.98273087 -36.23556519 84.17391968
vertex -39.18451309 -49.15562439 74.33766174
endloop
endfacet
facet normal -6.34616566 -44.68496704 -6.34612608
outer loop
vertex -41.03318024 -49.15562439 76.18634033
vertex -39.18451309 -49.15562439 74.33766174
vertex -28.94749069 -52.58843613 88.27202606
endloop
endfacet
facet normal -8.00361729 -56.35567474 -8.00361061
outer loop
vertex -28.94749069 -52.58843613 88.27202606
vertex -39.18451309 -49.15562439 74.33766174
vertex -26.61598778 -52.58843613 85.94052124
endloop
endfacet
facet normal 40.56266022 20.17444992 40.56272125
outer loop
vertex -31.42795563 -52.58843613 90.75248718
vertex -28.94749069 -52.58843613 88.27202606
vertex -34.68571472 -36.23556519 85.87690735
endloop
endfacet
facet normal 27.33471680 13.59531784 27.33465385
outer loop
vertex -34.68571472 -36.23556519 85.87690735
vertex -28.94749069 -52.58843613 88.27202606
vertex -33.01416397 -36.23556519 84.20535278
endloop
endfacet
facet normal -21.59658432 26.80841064 -21.59653473
outer loop
vertex -34.68571472 -36.23556519 85.87690735
vertex -33.01416397 -36.23556519 84.20535278
vertex -41.10964966 -49.15562439 76.26280975
endloop
endfacet
facet normal -0.98798943 1.22641873 -0.98798943
outer loop
vertex -41.10964966 -49.15562439 76.26280975
vertex -33.01416397 -36.23556519 84.20535278
vertex -41.03318024 -49.15562439 76.18634033
endloop
endfacet
facet normal -0.26250511 -1.84837079 -0.26250511
outer loop
vertex -41.10964966 -49.15562439 76.26280975
vertex -41.03318024 -49.15562439 76.18634033
vertex -31.42795563 -52.58843613 90.75248718
endloop
endfacet
facet normal -8.51495647 -59.95620346 -8.51496887
outer loop
vertex -31.42795563 -52.58843613 90.75248718
vertex -41.03318024 -49.15562439 76.18634033
vertex -28.94749069 -52.58843613 88.27202606
endloop
endfacet
facet normal 21.95233727 20.17443085 52.99773788
outer loop
vertex -34.66883850 -52.58843613 92.09490204
vertex -31.42795563 -52.58843613 90.75248718
vertex -36.86970139 -36.23556519 86.78154755
endloop
endfacet
facet normal 14.79346466 13.59530163 35.71445084
outer loop
vertex -36.86970139 -36.23556519 86.78154755
vertex -31.42795563 -52.58843613 90.75248718
vertex -34.68571472 -36.23556519 85.87690735
endloop
endfacet
facet normal -11.68800831 26.80842400 -28.21724510
outer loop
vertex -36.86970139 -36.23556519 86.78154755
vertex -34.68571472 -36.23556519 85.87690735
vertex -41.20956802 -49.15562820 76.30419159
endloop
endfacet
facet normal -0.53469247 1.22645915 -1.29092669
outer loop
vertex -41.20956802 -49.15562820 76.30419159
vertex -34.68571472 -36.23556519 85.87690735
vertex -41.10964966 -49.15562439 76.26280975
endloop
endfacet
facet normal -0.14199567 -1.84844947 -0.34302551
outer loop
vertex -41.20956802 -49.15562820 76.30419159
vertex -41.10964966 -49.15562439 76.26280975
vertex -34.66883850 -52.58843613 92.09490204
endloop
endfacet
facet normal -4.60825729 -59.95619583 -11.12534046
outer loop
vertex -34.66883850 -52.58843613 92.09490204
vertex -41.10964966 -49.15562439 76.26280975
vertex -31.42795563 -52.58843613 90.75248718
endloop
endfacet
facet normal 11.35663128 10.43686581 27.41737175
outer loop
vertex -36.34544754 -52.58843613 92.78937531
vertex -34.66883850 -52.58843613 92.09490204
vertex -36.53914642 -36.23556519 86.64462280
endloop
endfacet
facet normal -2.23911262 -2.05770826 -5.40552282
outer loop
vertex -36.53914642 -36.23556519 86.64462280
vertex -34.66883850 -52.58843613 92.09490204
vertex -36.86970139 -36.23556519 86.78154755
endloop
endfacet
facet normal 1.76907635 -4.05759525 4.27079105
outer loop
vertex -36.53914642 -36.23556519 86.64462280
vertex -36.86970139 -36.23556519 86.78154755
vertex -45.38393402 -49.15562820 78.03327179
endloop
endfacet
facet normal -22.33982468 51.24029541 -53.93307114
outer loop
vertex -45.38393402 -49.15562820 78.03327179
vertex -36.86970139 -36.23556519 86.78154755
vertex -41.20956802 -49.15562820 76.30419159
endloop
endfacet
facet normal -5.93560028 -77.22564697 -14.32979679
outer loop
vertex -45.38393402 -49.15562820 78.03327179
vertex -41.20956802 -49.15562820 76.30419159
vertex -36.34544754 -52.58843613 92.78937531
endloop
endfacet
facet normal -2.38399339 -31.01721001 -5.75547695
outer loop
vertex -36.34544754 -52.58843613 92.78937531
vertex -41.20956802 -49.15562820 76.30419159
vertex -34.66883850 -52.58843613 92.09490204
endloop
endfacet
facet normal 25.72504425 8.17156315 20.96058273
outer loop
vertex -37.63532257 -51.83205414 94.07756805
vertex -36.34544754 -52.58843613 92.78937531
vertex -36.27595139 -36.37910080 86.38481140
endloop
endfacet
facet normal -5.13065290 -1.66759348 -4.27619171
outer loop
vertex -36.27595139 -36.37910080 86.38481140
vertex -36.34544754 -52.58843613 92.78937531
vertex -36.53914642 -36.23556519 86.64462280
endloop
endfacet
facet normal 2.09688830 -4.54387522 4.63451004
outer loop
vertex -36.27595139 -36.37910080 86.38481140
vertex -36.53914642 -36.23556519 86.64462280
vertex -48.23255920 -47.46711731 80.92341614
endloop
endfacet
facet normal -22.80048752 50.09322357 -51.73893738
outer loop
vertex -48.23255920 -47.46711731 80.92341614
vertex -36.53914642 -36.23556519 86.64462280
vertex -45.38393402 -49.15562820 78.03327179
endloop
endfacet
facet normal -34.82622528 -68.09879303 5.45948029
outer loop
vertex -48.23255920 -47.46711731 80.92341614
vertex -45.38393402 -49.15562820 78.03327179
vertex -37.63532257 -51.83205414 94.07756805
endloop
endfacet
facet normal -15.58336830 -30.67684174 2.40865493
outer loop
vertex -37.63532257 -51.83205414 94.07756805
vertex -45.38393402 -49.15562820 78.03327179
vertex -36.34544754 -52.58843613 92.78937531
endloop
endfacet
facet normal 29.78815269 9.45224667 24.25114822
outer loop
vertex -39.12776947 -50.95779800 95.57001495
vertex -37.63532257 -51.83205414 94.07756805
vertex -35.98380280 -36.55023956 86.09265900
endloop
endfacet
facet normal -5.83114624 -1.85028434 -4.74719954
outer loop
vertex -35.98380280 -36.55023956 86.09265900
vertex -37.63532257 -51.83205414 94.07756805
vertex -36.27595139 -36.37910080 86.38481140
endloop
endfacet
facet normal 2.30473375 -5.08870077 5.28559303
outer loop
vertex -35.98380280 -36.55023956 86.09265900
vertex -36.27595139 -36.37910080 86.38481140
vertex -50.92448425 -45.89022446 83.61534119
endloop
endfacet
facet normal -21.23607254 46.88795853 -48.70240021
outer loop
vertex -50.92448425 -45.89022446 83.61534119
vertex -36.27595139 -36.37910080 86.38481140
vertex -48.23255920 -47.46711731 80.92341614
endloop
endfacet
facet normal -32.49276733 -63.93695831 4.96062756
outer loop
vertex -50.92448425 -45.89022446 83.61534119
vertex -48.23255920 -47.46711731 80.92341614
vertex -39.12776947 -50.95779800 95.57001495
endloop
endfacet
facet normal -18.01453400 -35.44768524 2.75026274
outer loop
vertex -39.12776947 -50.95779800 95.57001495
vertex -48.23255920 -47.46711731 80.92341614
vertex -37.63532257 -51.83205414 94.07756805
endloop
endfacet
facet normal 43.41188049 1.26952839 16.34576797
outer loop
vertex -39.84976959 -49.06884003 97.34082794
vertex -39.12776947 -50.95779800 95.57001495
vertex -35.85824585 -36.87223816 85.79267120
endloop
endfacet
facet normal -7.37378693 -0.24679625 -2.82132196
outer loop
vertex -35.85824585 -36.87223816 85.79267120
vertex -39.12776947 -50.95779800 95.57001495
vertex -35.98380280 -36.55023956 86.09265900
endloop
endfacet
facet normal 2.00638843 -4.76511383 5.95449591
outer loop
vertex -35.85824585 -36.87223816 85.79267120
vertex -35.98380280 -36.55023956 86.09265900
vertex -51.86085892 -43.25720215 86.07521057
endloop
endfacet
facet normal -16.45231056 39.07182312 -48.08487320
outer loop
vertex -51.86085892 -43.25720215 86.07521057
vertex -35.98380280 -36.55023956 86.09265900
vertex -50.92448425 -45.89022446 83.61534119
endloop
endfacet
facet normal -43.95849228 -40.09455109 26.18359375
outer loop
vertex -51.86085892 -43.25720215 86.07521057
vertex -50.92448425 -45.89022446 83.61534119
vertex -39.84976959 -49.06884003 97.34082794
endloop
endfacet
facet normal -31.55560303 -29.52105141 18.62471008
outer loop
vertex -39.84976959 -49.06884003 97.34082794
vertex -50.92448425 -45.89022446 83.61534119
vertex -39.12776947 -50.95779800 95.57001495
endloop
endfacet
facet normal 21.14700317 0.67805934 8.02540207
outer loop
vertex -40.20445251 -48.14200592 98.19711304
vertex -39.84976959 -49.06884003 97.34082794
vertex -37.06464767 -33.71976089 88.70517731
endloop
endfacet
facet normal 71.92797852 2.30638027 27.29718971
outer loop
vertex -37.06464767 -33.71976089 88.70517731
vertex -39.84976959 -49.06884003 97.34082794
vertex -35.85824585 -36.87223816 85.79267120
endloop
endfacet
facet normal -19.48695374 46.26684952 -58.15070724
outer loop
vertex -37.06464767 -33.71976089 88.70517731
vertex -35.85824585 -36.87223816 85.79267120
vertex -51.93955994 -43.05154800 86.26521301
endloop
endfacet
facet normal -1.27126408 3.01829934 -3.79350710
outer loop
vertex -51.93955994 -43.05154800 86.26521301
vertex -35.85824585 -36.87223816 85.79267120
vertex -51.86085892 -43.25720215 86.07521057
endloop
endfacet
facet normal -3.42104435 -3.16875172 2.01274920
outer loop
vertex -51.93955994 -43.05154800 86.26521301
vertex -51.86085892 -43.25720215 86.07521057
vertex -40.20445251 -48.14200592 98.19711304
endloop
endfacet
facet normal -15.41777802 -14.28063869 9.07099915
outer loop
vertex -40.20445251 -48.14200592 98.19711304
vertex -51.86085892 -43.25720215 86.07521057
vertex -39.84976959 -49.06884003 97.34082794
endloop
endfacet
facet normal 22.24930382 7.16063786 18.31566048
outer loop
vertex -41.33084488 -47.47289276 99.30382538
vertex -40.20445251 -48.14200592 98.19711304
vertex -39.97147369 -32.01993942 91.61106110
endloop
endfacet
facet normal 58.04396057 18.46749687 47.26006699
outer loop
vertex -39.97147369 -32.01993942 91.61106110
vertex -40.20445251 -48.14200592 98.19711304
vertex -37.06464767 -33.71976089 88.70517731
endloop
endfacet
facet normal -22.93710136 50.61980438 -52.55502701
outer loop
vertex -39.97147369 -32.01993942 91.61106110
vertex -37.06464767 -33.71976089 88.70517731
vertex -51.92807770 -43.10795593 86.14967346
endloop
endfacet
facet normal 0.94055718 -1.74665689 0.94621283
outer loop
vertex -51.92807770 -43.10795593 86.14967346
vertex -37.06464767 -33.71976089 88.70517731
vertex -51.93955994 -43.05154800 86.26521301
endloop
endfacet
facet normal 1.24632120 1.37543869 -0.54764873
outer loop
vertex -51.92807770 -43.10795593 86.14967346
vertex -51.93955994 -43.05154800 86.26521301
vertex -41.33084488 -47.47289276 99.30382538
endloop
endfacet
facet normal -13.61746407 -26.42738914 2.11826181
outer loop
vertex -41.33084488 -47.47289276 99.30382538
vertex -51.93955994 -43.05154800 86.26521301
vertex -40.20445251 -48.14200592 98.19711304
endloop
endfacet
facet normal 29.78812790 9.45224667 24.25114822
outer loop
vertex -42.82329178 -46.59864044 100.79627228
vertex -41.33084488 -47.47289276 99.30382538
vertex -39.67932510 -32.19107437 91.31891632
endloop
endfacet
facet normal -5.83100033 -1.85029697 -4.74719429
outer loop
vertex -39.67932510 -32.19107437 91.31891632
vertex -41.33084488 -47.47289276 99.30382538
vertex -39.97147369 -32.01993942 91.61106110
endloop
endfacet
facet normal 2.30467319 -5.08858585 5.28553677
outer loop
vertex -39.67932510 -32.19107437 91.31891632
vertex -39.97147369 -32.01993942 91.61106110
vertex -54.62000275 -41.53106308 88.84159851
endloop
endfacet
facet normal -21.23608589 46.88792801 -48.70239258
outer loop
vertex -54.62000275 -41.53106308 88.84159851
vertex -39.97147369 -32.01993942 91.61106110
vertex -51.92807770 -43.10795593 86.14967346
endloop
endfacet
facet normal -32.49277878 -63.93695068 4.96061134
outer loop
vertex -54.62000275 -41.53106308 88.84159851
vertex -51.92807770 -43.10795593 86.14967346
vertex -42.82329178 -46.59864044 100.79627228
endloop
endfacet
facet normal -18.01448441 -35.44767761 2.75021887
outer loop
vertex -42.82329178 -46.59864044 100.79627228
vertex -51.92807770 -43.10795593 86.14967346
vertex -41.33084488 -47.47289276 99.30382538
endloop
endfacet
facet normal 43.41194153 1.26953411 16.34578323
outer loop
vertex -43.54529190 -44.70967865 102.56708527
vertex -42.82329178 -46.59864044 100.79627228
vertex -39.55376816 -32.51307678 91.01892090
endloop
endfacet
facet normal -7.37393522 -0.24677229 -2.82133484
outer loop
vertex -39.55376816 -32.51307678 91.01892090
vertex -42.82329178 -46.59864044 100.79627228
vertex -39.67932510 -32.19107437 91.31891632
endloop
endfacet
facet normal 2.00644088 -4.76523399 5.95455551
outer loop
vertex -39.55376816 -32.51307678 91.01892090
vertex -39.67932510 -32.19107437 91.31891632
vertex -55.55637741 -38.89804077 91.30146790
endloop
endfacet
facet normal -16.45231819 39.07181168 -48.08486938
outer loop
vertex -55.55637741 -38.89804077 91.30146790
vertex -39.67932510 -32.19107437 91.31891632
vertex -54.62000275 -41.53106308 88.84159851
endloop
endfacet
facet normal -43.95849228 -40.09453964 26.18358612
outer loop
vertex -55.55637741 -38.89804077 91.30146790
vertex -54.62000275 -41.53106308 88.84159851
vertex -43.54529190 -44.70967865 102.56708527
endloop
endfacet
facet normal -31.55565262 -29.52104568 18.62474632
outer loop
vertex -43.54529190 -44.70967865 102.56708527
vertex -54.62000275 -41.53106308 88.84159851
vertex -42.82329178 -46.59864044 100.79627228
endloop
endfacet
facet normal 23.58483505 -61.63024139 -56.93892288
outer loop
vertex -46.26746368 -38.76265717 95.00251770
vertex -39.55376816 -32.51307678 91.01892090
vertex -43.54529190 -44.70967865 102.56708527
endloop
endfacet
facet normal 23.66932297 -61.85100937 -57.14288712
outer loop
vertex -46.26746368 -38.76265717 95.00251770
vertex -55.55637741 -38.89804077 91.30146790
vertex -39.55376816 -32.51307678 91.01892090
endloop
endfacet
facet normal 23.03434181 -60.19172287 -55.60990906
outer loop
vertex -46.26746368 -38.76265717 95.00251770
vertex -43.54529190 -44.70967865 102.56708527
vertex -55.55637741 -38.89804077 91.30146790
endloop
endfacet
endsolid