solid (null).stl
facet normal 0.00000000 -0.00000000 86.60253906
outer loop
vertex 0.00000000 0.00000000 0.00000000
vertex 10.00000000 0.00000000 0.00000000
vertex -5.00000048 8.66025352 0.00000000
endloop
endfacet
facet normal 0.00000000 0.00000000 86.60253906
outer loop
vertex 0.00000000 0.00000000 0.00000000
vertex -5.00000048 8.66025352 0.00000000
vertex -4.99999905 -8.66025448 0.00000000
endloop
endfacet
facet normal -0.00000000 0.00000000 86.60254669
outer loop
vertex 0.00000000 0.00000000 0.00000000
vertex -4.99999905 -8.66025448 0.00000000
vertex 10.00000000 0.00000000 0.00000000
endloop
endfacet
facet normal 17.32050705 30.00000000 0.00000000
outer loop
vertex 10.00000000 0.00000000 2.00000000
vertex 10.00000000 0.00000000 0.00000000
vertex -5.00000048 8.66025352 2.00000000
endloop
endfacet
facet normal 17.32050705 30.00000000 0.00000000
outer loop
vertex -5.00000048 8.66025352 2.00000000
vertex 10.00000000 0.00000000 0.00000000
vertex -5.00000048 8.66025352 0.00000000
endloop
endfacet
facet normal -34.64101410 -0.00000286 -0.00000000
outer loop
vertex -5.00000048 8.66025352 2.00000000
vertex -5.00000048 8.66025352 0.00000000
vertex -4.99999905 -8.66025448 2.00000000
endloop
endfacet
facet normal -34.64101410 -0.00000286 -0.00000000
outer loop
vertex -4.99999905 -8.66025448 2.00000000
vertex -5.00000048 8.66025352 0.00000000
vertex -4.99999905 -8.66025448 0.00000000
endloop
endfacet
facet normal 17.32050896 -29.99999809 0.00000000
outer loop
vertex -4.99999905 -8.66025448 2.00000000
vertex -4.99999905 -8.66025448 0.00000000
vertex 10.00000000 0.00000000 2.00000000
endloop
endfacet
facet normal 17.32050896 -29.99999809 0.00000000
outer loop
vertex 10.00000000 0.00000000 2.00000000
vertex -4.99999905 -8.66025448 0.00000000
vertex 10.00000000 0.00000000 0.00000000
endloop
endfacet
facet normal 34.54681778 59.83684921 0.00000000
outer loop
vertex 10.00000000 0.00000000 5.98912334
vertex 10.00000000 0.00000000 2.00000000
vertex -5.00000048 8.66025352 4.76181793
endloop
endfacet
facet normal 23.91804314 41.42726898 0.00000000
outer loop
vertex -5.00000048 8.66025352 4.76181793
vertex 10.00000000 0.00000000 2.00000000
vertex -5.00000048 8.66025352 2.00000000
endloop
endfacet
facet normal -47.83608627 -0.00000395 -0.00000000
outer loop
vertex -5.00000048 8.66025352 4.76181793
vertex -5.00000048 8.66025352 2.00000000
vertex -4.99999905 -8.66025448 1.24905825
endloop
endfacet
facet normal 13.00669193 0.00000107 -0.00000000
outer loop
vertex -4.99999905 -8.66025448 1.24905825
vertex -5.00000048 8.66025352 2.00000000
vertex -4.99999905 -8.66025448 2.00000000
endloop
endfacet
facet normal -6.50334692 11.26412582 0.00000000
outer loop
vertex -4.99999905 -8.66025448 1.24905825
vertex -4.99999905 -8.66025448 2.00000000
vertex 10.00000000 0.00000000 5.98912334
endloop
endfacet
facet normal 34.54682159 -59.83684540 0.00000000
outer loop
vertex 10.00000000 0.00000000 5.98912334
vertex -4.99999905 -8.66025448 2.00000000
vertex 10.00000000 0.00000000 2.00000000
endloop
endfacet
facet normal 26.51861763 50.61960983 33.97267914
outer loop
vertex 8.61619282 -1.46659970 9.25455189
vertex 10.00000000 0.00000000 5.98912334
vertex -6.02986145 7.56123304 7.23550987
endloop
endfacet
facet normal 20.07396507 38.36933517 25.40416336
outer loop
vertex -6.02986145 7.56123304 7.23550987
vertex 10.00000000 0.00000000 5.98912334
vertex -5.00000048 8.66025352 4.76181793
endloop
endfacet
facet normal -46.68845749 3.61378741 -17.83204651
outer loop
vertex -6.02986145 7.56123304 7.23550987
vertex -5.00000048 8.66025352 4.76181793
vertex -4.73866034 -8.37586021 0.62508249
endloop
endfacet
facet normal 11.80658627 -0.91801924 4.52651978
outer loop
vertex -4.73866034 -8.37586021 0.62508249
vertex -5.00000048 8.66025352 4.76181793
vertex -4.99999905 -8.66025448 1.24905825
endloop
endfacet
facet normal -6.76538277 10.58831787 1.99238622
outer loop
vertex -4.73866034 -8.37586021 0.62508249
vertex -4.99999905 -8.66025448 1.24905825
vertex 8.61619282 -1.46659970 9.25455189
endloop
endfacet
facet normal 35.23122025 -55.54076004 -10.01487160
outer loop
vertex 8.61619282 -1.46659970 9.25455189
vertex -4.99999905 -8.66025448 1.24905825
vertex 10.00000000 0.00000000 5.98912334
endloop
endfacet
facet normal 1.16191816 2.21471119 1.47422540
outer loop
vertex 8.55694103 -1.53073370 9.39759922
vertex 8.61619282 -1.46659970 9.25455189
vertex -6.41978979 7.13917732 8.17688084
endloop
endfacet
facet normal 7.64639139 14.57465172 9.70165825
outer loop
vertex -6.41978979 7.13917732 8.17688084
vertex 8.61619282 -1.46659970 9.25455189
vertex -6.02986145 7.56123304 7.23550987
endloop
endfacet
facet normal -17.79268646 1.36209452 -6.75928211
outer loop
vertex -6.41978979 7.13917732 8.17688084
vertex -6.02986145 7.56123304 7.23550987
vertex -6.41186714 -10.18692684 4.66456175
endloop
endfacet
facet normal -76.34947968 5.84483194 -29.00450325
outer loop
vertex -6.41186714 -10.18692684 4.66456175
vertex -6.02986145 7.56123304 7.23550987
vertex -4.73866034 -8.37586021 0.62508249
endloop
endfacet
facet normal 43.53835678 -68.38554382 -12.62590790
outer loop
vertex -6.41186714 -10.18692684 4.66456175
vertex -4.73866034 -8.37586021 0.62508249
vertex 8.55694103 -1.53073370 9.39759922
endloop
endfacet
facet normal 1.54179370 -2.42168760 -0.44711414
outer loop
vertex 8.55694103 -1.53073370 9.39759922
vertex -4.73866034 -8.37586021 0.62508249
vertex 8.61619282 -1.46659970 9.25455189
endloop
endfacet
facet normal 0.14388113 0.24920942 -0.24981186
outer loop
vertex 8.58578682 -1.53073370 9.41421318
vertex 8.55694103 -1.53073370 9.39759922
vertex -6.41421413 7.12952042 9.41421318
endloop
endfacet
facet normal 10.71577358 18.52438736 0.09628844
outer loop
vertex -6.41421413 7.12952042 9.41421318
vertex 8.55694103 -1.53073370 9.39759922
vertex -6.41978979 7.13917732 8.17688084
endloop
endfacet
facet normal -21.43122673 -0.00000236 0.09657320
outer loop
vertex -6.41421413 7.12952042 9.41421318
vertex -6.41978979 7.13917732 8.17688084
vertex -6.41421223 -10.19098854 9.41421318
endloop
endfacet
facet normal -82.30722046 -0.02939313 -0.04066337
outer loop
vertex -6.41421223 -10.19098854 9.41421318
vertex -6.41978979 7.13917732 8.17688084
vertex -6.41186714 -10.18692684 4.66456175
endloop
endfacet
facet normal 41.13319016 -71.24476624 -0.04061645
outer loop
vertex -6.41421223 -10.19098854 9.41421318
vertex -6.41186714 -10.18692684 4.66456175
vertex 8.58578682 -1.53073370 9.41421318
endloop
endfacet
facet normal 0.14381364 -0.11216299 -0.24969469
outer loop
vertex 8.58578682 -1.53073370 9.41421318
vertex -6.41186714 -10.18692684 4.66456175
vertex 8.55694103 -1.53073370 9.39759922
endloop
endfacet
facet normal 34.54682159 59.83685303 0.00000000
outer loop
vertex 8.58578682 -1.53073370 13.40333652
vertex 8.58578682 -1.53073370 9.41421318
vertex -6.41421413 7.12952042 12.17603111
endloop
endfacet
facet normal 23.91804695 41.42727280 0.00000000
outer loop
vertex -6.41421413 7.12952042 12.17603111
vertex 8.58578682 -1.53073370 9.41421318
vertex -6.41421413 7.12952042 9.41421318
endloop
endfacet
facet normal -47.83609390 -0.00000527 -0.00000000
outer loop
vertex -6.41421413 7.12952042 12.17603111
vertex -6.41421413 7.12952042 9.41421318
vertex -6.41421223 -10.19098854 8.66327095
endloop
endfacet
facet normal 13.00670147 0.00000143 -0.00000000
outer loop
vertex -6.41421223 -10.19098854 8.66327095
vertex -6.41421413 7.12952042 9.41421318
vertex -6.41421223 -10.19098854 9.41421318
endloop
endfacet
facet normal -6.50335073 11.26413250 0.00000000
outer loop
vertex -6.41421223 -10.19098854 8.66327095
vertex -6.41421223 -10.19098854 9.41421318
vertex 8.58578682 -1.53073370 13.40333652
endloop
endfacet
facet normal 34.54682159 -59.83684540 0.00000000
outer loop
vertex 8.58578682 -1.53073370 13.40333652
vertex -6.41421223 -10.19098854 9.41421318
vertex 8.58578682 -1.53073370 9.41421318
endloop
endfacet
facet normal 26.51861000 50.61959076 33.97267914
outer loop
vertex 7.20197916 -2.99733329 16.66876411
vertex 8.58578682 -1.53073370 13.40333652
vertex -7.44407415 6.03049946 14.64972305
endloop
endfacet
facet normal 20.07396507 38.36933517 25.40416527
outer loop
vertex -7.44407415 6.03049946 14.64972305
vertex 8.58578682 -1.53073370 13.40333652
vertex -6.41421413 7.12952042 12.17603111
endloop
endfacet
facet normal -46.68846130 3.61378288 -17.83203125
outer loop
vertex -7.44407415 6.03049946 14.64972305
vertex -6.41421413 7.12952042 12.17603111
vertex -6.15287352 -9.90659428 8.03929520
endloop
endfacet
facet normal 11.80658627 -0.91801906 4.52651978
outer loop
vertex -6.15287352 -9.90659428 8.03929520
vertex -6.41421413 7.12952042 12.17603111
vertex -6.41421223 -10.19098854 8.66327095
endloop
endfacet
facet normal -6.76538277 10.58831787 1.99238622
outer loop
vertex -6.15287352 -9.90659428 8.03929520
vertex -6.41421223 -10.19098854 8.66327095
vertex 7.20197916 -2.99733329 16.66876411
endloop
endfacet
facet normal 35.23121262 -55.54075241 -10.01486683
outer loop
vertex 7.20197916 -2.99733329 16.66876411
vertex -6.41421223 -10.19098854 8.66327095
vertex 8.58578682 -1.53073370 13.40333652
endloop
endfacet
facet normal 14.91290474 28.42522049 18.92133331
outer loop
vertex 6.44149399 -3.82047653 18.50473785
vertex 7.20197916 -2.99733329 16.66876411
vertex -7.51735640 5.95117950 14.82664204
endloop
endfacet
facet normal 1.43704486 2.73912454 1.82330406
outer loop
vertex -7.51735640 5.95117950 14.82664204
vertex 7.20197916 -2.99733329 16.66876411
vertex -7.44407415 6.03049946 14.64972305
endloop
endfacet
facet normal -3.34391403 0.25598907 -1.27032423
outer loop
vertex -7.51735640 5.95117950 14.82664204
vertex -7.44407415 6.03049946 14.64972305
vertex -7.43929482 -11.29900646 11.14499092
endloop
endfacet
facet normal -58.70020294 4.49371910 -22.29969978
outer loop
vertex -7.43929482 -11.29900646 11.14499092
vertex -7.44407415 6.03049946 14.64972305
vertex -6.15287352 -9.90659428 8.03929520
endloop
endfacet
facet normal 33.47383881 -52.57723999 -9.70723915
outer loop
vertex -7.43929482 -11.29900646 11.14499092
vertex -6.15287352 -9.90659428 8.03929520
vertex 6.44149399 -3.82047653 18.50473785
endloop
endfacet
facet normal 19.78850937 -31.08174324 -5.73856688
outer loop
vertex 6.44149399 -3.82047653 18.50473785
vertex -6.15287352 -9.90659428 8.03929520
vertex 7.20197916 -2.99733329 16.66876411
endloop
endfacet
facet normal 19.41866112 30.76723480 8.04347038
outer loop
vertex 5.61835098 -3.82047653 20.49198151
vertex 6.44149399 -3.82047653 18.50473785
vertex -7.59667587 5.95117903 15.01813698
endloop
endfacet
facet normal 1.87122107 2.96479392 0.77508932
outer loop
vertex -7.59667587 5.95117903 15.01813698
vertex 6.44149399 -3.82047653 18.50473785
vertex -7.51735640 5.95117950 14.82664204
endloop
endfacet
facet normal -3.30332351 0.27707919 -1.36827505
outer loop
vertex -7.59667587 5.95117903 15.01813698
vertex -7.51735640 5.95117950 14.82664204
vertex -8.83170605 -11.29900551 14.50657082
endloop
endfacet
facet normal -57.98787689 4.86396217 -24.01935387
outer loop
vertex -8.83170605 -11.29900551 14.50657082
vertex -7.51735640 5.95117950 14.82664204
vertex -7.43929482 -11.29900646 11.14499092
endloop
endfacet
facet normal 25.13966751 -56.90917206 10.41320133
outer loop
vertex -8.83170605 -11.29900551 14.50657082
vertex -7.43929482 -11.29900646 11.14499092
vertex 5.61835098 -3.82047653 20.49198151
endloop
endfacet
facet normal 14.86166096 -33.64263153 6.15589952
outer loop
vertex 5.61835098 -3.82047653 20.49198151
vertex -7.43929482 -11.29900646 11.14499092
vertex 6.44149399 -3.82047653 18.50473785
endloop
endfacet
facet normal 34.57163620 54.77584839 14.32004356
outer loop
vertex 4.15288353 -3.82047653 24.02993202
vertex 5.61835098 -3.82047653 20.49198151
vertex -8.73172379 5.95117903 17.75838470
endloop
endfacet
facet normal 26.77675819 42.42552567 11.09129810
outer loop
vertex -8.73172379 5.95117903 17.75838470
vertex 5.61835098 -3.82047653 20.49198151
vertex -7.59667587 5.95117903 15.01813698
endloop
endfacet
facet normal -47.26977921 3.96494055 -19.57978630
outer loop
vertex -8.73172379 5.95117903 17.75838470
vertex -7.59667587 5.95117903 15.01813698
vertex -8.52618027 -11.29900551 13.76896667
endloop
endfacet
facet normal 12.72380829 -1.06726003 5.27037621
outer loop
vertex -8.52618027 -11.29900551 13.76896667
vertex -7.59667587 5.95117903 15.01813698
vertex -8.83170605 -11.29900551 14.50657082
endloop
endfacet
facet normal -5.51619387 12.48711967 -2.28488350
outer loop
vertex -8.52618027 -11.29900551 13.76896667
vertex -8.83170605 -11.29900551 14.50657082
vertex 4.15288353 -3.82047653 24.02993202
endloop
endfacet
facet normal 26.45866585 -59.89501190 10.95954037
outer loop
vertex 4.15288353 -3.82047653 24.02993202
vertex -8.83170605 -11.29900551 14.50657082
vertex 5.61835098 -3.82047653 20.49198151
endloop
endfacet
facet normal 14.52171135 45.80353165 41.71469116
outer loop
vertex 1.73295689 -5.22239304 26.41168785
vertex 4.15288353 -3.82047653 24.02993202
vertex -10.75870419 4.77891159 19.77865791
endloop
endfacet
facet normal 12.38948345 38.74272919 34.91116333
outer loop
vertex -10.75870419 4.77891159 19.77865791
vertex 4.15288353 -3.82047653 24.02993202
vertex -8.73172379 5.95117903 17.75838470
endloop
endfacet
facet normal -39.50255966 7.65946198 -35.18928909
outer loop
vertex -10.75870419 4.77891159 19.77865791
vertex -8.73172379 5.95117903 17.75838470
vertex -8.02231121 -10.99899387 13.27256489
endloop
endfacet
facet normal 9.75989437 -1.90811217 8.75349998
outer loop
vertex -8.02231121 -10.99899387 13.27256489
vertex -8.73172379 5.95117903 17.75838470
vertex -8.52618027 -11.29900551 13.76896667
endloop
endfacet
facet normal -6.80940485 11.46293068 0.01604342
outer loop
vertex -8.02231121 -10.99899387 13.27256489
vertex -8.52618027 -11.29900551 13.76896667
vertex 1.73295689 -5.22239304 26.41168785
endloop
endfacet
facet normal 32.19704437 -55.02921677 0.32250214
outer loop
vertex 1.73295689 -5.22239304 26.41168785
vertex -8.52618027 -11.29900551 13.76896667
vertex 4.15288353 -3.82047653 24.02993202
endloop
endfacet
facet normal 9.19108582 28.74156761 26.02750587
outer loop
vertex 0.23010576 -6.10274315 27.91453934
vertex 1.73295689 -5.22239304 26.41168785
vertex -10.85484791 4.72259188 19.87480164
endloop
endfacet
facet normal 0.58799231 1.83871901 1.66508937
outer loop
vertex -10.85484791 4.72259188 19.87480164
vertex 1.73295689 -5.22239304 26.41168785
vertex -10.75870419 4.77891159 19.77865791
endloop
endfacet
facet normal -1.88336778 0.36243299 -1.67105937
outer loop
vertex -10.85484791 4.72259188 19.87480164
vertex -10.75870419 4.77891159 19.77865791
vertex -10.33765507 -12.35529137 15.58790874
endloop
endfacet
facet normal -45.35547256 8.72815228 -40.24263763
outer loop
vertex -10.33765507 -12.35529137 15.58790874
vertex -10.75870419 4.77891159 19.77865791
vertex -8.02231121 -10.99899387 13.27256489
endloop
endfacet
facet normal 31.19537735 -53.00838470 0.14377213
outer loop
vertex -10.33765507 -12.35529137 15.58790874
vertex -8.02231121 -10.99899387 13.27256489
vertex 0.23010576 -6.10274315 27.91453934
endloop
endfacet
facet normal 20.24840164 -34.40686417 0.09331989
outer loop
vertex 0.23010576 -6.10274315 27.91453934
vertex -8.02231121 -10.99899387 13.27256489
vertex 1.73295689 -5.22239304 26.41168785
endloop
endfacet
facet normal 17.60929680 31.10964966 17.60929680
outer loop
vertex -1.39656878 -6.10274315 29.54121399
vertex 0.23010576 -6.10274315 27.91453934
vertex -10.95891476 4.72259140 19.97886848
endloop
endfacet
facet normal 1.12655461 1.99024630 1.12656379
outer loop
vertex -10.95891476 4.72259140 19.97886848
vertex 0.23010576 -6.10274315 27.91453934
vertex -10.85484791 4.72259188 19.87480164
endloop
endfacet
facet normal -1.77724254 0.39230078 -1.77724063
outer loop
vertex -10.95891476 4.72259140 19.97886848
vertex -10.85484791 4.72259188 19.87480164
vertex -12.84376526 -12.35529232 18.09401894
endloop
endfacet
facet normal -42.79906082 9.44728374 -42.79906082
outer loop
vertex -12.84376526 -12.35529232 18.09401894
vertex -10.85484791 4.72259188 19.87480164
vertex -10.33765507 -12.35529137 15.58790874
endloop
endfacet
facet normal 15.66958809 -57.37586975 15.66956711
outer loop
vertex -12.84376526 -12.35529232 18.09401894
vertex -10.33765507 -12.35529137 15.58790874
vertex -1.39656878 -6.10274315 29.54121399
endloop
endfacet
facet normal 10.17086124 -37.24172592 10.17086124
outer loop
vertex -1.39656878 -6.10274315 29.54121399
vertex -10.33765507 -12.35529137 15.58790874
vertex 0.23010576 -6.10274315 27.91453934
endloop
endfacet
facet normal 2.60297132 4.59857321 2.60297894
outer loop
vertex -1.63702130 -6.10274315 29.78166580
vertex -1.39656878 -6.10274315 29.54121399
vertex -11.54899883 4.72259140 20.56895256
endloop
endfacet
facet normal 6.38785744 11.28517532 6.38785744
outer loop
vertex -11.54899883 4.72259140 20.56895256
vertex -1.39656878 -6.10274315 29.54121399
vertex -10.95891476 4.72259140 19.97886848
endloop
endfacet
facet normal -10.07738781 2.22443986 -10.07738781
outer loop
vertex -11.54899883 4.72259140 20.56895256
vertex -10.95891476 4.72259140 19.97886848
vertex -16.25787163 -12.35529232 21.50812531
endloop
endfacet
facet normal -58.30571365 12.87015629 -58.30571365
outer loop
vertex -16.25787163 -12.35529232 21.50812531
vertex -10.95891476 4.72259140 19.97886848
vertex -12.84376526 -12.35529232 18.09401894
endloop
endfacet
facet normal 21.34686852 -78.16388702 21.34686852
outer loop
vertex -16.25787163 -12.35529232 21.50812531
vertex -12.84376526 -12.35529232 18.09401894
vertex -1.63702130 -6.10274315 29.78166580
endloop
endfacet
facet normal 1.50343680 -5.50500584 1.50344121
outer loop
vertex -1.63702130 -6.10274315 29.78166580
vertex -12.84376526 -12.35529232 18.09401894
vertex -1.39656878 -6.10274315 29.54121399
endloop
endfacet
facet normal 6.30713797 5.93243694 0.20880544
outer loop
vertex -1.83566189 -5.90617418 30.19698334
vertex -1.63702130 -6.10274315 29.78166580
vertex -11.80416107 5.00953627 21.17393112
endloop
endfacet
facet normal 9.19263649 8.34727097 -0.08197451
outer loop
vertex -11.80416107 5.00953627 21.17393112
vertex -1.63702130 -6.10274315 29.78166580
vertex -11.54899883 4.72259140 20.56895256
endloop
endfacet
facet normal -10.66055870 2.58501267 -5.72239828
outer loop
vertex -11.80416107 5.00953627 21.17393112
vertex -11.54899883 4.72259140 20.56895256
vertex -17.94079971 -10.51596260 25.59277534
endloop
endfacet
facet normal -71.48462677 17.65353775 -37.40201950
outer loop
vertex -17.94079971 -10.51596260 25.59277534
vertex -11.54899883 4.72259140 20.56895256
vertex -16.25787163 -12.35529232 21.50812531
endloop
endfacet
facet normal 10.36071587 -73.53240204 37.38059998
outer loop
vertex -17.94079971 -10.51596260 25.59277534
vertex -16.25787163 -12.35529232 21.50812531
vertex -1.83566189 -5.90617418 30.19698334
endloop
endfacet
facet normal 0.97047186 -7.71575642 4.11601543
outer loop
vertex -1.83566189 -5.90617418 30.19698334
vertex -16.25787163 -12.35529232 21.50812531
vertex -1.63702130 -6.10274315 29.78166580
endloop
endfacet
facet normal 44.64782715 40.90213013 0.15560436
outer loop
vertex -3.07178164 -4.56820726 33.18124008
vertex -1.83566189 -5.90617418 30.19698334
vertex -12.96574497 6.26682615 23.97824287
endloop
endfacet
facet normal 41.95564651 38.43581390 0.14622021
outer loop
vertex -12.96574497 6.26682615 23.97824287
vertex -1.83566189 -5.90617418 30.19698334
vertex -11.80416107 5.00953627 21.17393112
endloop
endfacet
facet normal -49.09410477 12.07619095 -25.74970245
outer loop
vertex -12.96574497 6.26682615 23.97824287
vertex -11.80416107 5.00953627 21.17393112
vertex -17.66431999 -10.81522274 24.92529297
endloop
endfacet
facet normal 11.68537998 -2.87437725 6.12893677
outer loop
vertex -17.66431999 -10.81522274 24.92529297
vertex -11.80416107 5.00953627 21.17393112
vertex -17.94079971 -10.51596260 25.59277534
endloop
endfacet
facet normal -1.69909668 12.02286434 -6.09413815
outer loop
vertex -17.66431999 -10.81522274 24.92529297
vertex -17.94079971 -10.51596260 25.59277534
vertex -3.07178164 -4.56820726 33.18124008
endloop
endfacet
facet normal 7.59651375 -53.75321960 27.24639320
outer loop
vertex -3.07178164 -4.56820726 33.18124008
vertex -17.94079971 -10.51596260 25.59277534
vertex -1.83566189 -5.90617418 30.19698334
endloop
endfacet
facet normal 28.13778877 49.43770599 27.82963943
outer loop
vertex -5.63921118 -4.57200909 35.78385162
vertex -3.07178164 -4.56820726 33.18124008
vertex -15.20155430 6.25332642 26.22150993
endloop
endfacet
facet normal 24.18163490 42.77094650 24.35863304
outer loop
vertex -15.20155430 6.25332642 26.22150993
vertex -3.07178164 -4.56820726 33.18124008
vertex -12.96574497 6.26682615 23.97824287
endloop
endfacet
facet normal -38.33570099 8.44239140 -38.15745163
outer loop
vertex -15.20155430 6.25332642 26.22150993
vertex -12.96574497 6.26682615 23.97824287
vertex -17.08640480 -10.82455826 24.33665848
endloop
endfacet
facet normal 10.06392479 -2.21842861 9.91583920
outer loop
vertex -17.08640480 -10.82455826 24.33665848
vertex -12.96574497 6.26682615 23.97824287
vertex -17.66431999 -10.81522274 24.92529297
endloop
endfacet
facet normal -3.57360077 13.35371971 -3.72030854
outer loop
vertex -17.08640480 -10.82455826 24.33665848
vertex -17.66431999 -10.81522274 24.92529297
vertex -5.63921118 -4.57200909 35.78385162
endloop
endfacet
facet normal 16.28994179 -59.17527008 15.98329353
outer loop
vertex -5.63921118 -4.57200909 35.78385162
vertex -17.66431999 -10.81522274 24.92529297
vertex -3.07178164 -4.56820726 33.18124008
endloop
endfacet
facet normal 30.36069298 53.63701630 30.36069679
outer loop
vertex -8.44380760 -4.57200909 38.58844757
vertex -5.63921118 -4.57200909 35.78385162
vertex -16.10408211 6.25332642 27.12403870
endloop
endfacet
facet normal 9.77017689 17.26056862 9.77016640
outer loop
vertex -16.10408211 6.25332642 27.12403870
vertex -5.63921118 -4.57200909 35.78385162
vertex -15.20155430 6.25332642 26.22150993
endloop
endfacet
facet normal -15.41328239 3.40226316 -15.41326618
outer loop
vertex -16.10408211 6.25332642 27.12403870
vertex -15.20155430 6.25332642 26.22150993
vertex -17.61401367 -10.82455826 24.86426735
endloop
endfacet
facet normal -9.01044369 1.98892832 -9.01044369
outer loop
vertex -17.61401367 -10.82455826 24.86426735
vertex -15.20155430 6.25332642 26.22150993
vertex -17.08640480 -10.82455826 24.33665848
endloop
endfacet
facet normal 3.29890037 -12.07928085 3.29890037
outer loop
vertex -17.61401367 -10.82455826 24.86426735
vertex -17.08640480 -10.82455826 24.33665848
vertex -8.44380760 -4.57200909 38.58844757
endloop
endfacet
facet normal 17.53587341 -64.20951080 17.53587723
outer loop
vertex -8.44380760 -4.57200909 38.58844757
vertex -17.08640480 -10.82455826 24.33665848
vertex -5.63921118 -4.57200909 35.78385162
endloop
endfacet
facet normal 16.43109703 53.63702393 39.66817093
outer loop
vertex -12.10818958 -4.57200956 40.10628510
vertex -8.44380760 -4.57200909 38.58844757
vertex -17.28329277 6.25332642 27.61248398
endloop
endfacet
facet normal 5.28758383 17.26057816 12.76535130
outer loop
vertex -17.28329277 6.25332642 27.61248398
vertex -8.44380760 -4.57200909 38.58844757
vertex -16.10408211 6.25332642 27.12403870
endloop
endfacet
facet normal -8.34161186 3.40226579 -20.13842392
outer loop
vertex -17.28329277 6.25332642 27.61248398
vertex -16.10408211 6.25332642 27.12403870
vertex -18.30336761 -10.82455826 25.14980698
endloop
endfacet
facet normal -4.87641287 1.98892760 -11.77270699
outer loop
vertex -18.30336761 -10.82455826 25.14980698
vertex -16.10408211 6.25332642 27.12403870
vertex -17.61401367 -10.82455826 24.86426735
endloop
endfacet
facet normal 1.78535044 -12.07927608 4.31021929
outer loop
vertex -18.30336761 -10.82455826 25.14980698
vertex -17.61401367 -10.82455826 24.86426735
vertex -12.10818958 -4.57200956 40.10628510
endloop
endfacet
facet normal 9.49036026 -64.20951843 22.91172409
outer loop
vertex -12.10818958 -4.57200956 40.10628510
vertex -17.61401367 -10.82455826 24.86426735
vertex -8.44380760 -4.57200909 38.58844757
endloop
endfacet
facet normal 1.40875065 4.59863663 3.40099478
outer loop
vertex -12.42235947 -4.57200956 40.23641968
vertex -12.10818958 -4.57200956 40.10628510
vertex -18.05427361 6.25332642 27.93183517
endloop
endfacet
facet normal 3.45708418 11.28515625 8.34612656
outer loop
vertex -18.05427361 6.25332642 27.93183517
vertex -12.10818958 -4.57200956 40.10628510
vertex -17.28329277 6.25332642 27.61248398
endloop
endfacet
facet normal -5.45384312 2.22444105 -13.16672134
outer loop
vertex -18.05427361 6.25332642 27.93183517
vertex -17.28329277 6.25332642 27.61248398
vertex -22.76411057 -10.82455826 26.99750710
endloop
endfacet
facet normal -31.55480957 12.87016106 -76.18005371
outer loop
vertex -22.76411057 -10.82455826 26.99750710
vertex -17.28329277 6.25332642 27.61248398
vertex -18.30336761 -10.82455826 25.14980698
endloop
endfacet
facet normal 11.55283451 -78.16384125 27.89101219
outer loop
vertex -22.76411057 -10.82455826 26.99750710
vertex -18.30336761 -10.82455826 25.14980698
vertex -12.42235947 -4.57200956 40.23641968
endloop
endfacet
facet normal 0.81367284 -5.50508213 1.96436250
outer loop
vertex -12.42235947 -4.57200956 40.23641968
vertex -18.30336761 -10.82455826 25.14980698
vertex -12.10818958 -4.57200956 40.10628510
endloop
endfacet
facet normal 5.74710083 5.93239164 2.60652494
outer loop
vertex -12.76481152 -4.37544203 40.54410553
vertex -12.42235947 -4.57200956 40.23641968
vertex -18.52152634 6.54026985 28.39311409
endloop
endfacet
facet normal 8.52421951 8.34723377 3.44212723
outer loop
vertex -18.52152634 6.54026985 28.39311409
vertex -12.42235947 -4.57200956 40.23641968
vertex -18.05427361 6.25332642 27.93183517
endloop
endfacet
facet normal -7.65917063 2.58500266 -9.36639023
outer loop
vertex -18.52152634 6.54026985 28.39311409
vertex -18.05427361 6.25332642 27.93183517
vertex -25.88206482 -8.98522854 30.12720490
endloop
endfacet
facet normal -51.73007965 17.65355873 -61.91100693
outer loop
vertex -25.88206482 -8.98522854 30.12720490
vertex -18.05427361 6.25332642 27.93183517
vertex -22.76411057 -10.82455826 26.99750710
endloop
endfacet
facet normal -4.73287582 -73.53245544 38.50005722
outer loop
vertex -25.88206482 -8.98522854 30.12720490
vertex -22.76411057 -10.82455826 26.99750710
vertex -12.76481152 -4.37544203 40.54410553
endloop
endfacet
facet normal -0.67851973 -7.71570301 4.17405033
outer loop
vertex -12.76481152 -4.37544203 40.54410553
vertex -22.76411057 -10.82455826 26.99750710
vertex -12.42235947 -4.57200956 40.23641968
endloop
endfacet
facet normal 44.77944565 44.46683502 18.73136520
outer loop
vertex -15.24792290 -2.92086887 43.02721786
vertex -12.76481152 -4.37544203 40.54410553
vertex -19.43547058 7.07564640 29.30705833
endloop
endfacet
facet normal 16.48170853 16.36664581 6.89434195
outer loop
vertex -19.43547058 7.07564640 29.30705833
vertex -12.76481152 -4.37544203 40.54410553
vertex -18.52152634 6.54026985 28.39311409
endloop
endfacet
facet normal -15.11783218 5.14225960 -18.13010025
outer loop
vertex -19.43547058 7.07564640 29.30705833
vertex -18.52152634 6.54026985 28.39311409
vertex -26.39556313 -8.68442822 30.64070320
endloop
endfacet
facet normal -8.49393272 2.88917112 -10.18636990
outer loop
vertex -26.39556313 -8.68442822 30.64070320
vertex -18.52152634 6.54026985 28.39311409
vertex -25.88206482 -8.98522854 30.12720490
endloop
endfacet
facet normal -0.76628947 -12.08474827 6.31279182
outer loop
vertex -26.39556313 -8.68442822 30.64070320
vertex -25.88206482 -8.98522854 30.12720490
vertex -15.24792290 -2.92086887 43.02721786
endloop
endfacet
facet normal -3.70552731 -58.43793869 30.52661896
outer loop
vertex -15.24792290 -2.92086887 43.02721786
vertex -25.88206482 -8.98522854 30.12720490
vertex -12.76481152 -4.37544203 40.54410553
endloop
endfacet
facet normal 33.61920166 50.42356491 26.49501991
outer loop
vertex -18.50839996 -1.45872855 44.38174820
vertex -15.24792290 -2.92086887 43.02721786
vertex -20.52027130 7.56960011 29.75247002
endloop
endfacet
facet normal 11.22968864 16.74882126 8.77577305
outer loop
vertex -20.52027130 7.56960011 29.75247002
vertex -15.24792290 -2.92086887 43.02721786
vertex -19.43547058 7.07564640 29.30705833
endloop
endfacet
facet normal -7.68056822 1.64218175 -20.52718544
outer loop
vertex -20.52027130 7.56960011 29.75247002
vertex -19.43547058 7.07564640 29.30705833
vertex -27.15006447 -8.33412647 30.96080780
endloop
endfacet
facet normal -5.51205063 1.22172070 -14.32913017
outer loop
vertex -27.15006447 -8.33412647 30.96080780
vertex -19.43547058 7.07564640 29.30705833
vertex -26.39556313 -8.68442822 30.64070320
endloop
endfacet
facet normal -2.50053239 -12.89235401 8.21468735
outer loop
vertex -27.15006447 -8.33412647 30.96080780
vertex -26.39556313 -8.68442822 30.64070320
vertex -18.50839996 -1.45872855 44.38174820
endloop
endfacet
facet normal -10.30390644 -55.48576355 35.09136581
outer loop
vertex -18.50839996 -1.45872855 44.38174820
vertex -26.39556313 -8.68442822 30.64070320
vertex -15.24792290 -2.92086887 43.02721786
endloop
endfacet
facet normal 18.89301682 28.36658859 14.90795135
outer loop
vertex -20.34292603 -0.63623410 45.14163589
vertex -18.50839996 -1.45872855 44.38174820
vertex -20.69565201 7.64823055 29.82511520
endloop
endfacet
facet normal 1.80617130 2.71184587 1.42520046
outer loop
vertex -20.69565201 7.64823055 29.82511520
vertex -18.50839996 -1.45872855 44.38174820
vertex -20.52027130 7.56960011 29.75247002
endloop
endfacet
facet normal -1.25034118 0.26970357 -3.31051040
outer loop
vertex -20.69565201 7.64823055 29.82511520
vertex -20.52027130 7.56960011 29.75247002
vertex -30.24808884 -6.94515324 32.24405289
endloop
endfacet
facet normal -22.08672714 4.76418972 -58.47873688
outer loop
vertex -30.24808884 -6.94515324 32.24405289
vertex -20.52027130 7.56960011 29.75247002
vertex -27.15006447 -8.33412647 30.96080780
endloop
endfacet
facet normal -9.81850910 -52.66777802 33.30319214
outer loop
vertex -30.24808884 -6.94515324 32.24405289
vertex -27.15006447 -8.33412647 30.96080780
vertex -20.34292603 -0.63623410 45.14163589
endloop
endfacet
facet normal -5.81411886 -31.18775940 19.72081757
outer loop
vertex -20.34292603 -0.63623410 45.14163589
vertex -27.15006447 -8.33412647 30.96080780
vertex -18.50839996 -1.45872855 44.38174820
endloop
endfacet
facet normal 28.09575844 21.71087074 11.09604836
outer loop
vertex -21.74701309 0.88353693 45.72322464
vertex -20.34292603 -0.63623410 45.14163589
vertex -20.82988167 7.79351997 29.88071442
endloop
endfacet
facet normal 2.68593812 2.07554269 1.06077349
outer loop
vertex -20.82988167 7.79351997 29.88071442
vertex -20.34292603 -0.63623410 45.14163589
vertex -20.69565201 7.64823055 29.82511520
endloop
endfacet
facet normal -1.16282809 0.20641360 -3.34673333
outer loop
vertex -20.82988167 7.79351997 29.88071442
vertex -20.69565201 7.64823055 29.82511520
vertex -32.61921310 -4.37866497 33.22620392
endloop
endfacet
facet normal -20.54108238 3.64633465 -59.11894226
outer loop
vertex -32.61921310 -4.37866497 33.22620392
vertex -20.69565201 7.64823055 29.82511520
vertex -30.24808884 -6.94515324 32.24405289
endloop
endfacet
facet normal -26.90517807 -40.31013107 40.38070679
outer loop
vertex -32.61921310 -4.37866497 33.22620392
vertex -30.24808884 -6.94515324 32.24405289
vertex -21.74701309 0.88353693 45.72322464
endloop
endfacet
facet normal -15.93217850 -23.87005997 23.91185188
outer loop
vertex -21.74701309 0.88353693 45.72322464
vertex -30.24808884 -6.94515324 32.24405289
vertex -20.34292603 -0.63623410 45.14163589
endloop
endfacet
facet normal 44.39614105 34.30686569 17.53364754
outer loop
vertex -23.96570969 3.28503561 46.64223862
vertex -21.74701309 0.88353693 45.72322464
vertex -21.68674278 8.72097969 30.23563766
endloop
endfacet
facet normal 17.14580345 13.24932003 6.77149820
outer loop
vertex -21.68674278 8.72097969 30.23563766
vertex -21.74701309 0.88353693 45.72322464
vertex -20.82988167 7.79351997 29.88071442
endloop
endfacet
facet normal -7.42299938 1.31768680 -21.36400223
outer loop
vertex -21.68674278 8.72097969 30.23563766
vertex -20.82988167 7.79351997 29.88071442
vertex -33.45588303 -3.47305989 33.57276535
endloop
endfacet
facet normal -7.24810219 1.28665733 -20.86058044
outer loop
vertex -33.45588303 -3.47305989 33.57276535
vertex -20.82988167 7.79351997 29.88071442
vertex -32.61921310 -4.37866497 33.22620392
endloop
endfacet
facet normal -9.49368572 -14.22376347 14.24864388
outer loop
vertex -33.45588303 -3.47305989 33.57276535
vertex -32.61921310 -4.37866497 33.22620392
vertex -23.96570969 3.28503561 46.64223862
endloop
endfacet
facet normal -25.17554092 -37.71880341 37.78480530
outer loop
vertex -23.96570969 3.28503561 46.64223862
vertex -32.61921310 -4.37866497 33.22620392
vertex -21.74701309 0.88353693 45.72322464
endloop
endfacet
facet normal 39.26135635 39.28250504 18.49205017
outer loop
vertex -26.35868073 5.67751217 46.64055252
vertex -23.96570969 3.28503561 46.64223862
vertex -22.49445343 9.54173660 30.22748756
endloop
endfacet
facet normal 13.42152786 13.27035999 6.26114798
outer loop
vertex -22.49445343 9.54173660 30.22748756
vertex -23.96570969 3.28503561 46.64223862
vertex -21.68674278 8.72097969 30.23563766
endloop
endfacet
facet normal -2.65092635 -2.80252719 -19.51045227
outer loop
vertex -22.49445343 9.54173660 30.22748756
vertex -21.68674278 8.72097969 30.23563766
vertex -34.47531891 -2.43912983 33.57631302
endloop
endfacet
facet normal -3.49361706 -3.36023474 -24.59951019
outer loop
vertex -34.47531891 -2.43912983 33.57631302
vertex -21.68674278 8.72097969 30.23563766
vertex -33.45588303 -3.47305989 33.57276535
endloop
endfacet
facet normal -13.47871494 -13.34694958 16.66643143
outer loop
vertex -34.47531891 -2.43912983 33.57631302
vertex -33.45588303 -3.47305989 33.57276535
vertex -26.35868073 5.67751217 46.64055252
endloop
endfacet
facet normal -31.27980232 -31.25886917 38.87694550
outer loop
vertex -26.35868073 5.67751217 46.64055252
vertex -33.45588303 -3.47305989 33.57276535
vertex -23.96570969 3.28503561 46.64223862
endloop
endfacet
facet normal 5.65196180 5.65197754 2.66135454
outer loop
vertex -26.70303917 6.02186966 46.64055252
vertex -26.35868073 5.67751217 46.64055252
vertex -23.32673836 10.37402058 30.22748756
endloop
endfacet
facet normal 13.66033077 13.66034698 6.43227005
outer loop
vertex -23.32673836 10.37402058 30.22748756
vertex -26.35868073 5.67751217 46.64055252
vertex -22.49445343 9.54173660 30.22748756
endloop
endfacet
facet normal -2.78717375 -2.78717685 -19.94297409
outer loop
vertex -23.32673836 10.37402058 30.22748756
vertex -22.49445343 9.54173660 30.22748756
vertex -37.53844070 0.62399149 33.57631302
endloop
endfacet
facet normal -10.25785828 -10.25786018 -73.39769745
outer loop
vertex -37.53844070 0.62399149 33.57631302
vertex -22.49445343 9.54173660 30.22748756
vertex -34.47531891 -2.43912983 33.57631302
endloop
endfacet
facet normal -40.01734924 -40.01735687 49.72451019
outer loop
vertex -37.53844070 0.62399149 33.57631302
vertex -34.47531891 -2.43912983 33.57631302
vertex -26.70303917 6.02186966 46.64055252
endloop
endfacet
facet normal -4.49876881 -4.49878120 5.59005928
outer loop
vertex -26.70303917 6.02186966 46.64055252
vertex -34.47531891 -2.43912983 33.57631302
vertex -26.35868073 5.67751217 46.64055252
endloop
endfacet
facet normal 17.34224319 6.49419689 5.34756279
outer loop
vertex -27.11797714 7.05474520 46.73185730
vertex -26.70303917 6.02186966 46.64055252
vertex -23.53783226 11.03056526 30.29306030
endloop
endfacet
facet normal 11.06129360 3.24330473 3.13540483
outer loop
vertex -23.53783226 11.03056526 30.29306030
vertex -26.70303917 6.02186966 46.64055252
vertex -23.32673836 10.37402058 30.22748756
endloop
endfacet
facet normal -2.99258852 0.18857789 -11.52196789
outer loop
vertex -23.53783226 11.03056526 30.29306030
vertex -23.32673836 10.37402058 30.22748756
vertex -38.98725891 4.49921036 34.19882584
endloop
endfacet
facet normal -19.04694939 3.99512768 -69.19947815
outer loop
vertex -38.98725891 4.49921036 34.19882584
vertex -23.32673836 10.37402058 30.22748756
vertex -37.53844070 0.62399149 33.57631302
endloop
endfacet
facet normal -46.97738647 -25.54686546 49.69857025
outer loop
vertex -38.98725891 4.49921036 34.19882584
vertex -37.53844070 0.62399149 33.57631302
vertex -27.11797714 7.05474520 46.73185730
endloop
endfacet
facet normal -13.00088215 -6.41017294 13.43140507
outer loop
vertex -27.11797714 7.05474520 46.73185730
vertex -37.53844070 0.62399149 33.57631302
vertex -26.70303917 6.02186966 46.64055252
endloop
endfacet
facet normal 19.94103622 6.68635464 5.96001816
outer loop
vertex -27.56505013 8.22300434 46.91704178
vertex -27.11797714 7.05474520 46.73185730
vertex -24.32562828 13.08917618 30.61937714
endloop
endfacet
facet normal 35.13846207 11.78215790 10.50226021
outer loop
vertex -24.32562828 13.08917618 30.61937714
vertex -27.11797714 7.05474520 46.73185730
vertex -23.53783226 11.03056526 30.29306030
endloop
endfacet
facet normal -10.17173958 1.96446204 -36.94972992
outer loop
vertex -24.32562828 13.08917618 30.61937714
vertex -23.53783226 11.03056526 30.29306030
vertex -39.87714386 6.82459545 34.56742859
endloop
endfacet
facet normal -11.48988438 2.21901917 -41.73802185
outer loop
vertex -39.87714386 6.82459545 34.56742859
vertex -23.53783226 11.03056526 30.29306030
vertex -38.98725891 4.49921036 34.19882584
endloop
endfacet
facet normal -28.20214844 -15.52800560 29.87478256
outer loop
vertex -39.87714386 6.82459545 34.56742859
vertex -38.98725891 4.49921036 34.19882584
vertex -27.56505013 8.22300434 46.91704178
endloop
endfacet
facet normal -14.16858387 -7.80118656 15.00890732
outer loop
vertex -27.56505013 8.22300434 46.91704178
vertex -38.98725891 4.49921036 34.19882584
vertex -27.11797714 7.05474520 46.73185730
endloop
endfacet
facet normal 21.34934807 4.63160992 5.62814617
outer loop
vertex -27.91900635 9.42881680 47.26740265
vertex -27.56505013 8.22300434 46.91704178
vertex -24.89402771 15.02439308 31.18788910
endloop
endfacet
facet normal 34.30599213 7.42193317 9.03491306
outer loop
vertex -24.89402771 15.02439308 31.18788910
vertex -27.56505013 8.22300434 46.91704178
vertex -24.32562828 13.08917618 30.61937714
endloop
endfacet
facet normal -11.19565392 6.60071087 -33.66228104
outer loop
vertex -24.89402771 15.02439308 31.18788910
vertex -24.32562828 13.08917618 30.61937714
vertex -40.58727264 9.23190403 35.27143860
endloop
endfacet
facet normal -13.91450596 8.14479828 -41.88595581
outer loop
vertex -40.58727264 9.23190403 35.27143860
vertex -24.32562828 13.08917618 30.61937714
vertex -39.87714386 6.82459545 34.56742859
endloop
endfacet
facet normal -28.73935890 -17.43726730 30.63625908
outer loop
vertex -40.58727264 9.23190403 35.27143860
vertex -39.87714386 6.82459545 34.56742859
vertex -27.91900635 9.42881680 47.26740265
endloop
endfacet
facet normal -14.40136909 -8.68489838 15.34105206
outer loop
vertex -27.91900635 9.42881680 47.26740265
vertex -39.87714386 6.82459545 34.56742859
vertex -27.56505013 8.22300434 46.91704178
endloop
endfacet
facet normal 34.47252655 7.43906116 9.07393169
outer loop
vertex -28.48885155 11.37439156 47.83724976
vertex -27.91900635 9.42881680 47.26740265
vertex -25.93704796 18.58548546 32.23090744
endloop
endfacet
facet normal 63.09692383 13.61614990 16.60852814
outer loop
vertex -25.93704796 18.58548546 32.23090744
vertex -27.91900635 9.42881680 47.26740265
vertex -24.89402771 15.02439308 31.18788910
endloop
endfacet
facet normal -20.58356857 12.10911751 -61.92677689
outer loop
vertex -25.93704796 18.58548546 32.23090744
vertex -24.89402771 15.02439308 31.18788910
vertex -40.60700226 9.29926586 35.29116821
endloop
endfacet
facet normal -0.38935897 0.22905482 -1.17140925
outer loop
vertex -40.60700226 9.29926586 35.29116821
vertex -24.89402771 15.02439308 31.18788910
vertex -40.58727264 9.23190403 35.27143860
endloop
endfacet
facet normal -0.80418563 -0.48661578 0.85724223
outer loop
vertex -40.60700226 9.29926586 35.29116821
vertex -40.58727264 9.23190403 35.27143860
vertex -28.48885155 11.37439156 47.83724976
endloop
endfacet
facet normal -23.22683525 -14.05481720 24.75926971
outer loop
vertex -28.48885155 11.37439156 47.83724976
vertex -40.58727264 9.23190403 35.27143860
vertex -27.91900635 9.42881680 47.26740265
endloop
endfacet
facet normal 36.00033188 26.09620094 17.81011391
outer loop
vertex -30.28536987 13.32409286 48.61183548
vertex -28.48885155 11.37439156 47.83724976
vertex -28.28236008 21.06397629 33.22223282
endloop
endfacet
facet normal 45.82872009 34.07207489 23.23688698
outer loop
vertex -28.28236008 21.06397629 33.22223282
vertex -28.48885155 11.37439156 47.83724976
vertex -25.93704796 18.58548546 32.23090744
endloop
endfacet
facet normal -16.76652527 7.48921919 -58.39121628
outer loop
vertex -28.28236008 21.06397629 33.22223282
vertex -25.93704796 18.58548546 32.23090744
vertex -40.47372437 9.05063629 35.18205261
endloop
endfacet
facet normal 1.77414274 -1.19285583 4.88503218
outer loop
vertex -40.47372437 9.05063629 35.18205261
vertex -25.93704796 18.58548546 32.23090744
vertex -40.60700226 9.29926586 35.29116821
endloop
endfacet
facet normal 2.87274051 2.90160155 -3.10268354
outer loop
vertex -40.47372437 9.05063629 35.18205261
vertex -40.60700226 9.29926586 35.29116821
vertex -30.28536987 13.32409286 48.61183548
endloop
endfacet
facet normal -22.85375023 -31.92581177 27.35477448
outer loop
vertex -30.28536987 13.32409286 48.61183548
vertex -40.60700226 9.29926586 35.29116821
vertex -28.48885155 11.37439156 47.83724976
endloop
endfacet
facet normal 16.03818321 11.75596333 7.99984455
outer loop
vertex -31.09278870 14.19803619 48.94627762
vertex -30.28536987 13.32409286 48.61183548
vertex -28.57957649 21.38568115 33.34534454
endloop
endfacet
facet normal 5.90378046 4.32744837 2.94479847
outer loop
vertex -28.57957649 21.38568115 33.34534454
vertex -30.28536987 13.32409286 48.61183548
vertex -28.28236008 21.06397629 33.22223282
endloop
endfacet
facet normal -2.10946417 0.91841173 -7.49258423
outer loop
vertex -28.57957649 21.38568115 33.34534454
vertex -28.28236008 21.06397629 33.22223282
vertex -43.28955078 12.09846306 36.34840393
endloop
endfacet
facet normal -19.98496628 8.70090103 -70.98464966
outer loop
vertex -43.28955078 12.09846306 36.34840393
vertex -28.28236008 21.06397629 33.22223282
vertex -40.47372437 9.05063629 35.18205261
endloop
endfacet
facet normal -35.94729614 -49.69913483 43.08565140
outer loop
vertex -43.28955078 12.09846306 36.34840393
vertex -40.47372437 9.05063629 35.18205261
vertex -31.09278870 14.19803619 48.94627762
endloop
endfacet
facet normal -10.30764580 -14.25087357 12.35451317
outer loop
vertex -31.09278870 14.19803619 48.94627762
vertex -40.47372437 9.05063629 35.18205261
vertex -30.28536987 13.32409286 48.61183548
endloop
endfacet
facet normal 30.93408203 6.91936111 8.22740459
outer loop
vertex -31.61452293 15.95276070 49.43218994
vertex -31.09278870 14.19803619 48.94627762
vertex -28.58954620 21.54833794 33.35267258
endloop
endfacet
facet normal 2.59026885 0.13711989 0.48044977
outer loop
vertex -28.58954620 21.54833794 33.35267258
vertex -31.09278870 14.19803619 48.94627762
vertex -28.57957649 21.38568115 33.34534454
endloop
endfacet
facet normal -0.70666397 0.07428883 -2.61036158
outer loop
vertex -28.58954620 21.54833794 33.35267258
vertex -28.57957649 21.38568115 33.34534454
vertex -44.28278732 15.75584984 37.43621826
endloop
endfacet
facet normal -21.08611870 13.01897240 -63.02447128
outer loop
vertex -44.28278732 15.75584984 37.43621826
vertex -28.57957649 21.38568115 33.34534454
vertex -43.28955078 12.09846306 36.34840393
endloop
endfacet
facet normal -43.65970612 -25.69555664 46.52832413
outer loop
vertex -44.28278732 15.75584984 37.43621826
vertex -43.28955078 12.09846306 36.34840393
vertex -31.61452293 15.95276070 49.43218994
endloop
endfacet
facet normal -21.08559036 -12.49929905 22.49737740
outer loop
vertex -31.61452293 15.95276070 49.43218994
vertex -43.28955078 12.09846306 36.34840393
vertex -31.09278870 14.19803619 48.94627762
endloop
endfacet
facet normal 17.66783524 3.81267023 4.65056849
outer loop
vertex -31.90657997 16.94990540 49.72424698
vertex -31.61452293 15.95276070 49.43218994
vertex -29.66863251 25.23257256 34.43175888
endloop
endfacet
facet normal 65.27882385 14.08697605 17.18283463
outer loop
vertex -29.66863251 25.23257256 34.43175888
vertex -31.61452293 15.95276070 49.43218994
vertex -28.58954620 21.54833794 33.35267258
endloop
endfacet
facet normal -21.29533958 12.52786350 -64.06818390
outer loop
vertex -29.66863251 25.23257256 34.43175888
vertex -28.58954620 21.54833794 33.35267258
vertex -44.54714966 16.65843582 37.70058060
endloop
endfacet
facet normal -5.21706676 3.06916618 -15.69581509
outer loop
vertex -44.54714966 16.65843582 37.70058060
vertex -28.58954620 21.54833794 33.35267258
vertex -44.28278732 15.75584984 37.43621826
endloop
endfacet
facet normal -10.77533913 -6.52029514 11.48625469
outer loop
vertex -44.54714966 16.65843582 37.70058060
vertex -44.28278732 15.75584984 37.43621826
vertex -31.90657997 16.94990540 49.72424698
endloop
endfacet
facet normal -11.90421104 -7.20336342 12.68960190
outer loop
vertex -31.90657997 16.94990540 49.72424698
vertex -44.28278732 15.75584984 37.43621826
vertex -31.61452293 15.95276070 49.43218994
endloop
endfacet
facet normal 16.14064217 7.04485893 6.17767620
outer loop
vertex -32.44622803 17.71308708 50.26389313
vertex -31.90657997 16.94990540 49.72424698
vertex -31.66252708 28.05236244 36.42565155
endloop
endfacet
facet normal 59.63635254 26.02938080 22.82530594
outer loop
vertex -31.66252708 28.05236244 36.42565155
vertex -31.90657997 16.94990540 49.72424698
vertex -29.66863251 25.23257256 34.43175888
endloop
endfacet
facet normal -26.31329918 23.14847946 -59.05021667
outer loop
vertex -31.66252708 28.05236244 36.42565155
vertex -29.66863251 25.23257256 34.43175888
vertex -45.03562164 17.34923935 38.18905258
endloop
endfacet
facet normal -6.44633913 5.67101097 -14.46635723
outer loop
vertex -45.03562164 17.34923935 38.18905258
vertex -29.66863251 25.23257256 34.43175888
vertex -44.54714966 16.65843582 37.70058060
endloop
endfacet
facet normal -8.16361237 -12.04778767 8.87452698
outer loop
vertex -45.03562164 17.34923935 38.18905258
vertex -44.54714966 16.65843582 37.70058060
vertex -32.44622803 17.71308708 50.26389313
endloop
endfacet
facet normal -9.01895142 -13.30998230 9.80434227
outer loop
vertex -32.44622803 17.71308708 50.26389313
vertex -44.54714966 16.65843582 37.70058060
vertex -31.90657997 16.94990540 49.72424698
endloop
endfacet
facet normal 12.11654091 5.28846836 4.63748360
outer loop
vertex -32.85133362 18.28599548 50.66899872
vertex -32.44622803 17.71308708 50.26389313
vertex -32.63959503 29.43414307 37.40271759
endloop
endfacet
facet normal 29.22356796 12.75517464 11.18507671
outer loop
vertex -32.63959503 29.43414307 37.40271759
vertex -32.44622803 17.71308708 50.26389313
vertex -31.66252708 28.05236244 36.42565155
endloop
endfacet
facet normal -12.89429092 11.34343052 -28.93635750
outer loop
vertex -32.63959503 29.43414307 37.40271759
vertex -31.66252708 28.05236244 36.42565155
vertex -46.65783310 19.64339447 39.81126404
endloop
endfacet
facet normal -21.40824509 18.83337784 -48.04268265
outer loop
vertex -46.65783310 19.64339447 39.81126404
vertex -31.66252708 28.05236244 36.42565155
vertex -45.03562164 17.34923935 38.18905258
endloop
endfacet
facet normal -27.11131668 -40.01060486 29.47226334
outer loop
vertex -46.65783310 19.64339447 39.81126404
vertex -45.03562164 17.34923935 38.18905258
vertex -32.85133362 18.28599548 50.66899872
endloop
endfacet
facet normal -6.77038097 -9.99161911 7.35996628
outer loop
vertex -32.85133362 18.28599548 50.66899872
vertex -45.03562164 17.34923935 38.18905258
vertex -32.44622803 17.71308708 50.26389313
endloop
endfacet
facet normal 15.32659340 3.25372481 2.99510241
outer loop
vertex -33.10695648 18.94412804 51.26211548
vertex -32.85133362 18.28599548 50.66899872
vertex -33.11535263 30.68262482 38.55298233
endloop
endfacet
facet normal 29.38603210 6.06797886 5.56816769
outer loop
vertex -33.11535263 30.68262482 38.55298233
vertex -32.85133362 18.28599548 50.66899872
vertex -32.63959503 29.43414307 37.40271759
endloop
endfacet
facet normal -14.27605247 14.99187756 -22.17665482
outer loop
vertex -33.11535263 30.68262482 38.55298233
vertex -32.63959503 29.43414307 37.40271759
vertex -47.56529236 21.98876381 41.97779083
endloop
endfacet
facet normal -26.86084938 28.18523026 -41.76264954
outer loop
vertex -47.56529236 21.98876381 41.97779083
vertex -32.63959503 29.43414307 37.40271759
vertex -46.65783310 19.64339447 39.81126404
endloop
endfacet
facet normal -28.37145615 -39.74951935 31.14725494
outer loop
vertex -47.56529236 21.98876381 41.97779083
vertex -46.65783310 19.64339447 39.81126404
vertex -33.10695648 18.94412804 51.26211548
endloop
endfacet
facet normal -7.95092487 -10.96435165 8.73952484
outer loop
vertex -33.10695648 18.94412804 51.26211548
vertex -46.65783310 19.64339447 39.81126404
vertex -32.85133362 18.28599548 50.66899872
endloop
endfacet
facet normal 31.76585579 6.56962299 6.04688835
outer loop
vertex -33.62305450 20.29276276 52.50809097
vertex -33.10695648 18.94412804 51.26211548
vertex -34.26250458 33.68028259 41.32245636
endloop
endfacet
facet normal 70.60709381 14.60255909 13.44067001
outer loop
vertex -34.26250458 33.68028259 41.32245636
vertex -33.10695648 18.94412804 51.26211548
vertex -33.11535263 30.68262482 38.55298233
endloop
endfacet
facet normal -34.34381866 36.08996201 -53.28915787
outer loop
vertex -34.26250458 33.68028259 41.32245636
vertex -33.11535263 30.68262482 38.55298233
vertex -47.53663254 21.91386986 41.90859604
endloop
endfacet
facet normal 0.85806739 -0.90170622 1.33137763
outer loop
vertex -47.53663254 21.91386986 41.90859604
vertex -33.11535263 30.68262482 38.55298233
vertex -47.56529236 21.98876381 41.97779083
endloop
endfacet
facet normal 0.90601027 1.26652682 -0.99558222
outer loop
vertex -47.53663254 21.91386986 41.90859604
vertex -47.56529236 21.98876381 41.97779083
vertex -33.62305450 20.29276276 52.50809097
endloop
endfacet
facet normal -16.31470490 -22.80635452 17.92768288
outer loop
vertex -33.62305450 20.29276276 52.50809097
vertex -47.56529236 21.98876381 41.97779083
vertex -33.10695648 18.94412804 51.26211548
endloop
endfacet
facet normal 30.62109184 18.15413284 19.91093063
outer loop
vertex -35.15623856 21.18968201 54.04819870
vertex -33.62305450 20.29276276 52.50809097
vertex -36.95983124 35.23144531 44.01913071
endloop
endfacet
facet normal 53.45252228 31.89569855 35.11862183
outer loop
vertex -36.95983124 35.23144531 44.01913071
vertex -33.62305450 20.29276276 52.50809097
vertex -34.26250458 33.68028259 41.32245636
endloop
endfacet
facet normal -32.67562103 34.46821976 -52.51009750
outer loop
vertex -36.95983124 35.23144531 44.01913071
vertex -34.26250458 33.68028259 41.32245636
vertex -47.30911636 21.71559143 41.58725357
endloop
endfacet
facet normal 3.89726686 -4.13218498 5.30902243
outer loop
vertex -47.30911636 21.71559143 41.58725357
vertex -34.26250458 33.68028259 41.32245636
vertex -47.53663254 21.91386986 41.90859604
endloop
endfacet
facet normal 2.63973355 6.74030209 -2.29000044
outer loop
vertex -47.30911636 21.71559143 41.58725357
vertex -47.53663254 21.91386986 41.90859604
vertex -35.15623856 21.18968201 54.04819870
endloop
endfacet
facet normal -12.00357056 -37.67938614 9.99390030
outer loop
vertex -35.15623856 21.18968201 54.04819870
vertex -47.53663254 21.91386986 41.90859604
vertex -33.62305450 20.29276276 52.50809097
endloop
endfacet
facet normal 21.45334625 12.74562168 13.98713398
outer loop
vertex -36.23339462 21.82066536 55.12535477
vertex -35.15623856 21.18968201 54.04819870
vertex -36.88679123 35.18865967 43.94609070
endloop
endfacet
facet normal -1.45471072 -0.86425763 -0.94844270
outer loop
vertex -36.88679123 35.18865967 43.94609070
vertex -35.15623856 21.18968201 54.04819870
vertex -36.95983124 35.23144531 44.01913071
endloop
endfacet
facet normal 0.88314795 -0.93353617 1.42999816
outer loop
vertex -36.88679123 35.18865967 43.94609070
vertex -36.95983124 35.23144531 44.01913071
vertex -50.21804428 23.41960335 44.49618149
endloop
endfacet
facet normal -35.17269897 37.17947769 -56.95195007
outer loop
vertex -50.21804428 23.41960335 44.49618149
vertex -36.95983124 35.23144531 44.01913071
vertex -47.30911636 21.71559143 41.58725357
endloop
endfacet
facet normal -22.76343346 -71.59983826 19.17881393
outer loop
vertex -50.21804428 23.41960335 44.49618149
vertex -47.30911636 21.71559143 41.58725357
vertex -36.23339462 21.82066536 55.12535477
endloop
endfacet
facet normal -8.42913532 -26.51292801 7.10177708
outer loop
vertex -36.23339462 21.82066536 55.12535477
vertex -47.30911636 21.71559143 41.58725357
vertex -35.15623856 21.18968201 54.04819870
endloop
endfacet
facet normal 34.84253311 7.24395704 6.66770411
outer loop
vertex -36.80247498 23.30328751 56.48836517
vertex -36.23339462 21.82066536 55.12535477
vertex -36.81086731 35.04178238 43.77923203
endloop
endfacet
facet normal -3.87254572 -0.95779842 -0.91898143
outer loop
vertex -36.81086731 35.04178238 43.77923203
vertex -36.23339462 21.82066536 55.12535477
vertex -36.88679123 35.18865967 43.94609070
endloop
endfacet
facet normal 1.95367205 -2.15107369 2.78244019
outer loop
vertex -36.81086731 35.04178238 43.77923203
vertex -36.88679123 35.18865967 43.94609070
vertex -51.26081085 26.34792519 47.20404053
endloop
endfacet
facet normal -33.47978973 35.52553558 -51.31057739
outer loop
vertex -51.26081085 26.34792519 47.20404053
vertex -36.88679123 35.18865967 43.94609070
vertex -50.21804428 23.41960335 44.49618149
endloop
endfacet
facet normal -35.43193817 -48.83251953 39.16381454
outer loop
vertex -51.26081085 26.34792519 47.20404053
vertex -50.21804428 23.41960335 44.49618149
vertex -36.80247498 23.30328751 56.48836517
endloop
endfacet
facet normal -17.93841553 -25.11007690 19.82402802
outer loop
vertex -36.80247498 23.30328751 56.48836517
vertex -50.21804428 23.41960335 44.49618149
vertex -36.23339462 21.82066536 55.12535477
endloop
endfacet
facet normal 31.76583481 6.56962109 6.04689121
outer loop
vertex -37.31857300 24.65192032 57.73434067
vertex -36.80247498 23.30328751 56.48836517
vertex -37.95802307 38.03944397 46.54870987
endloop
endfacet
facet normal 70.60717773 14.60259819 13.44072533
outer loop
vertex -37.95802307 38.03944397 46.54870987
vertex -36.80247498 23.30328751 56.48836517
vertex -36.81086731 35.04178238 43.77923203
endloop
endfacet
facet normal -34.34386444 36.09001160 -53.28925323
outer loop
vertex -37.95802307 38.03944397 46.54870987
vertex -36.81086731 35.04178238 43.77923203
vertex -51.23215103 26.27302933 47.13484573
endloop
endfacet
facet normal 0.85807359 -0.90170646 1.33140540
outer loop
vertex -51.23215103 26.27302933 47.13484573
vertex -36.81086731 35.04178238 43.77923203
vertex -51.26081085 26.34792519 47.20404053
endloop
endfacet
facet normal 0.90603060 1.26652682 -0.99560863
outer loop
vertex -51.23215103 26.27302933 47.13484573
vertex -51.26081085 26.34792519 47.20404053
vertex -37.31857300 24.65192032 57.73434067
endloop
endfacet
facet normal -16.31468964 -22.80635452 17.92765427
outer loop
vertex -37.31857300 24.65192032 57.73434067
vertex -51.26081085 26.34792519 47.20404053
vertex -36.80247498 23.30328751 56.48836517
endloop
endfacet
facet normal 30.62108994 18.15412903 19.91093063
outer loop
vertex -38.85175705 25.54883957 59.27444839
vertex -37.31857300 24.65192032 57.73434067
vertex -40.65534973 39.59060287 49.24538422
endloop
endfacet
facet normal 53.45248413 31.89568710 35.11863708
outer loop
vertex -40.65534973 39.59060287 49.24538422
vertex -37.31857300 24.65192032 57.73434067
vertex -37.95802307 38.03944397 46.54870987
endloop
endfacet
facet normal -32.67561722 34.46823120 -52.51005173
outer loop
vertex -40.65534973 39.59060287 49.24538422
vertex -37.95802307 38.03944397 46.54870987
vertex -51.00463104 26.07474899 46.81349945
endloop
endfacet
facet normal 3.89731288 -4.13223410 5.30909300
outer loop
vertex -51.00463104 26.07474899 46.81349945
vertex -37.95802307 38.03944397 46.54870987
vertex -51.23215103 26.27302933 47.13484573
endloop
endfacet
facet normal 2.63976002 6.74039555 -2.29002094
outer loop
vertex -51.00463104 26.07474899 46.81349945
vertex -51.23215103 26.27302933 47.13484573
vertex -38.85175705 25.54883957 59.27444839
endloop
endfacet
facet normal -12.00357437 -37.67938614 9.99389744
outer loop
vertex -38.85175705 25.54883957 59.27444839
vertex -51.23215103 26.27302933 47.13484573
vertex -37.31857300 24.65192032 57.73434067
endloop
endfacet
facet normal 46.85471344 27.83678818 30.54829407
outer loop
vertex -41.20429611 26.92692566 61.62698746
vertex -38.85175705 25.54883957 59.27444839
vertex -41.93769455 40.34178543 50.52772903
endloop
endfacet
facet normal 25.54004097 15.17354679 16.65155602
outer loop
vertex -41.93769455 40.34178543 50.52772903
vertex -38.85175705 25.54883957 59.27444839
vertex -40.65534973 39.59060287 49.24538422
endloop
endfacet
facet normal -15.50519466 16.38986206 -25.10618401
outer loop
vertex -41.93769455 40.34178543 50.52772903
vertex -40.65534973 39.59060287 49.24538422
vertex -51.27108383 26.23083496 47.07995224
endloop
endfacet
facet normal -3.22175384 3.40557742 -5.21671486
outer loop
vertex -51.27108383 26.23083496 47.07995224
vertex -40.65534973 39.59060287 49.24538422
vertex -51.00463104 26.07474899 46.81349945
endloop
endfacet
facet normal -2.08511281 -6.55842209 1.75675964
outer loop
vertex -51.27108383 26.23083496 47.07995224
vertex -51.00463104 26.07474899 46.81349945
vertex -41.20429611 26.92692566 61.62698746
endloop
endfacet
facet normal -18.40948105 -57.90497971 15.51048374
outer loop
vertex -41.20429611 26.92692566 61.62698746
vertex -51.00463104 26.07474899 46.81349945
vertex -38.85175705 25.54883957 59.27444839
endloop
endfacet
facet normal 33.02342987 35.64878464 40.89375687
outer loop
vertex -44.32847214 28.32501984 62.93111420
vertex -41.20429611 26.92692566 61.62698746
vertex -43.49696350 41.04236603 51.17339706
endloop
endfacet
facet normal 16.43747139 17.78026199 20.40356827
outer loop
vertex -43.49696350 41.04236603 51.17339706
vertex -41.20429611 26.92692566 61.62698746
vertex -41.93769455 40.34178543 50.52772903
endloop
endfacet
facet normal -6.69704580 11.38699055 -28.52859116
outer loop
vertex -43.49696350 41.04236603 51.17339706
vertex -41.93769455 40.34178543 50.52772903
vertex -51.67478943 26.42053604 47.25692749
endloop
endfacet
facet normal -1.84324193 3.04366565 -7.46722364
outer loop
vertex -51.67478943 26.42053604 47.25692749
vertex -41.93769455 40.34178543 50.52772903
vertex -51.27108383 26.23083496 47.07995224
endloop
endfacet
facet normal -2.63636351 -7.62787342 2.16245508
outer loop
vertex -51.67478943 26.42053604 47.25692749
vertex -51.27108383 26.23083496 47.07995224
vertex -44.32847214 28.32501984 62.93111420
endloop
endfacet
facet normal -19.43033409 -58.57586670 16.24902725
outer loop
vertex -44.32847214 28.32501984 62.93111420
vertex -51.27108383 26.23083496 47.07995224
vertex -41.20429611 26.92692566 61.62698746
endloop
endfacet
facet normal 11.26940346 12.20412540 13.99716377
outer loop
vertex -45.39776230 28.80442619 63.37402725
vertex -44.32847214 28.32501984 62.93111420
vertex -43.63040161 41.10219193 51.22866821
endloop
endfacet
facet normal 1.40631831 1.52296913 1.74672437
outer loop
vertex -43.63040161 41.10219193 51.22866821
vertex -44.32847214 28.32501984 62.93111420
vertex -43.49696350 41.04236603 51.17339706
endloop
endfacet
facet normal -0.57386041 0.97460115 -2.44035530
outer loop
vertex -43.63040161 41.10219193 51.22866821
vertex -43.49696350 41.04236603 51.17339706
vertex -55.58899689 28.17543793 48.87824631
endloop
endfacet
facet normal -16.83362961 28.58873749 -71.58415985
outer loop
vertex -55.58899689 28.17543793 48.87824631
vertex -43.49696350 41.04236603 51.17339706
vertex -51.67478943 26.42053604 47.25692749
endloop
endfacet
facet normal -24.41888237 -73.26273346 20.34660721
outer loop
vertex -55.58899689 28.17543793 48.87824631
vertex -51.67478943 26.42053604 47.25692749
vertex -45.39776230 28.80442619 63.37402725
endloop
endfacet
facet normal -6.67078400 -20.01403427 5.55831718
outer loop
vertex -45.39776230 28.80442619 63.37402725
vertex -51.67478943 26.42053604 47.25692749
vertex -44.32847214 28.32501984 62.93111420
endloop
endfacet
facet normal 25.09881973 8.98884392 12.79760933
outer loop
vertex -46.25951385 30.02283478 64.20831299
vertex -45.39776230 28.80442619 63.37402725
vertex -43.59517670 41.10649109 51.19799423
endloop
endfacet
facet normal -0.32500654 -0.37360725 -0.42558956
outer loop
vertex -43.59517670 41.10649109 51.19799423
vertex -45.39776230 28.80442619 63.37402725
vertex -43.63040161 41.10219193 51.22866821
endloop
endfacet
facet normal 0.30323249 -0.43696582 0.28697780
outer loop
vertex -43.59517670 41.10649109 51.19799423
vertex -43.63040161 41.10219193 51.22866821
vertex -57.68458557 31.23988152 51.06208038
endloop
endfacet
facet normal -21.02714920 31.04110527 -63.73559952
outer loop
vertex -57.68458557 31.23988152 51.06208038
vertex -43.63040161 41.10219193 51.22866821
vertex -55.58899689 28.17543793 48.87824631
endloop
endfacet
facet normal -42.94371796 -52.49955750 32.46105576
outer loop
vertex -57.68458557 31.23988152 51.06208038
vertex -55.58899689 28.17543793 48.87824631
vertex -46.25951385 30.02283478 64.20831299
endloop
endfacet
facet normal -17.13702965 -20.99416351 12.95911980
outer loop
vertex -46.25951385 30.02283478 64.20831299
vertex -55.58899689 28.17543793 48.87824631
vertex -45.39776230 28.80442619 63.37402725
endloop
endfacet
facet normal 13.44973564 4.71972132 6.77512026
outer loop
vertex -46.71570206 30.66798019 64.66449738
vertex -46.25951385 30.02283478 64.20831299
vertex -44.48483276 42.36465454 52.08765030
endloop
endfacet
facet normal 26.22974968 9.20436573 13.21281338
outer loop
vertex -44.48483276 42.36465454 52.08765030
vertex -46.25951385 30.02283478 64.20831299
vertex -43.59517670 41.10649109 51.19799423
endloop
endfacet
facet normal -8.60688782 12.65564442 -26.50466919
outer loop
vertex -44.48483276 42.36465454 52.08765030
vertex -43.59517670 41.10649109 51.19799423
vertex -59.34245682 33.58446503 52.71995163
endloop
endfacet
facet normal -16.03890610 23.58375359 -49.39136505
outer loop
vertex -59.34245682 33.58446503 52.71995163
vertex -43.59517670 41.10649109 51.19799423
vertex -57.68458557 31.23988152 51.06208038
endloop
endfacet
facet normal -32.84014130 -40.73605347 24.76932526
outer loop
vertex -59.34245682 33.58446503 52.71995163
vertex -57.68458557 31.23988152 51.06208038
vertex -46.71570206 30.66798019 64.66449738
endloop
endfacet
facet normal -9.03642941 -11.20909500 6.81562996
outer loop
vertex -46.71570206 30.66798019 64.66449738
vertex -57.68458557 31.23988152 51.06208038
vertex -46.25951385 30.02283478 64.20831299
endloop
endfacet
facet normal 17.20759964 2.10382175 5.02775192
outer loop
vertex -47.00295258 31.41286087 65.33592987
vertex -46.71570206 30.66798019 64.66449738
vertex -44.91223907 43.49436951 53.12500381
endloop
endfacet
facet normal 26.34183884 3.06122398 7.51947880
outer loop
vertex -44.91223907 43.49436951 53.12500381
vertex -46.71570206 30.66798019 64.66449738
vertex -44.48483276 42.36465454 52.08765030
endloop
endfacet
facet normal -9.83601189 15.15505409 -20.55698967
outer loop
vertex -44.91223907 43.49436951 53.12500381
vertex -44.48483276 42.36465454 52.08765030
vertex -60.26017761 35.96478271 54.91764069
endloop
endfacet
facet normal -20.80120468 32.07216263 -43.42362595
outer loop
vertex -60.26017761 35.96478271 54.91764069
vertex -44.48483276 42.36465454 52.08765030
vertex -59.34245682 33.58446503 52.71995163
endloop
endfacet
facet normal -34.80254745 -38.69633865 27.37901497
outer loop
vertex -60.26017761 35.96478271 54.91764069
vertex -59.34245682 33.58446503 52.71995163
vertex -47.00295258 31.41286087 65.33592987
endloop
endfacet
facet normal -10.85548401 -11.90909004 8.56766415
outer loop
vertex -47.00295258 31.41286087 65.33592987
vertex -59.34245682 33.58446503 52.71995163
vertex -46.71570206 30.66798019 64.66449738
endloop
endfacet
facet normal 26.25661087 3.07959533 7.54252958
outer loop
vertex -47.43285370 32.53624344 66.37380219
vertex -47.00295258 31.41286087 65.33592987
vertex -46.09451294 46.58380127 55.97926712
endloop
endfacet
facet normal 72.20862579 8.46921158 20.74276924
outer loop
vertex -46.09451294 46.58380127 55.97926712
vertex -47.00295258 31.41286087 65.33592987
vertex -44.91223907 43.49436951 53.12500381
endloop
endfacet
facet normal -27.02965355 41.68767166 -56.31844330
outer loop
vertex -46.09451294 46.58380127 55.97926712
vertex -44.91223907 43.49436951 53.12500381
vertex -60.28526306 36.03033447 54.97820282
endloop
endfacet
facet normal -0.57351834 0.88453478 -1.19496739
outer loop
vertex -60.28526306 36.03033447 54.97820282
vertex -44.91223907 43.49436951 53.12500381
vertex -60.26017761 35.96478271 54.91764069
endloop
endfacet
facet normal -0.95861119 -1.06423306 0.75484717
outer loop
vertex -60.28526306 36.03033447 54.97820282
vertex -60.26017761 35.96478271 54.91764069
vertex -47.43285370 32.53624344 66.37380219
endloop
endfacet
facet normal -16.42803764 -18.23814201 12.93605900
outer loop
vertex -47.43285370 32.53624344 66.37380219
vertex -60.26017761 35.96478271 54.91764069
vertex -47.00295258 31.41286087 65.33592987
endloop
endfacet
facet normal 26.42167282 11.93800163 19.53992081
outer loop
vertex -48.75214386 33.31203079 67.68376160
vertex -47.43285370 32.53624344 66.37380219
vertex -48.91162109 48.21674347 58.79330444
endloop
endfacet
facet normal 56.50402451 25.51638794 41.75892258
outer loop
vertex -48.91162109 48.21674347 58.79330444
vertex -47.43285370 32.53624344 66.37380219
vertex -46.09451294 46.58380127 55.97926712
endloop
endfacet
facet normal -28.06282043 43.04203033 -53.07006454
outer loop
vertex -48.91162109 48.21674347 58.79330444
vertex -46.09451294 46.58380127 55.97926712
vertex -60.16437149 35.90093231 54.75498962
endloop
endfacet
facet normal 2.22613311 -3.28858280 3.11213899
outer loop
vertex -60.16437149 35.90093231 54.75498962
vertex -46.09451294 46.58380127 55.97926712
vertex -60.28526306 36.03033447 54.97820282
endloop
endfacet
facet normal 2.25088811 4.11033916 -1.16379058
outer loop
vertex -60.16437149 35.90093231 54.75498962
vertex -60.28526306 36.03033447 54.97820282
vertex -48.75214386 33.31203079 67.68376160
endloop
endfacet
facet normal -13.41767883 -31.87023735 5.36101723
outer loop
vertex -48.75214386 33.31203079 67.68376160
vertex -60.28526306 36.03033447 54.97820282
vertex -47.43285370 32.53624344 66.37380219
endloop
endfacet
facet normal 26.08768845 11.73849773 19.21144485
outer loop
vertex -50.04922485 34.07184219 68.98084259
vertex -48.75214386 33.31203079 67.68376160
vertex -48.71556854 48.10189819 58.59725189
endloop
endfacet
facet normal -3.94313383 -1.77426279 -2.90379167
outer loop
vertex -48.71556854 48.10189819 58.59725189
vertex -48.75214386 33.31203079 67.68376160
vertex -48.91162109 48.21674347 58.79330444
endloop
endfacet
facet normal 1.95076573 -2.99785233 3.70687246
outer loop
vertex -48.71556854 48.10189819 58.59725189
vertex -48.91162109 48.21674347 58.79330444
vertex -62.96823883 37.54339981 57.55885696
endloop
endfacet
facet normal -27.89909935 42.87411880 -53.01417542
outer loop
vertex -62.96823883 37.54339981 57.55885696
vertex -48.91162109 48.21674347 58.79330444
vertex -60.16437149 35.90093231 54.75498962
endloop
endfacet
facet normal -28.49402618 -68.24893188 11.48527431
outer loop
vertex -62.96823883 37.54339981 57.55885696
vertex -60.16437149 35.90093231 54.75498962
vertex -50.04922485 34.07184219 68.98084259
endloop
endfacet
facet normal -13.18144417 -31.57224846 5.31312561
outer loop
vertex -50.04922485 34.07184219 68.98084259
vertex -60.16437149 35.90093231 54.75498962
vertex -48.75214386 33.31203079 67.68376160
endloop
endfacet
facet normal 39.86570740 4.62173414 11.39841080
outer loop
vertex -50.69846725 35.77202225 70.56217957
vertex -50.04922485 34.07184219 68.98084259
vertex -48.60775757 47.85353088 58.35125351
endloop
endfacet
facet normal -6.03031540 -0.79138768 -1.84383070
outer loop
vertex -48.60775757 47.85353088 58.35125351
vertex -50.04922485 34.07184219 68.98084259
vertex -48.71556854 48.10189819 58.59725189
endloop
endfacet
facet normal 2.29749966 -3.58230257 4.62369919
outer loop
vertex -48.60775757 47.85353088 58.35125351
vertex -48.71556854 48.10189819 58.59725189
vertex -63.95569992 40.32394409 60.14389420
endloop
endfacet
facet normal -24.40680695 37.86906052 -50.05628586
outer loop
vertex -63.95569992 40.32394409 60.14389420
vertex -48.71556854 48.10189819 58.59725189
vertex -62.96823883 37.54339981 57.55885696
endloop
endfacet
facet normal -40.73538971 -44.55809021 32.36747742
outer loop
vertex -63.95569992 40.32394409 60.14389420
vertex -62.96823883 37.54339981 57.55885696
vertex -50.69846725 35.77202225 70.56217957
endloop
endfacet
facet normal -24.90913582 -27.84495163 19.71076775
outer loop
vertex -50.69846725 35.77202225 70.56217957
vertex -62.96823883 37.54339981 57.55885696
vertex -50.04922485 34.07184219 68.98084259
endloop
endfacet
facet normal 7.58112526 0.88918024 2.17777157
outer loop
vertex -50.82259369 36.09637833 70.86184692
vertex -50.69846725 35.77202225 70.56217957
vertex -49.65153122 50.58104706 60.87115097
endloop
endfacet
facet normal 63.74966049 7.47706890 18.31280518
outer loop
vertex -49.65153122 50.58104706 60.87115097
vertex -50.69846725 35.77202225 70.56217957
vertex -48.60775757 47.85353088 58.35125351
endloop
endfacet
facet normal -23.86325073 36.80414200 -49.72096252
outer loop
vertex -49.65153122 50.58104706 60.87115097
vertex -48.60775757 47.85353088 58.35125351
vertex -64.42632294 41.55373001 61.28007126
endloop
endfacet
facet normal -10.75950813 16.59432220 -22.41828156
outer loop
vertex -64.42632294 41.55373001 61.28007126
vertex -48.60775757 47.85353088 58.35125351
vertex -63.95569992 40.32394409 60.14389420
endloop
endfacet
facet normal -17.98405075 -19.96564865 14.16131973
outer loop
vertex -64.42632294 41.55373001 61.28007126
vertex -63.95569992 40.32394409 60.14389420
vertex -50.82259369 36.09637833 70.86184692
endloop
endfacet
facet normal -4.74329662 -5.26594448 3.73505020
outer loop
vertex -50.82259369 36.09637833 70.86184692
vertex -63.95569992 40.32394409 60.14389420
vertex -50.69846725 35.77202225 70.56217957
endloop
endfacet
facet normal 7.42499876 1.16176307 2.55466342
outer loop
vertex -50.98477173 36.27191925 71.25337982
vertex -50.82259369 36.09637833 70.86184692
vertex -51.01528931 52.05716705 64.16355133
endloop
endfacet
facet normal 62.43679428 9.76928520 21.48221397
outer loop
vertex -51.01528931 52.05716705 64.16355133
vertex -50.82259369 36.09637833 70.86184692
vertex -49.65153122 50.58104706 60.87115097
endloop
endfacet
facet normal -30.32516670 48.08684921 -34.12043762
outer loop
vertex -51.01528931 52.05716705 64.16355133
vertex -49.65153122 50.58104706 60.87115097
vertex -65.04121399 42.21928406 62.76455688
endloop
endfacet
facet normal -13.67308140 21.68152428 -15.38423920
outer loop
vertex -65.04121399 42.21928406 62.76455688
vertex -49.65153122 50.58104706 60.87115097
vertex -64.42632294 41.55373001 61.28007126
endloop
endfacet
facet normal -14.47854805 -26.08628845 5.69834042
outer loop
vertex -65.04121399 42.21928406 62.76455688
vertex -64.42632294 41.55373001 61.28007126
vertex -50.98477173 36.27191925 71.25337982
endloop
endfacet
facet normal -3.81872654 -6.88026094 1.50294864
outer loop
vertex -50.98477173 36.27191925 71.25337982
vertex -64.42632294 41.55373001 61.28007126
vertex -50.82259369 36.09637833 70.86184692
endloop
endfacet
facet normal 41.31543732 6.46448612 14.21511745
outer loop
vertex -51.88719177 37.24869156 73.43201447
vertex -50.98477173 36.27191925 71.25337982
vertex -50.82228470 51.84826279 63.69760132
endloop
endfacet
facet normal -8.83623123 -1.38258934 -3.04025030
outer loop
vertex -50.82228470 51.84826279 63.69760132
vertex -50.98477173 36.27191925 71.25337982
vertex -51.01528931 52.05716705 64.16355133
endloop
endfacet
facet normal 4.29170418 -6.80538607 4.82882881
outer loop
vertex -50.82228470 51.84826279 63.69760132
vertex -51.01528931 52.05716705 64.16355133
vertex -66.43342590 43.72620392 66.12565613
endloop
endfacet
facet normal -30.95792770 49.09022141 -34.83236313
outer loop
vertex -66.43342590 43.72620392 66.12565613
vertex -51.01528931 52.05716705 64.16355133
vertex -65.04121399 42.21928406 62.76455688
endloop
endfacet
facet normal -32.78165817 -59.06333923 12.90193939
outer loop
vertex -66.43342590 43.72620392 66.12565613
vertex -65.04121399 42.21928406 62.76455688
vertex -51.88719177 37.24869156 73.43201447
endloop
endfacet
facet normal -21.24878311 -38.28433609 8.36292267
outer loop
vertex -51.88719177 37.24869156 73.43201447
vertex -65.04121399 42.21928406 62.76455688
vertex -50.98477173 36.27191925 71.25337982
endloop
endfacet
facet normal 50.49092865 -2.34381533 1.99646938
outer loop
vertex -51.87445831 39.30376434 75.52259827
vertex -51.88719177 37.24869156 73.43201447
vertex -50.82751083 51.48300171 63.34336472
endloop
endfacet
facet normal -8.72730446 0.42810243 -0.31266975
outer loop
vertex -50.82751083 51.48300171 63.34336472
vertex -51.88719177 37.24869156 73.43201447
vertex -50.82228470 51.84826279 63.69760132
endloop
endfacet
facet normal 3.79454303 -5.53021431 5.64634228
outer loop
vertex -50.82751083 51.48300171 63.34336472
vertex -50.82228470 51.84826279 63.69760132
vertex -66.36134338 46.20912170 68.61724091
endloop
endfacet
facet normal -26.26545715 39.07150269 -38.17572403
outer loop
vertex -66.36134338 46.20912170 68.61724091
vertex -50.82228470 51.84826279 63.69760132
vertex -66.43342590 43.72620392 66.12565613
endloop
endfacet
facet normal -34.35071945 -35.59754562 36.46750259
outer loop
vertex -66.36134338 46.20912170 68.61724091
vertex -66.43342590 43.72620392 66.12565613
vertex -51.87445831 39.30376434 75.52259827
endloop
endfacet
facet normal -28.55688095 -30.31708527 29.97605133
outer loop
vertex -51.87445831 39.30376434 75.52259827
vertex -66.43342590 43.72620392 66.12565613
vertex -51.88719177 37.24869156 73.43201447
endloop
endfacet
facet normal 3.89183283 -0.16727580 0.16727181
outer loop
vertex -51.87445831 39.46353531 75.68237305
vertex -51.87445831 39.30376434 75.52259827
vertex -50.82751083 54.06537247 65.92573547
endloop
endfacet
facet normal 62.90260315 -2.70360661 2.70360661
outer loop
vertex -50.82751083 54.06537247 65.92573547
vertex -51.87445831 39.30376434 75.52259827
vertex -50.82751083 51.48300171 63.34336472
endloop
endfacet
facet normal -27.23821831 40.11411667 -40.11411667
outer loop
vertex -50.82751083 54.06537247 65.92573547
vertex -50.82751083 51.48300171 63.34336472
vertex -66.36134338 47.74245453 70.15057373
endloop
endfacet
facet normal -16.17322159 23.81853485 -23.81853485
outer loop
vertex -66.36134338 47.74245453 70.15057373
vertex -50.82751083 51.48300171 63.34336472
vertex -66.36134338 46.20912170 68.61724091
endloop
endfacet
facet normal -21.17642784 -22.21321678 22.21321678
outer loop
vertex -66.36134338 47.74245453 70.15057373
vertex -66.36134338 46.20912170 68.61724091
vertex -51.87445831 39.46353531 75.68237305
endloop
endfacet
facet normal -2.20657754 -2.31463885 2.31458354
outer loop
vertex -51.87445831 39.46353531 75.68237305
vertex -66.36134338 46.20912170 68.61724091
vertex -51.87445831 39.30376434 75.52259827
endloop
endfacet
facet normal 3.89173174 -0.21854804 0.09052718
outer loop
vertex -51.87445831 39.55000305 75.89112091
vertex -51.87445831 39.46353531 75.68237305
vertex -50.82751083 55.46294022 69.29975891
endloop
endfacet
facet normal 62.90250397 -3.53242540 1.46318007
outer loop
vertex -50.82751083 55.46294022 69.29975891
vertex -51.87445831 39.46353531 75.68237305
vertex -50.82751083 54.06537247 65.92573547
endloop
endfacet
facet normal -27.23817444 52.41151428 -21.70958328
outer loop
vertex -50.82751083 55.46294022 69.29975891
vertex -50.82751083 54.06537247 65.92573547
vertex -66.36134338 48.57228470 72.15396118
endloop
endfacet
facet normal -16.17315292 31.12028503 -12.89044285
outer loop
vertex -66.36134338 48.57228470 72.15396118
vertex -50.82751083 54.06537247 65.92573547
vertex -66.36134338 47.74245453 70.15057373
endloop
endfacet
facet normal -21.17633438 -29.02284431 12.02165413
outer loop
vertex -66.36134338 48.57228470 72.15396118
vertex -66.36134338 47.74245453 70.15057373
vertex -51.87445831 39.55000305 75.89112091
endloop
endfacet
facet normal -2.20652890 -3.02410626 1.25264823
outer loop
vertex -51.87445831 39.55000305 75.89112091
vertex -66.36134338 47.74245453 70.15057373
vertex -51.87445831 39.46353531 75.68237305
endloop
endfacet
facet normal 53.36271286 -2.99669862 1.24127316
outer loop
vertex -51.87445831 40.73561478 78.75344086
vertex -51.87445831 39.55000305 75.89112091
vertex -50.82751083 55.20842743 68.68531036
endloop
endfacet
facet normal -11.45526695 0.64329535 -0.26646152
outer loop
vertex -50.82751083 55.20842743 68.68531036
vertex -51.87445831 39.55000305 75.89112091
vertex -50.82751083 55.46294022 69.29975891
endloop
endfacet
facet normal 4.96038246 -9.54474068 3.95355892
outer loop
vertex -50.82751083 55.20842743 68.68531036
vertex -50.82751083 55.46294022 69.29975891
vertex -66.36134338 49.91043472 75.38453674
endloop
endfacet
facet normal -26.08013344 50.18321991 -20.78659821
outer loop
vertex -66.36134338 49.91043472 75.38453674
vertex -50.82751083 55.46294022 69.29975891
vertex -66.36134338 48.57228470 72.15396118
endloop
endfacet
facet normal -34.14804840 -46.80097580 19.38562584
outer loop
vertex -66.36134338 49.91043472 75.38453674
vertex -66.36134338 48.57228470 72.15396118
vertex -51.87445831 40.73561478 78.75344086
endloop
endfacet
facet normal -30.25547791 -41.46609879 17.17582130
outer loop
vertex -51.87445831 40.73561478 78.75344086
vertex -66.36134338 48.57228470 72.15396118
vertex -51.87445831 39.55000305 75.89112091
endloop
endfacet
facet normal 56.48299408 -11.79113197 -11.16434860
outer loop
vertex -50.93141556 43.12181854 81.00434113
vertex -51.87445831 40.73561478 78.75344086
vertex -50.98751450 54.81851578 68.36715698
endloop
endfacet
facet normal -8.53025627 1.94402766 1.90748596
outer loop
vertex -50.98751450 54.81851578 68.36715698
vertex -51.87445831 40.73561478 78.75344086
vertex -50.82751083 55.20842743 68.68531036
endloop
endfacet
facet normal 4.38824844 -6.05112982 5.20902872
outer loop
vertex -50.98751450 54.81851578 68.36715698
vertex -50.82751083 55.20842743 68.68531036
vertex -65.48203278 52.05262375 77.36476135
endloop
endfacet
facet normal -24.84222603 36.65117645 -28.61782455
outer loop
vertex -65.48203278 52.05262375 77.36476135
vertex -50.82751083 55.20842743 68.68531036
vertex -66.36134338 49.91043472 75.38453674
endloop
endfacet
facet normal -25.48166656 -25.61316872 39.02312469
outer loop
vertex -65.48203278 52.05262375 77.36476135
vertex -66.36134338 49.91043472 75.38453674
vertex -50.93141556 43.12181854 81.00434113
endloop
endfacet
facet normal -28.69049454 -29.43151093 43.22090530
outer loop
vertex -50.93141556 43.12181854 81.00434113
vertex -66.36134338 49.91043472 75.38453674
vertex -51.87445831 40.73561478 78.75344086
endloop
endfacet
facet normal 9.63824844 -1.96693373 -1.86334860
outer loop
vertex -50.77408218 43.53294754 81.38417053
vertex -50.93141556 43.12181854 81.00434113
vertex -49.76499939 58.01310349 71.31857300
endloop
endfacet
facet normal 74.89241028 -15.28357697 -14.47860146
outer loop
vertex -49.76499939 58.01310349 71.31857300
vertex -50.93141556 43.12181854 81.00434113
vertex -50.98751450 54.81851578 68.36715698
endloop
endfacet
facet normal -36.90693283 53.77906036 -42.92266464
outer loop
vertex -49.76499939 58.01310349 71.31857300
vertex -50.98751450 54.81851578 68.36715698
vertex -65.22236633 52.73116684 77.99165344
endloop
endfacet
facet normal -7.83917809 11.42287445 -9.11694622
outer loop
vertex -65.22236633 52.73116684 77.99165344
vertex -50.98751450 54.81851578 68.36715698
vertex -65.48203278 52.05262375 77.36476135
endloop
endfacet
facet normal -8.06826019 -8.17659187 12.19225216
outer loop
vertex -65.22236633 52.73116684 77.99165344
vertex -65.48203278 52.05262375 77.36476135
vertex -50.77408218 43.53294754 81.38417053
endloop
endfacet
facet normal -4.88851929 -4.95412493 7.38729429
outer loop
vertex -50.77408218 43.53294754 81.38417053
vertex -65.48203278 52.05262375 77.36476135
vertex -50.93141556 43.12181854 81.00434113
endloop
endfacet
facet normal 15.45831203 -0.73538095 0.67996746
outer loop
vertex -50.79206085 43.90916061 82.19976807
vertex -50.77408218 43.53294754 81.38417053
vertex -49.74511719 59.82210541 75.60841370
endloop
endfacet
facet normal 80.32624817 -4.52893066 1.53753531
outer loop
vertex -49.74511719 59.82210541 75.60841370
vertex -50.77408218 43.53294754 81.38417053
vertex -49.76499939 58.01310349 71.31857300
endloop
endfacet
facet normal -34.72305298 66.69439697 -27.96372414
outer loop
vertex -49.74511719 59.82210541 75.60841370
vertex -49.76499939 58.01310349 71.31857300
vertex -65.27894592 52.93145370 78.46261597
endloop
endfacet
facet normal -3.82412481 6.90228033 -3.39475727
outer loop
vertex -65.27894592 52.93145370 78.46261597
vertex -49.76499939 58.01310349 71.31857300
vertex -65.22236633 52.73116684 77.99165344
endloop
endfacet
facet normal -4.99766445 -7.03422689 2.39105511
outer loop
vertex -65.27894592 52.93145370 78.46261597
vertex -65.22236633 52.73116684 77.99165344
vertex -50.79206085 43.90916061 82.19976807
endloop
endfacet
facet normal -8.77835464 -11.84497738 5.27026176
outer loop
vertex -50.79206085 43.90916061 82.19976807
vertex -65.22236633 52.73116684 77.99165344
vertex -50.77408218 43.53294754 81.38417053
endloop
endfacet
facet normal 53.36272430 -2.99668765 1.24126863
outer loop
vertex -50.79206085 45.09477234 85.06208801
vertex -50.79206085 43.90916061 82.19976807
vertex -49.74511719 59.56758881 74.99395752
endloop
endfacet
facet normal -11.45541668 0.64330101 -0.26646453
outer loop
vertex -49.74511719 59.56758881 74.99395752
vertex -50.79206085 43.90916061 82.19976807
vertex -49.74511719 59.82210541 75.60841370
endloop
endfacet
facet normal 4.96044636 -9.54485703 3.95361733
outer loop
vertex -49.74511719 59.56758881 74.99395752
vertex -49.74511719 59.82210541 75.60841370
vertex -65.27894592 54.26959991 81.69318390
endloop
endfacet
facet normal -26.08005905 50.18309021 -20.78653336
outer loop
vertex -65.27894592 54.26959991 81.69318390
vertex -49.74511719 59.82210541 75.60841370
vertex -65.27894592 52.93145370 78.46261597
endloop
endfacet
facet normal -34.14799118 -46.80086517 19.38557053
outer loop
vertex -65.27894592 54.26959991 81.69318390
vertex -65.27894592 52.93145370 78.46261597
vertex -50.79206085 45.09477234 85.06208801
endloop
endfacet
facet normal -30.25550079 -41.46609879 17.17582130
outer loop
vertex -50.79206085 45.09477234 85.06208801
vertex -65.27894592 52.93145370 78.46261597
vertex -50.79206085 43.90916061 82.19976807
endloop
endfacet
facet normal 56.48290634 -11.79108620 -11.16430283
outer loop
vertex -49.84902191 47.48097610 87.31298065
vertex -50.79206085 45.09477234 85.06208801
vertex -49.90511703 59.17768097 74.67580414
endloop
endfacet
facet normal -8.53021812 1.94398808 1.90743685
outer loop
vertex -49.90511703 59.17768097 74.67580414
vertex -50.79206085 45.09477234 85.06208801
vertex -49.74511719 59.56758881 74.99395752
endloop
endfacet
facet normal 4.38821411 -6.05109549 5.20898438
outer loop
vertex -49.90511703 59.17768097 74.67580414
vertex -49.74511719 59.56758881 74.99395752
vertex -64.39963531 56.41178894 83.67340851
endloop
endfacet
facet normal -24.84221840 36.65116882 -28.61781883
outer loop
vertex -64.39963531 56.41178894 83.67340851
vertex -49.74511719 59.56758881 74.99395752
vertex -65.27894592 54.26959991 81.69318390
endloop
endfacet
facet normal -25.48166656 -25.61316872 39.02312469
outer loop
vertex -64.39963531 56.41178894 83.67340851
vertex -65.27894592 54.26959991 81.69318390
vertex -49.84902191 47.48097610 87.31298065
endloop
endfacet
facet normal -28.69044304 -29.43141556 43.22087860
outer loop
vertex -49.84902191 47.48097610 87.31298065
vertex -65.27894592 54.26959991 81.69318390
vertex -50.79206085 45.09477234 85.06208801
endloop
endfacet
facet normal -23.70051193 -61.93235779 -57.21808243
outer loop
vertex -54.77367401 54.32859802 81.94103241
vertex -49.90511703 59.17768097 74.67580414
vertex -49.84902191 47.48097610 87.31298065
endloop
endfacet
facet normal -23.53529358 -61.50063324 -56.81922150
outer loop
vertex -54.77367401 54.32859802 81.94103241
vertex -64.39963531 56.41178894 83.67340851
vertex -49.90511703 59.17768097 74.67580414
endloop
endfacet
facet normal -23.05345154 -60.24151611 -55.65594864
outer loop
vertex -54.77367401 54.32859802 81.94103241
vertex -49.84902191 47.48097610 87.31298065
vertex -64.39963531 56.41178894 83.67340851
endloop
endfacet
endsolid