solid (null).stl
facet normal 0.00000000 -0.00000000 86.60253906
outer loop
vertex 0.00000000 0.00000000 0.00000000
vertex 10.00000000 0.00000000 0.00000000
vertex -5.00000048 8.66025352 0.00000000
endloop
endfacet
facet normal 0.00000000 0.00000000 86.60253906
outer loop
vertex 0.00000000 0.00000000 0.00000000
vertex -5.00000048 8.66025352 0.00000000
vertex -4.99999905 -8.66025448 0.00000000
endloop
endfacet
facet normal -0.00000000 0.00000000 86.60254669
outer loop
vertex 0.00000000 0.00000000 0.00000000
vertex -4.99999905 -8.66025448 0.00000000
vertex 10.00000000 0.00000000 0.00000000
endloop
endfacet
facet normal 17.32050705 30.00000000 0.00000000
outer loop
vertex 10.00000000 0.00000000 2.00000000
vertex 10.00000000 0.00000000 0.00000000
vertex -5.00000048 8.66025352 2.00000000
endloop
endfacet
facet normal 17.32050705 30.00000000 0.00000000
outer loop
vertex -5.00000048 8.66025352 2.00000000
vertex 10.00000000 0.00000000 0.00000000
vertex -5.00000048 8.66025352 0.00000000
endloop
endfacet
facet normal -34.64101410 -0.00000286 -0.00000000
outer loop
vertex -5.00000048 8.66025352 2.00000000
vertex -5.00000048 8.66025352 0.00000000
vertex -4.99999905 -8.66025448 2.00000000
endloop
endfacet
facet normal -34.64101410 -0.00000286 -0.00000000
outer loop
vertex -4.99999905 -8.66025448 2.00000000
vertex -5.00000048 8.66025352 0.00000000
vertex -4.99999905 -8.66025448 0.00000000
endloop
endfacet
facet normal 17.32050896 -29.99999809 0.00000000
outer loop
vertex -4.99999905 -8.66025448 2.00000000
vertex -4.99999905 -8.66025448 0.00000000
vertex 10.00000000 0.00000000 2.00000000
endloop
endfacet
facet normal 17.32050896 -29.99999809 0.00000000
outer loop
vertex 10.00000000 0.00000000 2.00000000
vertex -4.99999905 -8.66025448 0.00000000
vertex 10.00000000 0.00000000 0.00000000
endloop
endfacet
facet normal 34.54681778 59.83684921 0.00000000
outer loop
vertex 10.00000000 0.00000000 5.98912334
vertex 10.00000000 0.00000000 2.00000000
vertex -5.00000048 8.66025352 4.76181793
endloop
endfacet
facet normal 23.91804314 41.42726898 0.00000000
outer loop
vertex -5.00000048 8.66025352 4.76181793
vertex 10.00000000 0.00000000 2.00000000
vertex -5.00000048 8.66025352 2.00000000
endloop
endfacet
facet normal -47.83608627 -0.00000395 -0.00000000
outer loop
vertex -5.00000048 8.66025352 4.76181793
vertex -5.00000048 8.66025352 2.00000000
vertex -4.99999905 -8.66025448 1.24905825
endloop
endfacet
facet normal 13.00669193 0.00000107 -0.00000000
outer loop
vertex -4.99999905 -8.66025448 1.24905825
vertex -5.00000048 8.66025352 2.00000000
vertex -4.99999905 -8.66025448 2.00000000
endloop
endfacet
facet normal -6.50334692 11.26412582 0.00000000
outer loop
vertex -4.99999905 -8.66025448 1.24905825
vertex -4.99999905 -8.66025448 2.00000000
vertex 10.00000000 0.00000000 5.98912334
endloop
endfacet
facet normal 34.54682159 -59.83684540 0.00000000
outer loop
vertex 10.00000000 0.00000000 5.98912334
vertex -4.99999905 -8.66025448 2.00000000
vertex 10.00000000 0.00000000 2.00000000
endloop
endfacet
facet normal 26.51861763 50.61960983 33.97267914
outer loop
vertex 8.61619282 -1.46659970 9.25455189
vertex 10.00000000 0.00000000 5.98912334
vertex -6.02986145 7.56123304 7.23550987
endloop
endfacet
facet normal 20.07396507 38.36933517 25.40416336
outer loop
vertex -6.02986145 7.56123304 7.23550987
vertex 10.00000000 0.00000000 5.98912334
vertex -5.00000048 8.66025352 4.76181793
endloop
endfacet
facet normal -46.68845749 3.61378741 -17.83204651
outer loop
vertex -6.02986145 7.56123304 7.23550987
vertex -5.00000048 8.66025352 4.76181793
vertex -4.73866034 -8.37586021 0.62508249
endloop
endfacet
facet normal 11.80658627 -0.91801924 4.52651978
outer loop
vertex -4.73866034 -8.37586021 0.62508249
vertex -5.00000048 8.66025352 4.76181793
vertex -4.99999905 -8.66025448 1.24905825
endloop
endfacet
facet normal -6.76538277 10.58831787 1.99238622
outer loop
vertex -4.73866034 -8.37586021 0.62508249
vertex -4.99999905 -8.66025448 1.24905825
vertex 8.61619282 -1.46659970 9.25455189
endloop
endfacet
facet normal 35.23122025 -55.54076004 -10.01487160
outer loop
vertex 8.61619282 -1.46659970 9.25455189
vertex -4.99999905 -8.66025448 1.24905825
vertex 10.00000000 0.00000000 5.98912334
endloop
endfacet
facet normal 1.16191816 2.21471119 1.47422540
outer loop
vertex 8.55694103 -1.53073370 9.39759922
vertex 8.61619282 -1.46659970 9.25455189
vertex -6.41978979 7.13917732 8.17688084
endloop
endfacet
facet normal 7.64639139 14.57465172 9.70165825
outer loop
vertex -6.41978979 7.13917732 8.17688084
vertex 8.61619282 -1.46659970 9.25455189
vertex -6.02986145 7.56123304 7.23550987
endloop
endfacet
facet normal -17.79268646 1.36209452 -6.75928211
outer loop
vertex -6.41978979 7.13917732 8.17688084
vertex -6.02986145 7.56123304 7.23550987
vertex -6.41186714 -10.18692684 4.66456175
endloop
endfacet
facet normal -76.34947968 5.84483194 -29.00450325
outer loop
vertex -6.41186714 -10.18692684 4.66456175
vertex -6.02986145 7.56123304 7.23550987
vertex -4.73866034 -8.37586021 0.62508249
endloop
endfacet
facet normal 43.53835678 -68.38554382 -12.62590790
outer loop
vertex -6.41186714 -10.18692684 4.66456175
vertex -4.73866034 -8.37586021 0.62508249
vertex 8.55694103 -1.53073370 9.39759922
endloop
endfacet
facet normal 1.54179370 -2.42168760 -0.44711414
outer loop
vertex 8.55694103 -1.53073370 9.39759922
vertex -4.73866034 -8.37586021 0.62508249
vertex 8.61619282 -1.46659970 9.25455189
endloop
endfacet
facet normal 0.14388113 0.24920942 -0.24981186
outer loop
vertex 8.58578682 -1.53073370 9.41421318
vertex 8.55694103 -1.53073370 9.39759922
vertex -6.41421413 7.12952042 9.41421318
endloop
endfacet
facet normal 10.71577358 18.52438736 0.09628844
outer loop
vertex -6.41421413 7.12952042 9.41421318
vertex 8.55694103 -1.53073370 9.39759922
vertex -6.41978979 7.13917732 8.17688084
endloop
endfacet
facet normal -21.43122673 -0.00000236 0.09657320
outer loop
vertex -6.41421413 7.12952042 9.41421318
vertex -6.41978979 7.13917732 8.17688084
vertex -6.41421223 -10.19098854 9.41421318
endloop
endfacet
facet normal -82.30722046 -0.02939313 -0.04066337
outer loop
vertex -6.41421223 -10.19098854 9.41421318
vertex -6.41978979 7.13917732 8.17688084
vertex -6.41186714 -10.18692684 4.66456175
endloop
endfacet
facet normal 41.13319016 -71.24476624 -0.04061645
outer loop
vertex -6.41421223 -10.19098854 9.41421318
vertex -6.41186714 -10.18692684 4.66456175
vertex 8.58578682 -1.53073370 9.41421318
endloop
endfacet
facet normal 0.14381364 -0.11216299 -0.24969469
outer loop
vertex 8.58578682 -1.53073370 9.41421318
vertex -6.41186714 -10.18692684 4.66456175
vertex 8.55694103 -1.53073370 9.39759922
endloop
endfacet
facet normal 34.54682159 59.83685303 0.00000000
outer loop
vertex 8.58578682 -1.53073370 13.40333652
vertex 8.58578682 -1.53073370 9.41421318
vertex -6.41421413 7.12952042 12.17603111
endloop
endfacet
facet normal 23.91804695 41.42727280 0.00000000
outer loop
vertex -6.41421413 7.12952042 12.17603111
vertex 8.58578682 -1.53073370 9.41421318
vertex -6.41421413 7.12952042 9.41421318
endloop
endfacet
facet normal -47.83609390 -0.00000527 -0.00000000
outer loop
vertex -6.41421413 7.12952042 12.17603111
vertex -6.41421413 7.12952042 9.41421318
vertex -6.41421223 -10.19098854 8.66327095
endloop
endfacet
facet normal 13.00670147 0.00000143 -0.00000000
outer loop
vertex -6.41421223 -10.19098854 8.66327095
vertex -6.41421413 7.12952042 9.41421318
vertex -6.41421223 -10.19098854 9.41421318
endloop
endfacet
facet normal -6.50335073 11.26413250 0.00000000
outer loop
vertex -6.41421223 -10.19098854 8.66327095
vertex -6.41421223 -10.19098854 9.41421318
vertex 8.58578682 -1.53073370 13.40333652
endloop
endfacet
facet normal 34.54682159 -59.83684540 0.00000000
outer loop
vertex 8.58578682 -1.53073370 13.40333652
vertex -6.41421223 -10.19098854 9.41421318
vertex 8.58578682 -1.53073370 9.41421318
endloop
endfacet
facet normal 26.51861000 50.61959076 33.97267914
outer loop
vertex 7.20197916 -2.99733329 16.66876411
vertex 8.58578682 -1.53073370 13.40333652
vertex -7.44407415 6.03049946 14.64972305
endloop
endfacet
facet normal 20.07396507 38.36933517 25.40416527
outer loop
vertex -7.44407415 6.03049946 14.64972305
vertex 8.58578682 -1.53073370 13.40333652
vertex -6.41421413 7.12952042 12.17603111
endloop
endfacet
facet normal -46.68846130 3.61378288 -17.83203125
outer loop
vertex -7.44407415 6.03049946 14.64972305
vertex -6.41421413 7.12952042 12.17603111
vertex -6.15287352 -9.90659428 8.03929520
endloop
endfacet
facet normal 11.80658627 -0.91801906 4.52651978
outer loop
vertex -6.15287352 -9.90659428 8.03929520
vertex -6.41421413 7.12952042 12.17603111
vertex -6.41421223 -10.19098854 8.66327095
endloop
endfacet
facet normal -6.76538277 10.58831787 1.99238622
outer loop
vertex -6.15287352 -9.90659428 8.03929520
vertex -6.41421223 -10.19098854 8.66327095
vertex 7.20197916 -2.99733329 16.66876411
endloop
endfacet
facet normal 35.23121262 -55.54075241 -10.01486683
outer loop
vertex 7.20197916 -2.99733329 16.66876411
vertex -6.41421223 -10.19098854 8.66327095
vertex 8.58578682 -1.53073370 13.40333652
endloop
endfacet
facet normal 14.91290474 28.42522049 18.92133331
outer loop
vertex 6.44149399 -3.82047653 18.50473785
vertex 7.20197916 -2.99733329 16.66876411
vertex -7.51735640 5.95117950 14.82664204
endloop
endfacet
facet normal 1.43704486 2.73912454 1.82330406
outer loop
vertex -7.51735640 5.95117950 14.82664204
vertex 7.20197916 -2.99733329 16.66876411
vertex -7.44407415 6.03049946 14.64972305
endloop
endfacet
facet normal -3.34391403 0.25598907 -1.27032423
outer loop
vertex -7.51735640 5.95117950 14.82664204
vertex -7.44407415 6.03049946 14.64972305
vertex -7.43929482 -11.29900646 11.14499092
endloop
endfacet
facet normal -58.70020294 4.49371910 -22.29969978
outer loop
vertex -7.43929482 -11.29900646 11.14499092
vertex -7.44407415 6.03049946 14.64972305
vertex -6.15287352 -9.90659428 8.03929520
endloop
endfacet
facet normal 33.47383881 -52.57723999 -9.70723915
outer loop
vertex -7.43929482 -11.29900646 11.14499092
vertex -6.15287352 -9.90659428 8.03929520
vertex 6.44149399 -3.82047653 18.50473785
endloop
endfacet
facet normal 19.78850937 -31.08174324 -5.73856688
outer loop
vertex 6.44149399 -3.82047653 18.50473785
vertex -6.15287352 -9.90659428 8.03929520
vertex 7.20197916 -2.99733329 16.66876411
endloop
endfacet
facet normal 19.41866112 30.76723480 8.04347038
outer loop
vertex 5.61835098 -3.82047653 20.49198151
vertex 6.44149399 -3.82047653 18.50473785
vertex -7.59667587 5.95117903 15.01813698
endloop
endfacet
facet normal 1.87122107 2.96479392 0.77508932
outer loop
vertex -7.59667587 5.95117903 15.01813698
vertex 6.44149399 -3.82047653 18.50473785
vertex -7.51735640 5.95117950 14.82664204
endloop
endfacet
facet normal -3.30332351 0.27707919 -1.36827505
outer loop
vertex -7.59667587 5.95117903 15.01813698
vertex -7.51735640 5.95117950 14.82664204
vertex -8.83170605 -11.29900551 14.50657082
endloop
endfacet
facet normal -57.98787689 4.86396217 -24.01935387
outer loop
vertex -8.83170605 -11.29900551 14.50657082
vertex -7.51735640 5.95117950 14.82664204
vertex -7.43929482 -11.29900646 11.14499092
endloop
endfacet
facet normal 25.13966751 -56.90917206 10.41320133
outer loop
vertex -8.83170605 -11.29900551 14.50657082
vertex -7.43929482 -11.29900646 11.14499092
vertex 5.61835098 -3.82047653 20.49198151
endloop
endfacet
facet normal 14.86166096 -33.64263153 6.15589952
outer loop
vertex 5.61835098 -3.82047653 20.49198151
vertex -7.43929482 -11.29900646 11.14499092
vertex 6.44149399 -3.82047653 18.50473785
endloop
endfacet
facet normal 35.96133804 56.97771454 14.89566803
outer loop
vertex 4.09397602 -3.82047653 24.17214966
vertex 5.61835098 -3.82047653 20.49198151
vertex -8.03223705 5.95117903 16.06967354
endloop
endfacet
facet normal 10.27525330 16.28027916 4.25615406
outer loop
vertex -8.03223705 5.95117903 16.06967354
vertex 5.61835098 -3.82047653 20.49198151
vertex -7.59667587 5.95117903 15.01813698
endloop
endfacet
facet normal -18.13920021 1.52149773 -7.51351070
outer loop
vertex -8.03223705 5.95117903 16.06967354
vertex -7.59667587 5.95117903 15.01813698
vertex -9.16551018 -11.29900551 15.31244469
endloop
endfacet
facet normal -13.90147305 1.16604149 -5.75818300
outer loop
vertex -9.16551018 -11.29900551 15.31244469
vertex -7.59667587 5.95117903 15.01813698
vertex -8.83170605 -11.29900551 14.50657082
endloop
endfacet
facet normal 6.02675104 -13.64287949 2.49636388
outer loop
vertex -9.16551018 -11.29900551 15.31244469
vertex -8.83170605 -11.29900551 14.50657082
vertex 4.09397602 -3.82047653 24.17214966
endloop
endfacet
facet normal 27.52224350 -62.30265045 11.40008259
outer loop
vertex 4.09397602 -3.82047653 24.17214966
vertex -8.83170605 -11.29900551 14.50657082
vertex 5.61835098 -3.82047653 20.49198151
endloop
endfacet
facet normal 27.52359962 56.97770309 27.52362823
outer loop
vertex 1.27729607 -3.82047653 26.98882675
vertex 4.09397602 -3.82047653 24.17214966
vertex -8.83704758 5.95117998 16.87448502
endloop
endfacet
facet normal 7.86434793 16.28027344 7.86431932
outer loop
vertex -8.83704758 5.95117998 16.87448502
vertex 4.09397602 -3.82047653 24.17214966
vertex -8.03223705 5.95117903 16.06967354
endloop
endfacet
facet normal -13.88314629 1.52149749 -13.88313103
outer loop
vertex -8.83704758 5.95117998 16.87448502
vertex -8.03223705 5.95117903 16.06967354
vertex -9.78229904 -11.29900551 15.92923355
endloop
endfacet
facet normal -10.63972187 1.16604066 -10.63972187
outer loop
vertex -9.78229904 -11.29900551 15.92923355
vertex -8.03223705 5.95117903 16.06967354
vertex -9.16551018 -11.29900551 15.31244469
endloop
endfacet
facet normal 4.61267328 -13.64286900 4.61267328
outer loop
vertex -9.78229904 -11.29900551 15.92923355
vertex -9.16551018 -11.29900551 15.31244469
vertex 1.27729607 -3.82047653 26.98882675
endloop
endfacet
facet normal 21.06460190 -62.30264282 21.06462288
outer loop
vertex 1.27729607 -3.82047653 26.98882675
vertex -9.16551018 -11.29900551 15.31244469
vertex 4.09397602 -3.82047653 24.17214966
endloop
endfacet
facet normal 14.86240864 30.76723862 14.86240005
outer loop
vertex -0.24367440 -3.82047653 28.50979805
vertex 1.27729607 -3.82047653 26.98882675
vertex -8.98361111 5.95117998 17.02104950
endloop
endfacet
facet normal 1.43217766 2.96479702 1.43216836
outer loop
vertex -8.98361111 5.95117998 17.02104950
vertex 1.27729607 -3.82047653 26.98882675
vertex -8.83704758 5.95117998 16.87448502
endloop
endfacet
facet normal -2.52826452 0.27708215 -2.52824807
outer loop
vertex -8.98361111 5.95117998 17.02104950
vertex -8.83704758 5.95117998 16.87448502
vertex -12.35514069 -11.29900551 18.50207520
endloop
endfacet
facet normal -44.38199615 4.86396456 -44.38199615
outer loop
vertex -12.35514069 -11.29900551 18.50207520
vertex -8.83704758 5.95117998 16.87448502
vertex -9.78229904 -11.29900551 15.92923355
endloop
endfacet
facet normal 19.24107170 -56.90917206 19.24107170
outer loop
vertex -12.35514069 -11.29900551 18.50207520
vertex -9.78229904 -11.29900551 15.92923355
vertex -0.24367440 -3.82047653 28.50979805
endloop
endfacet
facet normal 11.37462807 -33.64263916 11.37462139
outer loop
vertex -0.24367440 -3.82047653 28.50979805
vertex -9.78229904 -11.29900551 15.92923355
vertex 1.27729607 -3.82047653 26.98882675
endloop
endfacet
facet normal 23.18794823 28.42520142 6.53684187
outer loop
vertex -1.64886665 -2.99733377 29.91499138
vertex -0.24367440 -3.82047653 28.50979805
vertex -9.11901760 6.03050041 17.15645599
endloop
endfacet
facet normal 2.23443818 2.73909521 0.62989020
outer loop
vertex -9.11901760 6.03050041 17.15645599
vertex -0.24367440 -3.82047653 28.50979805
vertex -8.98361111 5.95117998 17.02104950
endloop
endfacet
facet normal -2.45326519 0.25598663 -2.60322094
outer loop
vertex -9.11901760 6.03050041 17.15645599
vertex -8.98361111 5.95117998 17.02104950
vertex -14.73213673 -9.90659332 20.87907028
endloop
endfacet
facet normal -43.06580353 4.49371719 -45.69818115
outer loop
vertex -14.73213673 -9.90659332 20.87907028
vertex -8.98361111 5.95117998 17.02104950
vertex -12.35514069 -11.29900551 18.50207520
endloop
endfacet
facet normal 3.84154987 -52.57721710 34.64058685
outer loop
vertex -14.73213673 -9.90659332 20.87907028
vertex -12.35514069 -11.29900551 18.50207520
vertex -1.64886665 -2.99733377 29.91499138
endloop
endfacet
facet normal 2.27099419 -31.08172607 20.47823715
outer loop
vertex -1.64886665 -2.99733377 29.91499138
vertex -12.35514069 -11.29900551 18.50207520
vertex -0.24367440 -3.82047653 28.50979805
endloop
endfacet
facet normal 1.91965675 2.35323572 0.54116738
outer loop
vertex -1.76519871 -2.92918801 30.03132248
vertex -1.64886665 -2.99733377 29.91499138
vertex -10.90358448 7.07587528 18.94102287
endloop
endfacet
facet normal 29.44822502 36.09944153 8.30166531
outer loop
vertex -10.90358448 7.07587528 18.94102287
vertex -1.64886665 -2.99733377 29.91499138
vertex -9.11901760 6.03050041 17.15645599
endloop
endfacet
facet normal -32.33233643 3.37373018 -34.30862045
outer loop
vertex -10.90358448 7.07587528 18.94102287
vertex -9.11901760 6.03050041 17.15645599
vertex -16.75456429 -8.72188187 22.90149879
endloop
endfacet
facet normal -36.64185715 3.82341480 -38.88154602
outer loop
vertex -16.75456429 -8.72188187 22.90149879
vertex -9.11901760 6.03050041 17.15645599
vertex -14.73213673 -9.90659332 20.87907028
endloop
endfacet
facet normal 3.26852608 -44.73447418 29.47337723
outer loop
vertex -16.75456429 -8.72188187 22.90149879
vertex -14.73213673 -9.90659332 20.87907028
vertex -1.76519871 -2.92918801 30.03132248
endloop
endfacet
facet normal 0.18800217 -2.57315826 1.69533765
outer loop
vertex -1.76519871 -2.92918801 30.03132248
vertex -14.73213673 -9.90659332 20.87907028
vertex -1.64886665 -2.99733377 29.91499138
endloop
endfacet
facet normal 2.52622938 2.33951163 0.03522682
outer loop
vertex -1.83865833 -2.85239315 30.19918823
vertex -1.76519871 -2.92918801 30.03132248
vertex -11.82352257 8.06534672 21.16844559
endloop
endfacet
facet normal 33.25904083 30.55743790 0.16186714
outer loop
vertex -11.82352257 8.06534672 21.16844559
vertex -1.76519871 -2.92918801 30.03132248
vertex -10.90358448 7.07587528 18.94102287
endloop
endfacet
facet normal -39.10019302 9.41661263 -20.33167076
outer loop
vertex -11.82352257 8.06534672 21.16844559
vertex -10.90358448 7.07587528 18.94102287
vertex -17.89546585 -7.50489330 25.63414955
endloop
endfacet
facet normal -47.98960495 11.47017097 -25.14426041
outer loop
vertex -17.89546585 -7.50489330 25.63414955
vertex -10.90358448 7.07587528 18.94102287
vertex -16.75456429 -8.72188187 22.90149879
endloop
endfacet
facet normal 7.15805864 -49.08591080 24.84899712
outer loop
vertex -17.89546585 -7.50489330 25.63414955
vertex -16.75456429 -8.72188187 22.90149879
vertex -1.83865833 -2.85239315 30.19918823
endloop
endfacet
facet normal 0.42486107 -3.03995538 1.57663536
outer loop
vertex -1.83865833 -2.85239315 30.19918823
vertex -16.75456429 -8.72188187 22.90149879
vertex -1.76519871 -2.92918801 30.03132248
endloop
endfacet
facet normal 44.63858795 40.93701935 0.13614273
outer loop
vertex -3.07406950 -1.51519358 33.18173599
vertex -1.83865833 -2.85239315 30.19918823
vertex -12.98328209 9.32066154 23.96835136
endloop
endfacet
facet normal 41.90506744 38.43016815 0.12780476
outer loop
vertex -12.98328209 9.32066154 23.96835136
vertex -1.83865833 -2.85239315 30.19918823
vertex -11.82352257 8.06534672 21.16844559
endloop
endfacet
facet normal -49.20107269 11.82172871 -25.67993546
outer loop
vertex -12.98328209 9.32066154 23.96835136
vertex -11.82352257 8.06534672 21.16844559
vertex -17.61927795 -7.80383778 24.96737099
endloop
endfacet
facet normal 11.71689987 -2.81526828 6.11548615
outer loop
vertex -17.61927795 -7.80383778 24.96737099
vertex -11.82352257 8.06534672 21.16844559
vertex -17.89546585 -7.50489330 25.63414955
endloop
endfacet
facet normal -1.73749423 11.96714115 -6.08505678
outer loop
vertex -17.61927795 -7.80383778 24.96737099
vertex -17.89546585 -7.50489330 25.63414955
vertex -3.07406950 -1.51519358 33.18173599
endloop
endfacet
facet normal 7.77193546 -53.52989197 27.21890640
outer loop
vertex -3.07406950 -1.51519358 33.18173599
vertex -17.89546585 -7.50489330 25.63414955
vertex -1.83865833 -2.85239315 30.19918823
endloop
endfacet
facet normal 28.12458801 49.47717285 27.81727028
outer loop
vertex -5.64012861 -1.51901221 35.78293610
vertex -3.07406950 -1.51519358 33.18173599
vertex -15.21525764 9.30720234 26.20780754
endloop
endfacet
facet normal 24.14241791 42.75529480 24.31873322
outer loop
vertex -15.21525764 9.30720234 26.20780754
vertex -3.07406950 -1.51519358 33.18173599
vertex -12.98328209 9.32066154 23.96835136
endloop
endfacet
facet normal -38.36442184 8.17098808 -38.18716812
outer loop
vertex -15.21525764 9.30720234 26.20780754
vertex -12.98328209 9.32066154 23.96835136
vertex -17.04263306 -7.81295013 24.38043022
endloop
endfacet
facet normal 10.06017017 -2.14497542 9.91699982
outer loop
vertex -17.04263306 -7.81295013 24.38043022
vertex -12.98328209 9.32066154 23.96835136
vertex -17.61927795 -7.80383778 24.96737099
endloop
endfacet
facet normal -3.59026480 13.26779175 -3.73327088
outer loop
vertex -17.04263306 -7.81295013 24.38043022
vertex -17.61927795 -7.80383778 24.96737099
vertex -5.64012861 -1.51901221 35.78293610
endloop
endfacet
facet normal 16.38938904 -58.91354370 16.08148956
outer loop
vertex -5.64012861 -1.51901221 35.78293610
vertex -17.61927795 -7.80383778 24.96737099
vertex -3.07406950 -1.51519358 33.18173599
endloop
endfacet
facet normal 30.36117554 53.70523071 30.36118126
outer loop
vertex -8.44454193 -1.51901221 38.58734894
vertex -5.64012861 -1.51901221 35.78293610
vertex -16.11505890 9.30720234 27.10760880
endloop
endfacet
facet normal 9.74144173 17.23142624 9.74144173
outer loop
vertex -16.11505890 9.30720234 27.10760880
vertex -5.64012861 -1.51901221 35.78293610
vertex -15.21525764 9.30720234 26.20780754
endloop
endfacet
facet normal -15.40473366 3.28855109 -15.40473366
outer loop
vertex -16.11505890 9.30720234 27.10760880
vertex -15.21525764 9.30720234 26.20780754
vertex -17.57894707 -7.81295013 24.91674423
endloop
endfacet
facet normal -9.18177700 1.96009517 -9.18177700
outer loop
vertex -17.57894707 -7.81295013 24.91674423
vertex -15.21525764 9.30720234 26.20780754
vertex -17.04263306 -7.81295013 24.38043022
endloop
endfacet
facet normal 3.37552691 -12.23064613 3.37552691
outer loop
vertex -17.57894707 -7.81295013 24.91674423
vertex -17.04263306 -7.81295013 24.38043022
vertex -8.44454193 -1.51901221 38.58734894
endloop
endfacet
facet normal 17.65079880 -63.95466614 17.65080261
outer loop
vertex -8.44454193 -1.51901221 38.58734894
vertex -17.04263306 -7.81295013 24.38043022
vertex -5.64012861 -1.51901221 35.78293610
endloop
endfacet
facet normal 16.43135834 53.70526505 39.66881561
outer loop
vertex -12.10868645 -1.51901245 40.10508728
vertex -8.44454193 -1.51901221 38.58734894
vertex -17.29071045 9.30720234 27.59457970
endloop
endfacet
facet normal 5.27205181 17.23149300 12.72785664
outer loop
vertex -17.29071045 9.30720234 27.59457970
vertex -8.44454193 -1.51901221 38.58734894
vertex -16.11505890 9.30720234 27.10760880
endloop
endfacet
facet normal -8.33701515 3.28856397 -20.12733269
outer loop
vertex -17.29071045 9.30720234 27.59457970
vertex -16.11505890 9.30720234 27.10760880
vertex -18.27967834 -7.81294918 25.20699692
endloop
endfacet
facet normal -4.96916819 1.96010482 -11.99662781
outer loop
vertex -18.27967834 -7.81294918 25.20699692
vertex -16.11505890 9.30720234 27.10760880
vertex -17.57894707 -7.81295013 24.91674423
endloop
endfacet
facet normal 1.82681787 -12.23070526 4.41036415
outer loop
vertex -18.27967834 -7.81294918 25.20699692
vertex -17.57894707 -7.81295013 24.91674423
vertex -12.10868645 -1.51901245 40.10508728
endloop
endfacet
facet normal 9.55255413 -63.95470810 23.06189537
outer loop
vertex -12.10868645 -1.51901245 40.10508728
vertex -17.57894707 -7.81295013 24.91674423
vertex -8.44454193 -1.51901221 38.58734894
endloop
endfacet
facet normal 1.41704214 4.63152361 3.42102170
outer loop
vertex -12.42468071 -1.51901245 40.23597717
vertex -12.10868645 -1.51901245 40.10508728
vertex -18.06667328 9.30720234 27.91599464
endloop
endfacet
facet normal 3.47970724 11.37326813 8.40074062
outer loop
vertex -18.06667328 9.30720234 27.91599464
vertex -12.10868645 -1.51901245 40.10508728
vertex -17.29071045 9.30720234 27.59457970
endloop
endfacet
facet normal -5.50267267 2.17054653 -13.28460121
outer loop
vertex -18.06667328 9.30720234 27.91599464
vertex -17.29071045 9.30720234 27.59457970
vertex -22.73838806 -7.81294918 27.05385590
endloop
endfacet
facet normal -31.61850548 12.47202301 -76.33378601
outer loop
vertex -22.73838806 -7.81294918 27.05385590
vertex -17.29071045 9.30720234 27.59457970
vertex -18.27967834 -7.81294918 25.20699692
endloop
endfacet
facet normal 11.62401390 -77.82321167 28.06283760
outer loop
vertex -22.73838806 -7.81294918 27.05385590
vertex -18.27967834 -7.81294918 25.20699692
vertex -12.42468071 -1.51901245 40.23597717
endloop
endfacet
facet normal 0.82381272 -5.51543140 1.98884785
outer loop
vertex -12.42468071 -1.51901245 40.23597717
vertex -18.27967834 -7.81294918 25.20699692
vertex -12.10868645 -1.51901245 40.10508728
endloop
endfacet
facet normal 5.77447796 5.96413803 2.61440516
outer loop
vertex -12.76842499 -1.32165992 40.54499817
vertex -12.42468071 -1.51901245 40.23597717
vertex -18.53731728 9.59607983 28.38063812
endloop
endfacet
facet normal 8.58929539 8.41984081 3.46544814
outer loop
vertex -18.53731728 9.59607983 28.38063812
vertex -12.42468071 -1.51901245 40.23597717
vertex -18.06667328 9.30720234 27.91599464
endloop
endfacet
facet normal -7.75520658 2.55241966 -9.44224548
outer loop
vertex -18.53731728 9.59607983 28.38063812
vertex -18.06667328 9.30720234 27.91599464
vertex -25.85601425 -5.97415876 30.18277550
endloop
endfacet
facet normal -51.98228455 17.30524445 -61.96453857
outer loop
vertex -25.85601425 -5.97415876 30.18277550
vertex -18.06667328 9.30720234 27.91599464
vertex -22.73838806 -7.81294918 27.05385590
endloop
endfacet
facet normal -4.49666023 -73.25555420 38.57008743
outer loop
vertex -25.85601425 -5.97415876 30.18277550
vertex -22.73838806 -7.81294918 27.05385590
vertex -12.76842499 -1.32165992 40.54499817
endloop
endfacet
facet normal -0.65656638 -7.71843100 4.19894075
outer loop
vertex -12.76842499 -1.32165992 40.54499817
vertex -22.73838806 -7.81294918 27.05385590
vertex -12.42468071 -1.51901245 40.23597717
endloop
endfacet
facet normal 44.80041504 44.52678299 18.71722221
outer loop
vertex -15.25134182 0.13279927 43.02791595
vertex -12.76842499 -1.32165992 40.54499817
vertex -19.44889641 10.13007069 29.29221725
endloop
endfacet
facet normal 16.44804001 16.34757805 6.87184811
outer loop
vertex -19.44889641 10.13007069 29.29221725
vertex -12.76842499 -1.32165992 40.54499817
vertex -18.53731728 9.59607983 28.38063812
endloop
endfacet
facet normal -15.15582943 5.02878094 -18.10162163
outer loop
vertex -19.44889641 10.13007069 29.29221725
vertex -18.53731728 9.59607983 28.38063812
vertex -26.37666702 -5.66916704 30.70342827
endloop
endfacet
facet normal -8.65632534 2.87221193 -10.33882999
outer loop
vertex -26.37666702 -5.66916704 30.70342827
vertex -18.53731728 9.59607983 28.38063812
vertex -25.85601425 -5.97415876 30.18277550
endloop
endfacet
facet normal -0.73805690 -12.20920944 6.41394234
outer loop
vertex -26.37666702 -5.66916704 30.70342827
vertex -25.85601425 -5.97415876 30.18277550
vertex -15.25134182 0.13279927 43.02791595
endloop
endfacet
facet normal -3.51965904 -58.22394562 30.58713150
outer loop
vertex -15.25134182 0.13279927 43.02791595
vertex -25.85601425 -5.97415876 30.18277550
vertex -12.76842499 -1.32165992 40.54499817
endloop
endfacet
facet normal 33.64157104 50.48553085 26.48164368
outer loop
vertex -18.51165962 1.59486628 44.38240051
vertex -15.25134182 0.13279927 43.02791595
vertex -20.53069878 10.62270260 29.73635101
endloop
endfacet
facet normal 11.20676994 16.72358704 8.74722290
outer loop
vertex -20.53069878 10.62270260 29.73635101
vertex -15.25134182 0.13279927 43.02791595
vertex -19.44889641 10.13007069 29.29221725
endloop
endfacet
facet normal -7.71428490 1.53909731 -20.49729347
outer loop
vertex -20.53069878 10.62270260 29.73635101
vertex -19.44889641 10.13007069 29.29221725
vertex -27.14112854 -5.31439161 31.02754593
endloop
endfacet
facet normal -5.62147474 1.16659641 -14.53571129
outer loop
vertex -27.14112854 -5.31439161 31.02754593
vertex -19.44889641 10.13007069 29.29221725
vertex -26.37666702 -5.66916704 30.70342827
endloop
endfacet
facet normal -2.49856162 -13.00623512 8.34338570
outer loop
vertex -27.14112854 -5.31439161 31.02754593
vertex -26.37666702 -5.66916704 30.70342827
vertex -18.51165962 1.59486628 44.38240051
endloop
endfacet
facet normal -10.16055393 -55.25082779 35.18222427
outer loop
vertex -18.51165962 1.59486628 44.38240051
vertex -26.37666702 -5.66916704 30.70342827
vertex -15.25134182 0.13279927 43.02791595
endloop
endfacet
facet normal 18.92134285 28.42521286 14.91291332
outer loop
vertex -20.34763336 2.41800928 45.14288712
vertex -18.51165962 1.59486628 44.38240051
vertex -20.70761681 10.70202255 29.80963326
endloop
endfacet
facet normal 1.82330406 2.73910999 1.43703699
outer loop
vertex -20.70761681 10.70202255 29.80963326
vertex -18.51165962 1.59486628 44.38240051
vertex -20.53069878 10.62270260 29.73635101
endloop
endfacet
facet normal -1.27032351 0.25599238 -3.34389925
outer loop
vertex -20.70761681 10.70202255 29.80963326
vertex -20.53069878 10.62270260 29.73635101
vertex -30.24682426 -3.92197943 32.31396866
endloop
endfacet
facet normal -22.29971504 4.49374866 -58.70020676
outer loop
vertex -30.24682426 -3.92197943 32.31396866
vertex -20.53069878 10.62270260 29.73635101
vertex -27.14112854 -5.31439161 31.02754593
endloop
endfacet
facet normal -9.70723629 -52.57725906 33.47383118
outer loop
vertex -30.24682426 -3.92197943 32.31396866
vertex -27.14112854 -5.31439161 31.02754593
vertex -20.34763336 2.41800928 45.14288712
endloop
endfacet
facet normal -5.73855686 -31.08175850 19.78850174
outer loop
vertex -20.34763336 2.41800928 45.14288712
vertex -27.14112854 -5.31439161 31.02754593
vertex -18.51165962 1.59486628 44.38240051
endloop
endfacet
facet normal 28.14309311 21.75571442 11.09311867
outer loop
vertex -21.75282669 3.93897867 45.72493362
vertex -20.34763336 2.41800928 45.14288712
vertex -20.84302330 10.84858704 29.86571884
endloop
endfacet
facet normal 2.71192408 2.09641218 1.06894851
outer loop
vertex -20.84302330 10.84858704 29.86571884
vertex -20.34763336 2.41800928 45.14288712
vertex -20.70761681 10.70202255 29.80963326
endloop
endfacet
facet normal -1.18724823 0.19590488 -3.37829781
outer loop
vertex -20.84302330 10.84858704 29.86571884
vertex -20.70761681 10.70202255 29.80963326
vertex -32.62382126 -1.34913731 33.29855347
endloop
endfacet
facet normal -20.84182930 3.43936062 -59.30408478
outer loop
vertex -32.62382126 -1.34913731 33.29855347
vertex -20.70761681 10.70202255 29.80963326
vertex -30.24682426 -3.92197943 32.31396866
endloop
endfacet
facet normal -26.76451683 -40.24088287 40.53918839
outer loop
vertex -32.62382126 -1.34913731 33.29855347
vertex -30.24682426 -3.92197943 32.31396866
vertex -21.75282669 3.93897867 45.72493362
endloop
endfacet
facet normal -15.82222366 -23.78890038 23.96527481
outer loop
vertex -21.75282669 3.93897867 45.72493362
vertex -30.24682426 -3.92197943 32.31396866
vertex -20.34763336 2.41800928 45.14288712
endloop
endfacet
facet normal 46.11350250 35.64748383 18.17645645
outer loop
vertex -24.05528450 6.43114185 46.67864227
vertex -21.75282669 3.93897867 45.72493362
vertex -22.79219818 12.95835781 30.67309380
endloop
endfacet
facet normal 39.03795242 30.17783165 15.38751125
outer loop
vertex -22.79219818 12.95835781 30.67309380
vertex -21.75282669 3.93897867 45.72493362
vertex -20.84302330 10.84858704 29.86571884
endloop
endfacet
facet normal -17.09063339 2.82032442 -48.63027954
outer loop
vertex -22.79219818 12.95835781 30.67309380
vertex -20.84302330 10.84858704 29.86571884
vertex -32.29048157 -1.70994043 33.16048050
endloop
endfacet
facet normal 2.92275333 -0.48230970 8.31653404
outer loop
vertex -32.29048157 -1.70994043 33.16048050
vertex -20.84302330 10.84858704 29.86571884
vertex -32.62382126 -1.34913731 33.29855347
endloop
endfacet
facet normal 3.75333166 5.64319801 -5.68503094
outer loop
vertex -32.29048157 -1.70994043 33.16048050
vertex -32.62382126 -1.34913731 33.29855347
vertex -24.05528450 6.43114185 46.67864227
endloop
endfacet
facet normal -25.92524338 -38.97897720 39.26795959
outer loop
vertex -24.05528450 6.43114185 46.67864227
vertex -32.62382126 -1.34913731 33.29855347
vertex -21.75282669 3.93897867 45.72493362
endloop
endfacet
facet normal 24.79138947 58.21593094 25.53186798
outer loop
vertex -27.69151688 7.94826412 46.75018311
vertex -24.05528450 6.43114185 46.67864227
vertex -25.21167374 13.93513203 30.69143486
endloop
endfacet
facet normal 15.75352383 38.70186615 17.02618980
outer loop
vertex -25.21167374 13.93513203 30.69143486
vertex -24.05528450 6.43114185 46.67864227
vertex -22.79219818 12.95835781 30.67309380
endloop
endfacet
facet normal -2.69880748 -5.84362459 -44.80641174
outer loop
vertex -25.21167374 13.93513203 30.69143486
vertex -22.79219818 12.95835781 30.67309380
vertex -31.78354836 -1.93077326 33.15649796
endloop
endfacet
facet normal 0.60771376 1.22311163 9.53338051
outer loop
vertex -31.78354836 -1.93077326 33.15649796
vertex -22.79219818 12.95835781 30.67309380
vertex -32.29048157 -1.70994043 33.16048050
endloop
endfacet
facet normal 2.96258831 6.90738726 -5.91166735
outer loop
vertex -31.78354836 -1.93077326 33.15649796
vertex -32.29048157 -1.70994043 33.16048050
vertex -27.69151688 7.94826412 46.75018311
endloop
endfacet
facet normal -19.92628479 -49.74433136 42.09666824
outer loop
vertex -27.69151688 7.94826412 46.75018311
vertex -32.29048157 -1.70994043 33.16048050
vertex -24.05528450 6.43114185 46.67864227
endloop
endfacet
facet normal 0.28186151 0.68046790 0.29721123
outer loop
vertex -27.73389053 7.96581602 46.75018311
vertex -27.69151688 7.94826412 46.75018311
vertex -26.49836922 14.46809864 30.69143486
endloop
endfacet
facet normal 8.55877686 20.66271973 9.02495003
outer loop
vertex -26.49836922 14.46809864 30.69143486
vertex -27.69151688 7.94826412 46.75018311
vertex -25.21167374 13.93513203 30.69143486
endloop
endfacet
facet normal -1.31379628 -3.17178559 -23.91717720
outer loop
vertex -26.49836922 14.46809864 30.69143486
vertex -25.21167374 13.93513203 30.69143486
vertex -35.99238586 -0.18741548 33.15649796
endloop
endfacet
facet normal -4.29748678 -10.37504959 -78.23414612
outer loop
vertex -35.99238586 -0.18741548 33.15649796
vertex -25.21167374 13.93513203 30.69143486
vertex -31.78354836 -1.93077326 33.15649796
endloop
endfacet
facet normal -23.69865608 -57.21361160 48.71314240
outer loop
vertex -35.99238586 -0.18741548 33.15649796
vertex -31.78354836 -1.93077326 33.15649796
vertex -27.73389053 7.96581602 46.75018311
endloop
endfacet
facet normal -0.23859499 -0.57601416 0.49043387
outer loop
vertex -27.73389053 7.96581602 46.75018311
vertex -31.78354836 -1.93077326 33.15649796
vertex -27.69151688 7.94826412 46.75018311
endloop
endfacet
facet normal 5.66527605 5.14316082 2.56579471
outer loop
vertex -28.06147003 8.29814053 46.80733109
vertex -27.73389053 7.96581602 46.75018311
vertex -27.15166855 15.20774651 30.94811440
endloop
endfacet
facet normal 13.54682159 10.17403603 5.16178751
outer loop
vertex -27.15166855 15.20774651 30.94811440
vertex -27.73389053 7.96581602 46.75018311
vertex -26.49836922 14.46809864 30.69143486
endloop
endfacet
facet normal -5.66999292 0.78122187 -16.68240356
outer loop
vertex -27.15166855 15.20774651 30.94811440
vertex -26.49836922 14.46809864 30.69143486
vertex -38.93246460 3.01002407 34.38094711
endloop
endfacet
facet normal -25.82682419 4.37746048 -73.44491577
outer loop
vertex -38.93246460 3.01002407 34.38094711
vertex -26.49836922 14.46809864 30.69143486
vertex -35.99238586 -0.18741548 33.15649796
endloop
endfacet
facet normal -33.25758362 -49.84552765 50.30682755
outer loop
vertex -38.93246460 3.01002407 34.38094711
vertex -35.99238586 -0.18741548 33.15649796
vertex -28.06147003 8.29814053 46.80733109
endloop
endfacet
facet normal -4.05157375 -4.92496872 5.41533184
outer loop
vertex -28.06147003 8.29814053 46.80733109
vertex -35.99238586 -0.18741548 33.15649796
vertex -27.73389053 7.96581602 46.75018311
endloop
endfacet
facet normal 13.70641327 10.59557724 5.40262413
outer loop
vertex -28.74583435 9.03889084 47.09080505
vertex -28.06147003 8.29814053 46.80733109
vertex -27.54754639 15.63624191 31.11209297
endloop
endfacet
facet normal 7.92862892 6.12912464 3.12520552
outer loop
vertex -27.54754639 15.63624191 31.11209297
vertex -28.06147003 8.29814053 46.80733109
vertex -27.15166855 15.20774651 30.94811440
endloop
endfacet
facet normal -3.47111750 0.57281673 -9.87682533
outer loop
vertex -27.54754639 15.63624191 31.11209297
vertex -27.15166855 15.20774651 30.94811440
vertex -41.77197647 6.08349133 35.55711365
endloop
endfacet
facet normal -24.89725113 4.10860920 -70.84346771
outer loop
vertex -41.77197647 6.08349133 35.55711365
vertex -27.15166855 15.20774651 30.94811440
vertex -38.93246460 3.01002407 34.38094711
endloop
endfacet
facet normal -31.97237968 -48.07096481 48.42731094
outer loop
vertex -41.77197647 6.08349133 35.55711365
vertex -38.93246460 3.01002407 34.38094711
vertex -28.74583435 9.03889084 47.09080505
endloop
endfacet
facet normal -7.70580435 -11.58581829 11.67169094
outer loop
vertex -28.74583435 9.03889084 47.09080505
vertex -38.93246460 3.01002407 34.38094711
vertex -28.06147003 8.29814053 46.80733109
endloop
endfacet
facet normal 28.14784241 7.13265705 5.11227608
outer loop
vertex -29.22392082 10.62121868 47.51544952
vertex -28.74583435 9.03889084 47.09080505
vertex -27.58688354 15.89630318 31.14222717
endloop
endfacet
facet normal 4.35424995 0.59244770 0.57114935
outer loop
vertex -27.58688354 15.89630318 31.14222717
vertex -28.74583435 9.03889084 47.09080505
vertex -27.54754639 15.63624191 31.11209297
endloop
endfacet
facet normal -1.61811793 0.24128234 -4.19458103
outer loop
vertex -27.58688354 15.89630318 31.14222717
vertex -27.54754639 15.63624191 31.11209297
vertex -42.79770660 9.82481194 36.66076660
endloop
endfacet
facet normal -27.17316818 11.13944340 -63.01670074
outer loop
vertex -42.79770660 9.82481194 36.66076660
vertex -27.54754639 15.63624191 31.11209297
vertex -41.77197647 6.08349133 35.55711365
endloop
endfacet
facet normal -39.73189163 -26.11472321 51.60078430
outer loop
vertex -42.79770660 9.82481194 36.66076660
vertex -41.77197647 6.08349133 35.55711365
vertex -29.22392082 10.62121868 47.51544952
endloop
endfacet
facet normal -16.99508858 -11.04558182 22.02456284
outer loop
vertex -29.22392082 10.62121868 47.51544952
vertex -41.77197647 6.08349133 35.55711365
vertex -28.74583435 9.03889084 47.09080505
endloop
endfacet
facet normal 37.95313644 9.14212513 6.74004459
outer loop
vertex -29.84430695 12.73934555 48.13583374
vertex -29.22392082 10.62121868 47.51544952
vertex -28.60175705 19.36129570 32.15710068
endloop
endfacet
facet normal 62.08663559 14.95536423 11.02586555
outer loop
vertex -28.60175705 19.36129570 32.15710068
vertex -29.22392082 10.62121868 47.51544952
vertex -27.58688354 15.89630318 31.14222717
endloop
endfacet
facet normal -25.28349686 9.83644104 -58.86718750
outer loop
vertex -28.60175705 19.36129570 32.15710068
vertex -27.58688354 15.89630318 31.14222717
vertex -42.79259109 9.80734158 36.65565109
endloop
endfacet
facet normal 0.12746964 -0.04958096 0.29679731
outer loop
vertex -42.79259109 9.80734158 36.65565109
vertex -27.58688354 15.89630318 31.14222717
vertex -42.79770660 9.82481194 36.66076660
endloop
endfacet
facet normal 0.18556423 0.12496404 -0.24120988
outer loop
vertex -42.79259109 9.80734158 36.65565109
vertex -42.79770660 9.82481194 36.66076660
vertex -29.84430695 12.73934555 48.13583374
endloop
endfacet
facet normal -22.49751854 -15.15505791 29.24507904
outer loop
vertex -29.84430695 12.73934555 48.13583374
vertex -42.79770660 9.82481194 36.66076660
vertex -29.22392082 10.62121868 47.51544952
endloop
endfacet
facet normal 38.80905914 29.57275772 15.11073875
outer loop
vertex -31.75698662 14.82208538 48.97212219
vertex -29.84430695 12.73934555 48.13583374
vertex -30.84718704 21.73169136 33.11289978
endloop
endfacet
facet normal 44.20517349 34.69150162 17.81446075
outer loop
vertex -30.84718704 21.73169136 33.11289978
vertex -29.84430695 12.73934555 48.13583374
vertex -28.60175705 19.36129570 32.15710068
endloop
endfacet
facet normal -19.79574776 3.55188084 -55.31427002
outer loop
vertex -30.84718704 21.73169136 33.11289978
vertex -28.60175705 19.36129570 32.15710068
vertex -42.62797928 9.53396988 36.54573441
endloop
endfacet
facet normal 2.27991533 -0.81929487 5.45206642
outer loop
vertex -42.62797928 9.53396988 36.54573441
vertex -28.60175705 19.36129570 32.15710068
vertex -42.79259109 9.80734158 36.65565109
endloop
endfacet
facet normal 2.81577063 3.24043369 -3.84230804
outer loop
vertex -42.62797928 9.53396988 36.54573441
vertex -42.79259109 9.80734158 36.65565109
vertex -31.75698662 14.82208538 48.97212219
endloop
endfacet
facet normal -21.45823288 -32.78641510 32.57588959
outer loop
vertex -31.75698662 14.82208538 48.97212219
vertex -42.79259109 9.80734158 36.65565109
vertex -29.84430695 12.73934555 48.13583374
endloop
endfacet
facet normal 44.43582153 34.35059357 17.51515579
outer loop
vertex -33.97567749 17.22357941 49.89113235
vertex -31.75698662 14.82208538 48.97212219
vertex -31.70238686 22.65735245 33.46713638
endloop
endfacet
facet normal 17.12789917 13.24051952 6.75125980
outer loop
vertex -31.70238686 22.65735245 33.46713638
vertex -31.75698662 14.82208538 48.97212219
vertex -30.84718704 21.73169136 33.11289978
endloop
endfacet
facet normal -7.49852133 1.23742771 -21.33650970
outer loop
vertex -31.70238686 22.65735245 33.46713638
vertex -30.84718704 21.73169136 33.11289978
vertex -43.47085571 10.44629288 36.89486694
endloop
endfacet
facet normal -7.39047527 1.21960235 -21.02906036
outer loop
vertex -43.47085571 10.44629288 36.89486694
vertex -30.84718704 21.73169136 33.11289978
vertex -42.62797928 9.53396988 36.54573441
endloop
endfacet
facet normal -9.49061966 -14.26932144 14.37508392
outer loop
vertex -43.47085571 10.44629288 36.89486694
vertex -42.62797928 9.53396988 36.54573441
vertex -33.97567749 17.22357941 49.89113235
endloop
endfacet
facet normal -24.98206329 -37.56086731 37.83931732
outer loop
vertex -33.97567749 17.22357941 49.89113235
vertex -42.62797928 9.53396988 36.54573441
vertex -31.75698662 14.82208538 48.97212219
endloop
endfacet
facet normal 39.30507660 39.32600021 18.47413445
outer loop
vertex -36.36875916 19.61617088 49.88946533
vertex -33.97567749 17.22357941 49.89113235
vertex -32.50845718 23.47646904 33.45895004
endloop
endfacet
facet normal 13.40868473 13.25750637 6.24209356
outer loop
vertex -32.50845718 23.47646904 33.45895004
vertex -33.97567749 17.22357941 49.89113235
vertex -31.70238686 22.65735245 33.46713638
endloop
endfacet
facet normal -2.71907568 -2.87049890 -19.48454285
outer loop
vertex -32.50845718 23.47646904 33.45895004
vertex -31.70238686 22.65735245 33.46713638
vertex -44.49756622 11.48736191 36.89829254
endloop
endfacet
facet normal -3.61033416 -3.47897291 -24.78901291
outer loop
vertex -44.49756622 11.48736191 36.89829254
vertex -31.70238686 22.65735245 33.46713638
vertex -43.47085571 10.44629288 36.89486694
endloop
endfacet
facet normal -13.49686146 -13.36602020 16.80858231
outer loop
vertex -44.49756622 11.48736191 36.89829254
vertex -43.47085571 10.44629288 36.89486694
vertex -36.36875916 19.61617088 49.88946533
endloop
endfacet
facet normal -31.10605049 -31.08529663 38.93668365
outer loop
vertex -36.36875916 19.61617088 49.88946533
vertex -43.47085571 10.44629288 36.89486694
vertex -33.97567749 17.22357941 49.89113235
endloop
endfacet
facet normal 5.67594385 5.67594385 2.66709113
outer loop
vertex -36.71421051 19.96162224 49.88946533
vertex -36.36875916 19.61617088 49.88946533
vertex -33.34402847 24.31203842 33.45895004
endloop
endfacet
facet normal 13.72883511 13.72886658 6.45110416
outer loop
vertex -33.34402847 24.31203842 33.45895004
vertex -36.36875916 19.61617088 49.88946533
vertex -32.50845718 23.47646904 33.45895004
endloop
endfacet
facet normal -2.87380934 -2.87381577 -20.03548050
outer loop
vertex -33.34402847 24.31203842 33.45895004
vertex -32.50845718 23.47646904 33.45895004
vertex -47.55855942 14.54835606 36.89829254
endloop
endfacet
facet normal -10.52780724 -10.52780437 -73.39717102
outer loop
vertex -47.55855942 14.54835606 36.89829254
vertex -32.50845718 23.47646904 33.45895004
vertex -44.49756622 11.48736191 36.89829254
endloop
endfacet
facet normal -39.76590347 -39.76589203 49.76445770
outer loop
vertex -47.55855942 14.54835606 36.89829254
vertex -44.49756622 11.48736191 36.89829254
vertex -36.71421051 19.96162224 49.88946533
endloop
endfacet
facet normal -4.48781824 -4.48781824 5.61621571
outer loop
vertex -36.71421051 19.96162224 49.88946533
vertex -44.49756622 11.48736191 36.89829254
vertex -36.36875916 19.61617088 49.88946533
endloop
endfacet
facet normal 17.38777351 6.50957489 5.34815979
outer loop
vertex -37.12967682 20.99610901 49.98107910
vertex -36.71421051 19.96162224 49.88946533
vertex -33.55657578 24.97196388 33.52506256
endloop
endfacet
facet normal 11.13053226 3.26945066 3.14873838
outer loop
vertex -33.55657578 24.97196388 33.52506256
vertex -36.71421051 19.96162224 49.88946533
vertex -33.34402847 24.31203842 33.45895004
endloop
endfacet
facet normal -3.06953382 0.17237914 -11.58900833
outer loop
vertex -33.55657578 24.97196388 33.52506256
vertex -33.34402847 24.31203842 33.45895004
vertex -49.00909805 18.42520523 37.52053070
endloop
endfacet
facet normal -19.40914726 3.85592461 -69.27019501
outer loop
vertex -49.00909805 18.42520523 37.52053070
vertex -33.34402847 24.31203842 33.45895004
vertex -47.55855942 14.54835606 36.89829254
endloop
endfacet
facet normal -46.70795059 -25.46633530 49.78392029
outer loop
vertex -49.00909805 18.42520523 37.52053070
vertex -47.55855942 14.54835606 36.89829254
vertex -37.12967682 20.99610901 49.98107910
endloop
endfacet
facet normal -12.94326687 -6.39088631 13.46736526
outer loop
vertex -37.12967682 20.99610901 49.98107910
vertex -47.55855942 14.54835606 36.89829254
vertex -36.71421051 19.96162224 49.88946533
endloop
endfacet
facet normal 45.42130280 15.23518276 13.54323769
outer loop
vertex -38.14698410 23.65446472 50.40246201
vertex -37.12967682 20.99610901 49.98107910
vertex -34.72764587 28.03211975 34.01013565
endloop
endfacet
facet normal 52.28655624 17.53793335 15.59025192
outer loop
vertex -34.72764587 28.03211975 34.01013565
vertex -37.12967682 20.99610901 49.98107910
vertex -33.55657578 24.97196388 33.52506256
endloop
endfacet
facet normal -15.40241718 2.81662798 -54.95384216
outer loop
vertex -34.72764587 28.03211975 34.01013565
vertex -33.55657578 24.97196388 33.52506256
vertex -48.94592667 18.26012802 37.49436569
endloop
endfacet
facet normal 0.83085674 -0.15191612 2.96442699
outer loop
vertex -48.94592667 18.26012802 37.49436569
vertex -33.55657578 24.97196388 33.52506256
vertex -49.00909805 18.42520523 37.52053070
endloop
endfacet
facet normal 1.98968959 1.09797680 -2.12342691
outer loop
vertex -48.94592667 18.26012802 37.49436569
vertex -49.00909805 18.42520523 37.52053070
vertex -38.14698410 23.65446472 50.40246201
endloop
endfacet
facet normal -32.04123306 -17.68199158 34.19512558
outer loop
vertex -38.14698410 23.65446472 50.40246201
vertex -49.00909805 18.42520523 37.52053070
vertex -37.12967682 20.99610901 49.98107910
endloop
endfacet
facet normal 41.12150192 40.21057892 19.10873604
outer loop
vertex -40.61139679 26.14011574 50.47525024
vertex -38.14698410 23.65446472 50.40246201
vertex -36.75109482 30.00041580 34.04473877
endloop
endfacet
facet normal 32.41643143 33.05071640 15.58823109
outer loop
vertex -36.75109482 30.00041580 34.04473877
vertex -38.14698410 23.65446472 50.40246201
vertex -34.72764587 28.03211975 34.01013565
endloop
endfacet
facet normal -7.18450499 -6.54447317 -47.85746765
outer loop
vertex -36.75109482 30.00041580 34.04473877
vertex -34.72764587 28.03211975 34.01013565
vertex -48.74020386 18.01130486 37.48408127
endloop
endfacet
facet normal 0.96745646 0.57055873 5.54815912
outer loop
vertex -48.74020386 18.01130486 37.48408127
vertex -34.72764587 28.03211975 34.01013565
vertex -48.94592667 18.26012802 37.49436569
endloop
endfacet
facet normal 3.14890385 2.75617981 -3.69491720
outer loop
vertex -48.74020386 18.01130486 37.48408127
vertex -48.94592667 18.26012802 37.49436569
vertex -40.61139679 26.14011574 50.47525024
endloop
endfacet
facet normal -31.69237900 -32.59691238 40.13627625
outer loop
vertex -40.61139679 26.14011574 50.47525024
vertex -48.94592667 18.26012802 37.49436569
vertex -38.14698410 23.65446472 50.40246201
endloop
endfacet
facet normal 18.56608772 18.56612015 8.72410583
outer loop
vertex -41.74137497 27.27009201 50.47525024
vertex -40.61139679 26.14011574 50.47525024
vertex -37.11320877 30.36252975 34.04473877
endloop
endfacet
facet normal 5.94971752 5.94971752 2.79573774
outer loop
vertex -37.11320877 30.36252975 34.04473877
vertex -40.61139679 26.14011574 50.47525024
vertex -36.75109482 30.00041580 34.04473877
endloop
endfacet
facet normal -1.24543393 -1.24543393 -8.68284798
outer loop
vertex -37.11320877 30.36252975 34.04473877
vertex -36.75109482 30.00041580 34.04473877
vertex -51.48710251 20.75820351 37.48408127
endloop
endfacet
facet normal -9.44752502 -9.44752502 -65.86573792
outer loop
vertex -51.48710251 20.75820351 37.48408127
vertex -36.75109482 30.00041580 34.04473877
vertex -48.74020386 18.01130486 37.48408127
endloop
endfacet
facet normal -35.68542480 -35.68542480 44.65802002
outer loop
vertex -51.48710251 20.75820351 37.48408127
vertex -48.74020386 18.01130486 37.48408127
vertex -41.74137497 27.27009201 50.47525024
endloop
endfacet
facet normal -14.67971230 -14.67973709 18.37073898
outer loop
vertex -41.74137497 27.27009201 50.47525024
vertex -48.74020386 18.01130486 37.48408127
vertex -40.61139679 26.14011574 50.47525024
endloop
endfacet
facet normal 24.25776291 10.04788113 8.72409725
outer loop
vertex -42.35291290 28.74647713 50.47525024
vertex -41.74137497 27.27009201 50.47525024
vertex -37.30918503 30.83565712 34.04473877
endloop
endfacet
facet normal 7.77372456 3.21999025 2.79575634
outer loop
vertex -37.30918503 30.83565712 34.04473877
vertex -41.74137497 27.27009201 50.47525024
vertex -37.11320877 30.36252975 34.04473877
endloop
endfacet
facet normal -1.62724710 -0.67402947 -8.68290138
outer loop
vertex -37.30918503 30.83565712 34.04473877
vertex -37.11320877 30.36252975 34.04473877
vertex -52.97371292 24.34719658 37.48408127
endloop
endfacet
facet normal -12.34377670 -5.11296225 -65.86569977
outer loop
vertex -52.97371292 24.34719658 37.48408127
vertex -37.11320877 30.36252975 34.04473877
vertex -51.48710251 20.75820351 37.48408127
endloop
endfacet
facet normal -46.62521362 -19.31280708 44.65799332
outer loop
vertex -52.97371292 24.34719658 37.48408127
vertex -51.48710251 20.75820351 37.48408127
vertex -42.35291290 28.74647713 50.47525024
endloop
endfacet
facet normal -19.17996788 -7.94459248 18.37071419
outer loop
vertex -42.35291290 28.74647713 50.47525024
vertex -51.48710251 20.75820351 37.48408127
vertex -41.74137497 27.27009201 50.47525024
endloop
endfacet
facet normal 52.67504883 21.81870270 18.94413376
outer loop
vertex -43.68085098 31.95240593 50.47525024
vertex -42.35291290 28.74647713 50.47525024
vertex -38.33557129 33.31357574 34.04473877
endloop
endfacet
facet normal 40.71347046 16.86405182 14.64225197
outer loop
vertex -38.33557129 33.31357574 34.04473877
vertex -42.35291290 28.74647713 50.47525024
vertex -37.30918503 30.83565712 34.04473877
endloop
endfacet
facet normal -8.52241039 -3.53009391 -45.47509003
outer loop
vertex -38.33557129 33.31357574 34.04473877
vertex -37.30918503 30.83565712 34.04473877
vertex -52.91564560 24.20701218 37.48408127
endloop
endfacet
facet normal 0.48214218 0.19971341 2.57269001
outer loop
vertex -52.91564560 24.20701218 37.48408127
vertex -37.30918503 30.83565712 34.04473877
vertex -52.97371292 24.34719658 37.48408127
endloop
endfacet
facet normal 1.82115924 0.75436240 -1.74432838
outer loop
vertex -52.91564560 24.20701218 37.48408127
vertex -52.97371292 24.34719658 37.48408127
vertex -43.68085098 31.95240593 50.47525024
endloop
endfacet
facet normal -41.64876175 -17.25146866 39.89150238
outer loop
vertex -43.68085098 31.95240593 50.47525024
vertex -52.97371292 24.34719658 37.48408127
vertex -42.35291290 28.74647713 50.47525024
endloop
endfacet
facet normal 45.70552826 48.26591110 18.71874619
outer loop
vertex -46.29077530 34.81004715 49.47952652
vertex -43.68085098 31.95240593 50.47525024
vertex -39.70853043 34.77519989 33.49752426
endloop
endfacet
facet normal 23.27038002 25.48343658 9.68162060
outer loop
vertex -39.70853043 34.77519989 33.49752426
vertex -43.68085098 31.95240593 50.47525024
vertex -38.33557129 33.31357574 34.04473877
endloop
endfacet
facet normal -0.05671597 -12.70160675 -33.78402328
outer loop
vertex -39.70853043 34.77519989 33.49752426
vertex -38.33557129 33.31357574 34.04473877
vertex -52.85530472 24.16426468 37.50893402
endloop
endfacet
facet normal -0.07929988 0.56988794 1.17275977
outer loop
vertex -52.85530472 24.16426468 37.50893402
vertex -38.33557129 33.31357574 34.04473877
vertex -52.91564560 24.20701218 37.48408127
endloop
endfacet
facet normal 0.77628982 0.55916947 -0.92299306
outer loop
vertex -52.85530472 24.16426468 37.50893402
vertex -52.91564560 24.20701218 37.48408127
vertex -46.29077530 34.81004715 49.47952652
endloop
endfacet
facet normal -44.83637238 -24.71066475 46.60462189
outer loop
vertex -46.29077530 34.81004715 49.47952652
vertex -52.91564560 24.20701218 37.48408127
vertex -43.68085098 31.95240593 50.47525024
endloop
endfacet
facet normal 11.24654007 12.15288544 4.60542822
outer loop
vertex -46.94036865 35.51316071 49.21045685
vertex -46.29077530 34.81004715 49.47952652
vertex -40.36452866 35.48524475 33.22579956
endloop
endfacet
facet normal 11.35740757 12.27272415 4.65082932
outer loop
vertex -40.36452866 35.48524475 33.22579956
vertex -46.29077530 34.81004715 49.47952652
vertex -39.70853043 34.77519989 33.49752426
endloop
endfacet
facet normal 0.03496623 -6.20378351 -16.29554749
outer loop
vertex -40.36452866 35.48524475 33.22579956
vertex -39.70853043 34.77519989 33.49752426
vertex -55.46128464 26.98495865 36.42950058
endloop
endfacet
facet normal 0.13883877 -24.64472008 -64.73490906
outer loop
vertex -55.46128464 26.98495865 36.42950058
vertex -39.70853043 34.77519989 33.49752426
vertex -52.85530472 24.16426468 37.50893402
endloop
endfacet
facet normal -45.25679398 -24.10915375 46.25922012
outer loop
vertex -55.46128464 26.98495865 36.42950058
vertex -52.85530472 24.16426468 37.50893402
vertex -46.94036865 35.51316071 49.21045685
endloop
endfacet
facet normal -11.28114319 -6.00970173 11.53103924
outer loop
vertex -46.94036865 35.51316071 49.21045685
vertex -52.85530472 24.16426468 37.50893402
vertex -46.29077530 34.81004715 49.47952652
endloop
endfacet
facet normal 14.68857765 6.57713366 6.03116846
outer loop
vertex -47.29192734 36.43182373 49.06483459
vertex -46.94036865 35.51316071 49.21045685
vertex -40.71955109 36.41296387 33.07874298
endloop
endfacet
facet normal 14.83337688 6.64193249 6.09062195
outer loop
vertex -40.71955109 36.41296387 33.07874298
vertex -46.94036865 35.51316071 49.21045685
vertex -40.36452866 35.48524475 33.22579956
endloop
endfacet
facet normal -1.72211790 -3.35746527 -17.02334023
outer loop
vertex -40.71955109 36.41296387 33.07874298
vertex -40.36452866 35.48524475 33.22579956
vertex -56.87162781 30.67036819 35.84531784
endloop
endfacet
facet normal -6.84122944 -13.33758259 -67.62605286
outer loop
vertex -56.87162781 30.67036819 35.84531784
vertex -40.36452866 35.48524475 33.22579956
vertex -55.46128464 26.98495865 36.42950058
endloop
endfacet
facet normal -52.08507538 -13.04775810 43.43074799
outer loop
vertex -56.87162781 30.67036819 35.84531784
vertex -55.46128464 26.98495865 36.42950058
vertex -47.29192734 36.43182373 49.06483459
endloop
endfacet
facet normal -12.98328781 -3.25242138 10.82601357
outer loop
vertex -47.29192734 36.43182373 49.06483459
vertex -55.46128464 26.98495865 36.42950058
vertex -46.94036865 35.51316071 49.21045685
endloop
endfacet
facet normal 9.44960117 4.23121548 3.88002872
outer loop
vertex -47.51809311 37.02282715 48.97115326
vertex -47.29192734 36.43182373 49.06483459
vertex -41.18674088 37.63378525 32.88522720
endloop
endfacet
facet normal 19.51981163 8.74039745 8.01488590
outer loop
vertex -41.18674088 37.63378525 32.88522720
vertex -47.29192734 36.43182373 49.06483459
vertex -40.71955109 36.41296387 33.07874298
endloop
endfacet
facet normal -2.26620960 -4.41819572 -22.40167618
outer loop
vertex -41.18674088 37.63378525 32.88522720
vertex -40.71955109 36.41296387 33.07874298
vertex -58.29439926 34.38824844 35.25598526
endloop
endfacet
facet normal -6.90149498 -13.45514870 -68.22188568
outer loop
vertex -58.29439926 34.38824844 35.25598526
vertex -40.71955109 36.41296387 33.07874298
vertex -56.87162781 30.67036819 35.84531784
endloop
endfacet
facet normal -52.54399490 -13.16272163 43.81341934
outer loop
vertex -58.29439926 34.38824844 35.25598526
vertex -56.87162781 30.67036819 35.84531784
vertex -47.51809311 37.02282715 48.97115326
endloop
endfacet
facet normal -8.35251999 -2.09236288 6.96467972
outer loop
vertex -47.51809311 37.02282715 48.97115326
vertex -56.87162781 30.67036819 35.84531784
vertex -47.29192734 36.43182373 49.06483459
endloop
endfacet
facet normal 21.22425079 0.60293591 8.44639778
outer loop
vertex -47.52837753 38.34483719 48.90262604
vertex -47.51809311 37.02282715 48.97115326
vertex -41.13932037 38.34483719 32.84809494
endloop
endfacet
facet normal 11.41524220 -0.52770525 4.47294855
outer loop
vertex -41.13932037 38.34483719 32.84809494
vertex -47.51809311 37.02282715 48.97115326
vertex -41.18674088 37.63378525 32.88522720
endloop
endfacet
facet normal -1.71572363 -0.52212149 -12.18929100
outer loop
vertex -41.13932037 38.34483719 32.84809494
vertex -41.18674088 37.63378525 32.88522720
vertex -58.28193665 38.34483719 35.26103210
endloop
endfacet
facet normal -9.39649391 0.11588553 -67.64752197
outer loop
vertex -58.28193665 38.34483719 35.26103210
vertex -41.18674088 37.63378525 32.88522720
vertex -58.29439926 34.38824844 35.25598526
endloop
endfacet
facet normal -53.97417831 0.11573840 42.54740906
outer loop
vertex -58.28193665 38.34483719 35.26103210
vertex -58.29439926 34.38824844 35.25598526
vertex -47.52837753 38.34483719 48.90262604
endloop
endfacet
facet normal -18.31212997 0.59741771 14.27348042
outer loop
vertex -47.52837753 38.34483719 48.90262604
vertex -58.29439926 34.38824844 35.25598526
vertex -47.51809311 37.02282715 48.97115326
endloop
endfacet
facet normal 42.91897202 0.00000000 17.08002281
outer loop
vertex -47.52837753 41.01816177 48.90262604
vertex -47.52837753 38.34483719 48.90262604
vertex -41.13932037 41.64159393 32.84809494
endloop
endfacet
facet normal 52.92788315 0.00000000 21.06316757
outer loop
vertex -41.13932037 41.64159393 32.84809494
vertex -47.52837753 38.34483719 48.90262604
vertex -41.13932037 38.34483719 32.84809494
endloop
endfacet
facet normal -7.95486689 -0.00000000 -56.51503754
outer loop
vertex -41.13932037 41.64159393 32.84809494
vertex -41.13932037 38.34483719 32.84809494
vertex -58.28193665 38.39087677 35.26103210
endloop
endfacet
facet normal -0.11109062 -0.00000000 -0.78923887
outer loop
vertex -58.28193665 38.39087677 35.26103210
vertex -41.13932037 38.34483719 32.84809494
vertex -58.28193665 38.34483719 35.26103210
endloop
endfacet
facet normal -0.62805325 0.00000000 0.49508935
outer loop
vertex -58.28193665 38.39087677 35.26103210
vertex -58.28193665 38.34483719 35.26103210
vertex -47.52837753 41.01816177 48.90262604
endloop
endfacet
facet normal -36.46840668 0.00000000 28.74775314
outer loop
vertex -47.52837753 41.01816177 48.90262604
vertex -58.28193665 38.34483719 35.26103210
vertex -47.52837753 38.34483719 48.90262604
endloop
endfacet
facet normal 49.71163177 21.61169815 20.41247940
outer loop
vertex -48.70613861 44.12734222 48.47904968
vertex -47.52837753 41.01816177 48.90262604
vertex -42.13376617 44.10848236 32.49295807
endloop
endfacet
facet normal 39.38333130 18.23435020 16.38106155
outer loop
vertex -42.13376617 44.10848236 32.49295807
vertex -47.52837753 41.01816177 48.90262604
vertex -41.13932037 41.64159393 32.84809494
endloop
endfacet
facet normal -4.78542423 -8.48740768 -45.55607986
outer loop
vertex -42.13376617 44.10848236 32.49295807
vertex -41.13932037 41.64159393 32.84809494
vertex -58.28584671 38.36588669 35.25953293
endloop
endfacet
facet normal 0.06517290 -0.03513454 0.41568485
outer loop
vertex -58.28584671 38.36588669 35.25953293
vertex -41.13932037 41.64159393 32.84809494
vertex -58.28193665 38.39087677 35.26103210
endloop
endfacet
facet normal 0.32171938 -0.03732750 -0.21687002
outer loop
vertex -58.28584671 38.36588669 35.25953293
vertex -58.28193665 38.39087677 35.26103210
vertex -48.70613861 44.12734222 48.47904968
endloop
endfacet
facet normal -43.52703476 -11.51158524 36.52906799
outer loop
vertex -48.70613861 44.12734222 48.47904968
vertex -58.28193665 38.39087677 35.26103210
vertex -47.52837753 41.01816177 48.90262604
endloop
endfacet
facet normal 9.44960117 4.23127699 3.88003111
outer loop
vertex -48.93230820 44.71834564 48.38536835
vertex -48.70613861 44.12734222 48.47904968
vertex -42.60095596 45.32930374 32.29944229
endloop
endfacet
facet normal 19.51981163 8.74039650 8.01488209
outer loop
vertex -42.60095596 45.32930374 32.29944229
vertex -48.70613861 44.12734222 48.47904968
vertex -42.13376617 44.10848236 32.49295807
endloop
endfacet
facet normal -2.26620960 -4.41819668 -22.40167999
outer loop
vertex -42.60095596 45.32930374 32.29944229
vertex -42.13376617 44.10848236 32.49295807
vertex -59.70861816 42.08376694 34.67020035
endloop
endfacet
facet normal -6.90149498 -13.45515156 -68.22190094
outer loop
vertex -59.70861816 42.08376694 34.67020035
vertex -42.13376617 44.10848236 32.49295807
vertex -58.28584671 38.36588669 35.25953293
endloop
endfacet
facet normal -52.54399490 -13.16271973 43.81343079
outer loop
vertex -59.70861816 42.08376694 34.67020035
vertex -58.28584671 38.36588669 35.25953293
vertex -48.93230820 44.71834564 48.38536835
endloop
endfacet
facet normal -8.35251999 -2.09241271 6.96470642
outer loop
vertex -48.93230820 44.71834564 48.38536835
vertex -58.28584671 38.36588669 35.25953293
vertex -48.70613861 44.12734222 48.47904968
endloop
endfacet
facet normal 21.22425079 0.60293591 8.44639778
outer loop
vertex -48.94259262 46.04035568 48.31684113
vertex -48.93230820 44.71834564 48.38536835
vertex -42.55353546 46.04035568 32.26231003
endloop
endfacet
facet normal 11.41524220 -0.52770525 4.47294855
outer loop
vertex -42.55353546 46.04035568 32.26231003
vertex -48.93230820 44.71834564 48.38536835
vertex -42.60095596 45.32930374 32.29944229
endloop
endfacet
facet normal -1.71572363 -0.52212149 -12.18929100
outer loop
vertex -42.55353546 46.04035568 32.26231003
vertex -42.60095596 45.32930374 32.29944229
vertex -59.69615173 46.04035568 34.67524719
endloop
endfacet
facet normal -9.39649391 0.11589460 -67.64752197
outer loop
vertex -59.69615173 46.04035568 34.67524719
vertex -42.60095596 45.32930374 32.29944229
vertex -59.70861816 42.08376694 34.67020035
endloop
endfacet
facet normal -53.97417831 0.11579045 42.54740906
outer loop
vertex -59.69615173 46.04035568 34.67524719
vertex -59.70861816 42.08376694 34.67020035
vertex -48.94259262 46.04035568 48.31684113
endloop
endfacet
facet normal -18.31212997 0.59741801 14.27348518
outer loop
vertex -48.94259262 46.04035568 48.31684113
vertex -59.70861816 42.08376694 34.67020035
vertex -48.93230820 44.71834564 48.38536835
endloop
endfacet
facet normal 42.91897202 0.00000000 17.08002281
outer loop
vertex -48.94259262 48.71368027 48.31684113
vertex -48.94259262 46.04035568 48.31684113
vertex -42.55353546 49.33711243 32.26231003
endloop
endfacet
facet normal 52.92788315 0.00000000 21.06316757
outer loop
vertex -42.55353546 49.33711243 32.26231003
vertex -48.94259262 46.04035568 48.31684113
vertex -42.55353546 46.04035568 32.26231003
endloop
endfacet
facet normal -7.95486689 -0.00000000 -56.51503754
outer loop
vertex -42.55353546 49.33711243 32.26231003
vertex -42.55353546 46.04035568 32.26231003
vertex -59.69615173 46.08639526 34.67524719
endloop
endfacet
facet normal -0.11109062 -0.00000000 -0.78923887
outer loop
vertex -59.69615173 46.08639526 34.67524719
vertex -42.55353546 46.04035568 32.26231003
vertex -59.69615173 46.04035568 34.67524719
endloop
endfacet
facet normal -0.62805325 0.00000000 0.49508935
outer loop
vertex -59.69615173 46.08639526 34.67524719
vertex -59.69615173 46.04035568 34.67524719
vertex -48.94259262 48.71368027 48.31684113
endloop
endfacet
facet normal -36.46840668 0.00000000 28.74775314
outer loop
vertex -48.94259262 48.71368027 48.31684113
vertex -59.69615173 46.04035568 34.67524719
vertex -48.94259262 46.04035568 48.31684113
endloop
endfacet
facet normal 49.71163177 21.61169815 20.41247940
outer loop
vertex -50.12035370 51.82286072 47.89326477
vertex -48.94259262 48.71368027 48.31684113
vertex -43.54798126 51.80400085 31.90717316
endloop
endfacet
facet normal 39.38333130 18.23435020 16.38106155
outer loop
vertex -43.54798126 51.80400085 31.90717316
vertex -48.94259262 48.71368027 48.31684113
vertex -42.55353546 49.33711243 32.26231003
endloop
endfacet
facet normal -4.78542423 -8.48740768 -45.55607986
outer loop
vertex -43.54798126 51.80400085 31.90717316
vertex -42.55353546 49.33711243 32.26231003
vertex -59.70006180 46.06140518 34.67374802
endloop
endfacet
facet normal 0.06517290 -0.03513454 0.41568485
outer loop
vertex -59.70006180 46.06140518 34.67374802
vertex -42.55353546 49.33711243 32.26231003
vertex -59.69615173 46.08639526 34.67524719
endloop
endfacet
facet normal 0.32171938 -0.03732750 -0.21687002
outer loop
vertex -59.70006180 46.06140518 34.67374802
vertex -59.69615173 46.08639526 34.67524719
vertex -50.12035370 51.82286072 47.89326477
endloop
endfacet
facet normal -43.52703476 -11.51158524 36.52906799
outer loop
vertex -50.12035370 51.82286072 47.89326477
vertex -59.69615173 46.08639526 34.67524719
vertex -48.94259262 48.71368027 48.31684113
endloop
endfacet
facet normal 57.85081482 25.90382004 23.75368309
outer loop
vertex -51.50495911 55.44100571 47.31974411
vertex -50.12035370 51.82286072 47.89326477
vertex -44.25113678 53.64143372 31.61591721
endloop
endfacet
facet normal 29.37886238 13.15495110 12.06303215
outer loop
vertex -44.25113678 53.64143372 31.61591721
vertex -50.12035370 51.82286072 47.89326477
vertex -43.54798126 51.80400085 31.90717316
endloop
endfacet
facet normal -3.41083312 -6.64972210 -33.71629715
outer loop
vertex -44.25113678 53.64143372 31.61591721
vertex -43.54798126 51.80400085 31.90717316
vertex -59.73984909 46.16537857 34.65726852
endloop
endfacet
facet normal -0.19301511 -0.37625259 -1.90786898
outer loop
vertex -59.73984909 46.16537857 34.65726852
vertex -43.54798126 51.80400085 31.90717316
vertex -59.70006180 46.06140518 34.67374802
endloop
endfacet
facet normal -1.46941817 -0.36809883 1.22526145
outer loop
vertex -59.73984909 46.16537857 34.65726852
vertex -59.70006180 46.06140518 34.67374802
vertex -51.50495911 55.44100571 47.31974411
endloop
endfacet
facet normal -51.13444138 -12.80965328 42.63811493
outer loop
vertex -51.50495911 55.44100571 47.31974411
vertex -59.70006180 46.06140518 34.67374802
vertex -50.12035370 51.82286072 47.89326477
endloop
endfacet
facet normal 52.12705994 48.94680786 18.46393967
outer loop
vertex -53.65487289 58.51441193 45.24192429
vertex -51.50495911 55.44100571 47.31974411
vertex -44.90083313 54.58831024 30.93554115
endloop
endfacet
facet normal 16.09397125 15.13804626 5.69929886
outer loop
vertex -44.90083313 54.58831024 30.93554115
vertex -51.50495911 55.44100571 47.31974411
vertex -44.25113678 53.64143372 31.61591721
endloop
endfacet
facet normal 2.17007971 -12.50401878 -19.47401619
outer loop
vertex -44.90083313 54.58831024 30.93554115
vertex -44.25113678 53.64143372 31.61591721
vertex -59.90348053 46.47935104 34.47038651
endloop
endfacet
facet normal 0.44223970 -3.39222240 -6.08634663
outer loop
vertex -59.90348053 46.47935104 34.47038651
vertex -44.25113678 53.64143372 31.61591721
vertex -59.73984909 46.16537857 34.65726852
endloop
endfacet
facet normal -5.63110256 -0.59480989 3.93120527
outer loop
vertex -59.90348053 46.47935104 34.47038651
vertex -59.73984909 46.16537857 34.65726852
vertex -53.65487289 58.51441193 45.24192429
endloop
endfacet
facet normal -58.19001770 -10.11261368 45.25096130
outer loop
vertex -53.65487289 58.51441193 45.24192429
vertex -59.73984909 46.16537857 34.65726852
vertex -51.50495911 55.44100571 47.31974411
endloop
endfacet
facet normal -3.68572021 -3.51821351 -1.28978002
outer loop
vertex -53.50230789 58.29865265 45.39448929
vertex -53.65487289 58.51441193 45.24192429
vertex -46.23428345 56.47409439 29.60209084
endloop
endfacet
facet normal 32.21401215 30.74992752 11.27296829
outer loop
vertex -46.23428345 56.47409439 29.60209084
vertex -53.65487289 58.51441193 45.24192429
vertex -44.90083313 54.58831024 30.93554115
endloop
endfacet
facet normal 4.14693737 -24.71882629 -39.10464478
outer loop
vertex -46.23428345 56.47409439 29.60209084
vertex -44.90083313 54.58831024 30.93554115
vertex -61.70089340 49.02127838 32.67297363
endloop
endfacet
facet normal 5.58982801 -33.31952667 -52.71078873
outer loop
vertex -61.70089340 49.02127838 32.67297363
vertex -44.90083313 54.58831024 30.93554115
vertex -59.90348053 46.47935104 34.47038651
endloop
endfacet
facet normal -49.01244354 -8.12957287 37.51548004
outer loop
vertex -61.70089340 49.02127838 32.67297363
vertex -59.90348053 46.47935104 34.47038651
vertex -53.50230789 58.29865265 45.39448929
endloop
endfacet
facet normal 4.16018820 0.69004083 -3.18432426
outer loop
vertex -53.50230789 58.29865265 45.39448929
vertex -59.90348053 46.47935104 34.47038651
vertex -53.65487289 58.51441193 45.24192429
endloop
endfacet
facet normal 0.77141804 1.08752275 0.31587040
outer loop
vertex -53.53456497 58.34680557 45.30747986
vertex -53.50230789 58.29865265 45.39448929
vertex -46.96219635 58.32794571 29.32138824
endloop
endfacet
facet normal 29.78891754 13.53564358 12.14571762
outer loop
vertex -46.96219635 58.32794571 29.32138824
vertex -53.50230789 58.29865265 45.39448929
vertex -46.23428345 56.47409439 29.60209084
endloop
endfacet
facet normal -3.51684880 -6.54775238 -34.12366104
outer loop
vertex -46.96219635 58.32794571 29.32138824
vertex -46.23428345 56.47409439 29.60209084
vertex -63.11427307 52.58534622 32.08795929
endloop
endfacet
facet normal -6.58483076 -13.38851166 -65.65770721
outer loop
vertex -63.11427307 52.58534622 32.08795929
vertex -46.23428345 56.47409439 29.60209084
vertex -61.70089340 49.02127838 32.67297363
endloop
endfacet
facet normal -50.48580551 -13.07993507 42.28585815
outer loop
vertex -63.11427307 52.58534622 32.08795929
vertex -61.70089340 49.02127838 32.67297363
vertex -53.53456497 58.34680557 45.30747986
endloop
endfacet
facet normal -1.41979718 0.30299529 0.69404685
outer loop
vertex -53.53456497 58.34680557 45.30747986
vertex -61.70089340 49.02127838 32.67297363
vertex -53.50230789 58.29865265 45.39448929
endloop
endfacet
facet normal 9.44966412 4.23127651 3.88005209
outer loop
vertex -53.76073456 58.93781281 45.21379852
vertex -53.53456497 58.34680557 45.30747986
vertex -47.42938614 59.54876709 29.12787247
endloop
endfacet
facet normal 19.51981163 8.74039650 8.01487732
outer loop
vertex -47.42938614 59.54876709 29.12787247
vertex -53.53456497 58.34680557 45.30747986
vertex -46.96219635 58.32794571 29.32138824
endloop
endfacet
facet normal -2.26620483 -4.41819477 -22.40167999
outer loop
vertex -47.42938614 59.54876709 29.12787247
vertex -46.96219635 58.32794571 29.32138824
vertex -64.53704834 56.30323029 31.49862671
endloop
endfacet
facet normal -6.90148926 -13.45515442 -68.22197723
outer loop
vertex -64.53704834 56.30323029 31.49862671
vertex -46.96219635 58.32794571 29.32138824
vertex -63.11427307 52.58534622 32.08795929
endloop
endfacet
facet normal -52.54406357 -13.16277409 43.81350708
outer loop
vertex -64.53704834 56.30323029 31.49862671
vertex -63.11427307 52.58534622 32.08795929
vertex -53.76073456 58.93781281 45.21379852
endloop
endfacet
facet normal -8.35257339 -2.09241366 6.96474361
outer loop
vertex -53.76073456 58.93781281 45.21379852
vertex -63.11427307 52.58534622 32.08795929
vertex -53.53456497 58.34680557 45.30747986
endloop
endfacet
facet normal 21.22418976 0.60293567 8.44636822
outer loop
vertex -53.77101898 60.25981903 45.14527130
vertex -53.76073456 58.93781281 45.21379852
vertex -47.38196564 60.25981903 29.09074020
endloop
endfacet
facet normal 11.41524220 -0.52770537 4.47294569
outer loop
vertex -47.38196564 60.25981903 29.09074020
vertex -53.76073456 58.93781281 45.21379852
vertex -47.42938614 59.54876709 29.12787247
endloop
endfacet
facet normal -1.71572089 -0.52212167 -12.18929100
outer loop
vertex -47.38196564 60.25981903 29.09074020
vertex -47.42938614 59.54876709 29.12787247
vertex -64.52458191 60.25981903 31.50367355
endloop
endfacet
facet normal -9.39647961 0.11589456 -67.64752197
outer loop
vertex -64.52458191 60.25981903 31.50367355
vertex -47.42938614 59.54876709 29.12787247
vertex -64.53704834 56.30323029 31.49862671
endloop
endfacet
facet normal -53.97419357 0.11579047 42.54742432
outer loop
vertex -64.52458191 60.25981903 31.50367355
vertex -64.53704834 56.30323029 31.49862671
vertex -53.77101898 60.25981903 45.14527130
endloop
endfacet
facet normal -18.31208229 0.59741819 14.27344894
outer loop
vertex -53.77101898 60.25981903 45.14527130
vertex -64.53704834 56.30323029 31.49862671
vertex -53.76073456 58.93781281 45.21379852
endloop
endfacet
facet normal 42.91897202 0.00000000 17.08001328
outer loop
vertex -53.77101898 62.93314362 45.14527130
vertex -53.77101898 60.25981903 45.14527130
vertex -47.38196564 63.55657578 29.09074020
endloop
endfacet
facet normal 52.92788315 0.00000000 21.06315422
outer loop
vertex -47.38196564 63.55657578 29.09074020
vertex -53.77101898 60.25981903 45.14527130
vertex -47.38196564 60.25981903 29.09074020
endloop
endfacet
facet normal -7.95485449 -0.00000000 -56.51503754
outer loop
vertex -47.38196564 63.55657578 29.09074020
vertex -47.38196564 60.25981903 29.09074020
vertex -64.52458191 60.30585480 31.50367355
endloop
endfacet
facet normal -0.11108124 -0.00000000 -0.78917348
outer loop
vertex -64.52458191 60.30585480 31.50367355
vertex -47.38196564 60.25981903 29.09074020
vertex -64.52458191 60.25981903 31.50367355
endloop
endfacet
facet normal -0.62800139 0.00000000 0.49504852
outer loop
vertex -64.52458191 60.30585480 31.50367355
vertex -64.52458191 60.25981903 31.50367355
vertex -53.77101898 62.93314362 45.14527130
endloop
endfacet
facet normal -36.46841812 0.00000000 28.74776459
outer loop
vertex -53.77101898 62.93314362 45.14527130
vertex -64.52458191 60.25981903 31.50367355
vertex -53.77101898 60.25981903 45.14527130
endloop
endfacet
facet normal 49.71157074 21.61163330 20.41242981
outer loop
vertex -54.94877625 66.04232025 44.72169495
vertex -53.77101898 62.93314362 45.14527130
vertex -48.37641144 66.02346039 28.73560333
endloop
endfacet
facet normal 39.38327408 18.23435020 16.38102722
outer loop
vertex -48.37641144 66.02346039 28.73560333
vertex -53.77101898 62.93314362 45.14527130
vertex -47.38196564 63.55657578 29.09074020
endloop
endfacet
facet normal -4.78539944 -8.48740101 -45.55601120
outer loop
vertex -48.37641144 66.02346039 28.73560333
vertex -47.38196564 63.55657578 29.09074020
vertex -64.52848816 60.28086472 31.50217247
endloop
endfacet
facet normal 0.06517901 -0.03515802 0.41569725
outer loop
vertex -64.52848816 60.28086472 31.50217247
vertex -47.38196564 63.55657578 29.09074020
vertex -64.52458191 60.30585480 31.50367355
endloop
endfacet
facet normal 0.32170853 -0.03725881 -0.21689209
outer loop
vertex -64.52848816 60.28086472 31.50217247
vertex -64.52458191 60.30585480 31.50367355
vertex -54.94877625 66.04232025 44.72169495
endloop
endfacet
facet normal -43.52699661 -11.51153564 36.52903366
outer loop
vertex -54.94877625 66.04232025 44.72169495
vertex -64.52458191 60.30585480 31.50367355
vertex -53.77101898 62.93314362 45.14527130
endloop
endfacet
facet normal 9.44972515 4.23127604 3.88007402
outer loop
vertex -55.17494583 66.63333130 44.62801361
vertex -54.94877625 66.04232025 44.72169495
vertex -48.84360123 67.24428558 28.54208755
endloop
endfacet
facet normal 19.51987267 8.74039555 8.01489735
outer loop
vertex -48.84360123 67.24428558 28.54208755
vertex -54.94877625 66.04232025 44.72169495
vertex -48.37641144 66.02346039 28.73560333
endloop
endfacet
facet normal -2.26621389 -4.41819477 -22.40174675
outer loop
vertex -48.84360123 67.24428558 28.54208755
vertex -48.37641144 66.02346039 28.73560333
vertex -65.95126343 63.99874878 30.91284180
endloop
endfacet
facet normal -6.90149498 -13.45512009 -68.22196960
outer loop
vertex -65.95126343 63.99874878 30.91284180
vertex -48.37641144 66.02346039 28.73560333
vertex -64.52848816 60.28086472 31.50217247
endloop
endfacet
facet normal -52.54405594 -13.16279221 43.81351471
outer loop
vertex -65.95126343 63.99874878 30.91284180
vertex -64.52848816 60.28086472 31.50217247
vertex -55.17494583 66.63333130 44.62801361
endloop
endfacet
facet normal -8.35262489 -2.09241366 6.96478176
outer loop
vertex -55.17494583 66.63333130 44.62801361
vertex -64.52848816 60.28086472 31.50217247
vertex -54.94877625 66.04232025 44.72169495
endloop
endfacet
facet normal 21.22418594 0.60295975 8.44636345
outer loop
vertex -55.18523026 67.95533752 44.55948257
vertex -55.17494583 66.63333130 44.62801361
vertex -48.79618073 67.95533752 28.50495529
endloop
endfacet
facet normal 11.41524220 -0.52770555 4.47294283
outer loop
vertex -48.79618073 67.95533752 28.50495529
vertex -55.17494583 66.63333130 44.62801361
vertex -48.84360123 67.24428558 28.54208755
endloop
endfacet
facet normal -1.71572089 -0.52212167 -12.18929100
outer loop
vertex -48.79618073 67.95533752 28.50495529
vertex -48.84360123 67.24428558 28.54208755
vertex -65.93879700 67.95533752 30.91788864
endloop
endfacet
facet normal -9.39647961 0.11589456 -67.64752197
outer loop
vertex -65.93879700 67.95533752 30.91788864
vertex -48.84360123 67.24428558 28.54208755
vertex -65.95126343 63.99874878 30.91284180
endloop
endfacet
facet normal -53.97417831 0.11579041 42.54743958
outer loop
vertex -65.93879700 67.95533752 30.91788864
vertex -65.95126343 63.99874878 30.91284180
vertex -55.18523026 67.95533752 44.55948257
endloop
endfacet
facet normal -18.31209183 0.59745955 14.27345467
outer loop
vertex -55.18523026 67.95533752 44.55948257
vertex -65.95126343 63.99874878 30.91284180
vertex -55.17494583 66.63333130 44.62801361
endloop
endfacet
facet normal 42.91896439 0.00000000 17.08000374
outer loop
vertex -55.18523026 70.62866211 44.55948257
vertex -55.18523026 67.95533752 44.55948257
vertex -48.79618073 71.25209808 28.50495529
endloop
endfacet
facet normal 52.92793274 0.00000000 21.06316566
outer loop
vertex -48.79618073 71.25209808 28.50495529
vertex -55.18523026 67.95533752 44.55948257
vertex -48.79618073 67.95533752 28.50495529
endloop
endfacet
facet normal -7.95486355 -0.00000000 -56.51510239
outer loop
vertex -48.79618073 71.25209808 28.50495529
vertex -48.79618073 67.95533752 28.50495529
vertex -65.93879700 68.00137329 30.91788864
endloop
endfacet
facet normal -0.11108124 -0.00000000 -0.78917348
outer loop
vertex -65.93879700 68.00137329 30.91788864
vertex -48.79618073 67.95533752 28.50495529
vertex -65.93879700 67.95533752 30.91788864
endloop
endfacet
facet normal -0.62800121 0.00000000 0.49504870
outer loop
vertex -65.93879700 68.00137329 30.91788864
vertex -65.93879700 67.95533752 30.91788864
vertex -55.18523026 70.62866211 44.55948257
endloop
endfacet
facet normal -36.46840668 0.00000000 28.74777412
outer loop
vertex -55.18523026 70.62866211 44.55948257
vertex -65.93879700 67.95533752 30.91788864
vertex -55.18523026 67.95533752 44.55948257
endloop
endfacet
facet normal 49.71169281 21.61166954 20.41247940
outer loop
vertex -56.36299133 73.73784637 44.13591003
vertex -55.18523026 70.62866211 44.55948257
vertex -49.79062653 73.71898651 28.14981842
endloop
endfacet
facet normal 39.38332367 18.23434448 16.38104630
outer loop
vertex -49.79062653 73.71898651 28.14981842
vertex -55.18523026 70.62866211 44.55948257
vertex -48.79618073 71.25209808 28.50495529
endloop
endfacet
facet normal -4.78541088 -8.48740101 -45.55606842
outer loop
vertex -49.79062653 73.71898651 28.14981842
vertex -48.79618073 71.25209808 28.50495529
vertex -65.94270325 67.97639465 30.91638756
endloop
endfacet
facet normal 0.06515139 -0.03515802 0.41550106
outer loop
vertex -65.94270325 67.97639465 30.91638756
vertex -48.79618073 71.25209808 28.50495529
vertex -65.93879700 68.00137329 30.91788864
endloop
endfacet
facet normal 0.32155722 -0.03725881 -0.21678248
outer loop
vertex -65.94270325 67.97639465 30.91638756
vertex -65.93879700 68.00137329 30.91788864
vertex -56.36299133 73.73784637 44.13591003
endloop
endfacet
facet normal -43.52707672 -11.51162243 36.52913666
outer loop
vertex -56.36299133 73.73784637 44.13591003
vertex -65.93879700 68.00137329 30.91788864
vertex -55.18523026 70.62866211 44.55948257
endloop
endfacet
facet normal 9.44960213 4.23121452 3.88002324
outer loop
vertex -56.58915710 74.32884979 44.04222870
vertex -56.36299133 73.73784637 44.13591003
vertex -50.25781250 74.93980408 27.95630264
endloop
endfacet
facet normal 19.51975250 8.74033356 8.01484776
outer loop
vertex -50.25781250 74.93980408 27.95630264
vertex -56.36299133 73.73784637 44.13591003
vertex -49.79062653 73.71898651 28.14981842
endloop
endfacet
facet normal -2.26619577 -4.41818476 -22.40159988
outer loop
vertex -50.25781250 74.93980408 27.95630264
vertex -49.79062653 73.71898651 28.14981842
vertex -67.36547089 71.69426727 30.32705688
endloop
endfacet
facet normal -6.90146589 -13.45509911 -68.22174072
outer loop
vertex -67.36547089 71.69426727 30.32705688
vertex -49.79062653 73.71898651 28.14981842
vertex -65.94270325 67.97639465 30.91638756
endloop
endfacet
facet normal -52.54389954 -13.16268921 43.81335831
outer loop
vertex -67.36547089 71.69426727 30.32705688
vertex -65.94270325 67.97639465 30.91638756
vertex -56.58915710 74.32884979 44.04222870
endloop
endfacet
facet normal -8.35252380 -2.09236336 6.96468592
outer loop
vertex -56.58915710 74.32884979 44.04222870
vertex -65.94270325 67.97639465 30.91638756
vertex -56.36299133 73.73784637 44.13591003
endloop
endfacet
facet normal 21.22418022 0.60295945 8.44635868
outer loop
vertex -56.59944153 75.65085602 43.97369766
vertex -56.58915710 74.32884979 44.04222870
vertex -50.21039581 75.65085602 27.91917419
endloop
endfacet
facet normal 11.41524506 -0.52766830 4.47294569
outer loop
vertex -50.21039581 75.65085602 27.91917419
vertex -56.58915710 74.32884979 44.04222870
vertex -50.25781250 74.93980408 27.95630264
endloop
endfacet
facet normal -1.71571684 -0.52206570 -12.18929100
outer loop
vertex -50.21039581 75.65085602 27.91917419
vertex -50.25781250 74.93980408 27.95630264
vertex -67.35301208 75.65085602 30.33210182
endloop
endfacet
facet normal -9.39647388 0.11584382 -67.64752960
outer loop
vertex -67.35301208 75.65085602 30.33210182
vertex -50.25781250 74.93980408 27.95630264
vertex -67.36547089 71.69426727 30.32705688
endloop
endfacet
facet normal -53.97418594 0.11570685 42.54745483
outer loop
vertex -67.35301208 75.65085602 30.33210182
vertex -67.36547089 71.69426727 30.32705688
vertex -56.59944153 75.65085602 43.97369766
endloop
endfacet
facet normal -18.31209183 0.59745932 14.27344894
outer loop
vertex -56.59944153 75.65085602 43.97369766
vertex -67.36547089 71.69426727 30.32705688
vertex -56.58915710 74.32884979 44.04222870
endloop
endfacet
facet normal 0.00000000 -87.01210022 0.00000000
outer loop
vertex -58.08371735 75.65085602 34.08446503
vertex -50.21039581 75.65085602 27.91917419
vertex -56.59944153 75.65085602 43.97369766
endloop
endfacet
facet normal 0.00000000 -86.69145966 -0.00000000
outer loop
vertex -58.08371735 75.65085602 34.08446503
vertex -67.35301208 75.65085602 30.33210182
vertex -50.21039581 75.65085602 27.91917419
endloop
endfacet
facet normal -0.00000000 -86.09667206 0.00000000
outer loop
vertex -58.08371735 75.65085602 34.08446503
vertex -56.59944153 75.65085602 43.97369766
vertex -67.35301208 75.65085602 30.33210182
endloop
endfacet
endsolid