solid (null).stl
facet normal 0.00000000 -0.00000000 86.60253906
outer loop
vertex 0.00000000 0.00000000 0.00000000
vertex 10.00000000 0.00000000 0.00000000
vertex -5.00000048 8.66025352 0.00000000
endloop
endfacet
facet normal 0.00000000 0.00000000 86.60253906
outer loop
vertex 0.00000000 0.00000000 0.00000000
vertex -5.00000048 8.66025352 0.00000000
vertex -4.99999905 -8.66025448 0.00000000
endloop
endfacet
facet normal -0.00000000 0.00000000 86.60254669
outer loop
vertex 0.00000000 0.00000000 0.00000000
vertex -4.99999905 -8.66025448 0.00000000
vertex 10.00000000 0.00000000 0.00000000
endloop
endfacet
facet normal 17.32050705 30.00000000 0.00000000
outer loop
vertex 10.00000000 0.00000000 2.00000000
vertex 10.00000000 0.00000000 0.00000000
vertex -5.00000048 8.66025352 2.00000000
endloop
endfacet
facet normal 17.32050705 30.00000000 0.00000000
outer loop
vertex -5.00000048 8.66025352 2.00000000
vertex 10.00000000 0.00000000 0.00000000
vertex -5.00000048 8.66025352 0.00000000
endloop
endfacet
facet normal -34.64101410 -0.00000286 -0.00000000
outer loop
vertex -5.00000048 8.66025352 2.00000000
vertex -5.00000048 8.66025352 0.00000000
vertex -4.99999905 -8.66025448 2.00000000
endloop
endfacet
facet normal -34.64101410 -0.00000286 -0.00000000
outer loop
vertex -4.99999905 -8.66025448 2.00000000
vertex -5.00000048 8.66025352 0.00000000
vertex -4.99999905 -8.66025448 0.00000000
endloop
endfacet
facet normal 17.32050896 -29.99999809 0.00000000
outer loop
vertex -4.99999905 -8.66025448 2.00000000
vertex -4.99999905 -8.66025448 0.00000000
vertex 10.00000000 0.00000000 2.00000000
endloop
endfacet
facet normal 17.32050896 -29.99999809 0.00000000
outer loop
vertex 10.00000000 0.00000000 2.00000000
vertex -4.99999905 -8.66025448 0.00000000
vertex 10.00000000 0.00000000 0.00000000
endloop
endfacet
facet normal 34.54681778 59.83684921 0.00000000
outer loop
vertex 10.00000000 0.00000000 5.98912334
vertex 10.00000000 0.00000000 2.00000000
vertex -5.00000048 8.66025352 4.76181793
endloop
endfacet
facet normal 23.91804314 41.42726898 0.00000000
outer loop
vertex -5.00000048 8.66025352 4.76181793
vertex 10.00000000 0.00000000 2.00000000
vertex -5.00000048 8.66025352 2.00000000
endloop
endfacet
facet normal -47.83608627 -0.00000395 -0.00000000
outer loop
vertex -5.00000048 8.66025352 4.76181793
vertex -5.00000048 8.66025352 2.00000000
vertex -4.99999905 -8.66025448 1.24905825
endloop
endfacet
facet normal 13.00669193 0.00000107 -0.00000000
outer loop
vertex -4.99999905 -8.66025448 1.24905825
vertex -5.00000048 8.66025352 2.00000000
vertex -4.99999905 -8.66025448 2.00000000
endloop
endfacet
facet normal -6.50334692 11.26412582 0.00000000
outer loop
vertex -4.99999905 -8.66025448 1.24905825
vertex -4.99999905 -8.66025448 2.00000000
vertex 10.00000000 0.00000000 5.98912334
endloop
endfacet
facet normal 34.54682159 -59.83684540 0.00000000
outer loop
vertex 10.00000000 0.00000000 5.98912334
vertex -4.99999905 -8.66025448 2.00000000
vertex 10.00000000 0.00000000 2.00000000
endloop
endfacet
facet normal 26.51861763 50.61960983 33.97267914
outer loop
vertex 8.61619282 -1.46659970 9.25455189
vertex 10.00000000 0.00000000 5.98912334
vertex -6.02986145 7.56123304 7.23550987
endloop
endfacet
facet normal 20.07396507 38.36933517 25.40416336
outer loop
vertex -6.02986145 7.56123304 7.23550987
vertex 10.00000000 0.00000000 5.98912334
vertex -5.00000048 8.66025352 4.76181793
endloop
endfacet
facet normal -46.68845749 3.61378741 -17.83204651
outer loop
vertex -6.02986145 7.56123304 7.23550987
vertex -5.00000048 8.66025352 4.76181793
vertex -4.73866034 -8.37586021 0.62508249
endloop
endfacet
facet normal 11.80658627 -0.91801924 4.52651978
outer loop
vertex -4.73866034 -8.37586021 0.62508249
vertex -5.00000048 8.66025352 4.76181793
vertex -4.99999905 -8.66025448 1.24905825
endloop
endfacet
facet normal -6.76538277 10.58831787 1.99238622
outer loop
vertex -4.73866034 -8.37586021 0.62508249
vertex -4.99999905 -8.66025448 1.24905825
vertex 8.61619282 -1.46659970 9.25455189
endloop
endfacet
facet normal 35.23122025 -55.54076004 -10.01487160
outer loop
vertex 8.61619282 -1.46659970 9.25455189
vertex -4.99999905 -8.66025448 1.24905825
vertex 10.00000000 0.00000000 5.98912334
endloop
endfacet
facet normal 1.16191816 2.21471119 1.47422540
outer loop
vertex 8.55694103 -1.53073370 9.39759922
vertex 8.61619282 -1.46659970 9.25455189
vertex -6.41978979 7.13917732 8.17688084
endloop
endfacet
facet normal 7.64639139 14.57465172 9.70165825
outer loop
vertex -6.41978979 7.13917732 8.17688084
vertex 8.61619282 -1.46659970 9.25455189
vertex -6.02986145 7.56123304 7.23550987
endloop
endfacet
facet normal -17.79268646 1.36209452 -6.75928211
outer loop
vertex -6.41978979 7.13917732 8.17688084
vertex -6.02986145 7.56123304 7.23550987
vertex -6.41186714 -10.18692684 4.66456175
endloop
endfacet
facet normal -76.34947968 5.84483194 -29.00450325
outer loop
vertex -6.41186714 -10.18692684 4.66456175
vertex -6.02986145 7.56123304 7.23550987
vertex -4.73866034 -8.37586021 0.62508249
endloop
endfacet
facet normal 43.53835678 -68.38554382 -12.62590790
outer loop
vertex -6.41186714 -10.18692684 4.66456175
vertex -4.73866034 -8.37586021 0.62508249
vertex 8.55694103 -1.53073370 9.39759922
endloop
endfacet
facet normal 1.54179370 -2.42168760 -0.44711414
outer loop
vertex 8.55694103 -1.53073370 9.39759922
vertex -4.73866034 -8.37586021 0.62508249
vertex 8.61619282 -1.46659970 9.25455189
endloop
endfacet
facet normal 0.14388113 0.24920942 -0.24981186
outer loop
vertex 8.58578682 -1.53073370 9.41421318
vertex 8.55694103 -1.53073370 9.39759922
vertex -6.41421413 7.12952042 9.41421318
endloop
endfacet
facet normal 10.71577358 18.52438736 0.09628844
outer loop
vertex -6.41421413 7.12952042 9.41421318
vertex 8.55694103 -1.53073370 9.39759922
vertex -6.41978979 7.13917732 8.17688084
endloop
endfacet
facet normal -21.43122673 -0.00000236 0.09657320
outer loop
vertex -6.41421413 7.12952042 9.41421318
vertex -6.41978979 7.13917732 8.17688084
vertex -6.41421223 -10.19098854 9.41421318
endloop
endfacet
facet normal -82.30722046 -0.02939313 -0.04066337
outer loop
vertex -6.41421223 -10.19098854 9.41421318
vertex -6.41978979 7.13917732 8.17688084
vertex -6.41186714 -10.18692684 4.66456175
endloop
endfacet
facet normal 41.13319016 -71.24476624 -0.04061645
outer loop
vertex -6.41421223 -10.19098854 9.41421318
vertex -6.41186714 -10.18692684 4.66456175
vertex 8.58578682 -1.53073370 9.41421318
endloop
endfacet
facet normal 0.14381364 -0.11216299 -0.24969469
outer loop
vertex 8.58578682 -1.53073370 9.41421318
vertex -6.41186714 -10.18692684 4.66456175
vertex 8.55694103 -1.53073370 9.39759922
endloop
endfacet
facet normal 34.54682159 59.83685303 0.00000000
outer loop
vertex 8.58578682 -1.53073370 13.40333652
vertex 8.58578682 -1.53073370 9.41421318
vertex -6.41421413 7.12952042 12.17603111
endloop
endfacet
facet normal 23.91804695 41.42727280 0.00000000
outer loop
vertex -6.41421413 7.12952042 12.17603111
vertex 8.58578682 -1.53073370 9.41421318
vertex -6.41421413 7.12952042 9.41421318
endloop
endfacet
facet normal -47.83609390 -0.00000527 -0.00000000
outer loop
vertex -6.41421413 7.12952042 12.17603111
vertex -6.41421413 7.12952042 9.41421318
vertex -6.41421223 -10.19098854 8.66327095
endloop
endfacet
facet normal 13.00670147 0.00000143 -0.00000000
outer loop
vertex -6.41421223 -10.19098854 8.66327095
vertex -6.41421413 7.12952042 9.41421318
vertex -6.41421223 -10.19098854 9.41421318
endloop
endfacet
facet normal -6.50335073 11.26413250 0.00000000
outer loop
vertex -6.41421223 -10.19098854 8.66327095
vertex -6.41421223 -10.19098854 9.41421318
vertex 8.58578682 -1.53073370 13.40333652
endloop
endfacet
facet normal 34.54682159 -59.83684540 0.00000000
outer loop
vertex 8.58578682 -1.53073370 13.40333652
vertex -6.41421223 -10.19098854 9.41421318
vertex 8.58578682 -1.53073370 9.41421318
endloop
endfacet
facet normal 26.51861000 50.61959076 33.97267914
outer loop
vertex 7.20197916 -2.99733329 16.66876411
vertex 8.58578682 -1.53073370 13.40333652
vertex -7.44407415 6.03049946 14.64972305
endloop
endfacet
facet normal 20.07396507 38.36933517 25.40416527
outer loop
vertex -7.44407415 6.03049946 14.64972305
vertex 8.58578682 -1.53073370 13.40333652
vertex -6.41421413 7.12952042 12.17603111
endloop
endfacet
facet normal -46.68846130 3.61378288 -17.83203125
outer loop
vertex -7.44407415 6.03049946 14.64972305
vertex -6.41421413 7.12952042 12.17603111
vertex -6.15287352 -9.90659428 8.03929520
endloop
endfacet
facet normal 11.80658627 -0.91801906 4.52651978
outer loop
vertex -6.15287352 -9.90659428 8.03929520
vertex -6.41421413 7.12952042 12.17603111
vertex -6.41421223 -10.19098854 8.66327095
endloop
endfacet
facet normal -6.76538277 10.58831787 1.99238622
outer loop
vertex -6.15287352 -9.90659428 8.03929520
vertex -6.41421223 -10.19098854 8.66327095
vertex 7.20197916 -2.99733329 16.66876411
endloop
endfacet
facet normal 35.23121262 -55.54075241 -10.01486683
outer loop
vertex 7.20197916 -2.99733329 16.66876411
vertex -6.41421223 -10.19098854 8.66327095
vertex 8.58578682 -1.53073370 13.40333652
endloop
endfacet
facet normal 1.16191769 2.21471143 1.47423482
outer loop
vertex 7.14272690 -3.06146765 16.81181145
vertex 7.20197916 -2.99733329 16.66876411
vertex -7.83400249 5.60844374 15.59109402
endloop
endfacet
facet normal 7.64639187 14.57465076 9.70165825
outer loop
vertex -7.83400249 5.60844374 15.59109402
vertex 7.20197916 -2.99733329 16.66876411
vertex -7.44407415 6.03049946 14.64972305
endloop
endfacet
facet normal -17.79268646 1.36209536 -6.75928307
outer loop
vertex -7.83400249 5.60844374 15.59109402
vertex -7.44407415 6.03049946 14.64972305
vertex -7.82608080 -11.71766090 12.07877541
endloop
endfacet
facet normal -76.34950256 5.84483624 -29.00451279
outer loop
vertex -7.82608080 -11.71766090 12.07877541
vertex -7.44407415 6.03049946 14.64972305
vertex -6.15287352 -9.90659428 8.03929520
endloop
endfacet
facet normal 43.53836060 -68.38555145 -12.62590218
outer loop
vertex -7.82608080 -11.71766090 12.07877541
vertex -6.15287352 -9.90659428 8.03929520
vertex 7.14272690 -3.06146765 16.81181145
endloop
endfacet
facet normal 1.54179680 -2.42169166 -0.44711560
outer loop
vertex 7.14272690 -3.06146765 16.81181145
vertex -6.15287352 -9.90659428 8.03929520
vertex 7.20197916 -2.99733329 16.66876411
endloop
endfacet
facet normal 0.14388938 0.24922369 -0.24980773
outer loop
vertex 7.17157221 -3.06146765 16.82842636
vertex 7.14272690 -3.06146765 16.81181145
vertex -7.82842684 5.59878683 16.82842636
endloop
endfacet
facet normal 10.71577358 18.52438545 0.09628841
outer loop
vertex -7.82842684 5.59878683 16.82842636
vertex 7.14272690 -3.06146765 16.81181145
vertex -7.83400249 5.60844374 15.59109402
endloop
endfacet
facet normal -21.43122673 -0.00000118 0.09657321
outer loop
vertex -7.82842684 5.59878683 16.82842636
vertex -7.83400249 5.60844374 15.59109402
vertex -7.82842588 -11.72172165 16.82842636
endloop
endfacet
facet normal -82.30721283 -0.02938860 -0.04066336
outer loop
vertex -7.82842588 -11.72172165 16.82842636
vertex -7.83400249 5.60844374 15.59109402
vertex -7.82608080 -11.71766090 12.07877541
endloop
endfacet
facet normal 41.13318253 -71.24475861 -0.04060214
outer loop
vertex -7.82842588 -11.72172165 16.82842636
vertex -7.82608080 -11.71766090 12.07877541
vertex 7.17157221 -3.06146765 16.82842636
endloop
endfacet
facet normal 0.14382190 -0.11217956 -0.24969056
outer loop
vertex 7.17157221 -3.06146765 16.82842636
vertex -7.82608080 -11.71766090 12.07877541
vertex 7.14272690 -3.06146765 16.81181145
endloop
endfacet
facet normal 0.09418634 0.16313551 0.00000000
outer loop
vertex 7.17157221 -3.06146765 16.83930206
vertex 7.17157221 -3.06146765 16.82842636
vertex -7.82842684 5.59878683 19.82298851
endloop
endfacet
facet normal 25.93367004 44.91843033 0.00000000
outer loop
vertex -7.82842684 5.59878683 19.82298851
vertex 7.17157221 -3.06146765 16.82842636
vertex -7.82842684 5.59878683 16.82842636
endloop
endfacet
facet normal -51.86734009 -0.00000286 -0.00000000
outer loop
vertex -7.82842684 5.59878683 19.82298851
vertex -7.82842684 5.59878683 16.82842636
vertex -7.82842588 -11.72172165 19.82298851
endloop
endfacet
facet normal -51.86734009 -0.00000286 -0.00000000
outer loop
vertex -7.82842588 -11.72172165 19.82298851
vertex -7.82842684 5.59878683 16.82842636
vertex -7.82842588 -11.72172165 16.82842636
endloop
endfacet
facet normal 25.93366814 -44.91842651 0.00000000
outer loop
vertex -7.82842588 -11.72172165 19.82298851
vertex -7.82842588 -11.72172165 16.82842636
vertex 7.17157221 -3.06146765 16.83930206
endloop
endfacet
facet normal 0.09418634 -0.16313551 0.00000000
outer loop
vertex 7.17157221 -3.06146765 16.83930206
vertex -7.82842588 -11.72172165 16.82842636
vertex 7.17157221 -3.06146765 16.82842636
endloop
endfacet
facet normal 0.08703399 0.16316779 -0.03605081
outer loop
vertex 7.17573500 -3.06146765 16.84935188
vertex 7.17157221 -3.06146765 16.83930206
vertex -6.68245792 5.59878683 22.58960342
endloop
endfacet
facet normal 23.95958900 44.91843414 -9.92438221
outer loop
vertex -6.68245792 5.59878683 22.58960342
vertex 7.17157221 -3.06146765 16.83930206
vertex -7.82842684 5.59878683 19.82298851
endloop
endfacet
facet normal -47.91917801 -0.00000132 19.84876442
outer loop
vertex -6.68245792 5.59878683 22.58960342
vertex -7.82842684 5.59878683 19.82298851
vertex -6.68245745 -11.72172165 22.58960342
endloop
endfacet
facet normal -47.91917801 -0.00000262 19.84875679
outer loop
vertex -6.68245745 -11.72172165 22.58960342
vertex -7.82842684 5.59878683 19.82298851
vertex -7.82842588 -11.72172165 19.82298851
endloop
endfacet
facet normal 23.95958710 -44.91843033 -9.92437744
outer loop
vertex -6.68245745 -11.72172165 22.58960342
vertex -7.82842588 -11.72172165 19.82298851
vertex 7.17573500 -3.06146765 16.84935188
endloop
endfacet
facet normal 0.08703399 -0.16316773 -0.03605080
outer loop
vertex 7.17573500 -3.06146765 16.84935188
vertex -7.82842588 -11.72172165 19.82298851
vertex 7.17157221 -3.06146765 16.83930206
endloop
endfacet
facet normal 31.91709709 59.83684158 -13.22049999
outer loop
vertex 8.70230675 -3.06146765 20.53482056
vertex 7.17573500 -3.06146765 16.84935188
vertex -5.62555599 5.59878683 25.14118958
endloop
endfacet
facet normal 22.09738541 41.42725754 -9.15303993
outer loop
vertex -5.62555599 5.59878683 25.14118958
vertex 7.17573500 -3.06146765 16.84935188
vertex -6.68245792 5.59878683 22.58960342
endloop
endfacet
facet normal -44.19477081 -0.00000238 18.30607986
outer loop
vertex -5.62555599 5.59878683 25.14118958
vertex -6.68245792 5.59878683 22.58960342
vertex -6.96983051 -11.72172165 21.89582253
endloop
endfacet
facet normal 12.01663780 0.00000033 -4.97744799
outer loop
vertex -6.96983051 -11.72172165 21.89582253
vertex -6.68245792 5.59878683 22.58960342
vertex -6.68245745 -11.72172165 22.58960342
endloop
endfacet
facet normal -6.00831842 11.26414490 2.48872352
outer loop
vertex -6.96983051 -11.72172165 21.89582253
vertex -6.68245745 -11.72172165 22.58960342
vertex 8.70230675 -3.06146765 20.53482056
endloop
endfacet
facet normal 31.91709328 -59.83683777 -13.22049809
outer loop
vertex 8.70230675 -3.06146765 20.53482056
vertex -6.68245745 -11.72172165 22.58960342
vertex 7.17573500 -3.06146765 16.84935188
endloop
endfacet
facet normal 37.50080872 50.61963272 21.23844528
outer loop
vertex 8.67346001 -4.52806807 24.08124542
vertex 8.70230675 -3.06146765 20.53482056
vertex -5.63038254 4.49976540 27.82069397
endloop
endfacet
facet normal 28.26768875 38.36933899 15.78842735
outer loop
vertex -5.63038254 4.49976540 27.82069397
vertex 8.70230675 -3.06146765 20.53482056
vertex -5.62555599 5.59878683 25.14118958
endloop
endfacet
facet normal -49.95854568 3.61379147 1.39223778
outer loop
vertex -5.63038254 4.49976540 27.82069397
vertex -5.62555599 5.59878683 25.14118958
vertex -6.96717072 -11.43732738 21.21933365
endloop
endfacet
facet normal 12.64009476 -0.91801876 -0.33623493
outer loop
vertex -6.96717072 -11.43732738 21.21933365
vertex -5.62555599 5.59878683 25.14118958
vertex -6.96983051 -11.72172165 21.89582253
endloop
endfacet
facet normal -5.48794842 10.58832455 4.42972851
outer loop
vertex -6.96717072 -11.43732738 21.21933365
vertex -6.96983051 -11.72172165 21.89582253
vertex 8.67346001 -4.52806807 24.08124542
endloop
endfacet
facet normal 28.71689224 -55.54079437 -22.73494339
outer loop
vertex 8.67346001 -4.52806807 24.08124542
vertex -6.96983051 -11.72172165 21.89582253
vertex 8.70230675 -3.06146765 20.53482056
endloop
endfacet
facet normal 1.63761270 2.21467733 0.91735756
outer loop
vertex 8.67346001 -4.59220171 24.23607635
vertex 8.67346001 -4.52806807 24.08124542
vertex -5.63038254 4.07770920 28.83962631
endloop
endfacet
facet normal 10.77700996 14.57464790 6.03702545
outer loop
vertex -5.63038254 4.07770920 28.83962631
vertex 8.67346001 -4.52806807 24.08124542
vertex -5.63038254 4.49976540 27.82069397
endloop
endfacet
facet normal -19.02496147 1.36209667 0.56419975
outer loop
vertex -5.63038254 4.07770920 28.83962631
vertex -5.63038254 4.49976540 27.82069397
vertex -6.96717072 -13.24839497 25.59163666
endloop
endfacet
facet normal -81.63731384 5.84484291 2.42101383
outer loop
vertex -6.96717072 -13.24839497 25.59163666
vertex -5.63038254 4.49976540 27.82069397
vertex -6.96717072 -11.43732738 21.21933365
endloop
endfacet
facet normal 35.39248657 -68.38557434 -28.32623863
outer loop
vertex -6.96717072 -13.24839497 25.59163666
vertex -6.96717072 -11.43732738 21.21933365
vertex 8.67346001 -4.59220171 24.23607635
endloop
endfacet
facet normal 1.25331187 -2.42165351 -1.00309062
outer loop
vertex 8.67346001 -4.59220171 24.23607635
vertex -6.96717072 -11.43732738 21.21933365
vertex 8.67346001 -4.52806807 24.08124542
endloop
endfacet
facet normal 0.03733097 0.24921477 -0.28586268
outer loop
vertex 8.70646858 -4.59220171 24.24038696
vertex 8.67346001 -4.59220171 24.23607635
vertex -5.15172482 4.06805325 29.98063850
endloop
endfacet
facet normal 9.93692684 18.52438354 -4.01180267
outer loop
vertex -5.15172482 4.06805325 29.98063850
vertex 8.67346001 -4.59220171 24.23607635
vertex -5.63038254 4.07770920 28.83962631
endloop
endfacet
facet normal -19.76291275 -0.00000109 8.29059505
outer loop
vertex -5.15172482 4.06805325 29.98063850
vertex -5.63038254 4.07770920 28.83962631
vertex -5.15172386 -13.25245571 29.98063850
endloop
endfacet
facet normal -76.05749512 -0.02938700 31.46005058
outer loop
vertex -5.15172386 -13.25245571 29.98063850
vertex -5.63038254 4.07770920 28.83962631
vertex -6.96717072 -13.24839497 25.59163666
endloop
endfacet
facet normal 37.98656082 -71.24475098 -15.77850437
outer loop
vertex -5.15172386 -13.25245571 29.98063850
vertex -6.96717072 -13.24839497 25.59163666
vertex 8.70646858 -4.59220171 24.24038696
endloop
endfacet
facet normal 0.03731345 -0.11216574 -0.28572860
outer loop
vertex 8.70646858 -4.59220171 24.24038696
vertex -6.96717072 -13.24839497 25.59163666
vertex 8.67346001 -4.59220171 24.23607635
endloop
endfacet
facet normal 16.00206757 30.00000954 -6.62827826
outer loop
vertex 9.47183609 -4.59220171 26.08814621
vertex 8.70646858 -4.59220171 24.24038696
vertex -3.72713470 4.06805325 33.41990280
endloop
endfacet
facet normal 29.78490639 55.83949280 -12.33731461
outer loop
vertex -3.72713470 4.06805325 33.41990280
vertex 8.70646858 -4.59220171 24.24038696
vertex -5.15172482 4.06805325 29.98063850
endloop
endfacet
facet normal -59.56980896 -0.00000381 24.67462540
outer loop
vertex -3.72713470 4.06805325 33.41990280
vertex -5.15172482 4.06805325 29.98063850
vertex -5.04557896 -13.25245571 30.23689461
endloop
endfacet
facet normal -4.43848610 -0.00000024 1.83848381
outer loop
vertex -5.04557896 -13.25245571 30.23689461
vertex -5.15172482 4.06805325 29.98063850
vertex -5.15172386 -13.25245571 29.98063850
endloop
endfacet
facet normal 2.21924281 -4.16054487 -0.91924179
outer loop
vertex -5.04557896 -13.25245571 30.23689461
vertex -5.15172386 -13.25245571 29.98063850
vertex 9.47183609 -4.59220171 26.08814621
endloop
endfacet
facet normal 16.00206375 -30.00000572 -6.62827682
outer loop
vertex 9.47183609 -4.59220171 26.08814621
vertex -5.15172386 -13.25245571 29.98063850
vertex 8.70646858 -4.59220171 24.24038696
endloop
endfacet
facet normal 20.39547539 27.71638489 3.97834587
outer loop
vertex 10.17894173 -5.35756922 27.79525375
vertex 9.47183609 -4.59220171 26.08814621
vertex -2.41098475 2.64346266 36.59737015
endloop
endfacet
facet normal 37.96242905 51.58898926 7.40493679
outer loop
vertex -2.41098475 2.64346266 36.59737015
vertex 9.47183609 -4.59220171 26.08814621
vertex -3.72713470 4.06805325 33.41990280
endloop
endfacet
facet normal -59.56983948 -0.00000095 24.67463112
outer loop
vertex -2.41098475 2.64346266 36.59737015
vertex -3.72713470 4.06805325 33.41990280
vertex -4.94751453 -13.35860062 30.47364426
endloop
endfacet
facet normal -4.43848467 0.00000134 1.83847189
outer loop
vertex -4.94751453 -13.35860062 30.47364426
vertex -3.72713470 4.06805325 33.41990280
vertex -5.04557896 -13.25245571 30.23689461
endloop
endfacet
facet normal 1.60994399 -3.84383798 -2.39021301
outer loop
vertex -4.94751453 -13.35860062 30.47364426
vertex -5.04557896 -13.25245571 30.23689461
vertex 10.17894173 -5.35756922 27.79525375
endloop
endfacet
facet normal 11.60866737 -27.71639252 -17.23487091
outer loop
vertex 10.17894173 -5.35756922 27.79525375
vertex -5.04557896 -13.25245571 30.23689461
vertex 9.47183609 -4.59220171 26.08814621
endloop
endfacet
facet normal 39.08234406 53.11088562 7.62338066
outer loop
vertex 11.53391933 -6.82418633 31.06645775
vertex 10.17894173 -5.35756922 27.79525375
vertex -2.00666571 2.20583105 37.57348251
endloop
endfacet
facet normal 11.66199112 15.84804726 2.27478027
outer loop
vertex -2.00666571 2.20583105 37.57348251
vertex 10.17894173 -5.35756922 27.79525375
vertex -2.41098475 2.64346266 36.59737015
endloop
endfacet
facet normal -18.29974747 -0.00000072 7.58000469
outer loop
vertex -2.00666571 2.20583105 37.57348251
vertex -2.41098475 2.64346266 36.59737015
vertex -4.58549023 -13.75045300 31.34764862
endloop
endfacet
facet normal -16.38546944 0.00000048 6.78708076
outer loop
vertex -4.58549023 -13.75045300 31.34764862
vertex -2.41098475 2.64346266 36.59737015
vertex -4.94751453 -13.35860062 30.47364426
endloop
endfacet
facet normal 5.94340229 -14.19023228 -8.82390594
outer loop
vertex -4.58549023 -13.75045300 31.34764862
vertex -4.94751453 -13.35860062 30.47364426
vertex 11.53391933 -6.82418633 31.06645775
endloop
endfacet
facet normal 22.24483299 -53.11088181 -33.02593994
outer loop
vertex 11.53391933 -6.82418633 31.06645775
vertex -4.94751453 -13.35860062 30.47364426
vertex 10.17894173 -5.35756922 27.79525375
endloop
endfacet
facet normal 41.36870575 47.78915405 19.81255341
outer loop
vertex 11.53205681 -8.28659344 34.59776688
vertex 11.53391933 -6.82418633 31.06645775
vertex -2.00311255 1.71295404 38.73971176
endloop
endfacet
facet normal 13.73823357 15.81454754 6.64175844
outer loop
vertex -2.00311255 1.71295404 38.73971176
vertex 11.53391933 -6.82418633 31.06645775
vertex -2.00666571 2.20583105 37.57348251
endloop
endfacet
facet normal -21.68045235 2.99679041 1.33257091
outer loop
vertex -2.00311255 1.71295404 38.73971176
vertex -2.00666571 2.20583105 37.57348251
vertex -4.59271908 -14.10774231 32.18656540
endloop
endfacet
facet normal -15.61041832 2.20842481 0.80604082
outer loop
vertex -4.59271908 -14.10774231 32.18656540
vertex -2.00666571 2.20583105 37.57348251
vertex -4.58549023 -13.75045300 31.34764862
endloop
endfacet
facet normal 5.74495602 -13.54477501 -5.71912956
outer loop
vertex -4.59271908 -14.10774231 32.18656540
vertex -4.58549023 -13.75045300 31.34764862
vertex 11.53205681 -8.28659344 34.59776688
endloop
endfacet
facet normal 24.04757309 -56.92209244 -23.56023788
outer loop
vertex 11.53205681 -8.28659344 34.59776688
vertex -4.58549023 -13.75045300 31.34764862
vertex 11.53391933 -6.82418633 31.06645775
endloop
endfacet
facet normal 24.90529633 28.77436829 11.91873455
outer loop
vertex 11.53205681 -9.16716862 36.72366333
vertex 11.53205681 -8.28659344 34.59776688
vertex -2.00311255 1.65626299 38.87657547
endloop
endfacet
facet normal 1.60338640 1.85247350 0.76732296
outer loop
vertex -2.00311255 1.65626299 38.87657547
vertex 11.53205681 -8.28659344 34.59776688
vertex -2.00311255 1.71295404 38.73971176
endloop
endfacet
facet normal -2.53678322 0.35442317 0.14680752
outer loop
vertex -2.00311255 1.65626299 38.87657547
vertex -2.00311255 1.71295404 38.73971176
vertex -4.59271908 -15.46793556 35.47035980
endloop
endfacet
facet normal -60.86545563 8.50373554 3.52236533
outer loop
vertex -4.59271908 -15.46793556 35.47035980
vertex -2.00311255 1.71295404 38.73971176
vertex -4.59271908 -14.10774231 32.18656540
endloop
endfacet
facet normal 22.39515877 -52.95044708 -21.93280983
outer loop
vertex -4.59271908 -15.46793556 35.47035980
vertex -4.59271908 -14.10774231 32.18656540
vertex 11.53205681 -9.16716862 36.72366333
endloop
endfacet
facet normal 14.49840355 -34.27960205 -14.19907665
outer loop
vertex 11.53205681 -9.16716862 36.72366333
vertex -4.59271908 -14.10774231 32.18656540
vertex 11.53205681 -8.28659344 34.59776688
endloop
endfacet
facet normal 24.90527916 31.14512825 0.00000000
outer loop
vertex 11.53205681 -9.16716862 39.02471542
vertex 11.53205681 -9.16716862 36.72366333
vertex -2.00311208 1.65626240 39.02471542
endloop
endfacet
facet normal 1.60338402 2.00510049 0.00000291
outer loop
vertex -2.00311208 1.65626240 39.02471542
vertex 11.53205681 -9.16716862 36.72366333
vertex -2.00311255 1.65626299 38.87657547
endloop
endfacet
facet normal -2.53677773 0.38362411 0.00000971
outer loop
vertex -2.00311208 1.65626240 39.02471542
vertex -2.00311255 1.65626299 38.87657547
vertex -4.59271812 -15.46793461 39.02471542
endloop
endfacet
facet normal -60.86548615 9.20437908 0.00001386
outer loop
vertex -4.59271812 -15.46793461 39.02471542
vertex -2.00311255 1.65626299 38.87657547
vertex -4.59271908 -15.46793556 35.47035980
endloop
endfacet
facet normal 22.39516258 -57.31318283 0.00000937
outer loop
vertex -4.59271812 -15.46793461 39.02471542
vertex -4.59271908 -15.46793556 35.47035980
vertex 11.53205681 -9.16716862 39.02471542
endloop
endfacet
facet normal 14.49839306 -37.10394669 0.00000000
outer loop
vertex 11.53205681 -9.16716862 39.02471542
vertex -4.59271908 -15.46793556 35.47035980
vertex 11.53205681 -9.16716862 36.72366333
endloop
endfacet
facet normal 3.68797803 4.61197615 0.00000000
outer loop
vertex 11.53205681 -9.16716862 39.36545563
vertex 11.53205681 -9.16716862 39.02471542
vertex -2.00311208 1.65626240 39.86267853
endloop
endfacet
facet normal 9.06963539 11.34197235 0.00000000
outer loop
vertex -2.00311208 1.65626240 39.86267853
vertex 11.53205681 -9.16716862 39.02471542
vertex -2.00311208 1.65626240 39.02471542
endloop
endfacet
facet normal -14.34944534 2.16999435 0.00000000
outer loop
vertex -2.00311208 1.65626240 39.86267853
vertex -2.00311208 1.65626240 39.02471542
vertex -4.59271812 -15.46793461 43.85072708
endloop
endfacet
facet normal -82.64157104 12.49746895 0.00000000
outer loop
vertex -4.59271812 -15.46793461 43.85072708
vertex -2.00311208 1.65626240 39.02471542
vertex -4.59271812 -15.46793461 39.02471542
endloop
endfacet
facet normal 30.40756989 -77.81835175 0.00000000
outer loop
vertex -4.59271812 -15.46793461 43.85072708
vertex -4.59271812 -15.46793461 39.02471542
vertex 11.53205681 -9.16716862 39.36545563
endloop
endfacet
facet normal 2.14692426 -5.49435902 0.00000000
outer loop
vertex 11.53205681 -9.16716862 39.36545563
vertex -4.59271812 -15.46793461 39.02471542
vertex 11.53205681 -9.16716862 39.02471542
endloop
endfacet
facet normal 4.61240292 5.94620037 -4.32069683
outer loop
vertex 11.68552780 -8.97032547 39.80018616
vertex 11.53205681 -9.16716862 39.36545563
vertex -1.75459647 1.94444513 40.47372055
endloop
endfacet
facet normal 6.47028065 8.39412498 -6.59039402
outer loop
vertex -1.75459647 1.94444513 40.47372055
vertex 11.53205681 -9.16716862 39.36545563
vertex -2.00311208 1.65626240 39.86267853
endloop
endfacet
facet normal -11.66443920 2.54947352 3.54162383
outer loop
vertex -1.75459647 1.94444513 40.47372055
vertex -2.00311208 1.65626240 39.86267853
vertex -2.89505315 -13.62915993 47.92840958
endloop
endfacet
facet normal -77.16015625 17.32996178 24.30944633
outer loop
vertex -2.89505315 -13.62915993 47.92840958
vertex -2.00311208 1.65626240 39.86267853
vertex -4.59271812 -15.46793461 43.85072708
endloop
endfacet
facet normal 33.94321823 -73.25398254 18.90126228
outer loop
vertex -2.89505315 -13.62915993 47.92840958
vertex -4.59271812 -15.46793461 43.85072708
vertex 11.68552780 -8.97032547 39.80018616
endloop
endfacet
facet normal 3.62203026 -7.69829130 2.20706654
outer loop
vertex 11.68552780 -8.97032547 39.80018616
vertex -4.59271812 -15.46793461 43.85072708
vertex 11.53205681 -9.16716862 39.36545563
endloop
endfacet
facet normal 31.66499901 40.93318176 -31.46810150
outer loop
vertex 12.92140007 -7.63262653 42.78384781
vertex 11.68552780 -8.97032547 39.80018616
vertex -0.59418118 3.20046973 43.27521133
endloop
endfacet
facet normal 29.73165321 38.43396378 -29.54679489
outer loop
vertex -0.59418118 3.20046973 43.27521133
vertex 11.68552780 -8.97032547 39.80018616
vertex -1.75459647 1.94444513 40.47372055
endloop
endfacet
facet normal -52.99258041 11.84551430 16.63940811
outer loop
vertex -0.59418118 3.20046973 43.27521133
vertex -1.75459647 1.94444513 40.47372055
vertex -3.17123365 -13.92809582 47.26165009
endloop
endfacet
facet normal 12.61232376 -2.81925011 -3.96020293
outer loop
vertex -3.17123365 -13.92809582 47.26165009
vertex -1.75459647 1.94444513 40.47372055
vertex -2.89505315 -13.62915993 47.92840958
endloop
endfacet
facet normal -5.53613997 11.96659851 -3.07198024
outer loop
vertex -3.17123365 -13.92809582 47.26165009
vertex -2.89505315 -13.62915993 47.92840958
vertex 12.92140007 -7.63262653 42.78384781
endloop
endfacet
facet normal 24.77350235 -53.54896545 13.74670219
outer loop
vertex 12.92140007 -7.63262653 42.78384781
vertex -2.89505315 -13.62915993 47.92840958
vertex 11.68552780 -8.97032547 39.80018616
endloop
endfacet
facet normal 39.56053543 49.47216034 -0.21763563
outer loop
vertex 12.94626999 -7.63643456 46.43893051
vertex 12.92140007 -7.63262653 42.78384781
vertex -0.58889842 3.18699646 46.43893051
endloop
endfacet
facet normal 34.27949524 42.76210022 0.12487046
outer loop
vertex -0.58889842 3.18699646 46.43893051
vertex 12.92140007 -7.63262653 42.78384781
vertex -0.59418118 3.20046973 43.27521133
endloop
endfacet
facet normal -54.17615128 8.19278622 0.12535349
outer loop
vertex -0.58889842 3.18699646 46.43893051
vertex -0.59418118 3.20046973 43.27521133
vertex -3.17850447 -13.93720055 46.43893051
endloop
endfacet
facet normal 14.12830162 -2.14917636 -0.10107523
outer loop
vertex -3.17850447 -13.93720055 46.43893051
vertex -0.59418118 3.20046973 43.27521133
vertex -3.17123365 -13.92809582 47.26165009
endloop
endfacet
facet normal -5.18376350 13.26616764 -0.10100000
outer loop
vertex -3.17850447 -13.93720055 46.43893051
vertex -3.17123365 -13.92809582 47.26165009
vertex 12.94626999 -7.63643456 46.43893051
endloop
endfacet
facet normal 22.99340820 -58.93127441 -0.21784890
outer loop
vertex 12.94626999 -7.63643456 46.43893051
vertex -3.17123365 -13.92809582 47.26165009
vertex 12.92140007 -7.63262653 42.78384781
endloop
endfacet
facet normal 42.92799377 53.68331146 0.00000000
outer loop
vertex 12.94626999 -7.63643456 50.40513992
vertex 12.94626999 -7.63643456 46.43893051
vertex -0.58889848 3.18699646 47.71282959
endloop
endfacet
facet normal 13.78795910 17.24243927 0.00000065
outer loop
vertex -0.58889848 3.18699646 47.71282959
vertex 12.94626999 -7.63643456 46.43893051
vertex -0.58889842 3.18699646 46.43893051
endloop
endfacet
facet normal -21.81449890 3.29889679 -0.00000102
outer loop
vertex -0.58889848 3.18699646 47.71282959
vertex -0.58889842 3.18699646 46.43893051
vertex -3.17850447 -13.93720055 47.19772339
endloop
endfacet
facet normal -12.99371910 1.96497464 0.00000000
outer loop
vertex -3.17850447 -13.93720055 47.19772339
vertex -0.58889842 3.18699646 46.43893051
vertex -3.17850447 -13.93720055 46.43893051
endloop
endfacet
facet normal 4.78097630 -12.23536396 0.00000000
outer loop
vertex -3.17850447 -13.93720055 47.19772339
vertex -3.17850447 -13.93720055 46.43893051
vertex 12.94626999 -7.63643456 50.40513992
endloop
endfacet
facet normal 24.99015808 -63.95423508 0.00000000
outer loop
vertex 12.94626999 -7.63643456 50.40513992
vertex -3.17850447 -13.93720055 46.43893051
vertex 12.94626999 -7.63643456 46.43893051
endloop
endfacet
facet normal 39.66028595 53.68330002 16.42783737
outer loop
vertex 11.42846680 -7.63643456 54.06943893
vertex 12.94626999 -7.63643456 50.40513992
vertex -1.07639718 3.18699646 48.88975525
endloop
endfacet
facet normal 12.73837376 17.24238586 5.27640867
outer loop
vertex -1.07639718 3.18699646 48.88975525
vertex 12.94626999 -7.63643456 50.40513992
vertex -0.58889848 3.18699646 47.71282959
endloop
endfacet
facet normal -20.15390968 3.29888749 -8.34802437
outer loop
vertex -1.07639718 3.18699646 48.88975525
vertex -0.58889848 3.18699646 47.71282959
vertex -3.46888256 -13.93720150 47.89875793
endloop
endfacet
facet normal -12.00465488 1.96497881 -4.97248936
outer loop
vertex -3.46888256 -13.93720150 47.89875793
vertex -0.58889848 3.18699646 47.71282959
vertex -3.17850447 -13.93720055 47.19772339
endloop
endfacet
facet normal 4.41706085 -12.23538780 1.82959056
outer loop
vertex -3.46888256 -13.93720150 47.89875793
vertex -3.17850447 -13.93720055 47.19772339
vertex 11.42846680 -7.63643456 54.06943893
endloop
endfacet
facet normal 23.08789062 -63.95422363 9.56332302
outer loop
vertex 11.42846680 -7.63643456 54.06943893
vertex -3.17850447 -13.93720055 47.19772339
vertex 12.94626999 -7.63643456 50.40513992
endloop
endfacet
facet normal 3.40726018 4.61199570 1.41134119
outer loop
vertex 11.29806995 -7.63643456 54.38424301
vertex 11.42846680 -7.63643456 54.06943893
vertex -1.39707148 3.18699646 49.66393280
endloop
endfacet
facet normal 8.37925720 11.34197617 3.47079611
outer loop
vertex -1.39707148 3.18699646 49.66393280
vertex 11.42846680 -7.63643456 54.06943893
vertex -1.07639718 3.18699646 48.88975525
endloop
endfacet
facet normal -13.25717068 2.16999817 -5.49129057
outer loop
vertex -1.39707148 3.18699646 49.66393280
vertex -1.07639718 3.18699646 48.88975525
vertex -5.31571674 -13.93720150 52.35741043
endloop
endfacet
facet normal -76.35085297 12.49746895 -31.62555504
outer loop
vertex -5.31571674 -13.93720150 52.35741043
vertex -1.07639718 3.18699646 48.88975525
vertex -3.46888256 -13.93720150 47.89875793
endloop
endfacet
facet normal 28.09292984 -77.81832886 11.63647175
outer loop
vertex -5.31571674 -13.93720150 52.35741043
vertex -3.46888256 -13.93720150 47.89875793
vertex 11.29806995 -7.63643456 54.38424301
endloop
endfacet
facet normal 1.98350716 -5.49438381 0.82160014
outer loop
vertex 11.29806995 -7.63643456 54.38424301
vertex -3.46888256 -13.93720150 47.89875793
vertex 11.42846680 -7.63643456 54.06943893
endloop
endfacet
facet normal 5.91476154 5.94618654 -2.22673655
outer loop
vertex 11.27349663 -7.43959141 54.84461212
vertex 11.29806995 -7.63643456 54.38424301
vertex -1.40130949 3.47518110 50.32356262
endloop
endfacet
facet normal 8.49977970 8.39409828 -3.61267471
outer loop
vertex -1.40130949 3.47518110 50.32356262
vertex 11.29806995 -7.63643456 54.38424301
vertex -1.39707148 3.18699646 49.66393280
endloop
endfacet
facet normal -12.13183784 2.54945898 -1.19177413
outer loop
vertex -1.40130949 3.47518110 50.32356262
vertex -1.39707148 3.18699646 49.66393280
vertex -5.30773926 -12.09842682 56.77436066
endloop
endfacet
facet normal -80.58943176 17.32994843 -7.06889772
outer loop
vertex -5.30773926 -12.09842682 56.77436066
vertex -1.39707148 3.18699646 49.66393280
vertex -5.31571674 -13.93720150 52.35741043
endloop
endfacet
facet normal 24.12621689 -73.25389099 30.45199013
outer loop
vertex -5.30773926 -12.09842682 56.77436066
vertex -5.31571674 -13.93720150 52.35741043
vertex 11.27349663 -7.43959141 54.84461212
endloop
endfacet
facet normal 2.50171041 -7.69828033 3.42514110
outer loop
vertex 11.27349663 -7.43959141 54.84461212
vertex -5.31571674 -13.93720150 52.35741043
vertex 11.29806995 -7.63643456 54.38424301
endloop
endfacet
facet normal 44.90383911 44.50827789 -18.43593216
outer loop
vertex 11.27349663 -5.98505783 58.35616684
vertex 11.27349663 -7.43959141 54.84461212
vertex -1.40130949 4.00966978 51.61393356
endloop
endfacet
facet normal 16.50055504 16.35520172 -6.77454042
outer loop
vertex -1.40130949 4.00966978 51.61393356
vertex 11.27349663 -7.43959141 54.84461212
vertex -1.40130949 3.47518110 50.32356262
endloop
endfacet
facet normal -23.54360962 5.04074335 -2.08794260
outer loop
vertex -1.40130949 4.00966978 51.61393356
vertex -1.40130949 3.47518110 50.32356262
vertex -5.30773926 -11.79332161 57.51094818
endloop
endfacet
facet normal -13.43949699 2.87742734 -1.19187212
outer loop
vertex -5.30773926 -11.79332161 57.51094818
vertex -1.40130949 3.47518110 50.32356262
vertex -5.30773926 -12.09842682 56.77436066
endloop
endfacet
facet normal 4.02041388 -12.21353149 5.05902147
outer loop
vertex -5.30773926 -11.79332161 57.51094818
vertex -5.30773926 -12.09842682 56.77436066
vertex 11.27349663 -5.98505783 58.35616684
endloop
endfacet
facet normal 19.16663933 -58.22591782 24.11796379
outer loop
vertex 11.27349663 -5.98505783 58.35616684
vertex -5.30773926 -12.09842682 56.77436066
vertex 11.27349663 -7.43959141 54.84461212
endloop
endfacet
facet normal 42.50315094 50.46466064 -5.05769634
outer loop
vertex 9.92581844 -4.52294350 61.61941910
vertex 11.27349663 -5.98505783 58.35616684
vertex -1.85264468 4.50277472 52.69401932
endloop
endfacet
facet normal 14.11979198 16.73288536 -1.73903704
outer loop
vertex -1.85264468 4.50277472 52.69401932
vertex 11.27349663 -5.98505783 58.35616684
vertex -1.40130949 4.00966978 51.61393356
endloop
endfacet
facet normal -19.97281075 1.54664469 -9.05214310
outer loop
vertex -1.85264468 4.50277472 52.69401932
vertex -1.40130949 4.00966978 51.61393356
vertex -5.61922121 -11.43842793 58.28095627
endloop
endfacet
facet normal -14.26124382 1.17116880 -6.30871344
outer loop
vertex -5.61922121 -11.43842793 58.28095627
vertex -1.40130949 4.00966978 51.61393356
vertex -5.30773926 -11.79332161 57.51094818
endloop
endfacet
facet normal 4.14017963 -13.00967789 7.67088509
outer loop
vertex -5.61922121 -11.43842793 58.28095627
vertex -5.30773926 -11.79332161 57.51094818
vertex 9.92581844 -4.52294350 61.61941910
endloop
endfacet
facet normal 17.71802521 -55.24783707 32.07133484
outer loop
vertex 9.92581844 -4.52294350 61.61941910
vertex -5.30773926 -11.79332161 57.51094818
vertex 11.27349663 -5.98505783 58.35616684
endloop
endfacet
facet normal 23.90561485 28.39802933 -2.82998896
outer loop
vertex 9.16572285 -3.70022178 63.45445251
vertex 9.92581844 -4.52294350 61.61941910
vertex -1.92569733 4.58184624 52.87038422
endloop
endfacet
facet normal 2.29756498 2.72933149 -0.27198845
outer loop
vertex -1.92569733 4.58184624 52.87038422
vertex 9.92581844 -4.52294350 61.61941910
vertex -1.85264468 4.50277472 52.69401932
endloop
endfacet
facet normal -3.25323558 0.25615162 -1.46237588
outer loop
vertex -1.92569733 4.58184624 52.87038422
vertex -1.85264468 4.50277472 52.69401932
vertex -6.90572548 -10.04592514 61.38685226
endloop
endfacet
facet normal -57.29154205 4.51097584 -25.75339317
outer loop
vertex -6.90572548 -10.04592514 61.38685226
vertex -1.85264468 4.50277472 52.69401932
vertex -5.61922121 -11.43842793 58.28095627
endloop
endfacet
facet normal 16.82995415 -52.57622528 30.54331207
outer loop
vertex -6.90572548 -10.04592514 61.38685226
vertex -5.61922121 -11.43842793 58.28095627
vertex 9.16572285 -3.70022178 63.45445251
endloop
endfacet
facet normal 9.94351864 -31.06321907 18.04567146
outer loop
vertex 9.16572285 -3.70022178 63.45445251
vertex -5.61922121 -11.43842793 58.28095627
vertex 9.92581844 -4.52294350 61.61941910
endloop
endfacet
facet normal 27.72171021 21.73489380 -12.04293633
outer loop
vertex 8.58397102 -2.18003368 64.85892487
vertex 9.16572285 -3.70022178 63.45445251
vertex -1.98160934 4.72795200 53.00536728
endloop
endfacet
facet normal 2.66433239 2.08893061 -1.15745330
outer loop
vertex -1.98160934 4.72795200 53.00536728
vertex 9.16572285 -3.70022178 63.45445251
vertex -1.92569733 4.58184624 52.87038422
endloop
endfacet
facet normal -3.21880960 0.19604588 -1.54547954
outer loop
vertex -1.98160934 4.72795200 53.00536728
vertex -1.92569733 4.58184624 52.87038422
vertex -7.89037228 -7.47291613 63.76400375
endloop
endfacet
facet normal -56.68537521 3.45256805 -27.21684456
outer loop
vertex -7.89037228 -7.47291613 63.76400375
vertex -1.92569733 4.58184624 52.87038422
vertex -6.90572548 -10.04592514 61.38685226
endloop
endfacet
facet normal 9.76474190 -40.24011612 47.60025024
outer loop
vertex -7.89037228 -7.47291613 63.76400375
vertex -6.90572548 -10.04592514 61.38685226
vertex 8.58397102 -2.18003368 64.85892487
endloop
endfacet
facet normal 5.76922369 -23.77473450 28.12324905
outer loop
vertex 8.58397102 -2.18003368 64.85892487
vertex -6.90572548 -10.04592514 61.38685226
vertex 9.16572285 -3.70022178 63.45445251
endloop
endfacet
facet normal 43.79299164 34.33538437 -19.02466965
outer loop
vertex 7.66495848 0.22146201 67.07762146
vertex 8.58397102 -2.18003368 64.85892487
vertex -2.33609152 5.65425825 53.86116409
endloop
endfacet
facet normal 16.89185715 13.24386501 -7.33820629
outer loop
vertex -2.33609152 5.65425825 53.86116409
vertex 8.58397102 -2.18003368 64.85892487
vertex -1.98160934 4.72795200 53.00536728
endloop
endfacet
facet normal -20.40725708 1.24295497 -9.79831409
outer loop
vertex -2.33609152 5.65425825 53.86116409
vertex -1.98160934 4.72795200 53.00536728
vertex -8.23957157 -6.56041431 64.60704803
endloop
endfacet
facet normal -20.10314751 1.22444057 -9.65229130
outer loop
vertex -8.23957157 -6.56041431 64.60704803
vertex -1.98160934 4.72795200 53.00536728
vertex -7.89037228 -7.47291613 63.76400375
endloop
endfacet
facet normal 3.46301985 -14.27094555 16.88113785
outer loop
vertex -8.23957157 -6.56041431 64.60704803
vertex -7.89037228 -7.47291613 63.76400375
vertex 7.66495848 0.22146201 67.07762146
endloop
endfacet
facet normal 9.11385059 -37.55781555 44.42729187
outer loop
vertex 7.66495848 0.22146201 67.07762146
vertex -7.89037228 -7.47291613 63.76400375
vertex 8.58397102 -2.18003368 64.85892487
endloop
endfacet
facet normal 40.84225464 39.30870819 -14.71879196
outer loop
vertex 5.97165537 2.61397791 68.76854706
vertex 7.66495848 0.22146201 67.07762146
vertex -2.91226482 6.47396564 54.42577744
endloop
endfacet
facet normal 13.90105724 13.26169586 -5.06770229
outer loop
vertex -2.91226482 6.47396564 54.42577744
vertex 7.66495848 0.22146201 67.07762146
vertex -2.33609152 5.65425825 53.86116409
endloop
endfacet
facet normal -15.71433353 -2.86946177 -11.87017632
outer loop
vertex -2.91226482 6.47396564 54.42577744
vertex -2.33609152 5.65425825 53.86116409
vertex -8.96327877 -5.51915503 65.33559418
endloop
endfacet
facet normal -20.08820343 -3.47591591 -14.98690033
outer loop
vertex -8.96327877 -5.51915503 65.33559418
vertex -2.33609152 5.65425825 53.86116409
vertex -8.23957157 -6.56041431 64.60704803
endloop
endfacet
facet normal 2.35076857 -13.36524200 21.43714714
outer loop
vertex -8.96327877 -5.51915503 65.33559418
vertex -8.23957157 -6.56041431 64.60704803
vertex 5.97165537 2.61397791 68.76854706
endloop
endfacet
facet normal 5.55676270 -31.07680702 49.53561401
outer loop
vertex 5.97165537 2.61397791 68.76854706
vertex -8.23957157 -6.56041431 64.60704803
vertex 7.66495848 0.22146201 67.07762146
endloop
endfacet
facet normal 5.88544750 5.66190195 -2.12169504
outer loop
vertex 5.72788811 2.95871687 69.01231384
vertex 5.97165537 2.61397791 68.76854706
vertex -3.50226736 7.30835533 55.01578140
endloop
endfacet
facet normal 14.24486637 13.70381832 -5.13524914
outer loop
vertex -3.50226736 7.30835533 55.01578140
vertex 5.97165537 2.61397791 68.76854706
vertex -2.91226482 6.47396564 54.42577744
endloop
endfacet
facet normal -16.17902565 -2.86669588 -12.12487602
outer loop
vertex -3.50226736 7.30835533 55.01578140
vertex -2.91226482 6.47396564 54.42577744
vertex -11.12768936 -2.45821667 67.50000763
endloop
endfacet
facet normal -59.35234833 -10.51642609 -44.47982025
outer loop
vertex -11.12768936 -2.45821667 67.50000763
vertex -2.91226482 6.47396564 54.42577744
vertex -8.96327877 -5.51915503 65.33559418
endloop
endfacet
facet normal 7.09540749 -39.75568771 63.31835175
outer loop
vertex -11.12768936 -2.45821667 67.50000763
vertex -8.96327877 -5.51915503 65.33559418
vertex 5.72788811 2.95871687 69.01231384
endloop
endfacet
facet normal 0.79911518 -4.47748232 7.13124514
outer loop
vertex 5.72788811 2.95871687 69.01231384
vertex -8.96327877 -5.51915503 65.33559418
vertex 5.97165537 2.61397791 68.76854706
endloop
endfacet
facet normal 16.05532837 6.50185490 -8.49916077
outer loop
vertex 5.49898815 3.99215579 69.37049103
vertex 5.72788811 2.95871687 69.01231384
vertex -3.60558176 7.96706390 55.21231842
endloop
endfacet
facet normal 10.07450104 3.26011038 -5.63060188
outer loop
vertex -3.60558176 7.96706390 55.21231842
vertex 5.72788811 2.95871687 69.01231384
vertex -3.50226736 7.30835533 55.01578140
endloop
endfacet
facet normal -10.34647465 0.17256761 -6.01724625
outer loop
vertex -3.60558176 7.96706390 55.21231842
vertex -3.50226736 7.30835533 55.01578140
vertex -11.71342182 1.41867399 68.96570587
endloop
endfacet
facet normal -62.71482849 3.86415195 -35.28352737
outer loop
vertex -11.71342182 1.41867399 68.96570587
vertex -3.50226736 7.30835533 55.01578140
vertex -11.12768936 -2.45821667 67.50000763
endloop
endfacet
facet normal 2.20264006 -25.46529388 68.23799896
outer loop
vertex -11.71342182 1.41867399 68.96570587
vertex -11.12768936 -2.45821667 67.50000763
vertex 5.49898815 3.99215579 69.37049103
endloop
endfacet
facet normal 0.37734604 -6.38345051 18.65914726
outer loop
vertex 5.49898815 3.99215579 69.37049103
vertex -11.12768936 -2.45821667 67.50000763
vertex 5.72788811 2.95871687 69.01231384
endloop
endfacet
facet normal 26.84229088 9.80679321 -14.50797462
outer loop
vertex 5.22762108 5.70411301 70.02562714
vertex 5.49898815 3.99215579 69.37049103
vertex -3.64726305 8.23001575 55.31294632
endloop
endfacet
facet normal 4.12290430 1.50630474 -2.22838426
outer loop
vertex -3.64726305 8.23001575 55.31294632
vertex 5.49898815 3.99215579 69.37049103
vertex -3.60558176 7.96706390 55.21231842
endloop
endfacet
facet normal -4.27542734 0.24261624 -2.40491676
outer loop
vertex -3.64726305 8.23001575 55.31294632
vertex -3.60558176 7.96706390 55.21231842
vertex -12.27583885 4.96676397 70.32350159
endloop
endfacet
facet normal -57.68963242 3.27365208 -32.45027161
outer loop
vertex -12.27583885 4.96676397 70.32350159
vertex -3.60558176 7.96706390 55.21231842
vertex -11.71342182 1.41867399 68.96570587
endloop
endfacet
facet normal 2.05805469 -23.59859276 62.51854706
outer loop
vertex -12.27583885 4.96676397 70.32350159
vertex -11.71342182 1.41867399 68.96570587
vertex 5.22762108 5.70411301 70.02562714
endloop
endfacet
facet normal 0.99300599 -11.38631725 30.16526985
outer loop
vertex 5.22762108 5.70411301 70.02562714
vertex -11.71342182 1.41867399 68.96570587
vertex 5.49898815 3.99215579 69.37049103
endloop
endfacet
facet normal 38.18449783 -0.14126420 -22.99523163
outer loop
vertex 5.24182224 8.29090500 70.03331757
vertex 5.22762108 5.70411301 70.02562714
vertex -3.64765620 8.29090500 55.27198410
endloop
endfacet
facet normal 0.79237747 -0.35775062 -0.53939199
outer loop
vertex -3.64765620 8.29090500 55.27198410
vertex 5.22762108 5.70411301 70.02562714
vertex -3.64726305 8.23001575 55.31294632
endloop
endfacet
facet normal -0.91399300 -0.35644698 -0.52107650
outer loop
vertex -3.64765620 8.29090500 55.27198410
vertex -3.64726305 8.23001575 55.31294632
vertex -12.20543194 8.29090500 70.28273010
endloop
endfacet
facet normal -49.76415634 0.70504707 -28.45284653
outer loop
vertex -12.20543194 8.29090500 70.28273010
vertex -3.64726305 8.23001575 55.31294632
vertex -12.27583885 4.96676397 70.32350159
endloop
endfacet
facet normal 0.82908243 0.69379008 57.99713516
outer loop
vertex -12.20543194 8.29090500 70.28273010
vertex -12.27583885 4.96676397 70.32350159
vertex 5.24182224 8.29090500 70.03331757
endloop
endfacet
facet normal 0.77620977 -0.13883929 45.26734161
outer loop
vertex 5.24182224 8.29090500 70.03331757
vertex -12.27583885 4.96676397 70.32350159
vertex 5.22762108 5.70411301 70.02562714
endloop
endfacet
facet normal 20.84682846 0.00000000 -12.55424690
outer loop
vertex 5.24182224 9.70316410 70.03331757
vertex 5.24182224 8.29090500 70.03331757
vertex -3.64765620 12.23799229 55.27198410
endloop
endfacet
facet normal 58.26427078 0.00000000 -35.08754730
outer loop
vertex -3.64765620 12.23799229 55.27198410
vertex 5.24182224 8.29090500 70.03331757
vertex -3.64765620 8.29090500 55.27198410
endloop
endfacet
facet normal -59.24872589 -0.00000000 -33.77828598
outer loop
vertex -3.64765620 12.23799229 55.27198410
vertex -3.64765620 8.29090500 55.27198410
vertex -12.20543194 8.97745037 70.28273010
endloop
endfacet
facet normal -10.30555820 -0.00000000 -5.87530136
outer loop
vertex -12.20543194 8.97745037 70.28273010
vertex -3.64765620 8.29090500 55.27198410
vertex -12.20543194 8.29090500 70.28273010
endloop
endfacet
facet normal 0.17123303 0.00000000 11.97833157
outer loop
vertex -12.20543194 8.97745037 70.28273010
vertex -12.20543194 8.29090500 70.28273010
vertex 5.24182224 9.70316410 70.03331757
endloop
endfacet
facet normal 0.35223514 0.00000000 24.64004326
outer loop
vertex 5.24182224 9.70316410 70.03331757
vertex -12.20543194 8.29090500 70.28273010
vertex 5.24182224 8.29090500 70.03331757
endloop
endfacet
facet normal 31.08374023 11.49374008 -16.76187515
outer loop
vertex 4.91320133 11.68767452 70.78470612
vertex 5.24182224 9.70316410 70.03331757
vertex -4.19136810 15.66258240 56.62653351
endloop
endfacet
facet normal 53.98506546 20.06715012 -29.06460190
outer loop
vertex -4.19136810 15.66258240 56.62653351
vertex 5.24182224 9.70316410 70.03331757
vertex -3.64765620 12.23799229 55.27198410
endloop
endfacet
facet normal -55.96983337 3.50459099 -31.32646942
outer loop
vertex -4.19136810 15.66258240 56.62653351
vertex -3.64765620 12.23799229 55.27198410
vertex -12.29920959 9.11419296 70.37992096
endloop
endfacet
facet normal -2.36950302 -0.57593507 -1.47597837
outer loop
vertex -12.29920959 9.11419296 70.37992096
vertex -3.64765620 12.23799229 55.27198410
vertex -12.20543194 8.97745037 70.28273010
endloop
endfacet
facet normal 0.19476750 -1.71084869 2.59500480
outer loop
vertex -12.29920959 9.11419296 70.37992096
vertex -12.20543194 8.97745037 70.28273010
vertex 4.91320133 11.68767452 70.78470612
endloop
endfacet
facet normal 1.04025471 -13.02770519 34.86274338
outer loop
vertex 4.91320133 11.68767452 70.78470612
vertex -12.20543194 8.97745037 70.28273010
vertex 5.24182224 9.70316410 70.03331757
endloop
endfacet
facet normal 26.84228706 9.80679321 -14.50797272
outer loop
vertex 4.64183426 13.39963150 71.43984222
vertex 4.91320133 11.68767452 70.78470612
vertex -4.23304939 15.92553425 56.72716141
endloop
endfacet
facet normal 4.12290430 1.50630462 -2.22838402
outer loop
vertex -4.23304939 15.92553425 56.72716141
vertex 4.91320133 11.68767452 70.78470612
vertex -4.19136810 15.66258240 56.62653351
endloop
endfacet
facet normal -4.27542734 0.24261630 -2.40491700
outer loop
vertex -4.23304939 15.92553425 56.72716141
vertex -4.19136810 15.66258240 56.62653351
vertex -12.86162663 12.66228294 71.73771667
endloop
endfacet
facet normal -57.68963242 3.27365303 -32.45027542
outer loop
vertex -12.86162663 12.66228294 71.73771667
vertex -4.19136810 15.66258240 56.62653351
vertex -12.29920959 9.11419296 70.37992096
endloop
endfacet
facet normal 2.05805397 -23.59859276 62.51854706
outer loop
vertex -12.86162663 12.66228294 71.73771667
vertex -12.29920959 9.11419296 70.37992096
vertex 4.64183426 13.39963150 71.43984222
endloop
endfacet
facet normal 0.99300587 -11.38631725 30.16526604
outer loop
vertex 4.64183426 13.39963150 71.43984222
vertex -12.29920959 9.11419296 70.37992096
vertex 4.91320133 11.68767452 70.78470612
endloop
endfacet
facet normal 38.18449783 -0.14127123 -22.99523163
outer loop
vertex 4.65603590 15.98642349 71.44753265
vertex 4.64183426 13.39963150 71.43984222
vertex -4.23344278 15.98642349 56.68619919
endloop
endfacet
facet normal 0.79237747 -0.35774708 -0.53939128
outer loop
vertex -4.23344278 15.98642349 56.68619919
vertex 4.64183426 13.39963150 71.43984222
vertex -4.23304939 15.92553425 56.72716141
endloop
endfacet
facet normal -0.91399300 -0.35645056 -0.52107650
outer loop
vertex -4.23344278 15.98642349 56.68619919
vertex -4.23304939 15.92553425 56.72716141
vertex -12.79121780 15.98642349 71.69694519
endloop
endfacet
facet normal -49.76414871 0.70507556 -28.45284271
outer loop
vertex -12.79121780 15.98642349 71.69694519
vertex -4.23304939 15.92553425 56.72716141
vertex -12.86162663 12.66228294 71.73771667
endloop
endfacet
facet normal 0.82908231 0.69378960 57.99712372
outer loop
vertex -12.79121780 15.98642349 71.69694519
vertex -12.86162663 12.66228294 71.73771667
vertex 4.65603590 15.98642349 71.44753265
endloop
endfacet
facet normal 0.77620977 -0.13883944 45.26734161
outer loop
vertex 4.65603590 15.98642349 71.44753265
vertex -12.86162663 12.66228294 71.73771667
vertex 4.64183426 13.39963150 71.43984222
endloop
endfacet
facet normal 20.84681320 0.00000000 -12.55423832
outer loop
vertex 4.65603590 17.39868164 71.44753265
vertex 4.65603590 15.98642349 71.44753265
vertex -4.23344278 19.93350983 56.68619919
endloop
endfacet
facet normal 58.26425934 0.00000000 -35.08753967
outer loop
vertex -4.23344278 19.93350983 56.68619919
vertex 4.65603590 15.98642349 71.44753265
vertex -4.23344278 15.98642349 56.68619919
endloop
endfacet
facet normal -59.24871063 -0.00000000 -33.77827835
outer loop
vertex -4.23344278 19.93350983 56.68619919
vertex -4.23344278 15.98642349 56.68619919
vertex -12.79121780 16.67296982 71.69694519
endloop
endfacet
facet normal -10.30557251 -0.00000000 -5.87530947
outer loop
vertex -12.79121780 16.67296982 71.69694519
vertex -4.23344278 15.98642349 56.68619919
vertex -12.79121780 15.98642349 71.69694519
endloop
endfacet
facet normal 0.17123327 0.00000000 11.97834778
outer loop
vertex -12.79121780 16.67296982 71.69694519
vertex -12.79121780 15.98642349 71.69694519
vertex 4.65603590 17.39868164 71.44753265
endloop
endfacet
facet normal 0.35223490 0.00000000 24.64002609
outer loop
vertex 4.65603590 17.39868164 71.44753265
vertex -12.79121780 15.98642349 71.69694519
vertex 4.65603590 15.98642349 71.44753265
endloop
endfacet
facet normal 31.08374023 11.49373436 -16.76187897
outer loop
vertex 4.32741547 19.38319206 72.19892120
vertex 4.65603590 17.39868164 71.44753265
vertex -4.77715492 23.35810089 58.04074860
endloop
endfacet
facet normal 53.98508072 20.06715393 -29.06461334
outer loop
vertex -4.77715492 23.35810089 58.04074860
vertex 4.65603590 17.39868164 71.44753265
vertex -4.23344278 19.93350983 56.68619919
endloop
endfacet
facet normal -55.96984482 3.50458670 -31.32647705
outer loop
vertex -4.77715492 23.35810089 58.04074860
vertex -4.23344278 19.93350983 56.68619919
vertex -12.88499546 16.80971146 71.79413605
endloop
endfacet
facet normal -2.36948872 -0.57593513 -1.47596991
outer loop
vertex -12.88499546 16.80971146 71.79413605
vertex -4.23344278 19.93350983 56.68619919
vertex -12.79121780 16.67296982 71.69694519
endloop
endfacet
facet normal 0.19476780 -1.71084869 2.59498811
outer loop
vertex -12.88499546 16.80971146 71.79413605
vertex -12.79121780 16.67296982 71.69694519
vertex 4.32741547 19.38319206 72.19892120
endloop
endfacet
facet normal 1.04025328 -13.02770519 34.86273956
outer loop
vertex 4.32741547 19.38319206 72.19892120
vertex -12.79121780 16.67296982 71.69694519
vertex 4.65603590 17.39868164 71.44753265
endloop
endfacet
facet normal 39.85760498 14.56193638 -21.54260254
outer loop
vertex 3.92446804 21.92524338 73.17172241
vertex 4.32741547 19.38319206 72.19892120
vertex -5.01810789 24.87818909 58.62245941
endloop
endfacet
facet normal 23.83391762 8.70768166 -12.88198471
outer loop
vertex -5.01810789 24.87818909 58.62245941
vertex 4.32741547 19.38319206 72.19892120
vertex -4.77715492 23.35810089 58.04074860
endloop
endfacet
facet normal -24.71562958 1.40249944 -13.90248775
outer loop
vertex -5.01810789 24.87818909 58.62245941
vertex -4.77715492 23.35810089 58.04074860
vertex -13.11859798 18.28342819 72.35810089
endloop
endfacet
facet normal -23.96165848 1.35971117 -13.47838020
outer loop
vertex -13.11859798 18.28342819 72.35810089
vertex -4.77715492 23.35810089 58.04074860
vertex -12.88499546 16.80971146 71.79413605
endloop
endfacet
facet normal 0.85480797 -9.80175495 25.96738815
outer loop
vertex -13.11859798 18.28342819 72.35810089
vertex -12.88499546 16.80971146 71.79413605
vertex 3.92446804 21.92524338 73.17172241
endloop
endfacet
facet normal 1.47450042 -16.90736198 44.79180908
outer loop
vertex 3.92446804 21.92524338 73.17172241
vertex -12.88499546 16.80971146 71.79413605
vertex 4.32741547 19.38319206 72.19892120
endloop
endfacet
facet normal 39.07051468 17.44380569 -20.46567535
outer loop
vertex 3.18171024 24.45925140 73.91358948
vertex 3.92446804 21.92524338 73.17172241
vertex -5.43270206 26.29472733 59.03248596
endloop
endfacet
facet normal 21.82037354 9.69873333 -11.44322681
outer loop
vertex -5.43270206 26.29472733 59.03248596
vertex 3.92446804 21.92524338 73.17172241
vertex -5.01810789 24.87818909 58.62245941
endloop
endfacet
facet normal -22.16571999 -2.37611961 -14.20374870
outer loop
vertex -5.43270206 26.29472733 59.03248596
vertex -5.01810789 24.87818909 58.62245941
vertex -13.57943153 19.87014198 72.82065582
endloop
endfacet
facet normal -24.84497070 -2.58292317 -15.89224625
outer loop
vertex -13.57943153 19.87014198 72.82065582
vertex -5.01810789 24.87818909 58.62245941
vertex -13.11859798 18.28342819 72.35810089
endloop
endfacet
facet normal 0.38854229 -8.25660992 28.70995140
outer loop
vertex -13.57943153 19.87014198 72.82065582
vertex -13.11859798 18.28342819 72.35810089
vertex 3.18171024 24.45925140 73.91358948
endloop
endfacet
facet normal 0.64001918 -13.24801350 45.89225006
outer loop
vertex 3.18171024 24.45925140 73.91358948
vertex -13.11859798 18.28342819 72.35810089
vertex 3.92446804 21.92524338 73.17172241
endloop
endfacet
facet normal 16.10471916 7.18785429 -8.43617344
outer loop
vertex 2.87578511 25.50374413 74.21951294
vertex 3.18171024 24.45925140 73.91358948
vertex -5.65020895 27.03734207 59.24999237
endloop
endfacet
facet normal 11.45015430 5.11043215 -5.99796057
outer loop
vertex -5.65020895 27.03734207 59.24999237
vertex 3.18171024 24.45925140 73.91358948
vertex -5.43270206 26.29472733 59.03248596
endloop
endfacet
facet normal -11.63669014 -1.22705710 -7.44727278
outer loop
vertex -5.65020895 27.03734207 59.24999237
vertex -5.43270206 26.29472733 59.03248596
vertex -14.67601013 23.61409378 73.91723633
endloop
endfacet
facet normal -58.66731644 -6.18626690 -37.54602432
outer loop
vertex -14.67601013 23.61409378 73.91723633
vertex -5.43270206 26.29472733 59.03248596
vertex -13.57943153 19.87014198 72.82065582
endloop
endfacet
facet normal 0.94044471 -19.57842827 67.78523254
outer loop
vertex -14.67601013 23.61409378 73.91723633
vertex -13.57943153 19.87014198 72.82065582
vertex 2.87578511 25.50374413 74.21951294
endloop
endfacet
facet normal 0.26235497 -5.46198273 18.91081619
outer loop
vertex 2.87578511 25.50374413 74.21951294
vertex -13.57943153 19.87014198 72.82065582
vertex 3.18171024 24.45925140 73.91358948
endloop
endfacet
facet normal 28.13837433 0.32228303 -15.91349792
outer loop
vertex 2.84384394 27.37746048 74.20098114
vertex 2.87578511 25.50374413 74.21951294
vertex -5.64916945 27.37746048 59.18356705
endloop
endfacet
facet normal 4.98953962 -0.58190280 -2.90144181
outer loop
vertex -5.64916945 27.37746048 59.18356705
vertex 2.87578511 25.50374413 74.21951294
vertex -5.65020895 27.03734207 59.24999237
endloop
endfacet
facet normal -5.00238228 -0.58109909 -3.05369234
outer loop
vertex -5.64916945 27.37746048 59.18356705
vertex -5.65020895 27.03734207 59.24999237
vertex -14.62749100 27.37746048 73.89133453
endloop
endfacet
facet normal -55.10954666 0.47785756 -33.80130386
outer loop
vertex -14.62749100 27.37746048 73.89133453
vertex -5.65020895 27.03734207 59.24999237
vertex -14.67601013 23.61409378 73.91723633
endloop
endfacet
facet normal -1.16531372 0.46756271 65.75103760
outer loop
vertex -14.62749100 27.37746048 73.89133453
vertex -14.67601013 23.61409378 73.91723633
vertex 2.84384394 27.37746048 74.20098114
endloop
endfacet
facet normal -0.60139924 0.31561124 32.94744110
outer loop
vertex 2.84384394 27.37746048 74.20098114
vertex -14.67601013 23.61409378 73.91723633
vertex 2.87578511 25.50374413 74.21951294
endloop
endfacet
facet normal 30.03482819 0.00000000 -16.98602676
outer loop
vertex 2.84384394 29.37746048 74.20098114
vertex 2.84384394 27.37746048 74.20098114
vertex -5.64916945 29.37746048 59.18356705
endloop
endfacet
facet normal 30.03482819 0.00000000 -16.98602676
outer loop
vertex -5.64916945 29.37746048 59.18356705
vertex 2.84384394 27.37746048 74.20098114
vertex -5.64916945 27.37746048 59.18356705
endloop
endfacet
facet normal -29.41553497 -0.00000000 -17.95664215
outer loop
vertex -5.64916945 29.37746048 59.18356705
vertex -5.64916945 27.37746048 59.18356705
vertex -14.62749100 29.37746048 73.89133453
endloop
endfacet
facet normal -29.41553497 -0.00000000 -17.95664215
outer loop
vertex -14.62749100 29.37746048 73.89133453
vertex -5.64916945 27.37746048 59.18356705
vertex -14.62749100 27.37746048 73.89133453
endloop
endfacet
facet normal -0.61929321 0.00000000 34.94266891
outer loop
vertex -14.62749100 29.37746048 73.89133453
vertex -14.62749100 27.37746048 73.89133453
vertex 2.84384394 29.37746048 74.20098114
endloop
endfacet
facet normal -0.61929321 0.00000000 34.94266891
outer loop
vertex 2.84384394 29.37746048 74.20098114
vertex -14.62749100 27.37746048 73.89133453
vertex 2.84384394 27.37746048 74.20098114
endloop
endfacet
facet normal 30.03482819 0.00001432 -16.98602486
outer loop
vertex 2.84384298 31.37746048 74.20098114
vertex 2.84384394 29.37746048 74.20098114
vertex -5.64916945 31.37746048 59.18356705
endloop
endfacet
facet normal 30.03482819 0.00000000 -16.98602676
outer loop
vertex -5.64916945 31.37746048 59.18356705
vertex 2.84384394 29.37746048 74.20098114
vertex -5.64916945 29.37746048 59.18356705
endloop
endfacet
facet normal -29.41553497 -0.00000000 -17.95664597
outer loop
vertex -5.64916945 31.37746048 59.18356705
vertex -5.64916945 29.37746048 59.18356705
vertex -14.62749290 31.37746048 73.89133453
endloop
endfacet
facet normal -29.41553497 -0.00002805 -17.95664215
outer loop
vertex -14.62749290 31.37746048 73.89133453
vertex -5.64916945 29.37746048 59.18356705
vertex -14.62749100 29.37746048 73.89133453
endloop
endfacet
facet normal -0.61929321 -0.00000059 34.94267273
outer loop
vertex -14.62749290 31.37746048 73.89133453
vertex -14.62749100 29.37746048 73.89133453
vertex 2.84384298 31.37746048 74.20098114
endloop
endfacet
facet normal -0.61929321 -0.00000030 34.94267273
outer loop
vertex 2.84384298 31.37746048 74.20098114
vertex -14.62749100 29.37746048 73.89133453
vertex 2.84384394 29.37746048 74.20098114
endloop
endfacet
facet normal 15.04342270 0.00000000 -8.50772095
outer loop
vertex 2.84384298 32.37919235 74.20098114
vertex 2.84384298 31.37746048 74.20098114
vertex -5.64916945 35.36634064 59.18356705
endloop
endfacet
facet normal 59.90266418 0.00000000 -33.87760925
outer loop
vertex -5.64916945 35.36634064 59.18356705
vertex 2.84384298 31.37746048 74.20098114
vertex -5.64916945 31.37746048 59.18356705
endloop
endfacet
facet normal -58.66752243 -0.00000000 -35.81345367
outer loop
vertex -5.64916945 35.36634064 59.18356705
vertex -5.64916945 31.37746048 59.18356705
vertex -14.62749290 32.44078445 73.89133453
endloop
endfacet
facet normal -15.63912201 -0.00000000 -9.54686642
outer loop
vertex -14.62749290 32.44078445 73.89133453
vertex -5.64916945 31.37746048 59.18356705
vertex -14.62749290 31.37746048 73.89133453
endloop
endfacet
facet normal -0.32925466 0.00000000 18.57769012
outer loop
vertex -14.62749290 32.44078445 73.89133453
vertex -14.62749290 31.37746048 73.89133453
vertex 2.84384298 32.37919235 74.20098114
endloop
endfacet
facet normal -0.31018287 0.00000000 17.50159454
outer loop
vertex 2.84384298 32.37919235 74.20098114
vertex -14.62749290 31.37746048 73.89133453
vertex 2.84384298 31.37746048 74.20098114
endloop
endfacet
facet normal 15.04337788 3.25579286 -7.86006689
outer loop
vertex 2.84384108 33.30466843 74.58432770
vertex 2.84384298 32.37919235 74.20098114
vertex -5.64916945 39.05158615 60.71004486
endloop
endfacet
facet normal 59.90267181 12.96439457 -31.29883575
outer loop
vertex -5.64916945 39.05158615 60.71004486
vertex 2.84384298 32.37919235 74.20098114
vertex -5.64916945 35.36634064 59.18356705
endloop
endfacet
facet normal -58.66752625 13.70521069 -33.08732605
outer loop
vertex -5.64916945 39.05158615 60.71004486
vertex -5.64916945 35.36634064 59.18356705
vertex -14.62749290 33.42316437 74.29824829
endloop
endfacet
facet normal -15.63906384 3.65340304 -8.82012463
outer loop
vertex -14.62749290 33.42316437 74.29824829
vertex -5.64916945 35.36634064 59.18356705
vertex -14.62749290 32.44078445 73.89133453
endloop
endfacet
facet normal -0.32925630 -7.10932636 17.16348839
outer loop
vertex -14.62749290 33.42316437 74.29824829
vertex -14.62749290 32.44078445 73.89133453
vertex 2.84384108 33.30466843 74.58432770
endloop
endfacet
facet normal -0.31018165 -6.69757748 16.16930389
outer loop
vertex 2.84384108 33.30466843 74.58432770
vertex -14.62749290 32.44078445 73.89133453
vertex 2.84384298 32.37919235 74.20098114
endloop
endfacet
facet normal 30.15615082 6.52650070 -15.75644207
outer loop
vertex 2.84384108 35.15989304 75.35278320
vertex 2.84384108 33.30466843 74.58432770
vertex -5.64916945 42.66727448 62.20771027
endloop
endfacet
facet normal 58.77204132 12.71968842 -30.70807838
outer loop
vertex -5.64916945 42.66727448 62.20771027
vertex 2.84384108 33.30466843 74.58432770
vertex -5.64916945 39.05158615 60.71004486
endloop
endfacet
facet normal -57.56019592 13.44652367 -32.46281815
outer loop
vertex -5.64916945 42.66727448 62.20771027
vertex -5.64916945 39.05158615 60.71004486
vertex -14.62749290 33.54140091 74.34722137
endloop
endfacet
facet normal -1.88226330 0.43969616 -1.06156588
outer loop
vertex -14.62749290 33.54140091 74.34722137
vertex -5.64916945 39.05158615 60.71004486
vertex -14.62749290 33.42316437 74.29824829
endloop
endfacet
facet normal -0.03963161 -0.85562509 2.06575012
outer loop
vertex -14.62749290 33.54140091 74.34722137
vertex -14.62749290 33.42316437 74.29824829
vertex 2.84384108 35.15989304 75.35278320
endloop
endfacet
facet normal -0.62180042 -13.42594337 32.41324997
outer loop
vertex 2.84384108 35.15989304 75.35278320
vertex -14.62749290 33.42316437 74.29824829
vertex 2.84384108 33.30466843 74.58432770
endloop
endfacet
facet normal 37.75740433 24.11857986 -10.75755978
outer loop
vertex 2.14207649 37.03920746 77.10314178
vertex 2.84384108 35.15989304 75.35278320
vertex -6.63357306 45.21096039 64.62310791
endloop
endfacet
facet normal 51.57024765 33.45405579 -14.21325779
outer loop
vertex -6.63357306 45.21096039 64.62310791
vertex 2.84384108 35.15989304 75.35278320
vertex -5.64916945 42.66727448 62.20771027
endloop
endfacet
facet normal -53.08068848 9.87861443 -32.03651047
outer loop
vertex -6.63357306 45.21096039 64.62310791
vertex -5.64916945 42.66727448 62.20771027
vertex -14.62341404 33.31252289 74.19238281
endloop
endfacet
facet normal 4.19150448 -1.34067523 2.09216428
outer loop
vertex -14.62341404 33.31252289 74.19238281
vertex -5.64916945 42.66727448 62.20771027
vertex -14.62749290 33.54140091 74.34722137
endloop
endfacet
facet normal 0.08917427 2.60781717 -3.85245323
outer loop
vertex -14.62341404 33.31252289 74.19238281
vertex -14.62749290 33.54140091 74.34722137
vertex 2.14207649 37.03920746 77.10314178
endloop
endfacet
facet normal 0.94317436 -31.28676796 33.96992874
outer loop
vertex 2.14207649 37.03920746 77.10314178
vertex -14.62749290 33.54140091 74.34722137
vertex 2.84384108 35.15989304 75.35278320
endloop
endfacet
facet normal 18.92619896 12.17372322 -5.33724785
outer loop
vertex 1.78047705 37.98411179 77.97612000
vertex 2.14207649 37.03920746 77.10314178
vertex -6.73230982 45.46897125 64.86148071
endloop
endfacet
facet normal 5.16790771 3.32411432 -1.45736027
outer loop
vertex -6.73230982 45.46897125 64.86148071
vertex 2.14207649 37.03920746 77.10314178
vertex -6.63357306 45.21096039 64.62310791
endloop
endfacet
facet normal -5.30523491 0.95972276 -3.23627806
outer loop
vertex -6.73230982 45.46897125 64.86148071
vertex -6.63357306 45.21096039 64.62310791
vertex -15.78230000 36.34083939 76.99018097
endloop
endfacet
facet normal -62.26821899 11.26426506 -37.98470306
outer loop
vertex -15.78230000 36.34083939 76.99018097
vertex -6.63357306 45.21096039 64.62310791
vertex -14.62341404 33.31252289 74.19238281
endloop
endfacet
facet normal 1.61180925 -50.27969360 55.09001160
outer loop
vertex -15.78230000 36.34083939 76.99018097
vertex -14.62341404 33.31252289 74.19238281
vertex 1.78047705 37.98411179 77.97612000
endloop
endfacet
facet normal 0.50292540 -15.68843651 17.18935013
outer loop
vertex 1.78047705 37.98411179 77.97612000
vertex -14.62341404 33.31252289 74.19238281
vertex 2.14207649 37.03920746 77.10314178
endloop
endfacet
facet normal 29.91325569 6.65132093 -15.55605125
outer loop
vertex 1.76144886 39.82861710 78.72818756
vertex 1.78047705 37.98411179 77.97612000
vertex -6.73156214 45.57553101 64.85390472
endloop
endfacet
facet normal 1.34078753 -0.07429834 -0.91271675
outer loop
vertex -6.73156214 45.57553101 64.85390472
vertex 1.78047705 37.98411179 77.97612000
vertex -6.73230982 45.46897125 64.86148071
endloop
endfacet
facet normal -1.40531480 -0.05786004 -0.95251960
outer loop
vertex -6.73156214 45.57553101 64.85390472
vertex -6.73230982 45.46897125 64.86148071
vertex -15.70988560 39.94711304 78.44210815
endloop
endfacet
facet normal -56.99279785 14.01821804 -31.97573280
outer loop
vertex -15.70988560 39.94711304 78.44210815
vertex -6.73230982 45.46897125 64.86148071
vertex -15.78230000 36.34083939 76.99018097
endloop
endfacet
facet normal -1.20372808 -25.34638977 63.01499176
outer loop
vertex -15.70988560 39.94711304 78.44210815
vertex -15.78230000 36.34083939 76.99018097
vertex 1.76144886 39.82861710 78.72818756
endloop
endfacet
facet normal -0.58271790 -13.22715569 32.42590332
outer loop
vertex 1.76144886 39.82861710 78.72818756
vertex -15.78230000 36.34083939 76.99018097
vertex 1.78047705 37.98411179 77.97612000
endloop
endfacet
facet normal 40.26670074 8.71468067 -21.03914261
outer loop
vertex 1.76144886 42.30584717 79.75428772
vertex 1.76144886 39.82861710 78.72818756
vertex -6.73156214 45.54482651 64.84118652
endloop
endfacet
facet normal -0.49909329 -0.10801583 0.26077366
outer loop
vertex -6.73156214 45.54482651 64.84118652
vertex 1.76144886 39.82861710 78.72818756
vertex -6.73156214 45.57553101 64.85390472
endloop
endfacet
facet normal 0.48880246 -0.11418811 0.27567491
outer loop
vertex -6.73156214 45.54482651 64.84118652
vertex -6.73156214 45.57553101 64.85390472
vertex -15.70988560 42.99364471 79.70402527
endloop
endfacet
facet normal -48.49948883 11.32989979 -27.35274506
outer loop
vertex -15.70988560 42.99364471 79.70402527
vertex -6.73156214 45.57553101 64.85390472
vertex -15.70988560 39.94711304 78.44210815
endloop
endfacet
facet normal -1.02106965 -22.04737663 53.22697449
outer loop
vertex -15.70988560 42.99364471 79.70402527
vertex -15.70988560 39.94711304 78.44210815
vertex 1.76144886 42.30584717 79.75428772
endloop
endfacet
facet normal -0.83027339 -17.92733955 43.28051376
outer loop
vertex 1.76144886 42.30584717 79.75428772
vertex -15.70988560 39.94711304 78.44210815
vertex 1.76144886 39.82861710 78.72818756
endloop
endfacet
facet normal 49.12211609 -0.52946854 -28.12476158
outer loop
vertex 1.81393623 45.59692383 79.78400421
vertex 1.76144886 42.30584717 79.75428772
vertex -6.73182726 45.59692383 64.85815430
endloop
endfacet
facet normal 0.83189088 0.14806128 -0.44160444
outer loop
vertex -6.73182726 45.59692383 64.85815430
vertex 1.76144886 42.30584717 79.75428772
vertex -6.73156214 45.54482651 64.84118652
endloop
endfacet
facet normal -0.77178019 0.14743207 -0.46472988
outer loop
vertex -6.73182726 45.59692383 64.85815430
vertex -6.73156214 45.54482651 64.84118652
vertex -15.65224457 45.59692383 79.67235565
endloop
endfacet
facet normal -38.61132431 0.57236922 -23.22603035
outer loop
vertex -15.65224457 45.59692383 79.67235565
vertex -6.73156214 45.54482651 64.84118652
vertex -15.70988560 42.99364471 79.70402527
endloop
endfacet
facet normal -0.29065236 0.55958277 45.46934509
outer loop
vertex -15.65224457 45.59692383 79.67235565
vertex -15.70988560 42.99364471 79.70402527
vertex 1.81393623 45.59692383 79.78400421
endloop
endfacet
facet normal -0.18585649 -0.51654863 57.53560638
outer loop
vertex 1.81393623 45.59692383 79.78400421
vertex -15.70988560 42.99364471 79.70402527
vertex 1.76144886 42.30584717 79.75428772
endloop
endfacet
facet normal 6.45023298 0.00000000 -3.69306684
outer loop
vertex 1.81393623 46.02907562 79.78400421
vertex 1.81393623 45.59692383 79.78400421
vertex -6.73182726 49.42251968 64.85815430
endloop
endfacet
facet normal 57.10026932 0.00000000 -32.69263458
outer loop
vertex -6.73182726 49.42251968 64.85815430
vertex 1.81393623 45.59692383 79.78400421
vertex -6.73182726 45.59692383 64.85815430
endloop
endfacet
facet normal -56.67314911 -0.00000000 -34.12591171
outer loop
vertex -6.73182726 49.42251968 64.85815430
vertex -6.73182726 45.59692383 64.85815430
vertex -15.65224457 47.37912750 79.67235565
endloop
endfacet
facet normal -26.40192413 -0.00000000 -15.89800167
outer loop
vertex -15.65224457 47.37912750 79.67235565
vertex -6.73182726 45.59692383 64.85815430
vertex -15.65224457 45.59692383 79.67235565
endloop
endfacet
facet normal -0.19898048 0.00000000 31.12829208
outer loop
vertex -15.65224457 47.37912750 79.67235565
vertex -15.65224457 45.59692383 79.67235565
vertex 1.81393623 46.02907562 79.78400421
endloop
endfacet
facet normal -0.04824913 0.00000000 7.54804134
outer loop
vertex 1.81393623 46.02907562 79.78400421
vertex -15.65224457 45.59692383 79.67235565
vertex 1.81393623 45.59692383 79.78400421
endloop
endfacet
facet normal 6.47766876 0.36104119 -3.62670231
outer loop
vertex 1.87722492 46.42832947 79.93679047
vertex 1.81393623 46.02907562 79.78400421
vertex -6.17158127 52.95691299 66.21070862
endloop
endfacet
facet normal 57.34364319 3.19646168 -32.10525131
outer loop
vertex -6.17158127 52.95691299 66.21070862
vertex 1.81393623 46.02907562 79.78400421
vertex -6.73182726 49.42251968 64.85815430
endloop
endfacet
facet normal -55.12301636 20.36494637 -30.38346100
outer loop
vertex -6.17158127 52.95691299 66.21070862
vertex -6.73182726 49.42251968 64.85815430
vertex -15.39124775 49.02566528 80.30245972
endloop
endfacet
facet normal -25.67969131 9.48725033 -14.15448475
outer loop
vertex -15.39124775 49.02566528 80.30245972
vertex -6.73182726 49.42251968 64.85815430
vertex -15.65224457 47.37912750 79.67235565
endloop
endfacet
facet normal -1.03450370 -10.97637367 29.11108971
outer loop
vertex -15.39124775 49.02566528 80.30245972
vertex -15.65224457 47.37912750 79.67235565
vertex 1.87722492 46.42832947 79.93679047
endloop
endfacet
facet normal -0.25084549 -2.66152596 7.05888271
outer loop
vertex 1.87722492 46.42832947 79.93679047
vertex -15.65224457 47.37912750 79.67235565
vertex 1.81393623 46.02907562 79.78400421
endloop
endfacet
facet normal 50.34744644 2.80649710 -28.18826103
outer loop
vertex 2.36911821 49.53150940 81.12432861
vertex 1.87722492 46.42832947 79.93679047
vertex -6.17378378 52.94301987 66.20539093
endloop
endfacet
facet normal -0.22541517 -0.01256919 0.12620236
outer loop
vertex -6.17378378 52.94301987 66.20539093
vertex 1.87722492 46.42832947 79.93679047
vertex -6.17158127 52.95691299 66.21070862
endloop
endfacet
facet normal 0.21668118 -0.08006440 0.11943203
outer loop
vertex -6.17378378 52.94301987 66.20539093
vertex -6.17158127 52.95691299 66.21070862
vertex -15.00927353 51.43540192 81.22462463
endloop
endfacet
facet normal -37.58266830 13.88473892 -20.71533203
outer loop
vertex -15.00927353 51.43540192 81.22462463
vertex -6.17158127 52.95691299 66.21070862
vertex -15.39124775 49.02566528 80.30245972
endloop
endfacet
facet normal -1.51401591 -16.06405449 42.60458374
outer loop
vertex -15.00927353 51.43540192 81.22462463
vertex -15.39124775 49.02566528 80.30245972
vertex 2.36911821 49.53150940 81.12432861
endloop
endfacet
facet normal -1.94969797 -20.68684006 54.86479187
outer loop
vertex 2.36911821 49.53150940 81.12432861
vertex -15.39124775 49.02566528 80.30245972
vertex 1.87722492 46.42832947 79.93679047
endloop
endfacet
facet normal 55.97431946 -0.55287999 -32.33896255
outer loop
vertex 2.42402124 53.29244232 81.15505981
vertex 2.36911821 49.53150940 81.12432861
vertex -6.17463350 53.29244232 66.27196503
endloop
endfacet
facet normal 5.44012976 0.58141297 -2.98218298
outer loop
vertex -6.17463350 53.29244232 66.27196503
vertex 2.36911821 49.53150940 81.12432861
vertex -6.17378378 52.94301987 66.20539093
endloop
endfacet
facet normal -5.22177744 0.57444954 -3.08171868
outer loop
vertex -6.17463350 53.29244232 66.27196503
vertex -6.17378378 52.94301987 66.20539093
vertex -14.99409676 53.29244232 81.21598816
endloop
endfacet
facet normal -27.87830353 0.15163602 -16.38497925
outer loop
vertex -14.99409676 53.29244232 81.21598816
vertex -6.17378378 52.94301987 66.20539093
vertex -15.00927353 51.43540192 81.22462463
endloop
endfacet
facet normal 0.11314639 0.14950643 32.34614944
outer loop
vertex -14.99409676 53.29244232 81.21598816
vertex -15.00927353 51.43540192 81.22462463
vertex 2.42402124 53.29244232 81.15505981
endloop
endfacet
facet normal 0.31869772 -0.53956544 65.46349335
outer loop
vertex 2.42402124 53.29244232 81.15505981
vertex -15.00927353 51.43540192 81.22462463
vertex 2.36911821 49.53150940 81.12432861
endloop
endfacet
facet normal 3.39210606 0.00000000 -1.95977712
outer loop
vertex 2.42402124 53.52035904 81.15505981
vertex 2.42402124 53.29244232 81.15505981
vertex -6.17463350 56.93210220 66.27196503
endloop
endfacet
facet normal 54.16940308 0.00000000 -31.29617882
outer loop
vertex -6.17463350 56.93210220 66.27196503
vertex 2.42402124 53.29244232 81.15505981
vertex -6.17463350 53.29244232 66.27196503
endloop
endfacet
facet normal -54.39116287 -0.00000000 -32.09984970
outer loop
vertex -6.17463350 56.93210220 66.27196503
vertex -6.17463350 53.29244232 66.27196503
vertex -14.99409676 55.43515396 81.21598816
endloop
endfacet
facet normal -32.02073288 -0.00000000 -18.89756775
outer loop
vertex -14.99409676 55.43515396 81.21598816
vertex -6.17463350 53.29244232 66.27196503
vertex -14.99409676 53.29244232 81.21598816
endloop
endfacet
facet normal 0.13055187 0.00000000 37.32200241
outer loop
vertex -14.99409676 55.43515396 81.21598816
vertex -14.99409676 53.29244232 81.21598816
vertex 2.42402124 53.52035904 81.15505981
endloop
endfacet
facet normal 0.01388659 0.00000000 3.96988010
outer loop
vertex 2.42402124 53.52035904 81.15505981
vertex -14.99409676 53.29244232 81.21598816
vertex 2.42402124 53.29244232 81.15505981
endloop
endfacet
facet normal 9.56278515 1.04195547 -5.11191082
outer loop
vertex 2.46301079 54.12384796 81.35100555
vertex 2.42402124 53.52035904 81.15505981
vertex -5.58579493 60.65242767 67.62492371
endloop
endfacet
facet normal 59.98590469 2.86988401 -33.99876022
outer loop
vertex -5.58579493 60.65242767 67.62492371
vertex 2.42402124 53.52035904 81.15505981
vertex -6.17463350 56.93210220 66.27196503
endloop
endfacet
facet normal -57.74470901 20.77159882 -31.98530197
outer loop
vertex -5.58579493 60.65242767 67.62492371
vertex -6.17463350 56.93210220 66.27196503
vertex -14.80546379 56.72118378 81.71667480
endloop
endfacet
facet normal -19.96796227 7.23472309 -11.05971909
outer loop
vertex -14.80546379 56.72118378 81.71667480
vertex -6.17463350 56.93210220 66.27196503
vertex -14.99409676 55.43515396 81.21598816
endloop
endfacet
facet normal -0.83018982 -8.71507168 22.69771576
outer loop
vertex -14.80546379 56.72118378 81.71667480
vertex -14.99409676 55.43515396 81.21598816
vertex 2.46301079 54.12384796 81.35100555
endloop
endfacet
facet normal -0.33842635 -3.41538167 10.58629799
outer loop
vertex 2.46301079 54.12384796 81.35100555
vertex -14.99409676 55.43515396 81.21598816
vertex 2.42402124 53.52035904 81.15505981
endloop
endfacet
facet normal 50.34744644 2.80649519 -28.18825722
outer loop
vertex 2.95490408 57.22702789 82.53854370
vertex 2.46301079 54.12384796 81.35100555
vertex -5.58799696 60.63853836 67.61960602
endloop
endfacet
facet normal -0.22536281 -0.01257574 0.12616853
outer loop
vertex -5.58799696 60.63853836 67.61960602
vertex 2.46301079 54.12384796 81.35100555
vertex -5.58579493 60.65242767 67.62492371
endloop
endfacet
facet normal 0.21662389 -0.08005726 0.11939910
outer loop
vertex -5.58799696 60.63853836 67.61960602
vertex -5.58579493 60.65242767 67.62492371
vertex -14.42348957 59.13092041 82.63883972
endloop
endfacet
facet normal -37.58266449 13.88474083 -20.71533775
outer loop
vertex -14.42348957 59.13092041 82.63883972
vertex -5.58579493 60.65242767 67.62492371
vertex -14.80546379 56.72118378 81.71667480
endloop
endfacet
facet normal -1.51401591 -16.06405640 42.60458755
outer loop
vertex -14.42348957 59.13092041 82.63883972
vertex -14.80546379 56.72118378 81.71667480
vertex 2.95490408 57.22702789 82.53854370
endloop
endfacet
facet normal -1.94969797 -20.68684196 54.86479568
outer loop
vertex 2.95490408 57.22702789 82.53854370
vertex -14.80546379 56.72118378 81.71667480
vertex 2.46301079 54.12384796 81.35100555
endloop
endfacet
facet normal 55.97431946 -0.55287290 -32.33895874
outer loop
vertex 3.00980663 60.98796082 82.56927490
vertex 2.95490408 57.22702789 82.53854370
vertex -5.58884668 60.98796082 67.68618011
endloop
endfacet
facet normal 5.44012976 0.58141285 -2.98218250
outer loop
vertex -5.58884668 60.98796082 67.68618011
vertex 2.95490408 57.22702789 82.53854370
vertex -5.58799696 60.63853836 67.61960602
endloop
endfacet
facet normal -5.22177744 0.57444954 -3.08171868
outer loop
vertex -5.58884668 60.98796082 67.68618011
vertex -5.58799696 60.63853836 67.61960602
vertex -14.40831089 60.98796082 82.63020325
endloop
endfacet
facet normal -27.87830353 0.15166464 -16.38498497
outer loop
vertex -14.40831089 60.98796082 82.63020325
vertex -5.58799696 60.63853836 67.61960602
vertex -14.42348957 59.13092041 82.63883972
endloop
endfacet
facet normal 0.11314639 0.14950632 32.34614944
outer loop
vertex -14.40831089 60.98796082 82.63020325
vertex -14.42348957 59.13092041 82.63883972
vertex 3.00980663 60.98796082 82.56927490
endloop
endfacet
facet normal 0.31869772 -0.53956544 65.46350098
outer loop
vertex 3.00980663 60.98796082 82.56927490
vertex -14.42348957 59.13092041 82.63883972
vertex 2.95490408 57.22702789 82.53854370
endloop
endfacet
facet normal 0.00000000 -87.87854004 0.00000000
outer loop
vertex -5.71644306 60.98796082 77.68536377
vertex -5.58884668 60.98796082 67.68618011
vertex 3.00980663 60.98796082 82.56927490
endloop
endfacet
facet normal -0.00000000 -86.28063965 -0.00000000
outer loop
vertex -5.71644306 60.98796082 77.68536377
vertex -14.40831089 60.98796082 82.63020325
vertex -5.58884668 60.98796082 67.68618011
endloop
endfacet
facet normal 0.00000000 -85.60021210 0.00000000
outer loop
vertex -5.71644306 60.98796082 77.68536377
vertex 3.00980663 60.98796082 82.56927490
vertex -14.40831089 60.98796082 82.63020325
endloop
endfacet
endsolid