solid (null).stl
facet normal 0.00000000 -0.00000000 86.60253906
outer loop
vertex 0.00000000 0.00000000 0.00000000
vertex 10.00000000 0.00000000 0.00000000
vertex -5.00000048 8.66025352 0.00000000
endloop
endfacet
facet normal 0.00000000 0.00000000 86.60253906
outer loop
vertex 0.00000000 0.00000000 0.00000000
vertex -5.00000048 8.66025352 0.00000000
vertex -4.99999905 -8.66025448 0.00000000
endloop
endfacet
facet normal -0.00000000 0.00000000 86.60254669
outer loop
vertex 0.00000000 0.00000000 0.00000000
vertex -4.99999905 -8.66025448 0.00000000
vertex 10.00000000 0.00000000 0.00000000
endloop
endfacet
facet normal 17.32050705 30.00000000 0.00000000
outer loop
vertex 10.00000000 0.00000000 2.00000000
vertex 10.00000000 0.00000000 0.00000000
vertex -5.00000048 8.66025352 2.00000000
endloop
endfacet
facet normal 17.32050705 30.00000000 0.00000000
outer loop
vertex -5.00000048 8.66025352 2.00000000
vertex 10.00000000 0.00000000 0.00000000
vertex -5.00000048 8.66025352 0.00000000
endloop
endfacet
facet normal -34.64101410 -0.00000286 -0.00000000
outer loop
vertex -5.00000048 8.66025352 2.00000000
vertex -5.00000048 8.66025352 0.00000000
vertex -4.99999905 -8.66025448 2.00000000
endloop
endfacet
facet normal -34.64101410 -0.00000286 -0.00000000
outer loop
vertex -4.99999905 -8.66025448 2.00000000
vertex -5.00000048 8.66025352 0.00000000
vertex -4.99999905 -8.66025448 0.00000000
endloop
endfacet
facet normal 17.32050896 -29.99999809 0.00000000
outer loop
vertex -4.99999905 -8.66025448 2.00000000
vertex -4.99999905 -8.66025448 0.00000000
vertex 10.00000000 0.00000000 2.00000000
endloop
endfacet
facet normal 17.32050896 -29.99999809 0.00000000
outer loop
vertex 10.00000000 0.00000000 2.00000000
vertex -4.99999905 -8.66025448 0.00000000
vertex 10.00000000 0.00000000 0.00000000
endloop
endfacet
facet normal 34.54681778 59.83684921 0.00000000
outer loop
vertex 10.00000000 0.00000000 5.98912334
vertex 10.00000000 0.00000000 2.00000000
vertex -5.00000048 8.66025352 4.76181793
endloop
endfacet
facet normal 23.91804314 41.42726898 0.00000000
outer loop
vertex -5.00000048 8.66025352 4.76181793
vertex 10.00000000 0.00000000 2.00000000
vertex -5.00000048 8.66025352 2.00000000
endloop
endfacet
facet normal -47.83608627 -0.00000395 -0.00000000
outer loop
vertex -5.00000048 8.66025352 4.76181793
vertex -5.00000048 8.66025352 2.00000000
vertex -4.99999905 -8.66025448 1.24905825
endloop
endfacet
facet normal 13.00669193 0.00000107 -0.00000000
outer loop
vertex -4.99999905 -8.66025448 1.24905825
vertex -5.00000048 8.66025352 2.00000000
vertex -4.99999905 -8.66025448 2.00000000
endloop
endfacet
facet normal -6.50334692 11.26412582 0.00000000
outer loop
vertex -4.99999905 -8.66025448 1.24905825
vertex -4.99999905 -8.66025448 2.00000000
vertex 10.00000000 0.00000000 5.98912334
endloop
endfacet
facet normal 34.54682159 -59.83684540 0.00000000
outer loop
vertex 10.00000000 0.00000000 5.98912334
vertex -4.99999905 -8.66025448 2.00000000
vertex 10.00000000 0.00000000 2.00000000
endloop
endfacet
facet normal 26.51861763 50.61960983 33.97267914
outer loop
vertex 8.61619282 -1.46659970 9.25455189
vertex 10.00000000 0.00000000 5.98912334
vertex -6.02986145 7.56123304 7.23550987
endloop
endfacet
facet normal 20.07396507 38.36933517 25.40416336
outer loop
vertex -6.02986145 7.56123304 7.23550987
vertex 10.00000000 0.00000000 5.98912334
vertex -5.00000048 8.66025352 4.76181793
endloop
endfacet
facet normal -46.68845749 3.61378741 -17.83204651
outer loop
vertex -6.02986145 7.56123304 7.23550987
vertex -5.00000048 8.66025352 4.76181793
vertex -4.73866034 -8.37586021 0.62508249
endloop
endfacet
facet normal 11.80658627 -0.91801924 4.52651978
outer loop
vertex -4.73866034 -8.37586021 0.62508249
vertex -5.00000048 8.66025352 4.76181793
vertex -4.99999905 -8.66025448 1.24905825
endloop
endfacet
facet normal -6.76538277 10.58831787 1.99238622
outer loop
vertex -4.73866034 -8.37586021 0.62508249
vertex -4.99999905 -8.66025448 1.24905825
vertex 8.61619282 -1.46659970 9.25455189
endloop
endfacet
facet normal 35.23122025 -55.54076004 -10.01487160
outer loop
vertex 8.61619282 -1.46659970 9.25455189
vertex -4.99999905 -8.66025448 1.24905825
vertex 10.00000000 0.00000000 5.98912334
endloop
endfacet
facet normal 1.16191816 2.21471119 1.47422540
outer loop
vertex 8.55694103 -1.53073370 9.39759922
vertex 8.61619282 -1.46659970 9.25455189
vertex -6.41978979 7.13917732 8.17688084
endloop
endfacet
facet normal 7.64639139 14.57465172 9.70165825
outer loop
vertex -6.41978979 7.13917732 8.17688084
vertex 8.61619282 -1.46659970 9.25455189
vertex -6.02986145 7.56123304 7.23550987
endloop
endfacet
facet normal -17.79268646 1.36209452 -6.75928211
outer loop
vertex -6.41978979 7.13917732 8.17688084
vertex -6.02986145 7.56123304 7.23550987
vertex -6.41186714 -10.18692684 4.66456175
endloop
endfacet
facet normal -76.34947968 5.84483194 -29.00450325
outer loop
vertex -6.41186714 -10.18692684 4.66456175
vertex -6.02986145 7.56123304 7.23550987
vertex -4.73866034 -8.37586021 0.62508249
endloop
endfacet
facet normal 43.53835678 -68.38554382 -12.62590790
outer loop
vertex -6.41186714 -10.18692684 4.66456175
vertex -4.73866034 -8.37586021 0.62508249
vertex 8.55694103 -1.53073370 9.39759922
endloop
endfacet
facet normal 1.54179370 -2.42168760 -0.44711414
outer loop
vertex 8.55694103 -1.53073370 9.39759922
vertex -4.73866034 -8.37586021 0.62508249
vertex 8.61619282 -1.46659970 9.25455189
endloop
endfacet
facet normal 0.14388113 0.24920942 -0.24981186
outer loop
vertex 8.58578682 -1.53073370 9.41421318
vertex 8.55694103 -1.53073370 9.39759922
vertex -6.41421413 7.12952042 9.41421318
endloop
endfacet
facet normal 10.71577358 18.52438736 0.09628844
outer loop
vertex -6.41421413 7.12952042 9.41421318
vertex 8.55694103 -1.53073370 9.39759922
vertex -6.41978979 7.13917732 8.17688084
endloop
endfacet
facet normal -21.43122673 -0.00000236 0.09657320
outer loop
vertex -6.41421413 7.12952042 9.41421318
vertex -6.41978979 7.13917732 8.17688084
vertex -6.41421223 -10.19098854 9.41421318
endloop
endfacet
facet normal -82.30722046 -0.02939313 -0.04066337
outer loop
vertex -6.41421223 -10.19098854 9.41421318
vertex -6.41978979 7.13917732 8.17688084
vertex -6.41186714 -10.18692684 4.66456175
endloop
endfacet
facet normal 41.13319016 -71.24476624 -0.04061645
outer loop
vertex -6.41421223 -10.19098854 9.41421318
vertex -6.41186714 -10.18692684 4.66456175
vertex 8.58578682 -1.53073370 9.41421318
endloop
endfacet
facet normal 0.14381364 -0.11216299 -0.24969469
outer loop
vertex 8.58578682 -1.53073370 9.41421318
vertex -6.41186714 -10.18692684 4.66456175
vertex 8.55694103 -1.53073370 9.39759922
endloop
endfacet
facet normal 34.54682159 59.83685303 0.00000000
outer loop
vertex 8.58578682 -1.53073370 13.40333652
vertex 8.58578682 -1.53073370 9.41421318
vertex -6.41421413 7.12952042 12.17603111
endloop
endfacet
facet normal 23.91804695 41.42727280 0.00000000
outer loop
vertex -6.41421413 7.12952042 12.17603111
vertex 8.58578682 -1.53073370 9.41421318
vertex -6.41421413 7.12952042 9.41421318
endloop
endfacet
facet normal -47.83609390 -0.00000527 -0.00000000
outer loop
vertex -6.41421413 7.12952042 12.17603111
vertex -6.41421413 7.12952042 9.41421318
vertex -6.41421223 -10.19098854 8.66327095
endloop
endfacet
facet normal 13.00670147 0.00000143 -0.00000000
outer loop
vertex -6.41421223 -10.19098854 8.66327095
vertex -6.41421413 7.12952042 9.41421318
vertex -6.41421223 -10.19098854 9.41421318
endloop
endfacet
facet normal -6.50335073 11.26413250 0.00000000
outer loop
vertex -6.41421223 -10.19098854 8.66327095
vertex -6.41421223 -10.19098854 9.41421318
vertex 8.58578682 -1.53073370 13.40333652
endloop
endfacet
facet normal 34.54682159 -59.83684540 0.00000000
outer loop
vertex 8.58578682 -1.53073370 13.40333652
vertex -6.41421223 -10.19098854 9.41421318
vertex 8.58578682 -1.53073370 9.41421318
endloop
endfacet
facet normal 26.51861000 50.61959076 33.97267914
outer loop
vertex 7.20197916 -2.99733329 16.66876411
vertex 8.58578682 -1.53073370 13.40333652
vertex -7.44407415 6.03049946 14.64972305
endloop
endfacet
facet normal 20.07396507 38.36933517 25.40416527
outer loop
vertex -7.44407415 6.03049946 14.64972305
vertex 8.58578682 -1.53073370 13.40333652
vertex -6.41421413 7.12952042 12.17603111
endloop
endfacet
facet normal -46.68846130 3.61378288 -17.83203125
outer loop
vertex -7.44407415 6.03049946 14.64972305
vertex -6.41421413 7.12952042 12.17603111
vertex -6.15287352 -9.90659428 8.03929520
endloop
endfacet
facet normal 11.80658627 -0.91801906 4.52651978
outer loop
vertex -6.15287352 -9.90659428 8.03929520
vertex -6.41421413 7.12952042 12.17603111
vertex -6.41421223 -10.19098854 8.66327095
endloop
endfacet
facet normal -6.76538277 10.58831787 1.99238622
outer loop
vertex -6.15287352 -9.90659428 8.03929520
vertex -6.41421223 -10.19098854 8.66327095
vertex 7.20197916 -2.99733329 16.66876411
endloop
endfacet
facet normal 35.23121262 -55.54075241 -10.01486683
outer loop
vertex 7.20197916 -2.99733329 16.66876411
vertex -6.41421223 -10.19098854 8.66327095
vertex 8.58578682 -1.53073370 13.40333652
endloop
endfacet
facet normal 14.91290474 28.42522049 18.92133331
outer loop
vertex 6.44149399 -3.82047653 18.50473785
vertex 7.20197916 -2.99733329 16.66876411
vertex -7.51735640 5.95117950 14.82664204
endloop
endfacet
facet normal 1.43704486 2.73912454 1.82330406
outer loop
vertex -7.51735640 5.95117950 14.82664204
vertex 7.20197916 -2.99733329 16.66876411
vertex -7.44407415 6.03049946 14.64972305
endloop
endfacet
facet normal -3.34391403 0.25598907 -1.27032423
outer loop
vertex -7.51735640 5.95117950 14.82664204
vertex -7.44407415 6.03049946 14.64972305
vertex -7.43929482 -11.29900646 11.14499092
endloop
endfacet
facet normal -58.70020294 4.49371910 -22.29969978
outer loop
vertex -7.43929482 -11.29900646 11.14499092
vertex -7.44407415 6.03049946 14.64972305
vertex -6.15287352 -9.90659428 8.03929520
endloop
endfacet
facet normal 33.47383881 -52.57723999 -9.70723915
outer loop
vertex -7.43929482 -11.29900646 11.14499092
vertex -6.15287352 -9.90659428 8.03929520
vertex 6.44149399 -3.82047653 18.50473785
endloop
endfacet
facet normal 19.78850937 -31.08174324 -5.73856688
outer loop
vertex 6.44149399 -3.82047653 18.50473785
vertex -6.15287352 -9.90659428 8.03929520
vertex 7.20197916 -2.99733329 16.66876411
endloop
endfacet
facet normal 19.41866112 30.76723480 8.04347038
outer loop
vertex 5.61835098 -3.82047653 20.49198151
vertex 6.44149399 -3.82047653 18.50473785
vertex -7.59667587 5.95117903 15.01813698
endloop
endfacet
facet normal 1.87122107 2.96479392 0.77508932
outer loop
vertex -7.59667587 5.95117903 15.01813698
vertex 6.44149399 -3.82047653 18.50473785
vertex -7.51735640 5.95117950 14.82664204
endloop
endfacet
facet normal -3.30332351 0.27707919 -1.36827505
outer loop
vertex -7.59667587 5.95117903 15.01813698
vertex -7.51735640 5.95117950 14.82664204
vertex -8.83170605 -11.29900551 14.50657082
endloop
endfacet
facet normal -57.98787689 4.86396217 -24.01935387
outer loop
vertex -8.83170605 -11.29900551 14.50657082
vertex -7.51735640 5.95117950 14.82664204
vertex -7.43929482 -11.29900646 11.14499092
endloop
endfacet
facet normal 25.13966751 -56.90917206 10.41320133
outer loop
vertex -8.83170605 -11.29900551 14.50657082
vertex -7.43929482 -11.29900646 11.14499092
vertex 5.61835098 -3.82047653 20.49198151
endloop
endfacet
facet normal 14.86166096 -33.64263153 6.15589952
outer loop
vertex 5.61835098 -3.82047653 20.49198151
vertex -7.43929482 -11.29900646 11.14499092
vertex 6.44149399 -3.82047653 18.50473785
endloop
endfacet
facet normal 0.14997962 0.23763050 0.06212496
outer loop
vertex 5.61199331 -3.82047653 20.50732994
vertex 5.61835098 -3.82047653 20.49198151
vertex -8.69184875 5.95117903 17.66211891
endloop
endfacet
facet normal 25.83608246 40.93510056 10.70165253
outer loop
vertex -8.69184875 5.95117903 17.66211891
vertex 5.61835098 -3.82047653 20.49198151
vertex -7.59667587 5.95117903 15.01813698
endloop
endfacet
facet normal -45.60917664 3.82565141 -18.89193535
outer loop
vertex -8.69184875 5.95117903 17.66211891
vertex -7.59667587 5.95117903 15.01813698
vertex -10.02863598 -11.29900551 17.39621544
endloop
endfacet
facet normal -49.84690475 4.18110752 -20.64726257
outer loop
vertex -10.02863598 -11.29900551 17.39621544
vertex -7.59667587 5.95117903 15.01813698
vertex -8.83170605 -11.29900551 14.50657082
endloop
endfacet
facet normal 21.61029053 -48.91964340 8.95127487
outer loop
vertex -10.02863598 -11.29900551 17.39621544
vertex -8.83170605 -11.29900551 14.50657082
vertex 5.61199331 -3.82047653 20.50732994
endloop
endfacet
facet normal 0.11478371 -0.25983900 0.04754602
outer loop
vertex 5.61199331 -3.82047653 20.50732994
vertex -8.83170605 -11.29900551 14.50657082
vertex 5.61835098 -3.82047653 20.49198151
endloop
endfacet
facet normal 0.16235523 0.23765710 0.00000466
outer loop
vertex 5.61199284 -3.82047653 20.52394485
vertex 5.61199331 -3.82047653 20.50732994
vertex -8.69184875 5.95117998 20.52394485
endloop
endfacet
facet normal 27.96477890 40.93510818 -0.00001364
outer loop
vertex -8.69184875 5.95117998 20.52394485
vertex 5.61199331 -3.82047653 20.50732994
vertex -8.69184875 5.95117903 17.66211891
endloop
endfacet
facet normal -49.36702728 3.82565498 -0.00000127
outer loop
vertex -8.69184875 5.95117998 20.52394485
vertex -8.69184875 5.95117903 17.66211891
vertex -10.02863693 -11.29900551 20.52394485
endloop
endfacet
facet normal -53.95391083 4.18110895 -0.00001645
outer loop
vertex -10.02863693 -11.29900551 20.52394485
vertex -8.69184875 5.95117903 17.66211891
vertex -10.02863598 -11.29900551 17.39621544
endloop
endfacet
facet normal 23.39081573 -48.91965866 0.00000713
outer loop
vertex -10.02863693 -11.29900551 20.52394485
vertex -10.02863598 -11.29900551 17.39621544
vertex 5.61199284 -3.82047653 20.52394485
endloop
endfacet
facet normal 0.12425511 -0.25986919 0.00000357
outer loop
vertex 5.61199284 -3.82047653 20.52394485
vertex -10.02863598 -11.29900551 17.39621544
vertex 5.61199331 -3.82047653 20.50732994
endloop
endfacet
facet normal 37.42009354 54.77588272 0.00000000
outer loop
vertex 5.61199284 -3.82047653 24.35339737
vertex 5.61199284 -3.82047653 20.52394485
vertex -8.69184875 5.95117998 23.48996735
endloop
endfacet
facet normal 28.98295212 42.42551422 0.00000000
outer loop
vertex -8.69184875 5.95117998 23.48996735
vertex 5.61199284 -3.82047653 20.52394485
vertex -8.69184875 5.95117998 20.52394485
endloop
endfacet
facet normal -51.16443634 3.96494389 0.00000000
outer loop
vertex -8.69184875 5.95117998 23.48996735
vertex -8.69184875 5.95117998 20.52394485
vertex -10.02863693 -11.29900551 19.72556686
endloop
endfacet
facet normal 13.77216816 -1.06726229 0.00000000
outer loop
vertex -10.02863693 -11.29900551 19.72556686
vertex -8.69184875 5.95117998 20.52394485
vertex -10.02863693 -11.29900551 20.52394485
endloop
endfacet
facet normal -5.97069311 12.48713493 0.00000000
outer loop
vertex -10.02863693 -11.29900551 19.72556686
vertex -10.02863693 -11.29900551 20.52394485
vertex 5.61199284 -3.82047653 24.35339737
endloop
endfacet
facet normal 28.63867188 -59.89505005 0.00000000
outer loop
vertex 5.61199284 -3.82047653 24.35339737
vertex -10.02863693 -11.29900551 20.52394485
vertex 5.61199284 -3.82047653 20.52394485
endloop
endfacet
facet normal 29.37982178 45.80351639 32.98210907
outer loop
vertex 4.28773212 -5.22239256 27.47991753
vertex 5.61199284 -3.82047653 24.35339737
vertex -9.79140854 4.77891159 26.13214874
endloop
endfacet
facet normal 24.80631828 38.74273682 27.51246262
outer loop
vertex -9.79140854 4.77891159 26.13214874
vertex 5.61199284 -3.82047653 24.35339737
vertex -8.69184875 5.95117998 23.48996735
endloop
endfacet
facet normal -49.96197891 7.65946293 -17.39367294
outer loop
vertex -9.79140854 4.77891159 26.13214874
vertex -8.69184875 5.95117998 23.48996735
vertex -9.75308800 -10.99899387 19.07413101
endloop
endfacet
facet normal 12.36675358 -1.90810823 4.35221815
outer loop
vertex -9.75308800 -10.99899387 19.07413101
vertex -8.69184875 5.95117998 23.48996735
vertex -10.02863693 -11.29900551 19.72556686
endloop
endfacet
facet normal -6.28491879 11.46289825 2.62067318
outer loop
vertex -9.75308800 -10.99899387 19.07413101
vertex -10.02863693 -11.29900551 19.72556686
vertex 4.28773212 -5.22239256 27.47991753
endloop
endfacet
facet normal 29.86960220 -55.02919769 -12.02332687
outer loop
vertex 4.28773212 -5.22239256 27.47991753
vertex -10.02863693 -11.29900551 19.72556686
vertex 5.61199284 -3.82047653 24.35339737
endloop
endfacet
facet normal 1.42883885 2.22564554 1.58969927
outer loop
vertex 4.22475004 -5.29056406 27.63196945
vertex 4.28773212 -5.22239256 27.47991753
vertex -10.75695229 3.73381472 28.46317673
endloop
endfacet
facet normal 21.90477180 34.12020111 24.37076187
outer loop
vertex -10.75695229 3.73381472 28.46317673
vertex 4.28773212 -5.22239256 27.47991753
vertex -9.79140854 4.77891159 26.13214874
endloop
endfacet
facet normal -44.15505219 6.72549677 -15.27430820
outer loop
vertex -10.75695229 3.73381472 28.46317673
vertex -9.79140854 4.77891159 26.13214874
vertex -10.84962368 -12.18587589 21.72140312
endloop
endfacet
facet normal -50.14544296 7.63792324 -17.34651756
outer loop
vertex -10.84962368 -12.18587589 21.72140312
vertex -9.79140854 4.77891159 26.13214874
vertex -9.75308800 -10.99899387 19.07413101
endloop
endfacet
facet normal 25.26891136 -46.38711548 -10.33054733
outer loop
vertex -10.84962368 -12.18587589 21.72140312
vertex -9.75308800 -10.99899387 19.07413101
vertex 4.22475004 -5.29056406 27.63196945
endloop
endfacet
facet normal 1.45137835 -2.66434765 -0.59336138
outer loop
vertex 4.22475004 -5.29056406 27.63196945
vertex -9.75308800 -10.99899387 19.07413101
vertex 4.28773212 -5.22239256 27.47991753
endloop
endfacet
facet normal 1.45441973 2.33080554 0.94785851
outer loop
vertex 4.22662544 -5.35480499 27.78706169
vertex 4.22475004 -5.29056406 27.63196945
vertex -10.76179409 2.64963102 31.10260773
endloop
endfacet
facet normal 24.72040749 39.53914261 16.28661156
outer loop
vertex -10.76179409 2.64963102 31.10260773
vertex 4.22475004 -5.29056406 27.63196945
vertex -10.75695229 3.73381472 28.46317673
endloop
endfacet
facet normal -49.32469559 0.24823290 0.01148336
outer loop
vertex -10.76179409 2.64963102 31.10260773
vertex -10.75695229 3.73381472 28.46317673
vertex -10.84370708 -13.32073021 24.48746681
endloop
endfacet
facet normal -51.68581009 0.21644664 0.19935890
outer loop
vertex -10.84370708 -13.32073021 24.48746681
vertex -10.75695229 3.73381472 28.46317673
vertex -10.84962368 -12.18587589 21.72140312
endloop
endfacet
facet normal 25.77881622 -41.66597748 -17.14976311
outer loop
vertex -10.84370708 -13.32073021 24.48746681
vertex -10.84962368 -12.18587589 21.72140312
vertex 4.22662544 -5.35480499 27.78706169
endloop
endfacet
facet normal 1.44910967 -2.32683372 -0.98132330
outer loop
vertex 4.22662544 -5.35480499 27.78706169
vertex -10.84962368 -12.18587589 21.72140312
vertex 4.22475004 -5.29056406 27.63196945
endloop
endfacet
facet normal 17.33304787 27.70325279 11.47505856
outer loop
vertex 4.22662544 -6.12039995 29.63537216
vertex 4.22662544 -5.35480499 27.78706169
vertex -10.76179409 1.22453332 34.54309845
endloop
endfacet
facet normal 32.26416397 51.56752014 21.35996246
outer loop
vertex -10.76179409 1.22453332 34.54309845
vertex 4.22662544 -5.35480499 27.78706169
vertex -10.76179409 2.64963102 31.10260773
endloop
endfacet
facet normal -64.37310028 0.28182089 0.11673402
outer loop
vertex -10.76179409 1.22453332 34.54309845
vertex -10.76179409 2.64963102 31.10260773
vertex -10.84370708 -13.42999458 24.75125504
endloop
endfacet
facet normal -4.93559217 0.02160768 0.00895017
outer loop
vertex -10.84370708 -13.42999458 24.75125504
vertex -10.76179409 2.64963102 31.10260773
vertex -10.84370708 -13.32073021 24.48746681
endloop
endfacet
facet normal 2.46184492 -3.97537613 -1.64665043
outer loop
vertex -10.84370708 -13.42999458 24.75125504
vertex -10.84370708 -13.32073021 24.48746681
vertex 4.22662544 -6.12039995 29.63537216
endloop
endfacet
facet normal 17.24965668 -27.85465431 -11.53777027
outer loop
vertex 4.22662544 -6.12039995 29.63537216
vertex -10.84370708 -13.32073021 24.48746681
vertex 4.22662544 -5.35480499 27.78706169
endloop
endfacet
facet normal 17.33301926 21.20310783 21.20312309
outer loop
vertex 4.22662544 -7.53503370 31.05000496
vertex 4.22662544 -6.12039995 29.63537216
vertex -10.76179314 -1.40870428 37.17633438
endloop
endfacet
facet normal 32.26415253 39.46804810 39.46806335
outer loop
vertex -10.76179314 -1.40870428 37.17633438
vertex 4.22662544 -6.12039995 29.63537216
vertex -10.76179409 1.22453332 34.54309845
endloop
endfacet
facet normal -64.37307739 0.21568710 0.21571054
outer loop
vertex -10.76179314 -1.40870428 37.17633438
vertex -10.76179409 1.22453332 34.54309845
vertex -10.84370708 -13.63188934 24.95314980
endloop
endfacet
facet normal -4.93559408 0.01653780 0.01653780
outer loop
vertex -10.84370708 -13.63188934 24.95314980
vertex -10.76179409 1.22453332 34.54309845
vertex -10.84370708 -13.42999458 24.75125504
endloop
endfacet
facet normal 2.46184635 -3.04262114 -3.04262114
outer loop
vertex -10.84370708 -13.63188934 24.95314980
vertex -10.84370708 -13.42999458 24.75125504
vertex 4.22662544 -7.53503370 31.05000496
endloop
endfacet
facet normal 17.24962997 -21.31898689 -21.31900024
outer loop
vertex 4.22662544 -7.53503370 31.05000496
vertex -10.84370708 -13.42999458 24.75125504
vertex 4.22662544 -6.12039995 29.63537216
endloop
endfacet
facet normal 5.26032352 6.43484735 6.43484020
outer loop
vertex 4.22662544 -7.96435452 31.47932625
vertex 4.22662544 -7.53503370 31.05000496
vertex -10.76179314 -3.37368441 39.14131546
endloop
endfacet
facet normal 24.07623672 29.45195961 29.45194435
outer loop
vertex -10.76179314 -3.37368441 39.14131546
vertex 4.22662544 -7.53503370 31.05000496
vertex -10.76179314 -1.40870428 37.17633438
endloop
endfacet
facet normal -48.03664017 0.16095936 0.16095927
outer loop
vertex -10.76179314 -3.37368441 39.14131546
vertex -10.76179314 -1.40870428 37.17633438
vertex -10.84370708 -15.48636532 26.80762672
endloop
endfacet
facet normal -45.33522034 0.15190753 0.15190744
outer loop
vertex -10.84370708 -15.48636532 26.80762672
vertex -10.76179314 -1.40870428 37.17633438
vertex -10.84370708 -13.63188934 24.95314980
endloop
endfacet
facet normal 22.61294937 -27.94758415 -27.94756889
outer loop
vertex -10.84370708 -15.48636532 26.80762672
vertex -10.84370708 -13.63188934 24.95314980
vertex 4.22662544 -7.96435452 31.47932625
endloop
endfacet
facet normal 5.23501682 -6.47001457 -6.47000742
outer loop
vertex 4.22662544 -7.96435452 31.47932625
vertex -10.84370708 -13.63188934 24.95314980
vertex 4.22662544 -7.53503370 31.05000496
endloop
endfacet
facet normal 5.35158825 7.50191355 5.95245457
outer loop
vertex 4.39461517 -8.41336155 31.89418030
vertex 4.22662544 -7.96435452 31.47932625
vertex -9.97496223 -5.43945122 41.06519318
endloop
endfacet
facet normal 24.65977097 34.86457443 27.35049629
outer loop
vertex -9.97496223 -5.43945122 41.06519318
vertex 4.22662544 -7.96435452 31.47932625
vertex -10.76179314 -3.37368441 39.14131546
endloop
endfacet
facet normal -48.78542709 -9.56803131 9.67866039
outer loop
vertex -9.97496223 -5.43945122 41.06519318
vertex -10.76179314 -3.37368441 39.14131546
vertex -10.17739677 -17.20878792 28.41000748
endloop
endfacet
facet normal -40.65295029 -8.08680630 8.21189499
outer loop
vertex -10.17739677 -17.20878792 28.41000748
vertex -10.76179314 -3.37368441 39.14131546
vertex -10.84370708 -15.48636532 26.80762672
endloop
endfacet
facet normal 20.09484100 -21.02836990 -30.95964622
outer loop
vertex -10.17739677 -17.20878792 28.41000748
vertex -10.84370708 -15.48636532 26.80762672
vertex 4.39461517 -8.41336155 31.89418030
endloop
endfacet
facet normal 5.21816254 -5.46719074 -8.03030586
outer loop
vertex 4.39461517 -8.41336155 31.89418030
vertex -10.84370708 -15.48636532 26.80762672
vertex 4.22662544 -7.96435452 31.47932625
endloop
endfacet
facet normal 30.72079659 43.26527405 34.10504532
outer loop
vertex 5.38100576 -10.99092388 34.27553558
vertex 4.39461517 -8.41336155 31.89418030
vertex -9.25745201 -7.31439686 42.79741669
endloop
endfacet
facet normal 22.34662819 31.47161484 24.80836487
outer loop
vertex -9.25745201 -7.31439686 42.79741669
vertex 4.39461517 -8.41336155 31.89418030
vertex -9.97496223 -5.43945122 41.06519318
endloop
endfacet
facet normal -44.11491013 -8.72956371 8.82417297
outer loop
vertex -9.25745201 -7.31439686 42.79741669
vertex -9.97496223 -5.43945122 41.06519318
vertex -10.25734615 -16.99987030 28.21699142
endloop
endfacet
facet normal 4.91556215 0.97270107 -0.98324329
outer loop
vertex -10.25734615 -16.99987030 28.21699142
vertex -9.97496223 -5.43945122 41.06519318
vertex -10.17739677 -17.20878792 28.41000748
endloop
endfacet
facet normal -2.42555952 2.53407598 3.74753857
outer loop
vertex -10.25734615 -16.99987030 28.21699142
vertex -10.17739677 -17.20878792 28.41000748
vertex 5.38100576 -10.99092388 34.27553558
endloop
endfacet
facet normal 29.92570686 -31.26438522 -46.23599625
outer loop
vertex 5.38100576 -10.99092388 34.27553558
vertex -10.17739677 -17.20878792 28.41000748
vertex 4.39461517 -8.41336155 31.89418030
endloop
endfacet
facet normal 28.28083038 16.27849197 41.14707565
outer loop
vertex 5.29962206 -13.79340649 35.44018173
vertex 5.38100576 -10.99092388 34.27553558
vertex -9.27918625 -10.22729492 44.04953766
endloop
endfacet
facet normal 29.42682838 18.14390373 42.72024536
outer loop
vertex -9.27918625 -10.22729492 44.04953766
vertex 5.38100576 -10.99092388 34.27553558
vertex -9.25745201 -7.31439686 42.79741669
endloop
endfacet
facet normal -54.53277969 1.55498600 2.67089772
outer loop
vertex -9.27918625 -10.22729492 44.04953766
vertex -9.25745201 -7.31439686 42.79741669
vertex -10.24522209 -16.80981827 28.15791893
endloop
endfacet
facet normal 3.34318447 -0.23584022 -0.07260463
outer loop
vertex -10.24522209 -16.80981827 28.15791893
vertex -9.25745201 -7.31439686 42.79741669
vertex -10.25734615 -16.99987030 28.21699142
endloop
endfacet
facet normal -1.56219590 1.00656331 2.91775799
outer loop
vertex -10.24522209 -16.80981827 28.15791893
vertex -10.25734615 -16.99987030 28.21699142
vertex 5.29962206 -13.79340649 35.44018173
endloop
endfacet
facet normal 23.97726059 -18.70621490 -43.33718109
outer loop
vertex 5.29962206 -13.79340649 35.44018173
vertex -10.25734615 -16.99987030 28.21699142
vertex 5.38100576 -10.99092388 34.27553558
endloop
endfacet
facet normal 9.07190514 5.43129349 13.11235714
outer loop
vertex 5.29962206 -14.69281864 35.81272888
vertex 5.29962206 -13.79340649 35.44018173
vertex -9.27918625 -10.98866177 44.36490631
endloop
endfacet
facet normal 7.67951822 4.59769917 11.09982109
outer loop
vertex -9.27918625 -10.98866177 44.36490631
vertex 5.29962206 -13.79340649 35.44018173
vertex -9.27918625 -10.22729492 44.04953766
endloop
endfacet
facet normal -14.17527390 0.30465743 0.73550767
outer loop
vertex -9.27918625 -10.98866177 44.36490631
vertex -9.27918625 -10.22729492 44.04953766
vertex -10.24522209 -20.68401718 29.76266479
endloop
endfacet
facet normal -72.13056946 1.55024207 3.74261498
outer loop
vertex -10.24522209 -20.68401718 29.76266479
vertex -9.27918625 -10.22729492 44.04953766
vertex -10.24522209 -16.80981827 28.15791893
endloop
endfacet
facet normal 33.05350494 -24.94552422 -60.22381592
outer loop
vertex -10.24522209 -20.68401718 29.76266479
vertex -10.24522209 -16.80981827 28.15791893
vertex 5.29962206 -14.69281864 35.81272888
endloop
endfacet
facet normal 7.67351103 -5.79118729 -13.98122120
outer loop
vertex 5.29962206 -14.69281864 35.81272888
vertex -10.24522209 -16.80981827 28.15791893
vertex 5.29962206 -13.79340649 35.44018173
endloop
endfacet
facet normal 2.91228151 4.86439037 2.98570800
outer loop
vertex 5.47700882 -14.93731022 36.03803635
vertex 5.29962206 -14.69281864 35.81272888
vertex -8.89257050 -11.96339607 45.20905304
endloop
endfacet
facet normal 11.46295261 15.61305904 12.77837849
outer loop
vertex -8.89257050 -11.96339607 45.20905304
vertex 5.29962206 -14.69281864 35.81272888
vertex -9.27918625 -10.98866177 44.36490631
endloop
endfacet
facet normal -22.27049065 -4.72180939 4.74753094
outer loop
vertex -8.89257050 -11.96339607 45.20905304
vertex -9.27918625 -10.98866177 44.36490631
vertex -9.09500504 -23.73273277 32.55386734
endloop
endfacet
facet normal -71.57978821 -14.09934521 14.09693241
outer loop
vertex -9.09500504 -23.73273277 32.55386734
vertex -9.27918625 -10.98866177 44.36490631
vertex -10.24522209 -20.68401718 29.76266479
endloop
endfacet
facet normal 35.17204666 -36.66589355 -54.54257202
outer loop
vertex -9.09500504 -23.73273277 32.55386734
vertex -10.24522209 -20.68401718 29.76266479
vertex 5.47700882 -14.93731022 36.03803635
endloop
endfacet
facet normal 2.82905149 -2.42916822 -4.86334276
outer loop
vertex 5.47700882 -14.93731022 36.03803635
vertex -10.24522209 -20.68401718 29.76266479
vertex 5.29962206 -14.69281864 35.81272888
endloop
endfacet
facet normal 30.72080612 43.26527405 34.10503387
outer loop
vertex 6.46339893 -17.51487160 38.41939163
vertex 5.47700882 -14.93731022 36.03803635
vertex -8.17506027 -13.83834171 46.94127655
endloop
endfacet
facet normal 22.34664345 31.47162247 24.80836678
outer loop
vertex -8.17506027 -13.83834171 46.94127655
vertex 5.47700882 -14.93731022 36.03803635
vertex -8.89257050 -11.96339607 45.20905304
endloop
endfacet
facet normal -44.11490631 -8.72956276 8.82417393
outer loop
vertex -8.17506027 -13.83834171 46.94127655
vertex -8.89257050 -11.96339607 45.20905304
vertex -9.17495537 -23.52381325 32.36085129
endloop
endfacet
facet normal 4.91558647 0.97271317 -0.98325491
outer loop
vertex -9.17495537 -23.52381325 32.36085129
vertex -8.89257050 -11.96339607 45.20905304
vertex -9.09500504 -23.73273277 32.55386734
endloop
endfacet
facet normal -2.42556953 2.53407097 3.74757433
outer loop
vertex -9.17495537 -23.52381325 32.36085129
vertex -9.09500504 -23.73273277 32.55386734
vertex 6.46339893 -17.51487160 38.41939163
endloop
endfacet
facet normal 29.92568588 -31.26439285 -46.23597717
outer loop
vertex 6.46339893 -17.51487160 38.41939163
vertex -9.09500504 -23.73273277 32.55386734
vertex 5.47700882 -14.93731022 36.03803635
endloop
endfacet
facet normal 28.28084183 16.27849388 41.14708328
outer loop
vertex 6.38201523 -20.31735420 39.58403778
vertex 6.46339893 -17.51487160 38.41939163
vertex -8.19679451 -16.75123978 48.19339752
endloop
endfacet
facet normal 29.42684174 18.14390564 42.72024536
outer loop
vertex -8.19679451 -16.75123978 48.19339752
vertex 6.46339893 -17.51487160 38.41939163
vertex -8.17506027 -13.83834171 46.94127655
endloop
endfacet
facet normal -54.53277588 1.55498600 2.67089772
outer loop
vertex -8.19679451 -16.75123978 48.19339752
vertex -8.17506027 -13.83834171 46.94127655
vertex -9.16283035 -23.33376312 32.30178070
endloop
endfacet
facet normal 3.34313822 -0.23585227 -0.07259370
outer loop
vertex -9.16283035 -23.33376312 32.30178070
vertex -8.17506027 -13.83834171 46.94127655
vertex -9.17495537 -23.52381325 32.36085129
endloop
endfacet
facet normal -1.56217492 1.00654066 2.91772604
outer loop
vertex -9.16283035 -23.33376312 32.30178070
vertex -9.17495537 -23.52381325 32.36085129
vertex 6.38201523 -20.31735420 39.58403778
endloop
endfacet
facet normal 23.97724533 -18.70621681 -43.33718872
outer loop
vertex 6.38201523 -20.31735420 39.58403778
vertex -9.17495537 -23.52381325 32.36085129
vertex 6.46339893 -17.51487160 38.41939163
endloop
endfacet
facet normal 25.58008575 15.31469059 36.97293472
outer loop
vertex 6.38201523 -22.85342789 40.63451385
vertex 6.38201523 -20.31735420 39.58403778
vertex -8.19679451 -18.33755875 48.85047150
endloop
endfacet
facet normal 16.00039101 9.57935619 23.12664223
outer loop
vertex -8.19679451 -18.33755875 48.85047150
vertex 6.38201523 -20.31735420 39.58403778
vertex -8.19679451 -16.75123978 48.19339752
endloop
endfacet
facet normal -29.53437805 0.63475698 1.53244102
outer loop
vertex -8.19679451 -18.33755875 48.85047150
vertex -8.19679451 -16.75123978 48.19339752
vertex -9.16283035 -24.74499893 32.88633347
endloop
endfacet
facet normal -26.27465057 0.56469893 1.36330438
outer loop
vertex -9.16283035 -24.74499893 32.88633347
vertex -8.19679451 -16.75123978 48.19339752
vertex -9.16283035 -23.33376312 32.30178070
endloop
endfacet
facet normal 12.04023266 -9.08678246 -21.93744278
outer loop
vertex -9.16283035 -24.74499893 32.88633347
vertex -9.16283035 -23.33376312 32.30178070
vertex 6.38201523 -22.85342789 40.63451385
endloop
endfacet
facet normal 21.63700676 -16.32948875 -39.42287445
outer loop
vertex 6.38201523 -22.85342789 40.63451385
vertex -9.16283035 -23.33376312 32.30178070
vertex 6.38201523 -20.31735420 39.58403778
endloop
endfacet
facet normal 24.93058586 10.70611668 38.35732269
outer loop
vertex 5.98226738 -25.36115074 41.59427643
vertex 6.38201523 -22.85342789 40.63451385
vertex -8.46599102 -20.04506493 49.50121307
endloop
endfacet
facet normal 16.96746254 7.27533054 26.10906410
outer loop
vertex -8.46599102 -20.04506493 49.50121307
vertex 6.38201523 -22.85342789 40.63451385
vertex -8.19679451 -18.33755875 48.85047150
endloop
endfacet
facet normal -31.43263435 4.92922068 -0.06896889
outer loop
vertex -8.46599102 -20.04506493 49.50121307
vertex -8.19679451 -18.33755875 48.85047150
vertex -9.37503338 -26.06729889 33.38782120
endloop
endfacet
facet normal -24.32263184 3.87209344 -0.08228910
outer loop
vertex -9.37503338 -26.06729889 33.38782120
vertex -8.19679451 -18.33755875 48.85047150
vertex -9.16283035 -24.74499893 32.88633347
endloop
endfacet
facet normal 11.20552063 -9.44293213 -20.15711021
outer loop
vertex -9.37503338 -26.06729889 33.38782120
vertex -9.16283035 -24.74499893 32.88633347
vertex 5.98226738 -25.36115074 41.59427643
endloop
endfacet
facet normal 21.24574661 -18.01667976 -38.22601318
outer loop
vertex 5.98226738 -25.36115074 41.59427643
vertex -9.16283035 -24.74499893 32.88633347
vertex 6.38201523 -22.85342789 40.63451385
endloop
endfacet
facet normal 15.90035820 6.83874035 24.45664978
outer loop
vertex 5.72873878 -26.96057320 42.20634842
vertex 5.98226738 -25.36115074 41.59427643
vertex -8.50146484 -20.26885414 49.58685303
endloop
endfacet
facet normal 2.22475648 0.95685887 3.42194629
outer loop
vertex -8.50146484 -20.26885414 49.58685303
vertex 5.98226738 -25.36115074 41.59427643
vertex -8.46599102 -20.04506493 49.50121307
endloop
endfacet
facet normal -4.12174511 0.64945310 -0.01019925
outer loop
vertex -8.50146484 -20.26885414 49.58685303
vertex -8.46599102 -20.04506493 49.50121307
vertex -9.96142864 -29.76665688 34.80350494
endloop
endfacet
facet normal -68.13478851 10.73573303 -0.16853619
outer loop
vertex -9.96142864 -29.76665688 34.80350494
vertex -8.46599102 -20.04506493 49.50121307
vertex -9.37503338 -26.06729889 33.38782120
endloop
endfacet
facet normal 31.35829544 -26.55330658 -56.39807129
outer loop
vertex -9.96142864 -29.76665688 34.80350494
vertex -9.37503338 -26.06729889 33.38782120
vertex 5.72873878 -26.96057320 42.20634842
endloop
endfacet
facet normal 13.55780220 -11.48034477 -24.38378334
outer loop
vertex 5.72873878 -26.96057320 42.20634842
vertex -9.37503338 -26.06729889 33.38782120
vertex 5.98226738 -25.36115074 41.59427643
endloop
endfacet
facet normal 10.64770317 11.06860638 10.58966637
outer loop
vertex 5.76783514 -27.72314262 42.96409607
vertex 5.72873878 -26.96057320 42.20634842
vertex -8.47805595 -20.71953773 49.96770477
endloop
endfacet
facet normal 5.87482548 5.59236717 6.25667334
outer loop
vertex -8.47805595 -20.71953773 49.96770477
vertex 5.72873878 -26.96057320 42.20634842
vertex -8.50146484 -20.26885414 49.58685303
endloop
endfacet
facet normal -10.09969139 0.29606128 0.97111934
outer loop
vertex -8.47805595 -20.71953773 49.96770477
vertex -8.50146484 -20.26885414 49.58685303
vertex -10.00196075 -32.86537170 37.82186890
endloop
endfacet
facet normal -74.47720337 5.00590229 4.13904572
outer loop
vertex -10.00196075 -32.86537170 37.82186890
vertex -8.50146484 -20.26885414 49.58685303
vertex -9.96142864 -29.76665688 34.80350494
endloop
endfacet
facet normal 31.45541382 -47.80740738 -48.65767670
outer loop
vertex -10.00196075 -32.86537170 37.82186890
vertex -9.96142864 -29.76665688 34.80350494
vertex 5.76783514 -27.72314262 42.96409607
endloop
endfacet
facet normal 7.77148533 -11.59976387 -12.07454967
outer loop
vertex 5.76783514 -27.72314262 42.96409607
vertex -9.96142864 -29.76665688 34.80350494
vertex 5.72873878 -26.96057320 42.20634842
endloop
endfacet
facet normal 5.98196220 6.08389282 6.08389282
outer loop
vertex 5.76783514 -28.15020561 43.39115906
vertex 5.76783514 -27.72314262 42.96409607
vertex -8.47805595 -22.61763573 51.86580276
endloop
endfacet
facet normal 26.58706284 27.04009819 27.04009819
outer loop
vertex -8.47805595 -22.61763573 51.86580276
vertex 5.76783514 -27.72314262 42.96409607
vertex -8.47805595 -20.71953773 49.96770477
endloop
endfacet
facet normal -46.10797119 2.89252067 2.89252067
outer loop
vertex -8.47805595 -22.61763573 51.86580276
vertex -8.47805595 -20.71953773 49.96770477
vertex -10.00196075 -34.79574203 39.75223923
endloop
endfacet
facet normal -46.89191818 2.94170070 2.94170070
outer loop
vertex -10.00196075 -34.79574203 39.75223923
vertex -8.47805595 -20.71953773 49.96770477
vertex -10.00196075 -32.86537170 37.82186890
endloop
endfacet
facet normal 19.85280991 -30.44154739 -30.44154739
outer loop
vertex -10.00196075 -34.79574203 39.75223923
vertex -10.00196075 -32.86537170 37.82186890
vertex 5.76783514 -28.15020561 43.39115906
endloop
endfacet
facet normal 4.39211082 -6.73469639 -6.73469639
outer loop
vertex 5.76783514 -28.15020561 43.39115906
vertex -10.00196075 -32.86537170 37.82186890
vertex 5.76783514 -27.72314262 42.96409607
endloop
endfacet
facet normal 5.90927315 7.11769056 5.27503490
outer loop
vertex 5.93265629 -28.58462524 43.79269028
vertex 5.76783514 -28.15020561 43.39115906
vertex -7.71324348 -24.62268448 53.73337936
endloop
endfacet
facet normal 27.32457161 33.08680725 24.33232880
outer loop
vertex -7.71324348 -24.62268448 53.73337936
vertex 5.76783514 -28.15020561 43.39115906
vertex -8.47805595 -22.61763573 51.86580276
endloop
endfacet
facet normal -47.03486633 -6.44074392 12.34693432
outer loop
vertex -7.71324348 -24.62268448 53.73337936
vertex -8.47805595 -22.61763573 51.86580276
vertex -9.30315971 -36.59826660 41.42966461
endloop
endfacet
facet normal -42.26286316 -5.90873432 11.25694847
outer loop
vertex -9.30315971 -36.59826660 41.42966461
vertex -8.47805595 -22.61763573 51.86580276
vertex -10.00196075 -34.79574203 39.75223923
endloop
endfacet
facet normal 17.70169830 -23.90565872 -33.06287384
outer loop
vertex -9.30315971 -36.59826660 41.42966461
vertex -10.00196075 -34.79574203 39.75223923
vertex 5.93265629 -28.58462524 43.79269028
endloop
endfacet
facet normal 4.24920845 -5.73229456 -7.94603348
outer loop
vertex 5.93265629 -28.58462524 43.79269028
vertex -10.00196075 -34.79574203 39.75223923
vertex 5.76783514 -28.15020561 43.39115906
endloop
endfacet
facet normal 33.57846069 40.51647568 29.94605827
outer loop
vertex 6.87743092 -31.05344009 46.07357788
vertex 5.93265629 -28.58462524 43.79269028
vertex -6.94735050 -26.62405968 55.58240891
endloop
endfacet
facet normal 27.22079277 32.84517670 24.27614212
outer loop
vertex -6.94735050 -26.62405968 55.58240891
vertex 5.93265629 -28.58462524 43.79269028
vertex -7.71324348 -24.62268448 53.73337936
endloop
endfacet
facet normal -46.76755142 -6.48352575 12.35403252
outer loop
vertex -6.94735050 -26.62405968 55.58240891
vertex -7.71324348 -24.62268448 53.73337936
vertex -9.39384365 -36.36129761 41.21073532
endloop
endfacet
facet normal 5.53740454 0.76767015 -1.46275377
outer loop
vertex -9.39384365 -36.36129761 41.21073532
vertex -7.71324348 -24.62268448 53.73337936
vertex -9.30315971 -36.59826660 41.42966461
endloop
endfacet
facet normal -2.31438828 3.12127686 4.33712482
outer loop
vertex -9.39384365 -36.36129761 41.21073532
vertex -9.30315971 -36.59826660 41.42966461
vertex 6.87743092 -31.05344009 46.07357788
endloop
endfacet
facet normal 24.11208725 -32.51866150 -45.18549347
outer loop
vertex 6.87743092 -31.05344009 46.07357788
vertex -9.30315971 -36.59826660 41.42966461
vertex 5.93265629 -28.58462524 43.79269028
endloop
endfacet
facet normal 30.10181808 14.49204445 36.65566254
outer loop
vertex 6.80423450 -33.69371414 47.17753601
vertex 6.87743092 -31.05344009 46.07357788
vertex -6.96745014 -29.66840744 56.89548492
endloop
endfacet
facet normal 34.76430130 17.96186447 42.17647171
outer loop
vertex -6.96745014 -29.66840744 56.89548492
vertex 6.87743092 -31.05344009 46.07357788
vertex -6.94735050 -26.62405968 55.58240891
endloop
endfacet
facet normal -56.43965912 3.47365522 7.18968058
outer loop
vertex -6.96745014 -29.66840744 56.89548492
vertex -6.94735050 -26.62405968 55.58240891
vertex -9.37211418 -36.18359756 41.16642761
endloop
endfacet
facet normal 2.98528194 -0.42068735 -0.22315691
outer loop
vertex -9.37211418 -36.18359756 41.16642761
vertex -6.94735050 -26.62405968 55.58240891
vertex -9.39384365 -36.36129761 41.21073532
endloop
endfacet
facet normal -1.17849529 0.84735519 2.82043409
outer loop
vertex -9.37211418 -36.18359756 41.16642761
vertex -9.39384365 -36.36129761 41.21073532
vertex 6.80423450 -33.69371414 47.17753601
endloop
endfacet
facet normal 18.69889069 -18.31874847 -42.57210541
outer loop
vertex 6.80423450 -33.69371414 47.17753601
vertex -9.39384365 -36.36129761 41.21073532
vertex 6.87743092 -31.05344009 46.07357788
endloop
endfacet
facet normal 12.03915024 6.03204679 14.56259632
outer loop
vertex 6.80423450 -34.75114441 47.61553955
vertex 6.80423450 -33.69371414 47.17753601
vertex -6.96745014 -30.29480171 57.15494537
endloop
endfacet
facet normal 7.13167524 3.57320738 8.62650394
outer loop
vertex -6.96745014 -30.29480171 57.15494537
vertex 6.80423450 -33.69371414 47.17753601
vertex -6.96745014 -29.66840744 56.89548492
endloop
endfacet
facet normal -11.54302311 0.62391520 1.50626779
outer loop
vertex -6.96745014 -30.29480171 57.15494537
vertex -6.96745014 -29.66840744 56.89548492
vertex -9.37211418 -40.03948975 42.76359177
endloop
endfacet
facet normal -71.05537415 3.84064317 9.27212524
outer loop
vertex -9.37211418 -40.03948975 42.76359177
vertex -6.96745014 -29.66840744 56.89548492
vertex -9.37211418 -36.18359756 41.16642761
endloop
endfacet
facet normal 27.15494347 -25.83628654 -62.37425995
outer loop
vertex -9.37211418 -40.03948975 42.76359177
vertex -9.37211418 -36.18359756 41.16642761
vertex 6.80423450 -34.75114441 47.61553955
endloop
endfacet
facet normal 7.44690561 -7.08529854 -17.10536194
outer loop
vertex 6.80423450 -34.75114441 47.61553955
vertex -9.37211418 -36.18359756 41.16642761
vertex 6.80423450 -33.69371414 47.17753601
endloop
endfacet
facet normal 4.82484150 6.47610855 4.04211330
outer loop
vertex 7.01504803 -35.10856628 47.93655014
vertex 6.80423450 -34.75114441 47.61553955
vertex -6.63085079 -31.14663124 57.87723541
endloop
endfacet
facet normal 11.34471989 13.15810776 10.23112583
outer loop
vertex -6.63085079 -31.14663124 57.87723541
vertex 6.80423450 -34.75114441 47.61553955
vertex -6.96745014 -30.29480171 57.15494537
endloop
endfacet
facet normal -19.13050842 -2.99303913 5.38531303
outer loop
vertex -6.63085079 -31.14663124 57.87723541
vertex -6.96745014 -30.29480171 57.15494537
vertex -8.22076893 -43.12221527 45.57352448
endloop
endfacet
facet normal -71.74651337 -9.81247330 18.63241959
outer loop
vertex -8.22076893 -43.12221527 45.57352448
vertex -6.96745014 -30.29480171 57.15494537
vertex -9.37211418 -40.03948975 42.76359177
endloop
endfacet
facet normal 29.80237389 -40.09096146 -56.19432068
outer loop
vertex -8.22076893 -43.12221527 45.57352448
vertex -9.37211418 -40.03948975 42.76359177
vertex 7.01504803 -35.10856628 47.93655014
endloop
endfacet
facet normal 3.43180704 -4.16992283 -6.89663553
outer loop
vertex 7.01504803 -35.10856628 47.93655014
vertex -9.37211418 -40.03948975 42.76359177
vertex 6.80423450 -34.75114441 47.61553955
endloop
endfacet
facet normal 22.89462280 27.62516975 20.41797829
outer loop
vertex 7.65921926 -36.79186630 49.49171829
vertex 7.01504803 -35.10856628 47.93655014
vertex -5.68509483 -33.61801147 60.16049194
endloop
endfacet
facet normal 33.61332703 40.55854797 29.97718239
outer loop
vertex -5.68509483 -33.61801147 60.16049194
vertex 7.01504803 -35.10856628 47.93655014
vertex -6.63085079 -31.14663124 57.87723541
endloop
endfacet
facet normal -57.75048065 -8.00611687 15.25527382
outer loop
vertex -5.68509483 -33.61801147 60.16049194
vertex -6.63085079 -31.14663124 57.87723541
vertex -8.18660069 -43.21150208 45.65601349
endloop
endfacet
facet normal -2.08641315 -0.28924543 0.55114341
outer loop
vertex -8.18660069 -43.21150208 45.65601349
vertex -6.63085079 -31.14663124 57.87723541
vertex -8.22076893 -43.12221527 45.57352448
endloop
endfacet
facet normal 0.87202728 -1.17604673 -1.63417029
outer loop
vertex -8.18660069 -43.21150208 45.65601349
vertex -8.22076893 -43.12221527 45.57352448
vertex 7.65921926 -36.79186630 49.49171829
endloop
endfacet
facet normal 16.44025230 -22.17206192 -30.80861282
outer loop
vertex 7.65921926 -36.79186630 49.49171829
vertex -8.22076893 -43.12221527 45.57352448
vertex 7.01504803 -35.10856628 47.93655014
endloop
endfacet
facet normal 26.13551140 14.95064640 28.24217033
outer loop
vertex 8.00784206 -38.99120331 50.33337021
vertex 7.65921926 -36.79186630 49.49171829
vertex -5.17325783 -36.84701920 61.39618301
endloop
endfacet
facet normal 38.37145615 21.95012283 41.46439743
outer loop
vertex -5.17325783 -36.84701920 61.39618301
vertex 7.65921926 -36.79186630 49.49171829
vertex -5.68509483 -33.61801147 60.16049194
endloop
endfacet
facet normal -58.68964767 -4.33284092 12.98767853
outer loop
vertex -5.17325783 -36.84701920 61.39618301
vertex -5.68509483 -33.61801147 60.16049194
vertex -8.16810703 -43.32815933 45.70066071
endloop
endfacet
facet normal -2.12037539 -0.15655553 0.46923748
outer loop
vertex -8.16810703 -43.32815933 45.70066071
vertex -5.68509483 -33.61801147 60.16049194
vertex -8.18660069 -43.21150208 45.65601349
endloop
endfacet
facet normal 0.73407221 -0.63653541 -1.96724796
outer loop
vertex -8.16810703 -43.32815933 45.70066071
vertex -8.18660069 -43.21150208 45.65601349
vertex 8.00784206 -38.99120331 50.33337021
endloop
endfacet
facet normal 13.83910561 -11.99945068 -37.08832932
outer loop
vertex 8.00784206 -38.99120331 50.33337021
vertex -8.18660069 -43.21150208 45.65601349
vertex 7.65921926 -36.79186630 49.49171829
endloop
endfacet
facet normal 6.01593256 3.44137383 6.50084734
outer loop
vertex 8.08808899 -39.49745178 50.52710342
vertex 8.00784206 -38.99120331 50.33337021
vertex -4.98191643 -38.05412292 61.85812378
endloop
endfacet
facet normal 14.34444904 8.20566177 15.50068378
outer loop
vertex -4.98191643 -38.05412292 61.85812378
vertex 8.00784206 -38.99120331 50.33337021
vertex -5.17325783 -36.84701920 61.39618301
endloop
endfacet
facet normal -21.94003296 -1.61976111 4.85520458
outer loop
vertex -4.98191643 -38.05412292 61.85812378
vertex -5.17325783 -36.84701920 61.39618301
vertex -7.55904722 -47.17050171 47.17106247
endloop
endfacet
facet normal -69.83744812 -5.15587997 15.45463753
outer loop
vertex -7.55904722 -47.17050171 47.17106247
vertex -5.17325783 -36.84701920 61.39618301
vertex -8.16810703 -43.32815933 45.70066071
endloop
endfacet
facet normal 24.17752457 -20.96354866 -64.79499817
outer loop
vertex -7.55904722 -47.17050171 47.17106247
vertex -8.16810703 -43.32815933 45.70066071
vertex 8.08808899 -39.49745178 50.52710342
endloop
endfacet
facet normal 3.18551445 -2.76205778 -8.53707695
outer loop
vertex 8.08808899 -39.49745178 50.52710342
vertex -8.16810703 -43.32815933 45.70066071
vertex 8.00784206 -38.99120331 50.33337021
endloop
endfacet
facet normal -0.23327824 0.78736275 -0.23574978
outer loop
vertex 8.17608738 -39.47859955 50.50299072
vertex 8.08808899 -39.49745178 50.52710342
vertex -4.01913261 -39.41220474 62.79210663
endloop
endfacet
facet normal 16.73649597 23.11648560 16.36052322
outer loop
vertex -4.01913261 -39.41220474 62.79210663
vertex 8.08808899 -39.49745178 50.52710342
vertex -4.98191643 -38.05412292 61.85812378
endloop
endfacet
facet normal -28.36633301 -11.67446709 12.26549911
outer loop
vertex -4.01913261 -39.41220474 62.79210663
vertex -4.98191643 -38.05412292 61.85812378
vertex -5.50485325 -50.05609894 49.22509003
endloop
endfacet
facet normal -61.10623550 -24.87657547 26.16337204
outer loop
vertex -5.50485325 -50.05609894 49.22509003
vertex -4.98191643 -38.05412292 61.85812378
vertex -7.55904722 -47.17050171 47.17106247
endloop
endfacet
facet normal 25.41398239 -25.47597313 -61.20591736
outer loop
vertex -5.50485325 -50.05609894 49.22509003
vertex -7.55904722 -47.17050171 47.17106247
vertex 8.17608738 -39.47859955 50.50299072
endloop
endfacet
facet normal -0.24828681 0.67262089 -0.38023257
outer loop
vertex 8.17608738 -39.47859955 50.50299072
vertex -7.55904722 -47.17050171 47.17106247
vertex 8.08808899 -39.49745178 50.52710342
endloop
endfacet
facet normal 26.05055618 36.56064606 25.65399933
outer loop
vertex 9.66931438 -41.59033966 51.99621582
vertex 8.17608738 -39.47859955 50.50299072
vertex -2.51656723 -41.53715515 64.29467010
endloop
endfacet
facet normal 26.21352386 36.78929138 25.81447601
outer loop
vertex -2.51656723 -41.53715515 64.29467010
vertex 8.17608738 -39.47859955 50.50299072
vertex -4.01913261 -39.41220474 62.79210663
endloop
endfacet
facet normal -44.82236099 -18.15293694 19.15022850
outer loop
vertex -2.51656723 -41.53715515 64.29467010
vertex -4.01913261 -39.41220474 62.79210663
vertex -5.49937677 -50.06384277 49.23056793
endloop
endfacet
facet normal -0.16336699 -0.06616078 0.06979620
outer loop
vertex -5.49937677 -50.06384277 49.23056793
vertex -4.01913261 -39.41220474 62.79210663
vertex -5.50485325 -50.05609894 49.22509003
endloop
endfacet
facet normal 0.06783377 -0.06794665 -0.16386877
outer loop
vertex -5.49937677 -50.06384277 49.23056793
vertex -5.50485325 -50.05609894 49.22509003
vertex 9.66931438 -41.59033966 51.99621582
endloop
endfacet
facet normal 18.49318123 -18.52052689 -44.68519974
outer loop
vertex 9.66931438 -41.59033966 51.99621582
vertex -5.50485325 -50.05609894 49.22509003
vertex 8.17608738 -39.47859955 50.50299072
endloop
endfacet
facet normal 33.97591782 19.78644180 33.57933807
outer loop
vertex 10.47743893 -44.34946060 52.80434418
vertex 9.66931438 -41.59033966 51.99621582
vertex -1.70338798 -44.31352997 65.10785675
endloop
endfacet
facet normal 34.18836594 19.91024399 33.78932571
outer loop
vertex -1.70338798 -44.31352997 65.10785675
vertex 9.66931438 -41.59033966 51.99621582
vertex -2.51656723 -41.53715515 64.29467010
endloop
endfacet
facet normal -48.75738144 -9.82423306 15.21512794
outer loop
vertex -1.70338798 -44.31352997 65.10785675
vertex -2.51656723 -41.53715515 64.29467010
vertex -5.49641418 -50.07396317 49.23353195
endloop
endfacet
facet normal -0.17772788 -0.03578764 0.05544828
outer loop
vertex -5.49641418 -50.07396317 49.23353195
vertex -2.51656723 -41.53715515 64.29467010
vertex -5.49937677 -50.06384277 49.23056793
endloop
endfacet
facet normal 0.05310556 -0.03676797 -0.17862101
outer loop
vertex -5.49641418 -50.07396317 49.23353195
vertex -5.49937677 -50.06384277 49.23056793
vertex 10.47743893 -44.34946060 52.80434418
endloop
endfacet
facet normal 14.47843552 -10.02326202 -48.69989777
outer loop
vertex 10.47743893 -44.34946060 52.80434418
vertex -5.49937677 -50.06384277 49.23056793
vertex 9.66931438 -41.59033966 51.99621582
endloop
endfacet
facet normal 15.74137783 9.16725540 15.55763817
outer loop
vertex 10.85185242 -45.62778854 53.17875671
vertex 10.47743893 -44.34946060 52.80434418
vertex -0.97805202 -46.78998184 65.83319092
endloop
endfacet
facet normal 30.49511909 17.75934982 30.13916969
outer loop
vertex -0.97805202 -46.78998184 65.83319092
vertex 10.47743893 -44.34946060 52.80434418
vertex -1.70338798 -44.31352997 65.10785675
endloop
endfacet
facet normal -43.49023438 -8.76300621 13.57149410
outer loop
vertex -0.97805202 -46.78998184 65.83319092
vertex -1.70338798 -44.31352997 65.10785675
vertex -4.97189760 -51.86477280 49.75804901
endloop
endfacet
facet normal -31.44933891 -6.33683968 9.81403065
outer loop
vertex -4.97189760 -51.86477280 49.75804901
vertex -1.70338798 -44.31352997 65.10785675
vertex -5.49641418 -50.07396317 49.23353195
endloop
endfacet
facet normal 9.39724159 -6.50560856 -31.60872459
outer loop
vertex -4.97189760 -51.86477280 49.75804901
vertex -5.49641418 -50.07396317 49.23353195
vertex 10.85185242 -45.62778854 53.17875671
endloop
endfacet
facet normal 6.70799446 -4.64385080 -22.56315231
outer loop
vertex 10.85185242 -45.62778854 53.17875671
vertex -5.49641418 -50.07396317 49.23353195
vertex 10.47743893 -44.34946060 52.80434418
endloop
endfacet
facet normal 16.96809387 9.09110546 16.68477821
outer loop
vertex 11.36749363 -46.98852539 53.39579010
vertex 10.85185242 -45.62778854 53.17875671
vertex -0.01474190 -49.30903625 66.23568726
endloop
endfacet
facet normal 31.40942764 16.95163727 30.91972542
outer loop
vertex -0.01474190 -49.30903625 66.23568726
vertex 10.85185242 -45.62778854 53.17875671
vertex -0.97805202 -46.78998184 65.83319092
endloop
endfacet
facet normal -42.54514694 -13.88067818 14.95165825
outer loop
vertex -0.01474190 -49.30903625 66.23568726
vertex -0.97805202 -46.78998184 65.83319092
vertex -4.33505535 -53.53255081 50.02119064
endloop
endfacet
facet normal -28.14515686 -9.18638229 9.89268875
outer loop
vertex -4.33505535 -53.53255081 50.02119064
vertex -0.97805202 -46.78998184 65.83319092
vertex -4.97189760 -51.86477280 49.75804901
endloop
endfacet
facet normal 7.35008812 -1.98290682 -30.35587692
outer loop
vertex -4.33505535 -53.53255081 50.02119064
vertex -4.97189760 -51.86477280 49.75804901
vertex 11.36749363 -46.98852539 53.39579010
endloop
endfacet
facet normal 6.00831699 -1.67042434 -24.74800682
outer loop
vertex 11.36749363 -46.98852539 53.39579010
vertex -4.97189760 -51.86477280 49.75804901
vertex 10.85185242 -45.62778854 53.17875671
endloop
endfacet
facet normal 43.92627716 23.66005707 43.21550751
outer loop
vertex 12.71529388 -50.51049805 53.95406723
vertex 11.36749363 -46.98852539 53.39579010
vertex 0.67556858 -51.11290359 66.52162170
endloop
endfacet
facet normal 22.49795723 12.11808872 22.13391495
outer loop
vertex 0.67556858 -51.11290359 66.52162170
vertex 11.36749363 -46.98852539 53.39579010
vertex -0.01474190 -49.30903625 66.23568726
endloop
endfacet
facet normal -30.45645142 -9.95771122 10.70881081
outer loop
vertex 0.67556858 -51.11290359 66.52162170
vertex -0.01474190 -49.30903625 66.23568726
vertex -4.25272799 -53.74768448 50.05529022
endloop
endfacet
facet normal -3.63230419 -1.18757582 1.27715576
outer loop
vertex -4.25272799 -53.74768448 50.05529022
vertex -0.01474190 -49.30903625 66.23568726
vertex -4.33505535 -53.53255081 50.02119064
endloop
endfacet
facet normal 0.94914484 -0.25762632 -3.91690183
outer loop
vertex -4.25272799 -53.74768448 50.05529022
vertex -4.33505535 -53.53255081 50.02119064
vertex 12.71529388 -50.51049805 53.95406723
endloop
endfacet
facet normal 15.53862667 -4.21808863 -64.12399292
outer loop
vertex 12.71529388 -50.51049805 53.95406723
vertex -4.33505535 -53.53255081 50.02119064
vertex 11.36749363 -46.98852539 53.39579010
endloop
endfacet
facet normal 41.21839142 -0.70689511 39.25123978
outer loop
vertex 12.63676929 -53.79055023 53.97745514
vertex 12.71529388 -50.51049805 53.95406723
vertex 0.67011809 -53.79055023 66.54383850
endloop
endfacet
facet normal 33.63808823 0.19898483 32.23484421
outer loop
vertex 0.67011809 -53.79055023 66.54383850
vertex 12.71529388 -50.51049805 53.95406723
vertex 0.67556858 -51.11290359 66.52162170
endloop
endfacet
facet normal -44.21504211 0.19994912 13.25121498
outer loop
vertex 0.67011809 -53.79055023 66.54383850
vertex 0.67556858 -51.11290359 66.52162170
vertex -4.27871084 -53.79055023 50.03118896
endloop
endfacet
facet normal -0.64234018 0.30906421 0.14279601
outer loop
vertex -4.27871084 -53.79055023 50.03118896
vertex 0.67556858 -51.11290359 66.52162170
vertex -4.25272799 -53.74768448 50.05529022
endloop
endfacet
facet normal 0.16915967 0.30514905 -0.72509480
outer loop
vertex -4.27871084 -53.79055023 50.03118896
vertex -4.25272799 -53.74768448 50.05529022
vertex 12.63676929 -53.79055023 53.97745514
endloop
endfacet
facet normal 12.86390305 -0.70299637 -55.40179825
outer loop
vertex 12.63676929 -53.79055023 53.97745514
vertex -4.25272799 -53.74768448 50.05529022
vertex 12.71529388 -50.51049805 53.95406723
endloop
endfacet
facet normal 9.17786407 -0.00000000 8.73984909
outer loop
vertex 12.63676929 -54.52090073 53.97745514
vertex 12.63676929 -53.79055023 53.97745514
vertex 0.67011803 -55.11135101 66.54383850
endloop
endfacet
facet normal 16.59768867 -0.00000075 15.80556202
outer loop
vertex 0.67011803 -55.11135101 66.54383850
vertex 12.63676929 -53.79055023 53.97745514
vertex 0.67011809 -53.79055023 66.54383850
endloop
endfacet
facet normal -21.80992126 0.00000098 6.53641701
outer loop
vertex 0.67011803 -55.11135101 66.54383850
vertex 0.67011809 -53.79055023 66.54383850
vertex -4.27871084 -57.75464249 50.03118896
endloop
endfacet
facet normal -65.45766449 0.00000000 19.61761284
outer loop
vertex -4.27871084 -57.75464249 50.03118896
vertex 0.67011809 -53.79055023 66.54383850
vertex -4.27871084 -53.79055023 50.03118896
endloop
endfacet
facet normal 15.64336300 0.00000000 -67.05451965
outer loop
vertex -4.27871084 -57.75464249 50.03118896
vertex -4.27871084 -53.79055023 50.03118896
vertex 12.63676929 -54.52090073 53.97745514
endloop
endfacet
facet normal 2.88215756 0.00000000 -12.35422897
outer loop
vertex 12.63676929 -54.52090073 53.97745514
vertex -4.27871084 -53.79055023 50.03118896
vertex 12.63676929 -53.79055023 53.97745514
endloop
endfacet
facet normal 2.08517146 1.90794349 2.19326782
outer loop
vertex 12.78170872 -54.68404388 53.98157883
vertex 12.63676929 -54.52090073 53.97745514
vertex 1.39947104 -57.00455475 66.82147217
endloop
endfacet
facet normal 23.62679482 12.48767471 23.08595467
outer loop
vertex 1.39947104 -57.00455475 66.82147217
vertex 12.63676929 -54.52090073 53.97745514
vertex 0.67011803 -55.11135101 66.54383850
endloop
endfacet
facet normal -31.86993599 -10.62662792 11.25966454
outer loop
vertex 1.39947104 -57.00455475 66.82147217
vertex 0.67011803 -55.11135101 66.54383850
vertex -2.92084122 -61.22806931 50.60697556
endloop
endfacet
facet normal -58.87744904 -19.57255554 20.77864075
outer loop
vertex -2.92084122 -61.22806931 50.60697556
vertex 0.67011803 -55.11135101 66.54383850
vertex -4.27871084 -57.75464249 50.03118896
endloop
endfacet
facet normal 15.48939896 -4.45904684 -63.42758942
outer loop
vertex -2.92084122 -61.22806931 50.60697556
vertex -4.27871084 -57.75464249 50.03118896
vertex 12.78170872 -54.68404388 53.98157883
endloop
endfacet
facet normal 0.65714127 0.50221539 -3.22834134
outer loop
vertex 12.78170872 -54.68404388 53.98157883
vertex -4.27871084 -57.75464249 50.03118896
vertex 12.63676929 -54.52090073 53.97745514
endloop
endfacet
facet normal 43.92626190 23.66005135 43.21551514
outer loop
vertex 14.12950897 -58.20601654 54.53985596
vertex 12.78170872 -54.68404388 53.98157883
vertex 2.08978152 -58.80842209 67.10740662
endloop
endfacet
facet normal 22.49794960 12.11808681 22.13391876
outer loop
vertex 2.08978152 -58.80842209 67.10740662
vertex 12.78170872 -54.68404388 53.98157883
vertex 1.39947104 -57.00455475 66.82147217
endloop
endfacet
facet normal -30.45645142 -9.95771217 10.70880795
outer loop
vertex 2.08978152 -58.80842209 67.10740662
vertex 1.39947104 -57.00455475 66.82147217
vertex -2.83851361 -61.44320297 50.64107513
endloop
endfacet
facet normal -3.63230419 -1.18757987 1.27715635
outer loop
vertex -2.83851361 -61.44320297 50.64107513
vertex 1.39947104 -57.00455475 66.82147217
vertex -2.92084122 -61.22806931 50.60697556
endloop
endfacet
facet normal 0.94914567 -0.25762516 -3.91690278
outer loop
vertex -2.83851361 -61.44320297 50.64107513
vertex -2.92084122 -61.22806931 50.60697556
vertex 14.12950897 -58.20601654 54.53985596
endloop
endfacet
facet normal 15.53864098 -4.21808338 -64.12399292
outer loop
vertex 14.12950897 -58.20601654 54.53985596
vertex -2.92084122 -61.22806931 50.60697556
vertex 12.78170872 -54.68404388 53.98157883
endloop
endfacet
facet normal 41.21837997 -0.70690680 39.25124359
outer loop
vertex 14.05098343 -61.48606873 54.56324387
vertex 14.12950897 -58.20601654 54.53985596
vertex 2.08433104 -61.48606873 67.12962341
endloop
endfacet
facet normal 33.63807678 0.19898491 32.23484802
outer loop
vertex 2.08433104 -61.48606873 67.12962341
vertex 14.12950897 -58.20601654 54.53985596
vertex 2.08978152 -58.80842209 67.10740662
endloop
endfacet
facet normal -44.21504211 0.19994909 13.25121307
outer loop
vertex 2.08433104 -61.48606873 67.12962341
vertex 2.08978152 -58.80842209 67.10740662
vertex -2.86449718 -61.48606873 50.61697388
endloop
endfacet
facet normal -0.64234018 0.30907601 0.14279407
outer loop
vertex -2.86449718 -61.48606873 50.61697388
vertex 2.08978152 -58.80842209 67.10740662
vertex -2.83851361 -61.44320297 50.64107513
endloop
endfacet
facet normal 0.16915983 0.30514619 -0.72509485
outer loop
vertex -2.86449718 -61.48606873 50.61697388
vertex -2.83851361 -61.44320297 50.64107513
vertex 14.05098343 -61.48606873 54.56324387
endloop
endfacet
facet normal 12.86391544 -0.70300043 -55.40179825
outer loop
vertex 14.05098343 -61.48606873 54.56324387
vertex -2.83851361 -61.44320297 50.64107513
vertex 14.12950897 -58.20601654 54.53985596
endloop
endfacet
facet normal 25.13275909 -0.00000000 23.93330383
outer loop
vertex 14.05098343 -63.48606873 54.56324387
vertex 14.05098343 -61.48606873 54.56324387
vertex 2.08433104 -63.48606873 67.12962341
endloop
endfacet
facet normal 25.13275909 -0.00000000 23.93330383
outer loop
vertex 2.08433104 -63.48606873 67.12962341
vertex 14.05098343 -61.48606873 54.56324387
vertex 2.08433104 -61.48606873 67.12962341
endloop
endfacet
facet normal -33.02529907 0.00000000 9.89765644
outer loop
vertex 2.08433104 -63.48606873 67.12962341
vertex 2.08433104 -61.48606873 67.12962341
vertex -2.86449718 -63.48606873 50.61697388
endloop
endfacet
facet normal -33.02529907 0.00000000 9.89765644
outer loop
vertex -2.86449718 -63.48606873 50.61697388
vertex 2.08433104 -61.48606873 67.12962341
vertex -2.86449718 -61.48606873 50.61697388
endloop
endfacet
facet normal 7.89253998 0.00000000 -33.83096313
outer loop
vertex -2.86449718 -63.48606873 50.61697388
vertex -2.86449718 -61.48606873 50.61697388
vertex 14.05098343 -63.48606873 54.56324387
endloop
endfacet
facet normal 7.89253998 0.00000000 -33.83096313
outer loop
vertex 14.05098343 -63.48606873 54.56324387
vertex -2.86449718 -61.48606873 50.61697388
vertex 14.05098343 -61.48606873 54.56324387
endloop
endfacet
facet normal 25.13275909 0.00001198 23.93330765
outer loop
vertex 14.05098438 -65.48606873 54.56324387
vertex 14.05098343 -63.48606873 54.56324387
vertex 2.08433104 -65.48606873 67.12962341
endloop
endfacet
facet normal 25.13275909 -0.00000000 23.93330383
outer loop
vertex 2.08433104 -65.48606873 67.12962341
vertex 14.05098343 -63.48606873 54.56324387
vertex 2.08433104 -63.48606873 67.12962341
endloop
endfacet
facet normal -33.02529907 0.00000000 9.89765835
outer loop
vertex 2.08433104 -65.48606873 67.12962341
vertex 2.08433104 -63.48606873 67.12962341
vertex -2.86449814 -65.48606873 50.61697388
endloop
endfacet
facet normal -33.02529907 0.00001575 9.89765644
outer loop
vertex -2.86449814 -65.48606873 50.61697388
vertex 2.08433104 -63.48606873 67.12962341
vertex -2.86449718 -63.48606873 50.61697388
endloop
endfacet
facet normal 7.89253998 -0.00000376 -33.83096313
outer loop
vertex -2.86449814 -65.48606873 50.61697388
vertex -2.86449718 -63.48606873 50.61697388
vertex 14.05098438 -65.48606873 54.56324387
endloop
endfacet
facet normal 7.89253998 0.00000376 -33.83096313
outer loop
vertex 14.05098438 -65.48606873 54.56324387
vertex -2.86449718 -63.48606873 50.61697388
vertex 14.05098343 -63.48606873 54.56324387
endloop
endfacet
facet normal 17.75584030 -0.00000000 16.90844917
outer loop
vertex 14.05098438 -66.89903259 54.56324387
vertex 14.05098438 -65.48606873 54.56324387
vertex 2.08433104 -66.14311981 67.12962341
endloop
endfacet
facet normal 8.25675297 -0.00000000 7.86270285
outer loop
vertex 2.08433104 -66.14311981 67.12962341
vertex 14.05098438 -65.48606873 54.56324387
vertex 2.08433104 -65.48606873 67.12962341
endloop
endfacet
facet normal -10.84965420 0.00000000 3.25163364
outer loop
vertex 2.08433104 -66.14311981 67.12962341
vertex 2.08433104 -65.48606873 67.12962341
vertex -2.86449814 -69.42102814 50.61697388
endloop
endfacet
facet normal -64.97660828 0.00000000 19.47344208
outer loop
vertex -2.86449814 -69.42102814 50.61697388
vertex 2.08433104 -65.48606873 67.12962341
vertex -2.86449814 -65.48606873 50.61697388
endloop
endfacet
facet normal 15.52841187 0.00000000 -66.56173706
outer loop
vertex -2.86449814 -69.42102814 50.61697388
vertex -2.86449814 -65.48606873 50.61697388
vertex 14.05098438 -66.89903259 54.56324387
endloop
endfacet
facet normal 5.57593679 0.00000000 -23.90096474
outer loop
vertex 14.05098438 -66.89903259 54.56324387
vertex -2.86449814 -65.48606873 50.61697388
vertex 14.05098438 -65.48606873 54.56324387
endloop
endfacet
facet normal 8.34117126 5.30519104 7.71064901
outer loop
vertex 14.30636215 -67.55394745 54.73758698
vertex 14.05098438 -66.89903259 54.56324387
vertex 2.44061351 -67.31741333 67.41088867
endloop
endfacet
facet normal 14.96923065 7.84298468 13.78304482
outer loop
vertex 2.44061351 -67.31741333 67.41088867
vertex 14.05098438 -66.89903259 54.56324387
vertex 2.08433104 -66.14311981 67.12962341
endloop
endfacet
facet normal -20.09593201 -4.40994120 7.04410887
outer loop
vertex 2.44061351 -67.31741333 67.41088867
vertex 2.08433104 -66.14311981 67.12962341
vertex -1.78594875 -73.15795898 51.69659805
endloop
endfacet
facet normal -65.24553680 -12.46683311 22.02881813
outer loop
vertex -1.78594875 -73.15795898 51.69659805
vertex 2.08433104 -66.14311981 67.12962341
vertex -2.86449814 -69.42102814 50.61697388
endloop
endfacet
facet normal 17.41419220 -14.09379292 -66.18006134
outer loop
vertex -1.78594875 -73.15795898 51.69659805
vertex -2.86449814 -69.42102814 50.61697388
vertex 14.30636215 -67.55394745 54.73758698
endloop
endfacet
facet normal 3.02416348 -1.94130814 -11.72226238
outer loop
vertex 14.30636215 -67.55394745 54.73758698
vertex -2.86449814 -69.42102814 50.61697388
vertex 14.05098438 -66.89903259 54.56324387
endloop
endfacet
facet normal 1.59584057 0.90007615 1.47734761
outer loop
vertex 14.34304237 -67.67918396 54.77426529
vertex 14.30636215 -67.55394745 54.73758698
vertex 2.96662855 -69.11334229 67.93690491
endloop
endfacet
facet normal 22.88477135 12.90792370 21.18561935
outer loop
vertex 2.96662855 -69.11334229 67.93690491
vertex 14.30636215 -67.55394745 54.73758698
vertex 2.44061351 -67.31741333 67.41088867
endloop
endfacet
facet normal -31.29397202 -6.04271364 10.66281891
outer loop
vertex 2.96662855 -69.11334229 67.93690491
vertex 2.44061351 -67.31741333 67.41088867
vertex -0.72064185 -76.79514313 52.76190567
endloop
endfacet
facet normal -63.37774658 -12.23795319 21.59475899
outer loop
vertex -0.72064185 -76.79514313 52.76190567
vertex 2.44061351 -67.31741333 67.41088867
vertex -1.78594875 -73.15795898 51.69659805
endloop
endfacet
facet normal 17.03062439 -13.90367794 -64.50068665
outer loop
vertex -0.72064185 -76.79514313 52.76190567
vertex -1.78594875 -73.15795898 51.69659805
vertex 14.34304237 -67.67918396 54.77426529
endloop
endfacet
facet normal 0.58638853 -0.47869462 -2.22090125
outer loop
vertex 14.34304237 -67.67918396 54.77426529
vertex -1.78594875 -73.15795898 51.69659805
vertex 14.30636215 -67.55394745 54.73758698
endloop
endfacet
facet normal -2.78965712 -2.54688001 -2.54546833
outer loop
vertex 14.23363495 -67.45324707 54.66810608
vertex 14.34304237 -67.67918396 54.77426529
vertex 4.65877247 -70.94618988 68.65637207
endloop
endfacet
facet normal 23.09328270 30.45803642 23.27803421
outer loop
vertex 4.65877247 -70.94618988 68.65637207
vertex 14.34304237 -67.67918396 54.77426529
vertex 2.96662855 -69.11334229 67.93690491
endloop
endfacet
facet normal -33.31988144 -23.04589272 19.65679932
outer loop
vertex 4.65877247 -70.94618988 68.65637207
vertex 2.96662855 -69.11334229 67.93690491
vertex 1.70698500 -79.36546326 53.78198242
endloop
endfacet
facet normal -46.84063339 -33.07793427 28.12601089
outer loop
vertex 1.70698500 -79.36546326 53.78198242
vertex 2.96662855 -69.11334229 67.93690491
vertex -0.72064185 -76.79514313 52.76190567
endloop
endfacet
facet normal 14.42899609 -10.62696648 -61.11591339
outer loop
vertex 1.70698500 -79.36546326 53.78198242
vertex -0.72064185 -76.79514313 52.76190567
vertex 14.23363495 -67.45324707 54.66810608
endloop
endfacet
facet normal -1.42240930 1.37898171 4.40079594
outer loop
vertex 14.23363495 -67.45324707 54.66810608
vertex -0.72064185 -76.79514313 52.76190567
vertex 14.34304237 -67.67918396 54.77426529
endloop
endfacet
facet normal 30.83357430 40.42622757 31.19998550
outer loop
vertex 16.48525238 -69.89038086 55.60075760
vertex 14.23363495 -67.45324707 54.66810608
vertex 6.26848698 -72.68852997 69.32313538
endloop
endfacet
facet normal 22.04335022 28.90128326 22.30530739
outer loop
vertex 6.26848698 -72.68852997 69.32313538
vertex 14.23363495 -67.45324707 54.66810608
vertex 4.65877247 -70.94618988 68.65637207
endloop
endfacet
facet normal -31.52991104 -21.97537804 18.69565010
outer loop
vertex 6.26848698 -72.68852997 69.32313538
vertex 4.65877247 -70.94618988 68.65637207
vertex 1.76948190 -79.43311310 53.80786896
endloop
endfacet
facet normal -1.22419584 -0.85319173 0.72586644
outer loop
vertex 1.76948190 -79.43311310 53.80786896
vertex 4.65877247 -70.94618988 68.65637207
vertex 1.70698500 -79.36546326 53.78198242
endloop
endfacet
facet normal 0.36831692 -0.26889032 -1.59191084
outer loop
vertex 1.76948190 -79.43311310 53.80786896
vertex 1.70698500 -79.36546326 53.78198242
vertex 16.48525238 -69.89038086 55.60075760
endloop
endfacet
facet normal 13.26954842 -9.68778801 -57.35087585
outer loop
vertex 16.48525238 -69.89038086 55.60075760
vertex 1.70698500 -79.36546326 53.78198242
vertex 14.23363495 -67.45324707 54.66810608
endloop
endfacet
facet normal 42.28321838 21.87847328 35.94255066
outer loop
vertex 17.70381737 -73.07463837 56.10550308
vertex 16.48525238 -69.89038086 55.60075760
vertex 7.13965702 -74.96501160 69.68398285
endloop
endfacet
facet normal 30.22903633 15.64121819 25.69594193
outer loop
vertex 7.13965702 -74.96501160 69.68398285
vertex 16.48525238 -69.89038086 55.60075760
vertex 6.26848698 -72.68852997 69.32313538
endloop
endfacet
facet normal -37.75399017 -11.89298153 16.11758423
outer loop
vertex 7.13965702 -74.96501160 69.68398285
vertex 6.26848698 -72.68852997 69.32313538
vertex 1.80330181 -79.52149200 53.82187653
endloop
endfacet
facet normal -1.46569741 -0.46170485 0.62571836
outer loop
vertex 1.80330181 -79.52149200 53.82187653
vertex 6.26848698 -72.68852997 69.32313538
vertex 1.76948190 -79.43311310 53.80786896
endloop
endfacet
facet normal 0.29212916 -0.14549550 -1.62330222
outer loop
vertex 1.80330181 -79.52149200 53.82187653
vertex 1.76948190 -79.43311310 53.80786896
vertex 17.70381737 -73.07463837 56.10550308
endloop
endfacet
facet normal 10.52567005 -5.24296713 -58.48724365
outer loop
vertex 17.70381737 -73.07463837 56.10550308
vertex 1.76948190 -79.43311310 53.80786896
vertex 16.48525238 -69.89038086 55.60075760
endloop
endfacet
facet normal -1.72843671 -0.89435250 -1.46924937
outer loop
vertex 17.65400505 -72.94447327 56.08486938
vertex 17.70381737 -73.07463837 56.10550308
vertex 8.07186222 -77.40097809 70.07011414
endloop
endfacet
facet normal 32.34679031 16.73708344 27.49615479
outer loop
vertex 8.07186222 -77.40097809 70.07011414
vertex 17.70381737 -73.07463837 56.10550308
vertex 7.13965702 -74.96501160 69.68398285
endloop
endfacet
facet normal -40.39895630 -12.72620201 17.24676132
outer loop
vertex 8.07186222 -77.40097809 70.07011414
vertex 7.13965702 -74.96501160 69.68398285
vertex 3.03900242 -82.75053406 54.33372116
endloop
endfacet
facet normal -53.55161667 -16.86943054 22.86176109
outer loop
vertex 3.03900242 -82.75053406 54.33372116
vertex 7.13965702 -74.96501160 69.68398285
vertex 1.80330181 -79.52149200 53.82187653
endloop
endfacet
facet normal 10.67371178 -5.31671619 -59.30981445
outer loop
vertex 3.03900242 -82.75053406 54.33372116
vertex 1.80330181 -79.52149200 53.82187653
vertex 17.65400505 -72.94447327 56.08486938
endloop
endfacet
facet normal -0.43027091 0.21433370 2.39082479
outer loop
vertex 17.65400505 -72.94447327 56.08486938
vertex 1.80330181 -79.52149200 53.82187653
vertex 17.70381737 -73.07463837 56.10550308
endloop
endfacet
facet normal -3.71369910 -3.14708591 -3.44006109
outer loop
vertex 17.43969536 -72.67101288 56.06605530
vertex 17.65400505 -72.94447327 56.08486938
vertex 10.38706684 -79.72364044 70.13166809
endloop
endfacet
facet normal 32.20868301 32.96852112 32.57380295
outer loop
vertex 10.38706684 -79.72364044 70.13166809
vertex 17.65400505 -72.94447327 56.08486938
vertex 8.07186222 -77.40097809 70.07011414
endloop
endfacet
facet normal -36.93529510 -36.18306351 23.90953827
outer loop
vertex 10.38706684 -79.72364044 70.13166809
vertex 8.07186222 -77.40097809 70.07011414
vertex 5.23178053 -84.87892914 54.36615372
endloop
endfacet
facet normal -33.66676331 -34.34318924 22.44230270
outer loop
vertex 5.23178053 -84.87892914 54.36615372
vertex 8.07186222 -77.40097809 70.07011414
vertex 3.03900242 -82.75053406 54.33372116
endloop
endfacet
facet normal 4.01399612 3.33157301 -52.75251770
outer loop
vertex 5.23178053 -84.87892914 54.36615372
vertex 3.03900242 -82.75053406 54.33372116
vertex 17.43969536 -72.67101288 56.06605530
endloop
endfacet
facet normal -0.66336173 -0.10032010 6.09815788
outer loop
vertex 17.43969536 -72.67101288 56.06605530
vertex 3.03900242 -82.75053406 54.33372116
vertex 17.65400505 -72.94447327 56.08486938
endloop
endfacet
facet normal -61.77454376 61.77451706 -0.00001955
outer loop
vertex 10.99095917 -79.11975098 60.16820145
vertex 10.38706684 -79.72364044 70.13166809
vertex 17.43969536 -72.67101288 56.06605530
endloop
endfacet
facet normal -60.88517380 60.88519669 -0.00001597
outer loop
vertex 10.99095917 -79.11975098 60.16820145
vertex 5.23178053 -84.87892914 54.36615372
vertex 10.38706684 -79.72364044 70.13166809
endloop
endfacet
facet normal -61.04087830 61.04086685 0.00001526
outer loop
vertex 10.99095917 -79.11975098 60.16820145
vertex 17.43969536 -72.67101288 56.06605530
vertex 5.23178053 -84.87892914 54.36615372
endloop
endfacet
endsolid