solid (null).stl
facet normal 0.00000000 -0.00000000 86.60253906
outer loop
vertex 0.00000000 0.00000000 0.00000000
vertex 10.00000000 0.00000000 0.00000000
vertex -5.00000048 8.66025352 0.00000000
endloop
endfacet
facet normal 0.00000000 0.00000000 86.60253906
outer loop
vertex 0.00000000 0.00000000 0.00000000
vertex -5.00000048 8.66025352 0.00000000
vertex -4.99999905 -8.66025448 0.00000000
endloop
endfacet
facet normal -0.00000000 0.00000000 86.60254669
outer loop
vertex 0.00000000 0.00000000 0.00000000
vertex -4.99999905 -8.66025448 0.00000000
vertex 10.00000000 0.00000000 0.00000000
endloop
endfacet
facet normal 17.32050705 30.00000000 0.00000000
outer loop
vertex 10.00000000 0.00000000 2.00000000
vertex 10.00000000 0.00000000 0.00000000
vertex -5.00000048 8.66025352 2.00000000
endloop
endfacet
facet normal 17.32050705 30.00000000 0.00000000
outer loop
vertex -5.00000048 8.66025352 2.00000000
vertex 10.00000000 0.00000000 0.00000000
vertex -5.00000048 8.66025352 0.00000000
endloop
endfacet
facet normal -34.64101410 -0.00000286 -0.00000000
outer loop
vertex -5.00000048 8.66025352 2.00000000
vertex -5.00000048 8.66025352 0.00000000
vertex -4.99999905 -8.66025448 2.00000000
endloop
endfacet
facet normal -34.64101410 -0.00000286 -0.00000000
outer loop
vertex -4.99999905 -8.66025448 2.00000000
vertex -5.00000048 8.66025352 0.00000000
vertex -4.99999905 -8.66025448 0.00000000
endloop
endfacet
facet normal 17.32050896 -29.99999809 0.00000000
outer loop
vertex -4.99999905 -8.66025448 2.00000000
vertex -4.99999905 -8.66025448 0.00000000
vertex 10.00000000 0.00000000 2.00000000
endloop
endfacet
facet normal 17.32050896 -29.99999809 0.00000000
outer loop
vertex 10.00000000 0.00000000 2.00000000
vertex -4.99999905 -8.66025448 0.00000000
vertex 10.00000000 0.00000000 0.00000000
endloop
endfacet
facet normal 34.54681778 59.83684921 0.00000000
outer loop
vertex 10.00000000 0.00000000 5.98912334
vertex 10.00000000 0.00000000 2.00000000
vertex -5.00000048 8.66025352 4.76181793
endloop
endfacet
facet normal 23.91804314 41.42726898 0.00000000
outer loop
vertex -5.00000048 8.66025352 4.76181793
vertex 10.00000000 0.00000000 2.00000000
vertex -5.00000048 8.66025352 2.00000000
endloop
endfacet
facet normal -47.83608627 -0.00000395 -0.00000000
outer loop
vertex -5.00000048 8.66025352 4.76181793
vertex -5.00000048 8.66025352 2.00000000
vertex -4.99999905 -8.66025448 1.24905825
endloop
endfacet
facet normal 13.00669193 0.00000107 -0.00000000
outer loop
vertex -4.99999905 -8.66025448 1.24905825
vertex -5.00000048 8.66025352 2.00000000
vertex -4.99999905 -8.66025448 2.00000000
endloop
endfacet
facet normal -6.50334692 11.26412582 0.00000000
outer loop
vertex -4.99999905 -8.66025448 1.24905825
vertex -4.99999905 -8.66025448 2.00000000
vertex 10.00000000 0.00000000 5.98912334
endloop
endfacet
facet normal 34.54682159 -59.83684540 0.00000000
outer loop
vertex 10.00000000 0.00000000 5.98912334
vertex -4.99999905 -8.66025448 2.00000000
vertex 10.00000000 0.00000000 2.00000000
endloop
endfacet
facet normal 26.51861763 50.61960983 33.97267914
outer loop
vertex 8.61619282 -1.46659970 9.25455189
vertex 10.00000000 0.00000000 5.98912334
vertex -6.02986145 7.56123304 7.23550987
endloop
endfacet
facet normal 20.07396507 38.36933517 25.40416336
outer loop
vertex -6.02986145 7.56123304 7.23550987
vertex 10.00000000 0.00000000 5.98912334
vertex -5.00000048 8.66025352 4.76181793
endloop
endfacet
facet normal -46.68845749 3.61378741 -17.83204651
outer loop
vertex -6.02986145 7.56123304 7.23550987
vertex -5.00000048 8.66025352 4.76181793
vertex -4.73866034 -8.37586021 0.62508249
endloop
endfacet
facet normal 11.80658627 -0.91801924 4.52651978
outer loop
vertex -4.73866034 -8.37586021 0.62508249
vertex -5.00000048 8.66025352 4.76181793
vertex -4.99999905 -8.66025448 1.24905825
endloop
endfacet
facet normal -6.76538277 10.58831787 1.99238622
outer loop
vertex -4.73866034 -8.37586021 0.62508249
vertex -4.99999905 -8.66025448 1.24905825
vertex 8.61619282 -1.46659970 9.25455189
endloop
endfacet
facet normal 35.23122025 -55.54076004 -10.01487160
outer loop
vertex 8.61619282 -1.46659970 9.25455189
vertex -4.99999905 -8.66025448 1.24905825
vertex 10.00000000 0.00000000 5.98912334
endloop
endfacet
facet normal 1.16191816 2.21471119 1.47422540
outer loop
vertex 8.55694103 -1.53073370 9.39759922
vertex 8.61619282 -1.46659970 9.25455189
vertex -6.41978979 7.13917732 8.17688084
endloop
endfacet
facet normal 7.64639139 14.57465172 9.70165825
outer loop
vertex -6.41978979 7.13917732 8.17688084
vertex 8.61619282 -1.46659970 9.25455189
vertex -6.02986145 7.56123304 7.23550987
endloop
endfacet
facet normal -17.79268646 1.36209452 -6.75928211
outer loop
vertex -6.41978979 7.13917732 8.17688084
vertex -6.02986145 7.56123304 7.23550987
vertex -6.41186714 -10.18692684 4.66456175
endloop
endfacet
facet normal -76.34947968 5.84483194 -29.00450325
outer loop
vertex -6.41186714 -10.18692684 4.66456175
vertex -6.02986145 7.56123304 7.23550987
vertex -4.73866034 -8.37586021 0.62508249
endloop
endfacet
facet normal 43.53835678 -68.38554382 -12.62590790
outer loop
vertex -6.41186714 -10.18692684 4.66456175
vertex -4.73866034 -8.37586021 0.62508249
vertex 8.55694103 -1.53073370 9.39759922
endloop
endfacet
facet normal 1.54179370 -2.42168760 -0.44711414
outer loop
vertex 8.55694103 -1.53073370 9.39759922
vertex -4.73866034 -8.37586021 0.62508249
vertex 8.61619282 -1.46659970 9.25455189
endloop
endfacet
facet normal 0.14388113 0.24920942 -0.24981186
outer loop
vertex 8.58578682 -1.53073370 9.41421318
vertex 8.55694103 -1.53073370 9.39759922
vertex -6.41421413 7.12952042 9.41421318
endloop
endfacet
facet normal 10.71577358 18.52438736 0.09628844
outer loop
vertex -6.41421413 7.12952042 9.41421318
vertex 8.55694103 -1.53073370 9.39759922
vertex -6.41978979 7.13917732 8.17688084
endloop
endfacet
facet normal -21.43122673 -0.00000236 0.09657320
outer loop
vertex -6.41421413 7.12952042 9.41421318
vertex -6.41978979 7.13917732 8.17688084
vertex -6.41421223 -10.19098854 9.41421318
endloop
endfacet
facet normal -82.30722046 -0.02939313 -0.04066337
outer loop
vertex -6.41421223 -10.19098854 9.41421318
vertex -6.41978979 7.13917732 8.17688084
vertex -6.41186714 -10.18692684 4.66456175
endloop
endfacet
facet normal 41.13319016 -71.24476624 -0.04061645
outer loop
vertex -6.41421223 -10.19098854 9.41421318
vertex -6.41186714 -10.18692684 4.66456175
vertex 8.58578682 -1.53073370 9.41421318
endloop
endfacet
facet normal 0.14381364 -0.11216299 -0.24969469
outer loop
vertex 8.58578682 -1.53073370 9.41421318
vertex -6.41186714 -10.18692684 4.66456175
vertex 8.55694103 -1.53073370 9.39759922
endloop
endfacet
facet normal 34.54682159 59.83685303 0.00000000
outer loop
vertex 8.58578682 -1.53073370 13.40333652
vertex 8.58578682 -1.53073370 9.41421318
vertex -6.41421413 7.12952042 12.17603111
endloop
endfacet
facet normal 23.91804695 41.42727280 0.00000000
outer loop
vertex -6.41421413 7.12952042 12.17603111
vertex 8.58578682 -1.53073370 9.41421318
vertex -6.41421413 7.12952042 9.41421318
endloop
endfacet
facet normal -47.83609390 -0.00000527 -0.00000000
outer loop
vertex -6.41421413 7.12952042 12.17603111
vertex -6.41421413 7.12952042 9.41421318
vertex -6.41421223 -10.19098854 8.66327095
endloop
endfacet
facet normal 13.00670147 0.00000143 -0.00000000
outer loop
vertex -6.41421223 -10.19098854 8.66327095
vertex -6.41421413 7.12952042 9.41421318
vertex -6.41421223 -10.19098854 9.41421318
endloop
endfacet
facet normal -6.50335073 11.26413250 0.00000000
outer loop
vertex -6.41421223 -10.19098854 8.66327095
vertex -6.41421223 -10.19098854 9.41421318
vertex 8.58578682 -1.53073370 13.40333652
endloop
endfacet
facet normal 34.54682159 -59.83684540 0.00000000
outer loop
vertex 8.58578682 -1.53073370 13.40333652
vertex -6.41421223 -10.19098854 9.41421318
vertex 8.58578682 -1.53073370 9.41421318
endloop
endfacet
facet normal 26.51861000 50.61959076 33.97267914
outer loop
vertex 7.20197916 -2.99733329 16.66876411
vertex 8.58578682 -1.53073370 13.40333652
vertex -7.44407415 6.03049946 14.64972305
endloop
endfacet
facet normal 20.07396507 38.36933517 25.40416527
outer loop
vertex -7.44407415 6.03049946 14.64972305
vertex 8.58578682 -1.53073370 13.40333652
vertex -6.41421413 7.12952042 12.17603111
endloop
endfacet
facet normal -46.68846130 3.61378288 -17.83203125
outer loop
vertex -7.44407415 6.03049946 14.64972305
vertex -6.41421413 7.12952042 12.17603111
vertex -6.15287352 -9.90659428 8.03929520
endloop
endfacet
facet normal 11.80658627 -0.91801906 4.52651978
outer loop
vertex -6.15287352 -9.90659428 8.03929520
vertex -6.41421413 7.12952042 12.17603111
vertex -6.41421223 -10.19098854 8.66327095
endloop
endfacet
facet normal -6.76538277 10.58831787 1.99238622
outer loop
vertex -6.15287352 -9.90659428 8.03929520
vertex -6.41421223 -10.19098854 8.66327095
vertex 7.20197916 -2.99733329 16.66876411
endloop
endfacet
facet normal 35.23121262 -55.54075241 -10.01486683
outer loop
vertex 7.20197916 -2.99733329 16.66876411
vertex -6.41421223 -10.19098854 8.66327095
vertex 8.58578682 -1.53073370 13.40333652
endloop
endfacet
facet normal 14.91290474 28.42522049 18.92133331
outer loop
vertex 6.44149399 -3.82047653 18.50473785
vertex 7.20197916 -2.99733329 16.66876411
vertex -7.51735640 5.95117950 14.82664204
endloop
endfacet
facet normal 1.43704486 2.73912454 1.82330406
outer loop
vertex -7.51735640 5.95117950 14.82664204
vertex 7.20197916 -2.99733329 16.66876411
vertex -7.44407415 6.03049946 14.64972305
endloop
endfacet
facet normal -3.34391403 0.25598907 -1.27032423
outer loop
vertex -7.51735640 5.95117950 14.82664204
vertex -7.44407415 6.03049946 14.64972305
vertex -7.43929482 -11.29900646 11.14499092
endloop
endfacet
facet normal -58.70020294 4.49371910 -22.29969978
outer loop
vertex -7.43929482 -11.29900646 11.14499092
vertex -7.44407415 6.03049946 14.64972305
vertex -6.15287352 -9.90659428 8.03929520
endloop
endfacet
facet normal 33.47383881 -52.57723999 -9.70723915
outer loop
vertex -7.43929482 -11.29900646 11.14499092
vertex -6.15287352 -9.90659428 8.03929520
vertex 6.44149399 -3.82047653 18.50473785
endloop
endfacet
facet normal 19.78850937 -31.08174324 -5.73856688
outer loop
vertex 6.44149399 -3.82047653 18.50473785
vertex -6.15287352 -9.90659428 8.03929520
vertex 7.20197916 -2.99733329 16.66876411
endloop
endfacet
facet normal 19.41866112 30.76723480 8.04347038
outer loop
vertex 5.61835098 -3.82047653 20.49198151
vertex 6.44149399 -3.82047653 18.50473785
vertex -7.59667587 5.95117903 15.01813698
endloop
endfacet
facet normal 1.87122107 2.96479392 0.77508932
outer loop
vertex -7.59667587 5.95117903 15.01813698
vertex 6.44149399 -3.82047653 18.50473785
vertex -7.51735640 5.95117950 14.82664204
endloop
endfacet
facet normal -3.30332351 0.27707919 -1.36827505
outer loop
vertex -7.59667587 5.95117903 15.01813698
vertex -7.51735640 5.95117950 14.82664204
vertex -8.83170605 -11.29900551 14.50657082
endloop
endfacet
facet normal -57.98787689 4.86396217 -24.01935387
outer loop
vertex -8.83170605 -11.29900551 14.50657082
vertex -7.51735640 5.95117950 14.82664204
vertex -7.43929482 -11.29900646 11.14499092
endloop
endfacet
facet normal 25.13966751 -56.90917206 10.41320133
outer loop
vertex -8.83170605 -11.29900551 14.50657082
vertex -7.43929482 -11.29900646 11.14499092
vertex 5.61835098 -3.82047653 20.49198151
endloop
endfacet
facet normal 14.86166096 -33.64263153 6.15589952
outer loop
vertex 5.61835098 -3.82047653 20.49198151
vertex -7.43929482 -11.29900646 11.14499092
vertex 6.44149399 -3.82047653 18.50473785
endloop
endfacet
facet normal 0.14997962 0.23763050 0.06212496
outer loop
vertex 5.61199331 -3.82047653 20.50732994
vertex 5.61835098 -3.82047653 20.49198151
vertex -8.69184875 5.95117903 17.66211891
endloop
endfacet
facet normal 25.83608246 40.93510056 10.70165253
outer loop
vertex -8.69184875 5.95117903 17.66211891
vertex 5.61835098 -3.82047653 20.49198151
vertex -7.59667587 5.95117903 15.01813698
endloop
endfacet
facet normal -45.60917664 3.82565141 -18.89193535
outer loop
vertex -8.69184875 5.95117903 17.66211891
vertex -7.59667587 5.95117903 15.01813698
vertex -10.02863598 -11.29900551 17.39621544
endloop
endfacet
facet normal -49.84690475 4.18110752 -20.64726257
outer loop
vertex -10.02863598 -11.29900551 17.39621544
vertex -7.59667587 5.95117903 15.01813698
vertex -8.83170605 -11.29900551 14.50657082
endloop
endfacet
facet normal 21.61029053 -48.91964340 8.95127487
outer loop
vertex -10.02863598 -11.29900551 17.39621544
vertex -8.83170605 -11.29900551 14.50657082
vertex 5.61199331 -3.82047653 20.50732994
endloop
endfacet
facet normal 0.11478371 -0.25983900 0.04754602
outer loop
vertex 5.61199331 -3.82047653 20.50732994
vertex -8.83170605 -11.29900551 14.50657082
vertex 5.61835098 -3.82047653 20.49198151
endloop
endfacet
facet normal 0.16235523 0.23765710 0.00000466
outer loop
vertex 5.61199284 -3.82047653 20.52394485
vertex 5.61199331 -3.82047653 20.50732994
vertex -8.69184875 5.95117998 20.52394485
endloop
endfacet
facet normal 27.96477890 40.93510818 -0.00001364
outer loop
vertex -8.69184875 5.95117998 20.52394485
vertex 5.61199331 -3.82047653 20.50732994
vertex -8.69184875 5.95117903 17.66211891
endloop
endfacet
facet normal -49.36702728 3.82565498 -0.00000127
outer loop
vertex -8.69184875 5.95117998 20.52394485
vertex -8.69184875 5.95117903 17.66211891
vertex -10.02863693 -11.29900551 20.52394485
endloop
endfacet
facet normal -53.95391083 4.18110895 -0.00001645
outer loop
vertex -10.02863693 -11.29900551 20.52394485
vertex -8.69184875 5.95117903 17.66211891
vertex -10.02863598 -11.29900551 17.39621544
endloop
endfacet
facet normal 23.39081573 -48.91965866 0.00000713
outer loop
vertex -10.02863693 -11.29900551 20.52394485
vertex -10.02863598 -11.29900551 17.39621544
vertex 5.61199284 -3.82047653 20.52394485
endloop
endfacet
facet normal 0.12425511 -0.25986919 0.00000357
outer loop
vertex 5.61199284 -3.82047653 20.52394485
vertex -10.02863598 -11.29900551 17.39621544
vertex 5.61199331 -3.82047653 20.50732994
endloop
endfacet
facet normal 37.42009354 54.77588272 0.00000000
outer loop
vertex 5.61199284 -3.82047653 24.35339737
vertex 5.61199284 -3.82047653 20.52394485
vertex -8.69184875 5.95117998 23.48996735
endloop
endfacet
facet normal 28.98295212 42.42551422 0.00000000
outer loop
vertex -8.69184875 5.95117998 23.48996735
vertex 5.61199284 -3.82047653 20.52394485
vertex -8.69184875 5.95117998 20.52394485
endloop
endfacet
facet normal -51.16443634 3.96494389 0.00000000
outer loop
vertex -8.69184875 5.95117998 23.48996735
vertex -8.69184875 5.95117998 20.52394485
vertex -10.02863693 -11.29900551 19.72556686
endloop
endfacet
facet normal 13.77216816 -1.06726229 0.00000000
outer loop
vertex -10.02863693 -11.29900551 19.72556686
vertex -8.69184875 5.95117998 20.52394485
vertex -10.02863693 -11.29900551 20.52394485
endloop
endfacet
facet normal -5.97069311 12.48713493 0.00000000
outer loop
vertex -10.02863693 -11.29900551 19.72556686
vertex -10.02863693 -11.29900551 20.52394485
vertex 5.61199284 -3.82047653 24.35339737
endloop
endfacet
facet normal 28.63867188 -59.89505005 0.00000000
outer loop
vertex 5.61199284 -3.82047653 24.35339737
vertex -10.02863693 -11.29900551 20.52394485
vertex 5.61199284 -3.82047653 20.52394485
endloop
endfacet
facet normal 29.37982178 45.80351639 32.98210907
outer loop
vertex 4.28773212 -5.22239256 27.47991753
vertex 5.61199284 -3.82047653 24.35339737
vertex -9.79140854 4.77891159 26.13214874
endloop
endfacet
facet normal 24.80631828 38.74273682 27.51246262
outer loop
vertex -9.79140854 4.77891159 26.13214874
vertex 5.61199284 -3.82047653 24.35339737
vertex -8.69184875 5.95117998 23.48996735
endloop
endfacet
facet normal -49.96197891 7.65946293 -17.39367294
outer loop
vertex -9.79140854 4.77891159 26.13214874
vertex -8.69184875 5.95117998 23.48996735
vertex -9.75308800 -10.99899387 19.07413101
endloop
endfacet
facet normal 12.36675358 -1.90810823 4.35221815
outer loop
vertex -9.75308800 -10.99899387 19.07413101
vertex -8.69184875 5.95117998 23.48996735
vertex -10.02863693 -11.29900551 19.72556686
endloop
endfacet
facet normal -6.28491879 11.46289825 2.62067318
outer loop
vertex -9.75308800 -10.99899387 19.07413101
vertex -10.02863693 -11.29900551 19.72556686
vertex 4.28773212 -5.22239256 27.47991753
endloop
endfacet
facet normal 29.86960220 -55.02919769 -12.02332687
outer loop
vertex 4.28773212 -5.22239256 27.47991753
vertex -10.02863693 -11.29900551 19.72556686
vertex 5.61199284 -3.82047653 24.35339737
endloop
endfacet
facet normal 26.83208656 41.79528046 29.85278320
outer loop
vertex 3.10499668 -6.50257635 30.33529282
vertex 4.28773212 -5.22239256 27.47991753
vertex -10.96846485 3.50487494 28.97381401
endloop
endfacet
facet normal 26.70325089 41.59460449 29.70943832
outer loop
vertex -10.96846485 3.50487494 28.97381401
vertex 4.28773212 -5.22239256 27.47991753
vertex -9.79140854 4.77891159 26.13214874
endloop
endfacet
facet normal -53.82769775 8.19878960 -18.62030602
outer loop
vertex -10.96846485 3.50487494 28.97381401
vertex -9.79140854 4.77891159 26.13214874
vertex -9.51430893 -10.74054146 18.49766731
endloop
endfacet
facet normal 10.91955185 -1.66321659 3.77733755
outer loop
vertex -9.51430893 -10.74054146 18.49766731
vertex -9.79140854 4.77891159 26.13214874
vertex -9.75308800 -10.99899387 19.07413101
endloop
endfacet
facet normal -5.50249577 10.10114861 2.24955273
outer loop
vertex -9.51430893 -10.74054146 18.49766731
vertex -9.75308800 -10.99899387 19.07413101
vertex 3.10499668 -6.50257635 30.33529282
endloop
endfacet
facet normal 27.25531769 -50.03363037 -11.14264011
outer loop
vertex 3.10499668 -6.50257635 30.33529282
vertex -9.75308800 -10.99899387 19.07413101
vertex 4.28773212 -5.22239256 27.47991753
endloop
endfacet
facet normal 11.56304550 21.90613365 43.42462158
outer loop
vertex 1.61750221 -8.53312874 31.75572014
vertex 3.10499668 -6.50257635 30.33529282
vertex -12.79845238 0.98103809 30.79483032
endloop
endfacet
facet normal 14.78758144 28.11949158 53.83263397
outer loop
vertex -12.79845238 0.98103809 30.79483032
vertex 3.10499668 -6.50257635 30.33529282
vertex -10.96846485 3.50487494 28.97381401
endloop
endfacet
facet normal -52.23194122 16.43214798 -29.71512985
outer loop
vertex -12.79845238 0.98103809 30.79483032
vertex -10.96846485 3.50487494 28.97381401
vertex -9.25406075 -10.36858177 18.28843689
endloop
endfacet
facet normal 6.87727880 -2.42214441 4.24823141
outer loop
vertex -9.25406075 -10.36858177 18.28843689
vertex -10.96846485 3.50487494 28.97381401
vertex -9.51430893 -10.74054146 18.49766731
endloop
endfacet
facet normal -5.39331913 5.77949810 3.56610990
outer loop
vertex -9.25406075 -10.36858177 18.28843689
vertex -9.51430893 -10.74054146 18.49766731
vertex 1.61750221 -8.53312874 31.75572014
endloop
endfacet
facet normal 30.05664062 -35.53321075 -19.32021141
outer loop
vertex 1.61750221 -8.53312874 31.75572014
vertex -9.51430893 -10.74054146 18.49766731
vertex 3.10499668 -6.50257635 30.33529282
endloop
endfacet
facet normal 4.54541540 8.57043362 16.66582870
outer loop
vertex 1.06014299 -9.32135391 32.31307983
vertex 1.61750221 -8.53312874 31.75572014
vertex -12.99004650 0.71008354 30.98642349
endloop
endfacet
facet normal 1.56249189 2.94609928 5.72892714
outer loop
vertex -12.99004650 0.71008354 30.98642349
vertex 1.61750221 -8.53312874 31.75572014
vertex -12.79845238 0.98103809 30.79483032
endloop
endfacet
facet normal -5.56317186 1.71706820 -3.13489056
outer loop
vertex -12.99004650 0.71008354 30.98642349
vertex -12.79845238 0.98103809 30.79483032
vertex -11.49724007 -13.54091644 20.53161621
endloop
endfacet
facet normal -65.13369751 20.10337830 -36.70322800
outer loop
vertex -11.49724007 -13.54091644 20.53161621
vertex -12.79845238 0.98103809 30.79483032
vertex -9.25406075 -10.36858177 18.28843689
endloop
endfacet
facet normal 46.83998108 -54.59639740 -30.37098312
outer loop
vertex -11.49724007 -13.54091644 20.53161621
vertex -9.25406075 -10.36858177 18.28843689
vertex 1.06014299 -9.32135391 32.31307983
endloop
endfacet
facet normal 11.63825989 -13.56548500 -7.54623222
outer loop
vertex 1.06014299 -9.32135391 32.31307983
vertex -9.25406075 -10.36858177 18.28843689
vertex 1.61750221 -8.53312874 31.75572014
endloop
endfacet
facet normal 5.46057701 8.43222523 5.52988434
outer loop
vertex 0.87351894 -9.58155441 32.89413071
vertex 1.06014299 -9.32135391 32.31307983
vertex -13.20562363 0.41975117 31.54636002
endloop
endfacet
facet normal 5.23179674 8.15321064 6.24177313
outer loop
vertex -13.20562363 0.41975117 31.54636002
vertex 1.06014299 -9.32135391 32.31307983
vertex -12.99004650 0.71008354 30.98642349
endloop
endfacet
facet normal -10.88379669 1.50008905 -3.41248202
outer loop
vertex -13.20562363 0.41975117 31.54636002
vertex -12.99004650 0.71008354 30.98642349
vertex -13.16730118 -15.35815525 24.48834229
endloop
endfacet
facet normal -75.38618469 11.55354118 -26.51282692
outer loop
vertex -13.16730118 -15.35815525 24.48834229
vertex -12.99004650 0.71008354 30.98642349
vertex -11.49724007 -13.54091644 20.53161621
endloop
endfacet
facet normal 38.13175201 -69.59385681 -15.86824703
outer loop
vertex -13.16730118 -15.35815525 24.48834229
vertex -11.49724007 -13.54091644 20.53161621
vertex 0.87351894 -9.58155441 32.89413071
endloop
endfacet
facet normal 5.51732349 -9.49518299 -2.47996569
outer loop
vertex 0.87351894 -9.58155441 32.89413071
vertex -11.49724007 -13.54091644 20.53161621
vertex 1.06014299 -9.32135391 32.31307983
endloop
endfacet
facet normal 2.65664816 4.13815641 2.95572329
outer loop
vertex 0.75641638 -9.70830536 33.17684174
vertex 0.87351894 -9.58155441 32.89413071
vertex -13.52593327 0.07305071 32.31965637
endloop
endfacet
facet normal 7.26670027 11.31905365 8.08475971
outer loop
vertex -13.52593327 0.07305071 32.31965637
vertex 0.87351894 -9.58155441 32.89413071
vertex -13.20562363 0.41975117 31.54636002
endloop
endfacet
facet normal -14.64801693 2.23111725 -5.06710243
outer loop
vertex -13.52593327 0.07305071 32.31965637
vertex -13.20562363 0.41975117 31.54636002
vertex -14.85231876 -17.18200493 28.55633545
endloop
endfacet
facet normal -77.05718231 11.73698807 -26.65594482
outer loop
vertex -14.85231876 -17.18200493 28.55633545
vertex -13.20562363 0.41975117 31.54636002
vertex -13.16730118 -15.35815525 24.48834229
endloop
endfacet
facet normal 38.83006668 -71.28186035 -15.87467194
outer loop
vertex -14.85231876 -17.18200493 28.55633545
vertex -13.16730118 -15.35815525 24.48834229
vertex 0.75641638 -9.70830536 33.17684174
endloop
endfacet
facet normal 2.69855046 -4.95383406 -1.10323250
outer loop
vertex 0.75641638 -9.70830536 33.17684174
vertex -13.16730118 -15.35815525 24.48834229
vertex 0.87351894 -9.58155441 32.89413071
endloop
endfacet
facet normal 1.71521366 2.51074648 -0.23575020
outer loop
vertex 0.78356743 -9.71037197 33.35237122
vertex 0.75641638 -9.70830536 33.17684174
vertex -13.52027702 0.06128407 33.35237122
endloop
endfacet
facet normal 10.09126568 14.74474621 0.11272958
outer loop
vertex -13.52027702 0.06128407 33.35237122
vertex 0.75641638 -9.70830536 33.17684174
vertex -13.52593327 0.07305071 32.31965637
endloop
endfacet
facet normal -17.81451988 1.38051999 0.11330071
outer loop
vertex -13.52027702 0.06128407 33.35237122
vertex -13.52593327 0.07305071 32.31965637
vertex -14.85706425 -17.18889999 33.35237122
endloop
endfacet
facet normal -82.78181458 6.37925100 -0.07273807
outer loop
vertex -14.85706425 -17.18889999 33.35237122
vertex -13.52593327 0.07305071 32.31965637
vertex -14.85231876 -17.18200493 28.55633545
endloop
endfacet
facet normal 35.86728668 -75.01303101 -0.07235394
outer loop
vertex -14.85706425 -17.18889999 33.35237122
vertex -14.85231876 -17.18200493 28.55633545
vertex 0.78356743 -9.71037197 33.35237122
endloop
endfacet
facet normal 1.32140338 -2.61434174 -0.23517598
outer loop
vertex 0.78356743 -9.71037197 33.35237122
vertex -14.85231876 -17.18200493 28.55633545
vertex 0.75641638 -9.70830536 33.17684174
endloop
endfacet
facet normal 37.42009354 54.77589417 0.00000175
outer loop
vertex 0.78356725 -9.71037197 37.18182373
vertex 0.78356743 -9.71037197 33.35237122
vertex -13.52027702 0.06128407 36.31839371
endloop
endfacet
facet normal 28.98295212 42.42552567 0.00000000
outer loop
vertex -13.52027702 0.06128407 36.31839371
vertex 0.78356743 -9.71037197 33.35237122
vertex -13.52027702 0.06128407 33.35237122
endloop
endfacet
facet normal -51.16443253 3.96494102 0.00000000
outer loop
vertex -13.52027702 0.06128407 36.31839371
vertex -13.52027702 0.06128407 33.35237122
vertex -14.85706425 -17.18889999 32.55399323
endloop
endfacet
facet normal 13.77216625 -1.06726146 0.00000000
outer loop
vertex -14.85706425 -17.18889999 32.55399323
vertex -13.52027702 0.06128407 33.35237122
vertex -14.85706425 -17.18889999 33.35237122
endloop
endfacet
facet normal -5.97069216 12.48713589 0.00000000
outer loop
vertex -14.85706425 -17.18889999 32.55399323
vertex -14.85706425 -17.18889999 33.35237122
vertex 0.78356725 -9.71037197 37.18182373
endloop
endfacet
facet normal 28.63866806 -59.89505768 0.00000134
outer loop
vertex 0.78356725 -9.71037197 37.18182373
vertex -14.85706425 -17.18889999 33.35237122
vertex 0.78356743 -9.71037197 33.35237122
endloop
endfacet
facet normal 29.37983131 45.80355072 32.98210907
outer loop
vertex -0.54069424 -11.11228752 40.30834579
vertex 0.78356725 -9.71037197 37.18182373
vertex -14.61983681 -1.11098480 38.96057510
endloop
endfacet
facet normal 24.80631447 38.74274445 27.51247025
outer loop
vertex -14.61983681 -1.11098480 38.96057510
vertex 0.78356725 -9.71037197 37.18182373
vertex -13.52027702 0.06128407 36.31839371
endloop
endfacet
facet normal -49.96198273 7.65945768 -17.39367294
outer loop
vertex -14.61983681 -1.11098480 38.96057510
vertex -13.52027702 0.06128407 36.31839371
vertex -14.58151436 -16.88888931 31.90255737
endloop
endfacet
facet normal 12.36674881 -1.90811121 4.35223532
outer loop
vertex -14.58151436 -16.88888931 31.90255737
vertex -13.52027702 0.06128407 36.31839371
vertex -14.85706425 -17.18889999 32.55399323
endloop
endfacet
facet normal -6.28491211 11.46290779 2.62065411
outer loop
vertex -14.58151436 -16.88888931 31.90255737
vertex -14.85706425 -17.18889999 32.55399323
vertex -0.54069424 -11.11228752 40.30834579
endloop
endfacet
facet normal 29.86960983 -55.02923965 -12.02331734
outer loop
vertex -0.54069424 -11.11228752 40.30834579
vertex -14.85706425 -17.18889999 32.55399323
vertex 0.78356725 -9.71037197 37.18182373
endloop
endfacet
facet normal 26.83209419 41.79532242 29.85279083
outer loop
vertex -1.72343004 -12.39247131 43.16372299
vertex -0.54069424 -11.11228752 40.30834579
vertex -15.79689312 -2.38502145 41.80223846
endloop
endfacet
facet normal 26.70322800 41.59458542 29.70944023
outer loop
vertex -15.79689312 -2.38502145 41.80223846
vertex -0.54069424 -11.11228752 40.30834579
vertex -14.61983681 -1.11098480 38.96057510
endloop
endfacet
facet normal -53.82766724 8.19878578 -18.62030792
outer loop
vertex -15.79689312 -2.38502145 41.80223846
vertex -14.61983681 -1.11098480 38.96057510
vertex -14.34273624 -16.63043785 31.32609558
endloop
endfacet
facet normal 10.91951466 -1.66320872 3.77732277
outer loop
vertex -14.34273624 -16.63043785 31.32609558
vertex -14.61983681 -1.11098480 38.96057510
vertex -14.58151436 -16.88888931 31.90255737
endloop
endfacet
facet normal -5.50247765 10.10111427 2.24954462
outer loop
vertex -14.34273624 -16.63043785 31.32609558
vertex -14.58151436 -16.88888931 31.90255737
vertex -1.72343004 -12.39247131 43.16372299
endloop
endfacet
facet normal 27.25533104 -50.03366852 -11.14263725
outer loop
vertex -1.72343004 -12.39247131 43.16372299
vertex -14.58151436 -16.88888931 31.90255737
vertex -0.54069424 -11.11228752 40.30834579
endloop
endfacet
facet normal 11.56305122 21.90617371 43.42461395
outer loop
vertex -3.21092415 -14.42302322 44.58415222
vertex -1.72343004 -12.39247131 43.16372299
vertex -17.62688065 -4.90885782 43.62325668
endloop
endfacet
facet normal 14.78758430 28.11953354 53.83262634
outer loop
vertex -17.62688065 -4.90885782 43.62325668
vertex -1.72343004 -12.39247131 43.16372299
vertex -15.79689312 -2.38502145 41.80223846
endloop
endfacet
facet normal -52.23195267 16.43214035 -29.71512794
outer loop
vertex -17.62688065 -4.90885782 43.62325668
vertex -15.79689312 -2.38502145 41.80223846
vertex -14.08248806 -16.25847626 31.11686325
endloop
endfacet
facet normal 6.87732458 -2.42214060 4.24823427
outer loop
vertex -14.08248806 -16.25847626 31.11686325
vertex -15.79689312 -2.38502145 41.80223846
vertex -14.34273624 -16.63043785 31.32609558
endloop
endfacet
facet normal -5.39335012 5.77952003 3.56613088
outer loop
vertex -14.08248806 -16.25847626 31.11686325
vertex -14.34273624 -16.63043785 31.32609558
vertex -3.21092415 -14.42302322 44.58415222
endloop
endfacet
facet normal 30.05665016 -35.53323364 -19.32020569
outer loop
vertex -3.21092415 -14.42302322 44.58415222
vertex -14.34273624 -16.63043785 31.32609558
vertex -1.72343004 -12.39247131 43.16372299
endloop
endfacet
facet normal 4.54539347 8.57040787 16.66578865
outer loop
vertex -3.76828218 -15.21124649 45.14151001
vertex -3.21092415 -14.42302322 44.58415222
vertex -17.81847382 -5.17981243 43.81484985
endloop
endfacet
facet normal 1.56248999 2.94609976 5.72891903
outer loop
vertex -17.81847382 -5.17981243 43.81484985
vertex -3.21092415 -14.42302322 44.58415222
vertex -17.62688065 -4.90885782 43.62325668
endloop
endfacet
facet normal -5.56317234 1.71705830 -3.13487697
outer loop
vertex -17.81847382 -5.17981243 43.81484985
vertex -17.62688065 -4.90885782 43.62325668
vertex -16.32566833 -19.43081284 33.36004257
endloop
endfacet
facet normal -65.13372040 20.10338783 -36.70324707
outer loop
vertex -16.32566833 -19.43081284 33.36004257
vertex -17.62688065 -4.90885782 43.62325668
vertex -14.08248806 -16.25847626 31.11686325
endloop
endfacet
facet normal 46.84002304 -54.59642792 -30.37100983
outer loop
vertex -16.32566833 -19.43081284 33.36004257
vertex -14.08248806 -16.25847626 31.11686325
vertex -3.76828218 -15.21124649 45.14151001
endloop
endfacet
facet normal 11.63823509 -13.56545258 -7.54621506
outer loop
vertex -3.76828218 -15.21124649 45.14151001
vertex -14.08248806 -16.25847626 31.11686325
vertex -3.21092415 -14.42302322 44.58415222
endloop
endfacet
facet normal 5.46057320 8.43222618 5.52990866
outer loop
vertex -3.95490742 -15.47144794 45.72256088
vertex -3.76828218 -15.21124649 45.14151001
vertex -18.03404999 -5.47014618 44.37479019
endloop
endfacet
facet normal 5.23183012 8.15326500 6.24178314
outer loop
vertex -18.03404999 -5.47014618 44.37479019
vertex -3.76828218 -15.21124649 45.14151001
vertex -17.81847382 -5.17981243 43.81484985
endloop
endfacet
facet normal -10.88386631 1.50008214 -3.41246653
outer loop
vertex -18.03404999 -5.47014618 44.37479019
vertex -17.81847382 -5.17981243 43.81484985
vertex -17.99572754 -21.24805069 37.31677246
endloop
endfacet
facet normal -75.38623047 11.55351925 -26.51279449
outer loop
vertex -17.99572754 -21.24805069 37.31677246
vertex -17.81847382 -5.17981243 43.81484985
vertex -16.32566833 -19.43081284 33.36004257
endloop
endfacet
facet normal 38.13177490 -69.59389496 -15.86824226
outer loop
vertex -17.99572754 -21.24805069 37.31677246
vertex -16.32566833 -19.43081284 33.36004257
vertex -3.95490742 -15.47144794 45.72256088
endloop
endfacet
facet normal 5.51733780 -9.49519920 -2.47997260
outer loop
vertex -3.95490742 -15.47144794 45.72256088
vertex -16.32566833 -19.43081284 33.36004257
vertex -3.76828218 -15.21124649 45.14151001
endloop
endfacet
facet normal 2.65664744 4.13815594 2.95572329
outer loop
vertex -4.07201004 -15.59819889 46.00527191
vertex -3.95490742 -15.47144794 45.72256088
vertex -18.35435867 -5.81684637 45.14808655
endloop
endfacet
facet normal 7.26669788 11.31905270 8.08474541
outer loop
vertex -18.35435867 -5.81684637 45.14808655
vertex -3.95490742 -15.47144794 45.72256088
vertex -18.03404999 -5.47014618 44.37479019
endloop
endfacet
facet normal -14.64801407 2.23111343 -5.06708574
outer loop
vertex -18.35435867 -5.81684637 45.14808655
vertex -18.03404999 -5.47014618 44.37479019
vertex -19.68074417 -23.07190132 41.38476562
endloop
endfacet
facet normal -77.05718231 11.73698139 -26.65592575
outer loop
vertex -19.68074417 -23.07190132 41.38476562
vertex -18.03404999 -5.47014618 44.37479019
vertex -17.99572754 -21.24805069 37.31677246
endloop
endfacet
facet normal 38.83008575 -71.28185272 -15.87468719
outer loop
vertex -19.68074417 -23.07190132 41.38476562
vertex -17.99572754 -21.24805069 37.31677246
vertex -4.07201004 -15.59819889 46.00527191
endloop
endfacet
facet normal 2.69855094 -4.95383453 -1.10323191
outer loop
vertex -4.07201004 -15.59819889 46.00527191
vertex -17.99572754 -21.24805069 37.31677246
vertex -3.95490742 -15.47144794 45.72256088
endloop
endfacet
facet normal 1.71521354 2.51074648 -0.23575076
outer loop
vertex -4.04485893 -15.60026550 46.18080139
vertex -4.07201004 -15.59819889 46.00527191
vertex -18.34870338 -5.82861042 46.18080139
endloop
endfacet
facet normal 10.09126377 14.74474621 0.11270189
outer loop
vertex -18.34870338 -5.82861042 46.18080139
vertex -4.07201004 -15.59819889 46.00527191
vertex -18.35435867 -5.81684637 45.14808655
endloop
endfacet
facet normal -17.81452370 1.38051903 0.11328081
outer loop
vertex -18.34870338 -5.82861042 46.18080139
vertex -18.35435867 -5.81684637 45.14808655
vertex -19.68548965 -23.07879639 46.18080139
endloop
endfacet
facet normal -82.78180695 6.37925100 -0.07273806
outer loop
vertex -19.68548965 -23.07879639 46.18080139
vertex -18.35435867 -5.81684637 45.14808655
vertex -19.68074417 -23.07190132 41.38476562
endloop
endfacet
facet normal 35.86730194 -75.01302338 -0.07235393
outer loop
vertex -19.68548965 -23.07879639 46.18080139
vertex -19.68074417 -23.07190132 41.38476562
vertex -4.04485893 -15.60026550 46.18080139
endloop
endfacet
facet normal 1.32140386 -2.61434102 -0.23517650
outer loop
vertex -4.04485893 -15.60026550 46.18080139
vertex -19.68074417 -23.07190132 41.38476562
vertex -4.07201004 -15.59819889 46.00527191
endloop
endfacet
facet normal 37.42008972 54.77589417 0.00000000
outer loop
vertex -4.04485893 -15.60026550 50.01025391
vertex -4.04485893 -15.60026550 46.18080139
vertex -18.34870338 -5.82861042 49.14682388
endloop
endfacet
facet normal 28.98294830 42.42552567 0.00000000
outer loop
vertex -18.34870338 -5.82861042 49.14682388
vertex -4.04485893 -15.60026550 46.18080139
vertex -18.34870338 -5.82861042 46.18080139
endloop
endfacet
facet normal -51.16444397 3.96493816 0.00000000
outer loop
vertex -18.34870338 -5.82861042 49.14682388
vertex -18.34870338 -5.82861042 46.18080139
vertex -19.68548965 -23.07879639 45.38242340
endloop
endfacet
facet normal 13.77216911 -1.06726074 0.00000000
outer loop
vertex -19.68548965 -23.07879639 45.38242340
vertex -18.34870338 -5.82861042 46.18080139
vertex -19.68548965 -23.07879639 46.18080139
endloop
endfacet
facet normal -5.97069454 12.48713493 0.00000000
outer loop
vertex -19.68548965 -23.07879639 45.38242340
vertex -19.68548965 -23.07879639 46.18080139
vertex -4.04485893 -15.60026550 50.01025391
endloop
endfacet
facet normal 28.63867950 -59.89505386 0.00000000
outer loop
vertex -4.04485893 -15.60026550 50.01025391
vertex -19.68548965 -23.07879639 46.18080139
vertex -4.04485893 -15.60026550 46.18080139
endloop
endfacet
facet normal 29.37983131 45.80355453 32.98213577
outer loop
vertex -5.36912155 -17.00218201 53.13677597
vertex -4.04485893 -15.60026550 50.01025391
vertex -19.44826508 -7.00087929 51.78900528
endloop
endfacet
facet normal 24.80631256 38.74274445 27.51248932
outer loop
vertex -19.44826508 -7.00087929 51.78900528
vertex -4.04485893 -15.60026550 50.01025391
vertex -18.34870338 -5.82861042 49.14682388
endloop
endfacet
facet normal -49.96198273 7.65946102 -17.39370918
outer loop
vertex -19.44826508 -7.00087929 51.78900528
vertex -18.34870338 -5.82861042 49.14682388
vertex -19.40993881 -22.77878380 44.73098755
endloop
endfacet
facet normal 12.36675644 -1.90811419 4.35225010
outer loop
vertex -19.40993881 -22.77878380 44.73098755
vertex -18.34870338 -5.82861042 49.14682388
vertex -19.68548965 -23.07879639 45.38242340
endloop
endfacet
facet normal -6.28492785 11.46291351 2.62067437
outer loop
vertex -19.40993881 -22.77878380 44.73098755
vertex -19.68548965 -23.07879639 45.38242340
vertex -5.36912155 -17.00218201 53.13677597
endloop
endfacet
facet normal 29.86962318 -55.02923965 -12.02331924
outer loop
vertex -5.36912155 -17.00218201 53.13677597
vertex -19.68548965 -23.07879639 45.38242340
vertex -4.04485893 -15.60026550 50.01025391
endloop
endfacet
facet normal 1.42885637 2.22567439 1.58971786
outer loop
vertex -5.43210411 -17.07035446 53.28882980
vertex -5.36912155 -17.00218201 53.13677597
vertex -20.41380882 -8.04597664 54.12003326
endloop
endfacet
facet normal 21.90476418 34.12020874 24.37076950
outer loop
vertex -20.41380882 -8.04597664 54.12003326
vertex -5.36912155 -17.00218201 53.13677597
vertex -19.44826508 -7.00087929 51.78900528
endloop
endfacet
facet normal -44.15505219 6.72548437 -15.27431297
outer loop
vertex -20.41380882 -8.04597664 54.12003326
vertex -19.44826508 -7.00087929 51.78900528
vertex -20.50647545 -23.96566772 47.37826157
endloop
endfacet
facet normal -50.14548492 7.63791466 -17.34653854
outer loop
vertex -20.50647545 -23.96566772 47.37826157
vertex -19.44826508 -7.00087929 51.78900528
vertex -19.40993881 -22.77878380 44.73098755
endloop
endfacet
facet normal 25.26894379 -46.38714600 -10.33056545
outer loop
vertex -20.50647545 -23.96566772 47.37826157
vertex -19.40993881 -22.77878380 44.73098755
vertex -5.43210411 -17.07035446 53.28882980
endloop
endfacet
facet normal 1.45139766 -2.66437817 -0.59337187
outer loop
vertex -5.43210411 -17.07035446 53.28882980
vertex -19.40993881 -22.77878380 44.73098755
vertex -5.36912155 -17.00218201 53.13677597
endloop
endfacet
facet normal 1.45440555 2.33078194 0.94785428
outer loop
vertex -5.43022728 -17.13459587 53.44392014
vertex -5.43210411 -17.07035446 53.28882980
vertex -20.41864777 -9.13016319 56.75946808
endloop
endfacet
facet normal 24.72043610 39.53920746 16.28663063
outer loop
vertex -20.41864777 -9.13016319 56.75946808
vertex -5.43210411 -17.07035446 53.28882980
vertex -20.41380882 -8.04597664 54.12003326
endloop
endfacet
facet normal -49.32476807 0.24820928 0.01152724
outer loop
vertex -20.41864777 -9.13016319 56.75946808
vertex -20.41380882 -8.04597664 54.12003326
vertex -20.50055885 -25.10052109 50.14432526
endloop
endfacet
facet normal -51.68580246 0.21643345 0.19935340
outer loop
vertex -20.50055885 -25.10052109 50.14432526
vertex -20.41380882 -8.04597664 54.12003326
vertex -20.50647545 -23.96566772 47.37826157
endloop
endfacet
facet normal 25.77881241 -41.66597366 -17.14974785
outer loop
vertex -20.50055885 -25.10052109 50.14432526
vertex -20.50647545 -23.96566772 47.37826157
vertex -5.43022728 -17.13459587 53.44392014
endloop
endfacet
facet normal 1.44909966 -2.32679605 -0.98134023
outer loop
vertex -5.43022728 -17.13459587 53.44392014
vertex -20.50647545 -23.96566772 47.37826157
vertex -5.43210411 -17.07035446 53.28882980
endloop
endfacet
facet normal 31.88145065 50.95584869 21.10659790
outer loop
vertex -5.43022728 -18.54278946 56.84360123
vertex -5.43022728 -17.13459587 53.44392014
vertex -20.41864777 -10.26578045 59.50109100
endloop
endfacet
facet normal 25.71032906 41.09259796 17.02110863
outer loop
vertex -20.41864777 -10.26578045 59.50109100
vertex -5.43022728 -17.13459587 53.44392014
vertex -20.41864777 -9.13016319 56.75946808
endloop
endfacet
facet normal -51.29697037 0.22456932 0.09301964
outer loop
vertex -20.41864777 -10.26578045 59.50109100
vertex -20.41864777 -9.13016319 56.75946808
vertex -20.50055885 -24.85307121 49.54692841
endloop
endfacet
facet normal 11.17755795 -0.04893342 -0.02026889
outer loop
vertex -20.50055885 -24.85307121 49.54692841
vertex -20.41864777 -9.13016319 56.75946808
vertex -20.50055885 -25.10052109 50.14432526
endloop
endfacet
facet normal -5.57530308 9.00296879 3.72915173
outer loop
vertex -20.50055885 -24.85307121 49.54692841
vertex -20.50055885 -25.10052109 50.14432526
vertex -5.43022728 -18.54278946 56.84360123
endloop
endfacet
facet normal 31.72807312 -51.23432159 -21.22194481
outer loop
vertex -5.43022728 -18.54278946 56.84360123
vertex -20.50055885 -25.10052109 50.14432526
vertex -5.43022728 -17.13459587 53.44392014
endloop
endfacet
facet normal 23.56009865 28.87301636 41.86285400
outer loop
vertex -6.36824036 -20.82330322 58.94438934
vertex -5.43022728 -18.54278946 56.84360123
vertex -21.33173180 -12.57351685 61.67581177
endloop
endfacet
facet normal 24.13296890 30.16911888 42.14692688
outer loop
vertex -21.33173180 -12.57351685 61.67581177
vertex -5.43022728 -18.54278946 56.84360123
vertex -20.41864777 -10.26578045 59.50109100
endloop
endfacet
facet normal -54.59690094 9.22428226 -13.13471699
outer loop
vertex -21.33173180 -12.57351685 61.67581177
vertex -20.41864777 -10.26578045 59.50109100
vertex -20.34325027 -24.46022415 49.21917725
endloop
endfacet
facet normal 8.69146538 -1.59272158 2.26252747
outer loop
vertex -20.34325027 -24.46022415 49.21917725
vertex -20.41864777 -10.26578045 59.50109100
vertex -20.50055885 -24.85307121 49.54692841
endloop
endfacet
facet normal -5.01252604 6.11018467 4.91792297
outer loop
vertex -20.34325027 -24.46022415 49.21917725
vertex -20.50055885 -24.85307121 49.54692841
vertex -6.36824036 -20.82330322 58.94438934
endloop
endfacet
facet normal 29.89672852 -38.50394821 -28.44897079
outer loop
vertex -6.36824036 -20.82330322 58.94438934
vertex -20.50055885 -24.85307121 49.54692841
vertex -5.43022728 -18.54278946 56.84360123
endloop
endfacet
facet normal 4.52740669 5.58826303 7.92400980
outer loop
vertex -6.53558588 -21.26059723 59.34839630
vertex -6.36824036 -20.82330322 58.94438934
vertex -22.01136398 -14.34947968 63.31658936
endloop
endfacet
facet normal 18.38697052 22.69540024 32.18142700
outer loop
vertex -22.01136398 -14.34947968 63.31658936
vertex -6.36824036 -20.82330322 58.94438934
vertex -21.33173180 -12.57351685 61.67581177
endloop
endfacet
facet normal -41.62596512 6.84404898 -9.83409882
outer loop
vertex -22.01136398 -14.34947968 63.31658936
vertex -21.33173180 -12.57351685 61.67581177
vertex -21.12400436 -26.50043488 51.10408783
endloop
endfacet
facet normal -47.81954193 7.86236906 -11.29730606
outer loop
vertex -21.12400436 -26.50043488 51.10408783
vertex -21.33173180 -12.57351685 61.67581177
vertex -20.34325027 -24.46022415 49.21917725
endloop
endfacet
facet normal 26.69675255 -33.93464279 -25.67242432
outer loop
vertex -21.12400436 -26.50043488 51.10408783
vertex -20.34325027 -24.46022415 49.21917725
vertex -6.53558588 -21.26059723 59.34839630
endloop
endfacet
facet normal 5.72211838 -7.27347183 -5.50256586
outer loop
vertex -6.53558588 -21.26059723 59.34839630
vertex -20.34325027 -24.46022415 49.21917725
vertex -6.36824036 -20.82330322 58.94438934
endloop
endfacet
facet normal 4.65193987 6.62557888 6.60106945
outer loop
vertex -6.53359318 -21.68762779 59.77560806
vertex -6.53558588 -21.26059723 59.34839630
vertex -22.01707840 -16.24193573 65.22129822
endloop
endfacet
facet normal 20.67329788 29.45417786 29.32672310
outer loop
vertex -22.01707840 -16.24193573 65.22129822
vertex -6.53558588 -21.26059723 59.34839630
vertex -22.01136398 -14.34947968 63.31658936
endloop
endfacet
facet normal -46.24917603 -1.64253259 -1.77072096
outer loop
vertex -22.01707840 -16.24193573 65.22129822
vertex -22.01136398 -14.34947968 63.31658936
vertex -21.11818314 -28.42185783 53.04137421
endloop
endfacet
facet normal -47.00526047 -1.79016137 -1.63425970
outer loop
vertex -21.11818314 -28.42185783 53.04137421
vertex -22.01136398 -14.34947968 63.31658936
vertex -21.12400436 -26.50043488 51.10408783
endloop
endfacet
facet normal 25.98544312 -28.21532631 -28.06236839
outer loop
vertex -21.11818314 -28.42185783 53.04137421
vertex -21.12400436 -26.50043488 51.10408783
vertex -6.53359318 -21.68762779 59.77560806
endloop
endfacet
facet normal 5.75909185 -6.21591568 -6.24014235
outer loop
vertex -6.53359318 -21.68762779 59.77560806
vertex -21.12400436 -26.50043488 51.10408783
vertex -6.53558588 -21.26059723 59.34839630
endloop
endfacet
facet normal 16.39440536 23.30673790 23.30673790
outer loop
vertex -6.53359318 -23.19289207 61.28087234
vertex -6.53359318 -21.68762779 59.77560806
vertex -22.01707840 -18.83041573 67.80977631
endloop
endfacet
facet normal 28.19211388 40.07866287 40.07869339
outer loop
vertex -22.01707840 -18.83041573 67.80977631
vertex -6.53359318 -21.68762779 59.77560806
vertex -22.01707840 -16.24193573 65.22129822
endloop
endfacet
facet normal -63.05494690 -2.32677078 -2.32677245
outer loop
vertex -22.01707840 -18.83041573 67.80977631
vertex -22.01707840 -16.24193573 65.22129822
vertex -21.11818314 -28.58760071 53.20711899
endloop
endfacet
facet normal -4.03749418 -0.14898720 -0.14898549
outer loop
vertex -21.11818314 -28.58760071 53.20711899
vertex -22.01707840 -16.24193573 65.22129822
vertex -21.11818314 -28.42185783 53.04137421
endloop
endfacet
facet normal 2.23231196 -2.41731977 -2.41729188
outer loop
vertex -21.11818314 -28.58760071 53.20711899
vertex -21.11818314 -28.42185783 53.04137421
vertex -6.53359318 -23.19289207 61.28087234
endloop
endfacet
facet normal 20.27359772 -21.95366287 -21.95366287
outer loop
vertex -6.53359318 -23.19289207 61.28087234
vertex -21.11818314 -28.42185783 53.04137421
vertex -6.53359318 -21.68762779 59.77560806
endloop
endfacet
facet normal 16.39438438 12.61352730 30.45169258
outer loop
vertex -6.53359318 -25.15961266 62.09551620
vertex -6.53359318 -23.19289207 61.28087234
vertex -22.01708031 -22.21242332 69.21064758
endloop
endfacet
facet normal 28.19207001 21.69035721 52.36527252
outer loop
vertex -22.01708031 -22.21242332 69.21064758
vertex -6.53359318 -23.19289207 61.28087234
vertex -22.01707840 -18.83041573 67.80977631
endloop
endfacet
facet normal -63.05486679 -1.25920880 -3.04008961
outer loop
vertex -22.01708031 -22.21242332 69.21064758
vertex -22.01707840 -18.83041573 67.80977631
vertex -21.11818314 -28.80415154 53.29681396
endloop
endfacet
facet normal -4.03738785 -0.08062639 -0.19465651
outer loop
vertex -21.11818314 -28.80415154 53.29681396
vertex -22.01707840 -18.83041573 67.80977631
vertex -21.11818314 -28.58760071 53.20711899
endloop
endfacet
facet normal 2.23226309 -1.30816448 -3.15830493
outer loop
vertex -21.11818314 -28.80415154 53.29681396
vertex -21.11818314 -28.58760071 53.20711899
vertex -6.53359318 -25.15961266 62.09551620
endloop
endfacet
facet normal 20.27358246 -11.88124657 -28.68381310
outer loop
vertex -6.53359318 -25.15961266 62.09551620
vertex -21.11818314 -28.58760071 53.20711899
vertex -6.53359318 -23.19289207 61.28087234
endloop
endfacet
facet normal 5.92883062 4.56151676 11.01248741
outer loop
vertex -6.53359318 -25.87085342 62.39012146
vertex -6.53359318 -25.15961266 62.09551620
vertex -22.01708031 -23.16175079 69.60387421
endloop
endfacet
facet normal 7.91350317 6.08851957 14.69889927
outer loop
vertex -22.01708031 -23.16175079 69.60387421
vertex -6.53359318 -25.15961266 62.09551620
vertex -22.01708031 -22.21242332 69.21064758
endloop
endfacet
facet normal -17.69948959 -0.35347030 -0.85334778
outer loop
vertex -22.01708031 -23.16175079 69.60387421
vertex -22.01708031 -22.21242332 69.21064758
vertex -21.11818314 -32.67931747 54.90196228
endloop
endfacet
facet normal -72.24944305 -1.44286323 -3.48337579
outer loop
vertex -21.11818314 -32.67931747 54.90196228
vertex -22.01708031 -22.21242332 69.21064758
vertex -21.11818314 -28.80415154 53.29681396
endloop
endfacet
facet normal 39.94645309 -23.41043091 -56.51770782
outer loop
vertex -21.11818314 -32.67931747 54.90196228
vertex -21.11818314 -28.80415154 53.29681396
vertex -6.53359318 -25.87085342 62.39012146
endloop
endfacet
facet normal 7.33169651 -4.29669666 -10.37315464
outer loop
vertex -6.53359318 -25.87085342 62.39012146
vertex -21.11818314 -28.80415154 53.29681396
vertex -6.53359318 -25.15961266 62.09551620
endloop
endfacet
facet normal 1.12834942 2.90274668 1.50857019
outer loop
vertex -6.39690208 -25.98547935 62.50844193
vertex -6.53359318 -25.87085342 62.39012146
vertex -21.56566238 -24.30166054 70.61410522
endloop
endfacet
facet normal 10.95984650 18.89831543 16.42683983
outer loop
vertex -21.56566238 -24.30166054 70.61410522
vertex -6.53359318 -25.87085342 62.39012146
vertex -22.01708031 -23.16175079 69.60387421
endloop
endfacet
facet normal -26.25339890 -7.45316792 3.32133627
outer loop
vertex -21.56566238 -24.30166054 70.61410522
vertex -22.01708031 -23.16175079 69.60387421
vertex -19.97861671 -35.66679382 57.65519333
endloop
endfacet
facet normal -70.12567139 -19.22867775 8.16046524
outer loop
vertex -19.97861671 -35.66679382 57.65519333
vertex -22.01708031 -23.16175079 69.60387421
vertex -21.11818314 -32.67931747 54.90196228
endloop
endfacet
facet normal 41.15386200 -31.86299706 -51.60755157
outer loop
vertex -19.97861671 -35.66679382 57.65519333
vertex -21.11818314 -32.67931747 54.90196228
vertex -6.39690208 -25.98547935 62.50844193
endloop
endfacet
facet normal 1.66391778 -0.70209074 -2.60242844
outer loop
vertex -6.39690208 -25.98547935 62.50844193
vertex -21.11818314 -32.67931747 54.90196228
vertex -6.53359318 -25.87085342 62.39012146
endloop
endfacet
facet normal 18.82081604 33.34298325 28.29440117
outer loop
vertex -5.65141153 -27.93354034 64.30821228
vertex -6.39690208 -25.98547935 62.50844193
vertex -20.69199944 -26.58465195 72.72331238
endloop
endfacet
facet normal 22.05668259 39.07567596 33.15906143
outer loop
vertex -20.69199944 -26.58465195 72.72331238
vertex -6.39690208 -25.98547935 62.50844193
vertex -21.56566238 -24.30166054 70.61410522
endloop
endfacet
facet normal -53.55651093 -14.66913128 6.30608273
outer loop
vertex -20.69199944 -26.58465195 72.72331238
vertex -21.56566238 -24.30166054 70.61410522
vertex -19.97007179 -35.68912125 57.67581940
endloop
endfacet
facet normal -0.52375710 -0.14346740 0.06167953
outer loop
vertex -19.97007179 -35.68912125 57.67581940
vertex -21.56566238 -24.30166054 70.61410522
vertex -19.97861671 -35.66679382 57.65519333
endloop
endfacet
facet normal 0.30805138 -0.23866439 -0.38596964
outer loop
vertex -19.97007179 -35.68912125 57.67581940
vertex -19.97861671 -35.66679382 57.65519333
vertex -5.65141153 -27.93354034 64.30821228
endloop
endfacet
facet normal 26.87856674 -20.82591820 -33.67533875
outer loop
vertex -5.65141153 -27.93354034 64.30821228
vertex -19.97861671 -35.66679382 57.65519333
vertex -6.39690208 -25.98547935 62.50844193
endloop
endfacet
facet normal 22.73253822 18.04511452 37.73807144
outer loop
vertex -5.24795437 -30.47880554 65.28224182
vertex -5.65141153 -27.93354034 64.30821228
vertex -20.21917725 -29.56752586 73.86481476
endloop
endfacet
facet normal 26.64094162 21.14771271 44.22639465
outer loop
vertex -20.21917725 -29.56752586 73.86481476
vertex -5.65141153 -27.93354034 64.30821228
vertex -20.69199944 -26.58465195 72.72331238
endloop
endfacet
facet normal -55.27753448 -7.93886948 2.15137362
outer loop
vertex -20.21917725 -29.56752586 73.86481476
vertex -20.69199944 -26.58465195 72.72331238
vertex -19.96544647 -35.71829605 57.68698883
endloop
endfacet
facet normal -0.54069942 -0.07766300 0.02104899
outer loop
vertex -19.96544647 -35.71829605 57.68698883
vertex -20.69199944 -26.58465195 72.72331238
vertex -19.97007179 -35.68912125 57.67581940
endloop
endfacet
facet normal 0.28011218 -0.12925556 -0.45361429
outer loop
vertex -19.96544647 -35.71829605 57.68698883
vertex -19.97007179 -35.68912125 57.67581940
vertex -5.24795437 -30.47880554 65.28224182
endloop
endfacet
facet normal 24.43536377 -11.27091122 -39.57383347
outer loop
vertex -5.24795437 -30.47880554 65.28224182
vertex -19.97007179 -35.68912125 57.67581940
vertex -5.65141153 -27.93354034 64.30821228
endloop
endfacet
facet normal 25.81917000 20.49530602 42.86214828
outer loop
vertex -4.78971577 -33.36966705 66.38852692
vertex -5.24795437 -30.47880554 65.28224182
vertex -19.78764915 -32.28987885 74.90661621
endloop
endfacet
facet normal 24.31416702 19.30066299 40.36370850
outer loop
vertex -19.78764915 -32.28987885 74.90661621
vertex -5.24795437 -30.47880554 65.28224182
vertex -20.21917725 -29.56752586 73.86481476
endloop
endfacet
facet normal -50.44963455 -7.24552250 1.96348763
outer loop
vertex -19.78764915 -32.28987885 74.90661621
vertex -20.21917725 -29.56752586 73.86481476
vertex -19.97455978 -35.66080856 57.66498947
endloop
endfacet
facet normal 1.06533551 0.15301548 -0.04146754
outer loop
vertex -19.97455978 -35.66080856 57.66498947
vertex -20.21917725 -29.56752586 73.86481476
vertex -19.96544647 -35.71829605 57.68698883
endloop
endfacet
facet normal -0.55189788 0.25455651 0.89381838
outer loop
vertex -19.97455978 -35.66080856 57.66498947
vertex -19.96544647 -35.71829605 57.68698883
vertex -4.78971577 -33.36966705 66.38852692
endloop
endfacet
facet normal 27.75319481 -12.80130386 -44.94717026
outer loop
vertex -4.78971577 -33.36966705 66.38852692
vertex -19.96544647 -35.71829605 57.68698883
vertex -5.24795437 -30.47880554 65.28224182
endloop
endfacet
facet normal 20.66309738 -0.48153561 36.08211136
outer loop
vertex -4.84491825 -35.77904129 66.38798523
vertex -4.78971577 -33.36966705 66.38852692
vertex -19.82063675 -35.77904129 74.96411133
endloop
endfacet
facet normal 29.78308105 0.58131671 52.36584473
outer loop
vertex -19.82063675 -35.77904129 74.96411133
vertex -4.78971577 -33.36966705 66.38852692
vertex -19.78764915 -32.28987885 74.90661621
endloop
endfacet
facet normal -60.25292587 0.57745516 0.47370639
outer loop
vertex -19.82063675 -35.77904129 74.96411133
vertex -19.78764915 -32.28987885 74.90661621
vertex -19.95640182 -35.77904129 57.69551849
endloop
endfacet
facet normal -2.14143562 -0.30736655 0.08330816
outer loop
vertex -19.95640182 -35.77904129 57.69551849
vertex -19.78764915 -32.28987885 74.90661621
vertex -19.97455978 -35.66080856 57.66498947
endloop
endfacet
facet normal 1.02773404 -0.30350137 -1.78667188
outer loop
vertex -19.95640182 -35.77904129 57.69551849
vertex -19.97455978 -35.66080856 57.66498947
vertex -4.84491825 -35.77904129 66.38798523
endloop
endfacet
facet normal 21.01702690 -0.47333550 -36.45949554
outer loop
vertex -4.84491825 -35.77904129 66.38798523
vertex -19.97455978 -35.66080856 57.66498947
vertex -4.78971577 -33.36966705 66.38852692
endloop
endfacet
facet normal 16.98537064 -0.00000000 29.66002846
outer loop
vertex -4.84491825 -37.75958252 66.38798523
vertex -4.84491825 -35.77904129 66.38798523
vertex -19.82063675 -36.05368805 74.96411133
endloop
endfacet
facet normal 2.35540533 -0.00000000 4.11303234
outer loop
vertex -19.82063675 -36.05368805 74.96411133
vertex -4.84491825 -35.77904129 66.38798523
vertex -19.82063675 -35.77904129 74.96411133
endloop
endfacet
facet normal -4.74276304 0.00000000 0.03728744
outer loop
vertex -19.82063675 -36.05368805 74.96411133
vertex -19.82063675 -35.77904129 74.96411133
vertex -19.95640182 -39.48862076 57.69551849
endloop
endfacet
facet normal -64.05921936 0.00000000 0.50363135
outer loop
vertex -19.95640182 -39.48862076 57.69551849
vertex -19.82063675 -35.77904129 74.96411133
vertex -19.95640182 -35.77904129 57.69551849
endloop
endfacet
facet normal 32.24539566 0.00000000 -56.05725098
outer loop
vertex -19.95640182 -39.48862076 57.69551849
vertex -19.95640182 -35.77904129 57.69551849
vertex -4.84491825 -37.75958252 66.38798523
endloop
endfacet
facet normal 17.21578789 0.00000000 -29.92891693
outer loop
vertex -4.84491825 -37.75958252 66.38798523
vertex -19.95640182 -35.77904129 57.69551849
vertex -4.84491825 -35.77904129 66.38798523
endloop
endfacet
facet normal 16.98536301 11.35037804 27.40228081
outer loop
vertex -4.84491920 -39.58936310 67.14590454
vertex -4.84491825 -37.75958252 66.38798523
vertex -19.82063675 -36.30742264 75.06921387
endloop
endfacet
facet normal 2.35535383 1.57398605 3.79985785
outer loop
vertex -19.82063675 -36.30742264 75.06921387
vertex -4.84491825 -37.75958252 66.38798523
vertex -19.82063675 -36.05368805 74.96411133
endloop
endfacet
facet normal -4.74266768 0.01426925 0.03444830
outer loop
vertex -19.82063675 -36.30742264 75.06921387
vertex -19.82063675 -36.05368805 74.96411133
vertex -19.95640182 -42.91582870 59.11511230
endloop
endfacet
facet normal -64.05926514 0.19273126 0.46529514
outer loop
vertex -19.95640182 -42.91582870 59.11511230
vertex -19.82063675 -36.05368805 74.96411133
vertex -19.95640182 -39.48862076 57.69551849
endloop
endfacet
facet normal 32.24542618 -21.45216751 -51.79019165
outer loop
vertex -19.95640182 -42.91582870 59.11511230
vertex -19.95640182 -39.48862076 57.69551849
vertex -4.84491920 -39.58936310 67.14590454
endloop
endfacet
facet normal 17.21577835 -11.45329285 -27.65069771
outer loop
vertex -4.84491920 -39.58936310 67.14590454
vertex -19.95640182 -39.48862076 57.69551849
vertex -4.84491825 -37.75958252 66.38798523
endloop
endfacet
facet normal 7.47650433 4.99617147 12.06174088
outer loop
vertex -4.84491920 -40.39478302 67.47952271
vertex -4.84491920 -39.58936310 67.14590454
vertex -19.82063675 -37.14559555 75.41639709
endloop
endfacet
facet normal 7.78053761 5.19931793 12.55224037
outer loop
vertex -19.82063675 -37.14559555 75.41639709
vertex -4.84491920 -39.58936310 67.14590454
vertex -19.82063675 -36.30742264 75.06921387
endloop
endfacet
facet normal -15.66662598 0.04713536 0.11379461
outer loop
vertex -19.82063675 -37.14559555 75.41639709
vertex -19.82063675 -36.30742264 75.06921387
vertex -19.95640182 -46.79356003 60.72132111
endloop
endfacet
facet normal -72.48019409 0.21806706 0.52646047
outer loop
vertex -19.95640182 -46.79356003 60.72132111
vertex -19.82063675 -36.30742264 75.06921387
vertex -19.95640182 -42.91582870 59.11511230
endloop
endfacet
facet normal 36.48426056 -24.27219582 -58.59827042
outer loop
vertex -19.95640182 -46.79356003 60.72132111
vertex -19.95640182 -42.91582870 59.11511230
vertex -4.84491920 -40.39478302 67.47952271
endloop
endfacet
facet normal 7.57792950 -5.04146528 -12.17108917
outer loop
vertex -4.84491920 -40.39478302 67.47952271
vertex -19.95640182 -42.91582870 59.11511230
vertex -4.84491920 -39.58936310 67.14590454
endloop
endfacet
facet normal 1.96015787 3.87956715 2.25830436
outer loop
vertex -4.68770123 -40.57368469 67.65039825
vertex -4.84491920 -40.39478302 67.47952271
vertex -19.40688705 -38.18857193 76.32891083
endloop
endfacet
facet normal 11.24290085 16.94942665 14.27497005
outer loop
vertex -19.40688705 -38.18857193 76.32891083
vertex -4.84491920 -40.39478302 67.47952271
vertex -19.82063675 -37.14559555 75.41639709
endloop
endfacet
facet normal -23.99379349 -5.85412979 4.18810701
outer loop
vertex -19.40688705 -38.18857193 76.32891083
vertex -19.82063675 -37.14559555 75.41639709
vertex -18.80992699 -49.81570435 63.49652481
endloop
endfacet
facet normal -71.18570709 -16.47075844 11.47144985
outer loop
vertex -18.80992699 -49.81570435 63.49652481
vertex -19.82063675 -37.14559555 75.41639709
vertex -19.95640182 -46.79356003 60.72132111
endloop
endfacet
facet normal 38.20209122 -34.42974472 -53.27514648
outer loop
vertex -18.80992699 -49.81570435 63.49652481
vertex -19.95640182 -46.79356003 60.72132111
vertex -4.68770123 -40.57368469 67.65039825
endloop
endfacet
facet normal 2.30244827 -1.51967216 -3.70947218
outer loop
vertex -4.68770123 -40.57368469 67.65039825
vertex -19.95640182 -46.79356003 60.72132111
vertex -4.84491920 -40.39478302 67.47952271
endloop
endfacet
facet normal 20.40076828 31.71993637 25.88312721
outer loop
vertex -3.97027874 -42.44839859 69.38240814
vertex -4.68770123 -40.57368469 67.65039825
vertex -18.50790787 -40.53771591 78.49923706
endloop
endfacet
facet normal 25.56354904 39.74723816 32.43332291
outer loop
vertex -18.50790787 -40.53771591 78.49923706
vertex -4.68770123 -40.57368469 67.65039825
vertex -19.40688705 -38.18857193 76.32891083
endloop
endfacet
facet normal -55.37978363 -12.83164597 9.05020332
outer loop
vertex -18.50790787 -40.53771591 78.49923706
vertex -19.40688705 -38.18857193 76.32891083
vertex -18.79601097 -49.85206604 63.53012085
endloop
endfacet
facet normal -0.85723287 -0.19863117 0.14009687
outer loop
vertex -18.79601097 -49.85206604 63.53012085
vertex -19.40688705 -38.18857193 76.32891083
vertex -18.80992699 -49.81570435 63.49652481
endloop
endfacet
facet normal 0.46153298 -0.41664535 -0.64211828
outer loop
vertex -18.79601097 -49.85206604 63.53012085
vertex -18.80992699 -49.81570435 63.49652481
vertex -3.97027874 -42.44839859 69.38240814
endloop
endfacet
facet normal 23.79459381 -21.47975159 -33.10556793
outer loop
vertex -3.97027874 -42.44839859 69.38240814
vertex -18.80992699 -49.81570435 63.49652481
vertex -4.68770123 -40.57368469 67.65039825
endloop
endfacet
facet normal 24.12204361 17.16666222 34.86708832
outer loop
vertex -3.58201408 -44.89783096 70.31976318
vertex -3.97027874 -42.44839859 69.38240814
vertex -18.02138710 -43.60701752 79.67380524
endloop
endfacet
facet normal 30.22652626 21.51096344 43.69078445
outer loop
vertex -18.02138710 -43.60701752 79.67380524
vertex -3.97027874 -42.44839859 69.38240814
vertex -18.50790787 -40.53771591 78.49923706
endloop
endfacet
facet normal -56.88507080 -6.94438601 5.41590691
outer loop
vertex -18.02138710 -43.60701752 79.67380524
vertex -18.50790787 -40.53771591 78.49923706
vertex -18.78848267 -49.89957428 63.54830170
endloop
endfacet
facet normal -0.88049912 -0.10745412 0.08380854
outer loop
vertex -18.78848267 -49.89957428 63.54830170
vertex -18.50790787 -40.53771591 78.49923706
vertex -18.79601097 -49.85206604 63.53012085
endloop
endfacet
facet normal 0.41263616 -0.22548886 -0.76008719
outer loop
vertex -18.78848267 -49.89957428 63.54830170
vertex -18.79601097 -49.85206604 63.53012085
vertex -3.58201408 -44.89783096 70.31976318
endloop
endfacet
facet normal 21.27464676 -11.62473869 -39.18920898
outer loop
vertex -3.58201408 -44.89783096 70.31976318
vertex -18.79601097 -49.85206604 63.53012085
vertex -3.97027874 -42.44839859 69.38240814
endloop
endfacet
facet normal 27.57703018 19.62552643 39.86107254
outer loop
vertex -3.13813686 -47.69809341 71.39138031
vertex -3.58201408 -44.89783096 70.31976318
vertex -17.57365799 -46.43158340 80.75472260
endloop
endfacet
facet normal 27.81637001 19.79584503 40.20702744
outer loop
vertex -17.57365799 -46.43158340 80.75472260
vertex -3.58201408 -44.89783096 70.31976318
vertex -18.02138710 -43.60701752 79.67380524
endloop
endfacet
facet normal -52.34928513 -6.39069033 4.98407459
outer loop
vertex -17.57365799 -46.43158340 80.75472260
vertex -18.02138710 -43.60701752 79.67380524
vertex -18.79787636 -49.84031677 63.52562332
endloop
endfacet
facet normal 1.09826207 0.13408154 -0.10456651
outer loop
vertex -18.79787636 -49.84031677 63.52562332
vertex -18.02138710 -43.60701752 79.67380524
vertex -18.78848267 -49.89957428 63.54830170
endloop
endfacet
facet normal -0.51468730 0.28124893 0.94808048
outer loop
vertex -18.79787636 -49.84031677 63.52562332
vertex -18.78848267 -49.89957428 63.54830170
vertex -3.13813686 -47.69809341 71.39138031
endloop
endfacet
facet normal 24.32182312 -13.28981495 -44.80226517
outer loop
vertex -3.13813686 -47.69809341 71.39138031
vertex -18.78848267 -49.89957428 63.54830170
vertex -3.58201408 -44.89783096 70.31976318
endloop
endfacet
facet normal 21.67285347 -0.42483151 33.16447067
outer loop
vertex -3.18660355 -49.99850464 71.39358521
vertex -3.13813686 -47.69809341 71.39138031
vertex -17.60336113 -49.99850464 80.81488037
endloop
endfacet
facet normal 33.47449493 0.59028816 51.52798843
outer loop
vertex -17.60336113 -49.99850464 80.81488037
vertex -3.13813686 -47.69809341 71.39138031
vertex -17.57365799 -46.43158340 80.75472260
endloop
endfacet
facet normal -61.54135132 0.58287919 4.17423677
outer loop
vertex -17.60336113 -49.99850464 80.81488037
vertex -17.57365799 -46.43158340 80.75472260
vertex -18.77362442 -49.99850464 63.56152725
endloop
endfacet
facet normal -2.84782147 -0.37388480 0.27632487
outer loop
vertex -18.77362442 -49.99850464 63.56152725
vertex -17.57365799 -46.43158340 80.75472260
vertex -18.79787636 -49.84031677 63.52562332
endloop
endfacet
facet normal 1.23893654 -0.36969274 -2.46567750
outer loop
vertex -18.77362442 -49.99850464 63.56152725
vertex -18.79787636 -49.84031677 63.52562332
vertex -3.18660355 -49.99850464 71.39358521
endloop
endfacet
facet normal 18.09919930 -0.41575521 -35.92001343
outer loop
vertex -3.18660355 -49.99850464 71.39358521
vertex -18.79787636 -49.84031677 63.52562332
vertex -3.13813686 -47.69809341 71.39138031
endloop
endfacet
facet normal 19.69460487 -0.00000000 30.13729477
outer loop
vertex -3.18660355 -52.08893967 71.39358521
vertex -3.18660355 -49.99850464 71.39358521
vertex -17.60336113 -50.21492767 80.81488037
endloop
endfacet
facet normal 2.03898525 -0.00000000 3.12011838
outer loop
vertex -17.60336113 -50.21492767 80.81488037
vertex -3.18660355 -49.99850464 71.39358521
vertex -17.60336113 -49.99850464 80.81488037
endloop
endfacet
facet normal -3.73402309 0.00000000 0.25327194
outer loop
vertex -17.60336113 -50.21492767 80.81488037
vertex -17.60336113 -49.99850464 80.81488037
vertex -18.77362442 -53.64683151 63.56152725
endloop
endfacet
facet normal -62.94587326 0.00000000 4.26950312
outer loop
vertex -18.77362442 -53.64683151 63.56152725
vertex -17.60336113 -49.99850464 80.81488037
vertex -18.77362442 -49.99850464 63.56152725
endloop
endfacet
facet normal 28.57390785 0.00000000 -56.86654663
outer loop
vertex -18.77362442 -53.64683151 63.56152725
vertex -18.77362442 -49.99850464 63.56152725
vertex -3.18660355 -52.08893967 71.39358521
endloop
endfacet
facet normal 16.37240791 0.00000000 -32.58365631
outer loop
vertex -3.18660355 -52.08893967 71.39358521
vertex -18.77362442 -49.99850464 63.56152725
vertex -3.18660355 -49.99850464 71.39358521
endloop
endfacet
facet normal 19.69462776 11.53301907 27.84326363
outer loop
vertex -3.18660259 -54.02025223 72.19355774
vertex -3.18660355 -52.08893967 71.39358521
vertex -17.60336113 -50.41487885 80.89770508
endloop
endfacet
facet normal 2.03901339 1.19406378 2.88264751
outer loop
vertex -17.60336113 -50.41487885 80.89770508
vertex -3.18660355 -52.08893967 71.39358521
vertex -17.60336113 -50.21492767 80.81488037
endloop
endfacet
facet normal -3.73408270 0.09692671 0.23399551
outer loop
vertex -17.60336113 -50.41487885 80.89770508
vertex -17.60336113 -50.21492767 80.81488037
vertex -18.77362442 -57.01744843 64.95767975
endloop
endfacet
facet normal -62.94590378 1.63386607 3.94450927
outer loop
vertex -18.77362442 -57.01744843 64.95767975
vertex -17.60336113 -50.21492767 80.81488037
vertex -18.77362442 -53.64683151 63.56152725
endloop
endfacet
facet normal 28.57391548 -21.76185989 -52.53787994
outer loop
vertex -18.77362442 -57.01744843 64.95767975
vertex -18.77362442 -53.64683151 63.56152725
vertex -3.18660259 -54.02025223 72.19355774
endloop
endfacet
facet normal 16.37242126 -12.46918106 -30.10341072
outer loop
vertex -3.18660259 -54.02025223 72.19355774
vertex -18.77362442 -53.64683151 63.56152725
vertex -3.18660355 -52.08893967 71.39358521
endloop
endfacet
facet normal 9.21071243 5.39374542 13.02163124
outer loop
vertex -3.18660259 -54.92348099 72.56768799
vertex -3.18660259 -54.02025223 72.19355774
vertex -17.60336113 -51.14547348 81.20032501
endloop
endfacet
facet normal 7.45026159 4.36279869 10.53280640
outer loop
vertex -17.60336113 -51.14547348 81.20032501
vertex -3.18660259 -54.02025223 72.19355774
vertex -17.60336113 -50.41487885 80.89770508
endloop
endfacet
facet normal -13.64375687 0.35414499 0.85498810
outer loop
vertex -17.60336113 -51.14547348 81.20032501
vertex -17.60336113 -50.41487885 80.89770508
vertex -18.77362442 -60.89099503 66.56215668
endloop
endfacet
facet normal -72.33810425 1.87766039 4.53306961
outer loop
vertex -18.77362442 -60.89099503 66.56215668
vertex -17.60336113 -50.41487885 80.89770508
vertex -18.77362442 -57.01744843 64.95767975
endloop
endfacet
facet normal 32.83744431 -25.00901604 -60.37705612
outer loop
vertex -18.77362442 -60.89099503 66.56215668
vertex -18.77362442 -57.01744843 64.95767975
vertex -3.18660259 -54.92348099 72.56768799
endloop
endfacet
facet normal 7.65699482 -5.83157635 -14.07864666
outer loop
vertex -3.18660259 -54.92348099 72.56768799
vertex -18.77362442 -57.01744843 64.95767975
vertex -3.18660259 -54.02025223 72.19355774
endloop
endfacet
facet normal 2.97991323 4.87910652 2.96631718
outer loop
vertex -3.00840282 -55.17066574 72.79524994
vertex -3.18660259 -54.92348099 72.56768799
vertex -17.22788239 -52.09254074 82.01689148
endloop
endfacet
facet normal 11.26068211 15.01361275 12.23507881
outer loop
vertex -17.22788239 -52.09254074 82.01689148
vertex -3.18660259 -54.92348099 72.56768799
vertex -17.60336113 -51.14547348 81.20032501
endloop
endfacet
facet normal -21.66785049 -4.43159008 4.82361698
outer loop
vertex -17.22788239 -52.09254074 82.01689148
vertex -17.60336113 -51.14547348 81.20032501
vertex -17.62316513 -63.94210052 69.35475159
endloop
endfacet
facet normal -71.87788391 -13.57254505 14.78242207
outer loop
vertex -17.62316513 -63.94210052 69.35475159
vertex -17.60336113 -51.14547348 81.20032501
vertex -18.77362442 -60.89099503 66.56215668
endloop
endfacet
facet normal 34.99238586 -36.85495758 -54.68236160
outer loop
vertex -17.62316513 -63.94210052 69.35475159
vertex -18.77362442 -60.89099503 66.56215668
vertex -3.00840282 -55.17066574 72.79524994
endloop
endfacet
facet normal 2.84245491 -2.47682858 -4.91628361
outer loop
vertex -3.00840282 -55.17066574 72.79524994
vertex -18.77362442 -60.89099503 66.56215668
vertex -3.18660259 -54.92348099 72.56768799
endloop
endfacet
facet normal 21.71326256 29.99262047 23.46982384
outer loop
vertex -2.31971788 -56.97028732 74.45788574
vertex -3.00840282 -55.17066574 72.79524994
vertex -16.30488968 -54.50443649 84.24519348
endloop
endfacet
facet normal 29.10062981 40.19680023 31.45481491
outer loop
vertex -16.30488968 -54.50443649 84.24519348
vertex -3.00840282 -55.17066574 72.79524994
vertex -17.22788239 -52.09254074 82.01689148
endloop
endfacet
facet normal -56.94414902 -10.80624962 11.89043808
outer loop
vertex -16.30488968 -54.50443649 84.24519348
vertex -17.22788239 -52.09254074 82.01689148
vertex -17.60216713 -63.99697113 69.40544891
endloop
endfacet
facet normal -1.29552031 -0.24583986 0.27050647
outer loop
vertex -17.60216713 -63.99697113 69.40544891
vertex -17.22788239 -52.09254074 82.01689148
vertex -17.62316513 -63.94210052 69.35475159
endloop
endfacet
facet normal 0.63346434 -0.66868824 -0.98610353
outer loop
vertex -17.60216713 -63.99697113 69.40544891
vertex -17.62316513 -63.94210052 69.35475159
vertex -2.31971788 -56.97028732 74.45788574
endloop
endfacet
facet normal 20.77529526 -21.92960739 -32.34179688
outer loop
vertex -2.31971788 -56.97028732 74.45788574
vertex -17.62316513 -63.94210052 69.35475159
vertex -3.00840282 -55.17066574 72.79524994
endloop
endfacet
facet normal 25.23182869 16.23187256 31.96448517
outer loop
vertex -1.94700432 -59.32160187 75.35769653
vertex -2.31971788 -56.97028732 74.45788574
vertex -15.80537033 -57.65573502 85.45114136
endloop
endfacet
facet normal 33.81641769 21.75433922 42.83971405
outer loop
vertex -15.80537033 -57.65573502 85.45114136
vertex -2.31971788 -56.97028732 74.45788574
vertex -16.30488968 -54.50443649 84.24519348
endloop
endfacet
facet normal -58.21195602 -5.84829140 8.82980537
outer loop
vertex -15.80537033 -57.65573502 85.45114136
vertex -16.30488968 -54.50443649 84.24519348
vertex -17.59079933 -64.06867218 69.43289185
endloop
endfacet
facet normal -1.32452822 -0.13309413 0.20092537
outer loop
vertex -17.59079933 -64.06867218 69.43289185
vertex -16.30488968 -54.50443649 84.24519348
vertex -17.60216713 -63.99697113 69.40544891
endloop
endfacet
facet normal 0.55508822 -0.36195964 -1.17564034
outer loop
vertex -17.59079933 -64.06867218 69.43289185
vertex -17.60216713 -63.99697113 69.40544891
vertex -1.94700432 -59.32160187 75.35769653
endloop
endfacet
facet normal 18.20255470 -11.86820030 -38.55278397
outer loop
vertex -1.94700432 -59.32160187 75.35769653
vertex -17.60216713 -63.99697113 69.40544891
vertex -2.31971788 -56.97028732 74.45788574
endloop
endfacet
facet normal 4.09549379 2.63462543 5.18830490
outer loop
vertex -1.88650787 -59.70325470 75.50374603
vertex -1.94700432 -59.32160187 75.35769653
vertex -15.59492588 -58.98335648 85.95919800
endloop
endfacet
facet normal 14.24662781 9.16494370 18.04809189
outer loop
vertex -15.59492588 -58.98335648 85.95919800
vertex -1.94700432 -59.32160187 75.35769653
vertex -15.80537033 -57.65573502 85.45114136
endloop
endfacet
facet normal -24.52429390 -2.46385098 3.71993947
outer loop
vertex -15.59492588 -58.98335648 85.95919800
vertex -15.80537033 -57.65573502 85.45114136
vertex -16.98775291 -67.87307739 70.88877869
endloop
endfacet
facet normal -70.27642059 -7.06036472 10.65979385
outer loop
vertex -16.98775291 -67.87307739 70.88877869
vertex -15.80537033 -57.65573502 85.45114136
vertex -17.59079933 -64.06867218 69.43289185
endloop
endfacet
facet normal 29.45154190 -19.20266533 -62.37803650
outer loop
vertex -16.98775291 -67.87307739 70.88877869
vertex -17.59079933 -64.06867218 69.43289185
vertex -1.88650787 -59.70325470 75.50374603
endloop
endfacet
facet normal 2.95452571 -1.92633879 -6.25767994
outer loop
vertex -1.88650787 -59.70325470 75.50374603
vertex -17.59079933 -64.06867218 69.43289185
vertex -1.94700432 -59.32160187 75.35769653
endloop
endfacet
facet normal -1.03004110 -0.42002964 -1.16535258
outer loop
vertex -1.84828377 -59.60908890 75.43601990
vertex -1.88650787 -59.70325470 75.50374603
vertex -14.56147194 -60.44089508 86.97286224
endloop
endfacet
facet normal 15.96896076 24.70096207 19.23656654
outer loop
vertex -14.56147194 -60.44089508 86.97286224
vertex -1.88650787 -59.70325470 75.50374603
vertex -15.59492588 -58.98335648 85.95919800
endloop
endfacet
facet normal -30.89209366 -14.12033463 11.19169426
outer loop
vertex -14.56147194 -60.44089508 86.97286224
vertex -15.59492588 -58.98335648 85.95919800
vertex -14.97699165 -70.68427277 72.90205383
endloop
endfacet
facet normal -60.26334763 -27.49887085 21.79061699
outer loop
vertex -14.97699165 -70.68427277 72.90205383
vertex -15.59492588 -58.98335648 85.95919800
vertex -16.98775291 -67.87307739 70.88877869
endloop
endfacet
facet normal 29.42086601 -21.33650017 -59.17691422
outer loop
vertex -14.97699165 -70.68427277 72.90205383
vertex -16.98775291 -67.87307739 70.88877869
vertex -1.84828377 -59.60908890 75.43601990
endloop
endfacet
facet normal -0.98788261 1.19915187 1.10973668
outer loop
vertex -1.84828377 -59.60908890 75.43601990
vertex -16.98775291 -67.87307739 70.88877869
vertex -1.88650787 -59.70325470 75.50374603
endloop
endfacet
facet normal 24.24536896 37.97209167 29.45531654
outer loop
vertex -0.28242588 -61.82354736 77.00187683
vertex -1.84828377 -59.60908890 75.43601990
vertex -13.11261082 -62.48989487 88.42172241
endloop
endfacet
facet normal 22.43381691 35.13491440 27.25449181
outer loop
vertex -13.11261082 -62.48989487 88.42172241
vertex -1.84828377 -59.60908890 75.43601990
vertex -14.56147194 -60.44089508 86.97286224
endloop
endfacet
facet normal -43.67230225 -19.78461266 15.69263363
outer loop
vertex -13.11261082 -62.48989487 88.42172241
vertex -14.56147194 -60.44089508 86.97286224
vertex -14.96888447 -70.69573975 72.91016388
endloop
endfacet
facet normal -0.24442396 -0.11070477 0.08780972
outer loop
vertex -14.96888447 -70.69573975 72.91016388
vertex -14.56147194 -60.44089508 86.97286224
vertex -14.97699165 -70.68427277 72.90205383
endloop
endfacet
facet normal 0.11887348 -0.08593558 -0.24033785
outer loop
vertex -14.96888447 -70.69573975 72.91016388
vertex -14.97699165 -70.68427277 72.90205383
vertex -0.28242588 -61.82354736 77.00187683
endloop
endfacet
facet normal 22.95351601 -16.58984756 -46.41514206
outer loop
vertex -0.28242588 -61.82354736 77.00187683
vertex -14.97699165 -70.68427277 72.90205383
vertex -1.84828377 -59.60908890 75.43601990
endloop
endfacet
facet normal 32.47665405 20.55031395 37.68658447
outer loop
vertex 0.56500816 -64.71687317 77.84931183
vertex -0.28242588 -61.82354736 77.00187683
vertex -12.32849312 -65.16703796 89.20584106
endloop
endfacet
facet normal 30.05006409 19.01489067 34.87073517
outer loop
vertex -12.32849312 -65.16703796 89.20584106
vertex -0.28242588 -61.82354736 77.00187683
vertex -13.11261082 -62.48989487 88.42172241
endloop
endfacet
facet normal -47.96101761 -10.70734882 11.40385723
outer loop
vertex -12.32849312 -65.16703796 89.20584106
vertex -13.11261082 -62.48989487 88.42172241
vertex -14.96449757 -70.71071625 72.91455078
endloop
endfacet
facet normal -0.26830712 -0.05990440 0.06379872
outer loop
vertex -14.96449757 -70.71071625 72.91455078
vertex -13.11261082 -62.48989487 88.42172241
vertex -14.96888447 -70.69573975 72.91016388
endloop
endfacet
facet normal 0.10019986 -0.04647811 -0.25887206
outer loop
vertex -14.96449757 -70.71071625 72.91455078
vertex -14.96888447 -70.69573975 72.91016388
vertex 0.56500816 -64.71687317 77.84931183
endloop
endfacet
facet normal 19.35726547 -8.97836208 -50.01130676
outer loop
vertex 0.56500816 -64.71687317 77.84931183
vertex -14.96888447 -70.69573975 72.91016388
vertex -0.28242588 -61.82354736 77.00187683
endloop
endfacet
facet normal 0.08709101 0.05513319 0.10106714
outer loop
vertex 0.56728166 -64.72463226 77.85158539
vertex 0.56500816 -64.71687317 77.84931183
vertex -11.75093651 -67.13893890 89.78340149
endloop
endfacet
facet normal 22.13395309 14.00581455 25.68470383
outer loop
vertex -11.75093651 -67.13893890 89.78340149
vertex 0.56500816 -64.71687317 77.84931183
vertex -12.32849312 -65.16703796 89.20584106
endloop
endfacet
facet normal -35.32663727 -7.88669491 8.39972878
outer loop
vertex -11.75093651 -67.13893890 89.78340149
vertex -12.32849312 -65.16703796 89.20584106
vertex -13.93348312 -74.23081970 73.94556427
endloop
endfacet
facet normal -63.06263733 -14.07879925 14.99462032
outer loop
vertex -13.93348312 -74.23081970 73.94556427
vertex -12.32849312 -65.16703796 89.20584106
vertex -14.96449757 -70.71071625 72.91455078
endloop
endfacet
facet normal 23.55060577 -10.92332077 -60.84521103
outer loop
vertex -13.93348312 -74.23081970 73.94556427
vertex -14.96449757 -70.71071625 72.91455078
vertex 0.56728166 -64.72463226 77.85158539
endloop
endfacet
facet normal 0.05191664 -0.02408808 -0.13412189
outer loop
vertex 0.56728166 -64.72463226 77.85158539
vertex -14.96449757 -70.71071625 72.91455078
vertex 0.56500816 -64.71687317 77.84931183
endloop
endfacet
facet normal -2.91647434 -3.13957071 -3.49159431
outer loop
vertex 0.41140223 -64.45728302 77.74139404
vertex 0.56728166 -64.72463226 77.85158539
vertex -9.93640614 -69.10905457 90.56753540
endloop
endfacet
facet normal 21.61391640 31.30977440 28.64914703
outer loop
vertex -9.93640614 -69.10905457 90.56753540
vertex 0.56728166 -64.72463226 77.85158539
vertex -11.75093651 -67.13893890 89.78340149
endloop
endfacet
facet normal -36.74692535 -27.06091309 17.04463768
outer loop
vertex -9.93640614 -69.10905457 90.56753540
vertex -11.75093651 -67.13893890 89.78340149
vertex -11.63125324 -76.66230011 74.92166901
endloop
endfacet
facet normal -45.43181229 -34.33195114 21.63395882
outer loop
vertex -11.63125324 -76.66230011 74.92166901
vertex -11.75093651 -67.13893890 89.78340149
vertex -13.93348312 -74.23081970 73.94556427
endloop
endfacet
facet normal 18.76948166 -5.26323795 -57.38023758
outer loop
vertex -11.63125324 -76.66230011 74.92166901
vertex -13.93348312 -74.23081970 73.94556427
vertex 0.41140223 -64.45728302 77.74139404
endloop
endfacet
facet normal -2.09177136 0.98899037 5.35858774
outer loop
vertex 0.41140223 -64.45728302 77.74139404
vertex -13.93348312 -74.23081970 73.94556427
vertex 0.56728166 -64.72463226 77.85158539
endloop
endfacet
facet normal 33.87763214 48.48793030 44.91717148
outer loop
vertex 3.24490905 -67.52424622 78.91506958
vertex 0.41140223 -64.45728302 77.74139404
vertex -9.14794350 -69.96247864 90.89412689
endloop
endfacet
facet normal 9.42690945 13.49243927 12.49881649
outer loop
vertex -9.14794350 -69.96247864 90.89412689
vertex 0.41140223 -64.45728302 77.74139404
vertex -9.93640614 -69.10905457 90.56753540
endloop
endfacet
facet normal -15.81938171 -11.78265572 7.40187693
outer loop
vertex -9.14794350 -69.96247864 90.89412689
vertex -9.93640614 -69.10905457 90.56753540
vertex -11.29128456 -77.03028107 75.06249237
endloop
endfacet
facet normal -6.82105446 -5.08043051 3.19153833
outer loop
vertex -11.29128456 -77.03028107 75.06249237
vertex -9.93640614 -69.10905457 90.56753540
vertex -11.63125324 -76.66230011 74.92166901
endloop
endfacet
facet normal 2.75634670 -0.73728013 -8.58079624
outer loop
vertex -11.29128456 -77.03028107 75.06249237
vertex -11.63125324 -76.66230011 74.92166901
vertex 3.24490905 -67.52424622 78.91506958
endloop
endfacet
facet normal 22.97272301 -6.14445972 -71.51737976
outer loop
vertex 3.24490905 -67.52424622 78.91506958
vertex -11.63125324 -76.66230011 74.92166901
vertex 0.41140223 -64.45728302 77.74139404
endloop
endfacet
facet normal 41.71259689 25.70429039 48.37682724
outer loop
vertex 4.26052570 -71.24082184 80.01410675
vertex 3.24490905 -67.52424622 78.91506958
vertex -8.63296509 -71.69098663 91.37062073
endloop
endfacet
facet normal 19.54409409 12.07407379 22.67678070
outer loop
vertex -8.63296509 -71.69098663 91.37062073
vertex 3.24490905 -67.52424622 78.91506958
vertex -9.14794350 -69.96247864 90.89412689
endloop
endfacet
facet normal -30.80115891 -7.13361788 7.41125202
outer loop
vertex -8.63296509 -71.69098663 91.37062073
vertex -9.14794350 -69.96247864 90.89412689
vertex -11.26898003 -77.23467255 75.07933044
endloop
endfacet
facet normal -3.35485935 -0.31702751 0.59572470
outer loop
vertex -11.26898003 -77.23467255 75.07933044
vertex -9.14794350 -69.96247864 90.89412689
vertex -11.29128456 -77.03028107 75.06249237
endloop
endfacet
facet normal 1.10955107 -0.15141909 -3.30778885
outer loop
vertex -11.26898003 -77.23467255 75.07933044
vertex -11.29128456 -77.03028107 75.06249237
vertex 4.26052570 -71.24082184 80.01410675
endloop
endfacet
facet normal 24.76588058 -12.06307602 -63.67935181
outer loop
vertex 4.26052570 -71.24082184 80.01410675
vertex -11.29128456 -77.03028107 75.06249237
vertex 3.24490905 -67.52424622 78.91506958
endloop
endfacet
facet normal 0.08709083 0.05511675 0.10106374
outer loop
vertex 4.26279783 -71.24858093 80.01638031
vertex 4.26052570 -71.24082184 80.01410675
vertex -8.05540943 -73.66288757 91.94817352
endloop
endfacet
facet normal 22.13392639 14.00569057 25.68468285
outer loop
vertex -8.05540943 -73.66288757 91.94817352
vertex 4.26052570 -71.24082184 80.01410675
vertex -8.63296509 -71.69098663 91.37062073
endloop
endfacet
facet normal -35.32656479 -7.88668633 8.39974213
outer loop
vertex -8.05540943 -73.66288757 91.94817352
vertex -8.63296509 -71.69098663 91.37062073
vertex -10.23796654 -80.75476837 76.11034393
endloop
endfacet
facet normal -63.06251526 -14.07877254 14.99464035
outer loop
vertex -10.23796654 -80.75476837 76.11034393
vertex -8.63296509 -71.69098663 91.37062073
vertex -11.26898003 -77.23467255 75.07933044
endloop
endfacet
facet normal 23.55062866 -10.92330742 -60.84508896
outer loop
vertex -10.23796654 -80.75476837 76.11034393
vertex -11.26898003 -77.23467255 75.07933044
vertex 4.26279783 -71.24858093 80.01638031
endloop
endfacet
facet normal 0.05191677 -0.02409481 -0.13411370
outer loop
vertex 4.26279783 -71.24858093 80.01638031
vertex -11.26898003 -77.23467255 75.07933044
vertex 4.26052570 -71.24082184 80.01410675
endloop
endfacet
facet normal -2.91650009 -3.13969851 -3.49166250
outer loop
vertex 4.10692072 -70.98122406 79.90617371
vertex 4.26279783 -71.24858093 80.01638031
vertex -6.24088430 -75.63300323 92.73231506
endloop
endfacet
facet normal 21.61385536 31.30975723 28.64911270
outer loop
vertex -6.24088430 -75.63300323 92.73231506
vertex 4.26279783 -71.24858093 80.01638031
vertex -8.05540943 -73.66288757 91.94817352
endloop
endfacet
facet normal -36.74697876 -27.06081390 17.04460907
outer loop
vertex -6.24088430 -75.63300323 92.73231506
vertex -8.05540943 -73.66288757 91.94817352
vertex -7.93573666 -83.18624878 77.08644867
endloop
endfacet
facet normal -45.43179321 -34.33192062 21.63398552
outer loop
vertex -7.93573666 -83.18624878 77.08644867
vertex -8.05540943 -73.66288757 91.94817352
vertex -10.23796654 -80.75476837 76.11034393
endloop
endfacet
facet normal 18.76948929 -5.26323986 -57.38025665
outer loop
vertex -7.93573666 -83.18624878 77.08644867
vertex -10.23796654 -80.75476837 76.11034393
vertex 4.10692072 -70.98122406 79.90617371
endloop
endfacet
facet normal -2.09195042 0.98921829 5.35867596
outer loop
vertex 4.10692072 -70.98122406 79.90617371
vertex -10.23796654 -80.75476837 76.11034393
vertex 4.26279783 -71.24858093 80.01638031
endloop
endfacet
facet normal -57.79692078 62.55892563 -23.94024658
outer loop
vertex -3.42361069 -76.68007660 83.19467163
vertex -6.24088430 -75.63300323 92.73231506
vertex 4.10692072 -70.98122406 79.90617371
endloop
endfacet
facet normal -55.65779114 60.24358368 -23.05419540
outer loop
vertex -3.42361069 -76.68007660 83.19467163
vertex -7.93573666 -83.18624878 77.08644867
vertex -6.24088430 -75.63300323 92.73231506
endloop
endfacet
facet normal -56.20539474 60.83628082 -23.28099442
outer loop
vertex -3.42361069 -76.68007660 83.19467163
vertex 4.10692072 -70.98122406 79.90617371
vertex -7.93573666 -83.18624878 77.08644867
endloop
endfacet
endsolid