solid (null).stl
facet normal 0.00000000 -0.00000000 86.60253906
outer loop
vertex 0.00000000 0.00000000 0.00000000
vertex 10.00000000 0.00000000 0.00000000
vertex -5.00000048 8.66025352 0.00000000
endloop
endfacet
facet normal 0.00000000 0.00000000 86.60253906
outer loop
vertex 0.00000000 0.00000000 0.00000000
vertex -5.00000048 8.66025352 0.00000000
vertex -4.99999905 -8.66025448 0.00000000
endloop
endfacet
facet normal -0.00000000 0.00000000 86.60254669
outer loop
vertex 0.00000000 0.00000000 0.00000000
vertex -4.99999905 -8.66025448 0.00000000
vertex 10.00000000 0.00000000 0.00000000
endloop
endfacet
facet normal 17.32050705 30.00000000 0.00000000
outer loop
vertex 10.00000000 0.00000000 2.00000000
vertex 10.00000000 0.00000000 0.00000000
vertex -5.00000048 8.66025352 2.00000000
endloop
endfacet
facet normal 17.32050705 30.00000000 0.00000000
outer loop
vertex -5.00000048 8.66025352 2.00000000
vertex 10.00000000 0.00000000 0.00000000
vertex -5.00000048 8.66025352 0.00000000
endloop
endfacet
facet normal -34.64101410 -0.00000286 -0.00000000
outer loop
vertex -5.00000048 8.66025352 2.00000000
vertex -5.00000048 8.66025352 0.00000000
vertex -4.99999905 -8.66025448 2.00000000
endloop
endfacet
facet normal -34.64101410 -0.00000286 -0.00000000
outer loop
vertex -4.99999905 -8.66025448 2.00000000
vertex -5.00000048 8.66025352 0.00000000
vertex -4.99999905 -8.66025448 0.00000000
endloop
endfacet
facet normal 17.32050896 -29.99999809 0.00000000
outer loop
vertex -4.99999905 -8.66025448 2.00000000
vertex -4.99999905 -8.66025448 0.00000000
vertex 10.00000000 0.00000000 2.00000000
endloop
endfacet
facet normal 17.32050896 -29.99999809 0.00000000
outer loop
vertex 10.00000000 0.00000000 2.00000000
vertex -4.99999905 -8.66025448 0.00000000
vertex 10.00000000 0.00000000 0.00000000
endloop
endfacet
facet normal 34.54681778 59.83684921 0.00000000
outer loop
vertex 10.00000000 0.00000000 5.98912334
vertex 10.00000000 0.00000000 2.00000000
vertex -5.00000048 8.66025352 4.76181793
endloop
endfacet
facet normal 23.91804314 41.42726898 0.00000000
outer loop
vertex -5.00000048 8.66025352 4.76181793
vertex 10.00000000 0.00000000 2.00000000
vertex -5.00000048 8.66025352 2.00000000
endloop
endfacet
facet normal -47.83608627 -0.00000395 -0.00000000
outer loop
vertex -5.00000048 8.66025352 4.76181793
vertex -5.00000048 8.66025352 2.00000000
vertex -4.99999905 -8.66025448 1.24905825
endloop
endfacet
facet normal 13.00669193 0.00000107 -0.00000000
outer loop
vertex -4.99999905 -8.66025448 1.24905825
vertex -5.00000048 8.66025352 2.00000000
vertex -4.99999905 -8.66025448 2.00000000
endloop
endfacet
facet normal -6.50334692 11.26412582 0.00000000
outer loop
vertex -4.99999905 -8.66025448 1.24905825
vertex -4.99999905 -8.66025448 2.00000000
vertex 10.00000000 0.00000000 5.98912334
endloop
endfacet
facet normal 34.54682159 -59.83684540 0.00000000
outer loop
vertex 10.00000000 0.00000000 5.98912334
vertex -4.99999905 -8.66025448 2.00000000
vertex 10.00000000 0.00000000 2.00000000
endloop
endfacet
facet normal 26.51861763 50.61960983 33.97267914
outer loop
vertex 8.61619282 -1.46659970 9.25455189
vertex 10.00000000 0.00000000 5.98912334
vertex -6.02986145 7.56123304 7.23550987
endloop
endfacet
facet normal 20.07396507 38.36933517 25.40416336
outer loop
vertex -6.02986145 7.56123304 7.23550987
vertex 10.00000000 0.00000000 5.98912334
vertex -5.00000048 8.66025352 4.76181793
endloop
endfacet
facet normal -46.68845749 3.61378741 -17.83204651
outer loop
vertex -6.02986145 7.56123304 7.23550987
vertex -5.00000048 8.66025352 4.76181793
vertex -4.73866034 -8.37586021 0.62508249
endloop
endfacet
facet normal 11.80658627 -0.91801924 4.52651978
outer loop
vertex -4.73866034 -8.37586021 0.62508249
vertex -5.00000048 8.66025352 4.76181793
vertex -4.99999905 -8.66025448 1.24905825
endloop
endfacet
facet normal -6.76538277 10.58831787 1.99238622
outer loop
vertex -4.73866034 -8.37586021 0.62508249
vertex -4.99999905 -8.66025448 1.24905825
vertex 8.61619282 -1.46659970 9.25455189
endloop
endfacet
facet normal 35.23122025 -55.54076004 -10.01487160
outer loop
vertex 8.61619282 -1.46659970 9.25455189
vertex -4.99999905 -8.66025448 1.24905825
vertex 10.00000000 0.00000000 5.98912334
endloop
endfacet
facet normal 1.16191816 2.21471119 1.47422540
outer loop
vertex 8.55694103 -1.53073370 9.39759922
vertex 8.61619282 -1.46659970 9.25455189
vertex -6.41978979 7.13917732 8.17688084
endloop
endfacet
facet normal 7.64639139 14.57465172 9.70165825
outer loop
vertex -6.41978979 7.13917732 8.17688084
vertex 8.61619282 -1.46659970 9.25455189
vertex -6.02986145 7.56123304 7.23550987
endloop
endfacet
facet normal -17.79268646 1.36209452 -6.75928211
outer loop
vertex -6.41978979 7.13917732 8.17688084
vertex -6.02986145 7.56123304 7.23550987
vertex -6.41186714 -10.18692684 4.66456175
endloop
endfacet
facet normal -76.34947968 5.84483194 -29.00450325
outer loop
vertex -6.41186714 -10.18692684 4.66456175
vertex -6.02986145 7.56123304 7.23550987
vertex -4.73866034 -8.37586021 0.62508249
endloop
endfacet
facet normal 43.53835678 -68.38554382 -12.62590790
outer loop
vertex -6.41186714 -10.18692684 4.66456175
vertex -4.73866034 -8.37586021 0.62508249
vertex 8.55694103 -1.53073370 9.39759922
endloop
endfacet
facet normal 1.54179370 -2.42168760 -0.44711414
outer loop
vertex 8.55694103 -1.53073370 9.39759922
vertex -4.73866034 -8.37586021 0.62508249
vertex 8.61619282 -1.46659970 9.25455189
endloop
endfacet
facet normal 0.14388113 0.24920942 -0.24981186
outer loop
vertex 8.58578682 -1.53073370 9.41421318
vertex 8.55694103 -1.53073370 9.39759922
vertex -6.41421413 7.12952042 9.41421318
endloop
endfacet
facet normal 10.71577358 18.52438736 0.09628844
outer loop
vertex -6.41421413 7.12952042 9.41421318
vertex 8.55694103 -1.53073370 9.39759922
vertex -6.41978979 7.13917732 8.17688084
endloop
endfacet
facet normal -21.43122673 -0.00000236 0.09657320
outer loop
vertex -6.41421413 7.12952042 9.41421318
vertex -6.41978979 7.13917732 8.17688084
vertex -6.41421223 -10.19098854 9.41421318
endloop
endfacet
facet normal -82.30722046 -0.02939313 -0.04066337
outer loop
vertex -6.41421223 -10.19098854 9.41421318
vertex -6.41978979 7.13917732 8.17688084
vertex -6.41186714 -10.18692684 4.66456175
endloop
endfacet
facet normal 41.13319016 -71.24476624 -0.04061645
outer loop
vertex -6.41421223 -10.19098854 9.41421318
vertex -6.41186714 -10.18692684 4.66456175
vertex 8.58578682 -1.53073370 9.41421318
endloop
endfacet
facet normal 0.14381364 -0.11216299 -0.24969469
outer loop
vertex 8.58578682 -1.53073370 9.41421318
vertex -6.41186714 -10.18692684 4.66456175
vertex 8.55694103 -1.53073370 9.39759922
endloop
endfacet
facet normal 34.54682159 59.83685303 0.00000000
outer loop
vertex 8.58578682 -1.53073370 13.40333652
vertex 8.58578682 -1.53073370 9.41421318
vertex -6.41421413 7.12952042 12.17603111
endloop
endfacet
facet normal 23.91804695 41.42727280 0.00000000
outer loop
vertex -6.41421413 7.12952042 12.17603111
vertex 8.58578682 -1.53073370 9.41421318
vertex -6.41421413 7.12952042 9.41421318
endloop
endfacet
facet normal -47.83609390 -0.00000527 -0.00000000
outer loop
vertex -6.41421413 7.12952042 12.17603111
vertex -6.41421413 7.12952042 9.41421318
vertex -6.41421223 -10.19098854 8.66327095
endloop
endfacet
facet normal 13.00670147 0.00000143 -0.00000000
outer loop
vertex -6.41421223 -10.19098854 8.66327095
vertex -6.41421413 7.12952042 9.41421318
vertex -6.41421223 -10.19098854 9.41421318
endloop
endfacet
facet normal -6.50335073 11.26413250 0.00000000
outer loop
vertex -6.41421223 -10.19098854 8.66327095
vertex -6.41421223 -10.19098854 9.41421318
vertex 8.58578682 -1.53073370 13.40333652
endloop
endfacet
facet normal 34.54682159 -59.83684540 0.00000000
outer loop
vertex 8.58578682 -1.53073370 13.40333652
vertex -6.41421223 -10.19098854 9.41421318
vertex 8.58578682 -1.53073370 9.41421318
endloop
endfacet
facet normal 26.51861000 50.61959076 33.97267914
outer loop
vertex 7.20197916 -2.99733329 16.66876411
vertex 8.58578682 -1.53073370 13.40333652
vertex -7.44407415 6.03049946 14.64972305
endloop
endfacet
facet normal 20.07396507 38.36933517 25.40416527
outer loop
vertex -7.44407415 6.03049946 14.64972305
vertex 8.58578682 -1.53073370 13.40333652
vertex -6.41421413 7.12952042 12.17603111
endloop
endfacet
facet normal -46.68846130 3.61378288 -17.83203125
outer loop
vertex -7.44407415 6.03049946 14.64972305
vertex -6.41421413 7.12952042 12.17603111
vertex -6.15287352 -9.90659428 8.03929520
endloop
endfacet
facet normal 11.80658627 -0.91801906 4.52651978
outer loop
vertex -6.15287352 -9.90659428 8.03929520
vertex -6.41421413 7.12952042 12.17603111
vertex -6.41421223 -10.19098854 8.66327095
endloop
endfacet
facet normal -6.76538277 10.58831787 1.99238622
outer loop
vertex -6.15287352 -9.90659428 8.03929520
vertex -6.41421223 -10.19098854 8.66327095
vertex 7.20197916 -2.99733329 16.66876411
endloop
endfacet
facet normal 35.23121262 -55.54075241 -10.01486683
outer loop
vertex 7.20197916 -2.99733329 16.66876411
vertex -6.41421223 -10.19098854 8.66327095
vertex 8.58578682 -1.53073370 13.40333652
endloop
endfacet
facet normal 14.91290474 28.42522049 18.92133331
outer loop
vertex 6.44149399 -3.82047653 18.50473785
vertex 7.20197916 -2.99733329 16.66876411
vertex -7.51735640 5.95117950 14.82664204
endloop
endfacet
facet normal 1.43704486 2.73912454 1.82330406
outer loop
vertex -7.51735640 5.95117950 14.82664204
vertex 7.20197916 -2.99733329 16.66876411
vertex -7.44407415 6.03049946 14.64972305
endloop
endfacet
facet normal -3.34391403 0.25598907 -1.27032423
outer loop
vertex -7.51735640 5.95117950 14.82664204
vertex -7.44407415 6.03049946 14.64972305
vertex -7.43929482 -11.29900646 11.14499092
endloop
endfacet
facet normal -58.70020294 4.49371910 -22.29969978
outer loop
vertex -7.43929482 -11.29900646 11.14499092
vertex -7.44407415 6.03049946 14.64972305
vertex -6.15287352 -9.90659428 8.03929520
endloop
endfacet
facet normal 33.47383881 -52.57723999 -9.70723915
outer loop
vertex -7.43929482 -11.29900646 11.14499092
vertex -6.15287352 -9.90659428 8.03929520
vertex 6.44149399 -3.82047653 18.50473785
endloop
endfacet
facet normal 19.78850937 -31.08174324 -5.73856688
outer loop
vertex 6.44149399 -3.82047653 18.50473785
vertex -6.15287352 -9.90659428 8.03929520
vertex 7.20197916 -2.99733329 16.66876411
endloop
endfacet
facet normal 19.41866112 30.76723480 8.04347038
outer loop
vertex 5.61835098 -3.82047653 20.49198151
vertex 6.44149399 -3.82047653 18.50473785
vertex -7.59667587 5.95117903 15.01813698
endloop
endfacet
facet normal 1.87122107 2.96479392 0.77508932
outer loop
vertex -7.59667587 5.95117903 15.01813698
vertex 6.44149399 -3.82047653 18.50473785
vertex -7.51735640 5.95117950 14.82664204
endloop
endfacet
facet normal -3.30332351 0.27707919 -1.36827505
outer loop
vertex -7.59667587 5.95117903 15.01813698
vertex -7.51735640 5.95117950 14.82664204
vertex -8.83170605 -11.29900551 14.50657082
endloop
endfacet
facet normal -57.98787689 4.86396217 -24.01935387
outer loop
vertex -8.83170605 -11.29900551 14.50657082
vertex -7.51735640 5.95117950 14.82664204
vertex -7.43929482 -11.29900646 11.14499092
endloop
endfacet
facet normal 25.13966751 -56.90917206 10.41320133
outer loop
vertex -8.83170605 -11.29900551 14.50657082
vertex -7.43929482 -11.29900646 11.14499092
vertex 5.61835098 -3.82047653 20.49198151
endloop
endfacet
facet normal 14.86166096 -33.64263153 6.15589952
outer loop
vertex 5.61835098 -3.82047653 20.49198151
vertex -7.43929482 -11.29900646 11.14499092
vertex 6.44149399 -3.82047653 18.50473785
endloop
endfacet
facet normal 1.53968143 2.43949413 0.63775355
outer loop
vertex 5.55308533 -3.82047653 20.64954758
vertex 5.61835098 -3.82047653 20.49198151
vertex -7.99236202 5.95117903 15.97340775
endloop
endfacet
facet normal 9.33457756 14.78985310 3.86650896
outer loop
vertex -7.99236202 5.95117903 15.97340775
vertex 5.61835098 -3.82047653 20.49198151
vertex -7.59667587 5.95117903 15.01813698
endloop
endfacet
facet normal -16.47859764 1.38220716 -6.82565928
outer loop
vertex -7.99236202 5.95117903 15.97340775
vertex -7.59667587 5.95117903 15.01813698
vertex -10.66796589 -11.29900551 18.93969536
endloop
endfacet
facet normal -76.47222137 6.41441059 -31.67582130
outer loop
vertex -10.66796589 -11.29900551 18.93969536
vertex -7.59667587 5.95117903 15.01813698
vertex -8.83170605 -11.29900551 14.50657082
endloop
endfacet
facet normal 33.15325165 -75.04966736 13.73252201
outer loop
vertex -10.66796589 -11.29900551 18.93969536
vertex -8.83170605 -11.29900551 14.50657082
vertex 5.55308533 -3.82047653 20.64954758
endloop
endfacet
facet normal 1.17836237 -2.66748047 0.48809108
outer loop
vertex 5.55308533 -3.82047653 20.64954758
vertex -8.83170605 -11.29900551 14.50657082
vertex 5.61835098 -3.82047653 20.49198151
endloop
endfacet
facet normal 3.53619099 4.17168236 -1.47207832
outer loop
vertex 5.52609348 -3.69165850 20.94976234
vertex 5.55308533 -3.82047653 20.64954758
vertex -7.99710512 6.30964565 16.80708504
endloop
endfacet
facet normal 9.82264709 11.31471062 -4.80924273
outer loop
vertex -7.99710512 6.30964565 16.80708504
vertex 5.55308533 -3.82047653 20.64954758
vertex -7.99236202 5.95117903 15.97340775
endloop
endfacet
facet normal -15.49641418 2.19123554 -1.03035772
outer loop
vertex -7.99710512 6.30964565 16.80708504
vertex -7.99236202 5.95117903 15.97340775
vertex -10.66268539 -9.46826077 23.34250832
endloop
endfacet
facet normal -81.37985229 11.79584694 -4.80725813
outer loop
vertex -10.66268539 -9.46826077 23.34250832
vertex -7.99236202 5.95117903 15.97340775
vertex -10.66796589 -11.29900551 18.93969536
endloop
endfacet
facet normal 29.81380653 -71.28879547 29.60701561
outer loop
vertex -10.66268539 -9.46826077 23.34250832
vertex -10.66796589 -11.29900551 18.93969536
vertex 5.52609348 -3.69165850 20.94976234
endloop
endfacet
facet normal 2.02490497 -4.91595125 2.29142332
outer loop
vertex 5.52609348 -3.69165850 20.94976234
vertex -10.66796589 -11.29900551 18.93969536
vertex 5.55308533 -3.82047653 20.64954758
endloop
endfacet
facet normal 39.71582031 45.83708572 -18.98634338
outer loop
vertex 5.52609348 -2.28767538 24.33927727
vertex 5.52609348 -3.69165850 20.94976234
vertex -7.99710512 7.49368000 19.66559601
endloop
endfacet
facet normal 33.49391174 38.65621185 -16.01193237
outer loop
vertex -7.99710512 7.49368000 19.66559601
vertex 5.52609348 -3.69165850 20.94976234
vertex -7.99710512 6.30964565 16.80708504
endloop
endfacet
facet normal -52.83948517 7.61959028 -3.15613866
outer loop
vertex -7.99710512 7.49368000 19.66559601
vertex -7.99710512 6.30964565 16.80708504
vertex -10.66268539 -9.76137638 22.63486481
endloop
endfacet
facet normal 13.08076763 -1.88628054 0.78132319
outer loop
vertex -10.66268539 -9.76137638 22.63486481
vertex -7.99710512 6.30964565 16.80708504
vertex -10.66268539 -9.46826077 23.34250832
endloop
endfacet
facet normal -4.78912592 11.45588398 -4.74518347
outer loop
vertex -10.66268539 -9.76137638 22.63486481
vertex -10.66268539 -9.46826077 23.34250832
vertex 5.52609348 -2.28767538 24.33927727
endloop
endfacet
facet normal 22.93925476 -54.87210464 22.72877121
outer loop
vertex 5.52609348 -2.28767538 24.33927727
vertex -10.66268539 -9.46826077 23.34250832
vertex 5.52609348 -3.69165850 20.94976234
endloop
endfacet
facet normal 34.61690140 54.70462418 14.08359146
outer loop
vertex 4.08761883 -2.28974223 27.88301849
vertex 5.52609348 -2.28767538 24.33927727
vertex -9.12740898 7.48191261 22.40917397
endloop
endfacet
facet normal 26.78091431 42.38462830 11.21503735
outer loop
vertex -9.12740898 7.48191261 22.40917397
vertex 5.52609348 -2.28767538 24.33927727
vertex -7.99710512 7.49368000 19.66559601
endloop
endfacet
facet normal -47.33324814 3.96662927 -19.48341751
outer loop
vertex -9.12740898 7.48191261 22.40917397
vertex -7.99710512 7.49368000 19.66559601
vertex -10.36244011 -9.76827240 21.89760780
endloop
endfacet
facet normal 12.74188709 -1.07370877 5.19913054
outer loop
vertex -10.36244011 -9.76827240 21.89760780
vertex -7.99710512 7.49368000 19.66559601
vertex -10.66268539 -9.76137638 22.63486481
endloop
endfacet
facet normal -5.47232294 12.45049858 -2.34504128
outer loop
vertex -10.36244011 -9.76827240 21.89760780
vertex -10.66268539 -9.76137638 22.63486481
vertex 4.08761883 -2.28974223 27.88301849
endloop
endfacet
facet normal 26.48838425 -59.82059479 10.71726894
outer loop
vertex 4.08761883 -2.28974223 27.88301849
vertex -10.66268539 -9.76137638 22.63486481
vertex 5.52609348 -2.28767538 24.33927727
endloop
endfacet
facet normal 35.96133423 56.97771835 14.89567089
outer loop
vertex 2.56324339 -2.28974223 31.56318665
vertex 4.08761883 -2.28974223 27.88301849
vertex -9.56297016 7.48191261 23.46071053
endloop
endfacet
facet normal 10.27525234 16.28027916 4.25615358
outer loop
vertex -9.56297016 7.48191261 23.46071053
vertex 4.08761883 -2.28974223 27.88301849
vertex -9.12740898 7.48191261 22.40917397
endloop
endfacet
facet normal -18.13920021 1.52149868 -7.51351070
outer loop
vertex -9.56297016 7.48191261 23.46071053
vertex -9.12740898 7.48191261 22.40917397
vertex -10.69624424 -9.76827240 22.70348167
endloop
endfacet
facet normal -13.90147305 1.16604221 -5.75818300
outer loop
vertex -10.69624424 -9.76827240 22.70348167
vertex -9.12740898 7.48191261 22.40917397
vertex -10.36244011 -9.76827240 21.89760780
endloop
endfacet
facet normal 6.02675200 -13.64288044 2.49636412
outer loop
vertex -10.69624424 -9.76827240 22.70348167
vertex -10.36244011 -9.76827240 21.89760780
vertex 2.56324339 -2.28974223 31.56318665
endloop
endfacet
facet normal 27.52224731 -62.30266190 11.40008736
outer loop
vertex 2.56324339 -2.28974223 31.56318665
vertex -10.36244011 -9.76827240 21.89760780
vertex 4.08761883 -2.28974223 27.88301849
endloop
endfacet
facet normal 27.52363396 56.97777176 27.52363968
outer loop
vertex -0.25343847 -2.28974199 34.37986755
vertex 2.56324339 -2.28974223 31.56318665
vertex -10.36778164 7.48191261 24.26552200
endloop
endfacet
facet normal 7.86434031 16.28028107 7.86434031
outer loop
vertex -10.36778164 7.48191261 24.26552200
vertex 2.56324339 -2.28974223 31.56318665
vertex -9.56297016 7.48191261 23.46071053
endloop
endfacet
facet normal -13.88314724 1.52149844 -13.88314724
outer loop
vertex -10.36778164 7.48191261 24.26552200
vertex -9.56297016 7.48191261 23.46071053
vertex -11.31303310 -9.76827240 23.32027054
endloop
endfacet
facet normal -10.63972187 1.16604114 -10.63972187
outer loop
vertex -11.31303310 -9.76827240 23.32027054
vertex -9.56297016 7.48191261 23.46071053
vertex -10.69624424 -9.76827240 22.70348167
endloop
endfacet
facet normal 4.61267424 -13.64287186 4.61267424
outer loop
vertex -11.31303310 -9.76827240 23.32027054
vertex -10.69624424 -9.76827240 22.70348167
vertex -0.25343847 -2.28974199 34.37986755
endloop
endfacet
facet normal 21.06463242 -62.30271912 21.06464195
outer loop
vertex -0.25343847 -2.28974199 34.37986755
vertex -10.69624424 -9.76827240 22.70348167
vertex 2.56324339 -2.28974223 31.56318665
endloop
endfacet
facet normal 1.17840314 2.43944740 1.17839086
outer loop
vertex -0.37403125 -2.28974199 34.50046158
vertex -0.25343847 -2.28974199 34.37986755
vertex -11.09891319 7.48191261 24.99665260
endloop
endfacet
facet normal 7.14435530 14.78982258 7.14436483
outer loop
vertex -11.09891319 7.48191261 24.99665260
vertex -0.25343847 -2.28974199 34.37986755
vertex -10.36778164 7.48191261 24.26552200
endloop
endfacet
facet normal -12.61213779 1.38220227 -12.61215496
outer loop
vertex -11.09891319 7.48191261 24.99665260
vertex -10.36778164 7.48191261 24.26552200
vertex -14.70599842 -9.76827240 26.71323586
endloop
endfacet
facet normal -58.52927780 6.41441154 -58.52927780
outer loop
vertex -14.70599842 -9.76827240 26.71323586
vertex -10.36778164 7.48191261 24.26552200
vertex -11.31303310 -9.76827240 23.32027054
endloop
endfacet
facet normal 25.37439346 -75.04965210 25.37439346
outer loop
vertex -14.70599842 -9.76827240 26.71323586
vertex -11.31303310 -9.76827240 23.32027054
vertex -0.37403125 -2.28974199 34.50046158
endloop
endfacet
facet normal 0.90186608 -2.66742849 0.90185672
outer loop
vertex -0.37403125 -2.28974199 34.50046158
vertex -11.31303310 -9.76827240 23.32027054
vertex -0.25343847 -2.28974199 34.37986755
endloop
endfacet
facet normal 3.83034611 4.17168140 -0.00677407
outer loop
vertex -0.51385593 -2.16092443 34.76749420
vertex -0.37403125 -2.28974199 34.50046158
vertex -11.42233086 7.84037828 25.76505661
endloop
endfacet
facet normal 10.91536808 11.31474304 -0.68417621
outer loop
vertex -11.42233086 7.84037828 25.76505661
vertex -0.37403125 -2.28974199 34.50046158
vertex -11.09891319 7.48191261 24.99665260
endloop
endfacet
facet normal -13.92253971 2.19123888 -6.88215971
outer loop
vertex -11.42233086 7.84037828 25.76505661
vertex -11.09891319 7.48191261 24.99665260
vertex -16.38600540 -7.93752670 30.78292847
endloop
endfacet
facet normal -73.34557343 11.79585648 -35.58408737
outer loop
vertex -16.38600540 -7.93752670 30.78292847
vertex -11.09891319 7.48191261 24.99665260
vertex -14.70599842 -9.76827240 26.71323586
endloop
endfacet
facet normal 16.21426773 -71.28887177 38.76259995
outer loop
vertex -16.38600540 -7.93752670 30.78292847
vertex -14.70599842 -9.76827240 26.71323586
vertex -0.51385593 -2.16092443 34.76749420
endloop
endfacet
facet normal 0.99388003 -4.91594934 2.89189219
outer loop
vertex -0.51385593 -2.16092443 34.76749420
vertex -14.70599842 -9.76827240 26.71323586
vertex -0.37403125 -2.28974199 34.50046158
endloop
endfacet
facet normal 7.84466982 8.17993736 -0.41803765
outer loop
vertex -0.74533415 -1.91037416 35.32633209
vertex -0.51385593 -2.16092443 34.76749420
vertex -11.65948868 8.09707642 26.33760643
endloop
endfacet
facet normal 8.03715324 8.38064384 -0.42829776
outer loop
vertex -11.65948868 8.09707642 26.33760643
vertex -0.51385593 -2.16092443 34.76749420
vertex -11.42233086 7.84037828 25.76505661
endloop
endfacet
facet normal -10.32171631 1.65192366 -5.01602030
outer loop
vertex -11.65948868 8.09707642 26.33760643
vertex -11.42233086 7.84037828 25.76505661
vertex -18.03899765 -6.14834118 34.77360535
endloop
endfacet
facet normal -71.94242859 11.51391888 -34.96168900
outer loop
vertex -18.03899765 -6.14834118 34.77360535
vertex -11.42233086 7.84037828 25.76505661
vertex -16.38600540 -7.93752670 30.78292847
endloop
endfacet
facet normal 15.92342663 -69.92707062 37.94689941
outer loop
vertex -18.03899765 -6.14834118 34.77360535
vertex -16.38600540 -7.93752670 30.78292847
vertex -0.74533415 -1.91037416 35.32633209
endloop
endfacet
facet normal 2.22985029 -9.79229832 5.31392860
outer loop
vertex -0.74533415 -1.91037416 35.32633209
vertex -16.38600540 -7.93752670 30.78292847
vertex -0.51385593 -2.16092443 34.76749420
endloop
endfacet
facet normal 14.93812275 8.84754276 -8.22419834
outer loop
vertex -0.79275513 -1.11249793 36.09854889
vertex -0.74533415 -1.91037416 35.32633209
vertex -11.66583157 8.40166569 26.58438492
endloop
endfacet
facet normal 5.20749283 2.75039315 -3.26085830
outer loop
vertex -11.66583157 8.40166569 26.58438492
vertex -0.74533415 -1.91037416 35.32633209
vertex -11.65948868 8.09707642 26.33760643
endloop
endfacet
facet normal -6.25781441 1.49186814 -2.00219917
outer loop
vertex -11.66583157 8.40166569 26.58438492
vertex -11.65948868 8.09707642 26.33760643
vertex -18.00292206 -2.94795275 37.93400574
endloop
endfacet
facet normal -72.01969910 20.46613503 -19.90299416
outer loop
vertex -18.00292206 -2.94795275 37.93400574
vertex -11.65948868 8.09707642 26.33760643
vertex -18.03899765 -6.14834118 34.77360535
endloop
endfacet
facet normal 11.67494774 -54.45723343 55.01300430
outer loop
vertex -18.00292206 -2.94795275 37.93400574
vertex -18.03899765 -6.14834118 34.77360535
vertex -0.79275513 -1.11249793 36.09854889
endloop
endfacet
facet normal 2.83162212 -13.38066769 13.99917221
outer loop
vertex -0.79275513 -1.11249793 36.09854889
vertex -18.03899765 -6.14834118 34.77360535
vertex -0.74533415 -1.91037416 35.32633209
endloop
endfacet
facet normal 17.34656334 9.91208458 -9.91210175
outer loop
vertex -0.79275519 -0.20087898 37.01016617
vertex -0.79275513 -1.11249793 36.09854889
vertex -11.66583157 11.20576954 29.38848877
endloop
endfacet
facet normal 53.35740662 30.48923492 -30.48923492
outer loop
vertex -11.66583157 11.20576954 29.38848877
vertex -0.79275513 -1.11249793 36.09854889
vertex -11.66583157 8.40166569 26.58438492
endloop
endfacet
facet normal -63.65103149 17.76985931 -17.76985931
outer loop
vertex -11.66583157 11.20576954 29.38848877
vertex -11.66583157 8.40166569 26.58438492
vertex -18.00292206 -2.40143013 38.48052979
endloop
endfacet
facet normal -12.40566349 3.46337223 -3.46336317
outer loop
vertex -18.00292206 -2.40143013 38.48052979
vertex -11.66583157 8.40166569 26.58438492
vertex -18.00292206 -2.94795275 37.93400574
endloop
endfacet
facet normal 2.00624084 -9.40577030 9.40574551
outer loop
vertex -18.00292206 -2.40143013 38.48052979
vertex -18.00292206 -2.94795275 37.93400574
vertex -0.79275519 -0.20087898 37.01016617
endloop
endfacet
facet normal 3.34646940 -15.68908596 15.68911457
outer loop
vertex -0.79275519 -0.20087898 37.01016617
vertex -18.00292206 -2.94795275 37.93400574
vertex -0.79275513 -1.11249793 36.09854889
endloop
endfacet
facet normal 17.34661674 12.95081234 -5.36439371
outer loop
vertex -0.79275608 0.29248691 38.20125580
vertex -0.79275519 -0.20087898 37.01016617
vertex -11.66583157 12.72334099 33.05222702
endloop
endfacet
facet normal 53.35741425 39.83610535 -16.50066948
outer loop
vertex -11.66583157 12.72334099 33.05222702
vertex -0.79275519 -0.20087898 37.01016617
vertex -11.66583157 11.20576954 29.38848877
endloop
endfacet
facet normal -63.65103912 23.21743393 -9.61698437
outer loop
vertex -11.66583157 12.72334099 33.05222702
vertex -11.66583157 11.20576954 29.38848877
vertex -18.00292015 -2.10565281 39.19459915
endloop
endfacet
facet normal -12.40570354 4.52513933 -1.87434173
outer loop
vertex -18.00292015 -2.10565281 39.19459915
vertex -11.66583157 11.20576954 29.38848877
vertex -18.00292206 -2.40143013 38.48052979
endloop
endfacet
facet normal 2.00624657 -12.28925228 5.09037113
outer loop
vertex -18.00292015 -2.10565281 39.19459915
vertex -18.00292206 -2.40143013 38.48052979
vertex -0.79275608 0.29248691 38.20125580
endloop
endfacet
facet normal 3.34648085 -20.49885178 8.49091244
outer loop
vertex -0.79275608 0.29248691 38.20125580
vertex -18.00292206 -2.40143013 38.48052979
vertex -0.79275519 -0.20087898 37.01016617
endloop
endfacet
facet normal 42.49322510 31.72501373 -13.14092922
outer loop
vertex -0.79275620 1.50106227 41.11901474
vertex -0.79275608 0.29248691 38.20125580
vertex -11.66583157 14.10965538 36.39908600
endloop
endfacet
facet normal 48.74248886 36.39065170 -15.07350063
outer loop
vertex -11.66583157 14.10965538 36.39908600
vertex -0.79275608 0.29248691 38.20125580
vertex -11.66583157 12.72334099 33.05222702
endloop
endfacet
facet normal -58.14580536 21.20934105 -8.78519726
outer loop
vertex -11.66583157 14.10965538 36.39908600
vertex -11.66583157 12.72334099 33.05222702
vertex -18.00292015 -2.39889598 38.48664856
endloop
endfacet
facet normal 12.29940414 -4.48634577 1.85830796
outer loop
vertex -18.00292015 -2.39889598 38.48664856
vertex -11.66583157 12.72334099 33.05222702
vertex -18.00292015 -2.10565281 39.19459915
endloop
endfacet
facet normal -1.98905432 12.18394470 -5.04676294
outer loop
vertex -18.00292015 -2.39889598 38.48664856
vertex -18.00292015 -2.10565281 39.19459915
vertex -0.79275620 1.50106227 41.11901474
endloop
endfacet
facet normal 8.19772339 -50.21510696 20.79977989
outer loop
vertex -0.79275620 1.50106227 41.11901474
vertex -18.00292015 -2.10565281 39.19459915
vertex -0.79275608 0.29248691 38.20125580
endloop
endfacet
facet normal 38.73880386 39.42721939 15.85488224
outer loop
vertex -2.04609871 1.49522734 44.19586182
vertex -0.79275620 1.50106227 41.11901474
vertex -13.01029205 14.09426308 39.65434647
endloop
endfacet
facet normal 40.97160339 41.74045181 17.11911774
outer loop
vertex -13.01029205 14.09426308 39.65434647
vertex -0.79275620 1.50106227 41.11901474
vertex -11.66583157 14.10965538 36.39908600
endloop
endfacet
facet normal -53.75985718 17.86678886 -22.11896706
outer loop
vertex -13.01029205 14.09426308 39.65434647
vertex -11.66583157 14.10965538 36.39908600
vertex -17.69708824 -2.41132069 37.71301270
endloop
endfacet
facet normal 12.79754543 -4.26415586 5.12757826
outer loop
vertex -17.69708824 -2.41132069 37.71301270
vertex -11.66583157 14.10965538 36.39908600
vertex -18.00292015 -2.39889598 38.48664856
endloop
endfacet
facet normal -2.94169807 14.09082890 -1.38920605
outer loop
vertex -17.69708824 -2.41132069 37.71301270
vertex -18.00292015 -2.39889598 38.48664856
vertex -2.04609871 1.49522734 44.19586182
endloop
endfacet
facet normal 12.01493454 -56.25229645 4.78756285
outer loop
vertex -2.04609871 1.49522734 44.19586182
vertex -18.00292015 -2.39889598 38.48664856
vertex -0.79275620 1.50106227 41.11901474
endloop
endfacet
facet normal 29.91098213 30.49575043 12.38952923
outer loop
vertex -3.02946997 1.49522734 46.56993103
vertex -2.04609871 1.49522734 44.19586182
vertex -13.03461838 14.09426308 39.71307373
endloop
endfacet
facet normal 0.73990685 0.75437546 0.30648822
outer loop
vertex -13.03461838 14.09426308 39.71307373
vertex -2.04609871 1.49522734 44.19586182
vertex -13.01029205 14.09426308 39.65434647
endloop
endfacet
facet normal -0.96932787 0.32246611 -0.40152022
outer loop
vertex -13.03461838 14.09426308 39.71307373
vertex -13.01029205 14.09426308 39.65434647
vertex -18.97782707 -2.41132069 40.80498886
endloop
endfacet
facet normal -51.03487396 16.97780228 -21.13934326
outer loop
vertex -18.97782707 -2.41132069 40.80498886
vertex -13.01029205 14.09426308 39.65434647
vertex -17.69708824 -2.41132069 37.71301270
endloop
endfacet
facet normal 12.07895374 -56.69532394 5.00326777
outer loop
vertex -18.97782707 -2.41132069 40.80498886
vertex -17.69708824 -2.41132069 37.71301270
vertex -3.02946997 1.49522734 46.56993103
endloop
endfacet
facet normal 9.27441502 -43.53157806 3.84158707
outer loop
vertex -3.02946997 1.49522734 46.56993103
vertex -17.69708824 -2.41132069 37.71301270
vertex -2.04609871 1.49522734 44.19586182
endloop
endfacet
facet normal 34.37694550 28.17436218 1.60763931
outer loop
vertex -3.93798447 2.47859764 48.76328278
vertex -3.02946997 1.49522734 46.56993103
vertex -13.05709362 14.11858940 39.76733398
endloop
endfacet
facet normal 0.85042894 0.69699144 0.03977786
outer loop
vertex -13.05709362 14.11858940 39.76733398
vertex -3.02946997 1.49522734 46.56993103
vertex -13.03461838 14.09426308 39.71307373
endloop
endfacet
facet normal -0.92215717 0.29793915 -0.51554257
outer loop
vertex -13.05709362 14.11858940 39.76733398
vertex -13.03461838 14.09426308 39.71307373
vertex -20.16107559 -1.13058090 43.66160583
endloop
endfacet
facet normal -48.54858780 15.68546486 -27.14191055
outer loop
vertex -20.16107559 -1.13058090 43.66160583
vertex -13.03461838 14.09426308 39.71307373
vertex -18.97782707 -2.41132069 40.80498886
endloop
endfacet
facet normal 3.77611971 -52.37971115 25.04811287
outer loop
vertex -20.16107559 -1.13058090 43.66160583
vertex -18.97782707 -2.41132069 40.80498886
vertex -3.93798447 2.47859764 48.76328278
endloop
endfacet
facet normal 2.89936161 -40.21788788 19.23229599
outer loop
vertex -3.93798447 2.47859764 48.76328278
vertex -18.97782707 -2.41132069 40.80498886
vertex -3.02946997 1.49522734 46.56993103
endloop
endfacet
facet normal 13.21306229 10.82905388 0.61791539
outer loop
vertex -4.28717995 2.85656404 49.60631561
vertex -3.93798447 2.47859764 48.76328278
vertex -13.18306446 14.25493908 40.07145309
endloop
endfacet
facet normal 4.76653862 3.90652251 0.22291195
outer loop
vertex -13.18306446 14.25493908 40.07145309
vertex -3.93798447 2.47859764 48.76328278
vertex -13.05709362 14.11858940 39.76733398
endloop
endfacet
facet normal -5.16854906 1.66988945 -2.88957596
outer loop
vertex -13.18306446 14.25493908 40.07145309
vertex -13.05709362 14.11858940 39.76733398
vertex -21.80365753 0.64733720 47.62715149
endloop
endfacet
facet normal -67.39498138 21.77450371 -37.67831039
outer loop
vertex -21.80365753 0.64733720 47.62715149
vertex -13.05709362 14.11858940 39.76733398
vertex -20.16107559 -1.13058090 43.66160583
endloop
endfacet
facet normal 5.24199820 -72.71333313 34.77169800
outer loop
vertex -21.80365753 0.64733720 47.62715149
vertex -20.16107559 -1.13058090 43.66160583
vertex -4.28717995 2.85656404 49.60631561
endloop
endfacet
facet normal 1.11439347 -15.45808125 7.39209223
outer loop
vertex -4.28717995 2.85656404 49.60631561
vertex -20.16107559 -1.13058090 43.66160583
vertex -3.93798447 2.47859764 48.76328278
endloop
endfacet
facet normal 21.45519257 9.29310322 -8.85100174
outer loop
vertex -4.31862545 3.89218450 50.61743927
vertex -4.28717995 2.85656404 49.60631561
vertex -13.18348789 14.37477875 40.13484192
endloop
endfacet
facet normal 1.86518443 0.56793702 -1.06125343
outer loop
vertex -13.18348789 14.37477875 40.13484192
vertex -4.28717995 2.85656404 49.60631561
vertex -13.18306446 14.25493908 40.07145309
endloop
endfacet
facet normal -1.94018137 0.53865463 -1.03131318
outer loop
vertex -13.18348789 14.37477875 40.13484192
vertex -13.18306446 14.25493908 40.07145309
vertex -21.75184822 3.78591609 50.72370529
endloop
endfacet
facet normal -65.85083008 27.08558464 -26.35141182
outer loop
vertex -21.75184822 3.78591609 50.72370529
vertex -13.18306446 14.25493908 40.07145309
vertex -21.80365753 0.64733720 47.62715149
endloop
endfacet
facet normal 0.66259015 -53.98841858 54.71004486
outer loop
vertex -21.75184822 3.78591609 50.72370529
vertex -21.80365753 0.64733720 47.62715149
vertex -4.31862545 3.89218450 50.61743927
endloop
endfacet
facet normal 0.18413877 -17.77355957 18.20989227
outer loop
vertex -4.31862545 3.89218450 50.61743927
vertex -21.80365753 0.64733720 47.62715149
vertex -4.28717995 2.85656404 49.60631561
endloop
endfacet
facet normal 15.42071056 6.52044725 -6.52045393
outer loop
vertex -4.31862545 4.62772369 51.35297775
vertex -4.31862545 3.89218450 50.61743927
vertex -13.18348789 17.19543839 42.95550156
endloop
endfacet
facet normal 59.13567352 25.00475883 -25.00475883
outer loop
vertex -13.18348789 17.19543839 42.95550156
vertex -4.31862545 3.89218450 50.61743927
vertex -13.18348789 14.37477875 40.13484192
endloop
endfacet
facet normal -59.73515320 24.16842842 -24.16842842
outer loop
vertex -13.18348789 17.19543839 42.95550156
vertex -13.18348789 14.37477875 40.13484192
vertex -21.75184822 4.50031853 51.43810654
endloop
endfacet
facet normal -15.12940598 6.12124729 -6.12125731
outer loop
vertex -21.75184822 4.50031853 51.43810654
vertex -13.18348789 14.37477875 40.13484192
vertex -21.75184822 3.78591609 50.72370529
endloop
endfacet
facet normal 0.15183462 -12.45431709 12.45433712
outer loop
vertex -21.75184822 4.50031853 51.43810654
vertex -21.75184822 3.78591609 50.72370529
vertex -4.31862545 4.62772369 51.35297775
endloop
endfacet
facet normal 0.15632731 -12.82280731 12.82281971
outer loop
vertex -4.31862545 4.62772369 51.35297775
vertex -21.75184822 3.78591609 50.72370529
vertex -4.31862545 3.89218450 50.61743927
endloop
endfacet
facet normal 15.42073154 8.51938534 -3.52886081
outer loop
vertex -4.31862450 5.02579498 52.31400681
vertex -4.31862545 4.62772369 51.35297775
vertex -13.18348789 18.72196388 46.64086533
endloop
endfacet
facet normal 59.13556290 32.67024231 -13.53243828
outer loop
vertex -13.18348789 18.72196388 46.64086533
vertex -4.31862545 4.62772369 51.35297775
vertex -13.18348789 17.19543839 42.95550156
endloop
endfacet
facet normal -59.73504639 31.57753181 -13.07982349
outer loop
vertex -13.18348789 18.72196388 46.64086533
vertex -13.18348789 17.19543839 42.95550156
vertex -21.75185013 4.88695002 52.37151718
endloop
endfacet
facet normal -15.12940216 7.99778223 -3.31282210
outer loop
vertex -21.75185013 4.88695002 52.37151718
vertex -13.18348789 17.19543839 42.95550156
vertex -21.75184822 4.50031853 51.43810654
endloop
endfacet
facet normal 0.15183468 -16.27235794 6.74023438
outer loop
vertex -21.75185013 4.88695002 52.37151718
vertex -21.75184822 4.50031853 51.43810654
vertex -4.31862450 5.02579498 52.31400681
endloop
endfacet
facet normal 0.15632740 -16.75383377 6.93966532
outer loop
vertex -4.31862450 5.02579498 52.31400681
vertex -21.75184822 4.50031853 51.43810654
vertex -4.31862545 4.62772369 51.35297775
endloop
endfacet
facet normal 22.74448967 12.56550026 -5.20479822
outer loop
vertex -4.31862450 5.61292171 53.73145676
vertex -4.31862450 5.02579498 52.31400681
vertex -13.18348789 18.69713402 46.58091736
endloop
endfacet
facet normal -0.96192086 -0.53143054 0.22011335
outer loop
vertex -13.18348789 18.69713402 46.58091736
vertex -4.31862450 5.02579498 52.31400681
vertex -13.18348789 18.72196388 46.64086533
endloop
endfacet
facet normal 0.97166646 -0.51365590 0.21275127
outer loop
vertex -13.18348789 18.69713402 46.58091736
vertex -13.18348789 18.72196388 46.64086533
vertex -21.75185013 6.60629654 56.52238464
endloop
endfacet
facet normal -67.28028870 35.56613541 -14.73198414
outer loop
vertex -21.75185013 6.60629654 56.52238464
vertex -13.18348789 18.72196388 46.64086533
vertex -21.75185013 4.88695002 52.37151718
endloop
endfacet
facet normal 0.67520475 -72.36300659 29.97375679
outer loop
vertex -21.75185013 6.60629654 56.52238464
vertex -21.75185013 4.88695002 52.37151718
vertex -4.31862450 5.61292171 53.73145676
endloop
endfacet
facet normal 0.23057163 -24.71072388 10.23551273
outer loop
vertex -4.31862450 5.61292171 53.73145676
vertex -21.75185013 4.88695002 52.37151718
vertex -4.31862450 5.02579498 52.31400681
endloop
endfacet
facet normal 27.04697037 7.69397068 -19.38602638
outer loop
vertex -3.79151535 7.02009106 55.02534866
vertex -4.31862450 5.61292171 53.73145676
vertex -13.23931503 18.57628059 46.43042755
endloop
endfacet
facet normal -2.83320761 -0.93487746 1.80180335
outer loop
vertex -13.23931503 18.57628059 46.43042755
vertex -4.31862450 5.61292171 53.73145676
vertex -13.18348789 18.69713402 46.58091736
endloop
endfacet
facet normal 2.89904594 -1.81546140 0.38247967
outer loop
vertex -13.23931503 18.57628059 46.43042755
vertex -13.18348789 18.69713402 46.58091736
vertex -20.56280899 9.57367706 59.20826721
endloop
endfacet
facet normal -61.97468567 34.83442688 -11.04908752
outer loop
vertex -20.56280899 9.57367706 59.20826721
vertex -13.18348789 18.69713402 46.58091736
vertex -21.75185013 6.60629654 56.52238464
endloop
endfacet
facet normal 5.55367851 -50.01939011 52.80313110
outer loop
vertex -20.56280899 9.57367706 59.20826721
vertex -21.75185013 6.60629654 56.52238464
vertex -3.79151535 7.02009106 55.02534866
endloop
endfacet
facet normal 2.64198852 -24.02783203 25.05511856
outer loop
vertex -3.79151535 7.02009106 55.02534866
vertex -21.75185013 6.60629654 56.52238464
vertex -4.31862450 5.61292171 53.73145676
endloop
endfacet
facet normal 27.48631096 7.75820112 -19.78260040
outer loop
vertex -3.24570537 8.44636154 56.34305191
vertex -3.79151535 7.02009106 55.02534866
vertex -12.10140038 21.54979324 49.17759705
endloop
endfacet
facet normal 57.30391693 16.17441940 -41.24311066
outer loop
vertex -12.10140038 21.54979324 49.17759705
vertex -3.79151535 7.02009106 55.02534866
vertex -13.23931503 18.57628059 46.43042755
endloop
endfacet
facet normal -62.72674942 34.65896988 -11.53230762
outer loop
vertex -12.10140038 21.54979324 49.17759705
vertex -13.23931503 18.57628059 46.43042755
vertex -20.60574532 9.46147919 59.10461044
endloop
endfacet
facet normal 2.36682725 -1.30776322 0.43514177
outer loop
vertex -20.60574532 9.46147919 59.10461044
vertex -13.23931503 18.57628059 46.43042755
vertex -20.56280899 9.57367706 59.20826721
endloop
endfacet
facet normal -0.20461720 1.91805685 -1.99134517
outer loop
vertex -20.60574532 9.46147919 59.10461044
vertex -20.56280899 9.57367706 59.20826721
vertex -3.24570537 8.44636154 56.34305191
endloop
endfacet
facet normal 2.60110474 -24.38266754 25.31417465
outer loop
vertex -3.24570537 8.44636154 56.34305191
vertex -20.56280899 9.57367706 59.20826721
vertex -3.79151535 7.02009106 55.02534866
endloop
endfacet
facet normal 36.54653931 20.15459061 -8.45022297
outer loop
vertex -3.23623371 9.38495445 58.62265015
vertex -3.24570537 8.44636154 56.34305191
vertex -12.10109615 23.08112526 52.94950867
endloop
endfacet
facet normal 60.39767456 33.40071487 -13.56499481
outer loop
vertex -12.10109615 23.08112526 52.94950867
vertex -3.24570537 8.44636154 56.34305191
vertex -12.10140038 21.54979324 49.17759705
endloop
endfacet
facet normal -60.95998383 32.32084274 -13.11679554
outer loop
vertex -12.10109615 23.08112526 52.94950867
vertex -12.10140038 21.54979324 49.17759705
vertex -20.66945648 9.24611092 58.68016052
endloop
endfacet
facet normal 7.26884794 -4.24213028 1.06140542
outer loop
vertex -20.66945648 9.24611092 58.68016052
vertex -12.10140038 21.54979324 49.17759705
vertex -20.60574532 9.46147919 59.10461044
endloop
endfacet
facet normal -0.07131804 7.40319443 -3.74571753
outer loop
vertex -20.66945648 9.24611092 58.68016052
vertex -20.60574532 9.46147919 59.10461044
vertex -3.23623371 9.38495445 58.62265015
endloop
endfacet
facet normal 0.27791888 -39.60007095 16.30362511
outer loop
vertex -3.23623371 9.38495445 58.62265015
vertex -20.60574532 9.46147919 59.10461044
vertex -3.24570537 8.44636154 56.34305191
endloop
endfacet
facet normal 6.34952688 3.50788093 -1.45301342
outer loop
vertex -3.23623371 9.54886150 59.01835632
vertex -3.23623371 9.38495445 58.62265015
vertex -12.10109615 23.82749748 54.75141144
endloop
endfacet
facet normal 28.91344261 15.97362041 -6.61648703
outer loop
vertex -12.10109615 23.82749748 54.75141144
vertex -3.23623371 9.38495445 58.62265015
vertex -12.10109615 23.08112526 52.94950867
endloop
endfacet
facet normal -29.20654678 15.43935204 -6.39518595
outer loop
vertex -12.10109615 23.82749748 54.75141144
vertex -12.10109615 23.08112526 52.94950867
vertex -20.66945648 10.63291931 62.02820969
endloop
endfacet
facet normal -54.26762390 28.68729210 -11.88267422
outer loop
vertex -20.66945648 10.63291931 62.02820969
vertex -12.10109615 23.08112526 52.94950867
vertex -20.66945648 9.24611092 58.68016052
endloop
endfacet
facet normal 0.54461098 -58.36729050 24.17654037
outer loop
vertex -20.66945648 10.63291931 62.02820969
vertex -20.66945648 9.24611092 58.68016052
vertex -3.23623371 9.54886150 59.01835632
endloop
endfacet
facet normal 0.06436760 -6.89843416 2.85742831
outer loop
vertex -3.23623371 9.54886150 59.01835632
vertex -20.66945648 9.24611092 58.68016052
vertex -3.23623371 9.38495445 58.62265015
endloop
endfacet
facet normal 6.98100710 3.07913542 -4.15583038
outer loop
vertex -3.06787777 9.74765968 59.44845581
vertex -3.23623371 9.54886150 59.01835632
vertex -11.45950222 24.52344131 56.29978180
endloop
endfacet
facet normal 25.07817078 10.98844433 -15.33053207
outer loop
vertex -11.45950222 24.52344131 56.29978180
vertex -3.23623371 9.54886150 59.01835632
vertex -12.10109615 23.82749748 54.75141144
endloop
endfacet
facet normal -25.50807571 17.95160866 2.50102663
outer loop
vertex -11.45950222 24.52344131 56.29978180
vertex -12.10109615 23.82749748 54.75141144
vertex -19.37536621 12.03887367 65.17598724
endloop
endfacet
facet normal -51.76444244 36.38812637 5.02825165
outer loop
vertex -19.37536621 12.03887367 65.17598724
vertex -12.10109615 23.82749748 54.75141144
vertex -20.66945648 10.63291931 62.02820969
endloop
endfacet
facet normal 0.84041548 -58.74428558 25.89262199
outer loop
vertex -19.37536621 12.03887367 65.17598724
vertex -20.66945648 10.63291931 62.02820969
vertex -3.06787777 9.74765968 59.44845581
endloop
endfacet
facet normal 0.13210070 -8.00474644 3.64820051
outer loop
vertex -3.06787777 9.74765968 59.44845581
vertex -20.66945648 10.63291931 62.02820969
vertex -3.23623371 9.54886150 59.01835632
endloop
endfacet
facet normal 10.89781189 4.77141857 -6.65322971
outer loop
vertex -2.78901935 10.04949379 60.12168121
vertex -3.06787777 9.74765968 59.44845581
vertex -10.05590343 26.04268646 59.68836975
endloop
endfacet
facet normal 54.85264587 24.01628113 -33.48820496
outer loop
vertex -10.05590343 26.04268646 59.68836975
vertex -3.06787777 9.74765968 59.44845581
vertex -11.45950222 24.52344131 56.29978180
endloop
endfacet
facet normal -55.79018402 39.28223038 5.49718475
outer loop
vertex -10.05590343 26.04268646 59.68836975
vertex -11.45950222 24.52344131 56.29978180
vertex -18.92209816 12.52948856 66.27027130
endloop
endfacet
facet normal -18.01646233 12.68550396 1.77521515
outer loop
vertex -18.92209816 12.52948856 66.27027130
vertex -11.45950222 24.52344131 56.29978180
vertex -19.37536621 12.03887367 65.17598724
endloop
endfacet
facet normal 0.30277109 -20.44112968 9.03923130
outer loop
vertex -18.92209816 12.52948856 66.27027130
vertex -19.37536621 12.03887367 65.17598724
vertex -2.78901935 10.04949379 60.12168121
endloop
endfacet
facet normal 0.18626082 -12.57578659 5.56108046
outer loop
vertex -2.78901935 10.04949379 60.12168121
vertex -19.37536621 12.03887367 65.17598724
vertex -3.06787777 9.74765968 59.44845581
endloop
endfacet
facet normal 11.65409565 5.16452789 -4.82729435
outer loop
vertex -2.48718500 10.04949379 60.85037231
vertex -2.78901935 10.04949379 60.12168121
vertex -8.53666019 26.04268456 63.35614777
endloop
endfacet
facet normal 58.65948105 25.99501038 -24.29753494
outer loop
vertex -8.53666019 26.04268456 63.35614777
vertex -2.78901935 10.04949379 60.12168121
vertex -10.05590343 26.04268646 59.68836975
endloop
endfacet
facet normal -49.56339645 42.51874542 20.52985001
outer loop
vertex -8.53666019 26.04268456 63.35614777
vertex -10.05590343 26.04268646 59.68836975
vertex -18.43148422 12.52948856 67.45471954
endloop
endfacet
facet normal -16.00568390 13.73072052 6.62976313
outer loop
vertex -18.43148422 12.52948856 67.45471954
vertex -10.05590343 26.04268646 59.68836975
vertex -18.92209816 12.52948856 66.27027130
endloop
endfacet
facet normal -2.93742537 -22.12538338 1.21671999
outer loop
vertex -18.43148422 12.52948856 67.45471954
vertex -18.92209816 12.52948856 66.27027130
vertex -2.48718500 10.04949379 60.85037231
endloop
endfacet
facet normal -1.80715013 -13.61188698 0.74854761
outer loop
vertex -2.48718500 10.04949379 60.85037231
vertex -18.92209816 12.52948856 66.27027130
vertex -2.78901935 10.04949379 60.12168121
endloop
endfacet
facet normal 52.86470032 23.42705536 -21.89727402
outer loop
vertex -1.11802268 10.04949379 64.15582275
vertex -2.48718500 10.04949379 60.85037231
vertex -7.66592741 26.04268456 65.45828247
endloop
endfacet
facet normal 33.61984253 14.89867306 -13.92579556
outer loop
vertex -7.66592741 26.04268456 65.45828247
vertex -2.48718500 10.04949379 60.85037231
vertex -8.53666019 26.04268456 63.35614777
endloop
endfacet
facet normal -28.40655899 24.36901665 11.76638317
outer loop
vertex -7.66592741 26.04268456 65.45828247
vertex -8.53666019 26.04268456 63.35614777
vertex -18.37600899 12.52948856 67.58865356
endloop
endfacet
facet normal -1.80987668 1.55262280 0.74964774
outer loop
vertex -18.37600899 12.52948856 67.58865356
vertex -8.53666019 26.04268456 63.35614777
vertex -18.43148422 12.52948856 67.45471954
endloop
endfacet
facet normal -0.33215567 -2.50186849 0.13757829
outer loop
vertex -18.37600899 12.52948856 67.58865356
vertex -18.43148422 12.52948856 67.45471954
vertex -1.11802268 10.04949379 64.15582275
endloop
endfacet
facet normal -8.19750023 -61.74551010 3.39551544
outer loop
vertex -1.11802268 10.04949379 64.15582275
vertex -18.43148422 12.52948856 67.45471954
vertex -2.48718500 10.04949379 60.85037231
endloop
endfacet
facet normal 57.22039413 23.42707634 -0.00000519
outer loop
vertex -1.11802197 10.04949284 67.73361969
vertex -1.11802268 10.04949379 64.15582275
vertex -7.66592741 26.04268456 67.73361969
endloop
endfacet
facet normal 36.38990402 14.89869213 0.00000000
outer loop
vertex -7.66592741 26.04268456 67.73361969
vertex -1.11802268 10.04949379 64.15582275
vertex -7.66592741 26.04268456 65.45828247
endloop
endfacet
facet normal -30.74707603 24.36904144 0.00000000
outer loop
vertex -7.66592741 26.04268456 67.73361969
vertex -7.66592741 26.04268456 65.45828247
vertex -18.37600708 12.52948952 67.73361969
endloop
endfacet
facet normal -1.95895767 1.55260301 0.00001556
outer loop
vertex -18.37600708 12.52948952 67.73361969
vertex -7.66592741 26.04268456 65.45828247
vertex -18.37600899 12.52948856 67.58865356
endloop
endfacet
facet normal -0.35951552 -2.50182319 0.00002119
outer loop
vertex -18.37600708 12.52948952 67.73361969
vertex -18.37600899 12.52948856 67.58865356
vertex -1.11802197 10.04949284 67.73361969
endloop
endfacet
facet normal -8.87292099 -61.74557495 -0.00001468
outer loop
vertex -1.11802197 10.04949284 67.73361969
vertex -18.37600899 12.52948856 67.58865356
vertex -1.11802268 10.04949379 64.15582275
endloop
endfacet
facet normal 51.35838699 21.02706337 0.00000191
outer loop
vertex -1.11802208 10.04949284 70.94488525
vertex -1.11802197 10.04949284 67.73361969
vertex -7.66592741 26.04268456 67.76364136
endloop
endfacet
facet normal 0.48014230 0.19657904 0.00000000
outer loop
vertex -7.66592741 26.04268456 67.76364136
vertex -1.11802197 10.04949284 67.73361969
vertex -7.66592741 26.04268456 67.73361969
endloop
endfacet
facet normal -0.40568864 0.32153443 0.00000000
outer loop
vertex -7.66592741 26.04268456 67.76364136
vertex -7.66592741 26.04268456 67.73361969
vertex -18.37600708 12.52948952 70.45158386
endloop
endfacet
facet normal -36.72837830 29.10961151 0.00000000
outer loop
vertex -18.37600708 12.52948952 70.45158386
vertex -7.66592741 26.04268456 67.73361969
vertex -18.37600708 12.52948952 67.73361969
endloop
endfacet
facet normal -6.74054193 -46.90658188 -0.00000000
outer loop
vertex -18.37600708 12.52948952 70.45158386
vertex -18.37600708 12.52948952 67.73361969
vertex -1.11802208 10.04949284 70.94488525
endloop
endfacet
facet normal -7.96392775 -55.41997147 -0.00000030
outer loop
vertex -1.11802208 10.04949284 70.94488525
vertex -18.37600708 12.52948952 67.73361969
vertex -1.11802197 10.04949284 67.73361969
endloop
endfacet
facet normal 51.35846710 19.42650795 -8.04670715
outer loop
vertex -1.11802292 11.27839279 73.91171265
vertex -1.11802208 10.04949284 70.94488525
vertex -7.66592741 26.05417442 67.79138184
endloop
endfacet
facet normal 0.48021084 0.18164203 -0.07523457
outer loop
vertex -7.66592741 26.05417442 67.79138184
vertex -1.11802208 10.04949284 70.94488525
vertex -7.66592741 26.04268456 67.76364136
endloop
endfacet
facet normal -0.40574509 0.29710278 -0.12305742
outer loop
vertex -7.66592741 26.05417442 67.79138184
vertex -7.66592741 26.04268456 67.76364136
vertex -18.37600899 13.56960869 72.96265411
endloop
endfacet
facet normal -36.72836304 26.89375687 -11.13978481
outer loop
vertex -18.37600899 13.56960869 72.96265411
vertex -7.66592741 26.04268456 67.76364136
vertex -18.37600708 12.52948952 70.45158386
endloop
endfacet
facet normal -6.74053812 -43.33601379 17.95035744
outer loop
vertex -18.37600899 13.56960869 72.96265411
vertex -18.37600708 12.52948952 70.45158386
vertex -1.11802292 11.27839279 73.91171265
endloop
endfacet
facet normal -7.96393967 -51.20146561 21.20833397
outer loop
vertex -1.11802292 11.27839279 73.91171265
vertex -18.37600708 12.52948952 70.45158386
vertex -1.11802208 10.04949284 70.94488525
endloop
endfacet
facet normal 30.96896744 11.71411133 -4.85213423
outer loop
vertex -1.11802304 12.01941395 75.70069885
vertex -1.11802292 11.27839279 73.91171265
vertex -7.66592741 25.94121170 67.51866150
endloop
endfacet
facet normal -4.72102547 -1.78574669 0.73966914
outer loop
vertex -7.66592741 25.94121170 67.51866150
vertex -1.11802292 11.27839279 73.91171265
vertex -7.66592741 26.05417442 67.79138184
endloop
endfacet
facet normal 3.98894882 -2.92085695 1.20983994
outer loop
vertex -7.66592741 25.94121170 67.51866150
vertex -7.66592741 26.05417442 67.79138184
vertex -18.37600899 15.22194195 76.95173645
endloop
endfacet
facet normal -58.34662628 42.72339630 -17.69662285
outer loop
vertex -18.37600899 15.22194195 76.95173645
vertex -7.66592741 26.05417442 67.79138184
vertex -18.37600899 13.56960869 72.96265411
endloop
endfacet
facet normal -10.70801640 -68.84352875 28.51594353
outer loop
vertex -18.37600899 15.22194195 76.95173645
vertex -18.37600899 13.56960869 72.96265411
vertex -1.11802304 12.01941395 75.70069885
endloop
endfacet
facet normal -4.80222607 -30.87429810 12.78853321
outer loop
vertex -1.11802304 12.01941395 75.70069885
vertex -18.37600899 13.56960869 72.96265411
vertex -1.11802292 11.27839279 73.91171265
endloop
endfacet
facet normal 35.21986389 4.83803654 -19.91173744
outer loop
vertex -0.47287655 13.68820667 77.24730682
vertex -1.11802304 12.01941395 75.70069885
vertex -7.76277637 25.69541168 67.27037811
endloop
endfacet
facet normal -5.46769619 -0.83331412 2.95778656
outer loop
vertex -7.76277637 25.69541168 67.27037811
vertex -1.11802304 12.01941395 75.70069885
vertex -7.66592741 25.94121170 67.51866150
endloop
endfacet
facet normal 4.90970850 -3.53685427 1.58632708
outer loop
vertex -7.76277637 25.69541168 67.27037811
vertex -7.66592741 25.94121170 67.51866150
vertex -17.23859406 18.02543640 79.49731445
endloop
endfacet
facet normal -53.73231125 37.99266815 -17.83339500
outer loop
vertex -17.23859406 18.02543640 79.49731445
vertex -7.66592741 25.94121170 67.51866150
vertex -18.37600899 15.22194195 76.95173645
endloop
endfacet
facet normal -4.73287249 -45.23763275 51.93582535
outer loop
vertex -17.23859406 18.02543640 79.49731445
vertex -18.37600899 15.22194195 76.95173645
vertex -0.47287655 13.68820667 77.24730682
endloop
endfacet
facet normal -2.86533284 -27.49844360 30.86610413
outer loop
vertex -0.47287655 13.68820667 77.24730682
vertex -18.37600899 15.22194195 76.95173645
vertex -1.11802304 12.01941395 75.70069885
endloop
endfacet
facet normal 24.35665512 3.37196827 -13.73865986
outer loop
vertex -0.03050211 14.84418678 78.31529236
vertex -0.47287655 13.68820667 77.24730682
vertex -6.58136940 28.78257751 70.12254333
endloop
endfacet
facet normal 65.04696655 9.00518513 -36.69052887
outer loop
vertex -6.58136940 28.78257751 70.12254333
vertex -0.47287655 13.68820667 77.24730682
vertex -7.76277637 25.69541168 67.27037811
endloop
endfacet
facet normal -59.62261963 41.47158432 -20.19205666
outer loop
vertex -6.58136940 28.78257751 70.12254333
vertex -7.76277637 25.69541168 67.27037811
vertex -17.22184181 18.06921005 79.53775787
endloop
endfacet
facet normal -0.84541774 0.58806312 -0.28630185
outer loop
vertex -17.22184181 18.06921005 79.53775787
vertex -7.76277637 25.69541168 67.27037811
vertex -17.23859406 18.02543640 79.49731445
endloop
endfacet
facet normal -0.07691918 -0.71575558 0.80655408
outer loop
vertex -17.22184181 18.06921005 79.53775787
vertex -17.23859406 18.02543640 79.49731445
vertex -0.03050211 14.84418678 78.31529236
endloop
endfacet
facet normal -2.03113461 -18.90088844 21.29951477
outer loop
vertex -0.03050211 14.84418678 78.31529236
vertex -17.23859406 18.02543640 79.49731445
vertex -0.47287655 13.68820667 77.24730682
endloop
endfacet
facet normal 33.00464630 12.50563145 -5.11914492
outer loop
vertex -0.03562880 15.63755417 80.22036743
vertex -0.03050211 14.84418678 78.31529236
vertex -6.58353567 30.41333389 74.10002899
endloop
endfacet
facet normal 68.80012512 26.07372665 -10.65267467
outer loop
vertex -6.58353567 30.41333389 74.10002899
vertex -0.03050211 14.84418678 78.31529236
vertex -6.58136940 28.78257751 70.12254333
endloop
endfacet
facet normal -58.09025574 42.58798981 -17.49257660
outer loop
vertex -6.58353567 30.41333389 74.10002899
vertex -6.58136940 28.78257751 70.12254333
vertex -17.29361725 17.92877388 79.27130890
endloop
endfacet
facet normal 4.17680264 -3.51092386 0.72535062
outer loop
vertex -17.29361725 17.92877388 79.27130890
vertex -6.58136940 28.78257751 70.12254333
vertex -17.22184181 18.06921005 79.53775787
endloop
endfacet
facet normal 0.74377525 4.53025436 -2.58809900
outer loop
vertex -17.29361725 17.92877388 79.27130890
vertex -17.22184181 18.06921005 79.53775787
vertex -0.03562880 15.63755417 80.22036743
endloop
endfacet
facet normal -5.17404699 -32.74452209 13.62251377
outer loop
vertex -0.03562880 15.63755417 80.22036743
vertex -17.22184181 18.06921005 79.53775787
vertex -0.03050211 14.84418678 78.31529236
endloop
endfacet
facet normal 38.18959808 14.44534016 -5.98345852
outer loop
vertex -0.03562889 16.55135155 82.42646790
vertex -0.03562880 15.63755417 80.22036743
vertex -6.58353567 32.02304077 77.98620605
endloop
endfacet
facet normal 67.27324677 25.44632530 -10.54021072
outer loop
vertex -6.58353567 32.02304077 77.98620605
vertex -0.03562880 15.63755417 80.22036743
vertex -6.58353567 30.41333389 74.10002899
endloop
endfacet
facet normal -56.84144974 41.62127304 -17.24009132
outer loop
vertex -6.58353567 32.02304077 77.98620605
vertex -6.58353567 30.41333389 74.10002899
vertex -17.29361725 17.71592903 78.75745392
endloop
endfacet
facet normal 7.51593399 -5.50342846 2.27958560
outer loop
vertex -17.29361725 17.71592903 78.75745392
vertex -6.58353567 30.41333389 74.10002899
vertex -17.29361725 17.92877388 79.27130890
endloop
endfacet
facet normal 1.37935472 8.86810303 -3.67327380
outer loop
vertex -17.29361725 17.71592903 78.75745392
vertex -17.29361725 17.92877388 79.27130890
vertex -0.03562889 16.55135155 82.42646790
endloop
endfacet
facet normal -5.92190838 -38.07285690 15.77030373
outer loop
vertex -0.03562889 16.55135155 82.42646790
vertex -17.29361725 17.92877388 79.27130890
vertex -0.03562880 15.63755417 80.22036743
endloop
endfacet
facet normal 36.47610092 19.78886604 15.03671837
outer loop
vertex -1.00609493 16.54713821 84.78617096
vertex -0.03562889 16.55135155 82.42646790
vertex -8.17160511 32.01035690 81.81812286
endloop
endfacet
facet normal 59.22990417 32.14247513 24.65316963
outer loop
vertex -8.17160511 32.01035690 81.81812286
vertex -0.03562889 16.55135155 82.42646790
vertex -6.58353567 32.02304077 77.98620605
endloop
endfacet
facet normal -54.86810303 39.92040253 -22.60696602
outer loop
vertex -8.17160511 32.01035690 81.81812286
vertex -6.58353567 32.02304077 77.98620605
vertex -17.06312561 17.70383835 78.13513947
endloop
endfacet
facet normal 8.91284752 -6.48727179 3.42716193
outer loop
vertex -17.06312561 17.70383835 78.13513947
vertex -6.58353567 32.02304077 77.98620605
vertex -17.29361725 17.71592903 78.75745392
endloop
endfacet
facet normal 0.80024672 11.52552795 0.07246925
outer loop
vertex -17.06312561 17.70383835 78.13513947
vertex -17.29361725 17.71592903 78.75745392
vertex -1.00609493 16.54713821 84.78617096
endloop
endfacet
facet normal -2.73259830 -44.28438187 -1.20289648
outer loop
vertex -1.00609493 16.54713821 84.78617096
vertex -17.29361725 17.71592903 78.75745392
vertex -0.03562889 16.55135155 82.42646790
endloop
endfacet
facet normal 20.68797684 11.23141670 8.56924248
outer loop
vertex -1.56026435 16.54713821 86.12405396
vertex -1.00609493 16.54713821 84.78617096
vertex -8.11602783 32.01035690 81.68394470
endloop
endfacet
facet normal -2.07482624 -1.12641096 -0.85940361
outer loop
vertex -8.11602783 32.01035690 81.68394470
vertex -1.00609493 16.54713821 84.78617096
vertex -8.17160511 32.01035690 81.81812286
endloop
endfacet
facet normal 1.91962230 -1.39774287 0.79511738
outer loop
vertex -8.11602783 32.01035690 81.68394470
vertex -8.17160511 32.01035690 81.81812286
vertex -18.85049248 17.70383835 82.45022583
endloop
endfacet
facet normal -61.73386383 44.95052338 -25.57099724
outer loop
vertex -18.85049248 17.70383835 82.45022583
vertex -8.17160511 32.01035690 81.81812286
vertex -17.06312561 17.70383835 78.13513947
endloop
endfacet
facet normal -4.99126101 -81.17530823 -2.06744742
outer loop
vertex -18.85049248 17.70383835 82.45022583
vertex -17.06312561 17.70383835 78.13513947
vertex -1.56026435 16.54713821 86.12405396
endloop
endfacet
facet normal -1.54752946 -25.16822624 -0.64100784
outer loop
vertex -1.56026435 16.54713821 86.12405396
vertex -17.06312561 17.70383835 78.13513947
vertex -1.00609493 16.54713821 84.78617096
endloop
endfacet
facet normal 25.77827072 9.77630711 -3.97711182
outer loop
vertex -1.56636238 17.16828537 87.61139679
vertex -1.56026435 16.54713821 86.12405396
vertex -8.11427116 31.94406509 81.49107361
endloop
endfacet
facet normal -3.27675080 -1.27221704 0.40742967
outer loop
vertex -8.11427116 31.94406509 81.49107361
vertex -1.56026435 16.54713821 86.12405396
vertex -8.11602783 32.01035690 81.68394470
endloop
endfacet
facet normal 2.75072336 -2.05658078 0.73192191
outer loop
vertex -8.11427116 31.94406509 81.49107361
vertex -8.11602783 32.01035690 81.68394470
vertex -18.82435226 19.45950699 86.66234589
endloop
endfacet
facet normal -61.60610962 45.23488235 -18.47218895
outer loop
vertex -18.82435226 19.45950699 86.66234589
vertex -8.11602783 32.01035690 81.68394470
vertex -18.85049248 17.70383835 82.45022583
endloop
endfacet
facet normal -11.31711960 -72.66791534 30.35920334
outer loop
vertex -18.82435226 19.45950699 86.66234589
vertex -18.85049248 17.70383835 82.45022583
vertex -1.56636238 17.16828537 87.61139679
endloop
endfacet
facet normal -4.00239754 -25.73890114 10.73272324
outer loop
vertex -1.56636238 17.16828537 87.61139679
vertex -18.85049248 17.70383835 82.45022583
vertex -1.56026435 16.54713821 86.12405396
endloop
endfacet
facet normal 55.90555573 21.14647102 -8.75914764
outer loop
vertex -1.56636250 18.50598717 90.84089661
vertex -1.56636238 17.16828537 87.61139679
vertex -8.11427116 32.78032303 83.50997162
endloop
endfacet
facet normal 34.94895935 13.21955967 -5.47574091
outer loop
vertex -8.11427116 32.78032303 83.50997162
vertex -1.56636238 17.16828537 87.61139679
vertex -8.11427116 31.94406509 81.49107361
endloop
endfacet
facet normal -29.52956390 21.62256050 -8.95639038
outer loop
vertex -8.11427116 32.78032303 83.50997162
vertex -8.11427116 31.94406509 81.49107361
vertex -18.82435226 19.58043671 86.95429230
endloop
endfacet
facet normal -4.27018261 3.12676978 -1.29516709
outer loop
vertex -18.82435226 19.58043671 86.95429230
vertex -8.11427116 31.94406509 81.49107361
vertex -18.82435226 19.45950699 86.66234589
endloop
endfacet
facet normal -0.78368765 -5.03840828 2.08700395
outer loop
vertex -18.82435226 19.58043671 86.95429230
vertex -18.82435226 19.45950699 86.66234589
vertex -1.56636250 18.50598717 90.84089661
endloop
endfacet
facet normal -8.66904736 -55.73467636 23.08604431
outer loop
vertex -1.56636250 18.50598717 90.84089661
vertex -18.82435226 19.45950699 86.66234589
vertex -1.56636238 17.16828537 87.61139679
endloop
endfacet
facet normal 53.56359100 29.19976044 8.97905636
outer loop
vertex -2.82009745 19.86705017 93.89376068
vertex -1.56636250 18.50598717 90.84089661
vertex -8.83914852 33.56321716 85.26002502
endloop
endfacet
facet normal 30.72018814 16.77321243 5.22082376
outer loop
vertex -8.83914852 33.56321716 85.26002502
vertex -1.56636250 18.50598717 90.84089661
vertex -8.11427116 32.78032303 83.50997162
endloop
endfacet
facet normal -25.78988838 16.23060226 -17.94307899
outer loop
vertex -8.83914852 33.56321716 85.26002502
vertex -8.11427116 32.78032303 83.50997162
vertex -18.94830322 19.72821236 87.27548218
endloop
endfacet
facet normal -4.74865675 3.01304269 -3.21882772
outer loop
vertex -18.94830322 19.72821236 87.27548218
vertex -8.11427116 32.78032303 83.50997162
vertex -18.82435226 19.58043671 86.95429230
endloop
endfacet
facet normal -0.93342716 -6.00055885 2.40056515
outer loop
vertex -18.94830322 19.72821236 87.27548218
vertex -18.82435226 19.58043671 86.95429230
vertex -2.82009745 19.86705017 93.89376068
endloop
endfacet
facet normal -8.57006168 -57.55906677 22.14213753
outer loop
vertex -2.82009745 19.86705017 93.89376068
vertex -18.82435226 19.58043671 86.95429230
vertex -1.56636250 18.50598717 90.84089661
endloop
endfacet
facet normal 44.38022995 24.24086571 7.51470709
outer loop
vertex -3.86654043 20.99971199 96.42009735
vertex -2.82009745 19.86705017 93.89376068
vertex -8.84303379 33.56742096 85.26940155
endloop
endfacet
facet normal 0.16471693 0.08998218 0.02791043
outer loop
vertex -8.84303379 33.56742096 85.26940155
vertex -2.82009745 19.86705017 93.89376068
vertex -8.83914852 33.56321716 85.26002502
endloop
endfacet
facet normal -0.13819663 0.08695461 -0.09624787
outer loop
vertex -8.84303379 33.56742096 85.26940155
vertex -8.83914852 33.56321716 85.26002502
vertex -20.00531578 20.87231445 89.82733917
endloop
endfacet
facet normal -37.61084366 23.66675568 -26.18967819
outer loop
vertex -20.00531578 20.87231445 89.82733917
vertex -8.83914852 33.56321716 85.26002502
vertex -18.94830322 19.72821236 87.27548218
endloop
endfacet
facet normal -7.21768808 -48.15247345 18.59906769
outer loop
vertex -20.00531578 20.87231445 89.82733917
vertex -18.94830322 19.72821236 87.27548218
vertex -3.86654043 20.99971199 96.42009735
endloop
endfacet
facet normal -7.14552021 -47.67092896 18.41308784
outer loop
vertex -3.86654043 20.99971199 96.42009735
vertex -18.94830322 19.72821236 87.27548218
vertex -2.82009745 19.86705017 93.89376068
endloop
endfacet
facet normal 47.63780975 18.55316925 -0.34961796
outer loop
vertex -4.66745234 23.09259987 98.35367584
vertex -3.86654043 20.99971199 96.42009735
vertex -8.84600925 33.57519150 85.27658081
endloop
endfacet
facet normal 0.17687377 0.06890604 -0.00127527
outer loop
vertex -8.84600925 33.57519150 85.27658081
vertex -3.86654043 20.99971199 96.42009735
vertex -8.84303379 33.56742096 85.26940155
endloop
endfacet
facet normal -0.12655863 0.06657161 -0.12450697
outer loop
vertex -8.84600925 33.57519150 85.27658081
vertex -8.84303379 33.56742096 85.26940155
vertex -20.81431961 22.98633766 91.78044128
endloop
endfacet
facet normal -34.43042374 18.11368752 -33.86771393
outer loop
vertex -20.81431961 22.98633766 91.78044128
vertex -8.84303379 33.56742096 85.26940155
vertex -20.00531578 20.87231445 89.82733917
endloop
endfacet
facet normal -13.68842983 -36.85425568 34.22082138
outer loop
vertex -20.81431961 22.98633766 91.78044128
vertex -20.00531578 20.87231445 89.82733917
vertex -4.66745234 23.09259987 98.35367584
endloop
endfacet
facet normal -13.55157089 -36.48580933 33.87868118
outer loop
vertex -4.66745234 23.09259987 98.35367584
vertex -20.00531578 20.87231445 89.82733917
vertex -3.86654043 20.99971199 96.42009735
endloop
endfacet
facet normal 52.57925797 20.47770691 -0.38586140
outer loop
vertex -5.55144453 25.40258217 100.48782349
vertex -4.66745234 23.09259987 98.35367584
vertex -9.35696220 34.91037750 86.51013184
endloop
endfacet
facet normal 30.39116669 11.83624268 -0.22303963
outer loop
vertex -9.35696220 34.91037750 86.51013184
vertex -4.66745234 23.09259987 98.35367584
vertex -8.84600925 33.57519150 85.27658081
endloop
endfacet
facet normal -21.74575043 11.44035530 -21.39032555
outer loop
vertex -9.35696220 34.91037750 86.51013184
vertex -8.84600925 33.57519150 85.27658081
vertex -21.04162979 23.58032990 92.32921600
endloop
endfacet
facet normal -9.67413712 5.08951283 -9.51603794
outer loop
vertex -21.04162979 23.58032990 92.32921600
vertex -8.84600925 33.57519150 85.27658081
vertex -20.81431961 22.98633766 91.78044128
endloop
endfacet
facet normal -3.84614348 -10.35515594 9.61526585
outer loop
vertex -21.04162979 23.58032990 92.32921600
vertex -20.81431961 22.98633766 91.78044128
vertex -5.55144453 25.40258217 100.48782349
endloop
endfacet
facet normal -14.95727730 -40.27048492 37.39291000
outer loop
vertex -5.55144453 25.40258217 100.48782349
vertex -20.81431961 22.98633766 91.78044128
vertex -4.66745234 23.09259987 98.35367584
endloop
endfacet
facet normal 48.88773727 29.62329292 6.83885622
outer loop
vertex -7.21388769 27.75951004 102.16253662
vertex -5.55144453 25.40258217 100.48782349
vertex -10.20498848 36.11388016 87.35658264
endloop
endfacet
facet normal 24.87006950 15.07463360 3.48290920
outer loop
vertex -10.20498848 36.11388016 87.35658264
vertex -5.55144453 25.40258217 100.48782349
vertex -9.35696220 34.91037750 86.51013184
endloop
endfacet
facet normal -16.59323120 4.94417572 -23.65385628
outer loop
vertex -10.20498848 36.11388016 87.35658264
vertex -9.35696220 34.91037750 86.51013184
vertex -21.50954437 24.26425552 92.80992126
endloop
endfacet
facet normal -9.42623425 2.89404678 -13.29293823
outer loop
vertex -21.50954437 24.26425552 92.80992126
vertex -9.35696220 34.91037750 86.51013184
vertex -21.04162979 23.58032990 92.32921600
endloop
endfacet
facet normal -4.71630621 -11.24822235 11.41264629
outer loop
vertex -21.50954437 24.26425552 92.80992126
vertex -21.04162979 23.58032990 92.32921600
vertex -7.21388769 27.75951004 102.16253662
endloop
endfacet
facet normal -16.17749977 -39.50483704 39.53863907
outer loop
vertex -7.21388769 27.75951004 102.16253662
vertex -21.04162979 23.58032990 92.32921600
vertex -5.55144453 25.40258217 100.48782349
endloop
endfacet
facet normal 35.77597046 21.73570251 5.03706121
outer loop
vertex -8.43519688 29.48670197 103.38384247
vertex -7.21388769 27.75951004 102.16253662
vertex -10.25123405 36.17927933 87.40282440
endloop
endfacet
facet normal 1.35461783 0.82302356 0.19073713
outer loop
vertex -10.25123405 36.17927933 87.40282440
vertex -7.21388769 27.75951004 102.16253662
vertex -10.20498848 36.11388016 87.35658264
endloop
endfacet
facet normal -0.90459704 0.27054337 -1.28729796
outer loop
vertex -10.25123405 36.17927933 87.40282440
vertex -10.20498848 36.11388016 87.35658264
vertex -23.22246742 26.68669510 94.52284241
endloop
endfacet
facet normal -33.50785828 10.02266312 -47.68209839
outer loop
vertex -23.22246742 26.68669510 94.52284241
vertex -10.20498848 36.11388016 87.35658264
vertex -21.50954437 24.26425552 92.80992126
endloop
endfacet
facet normal -16.66904640 -40.50763702 40.61746597
outer loop
vertex -23.22246742 26.68669510 94.52284241
vertex -21.50954437 24.26425552 92.80992126
vertex -8.43519688 29.48670197 103.38384247
endloop
endfacet
facet normal -11.88498688 -28.88180542 28.96012878
outer loop
vertex -8.43519688 29.48670197 103.38384247
vertex -21.50954437 24.26425552 92.80992126
vertex -7.21388769 27.75951004 102.16253662
endloop
endfacet
facet normal 40.48761749 11.76324272 0.32534909
outer loop
vertex -9.09616280 31.74338341 104.04480743
vertex -8.43519688 29.48670197 103.38384247
vertex -10.27626228 36.26473236 87.42785645
endloop
endfacet
facet normal 1.53315532 0.44543570 0.01231746
outer loop
vertex -10.27626228 36.26473236 87.42785645
vertex -8.43519688 29.48670197 103.38384247
vertex -10.25123405 36.17927933 87.40282440
endloop
endfacet
facet normal -0.84603482 0.14649862 -1.34601498
outer loop
vertex -10.27626228 36.26473236 87.42785645
vertex -10.25123405 36.17927933 87.40282440
vertex -24.14949417 29.85176468 95.44986725
endloop
endfacet
facet normal -31.33521271 5.42420816 -49.85473633
outer loop
vertex -24.14949417 29.85176468 95.44986725
vertex -10.25123405 36.17927933 87.40282440
vertex -23.22246742 26.68669510 94.52284241
endloop
endfacet
facet normal -25.45000648 -21.92255211 49.39842224
outer loop
vertex -24.14949417 29.85176468 95.44986725
vertex -23.22246742 26.68669510 94.52284241
vertex -9.09616280 31.74338341 104.04480743
endloop
endfacet
facet normal -18.14574814 -15.63068676 35.22086716
outer loop
vertex -9.09616280 31.74338341 104.04480743
vertex -23.22246742 26.68669510 94.52284241
vertex -8.43519688 29.48670197 103.38384247
endloop
endfacet
facet normal 34.34864807 9.97964096 0.27601945
outer loop
vertex -9.65690994 33.65789413 104.60555267
vertex -9.09616280 31.74338341 104.04480743
vertex -10.32117367 36.41806793 87.47277069
endloop
endfacet
facet normal 2.75104260 0.79929358 0.02210882
outer loop
vertex -10.32117367 36.41806793 87.47277069
vertex -9.09616280 31.74338341 104.04480743
vertex -10.27626228 36.26473236 87.42785645
endloop
endfacet
facet normal -1.51808155 0.26282910 -2.41527367
outer loop
vertex -10.32117367 36.41806793 87.47277069
vertex -10.27626228 36.26473236 87.42785645
vertex -25.15727043 33.29253006 96.45764160
endloop
endfacet
facet normal -34.06468201 5.89669514 -54.19737244
outer loop
vertex -25.15727043 33.29253006 96.45764160
vertex -10.27626228 36.26473236 87.42785645
vertex -24.14949417 29.85176468 95.44986725
endloop
endfacet
facet normal -27.66684532 -23.83213806 53.70130920
outer loop
vertex -25.15727043 33.29253006 96.45764160
vertex -24.14949417 29.85176468 95.44986725
vertex -9.65690994 33.65789413 104.60555267
endloop
endfacet
facet normal -15.39438915 -13.26067257 29.88048363
outer loop
vertex -9.65690994 33.65789413 104.60555267
vertex -24.14949417 29.85176468 95.44986725
vertex -9.09616280 31.74338341 104.04480743
endloop
endfacet
facet normal 47.84862137 -0.26859176 -1.86033344
outer loop
vertex -9.64027977 36.44268036 104.63122559
vertex -9.65690994 33.65789413 104.60555267
vertex -10.30831432 36.44268036 87.44907379
endloop
endfacet
facet normal 0.35627177 -0.23605734 -0.05184317
outer loop
vertex -10.30831432 36.44268036 87.44907379
vertex -9.65690994 33.65789413 104.60555267
vertex -10.32117367 36.41806793 87.47277069
endloop
endfacet
facet normal -0.22167878 -0.23410617 -0.36344689
outer loop
vertex -10.30831432 36.44268036 87.44907379
vertex -10.32117367 36.41806793 87.47277069
vertex -25.07511902 36.44268036 96.45585632
endloop
endfacet
facet normal -28.29811287 0.71163327 -46.47916794
outer loop
vertex -25.07511902 36.44268036 96.45585632
vertex -10.32117367 36.41806793 87.47277069
vertex -25.15727043 33.29253006 96.45764160
endloop
endfacet
facet normal -25.75364113 0.69917363 48.62206268
outer loop
vertex -25.07511902 36.44268036 96.45585632
vertex -25.15727043 33.29253006 96.45764160
vertex -9.64027977 36.44268036 104.63122559
endloop
endfacet
facet normal -22.68081093 -0.26243824 43.15911484
outer loop
vertex -9.64027977 36.44268036 104.63122559
vertex -25.15727043 33.29253006 96.45764160
vertex -9.65690994 33.65789413 104.60555267
endloop
endfacet
facet normal 20.83856392 0.00000000 -0.81019425
outer loop
vertex -9.64027977 37.65548325 104.63122559
vertex -9.64027977 36.44268036 104.63122559
vertex -10.30831432 40.42340851 87.44907379
endloop
endfacet
facet normal 68.39747620 0.00000000 -2.65926385
outer loop
vertex -10.30831432 40.42340851 87.44907379
vertex -9.64027977 36.44268036 104.63122559
vertex -10.30831432 36.44268036 87.44907379
endloop
endfacet
facet normal -35.85355377 -0.00000000 -58.78263474
outer loop
vertex -10.30831432 40.42340851 87.44907379
vertex -10.30831432 36.44268036 87.44907379
vertex -25.07511902 37.30190659 96.45585632
endloop
endfacet
facet normal -7.73886395 -0.00000000 -12.68802547
outer loop
vertex -25.07511902 37.30190659 96.45585632
vertex -10.30831432 36.44268036 87.44907379
vertex -25.07511902 36.44268036 96.45585632
endloop
endfacet
facet normal -7.02449179 0.00000000 13.26201916
outer loop
vertex -25.07511902 37.30190659 96.45585632
vertex -25.07511902 36.44268036 96.45585632
vertex -9.64027977 37.65548325 104.63122559
endloop
endfacet
facet normal -9.91511154 0.00000000 18.71941757
outer loop
vertex -9.64027977 37.65548325 104.63122559
vertex -25.07511902 36.44268036 96.45585632
vertex -9.64027977 36.44268036 104.63122559
endloop
endfacet
facet normal 31.87750816 9.52975845 0.32910657
outer loop
vertex -10.17855263 39.43890381 105.12720490
vertex -9.64027977 37.65548325 104.63122559
vertex -11.35865211 43.96025467 88.51025391
endloop
endfacet
facet normal 63.70789337 18.75597000 0.54452133
outer loop
vertex -11.35865211 43.96025467 88.51025391
vertex -9.64027977 37.65548325 104.63122559
vertex -10.30831432 40.42340851 87.44907379
endloop
endfacet
facet normal -35.17790985 6.29618931 -55.80328751
outer loop
vertex -11.35865211 43.96025467 88.51025391
vertex -10.30831432 40.42340851 87.44907379
vertex -25.23188782 37.54728317 96.53225708
endloop
endfacet
facet normal -2.44853878 -0.28378737 -4.11278248
outer loop
vertex -25.23188782 37.54728317 96.53225708
vertex -10.30831432 40.42340851 87.44907379
vertex -25.07511902 37.30190659 96.45585632
endloop
endfacet
facet normal -1.96447778 -2.49750566 3.99028325
outer loop
vertex -25.23188782 37.54728317 96.53225708
vertex -25.07511902 37.30190659 96.45585632
vertex -10.17855263 39.43890381 105.12720490
endloop
endfacet
facet normal -14.40475559 -12.05594063 27.71713066
outer loop
vertex -10.17855263 39.43890381 105.12720490
vertex -25.07511902 37.30190659 96.45585632
vertex -9.64027977 37.65548325 104.63122559
endloop
endfacet
facet normal 34.34856796 9.97962856 0.27602470
outer loop
vertex -10.73929882 41.35340881 105.68795013
vertex -10.17855263 39.43890381 105.12720490
vertex -11.40356159 44.11358643 88.55516052
endloop
endfacet
facet normal 2.75094485 0.79925287 0.02210478
outer loop
vertex -11.40356159 44.11358643 88.55516052
vertex -10.17855263 39.43890381 105.12720490
vertex -11.35865211 43.96025467 88.51025391
endloop
endfacet
facet normal -1.51802337 0.26273328 -2.41521192
outer loop
vertex -11.40356159 44.11358643 88.55516052
vertex -11.35865211 43.96025467 88.51025391
vertex -26.23966408 40.98804855 97.54003143
endloop
endfacet
facet normal -34.06465912 5.89670658 -54.19739151
outer loop
vertex -26.23966408 40.98804855 97.54003143
vertex -11.35865211 43.96025467 88.51025391
vertex -25.23188782 37.54728317 96.53225708
endloop
endfacet
facet normal -27.66687584 -23.83214951 53.70132065
outer loop
vertex -26.23966408 40.98804855 97.54003143
vertex -25.23188782 37.54728317 96.53225708
vertex -10.73929882 41.35340881 105.68795013
endloop
endfacet
facet normal -15.39435291 -13.26066971 29.88040352
outer loop
vertex -10.73929882 41.35340881 105.68795013
vertex -25.23188782 37.54728317 96.53225708
vertex -10.17855263 39.43890381 105.12720490
endloop
endfacet
facet normal 47.84868622 -0.26851502 -1.86032271
outer loop
vertex -10.72267342 44.13819885 105.71361542
vertex -10.73929882 41.35340881 105.68795013
vertex -11.39070320 44.13819885 88.53146362
endloop
endfacet
facet normal 0.35627186 -0.23604107 -0.05184056
outer loop
vertex -11.39070320 44.13819885 88.53146362
vertex -10.73929882 41.35340881 105.68795013
vertex -11.40356159 44.11358643 88.55516052
endloop
endfacet
facet normal -0.22167878 -0.23411483 -0.36344698
outer loop
vertex -11.39070320 44.13819885 88.53146362
vertex -11.40356159 44.11358643 88.55516052
vertex -26.15751076 44.13819885 97.53824615
endloop
endfacet
facet normal -28.29811287 0.71165043 -46.47917938
outer loop
vertex -26.15751076 44.13819885 97.53824615
vertex -11.40356159 44.11358643 88.55516052
vertex -26.23966408 40.98804855 97.54003143
endloop
endfacet
facet normal -25.75364113 0.69918919 48.62205887
outer loop
vertex -26.15751076 44.13819885 97.53824615
vertex -26.23966408 40.98804855 97.54003143
vertex -10.72267342 44.13819885 105.71361542
endloop
endfacet
facet normal -22.68086624 -0.26235881 43.15918732
outer loop
vertex -10.72267342 44.13819885 105.71361542
vertex -26.23966408 40.98804855 97.54003143
vertex -10.73929882 41.35340881 105.68795013
endloop
endfacet
facet normal 20.83856392 0.00000000 -0.81018847
outer loop
vertex -10.72267342 45.35100174 105.71361542
vertex -10.72267342 44.13819885 105.71361542
vertex -11.39070320 48.11892700 88.53146362
endloop
endfacet
facet normal 68.39747620 0.00000000 -2.65924501
outer loop
vertex -11.39070320 48.11892700 88.53146362
vertex -10.72267342 44.13819885 105.71361542
vertex -11.39070320 44.13819885 88.53146362
endloop
endfacet
facet normal -35.85355377 -0.00000000 -58.78264618
outer loop
vertex -11.39070320 48.11892700 88.53146362
vertex -11.39070320 44.13819885 88.53146362
vertex -26.15751076 44.99742508 97.53824615
endloop
endfacet
facet normal -7.73886395 -0.00000000 -12.68802834
outer loop
vertex -26.15751076 44.99742508 97.53824615
vertex -11.39070320 44.13819885 88.53146362
vertex -26.15751076 44.13819885 97.53824615
endloop
endfacet
facet normal -7.02449179 0.00000000 13.26201725
outer loop
vertex -26.15751076 44.99742508 97.53824615
vertex -26.15751076 44.13819885 97.53824615
vertex -10.72267342 45.35100174 105.71361542
endloop
endfacet
facet normal -9.91511154 0.00000000 18.71941566
outer loop
vertex -10.72267342 45.35100174 105.71361542
vertex -26.15751076 44.13819885 97.53824615
vertex -10.72267342 44.13819885 105.71361542
endloop
endfacet
facet normal 31.87741280 9.52977753 0.32913542
outer loop
vertex -11.26094818 47.13441849 106.20958710
vertex -10.72267342 45.35100174 105.71361542
vertex -12.44104004 51.65577316 89.59263611
endloop
endfacet
facet normal 63.70787430 18.75594139 0.54453516
outer loop
vertex -12.44104004 51.65577316 89.59263611
vertex -10.72267342 45.35100174 105.71361542
vertex -11.39070320 48.11892700 88.53146362
endloop
endfacet
facet normal -35.17788696 6.29608822 -55.80329895
outer loop
vertex -12.44104004 51.65577316 89.59263611
vertex -11.39070320 48.11892700 88.53146362
vertex -26.31428146 45.24280167 97.61464691
endloop
endfacet
facet normal -2.44853878 -0.28380430 -4.11278915
outer loop
vertex -26.31428146 45.24280167 97.61464691
vertex -11.39070320 48.11892700 88.53146362
vertex -26.15751076 44.99742508 97.53824615
endloop
endfacet
facet normal -1.96447611 -2.49752092 3.99028563
outer loop
vertex -26.31428146 45.24280167 97.61464691
vertex -26.15751076 44.99742508 97.53824615
vertex -11.26094818 47.13441849 106.20958710
endloop
endfacet
facet normal -14.40472698 -12.05583763 27.71706963
outer loop
vertex -11.26094818 47.13441849 106.20958710
vertex -26.15751076 44.99742508 97.53824615
vertex -10.72267342 45.35100174 105.71361542
endloop
endfacet
facet normal 34.34863281 9.97964001 0.27603936
outer loop
vertex -11.82169533 49.04892731 106.77033234
vertex -11.26094818 47.13441849 106.20958710
vertex -12.48595047 51.80910492 89.63754272
endloop
endfacet
facet normal 2.75094509 0.79926836 0.02211042
outer loop
vertex -12.48595047 51.80910492 89.63754272
vertex -11.26094818 47.13441849 106.20958710
vertex -12.44104004 51.65577316 89.59263611
endloop
endfacet
facet normal -1.51802456 0.26272461 -2.41521549
outer loop
vertex -12.48595047 51.80910492 89.63754272
vertex -12.44104004 51.65577316 89.59263611
vertex -27.32205772 48.68356705 98.62242126
endloop
endfacet
facet normal -34.06468582 5.89670467 -54.19741058
outer loop
vertex -27.32205772 48.68356705 98.62242126
vertex -12.44104004 51.65577316 89.59263611
vertex -26.31428146 45.24280167 97.61464691
endloop
endfacet
facet normal -27.66684914 -23.83213806 53.70131302
outer loop
vertex -27.32205772 48.68356705 98.62242126
vertex -26.31428146 45.24280167 97.61464691
vertex -11.82169533 49.04892731 106.77033234
endloop
endfacet
facet normal -15.39437389 -13.26067352 29.88045692
outer loop
vertex -11.82169533 49.04892731 106.77033234
vertex -26.31428146 45.24280167 97.61464691
vertex -11.26094818 47.13441849 106.20958710
endloop
endfacet
facet normal 47.84868622 -0.26859188 -1.86032271
outer loop
vertex -11.80506516 51.83371735 106.79600525
vertex -11.82169533 49.04892731 106.77033234
vertex -12.47309494 51.83371735 89.61385345
endloop
endfacet
facet normal 0.35629293 -0.23598680 -0.05183247
outer loop
vertex -12.47309494 51.83371735 89.61385345
vertex -11.82169533 49.04892731 106.77033234
vertex -12.48595047 51.80910492 89.63754272
endloop
endfacet
facet normal -0.22167878 -0.23402792 -0.36344698
outer loop
vertex -12.47309494 51.83371735 89.61385345
vertex -12.48595047 51.80910492 89.63754272
vertex -27.23990250 51.83371735 98.62063599
endloop
endfacet
facet normal -28.29813766 0.71166819 -46.47918701
outer loop
vertex -27.23990250 51.83371735 98.62063599
vertex -12.48595047 51.80910492 89.63754272
vertex -27.32205772 48.68356705 98.62242126
endloop
endfacet
facet normal -25.75364113 0.69920480 48.62205887
outer loop
vertex -27.23990250 51.83371735 98.62063599
vertex -27.32205772 48.68356705 98.62242126
vertex -11.80506516 51.83371735 106.79600525
endloop
endfacet
facet normal -22.68084145 -0.26243830 43.15917969
outer loop
vertex -11.80506516 51.83371735 106.79600525
vertex -27.32205772 48.68356705 98.62242126
vertex -11.82169533 49.04892731 106.77033234
endloop
endfacet
facet normal 0.00000000 -87.81622314 0.00000000
outer loop
vertex -17.24226379 51.83371735 98.40333557
vertex -12.47309494 51.83371735 89.61385345
vertex -11.80506516 51.83371735 106.79600525
endloop
endfacet
facet normal -0.00000000 -86.83773041 -0.00000000
outer loop
vertex -17.24226379 51.83371735 98.40333557
vertex -27.23990250 51.83371735 98.62063599
vertex -12.47309494 51.83371735 89.61385345
endloop
endfacet
facet normal 0.00000000 -85.08837891 0.00000000
outer loop
vertex -17.24226379 51.83371735 98.40333557
vertex -11.80506516 51.83371735 106.79600525
vertex -27.23990250 51.83371735 98.62063599
endloop
endfacet
endsolid