solid (null).stl
facet normal 0.00000000 -0.00000000 86.60253906
outer loop
vertex 0.00000000 0.00000000 0.00000000
vertex 10.00000000 0.00000000 0.00000000
vertex -5.00000048 8.66025352 0.00000000
endloop
endfacet
facet normal 0.00000000 0.00000000 86.60253906
outer loop
vertex 0.00000000 0.00000000 0.00000000
vertex -5.00000048 8.66025352 0.00000000
vertex -4.99999905 -8.66025448 0.00000000
endloop
endfacet
facet normal -0.00000000 0.00000000 86.60254669
outer loop
vertex 0.00000000 0.00000000 0.00000000
vertex -4.99999905 -8.66025448 0.00000000
vertex 10.00000000 0.00000000 0.00000000
endloop
endfacet
facet normal 17.32050705 30.00000000 0.00000000
outer loop
vertex 10.00000000 0.00000000 2.00000000
vertex 10.00000000 0.00000000 0.00000000
vertex -5.00000048 8.66025352 2.00000000
endloop
endfacet
facet normal 17.32050705 30.00000000 0.00000000
outer loop
vertex -5.00000048 8.66025352 2.00000000
vertex 10.00000000 0.00000000 0.00000000
vertex -5.00000048 8.66025352 0.00000000
endloop
endfacet
facet normal -34.64101410 -0.00000286 -0.00000000
outer loop
vertex -5.00000048 8.66025352 2.00000000
vertex -5.00000048 8.66025352 0.00000000
vertex -4.99999905 -8.66025448 2.00000000
endloop
endfacet
facet normal -34.64101410 -0.00000286 -0.00000000
outer loop
vertex -4.99999905 -8.66025448 2.00000000
vertex -5.00000048 8.66025352 0.00000000
vertex -4.99999905 -8.66025448 0.00000000
endloop
endfacet
facet normal 17.32050896 -29.99999809 0.00000000
outer loop
vertex -4.99999905 -8.66025448 2.00000000
vertex -4.99999905 -8.66025448 0.00000000
vertex 10.00000000 0.00000000 2.00000000
endloop
endfacet
facet normal 17.32050896 -29.99999809 0.00000000
outer loop
vertex 10.00000000 0.00000000 2.00000000
vertex -4.99999905 -8.66025448 0.00000000
vertex 10.00000000 0.00000000 0.00000000
endloop
endfacet
facet normal 0.09418840 0.16313910 0.00000000
outer loop
vertex 10.00000000 0.00000000 2.01087594
vertex 10.00000000 0.00000000 2.00000000
vertex -5.00000048 8.66025352 4.99456215
endloop
endfacet
facet normal 25.93366814 44.91843414 0.00000000
outer loop
vertex -5.00000048 8.66025352 4.99456215
vertex 10.00000000 0.00000000 2.00000000
vertex -5.00000048 8.66025352 2.00000000
endloop
endfacet
facet normal -51.86733627 -0.00000428 -0.00000000
outer loop
vertex -5.00000048 8.66025352 4.99456215
vertex -5.00000048 8.66025352 2.00000000
vertex -4.99999905 -8.66025448 4.99456215
endloop
endfacet
facet normal -51.86733627 -0.00000428 -0.00000000
outer loop
vertex -4.99999905 -8.66025448 4.99456215
vertex -5.00000048 8.66025352 2.00000000
vertex -4.99999905 -8.66025448 2.00000000
endloop
endfacet
facet normal 25.93367004 -44.91843033 0.00000000
outer loop
vertex -4.99999905 -8.66025448 4.99456215
vertex -4.99999905 -8.66025448 2.00000000
vertex 10.00000000 0.00000000 2.01087594
endloop
endfacet
facet normal 0.09418841 -0.16313909 0.00000000
outer loop
vertex 10.00000000 0.00000000 2.01087594
vertex -4.99999905 -8.66025448 2.00000000
vertex 10.00000000 0.00000000 2.00000000
endloop
endfacet
facet normal 0.08702780 0.16315241 -0.03604254
outer loop
vertex 10.00416183 0.00000000 2.02092505
vertex 10.00000000 0.00000000 2.01087594
vertex -3.85403132 8.66025352 7.76117706
endloop
endfacet
facet normal 23.95958710 44.91843796 -9.92438316
outer loop
vertex -3.85403132 8.66025352 7.76117706
vertex 10.00000000 0.00000000 2.01087594
vertex -5.00000048 8.66025352 4.99456215
endloop
endfacet
facet normal -47.91917419 -0.00000505 19.84876633
outer loop
vertex -3.85403132 8.66025352 7.76117706
vertex -5.00000048 8.66025352 4.99456215
vertex -3.85402989 -8.66025448 7.76117611
endloop
endfacet
facet normal -47.91915512 -0.00000405 19.84876633
outer loop
vertex -3.85402989 -8.66025448 7.76117611
vertex -5.00000048 8.66025352 4.99456215
vertex -4.99999905 -8.66025448 4.99456215
endloop
endfacet
facet normal 23.95958138 -44.91841888 -9.92438412
outer loop
vertex -3.85402989 -8.66025448 7.76117611
vertex -4.99999905 -8.66025448 4.99456215
vertex 10.00416183 0.00000000 2.02092505
endloop
endfacet
facet normal 0.08702780 -0.16315417 -0.03604255
outer loop
vertex 10.00416183 0.00000000 2.02092505
vertex -4.99999905 -8.66025448 4.99456215
vertex 10.00000000 0.00000000 2.01087594
endloop
endfacet
facet normal 31.91710091 59.83685303 -13.22049427
outer loop
vertex 11.53073311 0.00000000 5.70639467
vertex 10.00416183 0.00000000 2.02092505
vertex -2.79712963 8.66025352 10.31276417
endloop
endfacet
facet normal 22.09739113 41.42726898 -9.15303707
outer loop
vertex -2.79712963 8.66025352 10.31276417
vertex 10.00416183 0.00000000 2.02092505
vertex -3.85403132 8.66025352 7.76117706
endloop
endfacet
facet normal -44.19478226 -0.00000501 18.30607414
outer loop
vertex -2.79712963 8.66025352 10.31276417
vertex -3.85403132 8.66025352 7.76117706
vertex -4.14140272 -8.66025448 7.06739616
endloop
endfacet
facet normal 12.01662064 0.00000127 -4.97744322
outer loop
vertex -4.14140272 -8.66025448 7.06739616
vertex -3.85403132 8.66025352 7.76117706
vertex -3.85402989 -8.66025448 7.76117611
endloop
endfacet
facet normal -6.00831079 11.26412868 2.48872185
outer loop
vertex -4.14140272 -8.66025448 7.06739616
vertex -3.85402989 -8.66025448 7.76117611
vertex 11.53073311 0.00000000 5.70639467
endloop
endfacet
facet normal 31.91710472 -59.83684540 -13.22049618
outer loop
vertex 11.53073311 0.00000000 5.70639467
vertex -3.85402989 -8.66025448 7.76117611
vertex 10.00416183 0.00000000 2.02092505
endloop
endfacet
facet normal 37.50078583 50.61959839 21.23843575
outer loop
vertex 11.50188637 -1.46659970 9.25281715
vertex 11.53073311 0.00000000 5.70639467
vertex -2.80195618 7.56123304 12.99226761
endloop
endfacet
facet normal 28.26767349 38.36932755 15.78841305
outer loop
vertex -2.80195618 7.56123304 12.99226761
vertex 11.53073311 0.00000000 5.70639467
vertex -2.79712963 8.66025352 10.31276417
endloop
endfacet
facet normal -49.95853043 3.61378527 1.39223433
outer loop
vertex -2.80195618 7.56123304 12.99226761
vertex -2.79712963 8.66025352 10.31276417
vertex -4.13874245 -8.37586021 6.39090681
endloop
endfacet
facet normal 12.64010334 -0.91802001 -0.33622625
outer loop
vertex -4.13874245 -8.37586021 6.39090681
vertex -2.79712963 8.66025352 10.31276417
vertex -4.14140272 -8.66025448 7.06739616
endloop
endfacet
facet normal -5.48795223 10.58833218 4.42972469
outer loop
vertex -4.13874245 -8.37586021 6.39090681
vertex -4.14140272 -8.66025448 7.06739616
vertex 11.50188637 -1.46659970 9.25281715
endloop
endfacet
facet normal 28.71687698 -55.54075623 -22.73493004
outer loop
vertex 11.50188637 -1.46659970 9.25281715
vertex -4.14140272 -8.66025448 7.06739616
vertex 11.53073311 0.00000000 5.70639467
endloop
endfacet
facet normal 1.63763046 2.21470451 0.91736096
outer loop
vertex 11.50188637 -1.53073359 9.40764999
vertex 11.50188637 -1.46659970 9.25281715
vertex -2.80195618 6.46821499 15.63104630
endloop
endfacet
facet normal 27.90973854 37.74467468 15.63435841
outer loop
vertex -2.80195618 6.46821499 15.63104630
vertex 11.50188637 -1.46659970 9.25281715
vertex -2.80195618 7.56123304 12.99226761
endloop
endfacet
facet normal -49.26986694 3.52748322 1.46113157
outer loop
vertex -2.80195618 6.46821499 15.63104630
vertex -2.80195618 7.56123304 12.99226761
vertex -4.13874245 -9.51702690 9.14592552
endloop
endfacet
facet normal -51.44024277 3.68287110 1.52549601
outer loop
vertex -4.13874245 -9.51702690 9.14592552
vertex -2.80195618 7.56123304 12.99226761
vertex -4.13874245 -8.37586021 6.39090681
endloop
endfacet
facet normal 22.30105972 -43.09022522 -17.84856415
outer loop
vertex -4.13874245 -9.51702690 9.14592552
vertex -4.13874245 -8.37586021 6.39090681
vertex 11.50188637 -1.53073359 9.40764999
endloop
endfacet
facet normal 1.25332594 -2.42168307 -1.00309420
outer loop
vertex 11.50188637 -1.53073359 9.40764999
vertex -4.13874245 -8.37586021 6.39090681
vertex 11.50188637 -1.46659970 9.25281715
endloop
endfacet
facet normal 1.54488814 2.41582036 0.44319561
outer loop
vertex 11.56113911 -1.59486783 9.55069733
vertex 11.50188637 -1.53073359 9.40764999
vertex -1.75484920 5.33840179 18.17483330
endloop
endfacet
facet normal 27.37889671 42.90249252 7.78491592
outer loop
vertex -1.75484920 5.33840179 18.17483330
vertex 11.50188637 -1.53073359 9.40764999
vertex -2.80195618 6.46821499 15.63104630
endloop
endfacet
facet normal -47.99137115 -3.41922927 18.23619843
outer loop
vertex -1.75484920 5.33840179 18.17483330
vertex -2.80195618 6.46821499 15.63104630
vertex -3.12015986 -10.60424232 11.59261322
endloop
endfacet
facet normal -46.16161728 -3.33493280 17.73566437
outer loop
vertex -3.12015986 -10.60424232 11.59261322
vertex -2.80195618 6.46821499 15.63104630
vertex -4.13874245 -9.51702690 9.14592552
endloop
endfacet
facet normal 19.82312202 -38.00041580 -25.13852692
outer loop
vertex -3.12015986 -10.60424232 11.59261322
vertex -4.13874245 -9.51702690 9.14592552
vertex 11.56113911 -1.59486783 9.55069733
endloop
endfacet
facet normal 1.15920353 -2.22184229 -1.47630954
outer loop
vertex 11.56113911 -1.59486783 9.55069733
vertex -4.13874245 -9.51702690 9.14592552
vertex 11.50188637 -1.53073359 9.40764999
endloop
endfacet
facet normal 19.82819748 31.00632668 5.68831825
outer loop
vertex 12.32162380 -2.41801095 11.38667107
vertex 11.56113911 -1.59486783 9.55069733
vertex -0.46660030 3.94401121 21.28494072
endloop
endfacet
facet normal 33.58862686 52.52418900 9.63591194
outer loop
vertex -0.46660030 3.94401121 21.28494072
vertex 11.56113911 -1.59486783 9.55069733
vertex -1.75484920 5.33840179 18.17483330
endloop
endfacet
facet normal -58.76152420 -4.23327446 22.44186974
outer loop
vertex -0.46660030 3.94401121 21.28494072
vertex -1.75484920 5.33840179 18.17483330
vertex -3.04547262 -10.68508339 11.77292442
endloop
endfacet
facet normal -3.40675092 -0.24542706 1.30108535
outer loop
vertex -3.04547262 -10.68508339 11.77292442
vertex -1.75484920 5.33840179 18.17483330
vertex -3.12015986 -10.60424232 11.59261322
endloop
endfacet
facet normal 1.45942068 -2.79970765 -1.85973728
outer loop
vertex -3.04547262 -10.68508339 11.77292442
vertex -3.12015986 -10.60424232 11.59261322
vertex 12.32162380 -2.41801095 11.38667107
endloop
endfacet
facet normal 14.86018658 -28.50732613 -18.93630219
outer loop
vertex 12.32162380 -2.41801095 11.38667107
vertex -3.12015986 -10.60424232 11.59261322
vertex 11.56113911 -1.59486783 9.55069733
endloop
endfacet
facet normal 23.99484253 23.73122025 15.74749088
outer loop
vertex 12.90367413 -3.93898106 12.79186440
vertex 12.32162380 -2.41801095 11.38667107
vertex 0.51938248 1.36751413 23.66531372
endloop
endfacet
facet normal 40.64685059 40.20026779 26.67597771
outer loop
vertex 0.51938248 1.36751413 23.66531372
vertex 12.32162380 -2.41801095 11.38667107
vertex -0.46660030 3.94401121 21.28494072
endloop
endfacet
facet normal -59.33038330 -3.24000835 21.06848907
outer loop
vertex 0.51938248 1.36751413 23.66531372
vertex -0.46660030 3.94401121 21.28494072
vertex -2.98830867 -10.83445740 11.91092873
endloop
endfacet
facet normal -3.43972611 -0.18784896 1.22147346
outer loop
vertex -2.98830867 -10.83445740 11.91092873
vertex -0.46660030 3.94401121 21.28494072
vertex -3.04547262 -10.68508339 11.77292442
endloop
endfacet
facet normal 1.08319426 -2.14280415 -2.76802182
outer loop
vertex -2.98830867 -10.83445740 11.91092873
vertex -3.04547262 -10.68508339 11.77292442
vertex 12.90367413 -3.93898106 12.79186440
endloop
endfacet
facet normal 11.02935505 -21.81855965 -28.18474579
outer loop
vertex 12.90367413 -3.93898106 12.79186440
vertex -3.04547262 -10.68508339 11.77292442
vertex 12.32162380 -2.41801095 11.38667107
endloop
endfacet
facet normal 2.09459162 2.07158017 1.37465179
outer loop
vertex 12.95448303 -4.07175159 12.91452885
vertex 12.90367413 -3.93898106 12.79186440
vertex 0.89163613 0.39476842 24.56401443
endloop
endfacet
facet normal 15.34605217 15.17745304 10.07140541
outer loop
vertex 0.89163613 0.39476842 24.56401443
vertex 12.90367413 -3.93898106 12.79186440
vertex 0.51938248 1.36751413 23.66531372
endloop
endfacet
facet normal -22.39995193 -1.22324920 7.95431995
outer loop
vertex 0.89163613 0.39476842 24.56401443
vertex 0.51938248 1.36751413 23.66531372
vertex -1.78775907 -13.97164440 14.80931187
endloop
endfacet
facet normal -72.24169159 -3.94508934 25.65335464
outer loop
vertex -1.78775907 -13.97164440 14.80931187
vertex 0.51938248 1.36751413 23.66531372
vertex -2.98830867 -10.83445740 11.91092873
endloop
endfacet
facet normal 22.74939346 -45.00344467 -58.13447952
outer loop
vertex -1.78775907 -13.97164440 14.80931187
vertex -2.98830867 -10.83445740 11.91092873
vertex 12.95448303 -4.07175159 12.91452885
endloop
endfacet
facet normal 0.96279210 -1.90462208 -2.46033883
outer loop
vertex 12.95448303 -4.07175159 12.91452885
vertex -2.98830867 -10.83445740 11.91092873
vertex 12.90367413 -3.93898106 12.79186440
endloop
endfacet
facet normal -1.86419868 -2.75922775 -0.77272958
outer loop
vertex 12.88577652 -3.97700095 12.74195099
vertex 12.95448303 -4.07175159 12.91452885
vertex 2.06363368 -0.29939699 25.71838760
endloop
endfacet
facet normal 13.24270058 27.57819557 3.13886023
outer loop
vertex 2.06363368 -0.29939699 25.71838760
vertex 12.95448303 -4.07175159 12.91452885
vertex 0.89163613 0.39476842 24.56401443
endloop
endfacet
facet normal -23.29685211 -8.29100609 18.66686058
outer loop
vertex 2.06363368 -0.29939699 25.71838760
vertex 0.89163613 0.39476842 24.56401443
vertex 1.09627724 -15.65382767 17.69132614
endloop
endfacet
facet normal -57.81340027 -20.41086197 45.94049072
outer loop
vertex 1.09627724 -15.65382767 17.69132614
vertex 0.89163613 0.39476842 24.56401443
vertex -1.78775907 -13.97164440 14.80931187
endloop
endfacet
facet normal 25.32702637 -48.25168228 -53.50849152
outer loop
vertex 1.09627724 -15.65382767 17.69132614
vertex -1.78775907 -13.97164440 14.80931187
vertex 12.88577652 -3.97700095 12.74195099
endloop
endfacet
facet normal -1.52897036 2.67436862 2.07702398
outer loop
vertex 12.88577652 -3.97700095 12.74195099
vertex -1.78775907 -13.97164440 14.80931187
vertex 12.95448303 -4.07175159 12.91452885
endloop
endfacet
facet normal 31.02715683 65.46685791 7.32243729
outer loop
vertex 15.63664913 -5.58842468 15.49282360
vertex 12.88577652 -3.97700095 12.74195099
vertex 3.51013756 -1.14673924 27.16489029
endloop
endfacet
facet normal 16.31514740 34.42472458 3.85039043
outer loop
vertex 3.51013756 -1.14673924 27.16489029
vertex 12.88577652 -3.97700095 12.74195099
vertex 2.06363368 -0.29939699 25.71838760
endloop
endfacet
facet normal -29.01189423 -10.21189308 23.02992630
outer loop
vertex 3.51013756 -1.14673924 27.16489029
vertex 2.06363368 -0.29939699 25.71838760
vertex 0.82903498 -15.49728107 17.42408371
endloop
endfacet
facet normal 5.35996437 1.88665140 -4.25478888
outer loop
vertex 0.82903498 -15.49728107 17.42408371
vertex 2.06363368 -0.29939699 25.71838760
vertex 1.09627724 -15.65382767 17.69132614
endloop
endfacet
facet normal -2.34573460 4.47333717 4.96614647
outer loop
vertex 0.82903498 -15.49728107 17.42408371
vertex 1.09627724 -15.65382767 17.69132614
vertex 15.63664913 -5.58842468 15.49282360
endloop
endfacet
facet normal 24.14592171 -46.04651260 -51.11933899
outer loop
vertex 15.63664913 -5.58842468 15.49282360
vertex 1.09627724 -15.65382767 17.69132614
vertex 12.88577652 -3.97700095 12.74195099
endloop
endfacet
facet normal 42.86442184 41.74013901 28.45018959
outer loop
vertex 16.59919357 -8.29814148 18.01811600
vertex 15.63664913 -5.58842468 15.49282360
vertex 4.21490097 -2.99164772 28.89156723
endloop
endfacet
facet normal 29.20325089 29.16461182 19.24196625
outer loop
vertex 4.21490097 -2.99164772 28.89156723
vertex 15.63664913 -5.58842468 15.49282360
vertex 3.51013756 -1.14673924 27.16489029
endloop
endfacet
facet normal -42.75463104 -2.22741079 15.07087326
outer loop
vertex 4.21490097 -2.99164772 28.89156723
vertex 3.51013756 -1.14673924 27.16489029
vertex 0.70720911 -15.19361877 17.13718033
endloop
endfacet
facet normal 7.07513523 0.41746485 -2.56241703
outer loop
vertex 0.70720911 -15.19361877 17.13718033
vertex 3.51013756 -1.14673924 27.16489029
vertex 0.82903498 -15.49728107 17.42408371
endloop
endfacet
facet normal -2.24584270 4.45214319 5.66584396
outer loop
vertex 0.70720911 -15.19361877 17.13718033
vertex 0.82903498 -15.49728107 17.42408371
vertex 16.59919357 -8.29814148 18.01811600
endloop
endfacet
facet normal 19.78959084 -39.25247955 -49.66215515
outer loop
vertex 16.59919357 -8.29814148 18.01811600
vertex 0.82903498 -15.49728107 17.42408371
vertex 15.63664913 -5.58842468 15.49282360
endloop
endfacet
facet normal 37.88596344 37.46972656 24.86404991
outer loop
vertex 17.51820564 -10.69963360 20.23680496
vertex 16.59919357 -8.29814148 18.01811600
vertex 4.56552982 -3.90788507 29.73806000
endloop
endfacet
facet normal 14.45457077 14.29575920 9.48634148
outer loop
vertex 4.56552982 -3.90788507 29.73806000
vertex 16.59919357 -8.29814148 18.01811600
vertex 4.21490097 -2.99164772 28.89156723
endloop
endfacet
facet normal -21.09868813 -1.15219116 7.49224186
outer loop
vertex 4.56552982 -3.90788507 29.73806000
vertex 4.21490097 -2.99164772 28.89156723
vertex 1.05993903 -16.11534691 17.98874664
endloop
endfacet
facet normal -21.22513580 -1.15909171 7.53713894
outer loop
vertex 1.05993903 -16.11534691 17.98874664
vertex 4.21490097 -2.99164772 28.89156723
vertex 0.70720911 -15.19361877 17.13718033
endloop
endfacet
facet normal 6.68393707 -13.22234821 -17.08033180
outer loop
vertex 1.05993903 -16.11534691 17.98874664
vertex 0.70720911 -15.19361877 17.13718033
vertex 17.51820564 -10.69963360 20.23680496
endloop
endfacet
facet normal 17.41448021 -34.44978333 -44.50150299
outer loop
vertex 17.51820564 -10.69963360 20.23680496
vertex 0.70720911 -15.19361877 17.13718033
vertex 16.59919357 -8.29814148 18.01811600
endloop
endfacet
facet normal 38.95113754 30.97119331 30.99201965
outer loop
vertex 17.51653862 -13.09222603 22.62988472
vertex 17.51820564 -10.69963360 20.23680496
vertex 4.56888723 -4.95310974 30.76899910
endloop
endfacet
facet normal 16.93282509 13.38531971 13.51565266
outer loop
vertex 4.56888723 -4.95310974 30.76899910
vertex 17.51820564 -10.69963360 20.23680496
vertex 4.56552982 -3.90788507 29.73806000
endloop
endfacet
facet normal -24.86780548 3.58581209 3.71648598
outer loop
vertex 4.56888723 -4.95310974 30.76899910
vertex 4.56552982 -3.90788507 29.73806000
vertex 1.05168009 -16.93087578 18.79123306
endloop
endfacet
facet normal -19.37822723 2.91022587 2.75808978
outer loop
vertex 1.05168009 -16.93087578 18.79123306
vertex 4.56552982 -3.90788507 29.73806000
vertex 1.05993903 -16.11534691 17.98874664
endloop
endfacet
facet normal 6.21099567 -13.24452877 -13.39586449
outer loop
vertex 1.05168009 -16.93087578 18.79123306
vertex 1.05993903 -16.11534691 17.98874664
vertex 17.51653862 -13.09222603 22.62988472
endloop
endfacet
facet normal 18.33892059 -39.38969421 -39.36889648
outer loop
vertex 17.51653862 -13.09222603 22.62988472
vertex 1.05993903 -16.11534691 17.98874664
vertex 17.51820564 -10.69963360 20.23680496
endloop
endfacet
facet normal 27.64776039 21.99093819 21.99093819
outer loop
vertex 17.51653862 -14.79067612 24.32833481
vertex 17.51653862 -13.09222603 22.62988472
vertex 4.56888723 -5.03258991 30.84847832
endloop
endfacet
facet normal 1.29378879 1.02906919 1.02908146
outer loop
vertex 4.56888723 -5.03258991 30.84847832
vertex 17.51653862 -13.09222603 22.62988472
vertex 4.56888723 -4.95310974 30.76899910
endloop
endfacet
facet normal -1.90397608 0.27954486 0.27954823
outer loop
vertex 4.56888723 -5.03258991 30.84847832
vertex 4.56888723 -4.95310974 30.76899910
vertex 1.05167997 -19.39288139 21.25323868
endloop
endfacet
facet normal -58.97865677 8.65938473 8.65938187
outer loop
vertex 1.05167997 -19.39288139 21.25323868
vertex 4.56888723 -4.95310974 30.76899910
vertex 1.05168009 -16.93087578 18.79123306
endloop
endfacet
facet normal 18.90155792 -40.53657532 -40.53657532
outer loop
vertex 1.05167997 -19.39288139 21.25323868
vertex 1.05168009 -16.93087578 18.79123306
vertex 17.51653862 -14.79067612 24.32833481
endloop
endfacet
facet normal 13.03951359 -27.96474075 -27.96474075
outer loop
vertex 17.51653862 -14.79067612 24.32833481
vertex 1.05168009 -16.93087578 18.79123306
vertex 17.51653862 -13.09222603 22.62988472
endloop
endfacet
facet normal 27.64776039 28.73254013 11.90141869
outer loop
vertex 17.51653862 -15.70987129 26.54746628
vertex 17.51653862 -14.79067612 24.32833481
vertex 4.56888723 -5.07560444 30.95232391
endloop
endfacet
facet normal 1.29379511 1.34455657 0.55693710
outer loop
vertex 4.56888723 -5.07560444 30.95232391
vertex 17.51653862 -14.79067612 24.32833481
vertex 4.56888723 -5.03258991 30.84847832
endloop
endfacet
facet normal -1.90398717 0.36524656 0.15129104
outer loop
vertex 4.56888723 -5.07560444 30.95232391
vertex 4.56888723 -5.03258991 30.84847832
vertex 1.05167913 -20.72531128 24.47000313
endloop
endfacet
facet normal -58.97866058 11.31403542 4.68642044
outer loop
vertex 1.05167913 -20.72531128 24.47000313
vertex 4.56888723 -5.03258991 30.84847832
vertex 1.05167997 -19.39288139 21.25323868
endloop
endfacet
facet normal 18.90156364 -52.96357346 -21.93826675
outer loop
vertex 1.05167913 -20.72531128 24.47000313
vertex 1.05167997 -19.39288139 21.25323868
vertex 17.51653862 -15.70987129 26.54746628
endloop
endfacet
facet normal 13.03951168 -36.53768539 -15.13441849
outer loop
vertex 17.51653862 -15.70987129 26.54746628
vertex 1.05167997 -19.39288139 21.25323868
vertex 17.51653862 -14.79067612 24.32833481
endloop
endfacet
facet normal 2.20306826 2.28951216 0.94833899
outer loop
vertex 17.51653862 -15.78311539 26.72429466
vertex 17.51653862 -15.70987129 26.54746628
vertex 4.56888723 -6.08722591 33.39459229
endloop
endfacet
facet normal 30.42778397 31.62163925 13.09812164
outer loop
vertex 4.56888723 -6.08722591 33.39459229
vertex 17.51653862 -15.70987129 26.54746628
vertex 4.56888723 -5.07560444 30.95232391
endloop
endfacet
facet normal -44.77843857 8.58996582 3.55808330
outer loop
vertex 4.56888723 -6.08722591 33.39459229
vertex 4.56888723 -5.07560444 30.95232391
vertex 1.05167902 -21.93880463 27.39963531
endloop
endfacet
facet normal -53.71414185 10.30412579 4.26810694
outer loop
vertex 1.05167902 -21.93880463 27.39963531
vertex 4.56888723 -5.07560444 30.95232391
vertex 1.05167913 -20.72531128 24.47000313
endloop
endfacet
facet normal 17.21438408 -48.23598099 -19.97999763
outer loop
vertex 1.05167902 -21.93880463 27.39963531
vertex 1.05167913 -20.72531128 24.47000313
vertex 17.51653862 -15.78311539 26.72429466
endloop
endfacet
facet normal 1.03903401 -2.91145444 -1.20595372
outer loop
vertex 17.51653862 -15.78311539 26.72429466
vertex 1.05167913 -20.72531128 24.47000313
vertex 17.51653862 -15.70987129 26.54746628
endloop
endfacet
facet normal 1.87730885 2.34644389 0.24254036
outer loop
vertex 17.58097076 -15.84989738 26.87165642
vertex 17.51653862 -15.78311539 26.72429466
vertex 5.54525375 -7.13951111 35.76224136
endloop
endfacet
facet normal 29.97551727 37.16815186 4.15787983
outer loop
vertex 5.54525375 -7.13951111 35.76224136
vertex 17.51653862 -15.78311539 26.72429466
vertex 4.56888723 -6.08722591 33.39459229
endloop
endfacet
facet normal -43.84040070 2.44597006 19.16591263
outer loop
vertex 5.54525375 -7.13951111 35.76224136
vertex 4.56888723 -6.08722591 33.39459229
vertex 2.14225340 -23.10173988 30.01527977
endloop
endfacet
facet normal -48.43384171 2.66181970 21.37761116
outer loop
vertex 2.14225340 -23.10173988 30.01527977
vertex 4.56888723 -6.08722591 33.39459229
vertex 1.05167902 -21.93880463 27.39963531
endloop
endfacet
facet normal 15.31241035 -43.81055069 -25.86290169
outer loop
vertex 2.14225340 -23.10173988 30.01527977
vertex 1.05167902 -21.93880463 27.39963531
vertex 17.58097076 -15.84989738 26.87165642
endloop
endfacet
facet normal 0.86201257 -2.46980405 -1.49618042
outer loop
vertex 17.58097076 -15.84989738 26.87165642
vertex 1.05167902 -21.93880463 27.39963531
vertex 17.51653862 -15.78311539 26.72429466
endloop
endfacet
facet normal 38.68346405 47.89064026 5.44814587
outer loop
vertex 18.84299850 -17.21590614 29.91846085
vertex 17.58097076 -15.84989738 26.87165642
vertex 6.63942289 -8.32383156 38.40380096
endloop
endfacet
facet normal 33.53830719 41.52086639 4.72350979
outer loop
vertex 6.63942289 -8.32383156 38.40380096
vertex 17.58097076 -15.84989738 26.87165642
vertex 5.54525375 -7.13951111 35.76224136
endloop
endfacet
facet normal -48.97142029 2.70108128 21.49562073
outer loop
vertex 6.63942289 -8.32383156 38.40380096
vertex 5.54525375 -7.13951111 35.76224136
vertex 1.90806019 -22.84825134 29.44988823
endloop
endfacet
facet normal 10.48169804 -0.57812822 -4.60086727
outer loop
vertex 1.90806019 -22.84825134 29.44988823
vertex 5.54525375 -7.13951111 35.76224136
vertex 2.14225340 -23.10173988 30.01527977
endloop
endfacet
facet normal -3.30325818 9.46513462 5.61186981
outer loop
vertex 1.90806019 -22.84825134 29.44988823
vertex 2.14225340 -23.10173988 30.01527977
vertex 18.84299850 -17.21590614 29.91846085
endloop
endfacet
facet normal 17.80072784 -51.00609207 -30.24144936
outer loop
vertex 18.84299850 -17.21590614 29.91846085
vertex 2.14225340 -23.10173988 30.01527977
vertex 17.58097076 -15.84989738 26.87165642
endloop
endfacet
facet normal 38.43790436 26.47012138 27.20662117
outer loop
vertex 18.78511047 -19.41264725 32.13751984
vertex 18.84299850 -17.21590614 29.91846085
vertex 6.62950182 -10.70801544 40.84214783
endloop
endfacet
facet normal 41.91257477 29.67236710 29.18378830
outer loop
vertex 6.62950182 -10.70801544 40.84214783
vertex 18.84299850 -17.21590614 29.91846085
vertex 6.63942289 -8.32383156 38.40380096
endloop
endfacet
facet normal -56.66127777 11.56831169 11.08080196
outer loop
vertex 6.62950182 -10.70801544 40.84214783
vertex 6.63942289 -8.32383156 38.40380096
vertex 1.93298149 -22.45729828 29.09286499
endloop
endfacet
facet normal 8.68611526 -1.91234958 -1.48777330
outer loop
vertex 1.93298149 -22.45729828 29.09286499
vertex 6.63942289 -8.32383156 38.40380096
vertex 1.90806019 -22.84825134 29.44988823
endloop
endfacet
facet normal -2.27732849 6.09247828 6.51251459
outer loop
vertex 1.93298149 -22.45729828 29.09286499
vertex 1.90806019 -22.84825134 29.44988823
vertex 18.78511047 -19.41264725 32.13751984
endloop
endfacet
facet normal 13.52783966 -37.60675430 -36.87562943
outer loop
vertex 18.78511047 -19.41264725 32.13751984
vertex 1.90806019 -22.84825134 29.44988823
vertex 18.84299850 -17.21590614 29.91846085
endloop
endfacet
facet normal 40.84946442 28.52216721 28.52219200
outer loop
vertex 18.78511047 -21.75906944 34.48394012
vertex 18.78511047 -19.41264725 32.13751984
vertex 6.62950182 -11.94165611 42.07579041
endloop
endfacet
facet normal 21.47678757 14.99567699 14.99565411
outer loop
vertex 6.62950182 -11.94165611 42.07579041
vertex 18.78511047 -19.41264725 32.13751984
vertex 6.62950182 -10.70801544 40.84214783
endloop
endfacet
facet normal -28.98880959 5.79382753 5.79381847
outer loop
vertex 6.62950182 -11.94165611 42.07579041
vertex 6.62950182 -10.70801544 40.84214783
vertex 1.93298149 -23.11439705 29.74996376
endloop
endfacet
facet normal -15.44087791 3.08607769 3.08607769
outer loop
vertex 1.93298149 -23.11439705 29.74996376
vertex 6.62950182 -10.70801544 40.84214783
vertex 1.93298149 -22.45729828 29.09286499
endloop
endfacet
facet normal 4.00127411 -11.07351303 -11.07351303
outer loop
vertex 1.93298149 -23.11439705 29.74996376
vertex 1.93298149 -22.45729828 29.09286499
vertex 18.78511047 -21.75906944 34.48394012
endloop
endfacet
facet normal 14.28807640 -39.54217911 -39.54220963
outer loop
vertex 18.78511047 -21.75906944 34.48394012
vertex 1.93298149 -22.45729828 29.09286499
vertex 18.78511047 -19.41264725 32.13751984
endloop
endfacet
facet normal 38.16243744 19.00913048 36.51153946
outer loop
vertex 17.89867020 -24.04829025 36.60230637
vertex 18.78511047 -21.75906944 34.48394012
vertex 6.10650826 -13.31245232 43.33822250
endloop
endfacet
facet normal 22.80069733 11.37514210 21.79730606
outer loop
vertex 6.10650826 -13.31245232 43.33822250
vertex 18.78511047 -21.75906944 34.48394012
vertex 6.62950182 -11.94165611 42.07579041
endloop
endfacet
facet normal -31.01524544 12.39066696 0.60542345
outer loop
vertex 6.10650826 -13.31245232 43.33822250
vertex 6.62950182 -11.94165611 42.07579041
vertex 1.70325327 -23.69602585 30.27523804
endloop
endfacet
facet normal -13.03780937 5.29855156 0.16493750
outer loop
vertex 1.70325327 -23.69602585 30.27523804
vertex 6.62950182 -11.94165611 42.07579041
vertex 1.93298149 -23.11439705 29.74996376
endloop
endfacet
facet normal 3.49496961 -9.96054268 -9.50064659
outer loop
vertex 1.70325327 -23.69602585 30.27523804
vertex 1.93298149 -23.11439705 29.74996376
vertex 17.89867020 -24.04829025 36.60230637
endloop
endfacet
facet normal 13.70819759 -39.89536667 -37.37682724
outer loop
vertex 17.89867020 -24.04829025 36.60230637
vertex 1.93298149 -23.11439705 29.74996376
vertex 18.78511047 -21.75906944 34.48394012
endloop
endfacet
facet normal 18.28213501 9.12959385 17.45450592
outer loop
vertex 17.47858810 -25.14601707 37.61647415
vertex 17.89867020 -24.04829025 36.60230637
vertex 6.08874416 -13.35887241 43.38110733
endloop
endfacet
facet normal 0.77308643 0.38604739 0.73810565
outer loop
vertex 6.08874416 -13.35887241 43.38110733
vertex 17.89867020 -24.04829025 36.60230637
vertex 6.10650826 -13.31245232 43.33822250
endloop
endfacet
facet normal -1.05167723 0.42088309 0.01994513
outer loop
vertex 6.08874416 -13.35887241 43.38110733
vertex 6.10650826 -13.31245232 43.33822250
vertex 0.52166343 -26.78366852 33.12784958
endloop
endfacet
facet normal -69.95413208 27.99586487 1.32655334
outer loop
vertex 0.52166343 -26.78366852 33.12784958
vertex 6.10650826 -13.31245232 43.33822250
vertex 1.70325327 -23.69602585 30.27523804
endloop
endfacet
facet normal 18.53085327 -53.67523193 -50.42189026
outer loop
vertex 0.52166343 -26.78366852 33.12784958
vertex 1.70325327 -23.69602585 30.27523804
vertex 17.47858810 -25.14601707 37.61647415
endloop
endfacet
facet normal 6.58813763 -19.08275795 -17.92612457
outer loop
vertex 17.47858810 -25.14601707 37.61647415
vertex 1.70325327 -23.69602585 30.27523804
vertex 17.89867020 -24.04829025 36.60230637
endloop
endfacet
facet normal 14.30591011 11.64419079 4.53350019
outer loop
vertex 17.50789833 -25.57430077 38.62401962
vertex 17.47858810 -25.14601707 37.61647415
vertex 6.09638739 -13.50125599 43.62483597
endloop
endfacet
facet normal 3.69365382 2.82009149 1.53163481
outer loop
vertex 6.09638739 -13.50125599 43.62483597
vertex 17.47858810 -25.14601707 37.61647415
vertex 6.08874416 -13.35887241 43.38110733
endloop
endfacet
facet normal -4.56658840 1.32242525 0.91575241
outer loop
vertex 6.09638739 -13.50125599 43.62483597
vertex 6.08874416 -13.35887241 43.38110733
vertex 0.47461843 -28.58714867 37.37605286
endloop
endfacet
facet normal -75.52280426 24.13245392 9.40855026
outer loop
vertex 0.47461843 -28.58714867 37.37605286
vertex 6.08874416 -13.35887241 43.38110733
vertex 0.52166343 -26.78366852 33.12784958
endloop
endfacet
facet normal 15.04987335 -72.41954041 -30.57744217
outer loop
vertex 0.47461843 -28.58714867 37.37605286
vertex 0.52166343 -26.78366852 33.12784958
vertex 17.50789833 -25.57430077 38.62401962
endloop
endfacet
facet normal 3.57241297 -16.95331001 -7.31037378
outer loop
vertex 17.50789833 -25.57430077 38.62401962
vertex 0.52166343 -26.78366852 33.12784958
vertex 17.47858810 -25.14601707 37.61647415
endloop
endfacet
facet normal 48.47791672 39.11118698 16.20038414
outer loop
vertex 17.50789833 -26.99395370 42.05136490
vertex 17.50789833 -25.57430077 38.62401962
vertex 6.09638739 -14.15521717 45.20363617
endloop
endfacet
facet normal 22.33126640 18.01649475 7.46268463
outer loop
vertex 6.09638739 -14.15521717 45.20363617
vertex 17.50789833 -25.57430077 38.62401962
vertex 6.09638739 -13.50125599 43.62483597
endloop
endfacet
facet normal -27.90407372 8.87565041 3.67641878
outer loop
vertex 6.09638739 -14.15521717 45.20363617
vertex 6.09638739 -13.50125599 43.62483597
vertex 0.47461841 -28.80372620 37.89891434
endloop
endfacet
facet normal -9.24117756 2.93940663 1.21754837
outer loop
vertex 0.47461841 -28.80372620 37.89891434
vertex 6.09638739 -13.50125599 43.62483597
vertex 0.47461843 -28.58714867 37.37605286
endloop
endfacet
facet normal 1.84558773 -8.90604591 -3.68902564
outer loop
vertex 0.47461841 -28.80372620 37.89891434
vertex 0.47461843 -28.58714867 37.37605286
vertex 17.50789833 -26.99395370 42.05136490
endloop
endfacet
facet normal 12.09774971 -58.37892914 -24.18134499
outer loop
vertex 17.50789833 -26.99395370 42.05136490
vertex 0.47461843 -28.58714867 37.37605286
vertex 17.50789833 -25.57430077 38.62401962
endloop
endfacet
facet normal 44.42457581 31.47677040 32.60523987
outer loop
vertex 16.20734215 -28.38906860 45.17020035
vertex 17.50789833 -26.99395370 42.05136490
vertex 5.44509363 -14.86357594 46.77637100
endloop
endfacet
facet normal 22.42486763 15.89422703 16.44523239
outer loop
vertex 5.44509363 -14.86357594 46.77637100
vertex 17.50789833 -26.99395370 42.05136490
vertex 6.09638739 -14.15521717 45.20363617
endloop
endfacet
facet normal -28.22471428 13.61627865 -5.55552673
outer loop
vertex 5.44509363 -14.86357594 46.77637100
vertex 6.09638739 -14.15521717 45.20363617
vertex 0.29462671 -28.99530220 38.30713654
endloop
endfacet
facet normal -7.37925577 3.60972023 -1.55961394
outer loop
vertex 0.29462671 -28.99530220 38.30713654
vertex 6.09638739 -14.15521717 45.20363617
vertex 0.47461841 -28.80372620 37.89891434
endloop
endfacet
facet normal 1.56227636 -7.73121834 -2.93937755
outer loop
vertex 0.29462671 -28.99530220 38.30713654
vertex 0.47461841 -28.80372620 37.89891434
vertex 16.20734215 -28.38906860 45.17020035
endloop
endfacet
facet normal 11.43752861 -58.52449417 -21.40967178
outer loop
vertex 16.20734215 -28.38906860 45.17020035
vertex 0.47461841 -28.80372620 37.89891434
vertex 17.50789833 -26.99395370 42.05136490
endloop
endfacet
facet normal 13.96927261 9.90109348 10.22532082
outer loop
vertex 15.80116367 -28.82871246 46.15080261
vertex 16.20734215 -28.38906860 45.17020035
vertex 5.39329052 -14.91964722 46.90143585
endloop
endfacet
facet normal 1.78162372 1.26277435 1.30411577
outer loop
vertex 5.39329052 -14.91964722 46.90143585
vertex 16.20734215 -28.38906860 45.17020035
vertex 5.44509363 -14.86357594 46.77637100
endloop
endfacet
facet normal -2.24226499 1.08287680 -0.44327417
outer loop
vertex 5.39329052 -14.91964722 46.90143585
vertex 5.44509363 -14.86357594 46.77637100
vertex -1.37357974 -30.80095673 42.33454514
endloop
endfacet
facet normal -72.20674896 34.87146378 -14.27467346
outer loop
vertex -1.37357974 -30.80095673 42.33454514
vertex 5.44509363 -14.86357594 46.77637100
vertex 0.29462671 -28.99530220 38.30713654
endloop
endfacet
facet normal 14.83387566 -75.53601074 -27.72154236
outer loop
vertex -1.37357974 -30.80095673 42.33454514
vertex 0.29462671 -28.99530220 38.30713654
vertex 15.80116367 -28.82871246 46.15080261
endloop
endfacet
facet normal 3.61177778 -18.39167404 -6.74968863
outer loop
vertex 15.80116367 -28.82871246 46.15080261
vertex 0.29462671 -28.99530220 38.30713654
vertex 16.20734215 -28.38906860 45.17020035
endloop
endfacet
facet normal 13.66720390 10.24578953 -0.13321701
outer loop
vertex 15.81536198 -28.83486748 47.13407135
vertex 15.80116367 -28.82871246 46.15080261
vertex 5.39523029 -14.93510342 47.13407135
endloop
endfacet
facet normal 3.24734426 2.42269683 0.13388574
outer loop
vertex 5.39523029 -14.93510342 47.13407135
vertex 15.80116367 -28.82871246 46.15080261
vertex 5.39329052 -14.91964722 46.90143585
endloop
endfacet
facet normal -3.69406581 1.57885230 0.13570030
outer loop
vertex 5.39523029 -14.93510342 47.13407135
vertex 5.39329052 -14.91964722 46.90143585
vertex -1.39157677 -30.81430435 47.13407135
endloop
endfacet
facet normal -76.28372192 32.55995941 -0.19549471
outer loop
vertex -1.39157677 -30.81430435 47.13407135
vertex 5.39329052 -14.91964722 46.90143585
vertex -1.37357974 -30.80095673 42.33454514
endloop
endfacet
facet normal 9.50035954 -82.58515930 -0.19404781
outer loop
vertex -1.39157677 -30.81430435 47.13407135
vertex -1.37357974 -30.80095673 42.33454514
vertex 15.81536198 -28.83486748 47.13407135
endloop
endfacet
facet normal 1.96273518 -16.83320427 -0.13371330
outer loop
vertex 15.81536198 -28.83486748 47.13407135
vertex -1.37357974 -30.80095673 42.33454514
vertex 15.80116367 -28.82871246 46.15080261
endloop
endfacet
facet normal 2.43244815 1.82351506 0.00000000
outer loop
vertex 15.81536198 -28.83486748 47.30907059
vertex 15.81536198 -28.83486748 47.13407135
vertex 5.39523029 -14.93510342 49.38176346
endloop
endfacet
facet normal 31.24238968 23.42124748 0.00000000
outer loop
vertex 5.39523029 -14.93510342 49.38176346
vertex 15.81536198 -28.83486748 47.13407135
vertex 5.39523029 -14.93510342 47.13407135
endloop
endfacet
facet normal -35.69155502 15.25465298 0.00000000
outer loop
vertex 5.39523029 -14.93510342 49.38176346
vertex 5.39523029 -14.93510342 47.13407135
vertex -1.39157689 -30.81430435 50.73174286
endloop
endfacet
facet normal -57.12814713 24.41670227 -0.00000189
outer loop
vertex -1.39157689 -30.81430435 50.73174286
vertex 5.39523029 -14.93510342 47.13407135
vertex -1.39157677 -30.81430435 47.13407135
endloop
endfacet
facet normal 7.12136364 -61.90491486 0.00000024
outer loop
vertex -1.39157689 -30.81430435 50.73174286
vertex -1.39157677 -30.81430435 47.13407135
vertex 15.81536198 -28.83486748 47.30907059
endloop
endfacet
facet normal 0.34639993 -3.01120138 0.00000000
outer loop
vertex 15.81536198 -28.83486748 47.30907059
vertex -1.39157677 -30.81430435 47.13407135
vertex 15.81536198 -28.83486748 47.13407135
endloop
endfacet
facet normal 2.24729037 1.82351851 -0.93086541
outer loop
vertex 15.88233185 -28.83486748 47.47074890
vertex 15.81536198 -28.83486748 47.30907059
vertex 6.25538540 -14.93510342 51.45836258
endloop
endfacet
facet normal 28.86423874 23.42127419 -11.95595264
outer loop
vertex 6.25538540 -14.93510342 51.45836258
vertex 15.81536198 -28.83486748 47.30907059
vertex 5.39523029 -14.93510342 49.38176346
endloop
endfacet
facet normal -32.97473526 15.25467014 13.65857601
outer loop
vertex 6.25538540 -14.93510342 51.45836258
vertex 5.39523029 -14.93510342 49.38176346
vertex -0.01480722 -30.81430435 54.05556107
endloop
endfacet
facet normal -52.77957535 24.41672516 21.86200142
outer loop
vertex -0.01480722 -30.81430435 54.05556107
vertex 5.39523029 -14.93510342 49.38176346
vertex -1.39157689 -30.81430435 50.73174286
endloop
endfacet
facet normal 6.57928848 -61.90496826 -2.72522855
outer loop
vertex -0.01480722 -30.81430435 54.05556107
vertex -1.39157689 -30.81430435 50.73174286
vertex 15.88233185 -28.83486748 47.47074890
endloop
endfacet
facet normal 0.32003203 -3.01120472 -0.13256264
outer loop
vertex 15.88233185 -28.83486748 47.47074890
vertex -1.39157689 -30.81430435 50.73174286
vertex 15.81536198 -28.83486748 47.30907059
endloop
endfacet
facet normal 38.76020432 31.45115089 -16.05500603
outer loop
vertex 17.03738785 -28.83486748 50.25930023
vertex 15.88233185 -28.83486748 47.47074890
vertex 7.69604111 -14.93510342 54.93641281
endloop
endfacet
facet normal 48.34407806 39.22778320 -20.02477455
outer loop
vertex 7.69604111 -14.93510342 54.93641281
vertex 15.88233185 -28.83486748 47.47074890
vertex 6.25538540 -14.93510342 51.45836258
endloop
endfacet
facet normal -55.22865677 25.54971313 22.87646103
outer loop
vertex 7.69604111 -14.93510342 54.93641281
vertex 6.25538540 -14.93510342 51.45836258
vertex -0.32317922 -30.81430435 53.31108475
endloop
endfacet
facet normal 11.82168865 -5.46891308 -4.89670086
outer loop
vertex -0.32317922 -30.81430435 53.31108475
vertex 6.25538540 -14.93510342 51.45836258
vertex -0.01480722 -30.81430435 54.05556107
endloop
endfacet
facet normal -1.47364390 13.86561584 0.61040288
outer loop
vertex -0.32317922 -30.81430435 53.31108475
vertex -0.01480722 -30.81430435 54.05556107
vertex 17.03738785 -28.83486748 50.25930023
endloop
endfacet
facet normal 5.51976156 -51.93581390 -2.28636050
outer loop
vertex 17.03738785 -28.83486748 50.25930023
vertex -0.01480722 -30.81430435 54.05556107
vertex 15.88233185 -28.83486748 47.47074890
endloop
endfacet
facet normal 41.75994873 24.53232002 10.30627060
outer loop
vertex 17.02366638 -29.91980362 52.89740372
vertex 17.03738785 -28.83486748 50.25930023
vertex 7.69530106 -16.39430809 58.49984741
endloop
endfacet
facet normal 56.35576630 33.28381729 13.64122391
outer loop
vertex 7.69530106 -16.39430809 58.49984741
vertex 17.03738785 -28.83486748 50.25930023
vertex 7.69604111 -14.93510342 54.93641281
endloop
endfacet
facet normal -58.89902115 28.50983047 11.66236973
outer loop
vertex 7.69530106 -16.39430809 58.49984741
vertex 7.69604111 -14.93510342 54.93641281
vertex -0.30414391 -30.52603531 52.64629364
endloop
endfacet
facet normal 11.02488327 -5.36204481 -2.00942755
outer loop
vertex -0.30414391 -30.52603531 52.64629364
vertex 7.69604111 -14.93510342 54.93641281
vertex -0.32317922 -30.81430435 53.31108475
endloop
endfacet
facet normal -0.47540468 11.52415371 4.98353148
outer loop
vertex -0.30414391 -30.52603531 52.64629364
vertex -0.32317922 -30.81430435 53.31108475
vertex 17.02366638 -29.91980362 52.89740372
endloop
endfacet
facet normal 1.91096807 -45.75709915 -18.80794525
outer loop
vertex 17.02366638 -29.91980362 52.89740372
vertex -0.32317922 -30.81430435 53.31108475
vertex 17.03738785 -28.83486748 50.25930023
endloop
endfacet
facet normal 16.81895447 9.90106869 4.10115862
outer loop
vertex 17.02366638 -30.35944748 53.95879745
vertex 17.02366638 -29.91980362 52.89740372
vertex 7.69530106 -16.45037842 58.63521194
endloop
endfacet
facet normal 2.14500332 1.26272976 0.52304453
outer loop
vertex 7.69530106 -16.45037842 58.63521194
vertex 17.02366638 -29.91980362 52.89740372
vertex 7.69530106 -16.39430809 58.49984741
endloop
endfacet
facet normal -2.24114323 1.08284116 0.44853151
outer loop
vertex 7.69530106 -16.45037842 58.63521194
vertex 7.69530106 -16.39430809 58.49984741
vertex -0.30414408 -32.33168793 57.00552368
endloop
endfacet
facet normal -72.17293549 34.87142181 14.44421577
outer loop
vertex -0.30414408 -32.33168793 57.00552368
vertex 7.69530106 -16.39430809 58.49984741
vertex -0.30414391 -30.52603531 52.64629364
endloop
endfacet
facet normal 3.09612083 -75.53591156 -31.28800583
outer loop
vertex -0.30414408 -32.33168793 57.00552368
vertex -0.30414391 -30.52603531 52.64629364
vertex 17.02366638 -30.35944748 53.95879745
endloop
endfacet
facet normal 0.75384951 -18.39163017 -7.61806536
outer loop
vertex 17.02366638 -30.35944748 53.95879745
vertex -0.30414391 -30.52603531 52.64629364
vertex 17.02366638 -29.91980362 52.89740372
endloop
endfacet
facet normal 12.57592583 10.24583435 -5.35332155
outer loop
vertex 17.41306686 -30.36560249 54.86178970
vertex 17.02366638 -30.35944748 53.95879745
vertex 7.78611946 -16.46583557 58.84939575
endloop
endfacet
facet normal 3.05138135 2.42268944 -1.11900949
outer loop
vertex 7.78611946 -16.46583557 58.84939575
vertex 17.02366638 -30.35944748 53.95879745
vertex 7.69530106 -16.45037842 58.63521194
endloop
endfacet
facet normal -3.36092281 1.57884765 1.53904331
outer loop
vertex 7.78611946 -16.46583557 58.84939575
vertex 7.69530106 -16.45037842 58.63521194
vertex 1.51592636 -32.34503937 61.44659805
endloop
endfacet
facet normal -70.55183411 32.55998230 29.01190758
outer loop
vertex 1.51592636 -32.34503937 61.44659805
vertex 7.69530106 -16.45037842 58.63521194
vertex -0.30414408 -32.33168793 57.00552368
endloop
endfacet
facet normal 8.70291042 -82.58519745 -3.81496453
outer loop
vertex 1.51592636 -32.34503937 61.44659805
vertex -0.30414408 -32.33168793 57.00552368
vertex 17.41306686 -30.36560249 54.86178970
endloop
endfacet
facet normal 1.76216519 -16.83327484 -0.87464428
outer loop
vertex 17.41306686 -30.36560249 54.86178970
vertex -0.30414408 -32.33168793 57.00552368
vertex 17.02366638 -30.35944748 53.95879745
endloop
endfacet
facet normal 38.76016235 31.45110321 -16.05498314
outer loop
vertex 18.56812096 -30.36560249 57.65033722
vertex 17.41306686 -30.36560249 54.86178970
vertex 9.22677612 -16.46583557 62.32744980
endloop
endfacet
facet normal 48.34413910 39.22781372 -20.02479172
outer loop
vertex 9.22677612 -16.46583557 62.32744980
vertex 17.41306686 -30.36560249 54.86178970
vertex 7.78611946 -16.46583557 58.84939575
endloop
endfacet
facet normal -55.22872925 25.54974937 22.87648010
outer loop
vertex 9.22677612 -16.46583557 62.32744980
vertex 7.78611946 -16.46583557 58.84939575
vertex 1.20755422 -32.34503937 60.70212173
endloop
endfacet
facet normal 11.82169151 -5.46891499 -4.89670420
outer loop
vertex 1.20755422 -32.34503937 60.70212173
vertex 7.78611946 -16.46583557 58.84939575
vertex 1.51592636 -32.34503937 61.44659805
endloop
endfacet
facet normal -1.47364390 13.86561584 0.61040318
outer loop
vertex 1.20755422 -32.34503937 60.70212173
vertex 1.51592636 -32.34503937 61.44659805
vertex 18.56812096 -30.36560249 57.65033722
endloop
endfacet
facet normal 5.51975393 -51.93574142 -2.28635669
outer loop
vertex 18.56812096 -30.36560249 57.65033722
vertex 1.51592636 -32.34503937 61.44659805
vertex 17.41306686 -30.36560249 54.86178970
endloop
endfacet
facet normal 41.75994873 24.53231430 10.30626869
outer loop
vertex 18.55439949 -31.45053864 60.28844070
vertex 18.56812096 -30.36560249 57.65033722
vertex 9.22603607 -17.92504311 65.89088440
endloop
endfacet
facet normal 56.35578918 33.28380966 13.64124775
outer loop
vertex 9.22603607 -17.92504311 65.89088440
vertex 18.56812096 -30.36560249 57.65033722
vertex 9.22677612 -16.46583557 62.32744980
endloop
endfacet
facet normal -58.89903641 28.50983810 11.66239548
outer loop
vertex 9.22603607 -17.92504311 65.89088440
vertex 9.22677612 -16.46583557 62.32744980
vertex 1.22658920 -32.05677032 60.03733063
endloop
endfacet
facet normal 11.02488518 -5.36204576 -2.00943303
outer loop
vertex 1.22658920 -32.05677032 60.03733063
vertex 9.22677612 -16.46583557 62.32744980
vertex 1.20755422 -32.34503937 60.70212173
endloop
endfacet
facet normal -0.47540468 11.52415371 4.98353195
outer loop
vertex 1.22658920 -32.05677032 60.03733063
vertex 1.20755422 -32.34503937 60.70212173
vertex 18.55439949 -31.45053864 60.28844070
endloop
endfacet
facet normal 1.91096807 -45.75709915 -18.80794525
outer loop
vertex 18.55439949 -31.45053864 60.28844070
vertex 1.20755422 -32.34503937 60.70212173
vertex 18.56812096 -30.36560249 57.65033722
endloop
endfacet
facet normal 16.81895638 9.90106678 4.10115767
outer loop
vertex 18.55439949 -31.89018250 61.34983444
vertex 18.55439949 -31.45053864 60.28844070
vertex 9.22603607 -17.98111343 66.02625275
endloop
endfacet
facet normal 2.14505482 1.26276517 0.52304441
outer loop
vertex 9.22603607 -17.98111343 66.02625275
vertex 18.55439949 -31.45053864 60.28844070
vertex 9.22603607 -17.92504311 65.89088440
endloop
endfacet
facet normal -2.24120378 1.08287191 0.44853160
outer loop
vertex 9.22603607 -17.98111343 66.02625275
vertex 9.22603607 -17.92504311 65.89088440
vertex 1.22658896 -33.86242294 64.39656067
endloop
endfacet
facet normal -72.17293549 34.87142944 14.44421864
outer loop
vertex 1.22658896 -33.86242294 64.39656067
vertex 9.22603607 -17.92504311 65.89088440
vertex 1.22658920 -32.05677032 60.03733063
endloop
endfacet
facet normal 3.09612083 -75.53591156 -31.28800583
outer loop
vertex 1.22658896 -33.86242294 64.39656067
vertex 1.22658920 -32.05677032 60.03733063
vertex 18.55439949 -31.89018250 61.34983444
endloop
endfacet
facet normal 0.75384951 -18.39163017 -7.61806536
outer loop
vertex 18.55439949 -31.89018250 61.34983444
vertex 1.22658920 -32.05677032 60.03733063
vertex 18.55439949 -31.45053864 60.28844070
endloop
endfacet
facet normal 12.57588196 10.24579048 -5.35327768
outer loop
vertex 18.94379807 -31.89633942 62.25282288
vertex 18.55439949 -31.89018250 61.34983444
vertex 9.31685162 -17.99657059 66.24043274
endloop
endfacet
facet normal 3.05132842 2.42264032 -1.11896980
outer loop
vertex 9.31685162 -17.99657059 66.24043274
vertex 18.55439949 -31.89018250 61.34983444
vertex 9.22603607 -17.98111343 66.02625275
endloop
endfacet
facet normal -3.36086154 1.57881534 1.53899753
outer loop
vertex 9.31685162 -17.99657059 66.24043274
vertex 9.22603607 -17.98111343 66.02625275
vertex 3.04666090 -33.87577057 68.83763123
endloop
endfacet
facet normal -70.55176544 32.55995178 29.01189804
outer loop
vertex 3.04666090 -33.87577057 68.83763123
vertex 9.22603607 -17.98111343 66.02625275
vertex 1.22658896 -33.86242294 64.39656067
endloop
endfacet
facet normal 8.70290184 -82.58512878 -3.81489611
outer loop
vertex 3.04666090 -33.87577057 68.83763123
vertex 1.22658896 -33.86242294 64.39656067
vertex 18.94379807 -31.89633942 62.25282288
endloop
endfacet
facet normal 1.76215184 -16.83320427 -0.87467360
outer loop
vertex 18.94379807 -31.89633942 62.25282288
vertex 1.22658896 -33.86242294 64.39656067
vertex 18.55439949 -31.89018250 61.34983444
endloop
endfacet
facet normal 15.52313328 12.59592438 -6.42991018
outer loop
vertex 19.40638924 -31.89633942 63.36961365
vertex 18.94379807 -31.89633942 62.25282288
vertex 10.83749962 -17.99657059 69.91160583
endloop
endfacet
facet normal 51.02845764 41.40593719 -21.13665581
outer loop
vertex 10.83749962 -17.99657059 69.91160583
vertex 18.94379807 -31.89633942 62.25282288
vertex 9.31685162 -17.99657059 66.24043274
endloop
endfacet
facet normal -58.29529190 26.96837616 24.14667320
outer loop
vertex 10.83749962 -17.99657059 69.91160583
vertex 9.31685162 -17.99657059 66.24043274
vertex 3.35857677 -33.87577057 69.59066010
endloop
endfacet
facet normal -11.95749569 5.53174210 4.95297432
outer loop
vertex 3.35857677 -33.87577057 69.59066010
vertex 9.31685162 -17.99657059 66.24043274
vertex 3.04666090 -33.87577057 68.83763123
endloop
endfacet
facet normal 1.49056876 -14.02490997 -0.61741602
outer loop
vertex 3.35857677 -33.87577057 69.59066010
vertex 3.04666090 -33.87577057 68.83763123
vertex 19.40638924 -31.89633942 63.36961365
endloop
endfacet
facet normal 2.21061039 -20.79985046 -0.91566736
outer loop
vertex 19.40638924 -31.89633942 63.36961365
vertex 3.04666090 -33.87577057 68.83763123
vertex 18.94379807 -31.89633942 62.25282288
endloop
endfacet
facet normal 17.36780930 11.63714218 -1.97657394
outer loop
vertex 19.83376694 -32.35892868 64.40139771
vertex 19.40638924 -31.89633942 63.36961365
vertex 12.24239349 -19.51721573 73.30332184
endloop
endfacet
facet normal 57.09211731 38.25404358 -6.49746037
outer loop
vertex 12.24239349 -19.51721573 73.30332184
vertex 19.40638924 -31.89633942 63.36961365
vertex 10.83749962 -17.99657059 69.91160583
endloop
endfacet
facet normal -54.34578705 24.91548729 33.68138123
outer loop
vertex 12.24239349 -19.51721573 73.30332184
vertex 10.83749962 -17.99657059 69.91160583
vertex 3.64674854 -34.18768692 70.28636932
endloop
endfacet
facet normal -11.14741421 5.11066818 6.90873528
outer loop
vertex 3.64674854 -34.18768692 70.28636932
vertex 10.83749962 -17.99657059 69.91160583
vertex 3.35857677 -33.87577057 69.59066010
endloop
endfacet
facet normal -0.56333482 -12.95734119 -5.57599258
outer loop
vertex 3.64674854 -34.18768692 70.28636932
vertex 3.35857677 -33.87577057 69.59066010
vertex 19.83376694 -32.35892868 64.40139771
endloop
endfacet
facet normal -0.83544374 -19.21661377 -8.26951027
outer loop
vertex 19.83376694 -32.35892868 64.40139771
vertex 3.35857677 -33.87577057 69.59066010
vertex 19.40638924 -31.89633942 63.36961365
endloop
endfacet
facet normal 52.49647522 35.17477036 -5.97443199
outer loop
vertex 21.12557411 -33.75717163 67.52009583
vertex 19.83376694 -32.35892868 64.40139771
vertex 12.89305305 -20.22148514 74.87415314
endloop
endfacet
facet normal 26.44151688 17.71688843 -3.00921106
outer loop
vertex 12.89305305 -20.22148514 74.87415314
vertex 19.83376694 -32.35892868 64.40139771
vertex 12.24239349 -19.51721573 73.30332184
endloop
endfacet
facet normal -25.16957855 11.53930092 15.59913158
outer loop
vertex 12.89305305 -20.22148514 74.87415314
vertex 12.24239349 -19.51721573 73.30332184
vertex 3.81893730 -34.37406158 70.70207214
endloop
endfacet
facet normal -6.66083956 3.05374837 4.12810040
outer loop
vertex 3.81893730 -34.37406158 70.70207214
vertex 12.24239349 -19.51721573 73.30332184
vertex 3.64674854 -34.18768692 70.28636932
endloop
endfacet
facet normal -0.33659685 -7.74231863 -3.33174014
outer loop
vertex 3.81893730 -34.37406158 70.70207214
vertex 3.64674854 -34.18768692 70.28636932
vertex 21.12557411 -33.75717163 67.52009583
endloop
endfacet
facet normal -2.52527523 -58.08467102 -24.99578667
outer loop
vertex 21.12557411 -33.75717163 67.52009583
vertex 3.64674854 -34.18768692 70.28636932
vertex 19.83376694 -32.35892868 64.40139771
endloop
endfacet
facet normal 54.98004150 27.24579048 11.38117027
outer loop
vertex 21.11687279 -35.12612534 70.83931732
vertex 21.12557411 -33.75717163 67.52009583
vertex 12.89302254 -20.97883987 76.69931793
endloop
endfacet
facet normal 30.27448845 15.02548313 6.23535204
outer loop
vertex 12.89302254 -20.97883987 76.69931793
vertex 21.12557411 -33.75717163 67.52009583
vertex 12.89305305 -20.22148514 74.87415314
endloop
endfacet
facet normal -29.00039482 16.57998276 6.87940264
outer loop
vertex 12.89302254 -20.97883987 76.69931793
vertex 12.89305305 -20.22148514 74.87415314
vertex 3.80901432 -34.53757477 71.08309937
endloop
endfacet
facet normal -6.07470703 3.49888468 1.34330189
outer loop
vertex 3.80901432 -34.53757477 71.08309937
vertex 12.89305305 -20.22148514 74.87415314
vertex 3.81893730 -34.37406158 70.70207214
endloop
endfacet
facet normal -0.26411536 -6.59234571 -2.83590293
outer loop
vertex 3.80901432 -34.53757477 71.08309937
vertex 3.81893730 -34.37406158 70.70207214
vertex 21.11687279 -35.12612534 70.83931732
endloop
endfacet
facet normal -2.30838394 -57.41687393 -23.68661690
outer loop
vertex 21.11687279 -35.12612534 70.83931732
vertex 3.81893730 -34.37406158 70.70207214
vertex 21.12557411 -33.75717163 67.52009583
endloop
endfacet
facet normal 20.74047089 10.29085541 4.26260233
outer loop
vertex 21.11687279 -35.64444733 72.09066010
vertex 21.11687279 -35.12612534 70.83931732
vertex 12.89302254 -20.97940826 76.70069122
endloop
endfacet
facet normal 0.02275911 0.01129374 0.00467435
outer loop
vertex 12.89302254 -20.97940826 76.70069122
vertex 21.11687279 -35.12612534 70.83931732
vertex 12.89302254 -20.97883987 76.69931793
endloop
endfacet
facet normal -0.02181421 0.01247499 0.00516326
outer loop
vertex 12.89302254 -20.97940826 76.70069122
vertex 12.89302254 -20.97883987 76.69931793
vertex 3.80901408 -36.32387543 75.39561462
endloop
endfacet
facet normal -68.50450134 39.17492294 16.22676659
outer loop
vertex 3.80901408 -36.32387543 75.39561462
vertex 12.89302254 -20.97883987 76.69931793
vertex 3.80901432 -34.53757477 71.08309937
endloop
endfacet
facet normal -2.97359872 -74.64041138 -30.91703987
outer loop
vertex 3.80901408 -36.32387543 75.39561462
vertex 3.80901432 -34.53757477 71.08309937
vertex 21.11687279 -35.64444733 72.09066010
endloop
endfacet
facet normal -0.86283612 -21.65806198 -8.97104359
outer loop
vertex 21.11687279 -35.64444733 72.09066010
vertex 3.80901432 -34.53757477 71.08309937
vertex 21.11687279 -35.12612534 70.83931732
endloop
endfacet
facet normal 16.06198692 11.14469910 -6.76497126
outer loop
vertex 21.58178520 -35.65007401 73.18522644
vertex 21.11687279 -35.64444733 72.09066010
vertex 12.92328072 -20.99421692 76.77169037
endloop
endfacet
facet normal 1.10947359 0.72337753 -0.32195321
outer loop
vertex 12.92328072 -20.99421692 76.77169037
vertex 21.11687279 -35.64444733 72.09066010
vertex 12.89302254 -20.97940826 76.70069122
endloop
endfacet
facet normal -1.04448318 0.61081994 0.57253617
outer loop
vertex 12.92328072 -20.99421692 76.77169037
vertex 12.89302254 -20.97940826 76.70069122
vertex 5.61091614 -36.33717346 79.80056763
endloop
endfacet
facet normal -67.60900879 37.66300964 27.77002716
outer loop
vertex 5.61091614 -36.33717346 79.80056763
vertex 12.89302254 -20.97940826 76.70069122
vertex 3.80901408 -36.32387543 75.39561462
endloop
endfacet
facet normal 2.93866992 -82.27112579 -1.45046699
outer loop
vertex 5.61091614 -36.33717346 79.80056763
vertex 3.80901408 -36.32387543 75.39561462
vertex 21.58178520 -35.65007401 73.18522644
endloop
endfacet
facet normal 0.72508317 -20.48111534 -0.41326031
outer loop
vertex 21.58178520 -35.65007401 73.18522644
vertex 3.80901408 -36.32387543 75.39561462
vertex 21.11687279 -35.64444733 72.09066010
endloop
endfacet
facet normal 3.26433635 2.25942183 -1.35215461
outer loop
vertex 21.67404556 -35.65007401 73.40795898
vertex 21.58178520 -35.65007401 73.18522644
vertex 13.72893620 -20.99421692 78.71671295
endloop
endfacet
facet normal 28.50597382 19.73044205 -11.80757141
outer loop
vertex 13.72893620 -20.99421692 78.71671295
vertex 21.58178520 -35.65007401 73.18522644
vertex 12.92328072 -20.99421692 76.77169037
endloop
endfacet
facet normal -29.84239769 16.66294670 12.36113739
outer loop
vertex 13.72893620 -20.99421692 78.71671295
vertex 12.92328072 -20.99421692 76.77169037
vertex 7.01905441 -36.33717346 83.20011139
endloop
endfacet
facet normal -52.15905380 29.12378311 21.60500526
outer loop
vertex 7.01905441 -36.33717346 83.20011139
vertex 12.92328072 -20.99421692 76.77169037
vertex 5.61091614 -36.33717346 79.80056763
endloop
endfacet
facet normal 2.33582473 -63.60898590 -0.96753103
outer loop
vertex 7.01905441 -36.33717346 83.20011139
vertex 5.61091614 -36.33717346 79.80056763
vertex 21.67404556 -35.65007401 73.40795898
endloop
endfacet
facet normal 0.15303941 -4.16756630 -0.06339204
outer loop
vertex 21.67404556 -35.65007401 73.40795898
vertex 5.61091614 -36.33717346 79.80056763
vertex 21.58178520 -35.65007401 73.18522644
endloop
endfacet
facet normal 2.49851322 2.25947690 -2.49845743
outer loop
vertex 21.84452057 -35.65007401 73.57843781
vertex 21.67404556 -35.65007401 73.40795898
vertex 15.21759224 -20.99421692 80.20536804
endloop
endfacet
facet normal 21.81751633 19.73043633 -21.81752968
outer loop
vertex 15.21759224 -20.99421692 80.20536804
vertex 21.67404556 -35.65007401 73.40795898
vertex 13.72893620 -20.99421692 78.71671295
endloop
endfacet
facet normal -22.84037590 16.66294479 22.84039116
outer loop
vertex 15.21759224 -20.99421692 80.20536804
vertex 13.72893620 -20.99421692 78.71671295
vertex 9.62094975 -36.33717728 85.80200958
endloop
endfacet
facet normal -39.92079544 29.12376213 39.92079163
outer loop
vertex 9.62094975 -36.33717728 85.80200958
vertex 13.72893620 -20.99421692 78.71671295
vertex 7.01905441 -36.33717346 83.20011139
endloop
endfacet
facet normal 1.78772616 -63.60894012 -1.78781736
outer loop
vertex 9.62094975 -36.33717728 85.80200958
vertex 7.01905441 -36.33717346 83.20011139
vertex 21.84452057 -35.65007401 73.57843781
endloop
endfacet
facet normal 0.11713590 -4.16768265 -0.11713328
outer loop
vertex 21.84452057 -35.65007401 73.57843781
vertex 7.01905441 -36.33717346 83.20011139
vertex 21.67404556 -35.65007401 73.40795898
endloop
endfacet
facet normal 29.13963127 26.35207748 -29.13960266
outer loop
vertex 23.83277702 -35.65007401 75.56669617
vertex 21.84452057 -35.65007401 73.57843781
vertex 17.98943520 -20.99421692 82.97721100
endloop
endfacet
facet normal 40.62373352 36.73761368 -40.62373352
outer loop
vertex 17.98943520 -20.99421692 82.97721100
vertex 21.84452057 -35.65007401 73.57843781
vertex 15.21759224 -20.99421692 80.20536804
endloop
endfacet
facet normal -42.52827835 31.02601433 42.52827835
outer loop
vertex 17.98943520 -20.99421692 82.97721100
vertex 15.21759224 -20.99421692 80.20536804
vertex 9.07925129 -36.33717728 85.26030731
endloop
endfacet
facet normal 8.31131649 -6.06340599 -8.31125832
outer loop
vertex 9.07925129 -36.33717728 85.26030731
vertex 15.21759224 -20.99421692 80.20536804
vertex 9.62094975 -36.33717728 85.80200958
endloop
endfacet
facet normal -0.37220541 13.24303246 0.37220278
outer loop
vertex 9.07925129 -36.33717728 85.26030731
vertex 9.62094975 -36.33717728 85.80200958
vertex 23.83277702 -35.65007401 75.56669617
endloop
endfacet
facet normal 1.36613882 -48.60721207 -1.36613750
outer loop
vertex 23.83277702 -35.65007401 75.56669617
vertex 9.62094975 -36.33717728 85.80200958
vertex 21.84452057 -35.65007401 73.57843781
endloop
endfacet
facet normal 40.66222000 20.06676102 -7.72462702
outer loop
vertex 24.75990105 -36.65686035 77.83165741
vertex 23.83277702 -35.65007401 75.56669617
vertex 19.40458107 -22.50957298 86.39272308
endloop
endfacet
facet normal 61.28682327 30.44496346 -11.88543224
outer loop
vertex 19.40458107 -22.50957298 86.39272308
vertex 23.83277702 -35.65007401 75.56669617
vertex 17.98943520 -20.99421692 82.97721100
endloop
endfacet
facet normal -48.90495300 33.58221054 35.16212082
outer loop
vertex 19.40458107 -22.50957298 86.39272308
vertex 17.98943520 -20.99421692 82.97721100
vertex 8.86281776 -36.06831360 84.68031311
endloop
endfacet
facet normal 8.28498650 -5.66199350 -5.71635580
outer loop
vertex 8.86281776 -36.06831360 84.68031311
vertex 17.98943520 -20.99421692 82.97721100
vertex 9.07925129 -36.33717728 85.26030731
endloop
endfacet
facet normal 2.18270850 10.70249462 4.14676714
outer loop
vertex 8.86281776 -36.06831360 84.68031311
vertex 9.07925129 -36.33717728 85.26030731
vertex 24.75990105 -36.65686035 77.83165741
endloop
endfacet
facet normal -8.20313358 -42.40334320 -15.49067879
outer loop
vertex 24.75990105 -36.65686035 77.83165741
vertex 9.07925129 -36.33717728 85.26030731
vertex 23.83277702 -35.65007401 75.56669617
endloop
endfacet
facet normal 53.96674347 26.70925713 -10.37888908
outer loop
vertex 26.00277328 -38.00213623 80.83221436
vertex 24.75990105 -36.65686035 77.83165741
vertex 20.15204620 -23.31862259 88.19726562
endloop
endfacet
facet normal 32.45571136 16.06299973 -6.24188423
outer loop
vertex 20.15204620 -23.31862259 88.19726562
vertex 24.75990105 -36.65686035 77.83165741
vertex 19.40458107 -22.50957298 86.39272308
endloop
endfacet
facet normal -25.85275269 17.74308968 18.66349602
outer loop
vertex 20.15204620 -23.31862259 88.19726562
vertex 19.40458107 -22.50957298 86.39272308
vertex 8.98592186 -36.20156097 84.97750854
endloop
endfacet
facet normal -4.25777006 2.92215919 3.07379889
outer loop
vertex 8.98592186 -36.20156097 84.97750854
vertex 19.40458107 -22.50957298 86.39272308
vertex 8.86281776 -36.06831360 84.68031311
endloop
endfacet
facet normal -1.08747232 -5.56763315 -2.04579258
outer loop
vertex 8.98592186 -36.20156097 84.97750854
vertex 8.86281776 -36.06831360 84.68031311
vertex 26.00277328 -38.00213623 80.83221436
endloop
endfacet
facet normal -10.97929955 -56.21210861 -20.65447426
outer loop
vertex 26.00277328 -38.00213623 80.83221436
vertex 8.86281776 -36.06831360 84.68031311
vertex 24.75990105 -36.65686035 77.83165741
endloop
endfacet
facet normal 56.25544739 18.49629974 7.77212811
outer loop
vertex 25.99375534 -39.30932617 84.00836945
vertex 26.00277328 -38.00213623 80.83221436
vertex 20.15247154 -24.17717361 90.27630615
endloop
endfacet
facet normal 36.85089111 12.16703129 5.01690197
outer loop
vertex 20.15247154 -24.17717361 90.27630615
vertex 26.00277328 -38.00213623 80.83221436
vertex 20.15204620 -23.31862259 88.19726562
endloop
endfacet
facet normal -29.55593872 23.23147583 9.59960938
outer loop
vertex 20.15247154 -24.17717361 90.27630615
vertex 20.15204620 -23.31862259 88.19726562
vertex 8.97731018 -36.31681061 85.24790192
endloop
endfacet
facet normal -3.85453701 3.04697347 1.17594802
outer loop
vertex 8.97731018 -36.31681061 85.24790192
vertex 20.15204620 -23.31862259 88.19726562
vertex 8.98592186 -36.20156097 84.97750854
endloop
endfacet
facet normal -0.95201200 -4.59045935 -1.98690963
outer loop
vertex 8.97731018 -36.31681061 85.24790192
vertex 8.98592186 -36.20156097 84.97750854
vertex 25.99375534 -39.30932617 84.00836945
endloop
endfacet
facet normal -11.13759327 -54.01077652 -22.26049614
outer loop
vertex 25.99375534 -39.30932617 84.00836945
vertex 8.98592186 -36.20156097 84.97750854
vertex 26.00277328 -38.00213623 80.83221436
endloop
endfacet
facet normal 54.03261185 17.80305481 7.37424660
outer loop
vertex 25.99375534 -40.57176208 87.05616760
vertex 25.99375534 -39.30932617 84.00836945
vertex 20.15247154 -24.19284248 90.31413269
endloop
endfacet
facet normal 0.67060840 0.22095555 0.09152631
outer loop
vertex 20.15247154 -24.19284248 90.31413269
vertex 25.99375534 -39.30932617 84.00836945
vertex 20.15247154 -24.17717361 90.27630615
endloop
endfacet
facet normal -0.53798836 0.42271766 0.17510214
outer loop
vertex 20.15247154 -24.19284248 90.31413269
vertex 20.15247154 -24.17717361 90.27630615
vertex 8.97731018 -37.33269119 87.70045471
endloop
endfacet
facet normal -34.88135910 27.40767288 11.35262966
outer loop
vertex 8.97731018 -37.33269119 87.70045471
vertex 20.15247154 -24.17717361 90.27630615
vertex 8.97731018 -36.31681061 85.24790192
endloop
endfacet
facet normal -8.59851074 -41.73373032 -17.28667641
outer loop
vertex 8.97731018 -37.33269119 87.70045471
vertex 8.97731018 -36.31681061 85.24790192
vertex 25.99375534 -40.57176208 87.05616760
endloop
endfacet
facet normal -10.68541336 -51.86268997 -21.48217201
outer loop
vertex 25.99375534 -40.57176208 87.05616760
vertex 8.97731018 -36.31681061 85.24790192
vertex 25.99375534 -39.30932617 84.00836945
endloop
endfacet
facet normal 54.03261566 19.26988220 0.00000000
outer loop
vertex 25.99375534 -40.57176208 90.35507965
vertex 25.99375534 -40.57176208 87.05616760
vertex 20.15247154 -24.19284248 90.35507965
endloop
endfacet
facet normal 0.67066699 0.23918281 0.00000000
outer loop
vertex 20.15247154 -24.19284248 90.35507965
vertex 25.99375534 -40.57176208 87.05616760
vertex 20.15247154 -24.19284248 90.31413269
endloop
endfacet
facet normal -0.53803688 0.45758882 0.00000000
outer loop
vertex 20.15247154 -24.19284248 90.35507965
vertex 20.15247154 -24.19284248 90.31413269
vertex 8.97731209 -37.33269119 90.35507965
endloop
endfacet
facet normal -34.88137054 29.66585732 0.00002506
outer loop
vertex 8.97731209 -37.33269119 90.35507965
vertex 20.15247154 -24.19284248 90.31413269
vertex 8.97731018 -37.33269119 87.70045471
endloop
endfacet
facet normal -8.59851837 -45.17227554 0.00000618
outer loop
vertex 8.97731209 -37.33269119 90.35507965
vertex 8.97731018 -37.33269119 87.70045471
vertex 25.99375534 -40.57176208 90.35507965
endloop
endfacet
facet normal -10.68540955 -56.13575745 -0.00000000
outer loop
vertex 25.99375534 -40.57176208 90.35507965
vertex 8.97731018 -37.33269119 87.70045471
vertex 25.99375534 -40.57176208 87.05616760
endloop
endfacet
facet normal 8.08361721 2.88289499 0.00000000
outer loop
vertex 25.99375534 -40.57176208 90.84861755
vertex 25.99375534 -40.57176208 90.35507965
vertex 20.15247154 -24.19284248 92.01052094
endloop
endfacet
facet normal 27.11433983 9.66990280 0.00000000
outer loop
vertex 20.15247154 -24.19284248 92.01052094
vertex 25.99375534 -40.57176208 90.35507965
vertex 20.15247154 -24.19284248 90.35507965
endloop
endfacet
facet normal -21.75224876 18.49982071 0.00000000
outer loop
vertex 20.15247154 -24.19284248 92.01052094
vertex 20.15247154 -24.19284248 90.35507965
vertex 8.97731209 -37.33269119 94.23339844
endloop
endfacet
facet normal -50.96052170 43.34083176 0.00000000
outer loop
vertex 8.97731209 -37.33269119 94.23339844
vertex 20.15247154 -24.19284248 90.35507965
vertex 8.97731209 -37.33269119 90.35507965
endloop
endfacet
facet normal -12.56214905 -65.99519348 -0.00000000
outer loop
vertex 8.97731209 -37.33269119 94.23339844
vertex 8.97731209 -37.33269119 90.35507965
vertex 25.99375534 -40.57176208 90.84861755
endloop
endfacet
facet normal -1.59860420 -8.39826012 -0.00000000
outer loop
vertex 25.99375534 -40.57176208 90.84861755
vertex 8.97731209 -37.33269119 90.35507965
vertex 25.99375534 -40.57176208 90.35507965
endloop
endfacet
facet normal 7.46818352 2.88286352 -3.09347796
outer loop
vertex 26.18262482 -40.57176208 91.30458069
vertex 25.99375534 -40.57176208 90.84861755
vertex 20.78598022 -24.19284248 93.53994751
endloop
endfacet
facet normal 25.05035400 9.66989040 -10.37618732
outer loop
vertex 20.78598022 -24.19284248 93.53994751
vertex 25.99375534 -40.57176208 90.84861755
vertex 20.15247154 -24.19284248 92.01052094
endloop
endfacet
facet normal -20.09643364 18.49979401 8.32420826
outer loop
vertex 20.78598022 -24.19284248 93.53994751
vertex 20.15247154 -24.19284248 92.01052094
vertex 10.46148205 -37.33269119 97.81649780
endloop
endfacet
facet normal -47.08138275 43.34083557 19.50176811
outer loop
vertex 10.46148205 -37.33269119 97.81649780
vertex 20.15247154 -24.19284248 92.01052094
vertex 8.97731209 -37.33269119 94.23339844
endloop
endfacet
facet normal -11.60591316 -65.99520874 4.80733156
outer loop
vertex 10.46148205 -37.33269119 97.81649780
vertex 8.97731209 -37.33269119 94.23339844
vertex 26.18262482 -40.57176208 91.30458069
endloop
endfacet
facet normal -1.47689688 -8.39815235 0.61176163
outer loop
vertex 26.18262482 -40.57176208 91.30458069
vertex 8.97731209 -37.33269119 94.23339844
vertex 25.99375534 -40.57176208 90.84861755
endloop
endfacet
facet normal 33.01988220 12.74629688 -13.67732048
outer loop
vertex 27.01768112 -40.57176208 93.32057953
vertex 26.18262482 -40.57176208 91.30458069
vertex 22.44758987 -24.19284248 97.55142975
endloop
endfacet
facet normal 65.70374298 25.36285019 -27.21537018
outer loop
vertex 22.44758987 -24.19284248 97.55142975
vertex 26.18262482 -40.57176208 91.30458069
vertex 20.78598022 -24.19284248 93.53994751
endloop
endfacet
facet normal -52.71026993 48.52249527 21.83329964
outer loop
vertex 22.44758987 -24.19284248 97.55142975
vertex 20.78598022 -24.19284248 93.53994751
vertex 10.25262547 -37.33269119 97.31227112
endloop
endfacet
facet normal 6.62546253 -6.09907341 -2.74434400
outer loop
vertex 10.25262547 -37.33269119 97.31227112
vertex 20.78598022 -24.19284248 93.53994751
vertex 10.46148205 -37.33269119 97.81649780
endloop
endfacet
facet normal 1.63322592 9.28707981 -0.67650127
outer loop
vertex 10.25262547 -37.33269119 97.31227112
vertex 10.46148205 -37.33269119 97.81649780
vertex 27.01768112 -40.57176208 93.32057953
endloop
endfacet
facet normal -6.52996302 -37.13162231 2.70480657
outer loop
vertex 27.01768112 -40.57176208 93.32057953
vertex 10.46148205 -37.33269119 97.81649780
vertex 26.18262482 -40.57176208 91.30458069
endloop
endfacet
facet normal 33.90827179 8.53058338 3.54872227
outer loop
vertex 27.01652527 -41.34495544 95.19026184
vertex 27.01768112 -40.57176208 93.32057953
vertex 22.44997597 -25.86137009 101.60377502
endloop
endfacet
facet normal 73.43232727 18.52968216 7.58624172
outer loop
vertex 22.44997597 -25.86137009 101.60377502
vertex 27.01768112 -40.57176208 93.32057953
vertex 22.44758987 -24.19284248 97.55142975
endloop
endfacet
facet normal -53.60884476 49.29933167 20.33025360
outer loop
vertex 22.44997597 -25.86137009 101.60377502
vertex 22.44758987 -24.19284248 97.55142975
vertex 10.28159046 -37.16297531 96.92250061
endloop
endfacet
facet normal 5.16211414 -4.76016474 -1.68908346
outer loop
vertex 10.28159046 -37.16297531 96.92250061
vertex 22.44758987 -24.19284248 97.55142975
vertex 10.25262547 -37.33269119 97.31227112
endloop
endfacet
facet normal 1.92400098 6.47261000 2.96131539
outer loop
vertex 10.28159046 -37.16297531 96.92250061
vertex 10.25262547 -37.33269119 97.31227112
vertex 27.01652527 -41.34495544 95.19026184
endloop
endfacet
facet normal -9.14238262 -31.34071541 -12.96637440
outer loop
vertex 27.01652527 -41.34495544 95.19026184
vertex 10.25262547 -37.33269119 97.31227112
vertex 27.01768112 -40.57176208 93.32057953
endloop
endfacet
facet normal 33.12911224 8.33982658 3.45447373
outer loop
vertex 27.01652527 -42.10142899 97.01654816
vertex 27.01652527 -41.34495544 95.19026184
vertex 22.44997597 -25.71416092 101.24838257
endloop
endfacet
facet normal -6.44687748 -1.62291718 -0.67223793
outer loop
vertex 22.44997597 -25.71416092 101.24838257
vertex 27.01652527 -41.34495544 95.19026184
vertex 22.44997597 -25.86137009 101.60377502
endloop
endfacet
facet normal 4.70562935 -4.32455254 -1.79129791
outer loop
vertex 22.44997597 -25.71416092 101.24838257
vertex 22.44997597 -25.86137009 101.60377502
vertex 10.28159046 -38.85359955 101.00402069
endloop
endfacet
facet normal -54.04200363 49.66550827 20.57216835
outer loop
vertex 10.28159046 -38.85359955 101.00402069
vertex 22.44997597 -25.86137009 101.60377502
vertex 10.28159046 -37.16297531 96.92250061
endloop
endfacet
facet normal -19.99739838 -68.30397797 -28.29248810
outer loop
vertex 10.28159046 -38.85359955 101.00402069
vertex 10.28159046 -37.16297531 96.92250061
vertex 27.01652527 -42.10142899 97.01654816
endloop
endfacet
facet normal -8.94788647 -30.56278419 -12.65953636
outer loop
vertex 27.01652527 -42.10142899 97.01654816
vertex 10.28159046 -37.16297531 96.92250061
vertex 27.01652527 -41.34495544 95.19026184
endloop
endfacet
facet normal 27.50373268 10.61902905 -11.40763283
outer loop
vertex 27.71335983 -42.10249710 98.69561768
vertex 27.01652527 -42.10142899 97.01654816
vertex 22.31671143 -25.72357750 100.93098450
endloop
endfacet
facet normal -5.16143799 -2.01336741 2.22684312
outer loop
vertex 22.31671143 -25.72357750 100.93098450
vertex 27.01652527 -42.10142899 97.01654816
vertex 22.44997597 -25.71416092 101.24838257
endloop
endfacet
facet normal 4.21083403 -3.84688783 -1.65385497
outer loop
vertex 22.31671143 -25.72357750 100.93098450
vertex 22.44997597 -25.71416092 101.24838257
vertex 11.99221420 -38.86343002 105.20753479
endloop
endfacet
facet normal -55.23421860 50.73197174 22.59625626
outer loop
vertex 11.99221420 -38.86343002 105.20753479
vertex 22.44997597 -25.71416092 101.24838257
vertex 10.28159046 -38.85359955 101.00402069
endloop
endfacet
facet normal -13.67947960 -77.22350311 5.38627863
outer loop
vertex 11.99221420 -38.86343002 105.20753479
vertex 10.28159046 -38.85359955 101.00402069
vertex 27.71335983 -42.10249710 98.69561768
endloop
endfacet
facet normal -5.45759058 -30.87772942 2.24532509
outer loop
vertex 27.71335983 -42.10249710 98.69561768
vertex 10.28159046 -38.85359955 101.00402069
vertex 27.01652527 -42.10142899 97.01654816
endloop
endfacet
facet normal 33.01988220 12.74629211 -13.67728901
outer loop
vertex 28.54841423 -42.10249710 100.71161652
vertex 27.71335983 -42.10249710 98.69561768
vertex 23.97832108 -25.72357750 104.94246674
endloop
endfacet
facet normal 65.70374298 25.36286545 -27.21537018
outer loop
vertex 23.97832108 -25.72357750 104.94246674
vertex 27.71335983 -42.10249710 98.69561768
vertex 22.31671143 -25.72357750 100.93098450
endloop
endfacet
facet normal -52.71028519 48.52249146 21.83330536
outer loop
vertex 23.97832108 -25.72357750 104.94246674
vertex 22.31671143 -25.72357750 100.93098450
vertex 11.78335762 -38.86343002 104.70330811
endloop
endfacet
facet normal 6.62546444 -6.09907293 -2.74434471
outer loop
vertex 11.78335762 -38.86343002 104.70330811
vertex 22.31671143 -25.72357750 100.93098450
vertex 11.99221420 -38.86343002 105.20753479
endloop
endfacet
facet normal 1.63322401 9.28707981 -0.67650050
outer loop
vertex 11.78335762 -38.86343002 104.70330811
vertex 11.99221420 -38.86343002 105.20753479
vertex 28.54841423 -42.10249710 100.71161652
endloop
endfacet
facet normal -6.52995539 -37.13161850 2.70479727
outer loop
vertex 28.54841423 -42.10249710 100.71161652
vertex 11.99221420 -38.86343002 105.20753479
vertex 27.71335983 -42.10249710 98.69561768
endloop
endfacet
facet normal 33.90841293 8.53063774 3.54871321
outer loop
vertex 28.54726028 -42.87569427 102.58130646
vertex 28.54841423 -42.10249710 100.71161652
vertex 23.98070717 -27.39210892 108.99481964
endloop
endfacet
facet normal 73.43246460 18.52972412 7.58626223
outer loop
vertex 23.98070717 -27.39210892 108.99481964
vertex 28.54841423 -42.10249710 100.71161652
vertex 23.97832108 -25.72357750 104.94246674
endloop
endfacet
facet normal -53.60895920 49.29941559 20.33029556
outer loop
vertex 23.98070717 -27.39210892 108.99481964
vertex 23.97832108 -25.72357750 104.94246674
vertex 11.81232357 -38.69371414 104.31353760
endloop
endfacet
facet normal 5.16211557 -4.76016474 -1.68907070
outer loop
vertex 11.81232357 -38.69371414 104.31353760
vertex 23.97832108 -25.72357750 104.94246674
vertex 11.78335762 -38.86343002 104.70330811
endloop
endfacet
facet normal 1.92399967 6.47260857 2.96131945
outer loop
vertex 11.81232357 -38.69371414 104.31353760
vertex 11.78335762 -38.86343002 104.70330811
vertex 28.54726028 -42.87569427 102.58130646
endloop
endfacet
facet normal -9.14241600 -31.34085083 -12.96643257
outer loop
vertex 28.54726028 -42.87569427 102.58130646
vertex 11.78335762 -38.86343002 104.70330811
vertex 28.54841423 -42.10249710 100.71161652
endloop
endfacet
facet normal 0.00005531 32.94828033 -79.54411316
outer loop
vertex 21.48172188 -36.33777618 105.28939819
vertex 23.98070717 -27.39210892 108.99481964
vertex 28.54726028 -42.87569427 102.58130646
endloop
endfacet
facet normal -0.00001907 33.39053726 -80.61177063
outer loop
vertex 21.48172188 -36.33777618 105.28939819
vertex 11.81232357 -38.69371414 104.31353760
vertex 23.98070717 -27.39210892 108.99481964
endloop
endfacet
facet normal 0.00000048 33.08059692 -79.86370850
outer loop
vertex 21.48172188 -36.33777618 105.28939819
vertex 28.54726028 -42.87569427 102.58130646
vertex 11.81232357 -38.69371414 104.31353760
endloop
endfacet
endsolid