solid (null).stl
facet normal 0.00000000 -0.00000000 21.65063477
outer loop
vertex 0.00000000 0.00000000 0.00000000
vertex 5.00000000 0.00000000 0.00000000
vertex -2.50000024 4.33012676 0.00000000
endloop
endfacet
facet normal 0.00000000 0.00000000 21.65063477
outer loop
vertex 0.00000000 0.00000000 0.00000000
vertex -2.50000024 4.33012676 0.00000000
vertex -2.49999952 -4.33012724 0.00000000
endloop
endfacet
facet normal -0.00000000 0.00000000 21.65063667
outer loop
vertex 0.00000000 0.00000000 0.00000000
vertex -2.49999952 -4.33012724 0.00000000
vertex 5.00000000 0.00000000 0.00000000
endloop
endfacet
facet normal 4.33012676 7.50000000 0.00000000
outer loop
vertex 5.00000000 0.00000000 1.00000000
vertex 5.00000000 0.00000000 0.00000000
vertex -2.50000024 4.33012676 1.00000000
endloop
endfacet
facet normal 4.33012676 7.50000000 0.00000000
outer loop
vertex -2.50000024 4.33012676 1.00000000
vertex 5.00000000 0.00000000 0.00000000
vertex -2.50000024 4.33012676 0.00000000
endloop
endfacet
facet normal -8.66025352 -0.00000072 -0.00000000
outer loop
vertex -2.50000024 4.33012676 1.00000000
vertex -2.50000024 4.33012676 0.00000000
vertex -2.49999952 -4.33012724 1.00000000
endloop
endfacet
facet normal -8.66025352 -0.00000072 -0.00000000
outer loop
vertex -2.49999952 -4.33012724 1.00000000
vertex -2.50000024 4.33012676 0.00000000
vertex -2.49999952 -4.33012724 0.00000000
endloop
endfacet
facet normal 4.33012724 -7.49999952 0.00000000
outer loop
vertex -2.49999952 -4.33012724 1.00000000
vertex -2.49999952 -4.33012724 0.00000000
vertex 5.00000000 0.00000000 1.00000000
endloop
endfacet
facet normal 4.33012724 -7.49999952 0.00000000
outer loop
vertex 5.00000000 0.00000000 1.00000000
vertex -2.49999952 -4.33012724 0.00000000
vertex 5.00000000 0.00000000 0.00000000
endloop
endfacet
facet normal 8.63670444 14.95921230 0.00000000
outer loop
vertex 5.00000000 0.00000000 2.99456167
vertex 5.00000000 0.00000000 1.00000000
vertex -2.50000024 4.33012676 2.38090897
endloop
endfacet
facet normal 5.97951078 10.35681725 0.00000000
outer loop
vertex -2.50000024 4.33012676 2.38090897
vertex 5.00000000 0.00000000 1.00000000
vertex -2.50000024 4.33012676 1.00000000
endloop
endfacet
facet normal -11.95902157 -0.00000099 -0.00000000
outer loop
vertex -2.50000024 4.33012676 2.38090897
vertex -2.50000024 4.33012676 1.00000000
vertex -2.49999952 -4.33012724 0.62452912
endloop
endfacet
facet normal 3.25167298 0.00000027 -0.00000000
outer loop
vertex -2.49999952 -4.33012724 0.62452912
vertex -2.50000024 4.33012676 1.00000000
vertex -2.49999952 -4.33012724 1.00000000
endloop
endfacet
facet normal -1.62583673 2.81603146 0.00000000
outer loop
vertex -2.49999952 -4.33012724 0.62452912
vertex -2.49999952 -4.33012724 1.00000000
vertex 5.00000000 0.00000000 2.99456167
endloop
endfacet
facet normal 8.63670540 -14.95921135 0.00000000
outer loop
vertex 5.00000000 0.00000000 2.99456167
vertex -2.49999952 -4.33012724 1.00000000
vertex 5.00000000 0.00000000 1.00000000
endloop
endfacet
facet normal 6.62965441 12.65490246 8.49316978
outer loop
vertex 4.30809641 -0.73329985 4.62727594
vertex 5.00000000 0.00000000 2.99456167
vertex -3.01493073 3.78061652 3.61775494
endloop
endfacet
facet normal 5.01849127 9.59233379 6.35104084
outer loop
vertex -3.01493073 3.78061652 3.61775494
vertex 5.00000000 0.00000000 2.99456167
vertex -2.50000024 4.33012676 2.38090897
endloop
endfacet
facet normal -11.67211437 0.90344685 -4.45801163
outer loop
vertex -3.01493073 3.78061652 3.61775494
vertex -2.50000024 4.33012676 2.38090897
vertex -2.36933017 -4.18793011 0.31254125
endloop
endfacet
facet normal 2.95164657 -0.22950481 1.13162994
outer loop
vertex -2.36933017 -4.18793011 0.31254125
vertex -2.50000024 4.33012676 2.38090897
vertex -2.49999952 -4.33012724 0.62452912
endloop
endfacet
facet normal -1.69134569 2.64707947 0.49809656
outer loop
vertex -2.36933017 -4.18793011 0.31254125
vertex -2.49999952 -4.33012724 0.62452912
vertex 4.30809641 -0.73329985 4.62727594
endloop
endfacet
facet normal 8.80780506 -13.88519001 -2.50371790
outer loop
vertex 4.30809641 -0.73329985 4.62727594
vertex -2.49999952 -4.33012724 0.62452912
vertex 5.00000000 0.00000000 2.99456167
endloop
endfacet
facet normal 0.29047954 0.55367780 0.36855635
outer loop
vertex 4.27847052 -0.76536685 4.69879961
vertex 4.30809641 -0.73329985 4.62727594
vertex -3.20989490 3.56958866 4.08844042
endloop
endfacet
facet normal 1.91159785 3.64366293 2.42541456
outer loop
vertex -3.20989490 3.56958866 4.08844042
vertex 4.30809641 -0.73329985 4.62727594
vertex -3.01493073 3.78061652 3.61775494
endloop
endfacet
facet normal -4.44817162 0.34052363 -1.68982053
outer loop
vertex -3.20989490 3.56958866 4.08844042
vertex -3.01493073 3.78061652 3.61775494
vertex -3.20593357 -5.09346342 2.33228087
endloop
endfacet
facet normal -19.08736992 1.46120799 -7.25112581
outer loop
vertex -3.20593357 -5.09346342 2.33228087
vertex -3.01493073 3.78061652 3.61775494
vertex -2.36933017 -4.18793011 0.31254125
endloop
endfacet
facet normal 10.88458920 -17.09638596 -3.15647697
outer loop
vertex -3.20593357 -5.09346342 2.33228087
vertex -2.36933017 -4.18793011 0.31254125
vertex 4.27847052 -0.76536685 4.69879961
endloop
endfacet
facet normal 0.38544843 -0.60542190 -0.11177853
outer loop
vertex 4.27847052 -0.76536685 4.69879961
vertex -2.36933017 -4.18793011 0.31254125
vertex 4.30809641 -0.73329985 4.62727594
endloop
endfacet
facet normal 0.03597028 0.06230235 -0.06245296
outer loop
vertex 4.29289341 -0.76536685 4.70710659
vertex 4.27847052 -0.76536685 4.69879961
vertex -3.20710707 3.56476021 4.70710659
endloop
endfacet
facet normal 2.67894340 4.63109684 0.02407211
outer loop
vertex -3.20710707 3.56476021 4.70710659
vertex 4.27847052 -0.76536685 4.69879961
vertex -3.20989490 3.56958866 4.08844042
endloop
endfacet
facet normal -5.35780668 -0.00000059 0.02414330
outer loop
vertex -3.20710707 3.56476021 4.70710659
vertex -3.20989490 3.56958866 4.08844042
vertex -3.20710611 -5.09549427 4.70710659
endloop
endfacet
facet normal -20.57680511 -0.00734828 -0.01016584
outer loop
vertex -3.20710611 -5.09549427 4.70710659
vertex -3.20989490 3.56958866 4.08844042
vertex -3.20593357 -5.09346342 2.33228087
endloop
endfacet
facet normal 10.28329754 -17.81119156 -0.01015411
outer loop
vertex -3.20710611 -5.09549427 4.70710659
vertex -3.20593357 -5.09346342 2.33228087
vertex 4.29289341 -0.76536685 4.70710659
endloop
endfacet
facet normal 0.03595341 -0.02804075 -0.06242367
outer loop
vertex 4.29289341 -0.76536685 4.70710659
vertex -3.20593357 -5.09346342 2.33228087
vertex 4.27847052 -0.76536685 4.69879961
endloop
endfacet
facet normal 8.63670540 14.95921326 0.00000000
outer loop
vertex 4.29289341 -0.76536685 6.70166826
vertex 4.29289341 -0.76536685 4.70710659
vertex -3.20710707 3.56476021 6.08801556
endloop
endfacet
facet normal 5.97951174 10.35681820 0.00000000
outer loop
vertex -3.20710707 3.56476021 6.08801556
vertex 4.29289341 -0.76536685 4.70710659
vertex -3.20710707 3.56476021 4.70710659
endloop
endfacet
facet normal -11.95902348 -0.00000132 -0.00000000
outer loop
vertex -3.20710707 3.56476021 6.08801556
vertex -3.20710707 3.56476021 4.70710659
vertex -3.20710611 -5.09549427 4.33163548
endloop
endfacet
facet normal 3.25167537 0.00000036 -0.00000000
outer loop
vertex -3.20710611 -5.09549427 4.33163548
vertex -3.20710707 3.56476021 4.70710659
vertex -3.20710611 -5.09549427 4.70710659
endloop
endfacet
facet normal -1.62583768 2.81603312 0.00000000
outer loop
vertex -3.20710611 -5.09549427 4.33163548
vertex -3.20710611 -5.09549427 4.70710659
vertex 4.29289341 -0.76536685 6.70166826
endloop
endfacet
facet normal 8.63670540 -14.95921135 0.00000000
outer loop
vertex 4.29289341 -0.76536685 6.70166826
vertex -3.20710611 -5.09549427 4.70710659
vertex 4.29289341 -0.76536685 4.70710659
endloop
endfacet
facet normal 6.62965250 12.65489769 8.49316978
outer loop
vertex 3.60098958 -1.49866664 8.33438206
vertex 4.29289341 -0.76536685 6.70166826
vertex -3.72203708 3.01524973 7.32486153
endloop
endfacet
facet normal 5.01849127 9.59233379 6.35104132
outer loop
vertex -3.72203708 3.01524973 7.32486153
vertex 4.29289341 -0.76536685 6.70166826
vertex -3.20710707 3.56476021 6.08801556
endloop
endfacet
facet normal -11.67211533 0.90344572 -4.45800781
outer loop
vertex -3.72203708 3.01524973 7.32486153
vertex -3.20710707 3.56476021 6.08801556
vertex -3.07643676 -4.95329714 4.01964760
endloop
endfacet
facet normal 2.95164657 -0.22950476 1.13162994
outer loop
vertex -3.07643676 -4.95329714 4.01964760
vertex -3.20710707 3.56476021 6.08801556
vertex -3.20710611 -5.09549427 4.33163548
endloop
endfacet
facet normal -1.69134569 2.64707947 0.49809656
outer loop
vertex -3.07643676 -4.95329714 4.01964760
vertex -3.20710611 -5.09549427 4.33163548
vertex 3.60098958 -1.49866664 8.33438206
endloop
endfacet
facet normal 8.80780315 -13.88518810 -2.50371671
outer loop
vertex 3.60098958 -1.49866664 8.33438206
vertex -3.20710611 -5.09549427 4.33163548
vertex 4.29289341 -0.76536685 6.70166826
endloop
endfacet
facet normal 3.72822618 7.10630512 4.73033333
outer loop
vertex 3.22074699 -1.91023827 9.25236893
vertex 3.60098958 -1.49866664 8.33438206
vertex -3.75867820 2.97558975 7.41332102
endloop
endfacet
facet normal 0.35926121 0.68478113 0.45582601
outer loop
vertex -3.75867820 2.97558975 7.41332102
vertex 3.60098958 -1.49866664 8.33438206
vertex -3.72203708 3.01524973 7.32486153
endloop
endfacet
facet normal -0.83597851 0.06399727 -0.31758106
outer loop
vertex -3.75867820 2.97558975 7.41332102
vertex -3.72203708 3.01524973 7.32486153
vertex -3.71964741 -5.64950323 5.57249546
endloop
endfacet
facet normal -14.67505074 1.12342978 -5.57492495
outer loop
vertex -3.71964741 -5.64950323 5.57249546
vertex -3.72203708 3.01524973 7.32486153
vertex -3.07643676 -4.95329714 4.01964760
endloop
endfacet
facet normal 8.36845970 -13.14431000 -2.42680979
outer loop
vertex -3.71964741 -5.64950323 5.57249546
vertex -3.07643676 -4.95329714 4.01964760
vertex 3.22074699 -1.91023827 9.25236893
endloop
endfacet
facet normal 4.94712734 -7.77043581 -1.43464172
outer loop
vertex 3.22074699 -1.91023827 9.25236893
vertex -3.07643676 -4.95329714 4.01964760
vertex 3.60098958 -1.49866664 8.33438206
endloop
endfacet
facet normal 4.85466528 7.69180870 2.01086760
outer loop
vertex 2.80917549 -1.91023827 10.24599075
vertex 3.22074699 -1.91023827 9.25236893
vertex -3.79833794 2.97558951 7.50906849
endloop
endfacet
facet normal 0.46780527 0.74119848 0.19377233
outer loop
vertex -3.79833794 2.97558951 7.50906849
vertex 3.22074699 -1.91023827 9.25236893
vertex -3.75867820 2.97558975 7.41332102
endloop
endfacet
facet normal -0.82583088 0.06926980 -0.34206876
outer loop
vertex -3.79833794 2.97558951 7.50906849
vertex -3.75867820 2.97558975 7.41332102
vertex -4.41585302 -5.64950275 7.25328541
endloop
endfacet
facet normal -14.49696922 1.21599054 -6.00483847
outer loop
vertex -4.41585302 -5.64950275 7.25328541
vertex -3.75867820 2.97558975 7.41332102
vertex -3.71964741 -5.64950323 5.57249546
endloop
endfacet
facet normal 6.28491688 -14.22729301 2.60330033
outer loop
vertex -4.41585302 -5.64950275 7.25328541
vertex -3.71964741 -5.64950323 5.57249546
vertex 2.80917549 -1.91023827 10.24599075
endloop
endfacet
facet normal 3.71541524 -8.41065788 1.53897488
outer loop
vertex 2.80917549 -1.91023827 10.24599075
vertex -3.71964741 -5.64950323 5.57249546
vertex 3.22074699 -1.91023827 9.25236893
endloop
endfacet
facet normal 8.99033451 14.24442863 3.72391701
outer loop
vertex 2.04698801 -1.91023827 12.08607483
vertex 2.80917549 -1.91023827 10.24599075
vertex -4.01611853 2.97558951 8.03483677
endloop
endfacet
facet normal 2.56881332 4.07006979 1.06403852
outer loop
vertex -4.01611853 2.97558951 8.03483677
vertex 2.80917549 -1.91023827 10.24599075
vertex -3.79833794 2.97558951 7.50906849
endloop
endfacet
facet normal -4.53480005 0.38037443 -1.87837768
outer loop
vertex -4.01611853 2.97558951 8.03483677
vertex -3.79833794 2.97558951 7.50906849
vertex -4.58275509 -5.64950275 7.65622234
endloop
endfacet
facet normal -3.47536826 0.29151037 -1.43954575
outer loop
vertex -4.58275509 -5.64950275 7.65622234
vertex -3.79833794 2.97558951 7.50906849
vertex -4.41585302 -5.64950275 7.25328541
endloop
endfacet
facet normal 1.50668776 -3.41071987 0.62409097
outer loop
vertex -4.58275509 -5.64950275 7.65622234
vertex -4.41585302 -5.64950275 7.25328541
vertex 2.04698801 -1.91023827 12.08607483
endloop
endfacet
facet normal 6.88056087 -15.57566261 2.85002065
outer loop
vertex 2.04698801 -1.91023827 12.08607483
vertex -4.41585302 -5.64950275 7.25328541
vertex 2.80917549 -1.91023827 10.24599075
endloop
endfacet
facet normal 6.88089991 14.24442577 6.88090706
outer loop
vertex 0.63864803 -1.91023827 13.49441338
vertex 2.04698801 -1.91023827 12.08607483
vertex -4.41852379 2.97558999 8.43724251
endloop
endfacet
facet normal 1.96608698 4.07006836 1.96607983
outer loop
vertex -4.41852379 2.97558999 8.43724251
vertex 2.04698801 -1.91023827 12.08607483
vertex -4.01611853 2.97558951 8.03483677
endloop
endfacet
facet normal -3.47078657 0.38037437 -3.47078276
outer loop
vertex -4.41852379 2.97558999 8.43724251
vertex -4.01611853 2.97558951 8.03483677
vertex -4.89114952 -5.64950275 7.96461678
endloop
endfacet
facet normal -2.65993047 0.29151016 -2.65993047
outer loop
vertex -4.89114952 -5.64950275 7.96461678
vertex -4.01611853 2.97558951 8.03483677
vertex -4.58275509 -5.64950275 7.65622234
endloop
endfacet
facet normal 1.15316832 -3.41071725 1.15316832
outer loop
vertex -4.89114952 -5.64950275 7.96461678
vertex -4.58275509 -5.64950275 7.65622234
vertex 0.63864803 -1.91023827 13.49441338
endloop
endfacet
facet normal 5.26615047 -15.57566071 5.26615572
outer loop
vertex 0.63864803 -1.91023827 13.49441338
vertex -4.58275509 -5.64950275 7.65622234
vertex 2.04698801 -1.91023827 12.08607483
endloop
endfacet
facet normal 3.71560216 7.69180965 3.71560001
outer loop
vertex -0.12183720 -1.91023827 14.25489902
vertex 0.63864803 -1.91023827 13.49441338
vertex -4.49180555 2.97558999 8.51052475
endloop
endfacet
facet normal 0.35804442 0.74119925 0.35804209
outer loop
vertex -4.49180555 2.97558999 8.51052475
vertex 0.63864803 -1.91023827 13.49441338
vertex -4.41852379 2.97558999 8.43724251
endloop
endfacet
facet normal -0.63206613 0.06927054 -0.63206202
outer loop
vertex -4.49180555 2.97558999 8.51052475
vertex -4.41852379 2.97558999 8.43724251
vertex -6.17757034 -5.64950275 9.25103760
endloop
endfacet
facet normal -11.09549904 1.21599114 -11.09549904
outer loop
vertex -6.17757034 -5.64950275 9.25103760
vertex -4.41852379 2.97558999 8.43724251
vertex -4.89114952 -5.64950275 7.96461678
endloop
endfacet
facet normal 4.81026793 -14.22729301 4.81026793
outer loop
vertex -6.17757034 -5.64950275 9.25103760
vertex -4.89114952 -5.64950275 7.96461678
vertex -0.12183720 -1.91023827 14.25489902
endloop
endfacet
facet normal 2.84365702 -8.41065979 2.84365535
outer loop
vertex -0.12183720 -1.91023827 14.25489902
vertex -4.89114952 -5.64950275 7.96461678
vertex 0.63864803 -1.91023827 13.49441338
endloop
endfacet
facet normal 5.79698706 7.10630035 1.63421047
outer loop
vertex -0.82443333 -1.49866688 14.95749569
vertex -0.12183720 -1.91023827 14.25489902
vertex -4.55950880 3.01525021 8.57822800
endloop
endfacet
facet normal 0.55860955 0.68477380 0.15747255
outer loop
vertex -4.55950880 3.01525021 8.57822800
vertex -0.12183720 -1.91023827 14.25489902
vertex -4.49180555 2.97558999 8.51052475
endloop
endfacet
facet normal -0.61331630 0.06399666 -0.65080523
outer loop
vertex -4.55950880 3.01525021 8.57822800
vertex -4.49180555 2.97558999 8.51052475
vertex -7.36606836 -4.95329666 10.43953514
endloop
endfacet
facet normal -10.76645088 1.12342930 -11.42454529
outer loop
vertex -7.36606836 -4.95329666 10.43953514
vertex -4.49180555 2.97558999 8.51052475
vertex -6.17757034 -5.64950275 9.25103760
endloop
endfacet
facet normal 0.96038747 -13.14430428 8.66014671
outer loop
vertex -7.36606836 -4.95329666 10.43953514
vertex -6.17757034 -5.64950275 9.25103760
vertex -0.82443333 -1.49866688 14.95749569
endloop
endfacet
facet normal 0.56774855 -7.77043152 5.11955929
outer loop
vertex -0.82443333 -1.49866688 14.95749569
vertex -6.17757034 -5.64950275 9.25103760
vertex -0.12183720 -1.91023827 14.25489902
endloop
endfacet
facet normal 0.47991419 0.58830893 0.13529184
outer loop
vertex -0.88259935 -1.46459401 15.01566124
vertex -0.82443333 -1.49866688 14.95749569
vertex -5.45179224 3.53793764 9.47051144
endloop
endfacet
facet normal 7.36205626 9.02486038 2.07541633
outer loop
vertex -5.45179224 3.53793764 9.47051144
vertex -0.82443333 -1.49866688 14.95749569
vertex -4.55950880 3.01525021 8.57822800
endloop
endfacet
facet normal -8.08308411 0.84343255 -8.57715511
outer loop
vertex -5.45179224 3.53793764 9.47051144
vertex -4.55950880 3.01525021 8.57822800
vertex -8.37728214 -4.36094093 11.45074940
endloop
endfacet
facet normal -9.16046429 0.95585370 -9.72038651
outer loop
vertex -8.37728214 -4.36094093 11.45074940
vertex -4.55950880 3.01525021 8.57822800
vertex -7.36606836 -4.95329666 10.43953514
endloop
endfacet
facet normal 0.81713152 -11.18361855 7.36834431
outer loop
vertex -8.37728214 -4.36094093 11.45074940
vertex -7.36606836 -4.95329666 10.43953514
vertex -0.88259935 -1.46459401 15.01566124
endloop
endfacet
facet normal 0.04700054 -0.64328957 0.42383441
outer loop
vertex -0.88259935 -1.46459401 15.01566124
vertex -7.36606836 -4.95329666 10.43953514
vertex -0.82443333 -1.49866688 14.95749569
endloop
endfacet
facet normal 0.63155735 0.58487791 0.00880671
outer loop
vertex -0.91932917 -1.42619658 15.09959412
vertex -0.88259935 -1.46459401 15.01566124
vertex -5.91176128 4.03267336 10.58422279
endloop
endfacet
facet normal 8.31476021 7.63935947 0.04046679
outer loop
vertex -5.91176128 4.03267336 10.58422279
vertex -0.88259935 -1.46459401 15.01566124
vertex -5.45179224 3.53793764 9.47051144
endloop
endfacet
facet normal -9.77504826 2.35415316 -5.08291769
outer loop
vertex -5.91176128 4.03267336 10.58422279
vertex -5.45179224 3.53793764 9.47051144
vertex -8.94773293 -3.75244665 12.81707478
endloop
endfacet
facet normal -11.99740124 2.86754274 -6.28606510
outer loop
vertex -8.94773293 -3.75244665 12.81707478
vertex -5.45179224 3.53793764 9.47051144
vertex -8.37728214 -4.36094093 11.45074940
endloop
endfacet
facet normal 1.78951466 -12.27147770 6.21224928
outer loop
vertex -8.94773293 -3.75244665 12.81707478
vertex -8.37728214 -4.36094093 11.45074940
vertex -0.91932917 -1.42619658 15.09959412
endloop
endfacet
facet normal 0.10621527 -0.75998884 0.39415884
outer loop
vertex -0.91932917 -1.42619658 15.09959412
vertex -8.37728214 -4.36094093 11.45074940
vertex -0.88259935 -1.46459401 15.01566124
endloop
endfacet
facet normal 11.15964699 10.23425484 0.03403568
outer loop
vertex -1.53703475 -0.75759679 16.59086800
vertex -0.91932917 -1.42619658 15.09959412
vertex -6.49164104 4.66033077 11.98417568
endloop
endfacet
facet normal 10.47626686 9.60754204 0.03195119
outer loop
vertex -6.49164104 4.66033077 11.98417568
vertex -0.91932917 -1.42619658 15.09959412
vertex -5.91176128 4.03267336 10.58422279
endloop
endfacet
facet normal -12.30026817 2.95543218 -6.41998386
outer loop
vertex -6.49164104 4.66033077 11.98417568
vertex -5.91176128 4.03267336 10.58422279
vertex -8.80963898 -3.90191889 12.48368549
endloop
endfacet
facet normal 2.92922497 -0.70381707 1.52887154
outer loop
vertex -8.80963898 -3.90191889 12.48368549
vertex -5.91176128 4.03267336 10.58422279
vertex -8.94773293 -3.75244665 12.81707478
endloop
endfacet
facet normal -0.43437356 2.99178529 -1.52126420
outer loop
vertex -8.80963898 -3.90191889 12.48368549
vertex -8.94773293 -3.75244665 12.81707478
vertex -1.53703475 -0.75759679 16.59086800
endloop
endfacet
facet normal 1.94298387 -13.38247299 6.80472660
outer loop
vertex -1.53703475 -0.75759679 16.59086800
vertex -8.94773293 -3.75244665 12.81707478
vertex -0.91932917 -1.42619658 15.09959412
endloop
endfacet
facet normal 7.03114700 12.36929321 6.95431757
outer loop
vertex -2.82006431 -0.75950611 17.89146805
vertex -1.53703475 -0.75759679 16.59086800
vertex -7.60762882 4.65360117 13.10390377
endloop
endfacet
facet normal 6.03560448 10.68882370 6.07968330
outer loop
vertex -7.60762882 4.65360117 13.10390377
vertex -1.53703475 -0.75759679 16.59086800
vertex -6.49164104 4.66033077 11.98417568
endloop
endfacet
facet normal -9.59110546 2.04274702 -9.54679203
outer loop
vertex -7.60762882 4.65360117 13.10390377
vertex -6.49164104 4.66033077 11.98417568
vertex -8.52131653 -3.90647507 12.19021511
endloop
endfacet
facet normal 2.51504254 -0.53624386 2.47924995
outer loop
vertex -8.52131653 -3.90647507 12.19021511
vertex -6.49164104 4.66033077 11.98417568
vertex -8.80963898 -3.90191889 12.48368549
endloop
endfacet
facet normal -0.89756620 3.31694794 -0.93331772
outer loop
vertex -8.52131653 -3.90647507 12.19021511
vertex -8.80963898 -3.90191889 12.48368549
vertex -2.82006431 -0.75950611 17.89146805
endloop
endfacet
facet normal 4.09734726 -14.72838593 4.02037239
outer loop
vertex -2.82006431 -0.75950611 17.89146805
vertex -8.80963898 -3.90191889 12.48368549
vertex -1.53703475 -0.75759679 16.59086800
endloop
endfacet
facet normal 7.59029388 13.42630768 7.59029531
outer loop
vertex -4.22227097 -0.75950611 19.29367447
vertex -2.82006431 -0.75950611 17.89146805
vertex -8.05752945 4.65360117 13.55380440
endloop
endfacet
facet normal 2.43536043 4.30785656 2.43536043
outer loop
vertex -8.05752945 4.65360117 13.55380440
vertex -2.82006431 -0.75950611 17.89146805
vertex -7.60762882 4.65360117 13.10390377
endloop
endfacet
facet normal -3.85118341 0.82213777 -3.85118341
outer loop
vertex -8.05752945 4.65360117 13.55380440
vertex -7.60762882 4.65360117 13.10390377
vertex -8.78947353 -3.90647507 12.45837212
endloop
endfacet
facet normal -2.29544425 0.49002379 -2.29544425
outer loop
vertex -8.78947353 -3.90647507 12.45837212
vertex -7.60762882 4.65360117 13.10390377
vertex -8.52131653 -3.90647507 12.19021511
endloop
endfacet
facet normal 0.84388173 -3.05766153 0.84388173
outer loop
vertex -8.78947353 -3.90647507 12.45837212
vertex -8.52131653 -3.90647507 12.19021511
vertex -4.22227097 -0.75950611 19.29367447
endloop
endfacet
facet normal 4.41269970 -15.98866653 4.41270065
outer loop
vertex -4.22227097 -0.75950611 19.29367447
vertex -8.52131653 -3.90647507 12.19021511
vertex -2.82006431 -0.75950611 17.89146805
endloop
endfacet
facet normal 4.10783958 13.42631626 9.91720390
outer loop
vertex -6.05434322 -0.75950623 20.05254364
vertex -4.22227097 -0.75950611 19.29367447
vertex -8.64535522 4.65360117 13.79728985
endloop
endfacet
facet normal 1.31801295 4.30787325 3.18196416
outer loop
vertex -8.64535522 4.65360117 13.79728985
vertex -4.22227097 -0.75950611 19.29367447
vertex -8.05752945 4.65360117 13.55380440
endloop
endfacet
facet normal -2.08425379 0.82214099 -5.03183317
outer loop
vertex -8.64535522 4.65360117 13.79728985
vertex -8.05752945 4.65360117 13.55380440
vertex -9.13983917 -3.90647459 12.60349846
endloop
endfacet
facet normal -1.24229205 0.49002621 -2.99915695
outer loop
vertex -9.13983917 -3.90647459 12.60349846
vertex -8.05752945 4.65360117 13.55380440
vertex -8.78947353 -3.90647507 12.45837212
endloop
endfacet
facet normal 0.45670447 -3.05767632 1.10259104
outer loop
vertex -9.13983917 -3.90647459 12.60349846
vertex -8.78947353 -3.90647507 12.45837212
vertex -6.05434322 -0.75950623 20.05254364
endloop
endfacet
facet normal 2.38813853 -15.98867702 5.76547384
outer loop
vertex -6.05434322 -0.75950623 20.05254364
vertex -8.78947353 -3.90647507 12.45837212
vertex -4.22227097 -0.75950611 19.29367447
endloop
endfacet
facet normal 0.35426053 1.15788090 0.85525542
outer loop
vertex -6.21234035 -0.75950623 20.11798859
vertex -6.05434322 -0.75950623 20.05254364
vertex -9.03333664 4.65360117 13.95799732
endloop
endfacet
facet normal 0.86992681 2.84331703 2.10018516
outer loop
vertex -9.03333664 4.65360117 13.95799732
vertex -6.05434322 -0.75950623 20.05254364
vertex -8.64535522 4.65360117 13.79728985
endloop
endfacet
facet normal -1.37566817 0.54263663 -3.32115030
outer loop
vertex -9.03333664 4.65360117 13.95799732
vertex -8.64535522 4.65360117 13.79728985
vertex -11.36919403 -3.90647459 13.52692795
endloop
endfacet
facet normal -7.90462637 3.11800575 -19.08344650
outer loop
vertex -11.36919403 -3.90647459 13.52692795
vertex -8.64535522 4.65360117 13.79728985
vertex -9.13983917 -3.90647459 12.60349846
endloop
endfacet
facet normal 2.90600348 -19.45580292 7.01570940
outer loop
vertex -11.36919403 -3.90647459 13.52692795
vertex -9.13983917 -3.90647459 12.60349846
vertex -6.21234035 -0.75950623 20.11798859
endloop
endfacet
facet normal 0.20595318 -1.37885785 0.49721196
outer loop
vertex -6.21234035 -0.75950623 20.11798859
vertex -9.13983917 -3.90647459 12.60349846
vertex -6.05434322 -0.75950623 20.05254364
endloop
endfacet
facet normal 1.44361949 1.49103451 0.65360129
outer loop
vertex -6.38421249 -0.66082996 20.27249908
vertex -6.21234035 -0.75950623 20.11798859
vertex -9.26865864 4.79803991 14.19031906
endloop
endfacet
facet normal 2.14732385 2.10496020 0.86636204
outer loop
vertex -9.26865864 4.79803991 14.19031906
vertex -6.21234035 -0.75950623 20.11798859
vertex -9.03333664 4.65360117 13.95799732
endloop
endfacet
facet normal -1.93880165 0.63810492 -2.36056137
outer loop
vertex -9.26865864 4.79803991 14.19031906
vertex -9.03333664 4.65360117 13.95799732
vertex -12.92800713 -2.98707938 15.09138775
endloop
endfacet
facet normal -12.99557114 4.32631111 -15.49113464
outer loop
vertex -12.92800713 -2.98707938 15.09138775
vertex -9.03333664 4.65360117 13.95799732
vertex -11.36919403 -3.90647459 13.52692795
endloop
endfacet
facet normal -1.12416506 -18.31388855 9.64252186
outer loop
vertex -12.92800713 -2.98707938 15.09138775
vertex -11.36919403 -3.90647459 13.52692795
vertex -6.38421249 -0.66082996 20.27249908
endloop
endfacet
facet normal -0.16414160 -1.92960775 1.04973519
outer loop
vertex -6.38421249 -0.66082996 20.27249908
vertex -11.36919403 -3.90647459 13.52692795
vertex -6.21234035 -0.75950623 20.11798859
endloop
endfacet
facet normal 11.20010376 11.13169575 4.67930555
outer loop
vertex -7.62567091 0.06639963 21.51395798
vertex -6.38421249 -0.66082996 20.27249908
vertex -9.72444820 5.06503534 14.64610863
endloop
endfacet
facet normal 4.11201000 4.08689451 1.71796203
outer loop
vertex -9.72444820 5.06503534 14.64610863
vertex -6.38421249 -0.66082996 20.27249908
vertex -9.26865864 4.79803991 14.19031906
endloop
endfacet
facet normal -3.78895736 1.25719523 -4.52540541
outer loop
vertex -9.72444820 5.06503534 14.64610863
vertex -9.26865864 4.79803991 14.19031906
vertex -13.18833351 -2.83458352 15.35171413
endloop
endfacet
facet normal -2.16408134 0.71805298 -2.58470750
outer loop
vertex -13.18833351 -2.83458352 15.35171413
vertex -9.26865864 4.79803991 14.19031906
vertex -12.92800713 -2.98707938 15.09138775
endloop
endfacet
facet normal -0.18451422 -3.05230236 1.60348558
outer loop
vertex -13.18833351 -2.83458352 15.35171413
vertex -12.92800713 -2.98707938 15.09138775
vertex -7.62567091 0.06639963 21.51395798
endloop
endfacet
facet normal -0.87991476 -14.55598640 7.64678288
outer loop
vertex -7.62567091 0.06639963 21.51395798
vertex -12.92800713 -2.98707938 15.09138775
vertex -6.38421249 -0.66082996 20.27249908
endloop
endfacet
facet normal 8.41039276 12.62138271 6.62041092
outer loop
vertex -9.25582981 0.79743314 22.19120026
vertex -7.62567091 0.06639963 21.51395798
vertex -10.26534939 5.31135130 14.86817551
endloop
endfacet
facet normal 2.80169249 4.18089676 2.18680573
outer loop
vertex -10.26534939 5.31135130 14.86817551
vertex -7.62567091 0.06639963 21.51395798
vertex -9.72444820 5.06503534 14.64610863
endloop
endfacet
facet normal -1.92857122 0.38477433 -5.12432337
outer loop
vertex -10.26534939 5.31135130 14.86817551
vertex -9.72444820 5.06503534 14.64610863
vertex -13.57056427 -2.65719581 15.51377296
endloop
endfacet
facet normal -1.40536869 0.29164910 -3.63392782
outer loop
vertex -13.57056427 -2.65719581 15.51377296
vertex -9.72444820 5.06503534 14.64610863
vertex -13.18833351 -2.83458352 15.35171413
endloop
endfacet
facet normal -0.62464041 -3.25155878 2.08584642
outer loop
vertex -13.57056427 -2.65719581 15.51377296
vertex -13.18833351 -2.83458352 15.35171413
vertex -9.25582981 0.79743314 22.19120026
endloop
endfacet
facet normal -2.54013848 -13.81270695 8.79555607
outer loop
vertex -9.25582981 0.79743314 22.19120026
vertex -13.18833351 -2.83458352 15.35171413
vertex -7.62567091 0.06639963 21.51395798
endloop
endfacet
facet normal 4.73033571 7.10630322 3.72822833
outer loop
vertex -10.17381668 1.20900464 22.57144356
vertex -9.25582981 0.79743314 22.19120026
vertex -10.35380840 5.35101128 14.90481663
endloop
endfacet
facet normal 0.45582601 0.68477750 0.35925925
outer loop
vertex -10.35380840 5.35101128 14.90481663
vertex -9.25582981 0.79743314 22.19120026
vertex -10.26534939 5.31135130 14.86817551
endloop
endfacet
facet normal -0.31758088 0.06399810 -0.83597481
outer loop
vertex -10.35380840 5.35101128 14.90481663
vertex -10.26534939 5.31135130 14.86817551
vertex -15.12341213 -1.96098971 16.15698433
endloop
endfacet
facet normal -5.57492876 1.12343717 -14.67505169
outer loop
vertex -15.12341213 -1.96098971 16.15698433
vertex -10.26534939 5.31135130 14.86817551
vertex -13.57056427 -2.65719581 15.51377296
endloop
endfacet
facet normal -2.42680907 -13.14431477 8.36845779
outer loop
vertex -15.12341213 -1.96098971 16.15698433
vertex -13.57056427 -2.65719581 15.51377296
vertex -10.17381668 1.20900464 22.57144356
endloop
endfacet
facet normal -1.43463922 -7.77043962 4.94712543
outer loop
vertex -10.17381668 1.20900464 22.57144356
vertex -13.57056427 -2.65719581 15.51377296
vertex -9.25582981 0.79743314 22.19120026
endloop
endfacet
facet normal 7.03577328 5.43892860 2.77327967
outer loop
vertex -10.87641335 1.96948934 22.86246681
vertex -10.17381668 1.20900464 22.57144356
vertex -10.42151165 5.42429352 14.93285942
endloop
endfacet
facet normal 0.67798102 0.52410305 0.26723713
outer loop
vertex -10.42151165 5.42429352 14.93285942
vertex -10.17381668 1.20900464 22.57144356
vertex -10.35380840 5.35101128 14.90481663
endloop
endfacet
facet normal -0.29681206 0.04897622 -0.84457445
outer loop
vertex -10.42151165 5.42429352 14.93285942
vertex -10.35380840 5.35101128 14.90481663
vertex -16.31191063 -0.67456865 16.64927673
endloop
endfacet
facet normal -5.21045732 0.85984015 -14.82602119
outer loop
vertex -16.31191063 -0.67456865 16.64927673
vertex -10.35380840 5.35101128 14.90481663
vertex -15.12341213 -1.96098971 16.15698433
endloop
endfacet
facet normal -6.69112921 -10.06022072 10.13479710
outer loop
vertex -16.31191063 -0.67456865 16.64927673
vertex -15.12341213 -1.96098971 16.15698433
vertex -10.87641335 1.96948934 22.86246681
endloop
endfacet
facet normal -3.95555592 -5.94722509 5.99131870
outer loop
vertex -10.87641335 1.96948934 22.86246681
vertex -15.12341213 -1.96098971 16.15698433
vertex -10.17381668 1.20900464 22.57144356
endloop
endfacet
facet normal 11.52837563 8.91187096 4.54411411
outer loop
vertex -12.02764225 3.21557093 23.33932114
vertex -10.87641335 1.96948934 22.86246681
vertex -11.39609909 6.47917891 15.33654690
endloop
endfacet
facet normal 9.75948811 7.54445791 3.84687781
outer loop
vertex -11.39609909 6.47917891 15.33654690
vertex -10.87641335 1.96948934 22.86246681
vertex -10.42151165 5.42429352 14.93285942
endloop
endfacet
facet normal -4.27265835 0.70508111 -12.15756989
outer loop
vertex -11.39609909 6.47917891 15.33654690
vertex -10.42151165 5.42429352 14.93285942
vertex -16.14524078 -0.85497022 16.58024025
endloop
endfacet
facet normal 0.73068833 -0.12057742 2.07913351
outer loop
vertex -16.14524078 -0.85497022 16.58024025
vertex -10.42151165 5.42429352 14.93285942
vertex -16.31191063 -0.67456865 16.64927673
endloop
endfacet
facet normal 0.93833292 1.41079950 -1.42125773
outer loop
vertex -16.14524078 -0.85497022 16.58024025
vertex -16.31191063 -0.67456865 16.64927673
vertex -12.02764225 3.21557093 23.33932114
endloop
endfacet
facet normal -6.48131084 -9.74474430 9.81698990
outer loop
vertex -12.02764225 3.21557093 23.33932114
vertex -16.31191063 -0.67456865 16.64927673
vertex -10.87641335 1.96948934 22.86246681
endloop
endfacet
facet normal 6.19784737 14.55398273 6.38296700
outer loop
vertex -13.84575844 3.97413206 23.37509155
vertex -12.02764225 3.21557093 23.33932114
vertex -12.60583687 6.96756601 15.34571743
endloop
endfacet
facet normal 3.93838096 9.67546654 4.25654745
outer loop
vertex -12.60583687 6.96756601 15.34571743
vertex -12.02764225 3.21557093 23.33932114
vertex -11.39609909 6.47917891 15.33654690
endloop
endfacet
facet normal -0.67470187 -1.46090615 -11.20160294
outer loop
vertex -12.60583687 6.96756601 15.34571743
vertex -11.39609909 6.47917891 15.33654690
vertex -15.89177418 -0.96538663 16.57824898
endloop
endfacet
facet normal 0.15192844 0.30577791 2.38334513
outer loop
vertex -15.89177418 -0.96538663 16.57824898
vertex -11.39609909 6.47917891 15.33654690
vertex -16.14524078 -0.85497022 16.58024025
endloop
endfacet
facet normal 0.74064708 1.72684681 -1.47791684
outer loop
vertex -15.89177418 -0.96538663 16.57824898
vertex -16.14524078 -0.85497022 16.58024025
vertex -13.84575844 3.97413206 23.37509155
endloop
endfacet
facet normal -4.98157120 -12.43608284 10.52416706
outer loop
vertex -13.84575844 3.97413206 23.37509155
vertex -16.14524078 -0.85497022 16.58024025
vertex -12.02764225 3.21557093 23.33932114
endloop
endfacet
facet normal 0.07046538 0.17011698 0.07430281
outer loop
vertex -13.86694527 3.98290801 23.37509155
vertex -13.84575844 3.97413206 23.37509155
vertex -13.24918461 7.23404932 15.34571743
endloop
endfacet
facet normal 2.13969421 5.16567993 2.25623751
outer loop
vertex -13.24918461 7.23404932 15.34571743
vertex -13.84575844 3.97413206 23.37509155
vertex -12.60583687 6.96756601 15.34571743
endloop
endfacet
facet normal -0.32844907 -0.79294640 -5.97929430
outer loop
vertex -13.24918461 7.23404932 15.34571743
vertex -12.60583687 6.96756601 15.34571743
vertex -17.99619293 -0.09370774 16.57824898
endloop
endfacet
facet normal -1.07437170 -2.59376240 -19.55853653
outer loop
vertex -17.99619293 -0.09370774 16.57824898
vertex -12.60583687 6.96756601 15.34571743
vertex -15.89177418 -0.96538663 16.57824898
endloop
endfacet
facet normal -5.92466402 -14.30340290 12.17828560
outer loop
vertex -17.99619293 -0.09370774 16.57824898
vertex -15.89177418 -0.96538663 16.57824898
vertex -13.86694527 3.98290801 23.37509155
endloop
endfacet
facet normal -0.05964875 -0.14400354 0.12260847
outer loop
vertex -13.86694527 3.98290801 23.37509155
vertex -15.89177418 -0.96538663 16.57824898
vertex -13.84575844 3.97413206 23.37509155
endloop
endfacet
facet normal 1.41631901 1.28579021 0.64144868
outer loop
vertex -14.03073502 4.14907026 23.40366554
vertex -13.86694527 3.98290801 23.37509155
vertex -13.57583427 7.60387325 15.47405720
endloop
endfacet
facet normal 3.38670540 2.54350901 1.29044688
outer loop
vertex -13.57583427 7.60387325 15.47405720
vertex -13.86694527 3.98290801 23.37509155
vertex -13.24918461 7.23404932 15.34571743
endloop
endfacet
facet normal -1.41749823 0.19530547 -4.17060089
outer loop
vertex -13.57583427 7.60387325 15.47405720
vertex -13.24918461 7.23404932 15.34571743
vertex -19.46623230 1.50501204 17.19047356
endloop
endfacet
facet normal -6.45670605 1.09436512 -18.36122894
outer loop
vertex -19.46623230 1.50501204 17.19047356
vertex -13.24918461 7.23404932 15.34571743
vertex -17.99619293 -0.09370774 16.57824898
endloop
endfacet
facet normal -8.31439590 -12.46138191 12.57670689
outer loop
vertex -19.46623230 1.50501204 17.19047356
vertex -17.99619293 -0.09370774 16.57824898
vertex -14.03073502 4.14907026 23.40366554
endloop
endfacet
facet normal -1.01289344 -1.23124218 1.35383296
outer loop
vertex -14.03073502 4.14907026 23.40366554
vertex -17.99619293 -0.09370774 16.57824898
vertex -13.86694527 3.98290801 23.37509155
endloop
endfacet
facet normal 3.42660332 2.64889431 1.35065603
outer loop
vertex -14.37291718 4.51944542 23.54540253
vertex -14.03073502 4.14907026 23.40366554
vertex -13.77377319 7.81812096 15.55604649
endloop
endfacet
facet normal 1.98215723 1.53228116 0.78130138
outer loop
vertex -13.77377319 7.81812096 15.55604649
vertex -14.03073502 4.14907026 23.40366554
vertex -13.57583427 7.60387325 15.47405720
endloop
endfacet
facet normal -0.86777937 0.14320418 -2.46920633
outer loop
vertex -13.77377319 7.81812096 15.55604649
vertex -13.57583427 7.60387325 15.47405720
vertex -20.88598824 3.04174566 17.77855682
endloop
endfacet
facet normal -6.22431278 1.02715230 -17.71086693
outer loop
vertex -20.88598824 3.04174566 17.77855682
vertex -13.57583427 7.60387325 15.47405720
vertex -19.46623230 1.50501204 17.19047356
endloop
endfacet
facet normal -7.99309492 -12.01774120 12.10682774
outer loop
vertex -20.88598824 3.04174566 17.77855682
vertex -19.46623230 1.50501204 17.19047356
vertex -14.37291718 4.51944542 23.54540253
endloop
endfacet
facet normal -1.92645109 -2.89645457 2.91792274
outer loop
vertex -14.37291718 4.51944542 23.54540253
vertex -19.46623230 1.50501204 17.19047356
vertex -14.03073502 4.14907026 23.40366554
endloop
endfacet
facet normal 7.03696060 1.78316426 1.27806902
outer loop
vertex -14.61196041 5.31060934 23.75772476
vertex -14.37291718 4.51944542 23.54540253
vertex -13.79344177 7.94815159 15.57111359
endloop
endfacet
facet normal 1.08856249 0.14811192 0.14278734
outer loop
vertex -13.79344177 7.94815159 15.57111359
vertex -14.37291718 4.51944542 23.54540253
vertex -13.77377319 7.81812096 15.55604649
endloop
endfacet
facet normal -0.40452948 0.06032059 -1.04864526
outer loop
vertex -13.79344177 7.94815159 15.57111359
vertex -13.77377319 7.81812096 15.55604649
vertex -21.39885330 4.91240597 18.33038330
endloop
endfacet
facet normal -6.79329205 2.78486085 -15.75417519
outer loop
vertex -21.39885330 4.91240597 18.33038330
vertex -13.77377319 7.81812096 15.55604649
vertex -20.88598824 3.04174566 17.77855682
endloop
endfacet
facet normal -9.93297291 -6.52868080 12.90019608
outer loop
vertex -21.39885330 4.91240597 18.33038330
vertex -20.88598824 3.04174566 17.77855682
vertex -14.61196041 5.31060934 23.75772476
endloop
endfacet
facet normal -4.24877214 -2.76139545 5.50614071
outer loop
vertex -14.61196041 5.31060934 23.75772476
vertex -20.88598824 3.04174566 17.77855682
vertex -14.37291718 4.51944542 23.54540253
endloop
endfacet
facet normal 9.48828411 2.28553128 1.68501115
outer loop
vertex -14.92215347 6.36967278 24.06791687
vertex -14.61196041 5.31060934 23.75772476
vertex -14.30087852 9.68064785 16.07855034
endloop
endfacet
facet normal 15.52165890 3.73884106 2.75646639
outer loop
vertex -14.30087852 9.68064785 16.07855034
vertex -14.61196041 5.31060934 23.75772476
vertex -13.79344177 7.94815159 15.57111359
endloop
endfacet
facet normal -6.32087421 2.45911026 -14.71679688
outer loop
vertex -14.30087852 9.68064785 16.07855034
vertex -13.79344177 7.94815159 15.57111359
vertex -21.39629555 4.90367079 18.32782555
endloop
endfacet
facet normal 0.03186741 -0.01239524 0.07419933
outer loop
vertex -21.39629555 4.90367079 18.32782555
vertex -13.79344177 7.94815159 15.57111359
vertex -21.39885330 4.91240597 18.33038330
endloop
endfacet
facet normal 0.04639106 0.03124101 -0.06030247
outer loop
vertex -21.39629555 4.90367079 18.32782555
vertex -21.39885330 4.91240597 18.33038330
vertex -14.92215347 6.36967278 24.06791687
endloop
endfacet
facet normal -5.62437963 -3.78876448 7.31126976
outer loop
vertex -14.92215347 6.36967278 24.06791687
vertex -21.39885330 4.91240597 18.33038330
vertex -14.61196041 5.31060934 23.75772476
endloop
endfacet
facet normal 9.70226479 7.39318943 3.77768469
outer loop
vertex -15.87849331 7.41104269 24.48606110
vertex -14.92215347 6.36967278 24.06791687
vertex -15.42359352 10.86584568 16.55644989
endloop
endfacet
facet normal 11.05129337 8.67287540 4.45361519
outer loop
vertex -15.42359352 10.86584568 16.55644989
vertex -14.92215347 6.36967278 24.06791687
vertex -14.30087852 9.68064785 16.07855034
endloop
endfacet
facet normal -4.94893694 0.88797021 -13.82856750
outer loop
vertex -15.42359352 10.86584568 16.55644989
vertex -14.30087852 9.68064785 16.07855034
vertex -21.31398964 4.76698494 18.27286720
endloop
endfacet
facet normal 0.56997883 -0.20482372 1.36301661
outer loop
vertex -21.31398964 4.76698494 18.27286720
vertex -14.30087852 9.68064785 16.07855034
vertex -21.39629555 4.90367079 18.32782555
endloop
endfacet
facet normal 0.70394266 0.81010842 -0.96057701
outer loop
vertex -21.31398964 4.76698494 18.27286720
vertex -21.39629555 4.90367079 18.32782555
vertex -15.87849331 7.41104269 24.48606110
endloop
endfacet
facet normal -5.36455822 -8.19660378 8.14397240
outer loop
vertex -15.87849331 7.41104269 24.48606110
vertex -21.39629555 4.90367079 18.32782555
vertex -14.92215347 6.36967278 24.06791687
endloop
endfacet
facet normal 11.10895538 8.58764839 4.37878895
outer loop
vertex -16.98783875 8.61178970 24.94556618
vertex -15.87849331 7.41104269 24.48606110
vertex -15.85119343 11.32867622 16.73356819
endloop
endfacet
facet normal 4.28197479 3.31012988 1.68781495
outer loop
vertex -15.85119343 11.32867622 16.73356819
vertex -15.87849331 7.41104269 24.48606110
vertex -15.42359352 10.86584568 16.55644989
endloop
endfacet
facet normal -1.87463033 0.30935693 -5.33412743
outer loop
vertex -15.85119343 11.32867622 16.73356819
vertex -15.42359352 10.86584568 16.55644989
vertex -21.73542786 5.22314644 18.44743347
endloop
endfacet
facet normal -1.84761882 0.30490059 -5.25726509
outer loop
vertex -21.73542786 5.22314644 18.44743347
vertex -15.42359352 10.86584568 16.55644989
vertex -21.31398964 4.76698494 18.27286720
endloop
endfacet
facet normal -2.37265491 -3.56733036 3.59377098
outer loop
vertex -21.73542786 5.22314644 18.44743347
vertex -21.31398964 4.76698494 18.27286720
vertex -16.98783875 8.61178970 24.94556618
endloop
endfacet
facet normal -6.24551582 -9.39021683 9.45982933
outer loop
vertex -16.98783875 8.61178970 24.94556618
vertex -21.31398964 4.76698494 18.27286720
vertex -15.87849331 7.41104269 24.48606110
endloop
endfacet
facet normal 9.82626915 9.83150005 4.61853361
outer loop
vertex -18.18437958 9.80808544 24.94473267
vertex -16.98783875 8.61178970 24.94556618
vertex -16.25422859 11.73823452 16.72947502
endloop
endfacet
facet normal 3.35217118 3.31437659 1.56052339
outer loop
vertex -16.25422859 11.73823452 16.72947502
vertex -16.98783875 8.61178970 24.94556618
vertex -15.85119343 11.32867622 16.73356819
endloop
endfacet
facet normal -0.67976892 -0.71762472 -4.87113571
outer loop
vertex -16.25422859 11.73823452 16.72947502
vertex -15.85119343 11.32867622 16.73356819
vertex -22.24878311 5.74368095 18.44914627
endloop
endfacet
facet normal -0.90258354 -0.86974323 -6.19725323
outer loop
vertex -22.24878311 5.74368095 18.44914627
vertex -15.85119343 11.32867622 16.73356819
vertex -21.73542786 5.22314644 18.44743347
endloop
endfacet
facet normal -3.37421536 -3.34150505 4.20214558
outer loop
vertex -22.24878311 5.74368095 18.44914627
vertex -21.73542786 5.22314644 18.44743347
vertex -18.18437958 9.80808544 24.94473267
endloop
endfacet
facet normal -7.77651262 -7.77132416 9.73417091
outer loop
vertex -18.18437958 9.80808544 24.94473267
vertex -21.73542786 5.22314644 18.44743347
vertex -16.98783875 8.61178970 24.94556618
endloop
endfacet
facet normal 1.41898596 1.41898596 0.66677278
outer loop
vertex -18.35710526 9.98081112 24.94473267
vertex -18.18437958 9.80808544 24.94473267
vertex -16.67201424 12.15601921 16.72947502
endloop
endfacet
facet normal 3.43220878 3.43221664 1.61277604
outer loop
vertex -16.67201424 12.15601921 16.72947502
vertex -18.18437958 9.80808544 24.94473267
vertex -16.25422859 11.73823452 16.72947502
endloop
endfacet
facet normal -0.71845233 -0.71845394 -5.00887012
outer loop
vertex -16.67201424 12.15601921 16.72947502
vertex -16.25422859 11.73823452 16.72947502
vertex -23.77927971 7.27417803 18.44914627
endloop
endfacet
facet normal -2.63195181 -2.63195109 -18.34929276
outer loop
vertex -23.77927971 7.27417803 18.44914627
vertex -16.25422859 11.73823452 16.72947502
vertex -22.24878311 5.74368095 18.44914627
endloop
endfacet
facet normal -9.94147587 -9.94147301 12.44111443
outer loop
vertex -23.77927971 7.27417803 18.44914627
vertex -22.24878311 5.74368095 18.44914627
vertex -18.35710526 9.98081112 24.94473267
endloop
endfacet
facet normal -1.12195456 -1.12195456 1.40405393
outer loop
vertex -18.35710526 9.98081112 24.94473267
vertex -22.24878311 5.74368095 18.44914627
vertex -18.18437958 9.80808544 24.94473267
endloop
endfacet
facet normal 4.34694338 1.62739372 1.33703995
outer loop
vertex -18.56483841 10.49805450 24.99053955
vertex -18.35710526 9.98081112 24.94473267
vertex -16.77828789 12.48598194 16.76253128
endloop
endfacet
facet normal 2.78263307 0.81736267 0.78718460
outer loop
vertex -16.77828789 12.48598194 16.76253128
vertex -18.35710526 9.98081112 24.94473267
vertex -16.67201424 12.15601921 16.72947502
endloop
endfacet
facet normal -0.76738346 0.04309478 -2.89725208
outer loop
vertex -16.77828789 12.48598194 16.76253128
vertex -16.67201424 12.15601921 16.72947502
vertex -24.50454903 9.21260262 18.76026535
endloop
endfacet
facet normal -4.85228682 0.96398115 -17.31754875
outer loop
vertex -24.50454903 9.21260262 18.76026535
vertex -16.67201424 12.15601921 16.72947502
vertex -23.77927971 7.27417803 18.44914627
endloop
endfacet
facet normal -11.67698765 -6.36658382 12.44598007
outer loop
vertex -24.50454903 9.21260262 18.76026535
vertex -23.77927971 7.27417803 18.44914627
vertex -18.56483841 10.49805450 24.99053955
endloop
endfacet
facet normal -3.23581672 -1.59772158 3.36684132
outer loop
vertex -18.56483841 10.49805450 24.99053955
vertex -23.77927971 7.27417803 18.44914627
vertex -18.35710526 9.98081112 24.94473267
endloop
endfacet
facet normal 11.35532570 3.80879569 3.38580942
outer loop
vertex -19.07349205 11.82723236 25.20123100
vertex -18.56483841 10.49805450 24.99053955
vertex -17.36382294 14.01605988 17.00506783
endloop
endfacet
facet normal 13.07163906 4.38448334 3.89756298
outer loop
vertex -17.36382294 14.01605988 17.00506783
vertex -18.56483841 10.49805450 24.99053955
vertex -16.77828789 12.48598194 16.76253128
endloop
endfacet
facet normal -3.85060430 0.70415699 -13.73846054
outer loop
vertex -17.36382294 14.01605988 17.00506783
vertex -16.77828789 12.48598194 16.76253128
vertex -24.47296333 9.13006401 18.74718285
endloop
endfacet
facet normal 0.20771419 -0.03797903 0.74110675
outer loop
vertex -24.47296333 9.13006401 18.74718285
vertex -16.77828789 12.48598194 16.76253128
vertex -24.50454903 9.21260262 18.76026535
endloop
endfacet
facet normal 0.49742240 0.27449420 -0.53085673
outer loop
vertex -24.47296333 9.13006401 18.74718285
vertex -24.50454903 9.21260262 18.76026535
vertex -19.07349205 11.82723236 25.20123100
endloop
endfacet
facet normal -8.01030827 -4.42049789 8.54878139
outer loop
vertex -19.07349205 11.82723236 25.20123100
vertex -24.50454903 9.21260262 18.76026535
vertex -18.56483841 10.49805450 24.99053955
endloop
endfacet
facet normal 10.28037548 10.05264473 4.77718401
outer loop
vertex -20.30569839 13.07005787 25.23762512
vertex -19.07349205 11.82723236 25.20123100
vertex -18.37554741 15.00020790 17.02236938
endloop
endfacet
facet normal 8.10410786 8.26267910 3.89705777
outer loop
vertex -18.37554741 15.00020790 17.02236938
vertex -19.07349205 11.82723236 25.20123100
vertex -17.36382294 14.01605988 17.00506783
endloop
endfacet
facet normal -1.79612625 -1.63611829 -11.96436691
outer loop
vertex -18.37554741 15.00020790 17.02236938
vertex -17.36382294 14.01605988 17.00506783
vertex -24.37010193 9.00565243 18.74204063
endloop
endfacet
facet normal 0.24186411 0.14263968 1.38703978
outer loop
vertex -24.37010193 9.00565243 18.74204063
vertex -17.36382294 14.01605988 17.00506783
vertex -24.47296333 9.13006401 18.74718285
endloop
endfacet
facet normal 0.78722596 0.68904495 -0.92372930
outer loop
vertex -24.37010193 9.00565243 18.74204063
vertex -24.47296333 9.13006401 18.74718285
vertex -20.30569839 13.07005787 25.23762512
endloop
endfacet
facet normal -7.92309475 -8.14922810 10.03406906
outer loop
vertex -20.30569839 13.07005787 25.23762512
vertex -24.47296333 9.13006401 18.74718285
vertex -19.07349205 11.82723236 25.20123100
endloop
endfacet
facet normal 4.64152193 4.64153004 2.18102646
outer loop
vertex -20.87068748 13.63504601 25.23762512
vertex -20.30569839 13.07005787 25.23762512
vertex -18.55660439 15.18126488 17.02236938
endloop
endfacet
facet normal 1.48742938 1.48742938 0.69893444
outer loop
vertex -18.55660439 15.18126488 17.02236938
vertex -20.30569839 13.07005787 25.23762512
vertex -18.37554741 15.00020790 17.02236938
endloop
endfacet
facet normal -0.31135848 -0.31135848 -2.17071199
outer loop
vertex -18.55660439 15.18126488 17.02236938
vertex -18.37554741 15.00020790 17.02236938
vertex -25.74355125 10.37910175 18.74204063
endloop
endfacet
facet normal -2.36188126 -2.36188126 -16.46643448
outer loop
vertex -25.74355125 10.37910175 18.74204063
vertex -18.37554741 15.00020790 17.02236938
vertex -24.37010193 9.00565243 18.74204063
endloop
endfacet
facet normal -8.92135620 -8.92135620 11.16450500
outer loop
vertex -25.74355125 10.37910175 18.74204063
vertex -24.37010193 9.00565243 18.74204063
vertex -20.87068748 13.63504601 25.23762512
endloop
endfacet
facet normal -3.66992807 -3.66993427 4.59268475
outer loop
vertex -20.87068748 13.63504601 25.23762512
vertex -24.37010193 9.00565243 18.74204063
vertex -20.30569839 13.07005787 25.23762512
endloop
endfacet
facet normal 6.06444073 2.51197028 2.18102431
outer loop
vertex -21.17645645 14.37323856 25.23762512
vertex -20.87068748 13.63504601 25.23762512
vertex -18.65459251 15.41782856 17.02236938
endloop
endfacet
facet normal 1.94343114 0.80499756 0.69893909
outer loop
vertex -18.65459251 15.41782856 17.02236938
vertex -20.87068748 13.63504601 25.23762512
vertex -18.55660439 15.18126488 17.02236938
endloop
endfacet
facet normal -0.40681177 -0.16850737 -2.17072535
outer loop
vertex -18.65459251 15.41782856 17.02236938
vertex -18.55660439 15.18126488 17.02236938
vertex -26.48685646 12.17359829 18.74204063
endloop
endfacet
facet normal -3.08594418 -1.27824056 -16.46642494
outer loop
vertex -26.48685646 12.17359829 18.74204063
vertex -18.55660439 15.18126488 17.02236938
vertex -25.74355125 10.37910175 18.74204063
endloop
endfacet
facet normal -11.65630341 -4.82820177 11.16449833
outer loop
vertex -26.48685646 12.17359829 18.74204063
vertex -25.74355125 10.37910175 18.74204063
vertex -21.17645645 14.37323856 25.23762512
endloop
endfacet
facet normal -4.79499197 -1.98614812 4.59267855
outer loop
vertex -21.17645645 14.37323856 25.23762512
vertex -25.74355125 10.37910175 18.74204063
vertex -20.87068748 13.63504601 25.23762512
endloop
endfacet
facet normal 13.16876221 5.45467567 4.73603344
outer loop
vertex -21.84042549 15.97620296 25.23762512
vertex -21.17645645 14.37323856 25.23762512
vertex -19.16778564 16.65678787 17.02236938
endloop
endfacet
facet normal 10.17836761 4.21601295 3.66056299
outer loop
vertex -19.16778564 16.65678787 17.02236938
vertex -21.17645645 14.37323856 25.23762512
vertex -18.65459251 15.41782856 17.02236938
endloop
endfacet
facet normal -2.13060260 -0.88252348 -11.36877251
outer loop
vertex -19.16778564 16.65678787 17.02236938
vertex -18.65459251 15.41782856 17.02236938
vertex -26.45782280 12.10350609 18.74204063
endloop
endfacet
facet normal 0.12053555 0.04992835 0.64317250
outer loop
vertex -26.45782280 12.10350609 18.74204063
vertex -18.65459251 15.41782856 17.02236938
vertex -26.48685646 12.17359829 18.74204063
endloop
endfacet
facet normal 0.45528981 0.18859060 -0.43608209
outer loop
vertex -26.45782280 12.10350609 18.74204063
vertex -26.48685646 12.17359829 18.74204063
vertex -21.84042549 15.97620296 25.23762512
endloop
endfacet
facet normal -10.41219044 -4.31286716 9.97287560
outer loop
vertex -21.84042549 15.97620296 25.23762512
vertex -26.48685646 12.17359829 18.74204063
vertex -21.17645645 14.37323856 25.23762512
endloop
endfacet
facet normal 11.42638206 12.06647778 4.67968655
outer loop
vertex -23.14538765 17.40502357 24.73976326
vertex -21.84042549 15.97620296 25.23762512
vertex -19.85426521 17.38759995 16.74876213
endloop
endfacet
facet normal 5.81759501 6.37085915 2.42040515
outer loop
vertex -19.85426521 17.38759995 16.74876213
vertex -21.84042549 15.97620296 25.23762512
vertex -19.16778564 16.65678787 17.02236938
endloop
endfacet
facet normal -0.01417899 -3.17540169 -8.44600582
outer loop
vertex -19.85426521 17.38759995 16.74876213
vertex -19.16778564 16.65678787 17.02236938
vertex -26.42765236 12.08213234 18.75446701
endloop
endfacet
facet normal -0.01982497 0.14247198 0.29318994
outer loop
vertex -26.42765236 12.08213234 18.75446701
vertex -19.16778564 16.65678787 17.02236938
vertex -26.45782280 12.10350609 18.74204063
endloop
endfacet
facet normal 0.19407246 0.13979237 -0.23074827
outer loop
vertex -26.42765236 12.08213234 18.75446701
vertex -26.45782280 12.10350609 18.74204063
vertex -23.14538765 17.40502357 24.73976326
endloop
endfacet
facet normal -11.20909309 -6.17766619 11.65115547
outer loop
vertex -23.14538765 17.40502357 24.73976326
vertex -26.45782280 12.10350609 18.74204063
vertex -21.84042549 15.97620296 25.23762512
endloop
endfacet
facet normal 2.81163502 3.03822136 1.15135705
outer loop
vertex -23.47018433 17.75658035 24.60522842
vertex -23.14538765 17.40502357 24.73976326
vertex -20.18226433 17.74262238 16.61289978
endloop
endfacet
facet normal 2.83935189 3.06818104 1.16270733
outer loop
vertex -20.18226433 17.74262238 16.61289978
vertex -23.14538765 17.40502357 24.73976326
vertex -19.85426521 17.38759995 16.74876213
endloop
endfacet
facet normal 0.00874156 -1.55094588 -4.07388687
outer loop
vertex -20.18226433 17.74262238 16.61289978
vertex -19.85426521 17.38759995 16.74876213
vertex -27.73064232 13.49247932 18.21475029
endloop
endfacet
facet normal 0.03470969 -6.16118002 -16.18372726
outer loop
vertex -27.73064232 13.49247932 18.21475029
vertex -19.85426521 17.38759995 16.74876213
vertex -26.42765236 12.08213234 18.75446701
endloop
endfacet
facet normal -11.31419849 -6.02728844 11.56480503
outer loop
vertex -27.73064232 13.49247932 18.21475029
vertex -26.42765236 12.08213234 18.75446701
vertex -23.47018433 17.75658035 24.60522842
endloop
endfacet
facet normal -2.82028580 -1.50242543 2.88275981
outer loop
vertex -23.47018433 17.75658035 24.60522842
vertex -26.42765236 12.08213234 18.75446701
vertex -23.14538765 17.40502357 24.73976326
endloop
endfacet
facet normal 3.67214441 1.64428341 1.50779212
outer loop
vertex -23.64596367 18.21591187 24.53241730
vertex -23.47018433 17.75658035 24.60522842
vertex -20.35977554 18.20648193 16.53937149
endloop
endfacet
facet normal 3.70834422 1.66048312 1.52265549
outer loop
vertex -20.35977554 18.20648193 16.53937149
vertex -23.47018433 17.75658035 24.60522842
vertex -20.18226433 17.74262238 16.61289978
endloop
endfacet
facet normal -0.43052948 -0.83936632 -4.25583506
outer loop
vertex -20.35977554 18.20648193 16.53937149
vertex -20.18226433 17.74262238 16.61289978
vertex -28.43581390 15.33518410 17.92265892
endloop
endfacet
facet normal -1.71030736 -3.33439565 -16.90651321
outer loop
vertex -28.43581390 15.33518410 17.92265892
vertex -20.18226433 17.74262238 16.61289978
vertex -27.73064232 13.49247932 18.21475029
endloop
endfacet
facet normal -13.02126884 -3.26193953 10.85768700
outer loop
vertex -28.43581390 15.33518410 17.92265892
vertex -27.73064232 13.49247932 18.21475029
vertex -23.64596367 18.21591187 24.53241730
endloop
endfacet
facet normal -3.24582195 -0.81310534 2.70650339
outer loop
vertex -23.64596367 18.21591187 24.53241730
vertex -27.73064232 13.49247932 18.21475029
vertex -23.47018433 17.75658035 24.60522842
endloop
endfacet
facet normal 2.36240029 1.05780387 0.97000718
outer loop
vertex -23.75904655 18.51141357 24.48557663
vertex -23.64596367 18.21591187 24.53241730
vertex -20.59337044 18.81689262 16.44261360
endloop
endfacet
facet normal 4.87995291 2.18509936 2.00372148
outer loop
vertex -20.59337044 18.81689262 16.44261360
vertex -23.64596367 18.21591187 24.53241730
vertex -20.35977554 18.20648193 16.53937149
endloop
endfacet
facet normal -0.56655240 -1.10454893 -5.60041904
outer loop
vertex -20.59337044 18.81689262 16.44261360
vertex -20.35977554 18.20648193 16.53937149
vertex -29.14719963 17.19412422 17.62799263
endloop
endfacet
facet normal -1.72537374 -3.36378717 -17.05547142
outer loop
vertex -29.14719963 17.19412422 17.62799263
vertex -20.35977554 18.20648193 16.53937149
vertex -28.43581390 15.33518410 17.92265892
endloop
endfacet
facet normal -13.13599873 -3.29068041 10.95335484
outer loop
vertex -29.14719963 17.19412422 17.62799263
vertex -28.43581390 15.33518410 17.92265892
vertex -23.75904655 18.51141357 24.48557663
endloop
endfacet
facet normal -2.08813000 -0.52309072 1.74116993
outer loop
vertex -23.75904655 18.51141357 24.48557663
vertex -28.43581390 15.33518410 17.92265892
vertex -23.64596367 18.21591187 24.53241730
endloop
endfacet
facet normal 5.30606270 0.15073398 2.11159945
outer loop
vertex -23.76418877 19.17241859 24.45131302
vertex -23.75904655 18.51141357 24.48557663
vertex -20.56966019 19.17241859 16.42404747
endloop
endfacet
facet normal 2.85381055 -0.13192631 1.11823714
outer loop
vertex -20.56966019 19.17241859 16.42404747
vertex -23.75904655 18.51141357 24.48557663
vertex -20.59337044 18.81689262 16.44261360
endloop
endfacet
facet normal -0.42893091 -0.13053037 -3.04732275
outer loop
vertex -20.56966019 19.17241859 16.42404747
vertex -20.59337044 18.81689262 16.44261360
vertex -29.14096832 19.17241859 17.63051605
endloop
endfacet
facet normal -2.34912348 0.02897138 -16.91188049
outer loop
vertex -29.14096832 19.17241859 17.63051605
vertex -20.59337044 18.81689262 16.44261360
vertex -29.14719963 17.19412422 17.62799263
endloop
endfacet
facet normal -13.49354458 0.02893460 10.63685226
outer loop
vertex -29.14096832 19.17241859 17.63051605
vertex -29.14719963 17.19412422 17.62799263
vertex -23.76418877 19.17241859 24.45131302
endloop
endfacet
facet normal -4.57803249 0.14935443 3.56837010
outer loop
vertex -23.76418877 19.17241859 24.45131302
vertex -29.14719963 17.19412422 17.62799263
vertex -23.75904655 18.51141357 24.48557663
endloop
endfacet
facet normal 10.72974300 0.00000000 4.27000570
outer loop
vertex -23.76418877 20.50908089 24.45131302
vertex -23.76418877 19.17241859 24.45131302
vertex -20.56966019 20.82079697 16.42404747
endloop
endfacet
facet normal 13.23197079 0.00000000 5.26579189
outer loop
vertex -20.56966019 20.82079697 16.42404747
vertex -23.76418877 19.17241859 24.45131302
vertex -20.56966019 19.17241859 16.42404747
endloop
endfacet
facet normal -1.98871672 -0.00000000 -14.12875938
outer loop
vertex -20.56966019 20.82079697 16.42404747
vertex -20.56966019 19.17241859 16.42404747
vertex -29.14096832 19.19543839 17.63051605
endloop
endfacet
facet normal -0.02777265 -0.00000000 -0.19730972
outer loop
vertex -29.14096832 19.19543839 17.63051605
vertex -20.56966019 19.17241859 16.42404747
vertex -29.14096832 19.17241859 17.63051605
endloop
endfacet
facet normal -0.15701331 0.00000000 0.12377234
outer loop
vertex -29.14096832 19.19543839 17.63051605
vertex -29.14096832 19.17241859 17.63051605
vertex -23.76418877 20.50908089 24.45131302
endloop
endfacet
facet normal -9.11710167 0.00000000 7.18693829
outer loop
vertex -23.76418877 20.50908089 24.45131302
vertex -29.14096832 19.17241859 17.63051605
vertex -23.76418877 19.17241859 24.45131302
endloop
endfacet
facet normal 12.42790794 5.40292454 5.10311985
outer loop
vertex -24.35306931 22.06367111 24.23952484
vertex -23.76418877 20.50908089 24.45131302
vertex -21.06688309 22.05424118 16.24647903
endloop
endfacet
facet normal 9.84583282 4.55858755 4.09526539
outer loop
vertex -21.06688309 22.05424118 16.24647903
vertex -23.76418877 20.50908089 24.45131302
vertex -20.56966019 20.82079697 16.42404747
endloop
endfacet
facet normal -1.19635606 -2.12185192 -11.38901997
outer loop
vertex -21.06688309 22.05424118 16.24647903
vertex -20.56966019 20.82079697 16.42404747
vertex -29.14292336 19.18294334 17.62976646
endloop
endfacet
facet normal 0.01629322 -0.00878363 0.10392121
outer loop
vertex -29.14292336 19.18294334 17.62976646
vertex -20.56966019 20.82079697 16.42404747
vertex -29.14096832 19.19543839 17.63051605
endloop
endfacet
facet normal 0.08042984 -0.00933187 -0.05421751
outer loop
vertex -29.14292336 19.18294334 17.62976646
vertex -29.14096832 19.19543839 17.63051605
vertex -24.35306931 22.06367111 24.23952484
endloop
endfacet
facet normal -10.88175869 -2.87789631 9.13226700
outer loop
vertex -24.35306931 22.06367111 24.23952484
vertex -29.14096832 19.19543839 17.63051605
vertex -23.76418877 20.50908089 24.45131302
endloop
endfacet
facet normal 2.36240029 1.05781925 0.97000778
outer loop
vertex -24.46615410 22.35917282 24.19268417
vertex -24.35306931 22.06367111 24.23952484
vertex -21.30047798 22.66465187 16.14972115
endloop
endfacet
facet normal 4.87995291 2.18509912 2.00372052
outer loop
vertex -21.30047798 22.66465187 16.14972115
vertex -24.35306931 22.06367111 24.23952484
vertex -21.06688309 22.05424118 16.24647903
endloop
endfacet
facet normal -0.56655240 -1.10454917 -5.60042000
outer loop
vertex -21.30047798 22.66465187 16.14972115
vertex -21.06688309 22.05424118 16.24647903
vertex -29.85430908 21.04188347 17.33510017
endloop
endfacet
facet normal -1.72537374 -3.36378789 -17.05547523
outer loop
vertex -29.85430908 21.04188347 17.33510017
vertex -21.06688309 22.05424118 16.24647903
vertex -29.14292336 19.18294334 17.62976646
endloop
endfacet
facet normal -13.13599873 -3.29067993 10.95335770
outer loop
vertex -29.85430908 21.04188347 17.33510017
vertex -29.14292336 19.18294334 17.62976646
vertex -24.46615410 22.35917282 24.19268417
endloop
endfacet
facet normal -2.08813000 -0.52310318 1.74117661
outer loop
vertex -24.46615410 22.35917282 24.19268417
vertex -29.14292336 19.18294334 17.62976646
vertex -24.35306931 22.06367111 24.23952484
endloop
endfacet
facet normal 5.30606270 0.15073398 2.11159945
outer loop
vertex -24.47129631 23.02017784 24.15842056
vertex -24.46615410 22.35917282 24.19268417
vertex -21.27676773 23.02017784 16.13115501
endloop
endfacet
facet normal 2.85381055 -0.13192631 1.11823714
outer loop
vertex -21.27676773 23.02017784 16.13115501
vertex -24.46615410 22.35917282 24.19268417
vertex -21.30047798 22.66465187 16.14972115
endloop
endfacet
facet normal -0.42893091 -0.13053037 -3.04732275
outer loop
vertex -21.27676773 23.02017784 16.13115501
vertex -21.30047798 22.66465187 16.14972115
vertex -29.84807587 23.02017784 17.33762360
endloop
endfacet
facet normal -2.34912348 0.02897365 -16.91188049
outer loop
vertex -29.84807587 23.02017784 17.33762360
vertex -21.30047798 22.66465187 16.14972115
vertex -29.85430908 21.04188347 17.33510017
endloop
endfacet
facet normal -13.49354458 0.02894761 10.63685226
outer loop
vertex -29.84807587 23.02017784 17.33762360
vertex -29.85430908 21.04188347 17.33510017
vertex -24.47129631 23.02017784 24.15842056
endloop
endfacet
facet normal -4.57803249 0.14935450 3.56837130
outer loop
vertex -24.47129631 23.02017784 24.15842056
vertex -29.85430908 21.04188347 17.33510017
vertex -24.46615410 22.35917282 24.19268417
endloop
endfacet
facet normal 10.72974300 0.00000000 4.27000570
outer loop
vertex -24.47129631 24.35684013 24.15842056
vertex -24.47129631 23.02017784 24.15842056
vertex -21.27676773 24.66855621 16.13115501
endloop
endfacet
facet normal 13.23197079 0.00000000 5.26579189
outer loop
vertex -21.27676773 24.66855621 16.13115501
vertex -24.47129631 23.02017784 24.15842056
vertex -21.27676773 23.02017784 16.13115501
endloop
endfacet
facet normal -1.98871672 -0.00000000 -14.12875938
outer loop
vertex -21.27676773 24.66855621 16.13115501
vertex -21.27676773 23.02017784 16.13115501
vertex -29.84807587 23.04319763 17.33762360
endloop
endfacet
facet normal -0.02777265 -0.00000000 -0.19730972
outer loop
vertex -29.84807587 23.04319763 17.33762360
vertex -21.27676773 23.02017784 16.13115501
vertex -29.84807587 23.02017784 17.33762360
endloop
endfacet
facet normal -0.15701331 0.00000000 0.12377234
outer loop
vertex -29.84807587 23.04319763 17.33762360
vertex -29.84807587 23.02017784 17.33762360
vertex -24.47129631 24.35684013 24.15842056
endloop
endfacet
facet normal -9.11710167 0.00000000 7.18693829
outer loop
vertex -24.47129631 24.35684013 24.15842056
vertex -29.84807587 23.02017784 17.33762360
vertex -24.47129631 23.02017784 24.15842056
endloop
endfacet
facet normal 12.42790794 5.40292454 5.10311985
outer loop
vertex -25.06017685 25.91143036 23.94663239
vertex -24.47129631 24.35684013 24.15842056
vertex -21.77399063 25.90200043 15.95358658
endloop
endfacet
facet normal 9.84583282 4.55858755 4.09526539
outer loop
vertex -21.77399063 25.90200043 15.95358658
vertex -24.47129631 24.35684013 24.15842056
vertex -21.27676773 24.66855621 16.13115501
endloop
endfacet
facet normal -1.19635606 -2.12185192 -11.38901997
outer loop
vertex -21.77399063 25.90200043 15.95358658
vertex -21.27676773 24.66855621 16.13115501
vertex -29.85003090 23.03070259 17.33687401
endloop
endfacet
facet normal 0.01629322 -0.00878363 0.10392121
outer loop
vertex -29.85003090 23.03070259 17.33687401
vertex -21.27676773 24.66855621 16.13115501
vertex -29.84807587 23.04319763 17.33762360
endloop
endfacet
facet normal 0.08042984 -0.00933187 -0.05421751
outer loop
vertex -29.85003090 23.03070259 17.33687401
vertex -29.84807587 23.04319763 17.33762360
vertex -25.06017685 25.91143036 23.94663239
endloop
endfacet
facet normal -10.88175869 -2.87789631 9.13226700
outer loop
vertex -25.06017685 25.91143036 23.94663239
vertex -29.84807587 23.04319763 17.33762360
vertex -24.47129631 24.35684013 24.15842056
endloop
endfacet
facet normal 14.46270370 6.47595501 5.93842077
outer loop
vertex -25.75247955 27.72050285 23.65987206
vertex -25.06017685 25.91143036 23.94663239
vertex -22.12556839 26.82071686 15.80795860
endloop
endfacet
facet normal 7.34471560 3.28873777 3.01575804
outer loop
vertex -22.12556839 26.82071686 15.80795860
vertex -25.06017685 25.91143036 23.94663239
vertex -21.77399063 25.90200043 15.95358658
endloop
endfacet
facet normal -0.85270828 -1.66243052 -8.42907429
outer loop
vertex -22.12556839 26.82071686 15.80795860
vertex -21.77399063 25.90200043 15.95358658
vertex -29.86992455 23.08268929 17.32863426
endloop
endfacet
facet normal -0.04825378 -0.09406315 -0.47696725
outer loop
vertex -29.86992455 23.08268929 17.32863426
vertex -21.77399063 25.90200043 15.95358658
vertex -29.85003090 23.03070259 17.33687401
endloop
endfacet
facet normal -0.36735454 -0.09202471 0.30631536
outer loop
vertex -29.86992455 23.08268929 17.32863426
vertex -29.85003090 23.03070259 17.33687401
vertex -25.75247955 27.72050285 23.65987206
endloop
endfacet
facet normal -12.78361034 -3.20241332 10.65952873
outer loop
vertex -25.75247955 27.72050285 23.65987206
vertex -29.85003090 23.03070259 17.33687401
vertex -25.06017685 25.91143036 23.94663239
endloop
endfacet
facet normal 13.03176498 12.23670197 4.61598492
outer loop
vertex -26.82743645 29.25720596 22.62096214
vertex -25.75247955 27.72050285 23.65987206
vertex -22.45041656 27.29415512 15.46777058
endloop
endfacet
facet normal 4.02349281 3.78451157 1.42482471
outer loop
vertex -22.45041656 27.29415512 15.46777058
vertex -25.75247955 27.72050285 23.65987206
vertex -22.12556839 26.82071686 15.80795860
endloop
endfacet
facet normal 0.54251993 -3.12600470 -4.86850405
outer loop
vertex -22.45041656 27.29415512 15.46777058
vertex -22.12556839 26.82071686 15.80795860
vertex -29.95174026 23.23967552 17.23519325
endloop
endfacet
facet normal 0.11055993 -0.84805560 -1.52158666
outer loop
vertex -29.95174026 23.23967552 17.23519325
vertex -22.12556839 26.82071686 15.80795860
vertex -29.86992455 23.08268929 17.32863426
endloop
endfacet
facet normal -1.40777564 -0.14870247 0.98280132
outer loop
vertex -29.95174026 23.23967552 17.23519325
vertex -29.86992455 23.08268929 17.32863426
vertex -26.82743645 29.25720596 22.62096214
endloop
endfacet
facet normal -14.54750443 -2.52815342 11.31274033
outer loop
vertex -26.82743645 29.25720596 22.62096214
vertex -29.86992455 23.08268929 17.32863426
vertex -25.75247955 27.72050285 23.65987206
endloop
endfacet
facet normal -0.92143005 -0.87955338 -0.32244501
outer loop
vertex -26.75115395 29.14932632 22.69724464
vertex -26.82743645 29.25720596 22.62096214
vertex -23.11714172 28.23704720 14.80104542
endloop
endfacet
facet normal 8.05350304 7.68748188 2.81824207
outer loop
vertex -23.11714172 28.23704720 14.80104542
vertex -26.82743645 29.25720596 22.62096214
vertex -22.45041656 27.29415512 15.46777058
endloop
endfacet
facet normal 1.03673434 -6.17970657 -9.77616119
outer loop
vertex -23.11714172 28.23704720 14.80104542
vertex -22.45041656 27.29415512 15.46777058
vertex -30.85044670 24.51063919 16.33648682
endloop
endfacet
facet normal 1.39745700 -8.32988167 -13.17769718
outer loop
vertex -30.85044670 24.51063919 16.33648682
vertex -22.45041656 27.29415512 15.46777058
vertex -29.95174026 23.23967552 17.23519325
endloop
endfacet
facet normal -12.25311089 -2.03239322 9.37887001
outer loop
vertex -30.85044670 24.51063919 16.33648682
vertex -29.95174026 23.23967552 17.23519325
vertex -26.75115395 29.14932632 22.69724464
endloop
endfacet
facet normal 1.04004705 0.17251021 -0.79608107
outer loop
vertex -26.75115395 29.14932632 22.69724464
vertex -29.95174026 23.23967552 17.23519325
vertex -26.82743645 29.25720596 22.62096214
endloop
endfacet
facet normal 0.19285451 0.27188069 0.07896760
outer loop
vertex -26.76728249 29.17340279 22.65373993
vertex -26.75115395 29.14932632 22.69724464
vertex -23.48109818 29.16397285 14.66069412
endloop
endfacet
facet normal 7.44722939 3.38391089 3.03642941
outer loop
vertex -23.48109818 29.16397285 14.66069412
vertex -26.75115395 29.14932632 22.69724464
vertex -23.11714172 28.23704720 14.80104542
endloop
endfacet
facet normal -0.87921220 -1.63693810 -8.53091526
outer loop
vertex -23.48109818 29.16397285 14.66069412
vertex -23.11714172 28.23704720 14.80104542
vertex -31.55713654 26.29267311 16.04397964
endloop
endfacet
facet normal -1.64620769 -3.34712791 -16.41442680
outer loop
vertex -31.55713654 26.29267311 16.04397964
vertex -23.11714172 28.23704720 14.80104542
vertex -30.85044670 24.51063919 16.33648682
endloop
endfacet
facet normal -12.62145138 -3.26998377 10.57146454
outer loop
vertex -31.55713654 26.29267311 16.04397964
vertex -30.85044670 24.51063919 16.33648682
vertex -26.76728249 29.17340279 22.65373993
endloop
endfacet
facet normal -0.35494930 0.07574882 0.17351171
outer loop
vertex -26.76728249 29.17340279 22.65373993
vertex -30.85044670 24.51063919 16.33648682
vertex -26.75115395 29.14932632 22.69724464
endloop
endfacet
facet normal 2.36241603 1.05781913 0.97001302
outer loop
vertex -26.88036728 29.46890640 22.60689926
vertex -26.76728249 29.17340279 22.65373993
vertex -23.71469307 29.77438354 14.56393623
endloop
endfacet
facet normal 4.87995291 2.18509912 2.00371933
outer loop
vertex -23.71469307 29.77438354 14.56393623
vertex -26.76728249 29.17340279 22.65373993
vertex -23.48109818 29.16397285 14.66069412
endloop
endfacet
facet normal -0.56655121 -1.10454869 -5.60042000
outer loop
vertex -23.71469307 29.77438354 14.56393623
vertex -23.48109818 29.16397285 14.66069412
vertex -32.26852417 28.15161514 15.74931335
endloop
endfacet
facet normal -1.72537231 -3.36378860 -17.05549431
outer loop
vertex -32.26852417 28.15161514 15.74931335
vertex -23.48109818 29.16397285 14.66069412
vertex -31.55713654 26.29267311 16.04397964
endloop
endfacet
facet normal -13.13601589 -3.29069352 10.95337677
outer loop
vertex -32.26852417 28.15161514 15.74931335
vertex -31.55713654 26.29267311 16.04397964
vertex -26.88036728 29.46890640 22.60689926
endloop
endfacet
facet normal -2.08814335 -0.52310342 1.74118590
outer loop
vertex -26.88036728 29.46890640 22.60689926
vertex -31.55713654 26.29267311 16.04397964
vertex -26.76728249 29.17340279 22.65373993
endloop
endfacet
facet normal 5.30604744 0.15073392 2.11159205
outer loop
vertex -26.88550949 30.12990952 22.57263565
vertex -26.88036728 29.46890640 22.60689926
vertex -23.69098282 30.12990952 14.54537010
endloop
endfacet
facet normal 2.85381055 -0.13192634 1.11823642
outer loop
vertex -23.69098282 30.12990952 14.54537010
vertex -26.88036728 29.46890640 22.60689926
vertex -23.71469307 29.77438354 14.56393623
endloop
endfacet
facet normal -0.42893022 -0.13053042 -3.04732275
outer loop
vertex -23.69098282 30.12990952 14.54537010
vertex -23.71469307 29.77438354 14.56393623
vertex -32.26229095 30.12990952 15.75183678
endloop
endfacet
facet normal -2.34911990 0.02897364 -16.91188049
outer loop
vertex -32.26229095 30.12990952 15.75183678
vertex -23.71469307 29.77438354 14.56393623
vertex -32.26852417 28.15161514 15.74931335
endloop
endfacet
facet normal -13.49354839 0.02894762 10.63685608
outer loop
vertex -32.26229095 30.12990952 15.75183678
vertex -32.26852417 28.15161514 15.74931335
vertex -26.88550949 30.12990952 22.57263565
endloop
endfacet
facet normal -4.57802057 0.14935455 3.56836224
outer loop
vertex -26.88550949 30.12990952 22.57263565
vertex -32.26852417 28.15161514 15.74931335
vertex -26.88036728 29.46890640 22.60689926
endloop
endfacet
facet normal 10.72974300 0.00000000 4.27000332
outer loop
vertex -26.88550949 31.46657181 22.57263565
vertex -26.88550949 30.12990952 22.57263565
vertex -23.69098282 31.77828789 14.54537010
endloop
endfacet
facet normal 13.23197079 0.00000000 5.26578856
outer loop
vertex -23.69098282 31.77828789 14.54537010
vertex -26.88550949 30.12990952 22.57263565
vertex -23.69098282 30.12990952 14.54537010
endloop
endfacet
facet normal -1.98871362 -0.00000000 -14.12875938
outer loop
vertex -23.69098282 31.77828789 14.54537010
vertex -23.69098282 30.12990952 14.54537010
vertex -32.26229095 30.15292740 15.75183678
endloop
endfacet
facet normal -0.02777031 -0.00000000 -0.19729337
outer loop
vertex -32.26229095 30.15292740 15.75183678
vertex -23.69098282 30.12990952 14.54537010
vertex -32.26229095 30.12990952 15.75183678
endloop
endfacet
facet normal -0.15700035 0.00000000 0.12376213
outer loop
vertex -32.26229095 30.15292740 15.75183678
vertex -32.26229095 30.12990952 15.75183678
vertex -26.88550949 31.46657181 22.57263565
endloop
endfacet
facet normal -9.11710453 0.00000000 7.18694115
outer loop
vertex -26.88550949 31.46657181 22.57263565
vertex -32.26229095 30.12990952 15.75183678
vertex -26.88550949 30.12990952 22.57263565
endloop
endfacet
facet normal 12.42789268 5.40290833 5.10310745
outer loop
vertex -27.47438812 33.02116013 22.36084747
vertex -26.88550949 31.46657181 22.57263565
vertex -24.18820572 33.01173019 14.36780167
endloop
endfacet
facet normal 9.84581852 4.55858755 4.09525681
outer loop
vertex -24.18820572 33.01173019 14.36780167
vertex -26.88550949 31.46657181 22.57263565
vertex -23.69098282 31.77828789 14.54537010
endloop
endfacet
facet normal -1.19634986 -2.12185025 -11.38900280
outer loop
vertex -24.18820572 33.01173019 14.36780167
vertex -23.69098282 31.77828789 14.54537010
vertex -32.26424408 30.14043236 15.75108624
endloop
endfacet
facet normal 0.01629475 -0.00878950 0.10392431
outer loop
vertex -32.26424408 30.14043236 15.75108624
vertex -23.69098282 31.77828789 14.54537010
vertex -32.26229095 30.15292740 15.75183678
endloop
endfacet
facet normal 0.08042713 -0.00931470 -0.05422302
outer loop
vertex -32.26424408 30.14043236 15.75108624
vertex -32.26229095 30.15292740 15.75183678
vertex -27.47438812 33.02116013 22.36084747
endloop
endfacet
facet normal -10.88174915 -2.87788391 9.13225842
outer loop
vertex -27.47438812 33.02116013 22.36084747
vertex -32.26229095 30.15292740 15.75183678
vertex -26.88550949 31.46657181 22.57263565
endloop
endfacet
facet normal 2.36243129 1.05781901 0.97001851
outer loop
vertex -27.58747292 33.31666565 22.31400681
vertex -27.47438812 33.02116013 22.36084747
vertex -24.42180061 33.62214279 14.27104378
endloop
endfacet
facet normal 4.87996817 2.18509889 2.00372434
outer loop
vertex -24.42180061 33.62214279 14.27104378
vertex -27.47438812 33.02116013 22.36084747
vertex -24.18820572 33.01173019 14.36780167
endloop
endfacet
facet normal -0.56655347 -1.10454869 -5.60043669
outer loop
vertex -24.42180061 33.62214279 14.27104378
vertex -24.18820572 33.01173019 14.36780167
vertex -32.97563171 31.99937439 15.45642090
endloop
endfacet
facet normal -1.72537374 -3.36378002 -17.05549240
outer loop
vertex -32.97563171 31.99937439 15.45642090
vertex -24.18820572 33.01173019 14.36780167
vertex -32.26424408 30.14043236 15.75108624
endloop
endfacet
facet normal -13.13601398 -3.29069805 10.95337868
outer loop
vertex -32.97563171 31.99937439 15.45642090
vertex -32.26424408 30.14043236 15.75108624
vertex -27.58747292 33.31666565 22.31400681
endloop
endfacet
facet normal -2.08815622 -0.52310342 1.74119544
outer loop
vertex -27.58747292 33.31666565 22.31400681
vertex -32.26424408 30.14043236 15.75108624
vertex -27.47438812 33.02116013 22.36084747
endloop
endfacet
facet normal 5.30604649 0.15073994 2.11159086
outer loop
vertex -27.59261513 33.97766876 22.27974129
vertex -27.58747292 33.31666565 22.31400681
vertex -24.39809036 33.97766876 14.25247765
endloop
endfacet
facet normal 2.85381055 -0.13192639 1.11823571
outer loop
vertex -24.39809036 33.97766876 14.25247765
vertex -27.58747292 33.31666565 22.31400681
vertex -24.42180061 33.62214279 14.27104378
endloop
endfacet
facet normal -0.42893022 -0.13053042 -3.04732275
outer loop
vertex -24.39809036 33.97766876 14.25247765
vertex -24.42180061 33.62214279 14.27104378
vertex -32.96939850 33.97766876 15.45894432
endloop
endfacet
facet normal -2.34911990 0.02897364 -16.91188049
outer loop
vertex -32.96939850 33.97766876 15.45894432
vertex -24.42180061 33.62214279 14.27104378
vertex -32.97563171 31.99937439 15.45642090
endloop
endfacet
facet normal -13.49354458 0.02894760 10.63685989
outer loop
vertex -32.96939850 33.97766876 15.45894432
vertex -32.97563171 31.99937439 15.45642090
vertex -27.59261513 33.97766876 22.27974129
endloop
endfacet
facet normal -4.57802296 0.14936489 3.56836367
outer loop
vertex -27.59261513 33.97766876 22.27974129
vertex -32.97563171 31.99937439 15.45642090
vertex -27.58747292 33.31666565 22.31400681
endloop
endfacet
facet normal 10.72974110 0.00000000 4.27000093
outer loop
vertex -27.59261513 35.31433105 22.27974129
vertex -27.59261513 33.97766876 22.27974129
vertex -24.39809036 35.62604904 14.25247765
endloop
endfacet
facet normal 13.23198318 0.00000000 5.26579142
outer loop
vertex -24.39809036 35.62604904 14.25247765
vertex -27.59261513 33.97766876 22.27974129
vertex -24.39809036 33.97766876 14.25247765
endloop
endfacet
facet normal -1.98871589 -0.00000000 -14.12877560
outer loop
vertex -24.39809036 35.62604904 14.25247765
vertex -24.39809036 33.97766876 14.25247765
vertex -32.96939850 34.00068665 15.45894432
endloop
endfacet
facet normal -0.02777031 -0.00000000 -0.19729337
outer loop
vertex -32.96939850 34.00068665 15.45894432
vertex -24.39809036 33.97766876 14.25247765
vertex -32.96939850 33.97766876 15.45894432
endloop
endfacet
facet normal -0.15700030 0.00000000 0.12376218
outer loop
vertex -32.96939850 34.00068665 15.45894432
vertex -32.96939850 33.97766876 15.45894432
vertex -27.59261513 35.31433105 22.27974129
endloop
endfacet
facet normal -9.11710167 0.00000000 7.18694353
outer loop
vertex -27.59261513 35.31433105 22.27974129
vertex -32.96939850 33.97766876 15.45894432
vertex -27.59261513 33.97766876 22.27974129
endloop
endfacet
facet normal 12.42792320 5.40291739 5.10311985
outer loop
vertex -28.18149567 36.86892319 22.06795502
vertex -27.59261513 35.31433105 22.27974129
vertex -24.89531326 36.85949326 14.07490921
endloop
endfacet
facet normal 9.84583092 4.55858612 4.09526157
outer loop
vertex -24.89531326 36.85949326 14.07490921
vertex -27.59261513 35.31433105 22.27974129
vertex -24.39809036 35.62604904 14.25247765
endloop
endfacet
facet normal -1.19635272 -2.12185025 -11.38901711
outer loop
vertex -24.89531326 36.85949326 14.07490921
vertex -24.39809036 35.62604904 14.25247765
vertex -32.97135162 33.98819733 15.45819378
endloop
endfacet
facet normal 0.01628785 -0.00878950 0.10387526
outer loop
vertex -32.97135162 33.98819733 15.45819378
vertex -24.39809036 35.62604904 14.25247765
vertex -32.96939850 34.00068665 15.45894432
endloop
endfacet
facet normal 0.08038931 -0.00931470 -0.05419562
outer loop
vertex -32.97135162 33.98819733 15.45819378
vertex -32.96939850 34.00068665 15.45894432
vertex -28.18149567 36.86892319 22.06795502
endloop
endfacet
facet normal -10.88176918 -2.87790561 9.13228416
outer loop
vertex -28.18149567 36.86892319 22.06795502
vertex -32.96939850 34.00068665 15.45894432
vertex -27.59261513 35.31433105 22.27974129
endloop
endfacet
facet normal 2.36240053 1.05780363 0.97000581
outer loop
vertex -28.29457855 37.16442490 22.02111435
vertex -28.18149567 36.86892319 22.06795502
vertex -25.12890625 37.46990204 13.97815132
endloop
endfacet
facet normal 4.87993813 2.18508339 2.00371194
outer loop
vertex -25.12890625 37.46990204 13.97815132
vertex -28.18149567 36.86892319 22.06795502
vertex -24.89531326 36.85949326 14.07490921
endloop
endfacet
facet normal -0.56654894 -1.10454619 -5.60039997
outer loop
vertex -25.12890625 37.46990204 13.97815132
vertex -24.89531326 36.85949326 14.07490921
vertex -33.68273544 35.84713364 15.16352844
endloop
endfacet
facet normal -1.72536647 -3.36377478 -17.05543518
outer loop
vertex -33.68273544 35.84713364 15.16352844
vertex -24.89531326 36.85949326 14.07490921
vertex -32.97135162 33.98819733 15.45819378
endloop
endfacet
facet normal -13.13597488 -3.29067230 10.95333958
outer loop
vertex -33.68273544 35.84713364 15.16352844
vertex -32.97135162 33.98819733 15.45819378
vertex -28.29457855 37.16442490 22.02111435
endloop
endfacet
facet normal -2.08813095 -0.52309084 1.74117148
outer loop
vertex -28.29457855 37.16442490 22.02111435
vertex -32.97135162 33.98819733 15.45819378
vertex -28.18149567 36.86892319 22.06795502
endloop
endfacet
facet normal 5.30604506 0.15073986 2.11158967
outer loop
vertex -28.29972076 37.82542801 21.98684883
vertex -28.29457855 37.16442490 22.02111435
vertex -25.10519791 37.82542801 13.95958710
endloop
endfacet
facet normal 2.85381126 -0.13191707 1.11823642
outer loop
vertex -25.10519791 37.82542801 13.95958710
vertex -28.29457855 37.16442490 22.02111435
vertex -25.12890625 37.46990204 13.97815132
endloop
endfacet
facet normal -0.42892921 -0.13051642 -3.04732275
outer loop
vertex -25.10519791 37.82542801 13.95958710
vertex -25.12890625 37.46990204 13.97815132
vertex -33.67650604 37.82542801 15.16605091
endloop
endfacet
facet normal -2.34911847 0.02896095 -16.91188240
outer loop
vertex -33.67650604 37.82542801 15.16605091
vertex -25.12890625 37.46990204 13.97815132
vertex -33.68273544 35.84713364 15.16352844
endloop
endfacet
facet normal -13.49354649 0.02892671 10.63686371
outer loop
vertex -33.67650604 37.82542801 15.16605091
vertex -33.68273544 35.84713364 15.16352844
vertex -28.29972076 37.82542801 21.98684883
endloop
endfacet
facet normal -4.57802296 0.14936483 3.56836224
outer loop
vertex -28.29972076 37.82542801 21.98684883
vertex -33.68273544 35.84713364 15.16352844
vertex -28.29457855 37.16442490 22.02111435
endloop
endfacet
facet normal 0.00000000 -21.75302505 0.00000000
outer loop
vertex -29.04185867 37.82542801 17.04223251
vertex -25.10519791 37.82542801 13.95958710
vertex -28.29972076 37.82542801 21.98684883
endloop
endfacet
facet normal 0.00000000 -21.67286491 -0.00000000
outer loop
vertex -29.04185867 37.82542801 17.04223251
vertex -33.67650604 37.82542801 15.16605091
vertex -25.10519791 37.82542801 13.95958710
endloop
endfacet
facet normal -0.00000000 -21.52416801 0.00000000
outer loop
vertex -29.04185867 37.82542801 17.04223251
vertex -28.29972076 37.82542801 21.98684883
vertex -33.67650604 37.82542801 15.16605091
endloop
endfacet
endsolid