solid (null).stl
facet normal 0.00000000 -0.00000000 0.86602539
outer loop
vertex 0.00000000 0.00000000 0.00000000
vertex 1.00000000 0.00000000 0.00000000
vertex -0.50000006 0.86602539 0.00000000
endloop
endfacet
facet normal 0.00000000 0.00000000 0.86602539
outer loop
vertex 0.00000000 0.00000000 0.00000000
vertex -0.50000006 0.86602539 0.00000000
vertex -0.49999991 -0.86602545 0.00000000
endloop
endfacet
facet normal -0.00000000 0.00000000 0.86602545
outer loop
vertex 0.00000000 0.00000000 0.00000000
vertex -0.49999991 -0.86602545 0.00000000
vertex 1.00000000 0.00000000 0.00000000
endloop
endfacet
facet normal 0.86602539 1.50000000 0.00000000
outer loop
vertex 1.00000000 0.00000000 1.00000000
vertex 1.00000000 0.00000000 0.00000000
vertex -0.50000006 0.86602539 1.00000000
endloop
endfacet
facet normal 0.86602539 1.50000000 0.00000000
outer loop
vertex -0.50000006 0.86602539 1.00000000
vertex 1.00000000 0.00000000 0.00000000
vertex -0.50000006 0.86602539 0.00000000
endloop
endfacet
facet normal -1.73205090 -0.00000015 -0.00000000
outer loop
vertex -0.50000006 0.86602539 1.00000000
vertex -0.50000006 0.86602539 0.00000000
vertex -0.49999991 -0.86602545 1.00000000
endloop
endfacet
facet normal -1.73205090 -0.00000015 -0.00000000
outer loop
vertex -0.49999991 -0.86602545 1.00000000
vertex -0.50000006 0.86602539 0.00000000
vertex -0.49999991 -0.86602545 0.00000000
endloop
endfacet
facet normal 0.86602545 -1.49999988 0.00000000
outer loop
vertex -0.49999991 -0.86602545 1.00000000
vertex -0.49999991 -0.86602545 0.00000000
vertex 1.00000000 0.00000000 1.00000000
endloop
endfacet
facet normal 0.86602545 -1.49999988 0.00000000
outer loop
vertex 1.00000000 0.00000000 1.00000000
vertex -0.49999991 -0.86602545 0.00000000
vertex 1.00000000 0.00000000 0.00000000
endloop
endfacet
facet normal 1.03828859 1.79836857 0.00000005
outer loop
vertex 0.99999994 0.00000000 2.19891238
vertex 1.00000000 0.00000000 1.00000000
vertex -0.50000012 0.86602539 2.07618189
endloop
endfacet
facet normal 0.93200082 1.61427283 0.00000005
outer loop
vertex -0.50000012 0.86602539 2.07618189
vertex 1.00000000 0.00000000 1.00000000
vertex -0.50000006 0.86602539 1.00000000
endloop
endfacet
facet normal -1.86400175 -0.00000017 -0.00000010
outer loop
vertex -0.50000012 0.86602539 2.07618189
vertex -0.50000006 0.86602539 1.00000000
vertex -0.49999994 -0.86602545 1.72490573
endloop
endfacet
facet normal -1.25557363 -0.00000011 -0.00000005
outer loop
vertex -0.49999994 -0.86602545 1.72490573
vertex -0.50000006 0.86602539 1.00000000
vertex -0.49999991 -0.86602545 1.00000000
endloop
endfacet
facet normal 0.62778682 -1.08735847 0.00000003
outer loop
vertex -0.49999994 -0.86602545 1.72490573
vertex -0.49999991 -0.86602545 1.00000000
vertex 0.99999994 0.00000000 2.19891238
endloop
endfacet
facet normal 1.03828859 -1.79836857 0.00000005
outer loop
vertex 0.99999994 0.00000000 2.19891238
vertex -0.49999991 -0.86602545 1.00000000
vertex 1.00000000 0.00000000 1.00000000
endloop
endfacet
facet normal 0.81983268 1.56339788 1.04345655
outer loop
vertex 0.57877666 -0.45280668 3.20829773
vertex 0.99999994 0.00000000 2.19891238
vertex -0.88582879 0.44997656 3.00639367
endloop
endfacet
facet normal 0.75452518 1.44267070 0.95821065
outer loop
vertex -0.88582879 0.44997656 3.00639367
vertex 0.99999994 0.00000000 2.19891238
vertex -0.50000012 0.86602539 2.07618189
endloop
endfacet
facet normal -1.75751328 0.13494033 -0.66861898
outer loop
vertex -0.88582879 0.44997656 3.00639367
vertex -0.50000012 0.86602539 2.07618189
vertex -0.75670874 -1.14373279 2.34535074
endloop
endfacet
facet normal -1.17219424 0.09017557 -0.44463274
outer loop
vertex -0.75670874 -1.14373279 2.34535074
vertex -0.50000012 0.86602539 2.07618189
vertex -0.49999994 -0.86602545 1.72490573
endloop
endfacet
facet normal 0.66832834 -1.05012131 -0.19350730
outer loop
vertex -0.75670874 -1.14373279 2.34535074
vertex -0.49999994 -0.86602545 1.72490573
vertex 0.57877666 -0.45280668 3.20829773
endloop
endfacet
facet normal 1.08878684 -1.71374059 -0.31441990
outer loop
vertex 0.57877666 -0.45280668 3.20829773
vertex -0.49999994 -0.86602545 1.72490573
vertex 0.99999994 0.00000000 2.19891238
endloop
endfacet
facet normal 0.56626582 1.07934928 0.71847212
outer loop
vertex 0.29000875 -0.76536685 3.90544510
vertex 0.57877666 -0.45280668 3.20829773
vertex -1.20766425 0.10162428 3.78337336
endloop
endfacet
facet normal 0.63111049 1.20294857 0.80074632
outer loop
vertex -1.20766425 0.10162428 3.78337336
vertex 0.57877666 -0.45280668 3.20829773
vertex -0.88582879 0.44997656 3.00639367
endloop
endfacet
facet normal -1.46855557 0.11242345 -0.55789143
outer loop
vertex -1.20766425 0.10162428 3.78337336
vertex -0.88582879 0.44997656 3.00639367
vertex -1.20687211 -1.63098621 3.43214130
endloop
endfacet
facet normal -2.05412364 0.15725085 -0.78034371
outer loop
vertex -1.20687211 -1.63098621 3.43214130
vertex -0.88582879 0.44997656 3.00639367
vertex -0.75670874 -1.14373279 2.34535074
endloop
endfacet
facet normal 1.17136586 -1.83986008 -0.33969021
outer loop
vertex -1.20687211 -1.63098621 3.43214130
vertex -0.75670874 -1.14373279 2.34535074
vertex 0.29000875 -0.76536685 3.90544510
endloop
endfacet
facet normal 0.75140017 -1.18022156 -0.21790227
outer loop
vertex 0.29000875 -0.76536685 3.90544510
vertex -0.75670874 -1.14373279 2.34535074
vertex 0.57877666 -0.45280668 3.20829773
endloop
endfacet
facet normal 0.69425923 1.20249224 -0.00249808
outer loop
vertex 0.29289329 -0.76536685 4.70710659
vertex 0.29000875 -0.76536685 3.90544510
vertex -1.20710671 0.10065860 4.70710659
endloop
endfacet
facet normal 0.80075061 1.38338220 0.00096290
outer loop
vertex -1.20710671 0.10065860 4.70710659
vertex 0.29000875 -0.76536685 3.90544510
vertex -1.20766425 0.10162428 3.78337336
endloop
endfacet
facet normal -1.59995294 -0.00000011 0.00096569
outer loop
vertex -1.20710671 0.10065860 4.70710659
vertex -1.20766425 0.10162428 3.78337336
vertex -1.20710659 -1.63139236 4.70710659
endloop
endfacet
facet normal -2.20916080 -0.00092760 -0.00040659
outer loop
vertex -1.20710659 -1.63139236 4.70710659
vertex -1.20766425 0.10162428 3.78337336
vertex -1.20687211 -1.63098621 3.43214130
endloop
endfacet
facet normal 1.10415244 -1.91244781 -0.00040615
outer loop
vertex -1.20710659 -1.63139236 4.70710659
vertex -1.20687211 -1.63098621 3.43214130
vertex 0.29289329 -0.76536685 4.70710659
endloop
endfacet
facet normal 0.69393373 -1.19862640 -0.00249691
outer loop
vertex 0.29289329 -0.76536685 4.70710659
vertex -1.20687211 -1.63098621 3.43214130
vertex 0.29000875 -0.76536685 3.90544510
endloop
endfacet
facet normal 1.03828883 1.79836893 0.00000005
outer loop
vertex 0.29289323 -0.76536685 5.90601921
vertex 0.29289329 -0.76536685 4.70710659
vertex -1.20710671 0.10065860 5.78328848
endloop
endfacet
facet normal 0.93200088 1.61427283 0.00000000
outer loop
vertex -1.20710671 0.10065860 5.78328848
vertex 0.29289329 -0.76536685 4.70710659
vertex -1.20710671 0.10065860 4.70710659
endloop
endfacet
facet normal -1.86400175 -0.00000013 -0.00000000
outer loop
vertex -1.20710671 0.10065860 5.78328848
vertex -1.20710671 0.10065860 4.70710659
vertex -1.20710659 -1.63139236 5.43201256
endloop
endfacet
facet normal -1.25557399 -0.00000009 -0.00000000
outer loop
vertex -1.20710659 -1.63139236 5.43201256
vertex -1.20710671 0.10065860 4.70710659
vertex -1.20710659 -1.63139236 4.70710659
endloop
endfacet
facet normal 0.62778705 -1.08735883 0.00000000
outer loop
vertex -1.20710659 -1.63139236 5.43201256
vertex -1.20710659 -1.63139236 4.70710659
vertex 0.29289323 -0.76536685 5.90601921
endloop
endfacet
facet normal 1.03828895 -1.79836881 0.00000005
outer loop
vertex 0.29289323 -0.76536685 5.90601921
vertex -1.20710659 -1.63139236 4.70710659
vertex 0.29289329 -0.76536685 4.70710659
endloop
endfacet
facet normal 0.81983250 1.56339729 1.04345608
outer loop
vertex -0.12833011 -1.21817338 6.91540432
vertex 0.29289323 -0.76536685 5.90601921
vertex -1.59293532 -0.31539023 6.71350050
endloop
endfacet
facet normal 0.75452530 1.44267094 0.95821059
outer loop
vertex -1.59293532 -0.31539023 6.71350050
vertex 0.29289323 -0.76536685 5.90601921
vertex -1.20710671 0.10065860 5.78328848
endloop
endfacet
facet normal -1.75751376 0.13494042 -0.66861892
outer loop
vertex -1.59293532 -0.31539023 6.71350050
vertex -1.20710671 0.10065860 5.78328848
vertex -1.46381533 -1.90909958 6.05245733
endloop
endfacet
facet normal -1.17219377 0.09017552 -0.44463265
outer loop
vertex -1.46381533 -1.90909958 6.05245733
vertex -1.20710671 0.10065860 5.78328848
vertex -1.20710659 -1.63139236 5.43201256
endloop
endfacet
facet normal 0.66832817 -1.05012083 -0.19350711
outer loop
vertex -1.46381533 -1.90909958 6.05245733
vertex -1.20710659 -1.63139236 5.43201256
vertex -0.12833011 -1.21817338 6.91540432
endloop
endfacet
facet normal 1.08878660 -1.71374011 -0.31441957
outer loop
vertex -0.12833011 -1.21817338 6.91540432
vertex -1.20710659 -1.63139236 5.43201256
vertex 0.29289323 -0.76536685 5.90601921
endloop
endfacet
facet normal 0.70377558 1.34145367 0.89294308
outer loop
vertex -0.48722133 -1.60663450 7.78184414
vertex -0.12833011 -1.21817338 6.91540432
vertex -1.88310611 -0.62946892 7.41403484
endloop
endfacet
facet normal 0.56901693 1.08459282 0.72196257
outer loop
vertex -1.88310611 -0.62946892 7.41403484
vertex -0.12833011 -1.21817338 6.91540432
vertex -1.59293532 -0.31539023 6.71350050
endloop
endfacet
facet normal -1.32406759 0.10136240 -0.50300169
outer loop
vertex -1.88310611 -0.62946892 7.41403484
vertex -1.59293532 -0.31539023 6.71350050
vertex -1.87530017 -2.35448766 7.04586983
endloop
endfacet
facet normal -1.87763143 0.14373982 -0.71329570
outer loop
vertex -1.87530017 -2.35448766 7.04586983
vertex -1.59293532 -0.31539023 6.71350050
vertex -1.46381533 -1.90909958 6.05245733
endloop
endfacet
facet normal 1.07072091 -1.68177712 -0.31050351
outer loop
vertex -1.87530017 -2.35448766 7.04586983
vertex -1.46381533 -1.90909958 6.05245733
vertex -0.48722133 -1.60663450 7.78184414
endloop
endfacet
facet normal 0.93386734 -1.46682167 -0.27081671
outer loop
vertex -0.48722133 -1.60663450 7.78184414
vertex -1.46381533 -1.90909958 6.05245733
vertex -0.12833011 -1.21817338 6.91540432
endloop
endfacet
facet normal 0.91641331 1.45197964 0.37959057
outer loop
vertex -0.87568218 -1.60663450 8.71967220
vertex -0.48722133 -1.60663450 7.78184414
vertex -2.19718480 -0.62946892 8.17228794
endloop
endfacet
facet normal 0.74093884 1.17395496 0.30690688
outer loop
vertex -2.19718480 -0.62946892 8.17228794
vertex -0.48722133 -1.60663450 7.78184414
vertex -1.88310611 -0.62946892 7.41403484
endloop
endfacet
facet normal -1.30800104 0.10971389 -0.54179168
outer loop
vertex -2.19718480 -0.62946892 8.17228794
vertex -1.88310611 -0.62946892 7.41403484
vertex -2.32068825 -2.35448790 8.12113190
endloop
endfacet
facet normal -1.85484731 0.15558288 -0.76830280
outer loop
vertex -2.32068825 -2.35448790 8.12113190
vertex -1.88310611 -0.62946892 7.41403484
vertex -1.87530017 -2.35448766 7.04586983
endloop
endfacet
facet normal 0.80413854 -1.82034302 0.33308464
outer loop
vertex -2.32068825 -2.35448790 8.12113190
vertex -1.87530017 -2.35448766 7.04586983
vertex -0.87568218 -1.60663450 8.71967220
endloop
endfacet
facet normal 0.70135766 -1.58767653 0.29051167
outer loop
vertex -0.87568218 -1.60663450 8.71967220
vertex -1.87530017 -2.35448766 7.04586983
vertex -0.48722133 -1.60663450 7.78184414
endloop
endfacet
facet normal 1.08184004 1.71408451 0.44811285
outer loop
vertex -1.33426654 -1.60663450 9.82679272
vertex -0.87568218 -1.60663450 8.71967220
vertex -2.54688764 -0.62946892 9.01654530
endloop
endfacet
facet normal 0.82497925 1.30711019 0.34171757
outer loop
vertex -2.54688764 -0.62946892 9.01654530
vertex -0.87568218 -1.60663450 8.71967220
vertex -2.19718480 -0.62946892 8.17228794
endloop
endfacet
facet normal -1.45635998 0.12215802 -0.60324401
outer loop
vertex -2.54688764 -0.62946892 9.01654530
vertex -2.19718480 -0.62946892 8.17228794
vertex -2.66021514 -2.35448790 8.94082260
endloop
endfacet
facet normal -1.41398203 0.11860347 -0.58569032
outer loop
vertex -2.66021514 -2.35448790 8.94082260
vertex -2.19718480 -0.62946892 8.17228794
vertex -2.32068825 -2.35448790 8.12113190
endloop
endfacet
facet normal 0.61300850 -1.38767838 0.25391635
outer loop
vertex -2.66021514 -2.35448790 8.94082260
vertex -2.32068825 -2.35448790 8.12113190
vertex -1.33426654 -1.60663450 9.82679272
endloop
endfacet
facet normal 0.82796383 -1.87427711 0.34295389
outer loop
vertex -1.33426654 -1.60663450 9.82679272
vertex -2.32068825 -2.35448790 8.12113190
vertex -0.87568218 -1.60663450 8.71967220
endloop
endfacet
facet normal 0.82800519 1.71408534 0.82800508
outer loop
vertex -2.18162036 -1.60663450 10.67414665
vertex -1.33426654 -1.60663450 9.82679272
vertex -3.19305420 -0.62946880 9.66271210
endloop
endfacet
facet normal 0.63141203 1.30711031 0.63141155
outer loop
vertex -3.19305420 -0.62946880 9.66271210
vertex -1.33426654 -1.60663450 9.82679272
vertex -2.54688764 -0.62946892 9.01654530
endloop
endfacet
facet normal -1.11465013 0.12215810 -1.11464965
outer loop
vertex -3.19305420 -0.62946880 9.66271210
vertex -2.54688764 -0.62946892 9.01654530
vertex -3.28757930 -2.35448790 9.56818676
endloop
endfacet
facet normal -1.08221507 0.11860332 -1.08221507
outer loop
vertex -3.28757930 -2.35448790 9.56818676
vertex -2.54688764 -0.62946892 9.01654530
vertex -2.66021514 -2.35448790 8.94082260
endloop
endfacet
facet normal 0.46917641 -1.38767862 0.46917641
outer loop
vertex -3.28757930 -2.35448790 9.56818676
vertex -2.66021514 -2.35448790 8.94082260
vertex -2.18162036 -1.60663450 10.67414665
endloop
endfacet
facet normal 0.63369650 -1.87427795 0.63369644
outer loop
vertex -2.18162036 -1.60663450 10.67414665
vertex -2.66021514 -2.35448790 8.94082260
vertex -1.33426654 -1.60663450 9.82679272
endloop
endfacet
facet normal 0.70139199 1.45197868 0.70139176
outer loop
vertex -2.89940214 -1.60663450 11.39192867
vertex -2.18162036 -1.60663450 10.67414665
vertex -3.77339578 -0.62946880 10.24305344
endloop
endfacet
facet normal 0.56708968 1.17395437 0.56708986
outer loop
vertex -3.77339578 -0.62946880 10.24305344
vertex -2.18162036 -1.60663450 10.67414665
vertex -3.19305420 -0.62946880 9.66271210
endloop
endfacet
facet normal -1.00109994 0.10971376 -1.00110030
outer loop
vertex -3.77339578 -0.62946880 10.24305344
vertex -3.19305420 -0.62946880 9.66271210
vertex -4.11054897 -2.35448790 10.39115620
endloop
endfacet
facet normal -1.41963804 0.15558273 -1.41963840
outer loop
vertex -4.11054897 -2.35448790 10.39115620
vertex -3.19305420 -0.62946880 9.66271210
vertex -3.28757930 -2.35448790 9.56818676
endloop
endfacet
facet normal 0.61546052 -1.82034230 0.61546069
outer loop
vertex -4.11054897 -2.35448790 10.39115620
vertex -3.28757930 -2.35448790 9.56818676
vertex -2.89940214 -1.60663450 11.39192867
endloop
endfacet
facet normal 0.53679574 -1.58767533 0.53679556
outer loop
vertex -2.89940214 -1.60663450 11.39192867
vertex -3.28757930 -2.35448790 9.56818676
vertex -2.18162036 -1.60663450 10.67414665
endloop
endfacet
facet normal 1.09429467 1.34145355 0.30848971
outer loop
vertex -3.56254649 -1.21817362 12.05507278
vertex -2.89940214 -1.60663450 11.39192867
vertex -4.30956173 -0.31538993 10.77921963
endloop
endfacet
facet normal 0.88476062 1.08459365 0.24942005
outer loop
vertex -4.30956173 -0.31538993 10.77921963
vertex -2.89940214 -1.60663450 11.39192867
vertex -3.77339578 -0.62946880 10.24305344
endloop
endfacet
facet normal -0.97141272 0.10136268 -1.03078914
outer loop
vertex -4.30956173 -0.31538993 10.77921963
vertex -3.77339578 -0.62946880 10.24305344
vertex -4.87087345 -1.90909994 11.15148067
endloop
endfacet
facet normal -1.37753749 0.14373970 -1.46173823
outer loop
vertex -4.87087345 -1.90909994 11.15148067
vertex -3.77339578 -0.62946880 10.24305344
vertex -4.11054897 -2.35448790 10.39115620
endloop
endfacet
facet normal 0.12287912 -1.68177629 1.10804129
outer loop
vertex -4.87087345 -1.90909994 11.15148067
vertex -4.11054897 -2.35448790 10.39115620
vertex -3.56254649 -1.21817362 12.05507278
endloop
endfacet
facet normal 0.10717362 -1.46682155 0.96641791
outer loop
vertex -3.56254649 -1.21817362 12.05507278
vertex -4.11054897 -2.35448790 10.39115620
vertex -2.89940214 -1.60663450 11.39192867
endloop
endfacet
facet normal 0.88161188 1.08073354 0.24853259
outer loop
vertex -4.09680462 -0.90521228 12.58933067
vertex -3.56254649 -1.21817362 12.05507278
vertex -5.01064301 0.09529415 11.48030090
endloop
endfacet
facet normal 1.15689731 1.41819525 0.32613748
outer loop
vertex -5.01064301 0.09529415 11.48030090
vertex -3.56254649 -1.21817362 12.05507278
vertex -4.30956173 -0.31538993 10.77921963
endloop
endfacet
facet normal -1.27020192 0.13253987 -1.34784198
outer loop
vertex -5.01064301 0.09529415 11.48030090
vertex -4.30956173 -0.31538993 10.77921963
vertex -5.59574127 -1.48448205 11.87634850
endloop
endfacet
facet normal -1.31329787 0.13703674 -1.39357209
outer loop
vertex -5.59574127 -1.48448205 11.87634850
vertex -4.30956173 -0.31538993 10.77921963
vertex -4.87087345 -1.90909994 11.15148067
endloop
endfacet
facet normal 0.11714903 -1.60334873 1.05636930
outer loop
vertex -5.59574127 -1.48448205 11.87634850
vertex -4.87087345 -1.90909994 11.15148067
vertex -4.09680462 -0.90521228 12.58933067
endloop
endfacet
facet normal 0.08634341 -1.18173540 0.77858871
outer loop
vertex -4.09680462 -0.90521228 12.58933067
vertex -4.87087345 -1.90909994 11.15148067
vertex -3.56254649 -1.21817362 12.05507278
endloop
endfacet
facet normal 1.04724622 0.96063304 0.00346971
outer loop
vertex -4.38699389 -0.59138578 13.28896046
vertex -4.09680462 -0.90521228 12.58933067
vertex -5.38547993 0.50038821 12.38588619
endloop
endfacet
facet normal 1.35530531 1.24326396 0.00483626
outer loop
vertex -5.38547993 0.50038821 12.38588619
vertex -4.09680462 -0.90521228 12.58933067
vertex -5.01064301 0.09529415 11.48030090
endloop
endfacet
facet normal -1.59092140 0.38247526 -0.82960111
outer loop
vertex -5.38547993 0.50038821 12.38588619
vertex -5.01064301 0.09529415 11.48030090
vertex -5.99267435 -1.05663633 12.83245659
endloop
endfacet
facet normal -1.67988396 0.40221280 -0.87739718
outer loop
vertex -5.99267435 -1.05663633 12.83245659
vertex -5.01064301 0.09529415 11.48030090
vertex -5.59574127 -1.48448205 11.87634850
endloop
endfacet
facet normal 0.24951659 -1.71640551 0.87165689
outer loop
vertex -5.99267435 -1.05663633 12.83245659
vertex -5.59574127 -1.48448205 11.87634850
vertex -4.38699389 -0.59138578 13.28896046
endloop
endfacet
facet normal 0.18152168 -1.25560045 0.63850391
outer loop
vertex -4.38699389 -0.59138578 13.28896046
vertex -5.59574127 -1.48448205 11.87634850
vertex -4.09680462 -0.90521228 12.58933067
endloop
endfacet
facet normal 1.46836853 1.34660649 0.00447828
outer loop
vertex -4.79337740 -0.15151924 14.27005768
vertex -4.38699389 -0.59138578 13.28896046
vertex -5.78429842 0.93206632 13.34871960
endloop
endfacet
facet normal 1.44103372 1.32153845 0.00439507
outer loop
vertex -5.78429842 0.93206632 13.34871960
vertex -4.38699389 -0.59138578 13.28896046
vertex -5.38547993 0.50038821 12.38588619
endloop
endfacet
facet normal -1.69192970 0.40652680 -0.88308275
outer loop
vertex -5.78429842 0.93206632 13.34871960
vertex -5.38547993 0.50038821 12.38588619
vertex -6.24789810 -0.78038418 13.44862080
endloop
endfacet
facet normal -1.08274889 0.26015610 -0.56512845
outer loop
vertex -6.24789810 -0.78038418 13.44862080
vertex -5.38547993 0.50038821 12.38588619
vertex -5.99267435 -1.05663633 12.83245659
endloop
endfacet
facet normal 0.16056037 -1.10587382 0.56231570
outer loop
vertex -6.24789810 -0.78038418 13.44862080
vertex -5.99267435 -1.05663633 12.83245659
vertex -4.79337740 -0.15151924 14.27005768
endloop
endfacet
facet normal 0.25565523 -1.76084423 0.89535528
outer loop
vertex -4.79337740 -0.15151924 14.27005768
vertex -5.99267435 -1.05663633 12.83245659
vertex -4.38699389 -0.59138578 13.28896046
endloop
endfacet
facet normal 0.89366847 1.57807255 0.89059663
outer loop
vertex -5.61566925 -0.15190107 15.09586239
vertex -4.79337740 -0.15151924 14.27005768
vertex -6.57318163 0.93072063 14.13835049
endloop
endfacet
facet normal 0.85439277 1.50928998 0.85615593
outer loop
vertex -6.57318163 0.93072063 14.13835049
vertex -4.79337740 -0.15151924 14.27005768
vertex -5.78429842 0.93206632 13.34871960
endloop
endfacet
facet normal -1.35210669 0.28845462 -1.35033488
outer loop
vertex -6.57318163 0.93072063 14.13835049
vertex -5.78429842 0.93206632 13.34871960
vertex -6.75591946 -0.78129542 13.95561218
endloop
endfacet
facet normal -0.86810660 0.18428913 -0.86953896
outer loop
vertex -6.75591946 -0.78129542 13.95561218
vertex -5.78429842 0.93206632 13.34871960
vertex -6.24789810 -0.78038418 13.44862080
endloop
endfacet
facet normal 0.32013655 -1.15736842 0.31870675
outer loop
vertex -6.75591946 -0.78129542 13.95561218
vertex -6.24789810 -0.78038418 13.44862080
vertex -5.61566925 -0.15190107 15.09586239
endloop
endfacet
facet normal 0.51963329 -1.87661088 0.51655513
outer loop
vertex -5.61566925 -0.15190107 15.09586239
vertex -6.24789810 -0.78038418 13.44862080
vertex -4.79337740 -0.15151924 14.27005768
endloop
endfacet
facet normal 0.91603494 1.62035286 0.91603494
outer loop
vertex -6.46179581 -0.15190107 15.94198895
vertex -5.61566925 -0.15190107 15.09586239
vertex -7.22884703 0.93072063 14.79401588
endloop
endfacet
facet normal 0.70983756 1.25561512 0.70983756
outer loop
vertex -7.22884703 0.93072063 14.79401588
vertex -5.61566925 -0.15190107 15.09586239
vertex -6.57318163 0.93072063 14.13835049
endloop
endfacet
facet normal -1.12250972 0.23962975 -1.12250972
outer loop
vertex -7.22884703 0.93072063 14.79401588
vertex -6.57318163 0.93072063 14.13835049
vertex -7.37523603 -0.78129542 14.57492924
endloop
endfacet
facet normal -1.06028080 0.22634551 -1.06027997
outer loop
vertex -7.37523603 -0.78129542 14.57492924
vertex -6.57318163 0.93072063 14.13835049
vertex -6.75591946 -0.78129542 13.95561218
endloop
endfacet
facet normal 0.38979465 -1.41235185 0.38979435
outer loop
vertex -7.37523603 -0.78129542 14.57492924
vertex -6.75591946 -0.78129542 13.95561218
vertex -6.46179581 -0.15190107 15.94198895
endloop
endfacet
facet normal 0.53254730 -1.92959201 0.53254730
outer loop
vertex -6.46179581 -0.15190107 15.94198895
vertex -6.75591946 -0.78129542 13.95561218
vertex -5.61566925 -0.15190107 15.09586239
endloop
endfacet
facet normal 0.49575517 1.62035418 1.19685805
outer loop
vertex -7.56731415 -0.15190110 16.39990997
vertex -6.46179581 -0.15190107 15.94198895
vertex -8.08551598 0.93072051 15.14885998
endloop
endfacet
facet normal 0.38416177 1.25561643 0.92744845
outer loop
vertex -8.08551598 0.93072051 15.14885998
vertex -6.46179581 -0.15190107 15.94198895
vertex -7.22884703 0.93072063 14.79401588
endloop
endfacet
facet normal -0.60749865 0.23963046 -1.46663058
outer loop
vertex -8.08551598 0.93072051 15.14885998
vertex -7.22884703 0.93072063 14.79401588
vertex -8.18441296 -0.78129512 14.91010094
endloop
endfacet
facet normal -0.57381928 0.22634530 -1.38532388
outer loop
vertex -8.18441296 -0.78129512 14.91010094
vertex -7.22884703 0.93072063 14.79401588
vertex -7.37523603 -0.78129542 14.57492924
endloop
endfacet
facet normal 0.21095462 -1.41235316 0.50929135
outer loop
vertex -8.18441296 -0.78129512 14.91010094
vertex -7.37523603 -0.78129542 14.57492924
vertex -7.56731415 -0.15190110 16.39990997
endloop
endfacet
facet normal 0.28821295 -1.92959309 0.69580692
outer loop
vertex -7.56731415 -0.15190110 16.39990997
vertex -7.37523603 -0.78129542 14.57492924
vertex -6.46179581 -0.15190107 15.94198895
endloop
endfacet
facet normal 0.34561053 1.12961483 0.83437902
outer loop
vertex -8.33801651 -0.15190110 16.71914482
vertex -7.56731415 -0.15190110 16.39990997
vertex -8.90221596 0.93072051 15.48714828
endloop
endfacet
facet normal 0.36623821 1.19703412 0.88417703
outer loop
vertex -8.90221596 0.93072051 15.48714828
vertex -7.56731415 -0.15190110 16.39990997
vertex -8.08551598 0.93072051 15.14885998
endloop
endfacet
facet normal -0.57915485 0.22845052 -1.39820313
outer loop
vertex -8.90221596 0.93072051 15.48714828
vertex -8.08551598 0.93072051 15.14885998
vertex -9.36938763 -0.78129512 15.40093327
endloop
endfacet
facet normal -0.84031260 0.33146524 -2.02869511
outer loop
vertex -9.36938763 -0.78129512 15.40093327
vertex -8.08551598 0.93072051 15.14885998
vertex -8.18441296 -0.78129512 14.91010094
endloop
endfacet
facet normal 0.30892694 -2.06827760 0.74581599
outer loop
vertex -9.36938763 -0.78129512 15.40093327
vertex -8.18441296 -0.78129512 14.91010094
vertex -8.33801651 -0.15190110 16.71914482
endloop
endfacet
facet normal 0.20092452 -1.34519887 0.48507547
outer loop
vertex -8.33801651 -0.15190110 16.71914482
vertex -8.18441296 -0.78129512 14.91010094
vertex -7.56731415 -0.15190110 16.39990997
endloop
endfacet
facet normal 1.00074184 0.99687833 0.42012054
outer loop
vertex -8.89501667 0.17398113 17.27267265
vertex -8.33801651 -0.15190110 16.71914482
vertex -9.47190571 1.26575530 16.05623817
endloop
endfacet
facet normal 1.02887070 1.02293599 0.42773202
outer loop
vertex -9.47190571 1.26575530 16.05623817
vertex -8.33801651 -0.15190110 16.71914482
vertex -8.90221596 0.93072051 15.48714828
endloop
endfacet
facet normal -0.94646406 0.31383470 -1.13222253
outer loop
vertex -9.47190571 1.26575530 16.05623817
vertex -8.90221596 0.93072051 15.48714828
vertex -10.20377541 -0.29126900 16.23645020
endloop
endfacet
facet normal -1.38817036 0.46226656 -1.65741134
outer loop
vertex -10.20377541 -0.29126900 16.23645020
vertex -8.90221596 0.93072051 15.48714828
vertex -9.36938763 -0.78129512 15.40093327
endloop
endfacet
facet normal -0.11905172 -1.95810151 1.02952504
outer loop
vertex -10.20377541 -0.29126900 16.23645020
vertex -9.36938763 -0.78129512 15.40093327
vertex -8.89501667 0.17398113 17.27267265
endloop
endfacet
facet normal -0.08119458 -1.30513668 0.68667805
outer loop
vertex -8.89501667 0.17398113 17.27267265
vertex -9.36938763 -0.78129512 15.40093327
vertex -8.33801651 -0.15190110 16.71914482
endloop
endfacet
facet normal 1.39099813 1.38250113 0.58114737
outer loop
vertex -9.66593266 0.62557352 18.04358864
vertex -8.89501667 0.17398113 17.27267265
vertex -10.08568764 1.62530053 16.67002106
endloop
endfacet
facet normal 1.10747552 1.10071015 0.46269360
outer loop
vertex -10.08568764 1.62530053 16.67002106
vertex -8.89501667 0.17398113 17.27267265
vertex -9.47190571 1.26575530 16.05623817
endloop
endfacet
facet normal -1.02046883 0.33859879 -1.21881354
outer loop
vertex -10.08568764 1.62530053 16.67002106
vertex -9.47190571 1.26575530 16.05623817
vertex -10.77846527 0.04537678 16.81114006
endloop
endfacet
facet normal -0.95547372 0.31703207 -1.14118695
outer loop
vertex -10.77846527 0.04537678 16.81114006
vertex -9.47190571 1.26575530 16.05623817
vertex -10.20377541 -0.29126900 16.23645020
endloop
endfacet
facet normal -0.08146542 -1.34763694 0.70796263
outer loop
vertex -10.77846527 0.04537678 16.81114006
vertex -10.20377541 -0.29126900 16.23645020
vertex -9.66593266 0.62557352 18.04358864
endloop
endfacet
facet normal -0.10928142 -1.80778348 0.94969428
outer loop
vertex -9.66593266 0.62557352 18.04358864
vertex -10.20377541 -0.29126900 16.23645020
vertex -8.89501667 0.17398113 17.27267265
endloop
endfacet
facet normal 1.04014540 1.56205606 0.81946397
outer loop
vertex -10.67480755 1.07792735 18.46187973
vertex -9.66593266 0.62557352 18.04358864
vertex -10.87671089 1.98071098 16.99727631
endloop
endfacet
facet normal 0.81534618 1.22389090 0.64162195
outer loop
vertex -10.87671089 1.98071098 16.99727631
vertex -9.66593266 0.62557352 18.04358864
vertex -10.08568764 1.62530053 16.67002106
endloop
endfacet
facet normal -0.56743973 0.11419484 -1.49560344
outer loop
vertex -10.87671089 1.98071098 16.99727631
vertex -10.08568764 1.62530053 16.67002106
vertex -11.53775501 0.38700116 17.12639427
endloop
endfacet
facet normal -0.54628730 0.11125085 -1.43628955
outer loop
vertex -11.53775501 0.38700116 17.12639427
vertex -10.08568764 1.62530053 16.67002106
vertex -10.77846527 0.04537678 16.81114006
endloop
endfacet
facet normal -0.23841700 -1.28606820 0.81941700
outer loop
vertex -11.53775501 0.38700116 17.12639427
vertex -10.77846527 0.04537678 16.81114006
vertex -10.67480755 1.07792735 18.46187973
endloop
endfacet
facet normal -0.31481171 -1.70874882 1.08860433
outer loop
vertex -10.67480755 1.07792735 18.46187973
vertex -10.77846527 0.04537678 16.81114006
vertex -9.66593266 0.62557352 18.04358864
endloop
endfacet
facet normal 0.89294189 1.34145176 0.70377594
outer loop
vertex -11.54124737 1.46638846 18.82077026
vertex -10.67480755 1.07792735 18.46187973
vertex -11.57724571 2.29478979 17.28744698
endloop
endfacet
facet normal 0.72196221 1.08459210 0.56901777
outer loop
vertex -11.57724571 2.29478979 17.28744698
vertex -10.67480755 1.07792735 18.46187973
vertex -10.87671089 1.98071098 16.99727631
endloop
endfacet
facet normal -0.50300145 0.10136296 -1.32406902
outer loop
vertex -11.57724571 2.29478979 17.28744698
vertex -10.87671089 1.98071098 16.99727631
vertex -12.53116703 0.83238906 17.53787994
endloop
endfacet
facet normal -0.71329629 0.14374286 -1.87763143
outer loop
vertex -12.53116703 0.83238906 17.53787994
vertex -10.87671089 1.98071098 16.99727631
vertex -11.53775501 0.38700116 17.12639427
endloop
endfacet
facet normal -0.31050217 -1.68177640 1.07072091
outer loop
vertex -12.53116703 0.83238906 17.53787994
vertex -11.53775501 0.38700116 17.12639427
vertex -11.54124737 1.46638846 18.82077026
endloop
endfacet
facet normal -0.27081731 -1.46682143 0.93386745
outer loop
vertex -11.54124737 1.46638846 18.82077026
vertex -11.53775501 0.38700116 17.12639427
vertex -10.67480755 1.07792735 18.46187973
endloop
endfacet
facet normal 1.32814205 1.02670157 0.52350950
outer loop
vertex -12.20439053 2.18417072 19.09545517
vertex -11.54124737 1.46638846 18.82077026
vertex -12.11341095 2.87513161 17.50953484
endloop
endfacet
facet normal 1.07382953 0.83010948 0.42326868
outer loop
vertex -12.11341095 2.87513161 17.50953484
vertex -11.54124737 1.46638846 18.82077026
vertex -11.57724571 2.29478979 17.28744698
endloop
endfacet
facet normal -0.47011811 0.07758114 -1.33768940
outer loop
vertex -12.11341095 2.87513161 17.50953484
vertex -11.57724571 2.29478979 17.28744698
vertex -13.29149151 1.65535843 17.85281754
endloop
endfacet
facet normal -0.66666365 0.11001539 -1.89694715
outer loop
vertex -13.29149151 1.65535843 17.85281754
vertex -11.57724571 2.29478979 17.28744698
vertex -12.53116703 0.83238906 17.53787994
endloop
endfacet
facet normal -0.85610986 -1.28717685 1.29671979
outer loop
vertex -13.29149151 1.65535843 17.85281754
vertex -12.53116703 0.83238906 17.53787994
vertex -12.20439053 2.18417072 19.09545517
endloop
endfacet
facet normal -0.74668592 -1.12265587 1.13097906
outer loop
vertex -12.20439053 2.18417072 19.09545517
vertex -12.53116703 0.83238906 17.53787994
vertex -11.54124737 1.46638846 18.82077026
endloop
endfacet
facet normal 1.50784636 1.16562188 0.59434408
outer loop
vertex -12.95726204 2.99907351 19.40730476
vertex -12.20439053 2.18417072 19.09545517
vertex -12.83095360 3.65179443 17.80675125
endloop
endfacet
facet normal 1.43709040 1.11092484 0.56645435
outer loop
vertex -12.83095360 3.65179443 17.80675125
vertex -12.20439053 2.18417072 19.09545517
vertex -12.11341095 2.87513161 17.50953484
endloop
endfacet
facet normal -0.62915117 0.10382515 -1.79021049
outer loop
vertex -12.83095360 3.65179443 17.80675125
vertex -12.11341095 2.87513161 17.50953484
vertex -13.78078270 2.18496394 18.05548859
endloop
endfacet
facet normal -0.42901713 0.07079762 -1.22074223
outer loop
vertex -13.78078270 2.18496394 18.05548859
vertex -12.11341095 2.87513161 17.50953484
vertex -13.29149151 1.65535843 17.85281754
endloop
endfacet
facet normal -0.55093282 -0.82833552 0.83447772
outer loop
vertex -13.78078270 2.18496394 18.05548859
vertex -13.29149151 1.65535843 17.85281754
vertex -12.95726204 2.99907351 19.40730476
endloop
endfacet
facet normal -0.84771895 -1.27455842 1.28400934
outer loop
vertex -12.95726204 2.99907351 19.40730476
vertex -13.29149151 1.65535843 17.85281754
vertex -12.20439053 2.18417072 19.09545517
endloop
endfacet
facet normal 0.73954755 1.76906693 0.77372926
outer loop
vertex -14.05998993 3.45693302 19.41445923
vertex -12.95726204 2.99907351 19.40730476
vertex -13.81200600 4.05561876 17.80858612
endloop
endfacet
facet normal 0.64754015 1.56999505 0.69135976
outer loop
vertex -13.81200600 4.05561876 17.80858612
vertex -12.95726204 2.99907351 19.40730476
vertex -12.83095360 3.65179443 17.80675125
endloop
endfacet
facet normal -0.10245543 -0.24062733 -1.82191730
outer loop
vertex -13.81200600 4.05561876 17.80858612
vertex -12.83095360 3.65179443 17.80675125
vertex -14.46919250 2.46902728 18.05508995
endloop
endfacet
facet normal -0.07007243 -0.17161186 -1.27959216
outer loop
vertex -14.46919250 2.46902728 18.05508995
vertex -12.83095360 3.65179443 17.80675125
vertex -13.78078270 2.18496394 18.05548859
endloop
endfacet
facet normal -0.38654077 -0.93563998 0.79632342
outer loop
vertex -14.46919250 2.46902728 18.05508995
vertex -13.78078270 2.18496394 18.05548859
vertex -14.05998993 3.45693302 19.41445923
endloop
endfacet
facet normal -0.61311740 -1.49657726 1.27479815
outer loop
vertex -14.05998993 3.45693302 19.41445923
vertex -13.78078270 2.18496394 18.05548859
vertex -12.95726204 2.99907351 19.40730476
endloop
endfacet
facet normal 0.49445093 1.19371057 0.52138227
outer loop
vertex -14.80333042 3.76483464 19.41445923
vertex -14.05998993 3.45693302 19.41445923
vertex -14.67977810 4.41506195 17.80858612
endloop
endfacet
facet normal 0.57722014 1.39353192 0.60865891
outer loop
vertex -14.67977810 4.41506195 17.80858612
vertex -14.05998993 3.45693302 19.41445923
vertex -13.81200600 4.05561876 17.80858612
endloop
endfacet
facet normal -0.08860412 -0.21390915 -1.61302137
outer loop
vertex -14.67977810 4.41506195 17.80858612
vertex -13.81200600 4.05561876 17.80858612
vertex -15.62918091 2.94951010 18.05508995
endloop
endfacet
facet normal -0.11844085 -0.28594157 -2.15619445
outer loop
vertex -15.62918091 2.94951010 18.05508995
vertex -13.81200600 4.05561876 17.80858612
vertex -14.46919250 2.46902728 18.05508995
endloop
endfacet
facet normal -0.65315360 -1.57685256 1.34257400
outer loop
vertex -15.62918091 2.94951010 18.05508995
vertex -14.46919250 2.46902728 18.05508995
vertex -14.80333042 3.76483464 19.41445923
endloop
endfacet
facet normal -0.41855201 -1.01047421 0.86034447
outer loop
vertex -14.80333042 3.76483464 19.41445923
vertex -14.46919250 2.46902728 18.05508995
vertex -14.05998993 3.45693302 19.41445923
endloop
endfacet
facet normal 1.10336447 0.86057866 0.43823624
outer loop
vertex -15.35871315 4.36375237 19.63665390
vertex -14.80333042 3.76483464 19.41445923
vertex -15.26773357 5.05471182 18.05073166
endloop
endfacet
facet normal 1.18464613 0.91426426 0.46133494
outer loop
vertex -15.26773357 5.05471182 18.05073166
vertex -14.80333042 3.76483464 19.41445923
vertex -14.67977810 4.41506195 17.80858612
endloop
endfacet
facet normal -0.51494294 0.08343202 -1.47073030
outer loop
vertex -15.26773357 5.05471182 18.05073166
vertex -14.67977810 4.41506195 17.80858612
vertex -16.44581413 3.83494043 18.39401436
endloop
endfacet
facet normal -0.71497321 0.12047255 -2.03744841
outer loop
vertex -16.44581413 3.83494043 18.39401436
vertex -14.67977810 4.41506195 17.80858612
vertex -15.62918091 2.94951010 18.05508995
endloop
endfacet
facet normal -0.92104346 -1.38322580 1.39439762
outer loop
vertex -16.44581413 3.83494043 18.39401436
vertex -15.62918091 2.94951010 18.05508995
vertex -15.35871315 4.36375237 19.63665390
endloop
endfacet
facet normal -0.63298965 -0.93846983 0.94743371
outer loop
vertex -15.35871315 4.36375237 19.63665390
vertex -15.62918091 2.94951010 18.05508995
vertex -14.80333042 3.76483464 19.41445923
endloop
endfacet
facet normal 1.18377352 0.91510236 0.46660388
outer loop
vertex -15.94977379 5.00351191 19.88147926
vertex -15.35871315 4.36375237 19.63665390
vertex -15.82994652 5.66324663 18.28360748
endloop
endfacet
facet normal 1.12599659 0.87043905 0.44383058
outer loop
vertex -15.82994652 5.66324663 18.28360748
vertex -15.35871315 4.36375237 19.63665390
vertex -15.26773357 5.05471182 18.05073166
endloop
endfacet
facet normal -0.49295533 0.08134796 -1.40267432
outer loop
vertex -15.82994652 5.66324663 18.28360748
vertex -15.26773357 5.05471182 18.05073166
vertex -17.25238991 4.70797157 18.72810936
endloop
endfacet
facet normal -0.70721602 0.11670732 -2.01233912
outer loop
vertex -17.25238991 4.70797157 18.72810936
vertex -15.26773357 5.05471182 18.05073166
vertex -16.44581413 3.83494043 18.39401436
endloop
endfacet
facet normal -0.90818930 -1.36547780 1.37560010
outer loop
vertex -17.25238991 4.70797157 18.72810936
vertex -16.44581413 3.83494043 18.39401436
vertex -15.94977379 5.00351191 19.88147926
endloop
endfacet
facet normal -0.66552389 -1.00062525 1.00804317
outer loop
vertex -15.94977379 5.00351191 19.88147926
vertex -16.44581413 3.83494043 18.39401436
vertex -15.35871315 4.36375237 19.63665390
endloop
endfacet
facet normal 1.60582256 0.39033720 0.28631398
outer loop
vertex -16.21406364 5.90084887 20.14042091
vertex -15.94977379 5.00351191 19.88147926
vertex -16.05035782 6.42835569 18.50309944
endloop
endfacet
facet normal 1.36735260 0.32588786 0.23709390
outer loop
vertex -16.05035782 6.42835569 18.50309944
vertex -15.94977379 5.00351191 19.88147926
vertex -15.82994652 5.66324663 18.28360748
endloop
endfacet
facet normal -0.55549210 0.21223100 -1.29761744
outer loop
vertex -16.05035782 6.42835569 18.50309944
vertex -15.82994652 5.66324663 18.28360748
vertex -17.57144165 5.82120705 19.05495262
endloop
endfacet
facet normal -0.80706048 0.32309693 -1.88829660
outer loop
vertex -17.57144165 5.82120705 19.05495262
vertex -15.82994652 5.66324663 18.28360748
vertex -17.25238991 4.70797157 18.72810936
endloop
endfacet
facet normal -1.18235135 -0.78997040 1.53649116
outer loop
vertex -17.57144165 5.82120705 19.05495262
vertex -17.25238991 4.70797157 18.72810936
vertex -16.21406364 5.90084887 20.14042091
endloop
endfacet
facet normal -0.95843375 -0.64212549 1.24699390
outer loop
vertex -16.21406364 5.90084887 20.14042091
vertex -17.25238991 4.70797157 18.72810936
vertex -15.94977379 5.00351191 19.88147926
endloop
endfacet
facet normal 1.70387411 0.41042668 0.30258971
outer loop
vertex -16.49258041 6.85176468 20.41893768
vertex -16.21406364 5.90084887 20.14042091
vertex -16.36832428 7.51396036 18.82106590
endloop
endfacet
facet normal 1.94521332 0.46856034 0.34544933
outer loop
vertex -16.36832428 7.51396036 18.82106590
vertex -16.21406364 5.90084887 20.14042091
vertex -16.05035782 6.42835569 18.50309944
endloop
endfacet
facet normal -0.79214746 0.30818284 -1.84434867
outer loop
vertex -16.36832428 7.51396036 18.82106590
vertex -16.05035782 6.42835569 18.50309944
vertex -17.78740883 6.55856419 19.27091980
endloop
endfacet
facet normal -0.53803706 0.20932201 -1.25270617
outer loop
vertex -17.78740883 6.55856419 19.27091980
vertex -16.05035782 6.42835569 18.50309944
vertex -17.57144165 5.82120705 19.05495262
endloop
endfacet
facet normal -0.78317750 -0.52757460 1.01807261
outer loop
vertex -17.78740883 6.55856419 19.27091980
vertex -17.57144165 5.82120705 19.05495262
vertex -16.49258041 6.85176468 20.41893768
endloop
endfacet
facet normal -1.01000738 -0.68037367 1.31293380
outer loop
vertex -16.49258041 6.85176468 20.41893768
vertex -17.57144165 5.82120705 19.05495262
vertex -16.21406364 5.90084887 20.14042091
endloop
endfacet
facet normal 1.43480241 1.10487294 0.56368625
outer loop
vertex -17.20647240 7.62572336 20.71904755
vertex -16.49258041 6.85176468 20.41893768
vertex -17.11549187 8.31668377 19.13312531
endloop
endfacet
facet normal 1.48929346 1.15510273 0.59451449
outer loop
vertex -17.11549187 8.31668377 19.13312531
vertex -16.49258041 6.85176468 20.41893768
vertex -16.36832428 7.51396036 18.82106590
endloop
endfacet
facet normal -0.65620065 0.11114252 -1.85704565
outer loop
vertex -17.11549187 8.31668377 19.13312531
vertex -16.36832428 7.51396036 18.82106590
vertex -18.29357147 7.09691238 19.47640610
endloop
endfacet
facet normal -0.43849885 0.06390318 -1.24754751
outer loop
vertex -18.29357147 7.09691238 19.47640610
vertex -16.36832428 7.51396036 18.82106590
vertex -17.78740883 6.55856419 19.27091980
endloop
endfacet
facet normal -0.56031036 -0.85236263 0.85290217
outer loop
vertex -18.29357147 7.09691238 19.47640610
vertex -17.78740883 6.55856419 19.27091980
vertex -17.20647240 7.62572336 20.71904755
endloop
endfacet
facet normal -0.80052608 -1.20815158 1.21145725
outer loop
vertex -17.20647240 7.62572336 20.71904755
vertex -17.78740883 6.55856419 19.27091980
vertex -16.49258041 6.85176468 20.41893768
endloop
endfacet
facet normal 1.49107134 1.15265608 0.58773226
outer loop
vertex -17.95096779 8.43155861 21.02742767
vertex -17.20647240 7.62572336 20.71904755
vertex -17.72363853 8.97493649 19.38502693
endloop
endfacet
facet normal 1.21799171 0.94155520 0.48009342
outer loop
vertex -17.72363853 8.97493649 19.38502693
vertex -17.20647240 7.62572336 20.71904755
vertex -17.11549187 8.31668377 19.13312531
endloop
endfacet
facet normal -0.53322887 0.08799393 -1.51727343
outer loop
vertex -17.72363853 8.97493649 19.38502693
vertex -17.11549187 8.31668377 19.13312531
vertex -18.90048409 7.75383043 19.72779846
endloop
endfacet
facet normal -0.53214854 0.08781877 -1.51419640
outer loop
vertex -18.90048409 7.75383043 19.72779846
vertex -17.11549187 8.31668377 19.13312531
vertex -18.29357147 7.09691238 19.47640610
endloop
endfacet
facet normal -0.68337417 -1.02746248 1.03507614
outer loop
vertex -18.90048409 7.75383043 19.72779846
vertex -18.29357147 7.09691238 19.47640610
vertex -17.95096779 8.43155861 21.02742767
endloop
endfacet
facet normal -0.83828938 -1.26038063 1.26972008
outer loop
vertex -17.95096779 8.43155861 21.02742767
vertex -18.29357147 7.09691238 19.47640610
vertex -17.20647240 7.62572336 20.71904755
endloop
endfacet
facet normal 1.32249939 1.32271206 0.62148643
outer loop
vertex -18.75596237 9.23650265 21.02725983
vertex -17.95096779 8.43155861 21.02742767
vertex -18.36993027 9.62253284 19.38420868
endloop
endfacet
facet normal 1.06316805 1.06165600 0.49839821
outer loop
vertex -18.36993027 9.62253284 19.38420868
vertex -17.95096779 8.43155861 21.02742767
vertex -17.72363853 8.97493649 19.38502693
endloop
endfacet
facet normal -0.22174758 -0.22326091 -1.55125690
outer loop
vertex -18.36993027 9.62253284 19.38420868
vertex -17.72363853 8.97493649 19.38502693
vertex -19.56884193 8.42362213 19.72813988
endloop
endfacet
facet normal -0.23000243 -0.22869225 -1.60437727
outer loop
vertex -19.56884193 8.42362213 19.72813988
vertex -17.72363853 8.97493649 19.38502693
vertex -18.90048409 7.75383043 19.72779846
endloop
endfacet
facet normal -0.86986226 -0.86855453 1.08775508
outer loop
vertex -19.56884193 8.42362213 19.72813988
vertex -18.90048409 7.75383043 19.72779846
vertex -18.75596237 9.23650265 21.02725983
endloop
endfacet
facet normal -1.04624259 -1.04603517 1.30987501
outer loop
vertex -18.75596237 9.23650265 21.02725983
vertex -18.90048409 7.75383043 19.72779846
vertex -17.95096779 8.43155861 21.02742767
endloop
endfacet
facet normal 0.98620898 0.98620737 0.46341413
outer loop
vertex -19.35619164 9.83673286 21.02725983
vertex -18.75596237 9.23650265 21.02725983
vertex -19.01917267 10.27177525 19.38420868
endloop
endfacet
facet normal 1.06673849 1.06673849 0.50125557
outer loop
vertex -19.01917267 10.27177525 19.38420868
vertex -18.75596237 9.23650265 21.02725983
vertex -18.36993027 9.62253284 19.38420868
endloop
endfacet
facet normal -0.22329472 -0.22329472 -1.55676794
outer loop
vertex -19.01917267 10.27177525 19.38420868
vertex -18.36993027 9.62253284 19.38420868
vertex -20.44062614 9.29540634 19.72813988
endloop
endfacet
facet normal -0.29983377 -0.29983377 -2.09038377
outer loop
vertex -20.44062614 9.29540634 19.72813988
vertex -18.36993027 9.62253284 19.38420868
vertex -19.56884193 8.42362213 19.72813988
endloop
endfacet
facet normal -1.13255227 -1.13255227 1.41731286
outer loop
vertex -20.44062614 9.29540634 19.72813988
vertex -19.56884193 8.42362213 19.72813988
vertex -19.35619164 9.83673286 21.02725983
endloop
endfacet
facet normal -0.77977103 -0.77976984 0.97582954
outer loop
vertex -19.35619164 9.83673286 21.02725983
vertex -19.56884193 8.42362213 19.72813988
vertex -18.75596237 9.23650265 21.02725983
endloop
endfacet
facet normal 1.43672717 0.48868245 0.43002641
outer loop
vertex -19.68058205 10.67928505 21.15357780
vertex -19.35619164 9.83673286 21.02725983
vertex -19.32327080 11.07687092 19.50797653
endloop
endfacet
facet normal 1.37665761 0.45793667 0.40362808
outer loop
vertex -19.32327080 11.07687092 19.50797653
vertex -19.35619164 9.83673286 21.02725983
vertex -19.01917267 10.27177525 19.38420868
endloop
endfacet
facet normal -0.40269873 0.06975199 -1.44316113
outer loop
vertex -19.32327080 11.07687092 19.50797653
vertex -19.01917267 10.27177525 19.38420868
vertex -20.86852264 10.42219543 19.90752029
endloop
endfacet
facet normal -0.56267941 0.10781395 -2.01946330
outer loop
vertex -20.86852264 10.42219543 19.90752029
vertex -19.01917267 10.27177525 19.38420868
vertex -20.44062614 9.29540634 19.72813988
endloop
endfacet
facet normal -1.35792720 -0.74627692 1.44856632
outer loop
vertex -20.86852264 10.42219543 19.90752029
vertex -20.44062614 9.29540634 19.72813988
vertex -19.68058205 10.67928505 21.15357780
endloop
endfacet
facet normal -1.02619708 -0.55840564 1.08929372
outer loop
vertex -19.68058205 10.67928505 21.15357780
vertex -20.44062614 9.29540634 19.72813988
vertex -19.35619164 9.83673286 21.02725983
endloop
endfacet
facet normal 1.71706343 0.57593584 0.51197606
outer loop
vertex -20.06515503 11.68422413 21.31287384
vertex -19.68058205 10.67928505 21.15357780
vertex -19.72322083 12.12199020 19.67364120
endloop
endfacet
facet normal 1.78571558 0.59896445 0.53244734
outer loop
vertex -19.72322083 12.12199020 19.67364120
vertex -19.68058205 10.67928505 21.15357780
vertex -19.32327080 11.07687092 19.50797653
endloop
endfacet
facet normal -0.52602690 0.09619629 -1.87680984
outer loop
vertex -19.72322083 12.12199020 19.67364120
vertex -19.32327080 11.07687092 19.50797653
vertex -21.14504814 11.14479160 20.02206039
endloop
endfacet
facet normal -0.36369541 0.06650926 -1.29762757
outer loop
vertex -21.14504814 11.14479160 20.02206039
vertex -19.32327080 11.07687092 19.50797653
vertex -20.86852264 10.42219543 19.90752029
endloop
endfacet
facet normal -0.87095022 -0.48063391 0.92949343
outer loop
vertex -21.14504814 11.14479160 20.02206039
vertex -20.86852264 10.42219543 19.90752029
vertex -20.06515503 11.68422413 21.31287384
endloop
endfacet
facet normal -1.21125853 -0.66843426 1.29267764
outer loop
vertex -20.06515503 11.68422413 21.31287384
vertex -20.86852264 10.42219543 19.90752029
vertex -19.68058205 10.67928505 21.15357780
endloop
endfacet
facet normal 1.34066558 1.33155513 0.62783068
outer loop
vertex -20.87728119 12.49847507 21.32015228
vertex -20.06515503 11.68422413 21.31287384
vertex -20.49125099 12.88450527 19.67710114
endloop
endfacet
facet normal 1.25145423 1.25779700 0.59694755
outer loop
vertex -20.49125099 12.88450527 19.67710114
vertex -20.06515503 11.68422413 21.31287384
vertex -19.72322083 12.12199020 19.67364120
endloop
endfacet
facet normal -0.26640087 -0.26000139 -1.83498645
outer loop
vertex -20.49125099 12.88450527 19.67710114
vertex -19.72322083 12.12199020 19.67364120
vertex -21.69016075 11.68559456 20.02103233
endloop
endfacet
facet normal -0.18742150 -0.19138941 -1.30161166
outer loop
vertex -21.69016075 11.68559456 20.02103233
vertex -19.72322083 12.12199020 19.67364120
vertex -21.14504814 11.14479160 20.02206039
endloop
endfacet
facet normal -0.70340365 -0.70733094 0.88271910
outer loop
vertex -21.69016075 11.68559456 20.02103233
vertex -21.14504814 11.14479160 20.02206039
vertex -20.87728119 12.49847507 21.32015228
endloop
endfacet
facet normal -1.04711986 -1.05616331 1.31739128
outer loop
vertex -20.87728119 12.49847507 21.32015228
vertex -21.14504814 11.14479160 20.02206039
vertex -20.06515503 11.68422413 21.31287384
endloop
endfacet
facet normal 1.11511135 1.11510980 0.52398354
outer loop
vertex -21.55596352 13.17715836 21.32015228
vertex -20.87728119 12.49847507 21.32015228
vertex -21.09314728 13.48640156 19.67710114
endloop
endfacet
facet normal 0.98894638 0.98894638 0.46470028
outer loop
vertex -21.09314728 13.48640156 19.67710114
vertex -20.87728119 12.49847507 21.32015228
vertex -20.49125099 12.88450527 19.67710114
endloop
endfacet
facet normal -0.20701091 -0.20701091 -1.44323981
outer loop
vertex -21.09314728 13.48640156 19.67710114
vertex -20.49125099 12.88450527 19.67710114
vertex -22.53053665 12.52596951 20.02103233
endloop
endfacet
facet normal -0.28903115 -0.28903148 -2.01506948
outer loop
vertex -22.53053665 12.52596951 20.02103233
vertex -20.49125099 12.88450527 19.67710114
vertex -21.69016075 11.68559456 20.02103233
endloop
endfacet
facet normal -1.09174788 -1.09174907 1.36625028
outer loop
vertex -22.53053665 12.52596951 20.02103233
vertex -21.69016075 11.68559456 20.02103233
vertex -21.55596352 13.17715836 21.32015228
endloop
endfacet
facet normal -0.88169098 -0.88168973 1.10337543
outer loop
vertex -21.55596352 13.17715836 21.32015228
vertex -21.69016075 11.68559456 20.02103233
vertex -20.87728119 12.49847507 21.32015228
endloop
endfacet
facet normal 1.45696187 0.60349274 0.52398276
outer loop
vertex -21.92326355 14.06389999 21.32015228
vertex -21.55596352 13.17715836 21.32015228
vertex -21.41889191 14.27281761 19.67710114
endloop
endfacet
facet normal 1.29212177 0.53521508 0.46470046
outer loop
vertex -21.41889191 14.27281761 19.67710114
vertex -21.55596352 13.17715836 21.32015228
vertex -21.09314728 13.48640156 19.67710114
endloop
endfacet
facet normal -0.27047300 -0.11203374 -1.44324100
outer loop
vertex -21.41889191 14.27281761 19.67710114
vertex -21.09314728 13.48640156 19.67710114
vertex -22.98534393 13.62397194 20.02103233
endloop
endfacet
facet normal -0.37763730 -0.15642241 -2.01506853
outer loop
vertex -22.98534393 13.62397194 20.02103233
vertex -21.09314728 13.48640156 19.67710114
vertex -22.53053665 12.52596951 20.02103233
endloop
endfacet
facet normal -1.42643690 -0.59084922 1.36624932
outer loop
vertex -22.98534393 13.62397194 20.02103233
vertex -22.53053665 12.52596951 20.02103233
vertex -21.92326355 14.06389999 21.32015228
endloop
endfacet
facet normal -1.15198374 -0.47716680 1.10337627
outer loop
vertex -21.92326355 14.06389999 21.32015228
vertex -22.53053665 12.52596951 20.02103233
vertex -21.55596352 13.17715836 21.32015228
endloop
endfacet
facet normal 1.74113822 0.72120410 0.62618411
outer loop
vertex -22.36220551 15.12359810 21.32015228
vertex -21.92326355 14.06389999 21.32015228
vertex -21.82767868 15.25971413 19.67710114
endloop
endfacet
facet normal 1.62152147 0.67165756 0.58316541
outer loop
vertex -21.82767868 15.25971413 19.67710114
vertex -21.92326355 14.06389999 21.32015228
vertex -21.41889191 14.27281761 19.67710114
endloop
endfacet
facet normal -0.33942449 -0.14059453 -1.81116509
outer loop
vertex -21.82767868 15.25971413 19.67710114
vertex -21.41889191 14.27281761 19.67710114
vertex -23.28568459 14.34905815 20.02103233
endloop
endfacet
facet normal -0.24937977 -0.10329652 -1.33068752
outer loop
vertex -23.28568459 14.34905815 20.02103233
vertex -21.41889191 14.27281761 19.67710114
vertex -22.98534393 13.62397194 20.02103233
endloop
endfacet
facet normal -0.94197398 -0.39017853 0.90222782
outer loop
vertex -23.28568459 14.34905815 20.02103233
vertex -22.98534393 13.62397194 20.02103233
vertex -22.36220551 15.12359810 21.32015228
endloop
endfacet
facet normal -1.37667489 -0.57023823 1.31858754
outer loop
vertex -22.36220551 15.12359810 21.32015228
vertex -22.98534393 13.62397194 20.02103233
vertex -21.92326355 14.06389999 21.32015228
endloop
endfacet
facet normal 1.36188734 1.46040571 0.55771118
outer loop
vertex -23.14582062 15.97504711 21.00410080
vertex -22.36220551 15.12359810 21.32015228
vertex -22.48759842 15.97156143 19.40590096
endloop
endfacet
facet normal 1.13268685 1.22924566 0.47032711
outer loop
vertex -22.48759842 15.97156143 19.40590096
vertex -22.36220551 15.12359810 21.32015228
vertex -21.82767868 15.25971413 19.67710114
endloop
endfacet
facet normal 0.00221810 -0.62126076 -1.63608527
outer loop
vertex -22.48759842 15.97156143 19.40590096
vertex -21.82767868 15.25971413 19.67710114
vertex -23.80227470 14.91046810 19.80704117
endloop
endfacet
facet normal 0.00178594 -0.48967186 -1.28897488
outer loop
vertex -23.80227470 14.91046810 19.80704117
vertex -21.82767868 15.25971413 19.67710114
vertex -23.28568459 14.34905815 20.02103233
endloop
endfacet
facet normal -0.89985168 -0.47791380 0.91849089
outer loop
vertex -23.80227470 14.91046810 19.80704117
vertex -23.28568459 14.34905815 20.02103233
vertex -23.14582062 15.97504711 21.00410080
endloop
endfacet
facet normal -1.35092890 -0.72614306 1.39323664
outer loop
vertex -23.14582062 15.97504711 21.00410080
vertex -23.28568459 14.34905815 20.02103233
vertex -22.36220551 15.12359810 21.32015228
endloop
endfacet
facet normal 1.01729822 1.09928036 0.41657889
outer loop
vertex -23.73340607 16.61104393 20.76071548
vertex -23.14582062 15.97504711 21.00410080
vertex -23.07582474 16.60825157 19.16225052
endloop
endfacet
facet normal 1.01840734 1.10047936 0.41703320
outer loop
vertex -23.07582474 16.60825157 19.16225052
vertex -23.14582062 15.97504711 21.00410080
vertex -22.48759842 15.97156143 19.40590096
endloop
endfacet
facet normal 0.00313468 -0.55628151 -1.46120346
outer loop
vertex -23.07582474 16.60825157 19.16225052
vertex -22.48759842 15.97156143 19.40590096
vertex -24.58549881 15.75822353 19.48261833
endloop
endfacet
facet normal 0.00417411 -0.74069369 -1.94559777
outer loop
vertex -24.58549881 15.75822353 19.48261833
vertex -22.48759842 15.97156143 19.40590096
vertex -23.80227470 14.91046810 19.80704117
endloop
endfacet
facet normal -1.36018825 -0.72459817 1.39031577
outer loop
vertex -24.58549881 15.75822353 19.48261833
vertex -23.80227470 14.91046810 19.80704117
vertex -23.73340607 16.61104393 20.76071548
endloop
endfacet
facet normal -1.02042902 -0.54360354 1.04303384
outer loop
vertex -23.73340607 16.61104393 20.76071548
vertex -23.80227470 14.91046810 19.80704117
vertex -23.14582062 15.97504711 21.00410080
endloop
endfacet
facet normal 1.32864523 0.59492642 0.54554355
outer loop
vertex -24.05140495 17.44201469 20.62899590
vertex -23.73340607 16.61104393 20.76071548
vertex -23.39416885 17.44012642 19.03038788
endloop
endfacet
facet normal 1.33009100 0.59557229 0.54613644
outer loop
vertex -23.39416885 17.44012642 19.03038788
vertex -23.73340607 16.61104393 20.76071548
vertex -23.07582474 16.60825157 19.16225052
endloop
endfacet
facet normal -0.15441921 -0.30105710 -1.52646255
outer loop
vertex -23.39416885 17.44012642 19.03038788
vertex -23.07582474 16.60825157 19.16225052
vertex -25.00937653 16.86586761 19.30704308
endloop
endfacet
facet normal -0.20560962 -0.40085819 -2.03248954
outer loop
vertex -25.00937653 16.86586761 19.30704308
vertex -23.07582474 16.60825157 19.16225052
vertex -24.58549881 15.75822353 19.48261833
endloop
endfacet
facet normal -1.56541038 -0.39215025 1.30530739
outer loop
vertex -25.00937653 16.86586761 19.30704308
vertex -24.58549881 15.75822353 19.48261833
vertex -24.05140495 17.44201469 20.62899590
endloop
endfacet
facet normal -1.17439461 -0.29419616 0.97926009
outer loop
vertex -24.05140495 17.44201469 20.62899590
vertex -24.58549881 15.75822353 19.48261833
vertex -23.73340607 16.61104393 20.76071548
endloop
endfacet
facet normal 1.27625120 0.57146811 0.52403229
outer loop
vertex -24.35686493 18.24021721 20.50247002
vertex -24.05140495 17.44201469 20.62899590
vertex -23.72373009 18.30131340 18.89387894
endloop
endfacet
facet normal 1.37695825 0.61655784 0.56538087
outer loop
vertex -23.72373009 18.30131340 18.89387894
vertex -24.05140495 17.44201469 20.62899590
vertex -23.39416885 17.44012642 19.03038788
endloop
endfacet
facet normal -0.15986037 -0.31166518 -1.58024979
outer loop
vertex -23.72373009 18.30131340 18.89387894
vertex -23.39416885 17.44012642 19.03038788
vertex -25.43449593 17.97675896 19.13095284
endloop
endfacet
facet normal -0.20621249 -0.40203381 -2.03844881
outer loop
vertex -25.43449593 17.97675896 19.13095284
vertex -23.39416885 17.44012642 19.03038788
vertex -25.00937653 16.86586761 19.30704308
endloop
endfacet
facet normal -1.56999898 -0.39329824 1.30913210
outer loop
vertex -25.43449593 17.97675896 19.13095284
vertex -25.00937653 16.86586761 19.30704308
vertex -24.35686493 18.24021721 20.50247002
endloop
endfacet
facet normal -1.12808359 -0.28259546 0.94064522
outer loop
vertex -24.35686493 18.24021721 20.50247002
vertex -25.00937653 16.86586761 19.30704308
vertex -24.05140495 17.44201469 20.62899590
endloop
endfacet
facet normal 1.49660599 0.00602776 0.59558773
outer loop
vertex -24.35789299 19.17241859 20.49561882
vertex -24.35686493 18.24021721 20.50247002
vertex -23.71898842 19.17241859 18.89016533
endloop
endfacet
facet normal 1.40102518 -0.00527619 0.55123740
outer loop
vertex -23.71898842 19.17241859 18.89016533
vertex -24.35686493 18.24021721 20.50247002
vertex -23.72373009 18.30131340 18.89387894
endloop
endfacet
facet normal -0.21019155 -0.00522197 -1.49330258
outer loop
vertex -23.71898842 19.17241859 18.89016533
vertex -23.72373009 18.30131340 18.89387894
vertex -25.43325043 19.17241859 19.13145828
endloop
endfacet
facet normal -0.28362373 0.00115998 -2.04508948
outer loop
vertex -25.43325043 19.17241859 19.13145828
vertex -23.72373009 18.30131340 18.89387894
vertex -25.43449593 17.97675896 19.13095284
endloop
endfacet
facet normal -1.63107169 0.00115552 1.28576148
outer loop
vertex -25.43325043 19.17241859 19.13145828
vertex -25.43449593 17.97675896 19.13095284
vertex -24.35789299 19.17241859 20.49561882
endloop
endfacet
facet normal -1.28033519 0.00597306 1.00483990
outer loop
vertex -24.35789299 19.17241859 20.49561882
vertex -25.43449593 17.97675896 19.13095284
vertex -24.35686493 18.24021721 20.50247002
endloop
endfacet
facet normal 1.71355391 0.00000000 0.68192405
outer loop
vertex -24.35789299 20.23975182 20.49561882
vertex -24.35789299 19.17241859 20.49561882
vertex -23.71898842 20.30209351 18.89016533
endloop
endfacet
facet normal 1.81364048 0.00000000 0.72175449
outer loop
vertex -23.71898842 20.30209351 18.89016533
vertex -24.35789299 19.17241859 20.49561882
vertex -23.71898842 19.17241859 18.89016533
endloop
endfacet
facet normal -0.27258259 -0.00000000 -1.93655872
outer loop
vertex -23.71898842 20.30209351 18.89016533
vertex -23.71898842 19.17241859 18.89016533
vertex -25.43325043 19.97702217 19.13145828
endloop
endfacet
facet normal -0.19414517 -0.00000000 -1.37930131
outer loop
vertex -25.43325043 19.97702217 19.13145828
vertex -23.71898842 19.17241859 18.89016533
vertex -25.43325043 19.17241859 19.13145828
endloop
endfacet
facet normal -1.09760845 0.00000000 0.86523646
outer loop
vertex -25.43325043 19.97702217 19.13145828
vertex -25.43325043 19.17241859 19.13145828
vertex -24.35789299 20.23975182 20.49561882
endloop
endfacet
facet normal -1.45601392 0.00000000 1.14776468
outer loop
vertex -24.35789299 20.23975182 20.49561882
vertex -25.43325043 19.17241859 19.13145828
vertex -24.35789299 19.17241859 20.49561882
endloop
endfacet
facet normal 1.67887700 0.74527025 0.68935394
outer loop
vertex -24.75851059 21.28977394 20.33610344
vertex -24.35789299 20.23975182 20.49561882
vertex -24.10127640 21.28788567 18.73749352
endloop
endfacet
facet normal 1.57312572 0.71128827 0.65365958
outer loop
vertex -24.10127640 21.28788567 18.73749352
vertex -24.35789299 20.23975182 20.49561882
vertex -23.71898842 20.30209351 18.89016533
endloop
endfacet
facet normal -0.18505357 -0.35235935 -1.81179059
outer loop
vertex -24.10127640 21.28788567 18.73749352
vertex -23.71898842 20.30209351 18.89016533
vertex -25.71648407 20.71362877 19.01415062
endloop
endfacet
facet normal -0.13960463 -0.26943836 -1.35480785
outer loop
vertex -25.71648407 20.71362877 19.01415062
vertex -23.71898842 20.30209351 18.89016533
vertex -25.43325043 19.97702217 19.13145828
endloop
endfacet
facet normal -1.04134536 -0.26204389 0.86883330
outer loop
vertex -25.71648407 20.71362877 19.01415062
vertex -25.43325043 19.97702217 19.13145828
vertex -24.75851059 21.28977394 20.33610344
endloop
endfacet
facet normal -1.47430813 -0.37497067 1.23440313
outer loop
vertex -24.75851059 21.28977394 20.33610344
vertex -25.43325043 19.97702217 19.13145828
vertex -24.35789299 20.23975182 20.49561882
endloop
endfacet
facet normal 1.27625608 0.57146847 0.52403134
outer loop
vertex -25.06397057 22.08797836 20.20957756
vertex -24.75851059 21.28977394 20.33610344
vertex -24.43083763 22.14907265 18.60098457
endloop
endfacet
facet normal 1.37695980 0.61655819 0.56537926
outer loop
vertex -24.43083763 22.14907265 18.60098457
vertex -24.75851059 21.28977394 20.33610344
vertex -24.10127640 21.28788567 18.73749352
endloop
endfacet
facet normal -0.15986201 -0.31166583 -1.58024979
outer loop
vertex -24.43083763 22.14907265 18.60098457
vertex -24.10127640 21.28788567 18.73749352
vertex -26.14160347 21.82451820 18.83806038
endloop
endfacet
facet normal -0.20621443 -0.40203461 -2.03844476
outer loop
vertex -26.14160347 21.82451820 18.83806038
vertex -24.10127640 21.28788567 18.73749352
vertex -25.71648407 20.71362877 19.01415062
endloop
endfacet
facet normal -1.56999671 -0.39329791 1.30913305
outer loop
vertex -26.14160347 21.82451820 18.83806038
vertex -25.71648407 20.71362877 19.01415062
vertex -25.06397057 22.08797836 20.20957756
endloop
endfacet
facet normal -1.12808585 -0.28259522 0.94064796
outer loop
vertex -25.06397057 22.08797836 20.20957756
vertex -25.71648407 20.71362877 19.01415062
vertex -24.75851059 21.28977394 20.33610344
endloop
endfacet
facet normal 1.49660110 0.00602895 0.59558296
outer loop
vertex -25.06499863 23.02017784 20.20272446
vertex -25.06397057 22.08797836 20.20957756
vertex -24.42609787 23.02017784 18.59727287
endloop
endfacet
facet normal 1.40102696 -0.00527435 0.55123580
outer loop
vertex -24.42609787 23.02017784 18.59727287
vertex -25.06397057 22.08797836 20.20957756
vertex -24.43083763 22.14907265 18.60098457
endloop
endfacet
facet normal -0.21019155 -0.00521915 -1.49330091
outer loop
vertex -24.42609787 23.02017784 18.59727287
vertex -24.43083763 22.14907265 18.60098457
vertex -26.14035797 23.02017784 18.83856583
endloop
endfacet
facet normal -0.28362602 0.00115998 -2.04508948
outer loop
vertex -26.14035797 23.02017784 18.83856583
vertex -24.43083763 22.14907265 18.60098457
vertex -26.14160347 21.82451820 18.83806038
endloop
endfacet
facet normal -1.63106942 0.00115552 1.28576374
outer loop
vertex -26.14035797 23.02017784 18.83856583
vertex -26.14160347 21.82451820 18.83806038
vertex -25.06499863 23.02017784 20.20272446
endloop
endfacet
facet normal -1.28033316 0.00597513 1.00483966
outer loop
vertex -25.06499863 23.02017784 20.20272446
vertex -26.14160347 21.82451820 18.83806038
vertex -25.06397057 22.08797836 20.20957756
endloop
endfacet
facet normal 1.71355176 0.00000000 0.68191999
outer loop
vertex -25.06499863 24.08751106 20.20272446
vertex -25.06499863 23.02017784 20.20272446
vertex -24.42609787 24.14985275 18.59727287
endloop
endfacet
facet normal 1.81363833 0.00000000 0.72175014
outer loop
vertex -24.42609787 24.14985275 18.59727287
vertex -25.06499863 23.02017784 20.20272446
vertex -24.42609787 23.02017784 18.59727287
endloop
endfacet
facet normal -0.27258259 -0.00000000 -1.93655658
outer loop
vertex -24.42609787 24.14985275 18.59727287
vertex -24.42609787 23.02017784 18.59727287
vertex -26.14035797 23.82478142 18.83856583
endloop
endfacet
facet normal -0.19414517 -0.00000000 -1.37929976
outer loop
vertex -26.14035797 23.82478142 18.83856583
vertex -24.42609787 23.02017784 18.59727287
vertex -26.14035797 23.02017784 18.83856583
endloop
endfacet
facet normal -1.09760690 0.00000000 0.86523795
outer loop
vertex -26.14035797 23.82478142 18.83856583
vertex -26.14035797 23.02017784 18.83856583
vertex -25.06499863 24.08751106 20.20272446
endloop
endfacet
facet normal -1.45601177 0.00000000 1.14776671
outer loop
vertex -25.06499863 24.08751106 20.20272446
vertex -26.14035797 23.02017784 18.83856583
vertex -25.06499863 23.02017784 20.20272446
endloop
endfacet
facet normal 1.67887700 0.74526870 0.68935192
outer loop
vertex -25.46561623 25.13753319 20.04321098
vertex -25.06499863 24.08751106 20.20272446
vertex -24.80838394 25.13564491 18.44460106
endloop
endfacet
facet normal 1.57312381 0.71128392 0.65365577
outer loop
vertex -24.80838394 25.13564491 18.44460106
vertex -25.06499863 24.08751106 20.20272446
vertex -24.42609787 24.14985275 18.59727287
endloop
endfacet
facet normal -0.18505357 -0.35235885 -1.81178951
outer loop
vertex -24.80838394 25.13564491 18.44460106
vertex -24.42609787 24.14985275 18.59727287
vertex -26.42359161 24.56138802 18.72125816
endloop
endfacet
facet normal -0.13960463 -0.26943815 -1.35480654
outer loop
vertex -26.42359161 24.56138802 18.72125816
vertex -24.42609787 24.14985275 18.59727287
vertex -26.14035797 23.82478142 18.83856583
endloop
endfacet
facet normal -1.04134536 -0.26204365 0.86883467
outer loop
vertex -26.42359161 24.56138802 18.72125816
vertex -26.14035797 23.82478142 18.83856583
vertex -25.46561623 25.13753319 20.04321098
endloop
endfacet
facet normal -1.47430563 -0.37497166 1.23440528
outer loop
vertex -25.46561623 25.13753319 20.04321098
vertex -26.14035797 23.82478142 18.83856583
vertex -25.06499863 24.08751106 20.20272446
endloop
endfacet
facet normal 1.76027048 0.78819150 0.72276312
outer loop
vertex -25.88691902 26.23845291 19.86870193
vertex -25.46561623 25.13753319 20.04321098
vertex -25.16154289 26.05849266 18.29831886
endloop
endfacet
facet normal 1.47554982 0.66070479 0.60585845
outer loop
vertex -25.16154289 26.05849266 18.29831886
vertex -25.46561623 25.13753319 20.04321098
vertex -24.80838394 25.13564491 18.44460106
endloop
endfacet
facet normal -0.17130852 -0.33397987 -1.69339442
outer loop
vertex -25.16154289 26.05849266 18.29831886
vertex -24.80838394 25.13564491 18.44460106
vertex -26.71041298 25.31088829 18.60245323
endloop
endfacet
facet normal -0.13913003 -0.27124581 -1.37530780
outer loop
vertex -26.71041298 25.31088829 18.60245323
vertex -24.80838394 25.13564491 18.44460106
vertex -26.42359161 24.56138802 18.72125816
endloop
endfacet
facet normal -1.05925298 -0.26535204 0.88325429
outer loop
vertex -26.71041298 25.31088829 18.60245323
vertex -26.42359161 24.56138802 18.72125816
vertex -25.88691902 26.23845291 19.86870193
endloop
endfacet
facet normal -1.55590641 -0.38976705 1.29738557
outer loop
vertex -25.88691902 26.23845291 19.86870193
vertex -26.42359161 24.56138802 18.72125816
vertex -25.46561623 25.13753319 20.04321098
endloop
endfacet
facet normal 1.48760366 1.41188264 0.52279043
outer loop
vertex -26.50191116 27.11147690 19.26091957
vertex -25.88691902 26.23845291 19.86870193
vertex -25.62651253 26.71886444 17.83028221
endloop
endfacet
facet normal 1.12126470 1.06968307 0.39534187
outer loop
vertex -25.62651253 26.71886444 17.83028221
vertex -25.88691902 26.23845291 19.86870193
vertex -25.16154289 26.05849266 18.29831886
endloop
endfacet
facet normal 0.14609867 -0.86653715 -1.36777341
outer loop
vertex -25.62651253 26.71886444 17.83028221
vertex -25.16154289 26.05849266 18.29831886
vertex -27.12677574 25.90796852 18.18376541
endloop
endfacet
facet normal 0.13142022 -0.77512324 -1.23607433
outer loop
vertex -27.12677574 25.90796852 18.18376541
vertex -25.16154289 26.05849266 18.29831886
vertex -26.71041298 25.31088829 18.60245323
endloop
endfacet
facet normal -1.14704180 -0.18686372 0.87419033
outer loop
vertex -27.12677574 25.90796852 18.18376541
vertex -26.71041298 25.31088829 18.60245323
vertex -26.50191116 27.11147690 19.26091957
endloop
endfacet
facet normal -1.66922283 -0.27822793 1.28937495
outer loop
vertex -26.50191116 27.11147690 19.26091957
vertex -26.71041298 25.31088829 18.60245323
vertex -25.88691902 26.23845291 19.86870193
endloop
endfacet
facet normal 0.92948174 0.88723505 0.32525840
outer loop
vertex -26.88665581 27.65558815 18.87617493
vertex -26.50191116 27.11147690 19.26091957
vertex -26.15985870 27.47312927 17.29693604
endloop
endfacet
facet normal 1.28847778 1.22991550 0.45088404
outer loop
vertex -26.15985870 27.47312927 17.29693604
vertex -26.50191116 27.11147690 19.26091957
vertex -25.62651253 26.71886444 17.83028221
endloop
endfacet
facet normal 0.16586800 -0.98868859 -1.56408370
outer loop
vertex -26.15985870 27.47312927 17.29693604
vertex -25.62651253 26.71886444 17.83028221
vertex -27.70651817 26.72784805 17.60402298
endloop
endfacet
facet normal 0.18029714 -1.07469547 -1.70014596
outer loop
vertex -27.70651817 26.72784805 17.60402298
vertex -25.62651253 26.71886444 17.83028221
vertex -27.12677574 25.90796852 18.18376541
endloop
endfacet
facet normal -1.58086157 -0.26221144 1.21003866
outer loop
vertex -27.70651817 26.72784805 17.60402298
vertex -27.12677574 25.90796852 18.18376541
vertex -26.88665581 27.65558815 18.87617493
endloop
endfacet
facet normal -1.04913509 -0.17401598 0.80303925
outer loop
vertex -26.88665581 27.65558815 18.87617493
vertex -27.12677574 25.90796852 18.18376541
vertex -26.50191116 27.11147690 19.26091957
endloop
endfacet
facet normal 1.18947160 0.54002798 0.48838642
outer loop
vertex -27.17272377 28.39950562 18.75031853
vertex -26.88665581 27.65558815 18.87617493
vertex -26.51549149 28.39761734 17.15170860
endloop
endfacet
facet normal 1.48648548 0.66718000 0.60702693
outer loop
vertex -26.51549149 28.39761734 17.15170860
vertex -26.88665581 27.65558815 18.87617493
vertex -26.15985870 27.47312927 17.29693604
endloop
endfacet
facet normal -0.17236629 -0.33295983 -1.69746375
outer loop
vertex -26.51549149 28.39761734 17.15170860
vertex -26.15985870 27.47312927 17.29693604
vertex -28.13069725 27.82335854 17.42836380
endloop
endfacet
facet normal -0.20550147 -0.40194479 -2.01051426
outer loop
vertex -28.13069725 27.82335854 17.42836380
vertex -26.15985870 27.47312927 17.29693604
vertex -27.70651817 26.72784805 17.60402298
endloop
endfacet
facet normal -1.54942071 -0.39246869 1.29385948
outer loop
vertex -28.13069725 27.82335854 17.42836380
vertex -27.70651817 26.72784805 17.60402298
vertex -27.17272377 28.39950562 18.75031853
endloop
endfacet
facet normal -1.06313813 -0.26073700 0.87530667
outer loop
vertex -27.17272377 28.39950562 18.75031853
vertex -27.70651817 26.72784805 17.60402298
vertex -26.88665581 27.65558815 18.87617493
endloop
endfacet
facet normal 1.27625608 0.57146823 0.52402985
outer loop
vertex -27.47818375 29.19771004 18.62379265
vertex -27.17272377 28.39950562 18.75031853
vertex -26.84505272 29.25880432 17.01519966
endloop
endfacet
facet normal 1.37695980 0.61655790 0.56537759
outer loop
vertex -26.84505272 29.25880432 17.01519966
vertex -27.17272377 28.39950562 18.75031853
vertex -26.51549149 28.39761734 17.15170860
endloop
endfacet
facet normal -0.15986037 -0.31166494 -1.58024812
outer loop
vertex -26.84505272 29.25880432 17.01519966
vertex -26.51549149 28.39761734 17.15170860
vertex -28.55581665 28.93424988 17.25227356
endloop
endfacet
facet normal -0.20621249 -0.40203348 -2.03844666
outer loop
vertex -28.55581665 28.93424988 17.25227356
vertex -26.51549149 28.39761734 17.15170860
vertex -28.13069725 27.82335854 17.42836380
endloop
endfacet
facet normal -1.57000148 -0.39329875 1.30913508
outer loop
vertex -28.55581665 28.93424988 17.25227356
vertex -28.13069725 27.82335854 17.42836380
vertex -27.47818375 29.19771004 18.62379265
endloop
endfacet
facet normal -1.12808764 -0.28259581 0.94064856
outer loop
vertex -27.47818375 29.19771004 18.62379265
vertex -28.13069725 27.82335854 17.42836380
vertex -27.17272377 28.39950562 18.75031853
endloop
endfacet
facet normal 1.49660110 0.00602894 0.59558117
outer loop
vertex -27.47921181 30.12990952 18.61693954
vertex -27.47818375 29.19771004 18.62379265
vertex -26.84031296 30.12990952 17.01148796
endloop
endfacet
facet normal 1.40102696 -0.00527435 0.55123413
outer loop
vertex -26.84031296 30.12990952 17.01148796
vertex -27.47818375 29.19771004 18.62379265
vertex -26.84505272 29.25880432 17.01519966
endloop
endfacet
facet normal -0.21018822 -0.00521916 -1.49329925
outer loop
vertex -26.84031296 30.12990952 17.01148796
vertex -26.84505272 29.25880432 17.01519966
vertex -28.55457115 30.12990952 17.25277710
endloop
endfacet
facet normal -0.28362313 0.00115671 -2.04508734
outer loop
vertex -28.55457115 30.12990952 17.25277710
vertex -26.84505272 29.25880432 17.01519966
vertex -28.55581665 28.93424988 17.25227356
endloop
endfacet
facet normal -1.63107395 0.00115758 1.28576374
outer loop
vertex -28.55457115 30.12990952 17.25277710
vertex -28.55581665 28.93424988 17.25227356
vertex -27.47921181 30.12990952 18.61693954
endloop
endfacet
facet normal -1.28033483 0.00597512 1.00483966
outer loop
vertex -27.47921181 30.12990952 18.61693954
vertex -28.55581665 28.93424988 17.25227356
vertex -27.47818375 29.19771004 18.62379265
endloop
endfacet
facet normal 1.71355176 0.00000000 0.68191797
outer loop
vertex -27.47921181 31.19724274 18.61693954
vertex -27.47921181 30.12990952 18.61693954
vertex -26.84031296 31.25958443 17.01148796
endloop
endfacet
facet normal 1.81363833 0.00000000 0.72174799
outer loop
vertex -26.84031296 31.25958443 17.01148796
vertex -27.47921181 30.12990952 18.61693954
vertex -26.84031296 30.12990952 17.01148796
endloop
endfacet
facet normal -0.27257830 -0.00000000 -1.93655443
outer loop
vertex -26.84031296 31.25958443 17.01148796
vertex -26.84031296 30.12990952 17.01148796
vertex -28.55457115 30.93451309 17.25277710
endloop
endfacet
facet normal -0.19414210 -0.00000000 -1.37929833
outer loop
vertex -28.55457115 30.93451309 17.25277710
vertex -26.84031296 30.12990952 17.01148796
vertex -28.55457115 30.12990952 17.25277710
endloop
endfacet
facet normal -1.09761000 0.00000000 0.86523795
outer loop
vertex -28.55457115 30.93451309 17.25277710
vertex -28.55457115 30.12990952 17.25277710
vertex -27.47921181 31.19724274 18.61693954
endloop
endfacet
facet normal -1.45601594 0.00000000 1.14776671
outer loop
vertex -27.47921181 31.19724274 18.61693954
vertex -28.55457115 30.12990952 17.25277710
vertex -27.47921181 30.12990952 18.61693954
endloop
endfacet
facet normal 1.67887509 0.74526888 0.68934995
outer loop
vertex -27.87982941 32.24726486 18.45742416
vertex -27.47921181 31.19724274 18.61693954
vertex -27.22259903 32.24537659 16.85881615
endloop
endfacet
facet normal 1.57312381 0.71128362 0.65365386
outer loop
vertex -27.22259903 32.24537659 16.85881615
vertex -27.47921181 31.19724274 18.61693954
vertex -26.84031296 31.25958443 17.01148796
endloop
endfacet
facet normal -0.18504921 -0.35235709 -1.81178904
outer loop
vertex -27.22259903 32.24537659 16.85881615
vertex -26.84031296 31.25958443 17.01148796
vertex -28.83780479 31.67111588 17.13546944
endloop
endfacet
facet normal -0.13960089 -0.26943684 -1.35479856
outer loop
vertex -28.83780479 31.67111588 17.13546944
vertex -26.84031296 31.25958443 17.01148796
vertex -28.55457115 30.93451309 17.25277710
endloop
endfacet
facet normal -1.04134226 -0.26204419 0.86883211
outer loop
vertex -28.83780479 31.67111588 17.13546944
vertex -28.55457115 30.93451309 17.25277710
vertex -27.87982941 32.24726486 18.45742416
endloop
endfacet
facet normal -1.47431016 -0.37497112 1.23440528
outer loop
vertex -27.87982941 32.24726486 18.45742416
vertex -28.55457115 30.93451309 17.25277710
vertex -27.47921181 31.19724274 18.61693954
endloop
endfacet
facet normal 1.27625120 0.57146740 0.52402771
outer loop
vertex -28.18528938 33.04546738 18.33089828
vertex -27.87982941 32.24726486 18.45742416
vertex -27.55216026 33.10656357 16.72230721
endloop
endfacet
facet normal 1.37695825 0.61655706 0.56537592
outer loop
vertex -27.55216026 33.10656357 16.72230721
vertex -27.87982941 32.24726486 18.45742416
vertex -27.22259903 32.24537659 16.85881615
endloop
endfacet
facet normal -0.15985873 -0.31166458 -1.58024979
outer loop
vertex -27.55216026 33.10656357 16.72230721
vertex -27.22259903 32.24537659 16.85881615
vertex -29.26292610 32.78200912 16.95937920
endloop
endfacet
facet normal -0.20621055 -0.40203318 -2.03845167
outer loop
vertex -29.26292610 32.78200912 16.95937920
vertex -27.22259903 32.24537659 16.85881615
vertex -28.83780479 31.67111588 17.13546944
endloop
endfacet
facet normal -1.57000375 -0.39330068 1.30914116
outer loop
vertex -29.26292610 32.78200912 16.95937920
vertex -28.83780479 31.67111588 17.13546944
vertex -28.18528938 33.04546738 18.33089828
endloop
endfacet
facet normal -1.12808537 -0.28259557 0.94064879
outer loop
vertex -28.18528938 33.04546738 18.33089828
vertex -28.83780479 31.67111588 17.13546944
vertex -27.87982941 32.24726486 18.45742416
endloop
endfacet
facet normal 1.49660420 0.00602771 0.59558064
outer loop
vertex -28.18631744 33.97766876 18.32404709
vertex -28.18528938 33.04546738 18.33089828
vertex -27.54742050 33.97766876 16.71859550
endloop
endfacet
facet normal 1.40102530 -0.00527435 0.55123246
outer loop
vertex -27.54742050 33.97766876 16.71859550
vertex -28.18528938 33.04546738 18.33089828
vertex -27.55216026 33.10656357 16.72230721
endloop
endfacet
facet normal -0.21018822 -0.00521916 -1.49329925
outer loop
vertex -27.54742050 33.97766876 16.71859550
vertex -27.55216026 33.10656357 16.72230721
vertex -29.26167870 33.97766876 16.95988464
endloop
endfacet
facet normal -0.28362146 0.00116043 -2.04508901
outer loop
vertex -29.26167870 33.97766876 16.95988464
vertex -27.55216026 33.10656357 16.72230721
vertex -29.26292610 32.78200912 16.95937920
endloop
endfacet
facet normal -1.63107395 0.00115813 1.28576601
outer loop
vertex -29.26167870 33.97766876 16.95988464
vertex -29.26292610 32.78200912 16.95937920
vertex -28.18631744 33.97766876 18.32404709
endloop
endfacet
facet normal -1.28033698 0.00597310 1.00484526
outer loop
vertex -28.18631744 33.97766876 18.32404709
vertex -29.26292610 32.78200912 16.95937920
vertex -28.18528938 33.04546738 18.33089828
endloop
endfacet
facet normal 1.71355176 0.00000000 0.68191594
outer loop
vertex -28.18631744 35.04500198 18.32404709
vertex -28.18631744 33.97766876 18.32404709
vertex -27.54742050 35.10734558 16.71859550
endloop
endfacet
facet normal 1.81364143 0.00000000 0.72174704
outer loop
vertex -27.54742050 35.10734558 16.71859550
vertex -28.18631744 33.97766876 18.32404709
vertex -27.54742050 33.97766876 16.71859550
endloop
endfacet
facet normal -0.27257875 -0.00000000 -1.93655777
outer loop
vertex -27.54742050 35.10734558 16.71859550
vertex -27.54742050 33.97766876 16.71859550
vertex -29.26167870 34.78227234 16.95988464
endloop
endfacet
facet normal -0.19414210 -0.00000000 -1.37929833
outer loop
vertex -29.26167870 34.78227234 16.95988464
vertex -27.54742050 33.97766876 16.71859550
vertex -29.26167870 33.97766876 16.95988464
endloop
endfacet
facet normal -1.09761000 0.00000000 0.86523950
outer loop
vertex -29.26167870 34.78227234 16.95988464
vertex -29.26167870 33.97766876 16.95988464
vertex -28.18631744 35.04500198 18.32404709
endloop
endfacet
facet normal -1.45601594 0.00000000 1.14776874
outer loop
vertex -28.18631744 35.04500198 18.32404709
vertex -29.26167870 33.97766876 16.95988464
vertex -28.18631744 33.97766876 18.32404709
endloop
endfacet
facet normal 1.67888117 0.74527192 0.68935245
outer loop
vertex -28.58693695 36.09502792 18.16453171
vertex -28.18631744 35.04500198 18.32404709
vertex -27.92970657 36.09313965 16.56592369
endloop
endfacet
facet normal 1.57312655 0.71128333 0.65365392
outer loop
vertex -27.92970657 36.09313965 16.56592369
vertex -28.18631744 35.04500198 18.32404709
vertex -27.54742050 35.10734558 16.71859550
endloop
endfacet
facet normal -0.18504974 -0.35235709 -1.81179214
outer loop
vertex -27.92970657 36.09313965 16.56592369
vertex -27.54742050 35.10734558 16.71859550
vertex -29.54491234 35.51887894 16.84257698
endloop
endfacet
facet normal -0.13960159 -0.26943684 -1.35480559
outer loop
vertex -29.54491234 35.51887894 16.84257698
vertex -27.54742050 35.10734558 16.71859550
vertex -29.26167870 34.78227234 16.95988464
endloop
endfacet
facet normal -1.04134727 -0.26204419 0.86883575
outer loop
vertex -29.54491234 35.51887894 16.84257698
vertex -29.26167870 34.78227234 16.95988464
vertex -28.58693695 36.09502792 18.16453171
endloop
endfacet
facet normal -1.47431540 -0.37497342 1.23441184
outer loop
vertex -28.58693695 36.09502792 18.16453171
vertex -29.26167870 34.78227234 16.95988464
vertex -28.18631744 35.04500198 18.32404709
endloop
endfacet
facet normal 1.27625167 0.57146406 0.52402490
outer loop
vertex -28.89239502 36.89323044 18.03800583
vertex -28.58693695 36.09502792 18.16453171
vertex -28.25926781 36.95432281 16.42941475
endloop
endfacet
facet normal 1.37695205 0.61655706 0.56537342
outer loop
vertex -28.25926781 36.95432281 16.42941475
vertex -28.58693695 36.09502792 18.16453171
vertex -27.92970657 36.09313965 16.56592369
endloop
endfacet
facet normal -0.15985782 -0.31166431 -1.58024168
outer loop
vertex -28.25926781 36.95432281 16.42941475
vertex -27.92970657 36.09313965 16.56592369
vertex -29.97003174 36.62976837 16.66648674
endloop
endfacet
facet normal -0.20620951 -0.40203267 -2.03844428
outer loop
vertex -29.97003174 36.62976837 16.66648674
vertex -27.92970657 36.09313965 16.56592369
vertex -29.54491234 35.51887894 16.84257698
endloop
endfacet
facet normal -1.56999922 -0.39329806 1.30913806
outer loop
vertex -29.97003174 36.62976837 16.66648674
vertex -29.54491234 35.51887894 16.84257698
vertex -28.89239502 36.89323044 18.03800583
endloop
endfacet
facet normal -1.12808537 -0.28259307 0.94064772
outer loop
vertex -28.89239502 36.89323044 18.03800583
vertex -29.54491234 35.51887894 16.84257698
vertex -28.58693695 36.09502792 18.16453171
endloop
endfacet
facet normal 1.49659812 0.00602770 0.59557641
outer loop
vertex -28.89342308 37.82542801 18.03115463
vertex -28.89239502 36.89323044 18.03800583
vertex -28.25452805 37.82542801 16.42570305
endloop
endfacet
facet normal 1.40102530 -0.00527436 0.55123085
outer loop
vertex -28.25452805 37.82542801 16.42570305
vertex -28.89239502 36.89323044 18.03800583
vertex -28.25926781 36.95432281 16.42941475
endloop
endfacet
facet normal -0.21018656 -0.00521917 -1.49329925
outer loop
vertex -28.25452805 37.82542801 16.42570305
vertex -28.25926781 36.95432281 16.42941475
vertex -29.96878624 37.82542801 16.66699028
endloop
endfacet
facet normal -0.28362083 0.00115671 -2.04508734
outer loop
vertex -29.96878624 37.82542801 16.66699028
vertex -28.25926781 36.95432281 16.42941475
vertex -29.97003174 36.62976837 16.66648674
endloop
endfacet
facet normal -1.63107622 0.00115758 1.28576827
outer loop
vertex -29.96878624 37.82542801 16.66699028
vertex -29.97003174 36.62976837 16.66648674
vertex -28.89342308 37.82542801 18.03115463
endloop
endfacet
facet normal -1.28033185 0.00597310 1.00484109
outer loop
vertex -28.89342308 37.82542801 18.03115463
vertex -29.97003174 36.62976837 16.66648674
vertex -28.89239502 36.89323044 18.03800583
endloop
endfacet
facet normal 0.00000000 -0.87012362 0.00000000
outer loop
vertex -29.04185867 37.82542801 17.04223251
vertex -28.25452805 37.82542801 16.42570305
vertex -28.89342308 37.82542801 18.03115463
endloop
endfacet
facet normal 0.00000000 -0.86691785 -0.00000000
outer loop
vertex -29.04185867 37.82542801 17.04223251
vertex -29.96878624 37.82542801 16.66699028
vertex -28.25452805 37.82542801 16.42570305
endloop
endfacet
facet normal -0.00000000 -0.86095989 0.00000000
outer loop
vertex -29.04185867 37.82542801 17.04223251
vertex -28.89342308 37.82542801 18.03115463
vertex -29.96878624 37.82542801 16.66699028
endloop
endfacet
endsolid