solid (null).stl
facet normal 0.00000000 -0.00000000 3.46410155
outer loop
vertex 0.00000000 0.00000000 0.00000000
vertex 2.00000000 0.00000000 0.00000000
vertex -1.00000012 1.73205078 0.00000000
endloop
endfacet
facet normal 0.00000000 0.00000000 3.46410155
outer loop
vertex 0.00000000 0.00000000 0.00000000
vertex -1.00000012 1.73205078 0.00000000
vertex -0.99999982 -1.73205090 0.00000000
endloop
endfacet
facet normal -0.00000000 0.00000000 3.46410179
outer loop
vertex 0.00000000 0.00000000 0.00000000
vertex -0.99999982 -1.73205090 0.00000000
vertex 2.00000000 0.00000000 0.00000000
endloop
endfacet
facet normal 1.73205078 3.00000000 0.00000000
outer loop
vertex 2.00000000 0.00000000 1.00000000
vertex 2.00000000 0.00000000 0.00000000
vertex -1.00000012 1.73205078 1.00000000
endloop
endfacet
facet normal 1.73205078 3.00000000 0.00000000
outer loop
vertex -1.00000012 1.73205078 1.00000000
vertex 2.00000000 0.00000000 0.00000000
vertex -1.00000012 1.73205078 0.00000000
endloop
endfacet
facet normal -3.46410179 -0.00000030 -0.00000000
outer loop
vertex -1.00000012 1.73205078 1.00000000
vertex -1.00000012 1.73205078 0.00000000
vertex -0.99999982 -1.73205090 1.00000000
endloop
endfacet
facet normal -3.46410179 -0.00000030 -0.00000000
outer loop
vertex -0.99999982 -1.73205090 1.00000000
vertex -1.00000012 1.73205078 0.00000000
vertex -0.99999982 -1.73205090 0.00000000
endloop
endfacet
facet normal 1.73205090 -2.99999976 0.00000000
outer loop
vertex -0.99999982 -1.73205090 1.00000000
vertex -0.99999982 -1.73205090 0.00000000
vertex 2.00000000 0.00000000 1.00000000
endloop
endfacet
facet normal 1.73205090 -2.99999976 0.00000000
outer loop
vertex 2.00000000 0.00000000 1.00000000
vertex -0.99999982 -1.73205090 0.00000000
vertex 2.00000000 0.00000000 0.00000000
endloop
endfacet
facet normal 2.42110348 4.19347429 0.00000021
outer loop
vertex 1.99999988 0.00000000 2.39782476
vertex 2.00000000 0.00000000 1.00000000
vertex -1.00000012 1.73205078 2.15236378
endloop
endfacet
facet normal 1.99595261 3.45709133 0.00000000
outer loop
vertex -1.00000012 1.73205078 2.15236378
vertex 2.00000000 0.00000000 1.00000000
vertex -1.00000012 1.73205078 1.00000000
endloop
endfacet
facet normal -3.99190545 -0.00000034 -0.00000000
outer loop
vertex -1.00000012 1.73205078 2.15236378
vertex -1.00000012 1.73205078 1.00000000
vertex -0.99999982 -1.73205090 1.44981170
endloop
endfacet
facet normal -1.55819356 -0.00000013 -0.00000000
outer loop
vertex -0.99999982 -1.73205090 1.44981170
vertex -1.00000012 1.73205078 1.00000000
vertex -0.99999982 -1.73205090 1.00000000
endloop
endfacet
facet normal 0.77909678 -1.34943497 0.00000000
outer loop
vertex -0.99999982 -1.73205090 1.44981170
vertex -0.99999982 -1.73205090 1.00000000
vertex 1.99999988 0.00000000 2.39782476
endloop
endfacet
facet normal 2.42110372 -4.19347382 0.00000021
outer loop
vertex 1.99999988 0.00000000 2.39782476
vertex -0.99999982 -1.73205090 1.00000000
vertex 2.00000000 0.00000000 1.00000000
endloop
endfacet
facet normal 1.89271402 3.61058640 2.41450119
outer loop
vertex 1.51110649 -0.52292991 3.56304216
vertex 1.99999988 0.00000000 2.39782476
vertex -1.41810417 1.28263640 3.15923405
endloop
endfacet
facet normal 1.63363671 3.12323904 2.07242060
outer loop
vertex -1.41810417 1.28263640 3.15923405
vertex 1.99999988 0.00000000 2.39782476
vertex -1.00000012 1.73205078 2.15236378
endloop
endfacet
facet normal -3.80348110 0.29275519 -1.44872940
outer loop
vertex -1.41810417 1.28263640 3.15923405
vertex -1.00000012 1.73205078 2.15236378
vertex -1.15986419 -1.90478206 1.83714843
endloop
endfacet
facet normal -1.46312642 0.11231293 -0.55378646
outer loop
vertex -1.15986419 -1.90478206 1.83714843
vertex -1.00000012 1.73205078 2.15236378
vertex -0.99999982 -1.73205090 1.44981170
endloop
endfacet
facet normal 0.83335769 -1.31047404 -0.24045093
outer loop
vertex -1.15986419 -1.90478206 1.83714843
vertex -0.99999982 -1.73205090 1.44981170
vertex 1.51110649 -0.52292991 3.56304216
endloop
endfacet
facet normal 2.51396036 -3.95912886 -0.72200125
outer loop
vertex 1.51110649 -0.52292991 3.56304216
vertex -0.99999982 -1.73205090 1.44981170
vertex 1.99999988 0.00000000 2.39782476
endloop
endfacet
facet normal 0.87844658 1.67439139 1.11456394
outer loop
vertex 1.28712404 -0.76536679 4.10378361
vertex 1.51110649 -0.52292991 3.56304216
vertex -1.70822179 0.96861529 3.85964012
endloop
endfacet
facet normal 1.13782525 2.16878891 1.44366062
outer loop
vertex -1.70822179 0.96861529 3.85964012
vertex 1.51110649 -0.52292991 3.56304216
vertex -1.41810417 1.28263640 3.15923405
endloop
endfacet
facet normal -2.64765000 0.20268758 -1.00581908
outer loop
vertex -1.70822179 0.96861529 3.85964012
vertex -1.41810417 1.28263640 3.15923405
vertex -1.70663762 -2.49660540 3.15717626
endloop
endfacet
facet normal -4.98992205 0.38199735 -1.89562821
outer loop
vertex -1.70663762 -2.49660540 3.15717626
vertex -1.41810417 1.28263640 3.15923405
vertex -1.15986419 -1.90478206 1.83714843
endloop
endfacet
facet normal 2.84550738 -4.46942806 -0.82518274
outer loop
vertex -1.70663762 -2.49660540 3.15717626
vertex -1.15986419 -1.90478206 1.83714843
vertex 1.28712404 -0.76536679 4.10378361
endloop
endfacet
facet normal 1.16564500 -1.83087432 -0.33803117
outer loop
vertex 1.28712404 -0.76536679 4.10378361
vertex -1.15986419 -1.90478206 1.83714843
vertex 1.51110649 -0.52292991 3.56304216
endloop
endfacet
facet normal 1.04498601 1.80996895 -0.00999264
outer loop
vertex 1.29289329 -0.76536679 4.70710659
vertex 1.28712404 -0.76536679 4.10378361
vertex -1.70710671 0.96668398 4.70710659
endloop
endfacet
facet normal 1.46902013 2.53818297 0.00385141
outer loop
vertex -1.70710671 0.96668398 4.70710659
vertex 1.28712404 -0.76536679 4.10378361
vertex -1.70822179 0.96861529 3.85964012
endloop
endfacet
facet normal -2.93571019 0.00000000 0.00386276
outer loop
vertex -1.70710671 0.96668398 4.70710659
vertex -1.70822179 0.96861529 3.85964012
vertex -1.70710671 -2.49741769 4.70710659
endloop
endfacet
facet normal -5.37142134 -0.00212584 -0.00162678
outer loop
vertex -1.70710671 -2.49741769 4.70710659
vertex -1.70822179 0.96861529 3.85964012
vertex -1.70663762 -2.49660540 3.15717626
endloop
endfacet
facet normal 2.68455815 -4.64979076 -0.00162439
outer loop
vertex -1.70710671 -2.49741769 4.70710659
vertex -1.70663762 -2.49660540 3.15717626
vertex 1.29289329 -0.76536679 4.70710659
endloop
endfacet
facet normal 1.04449606 -1.80074394 -0.00998795
outer loop
vertex 1.29289329 -0.76536679 4.70710659
vertex -1.70663762 -2.49660540 3.15717626
vertex 1.28712404 -0.76536679 4.10378361
endloop
endfacet
facet normal 2.42110348 4.19347429 0.00000021
outer loop
vertex 1.29289317 -0.76536679 6.10493135
vertex 1.29289329 -0.76536679 4.70710659
vertex -1.70710671 0.96668398 5.85947037
endloop
endfacet
facet normal 1.99595261 3.45709133 0.00000000
outer loop
vertex -1.70710671 0.96668398 5.85947037
vertex 1.29289329 -0.76536679 4.70710659
vertex -1.70710671 0.96668398 4.70710659
endloop
endfacet
facet normal -3.99190545 0.00000000 -0.00000000
outer loop
vertex -1.70710671 0.96668398 5.85947037
vertex -1.70710671 0.96668398 4.70710659
vertex -1.70710671 -2.49741769 5.15691805
endloop
endfacet
facet normal -1.55819273 0.00000000 0.00000000
outer loop
vertex -1.70710671 -2.49741769 5.15691805
vertex -1.70710671 0.96668398 4.70710659
vertex -1.70710671 -2.49741769 4.70710659
endloop
endfacet
facet normal 0.77909636 -1.34943438 0.00000000
outer loop
vertex -1.70710671 -2.49741769 5.15691805
vertex -1.70710671 -2.49741769 4.70710659
vertex 1.29289317 -0.76536679 6.10493135
endloop
endfacet
facet normal 2.42110372 -4.19347429 0.00000021
outer loop
vertex 1.29289317 -0.76536679 6.10493135
vertex -1.70710671 -2.49741769 4.70710659
vertex 1.29289329 -0.76536679 4.70710659
endloop
endfacet
facet normal 1.89271462 3.61058784 2.41450143
outer loop
vertex 0.80399966 -1.28829670 7.27014923
vertex 1.29289317 -0.76536679 6.10493135
vertex -2.12521076 0.51726973 6.86634064
endloop
endfacet
facet normal 1.63363671 3.12323880 2.07242012
outer loop
vertex -2.12521076 0.51726973 6.86634064
vertex 1.29289317 -0.76536679 6.10493135
vertex -1.70710671 0.96668398 5.85947037
endloop
endfacet
facet normal -3.80348110 0.29275557 -1.44872928
outer loop
vertex -2.12521076 0.51726973 6.86634064
vertex -1.70710671 0.96668398 5.85947037
vertex -1.86697102 -2.67014885 5.54425478
endloop
endfacet
facet normal -1.46312642 0.11231304 -0.55378622
outer loop
vertex -1.86697102 -2.67014885 5.54425478
vertex -1.70710671 0.96668398 5.85947037
vertex -1.70710671 -2.49741769 5.15691805
endloop
endfacet
facet normal 0.83335781 -1.31047404 -0.24045102
outer loop
vertex -1.86697102 -2.67014885 5.54425478
vertex -1.70710671 -2.49741769 5.15691805
vertex 0.80399966 -1.28829670 7.27014923
endloop
endfacet
facet normal 2.51396132 -3.95913124 -0.72200125
outer loop
vertex 0.80399966 -1.28829670 7.27014923
vertex -1.70710671 -2.49741769 5.15691805
vertex 1.29289317 -0.76536679 6.10493135
endloop
endfacet
facet normal 1.42848444 2.72280931 1.81244683
outer loop
vertex 0.43977085 -1.68253517 8.14947510
vertex 0.80399966 -1.28829670 7.27014923
vertex -2.35199928 0.27179566 7.41385651
endloop
endfacet
facet normal 0.88945174 1.69536841 1.12852693
outer loop
vertex -2.35199928 0.27179566 7.41385651
vertex 0.80399966 -1.28829670 7.27014923
vertex -2.12521076 0.51726973 6.86634064
endloop
endfacet
facet normal -2.06970024 0.15844342 -0.78626126
outer loop
vertex -2.35199928 0.27179566 7.41385651
vertex -2.12521076 0.51726973 6.86634064
vertex -2.33638716 -3.17824149 6.67752600
endloop
endfacet
facet normal -4.28395176 0.32795277 -1.62743545
outer loop
vertex -2.33638716 -3.17824149 6.67752600
vertex -2.12521076 0.51726973 6.86634064
vertex -1.86697102 -2.67014885 5.54425478
endloop
endfacet
facet normal 2.44292736 -3.83709669 -0.70843679
outer loop
vertex -2.33638716 -3.17824149 6.67752600
vertex -1.86697102 -2.67014885 5.54425478
vertex 0.43977085 -1.68253517 8.14947510
endloop
endfacet
facet normal 1.89551234 -2.97727394 -0.54968905
outer loop
vertex 0.43977085 -1.68253517 8.14947510
vertex -1.86697102 -2.67014885 5.54425478
vertex 0.80399966 -1.28829670 7.27014923
endloop
endfacet
facet normal 1.86008608 2.94715071 0.77047247
outer loop
vertex 0.04553235 -1.68253517 9.10125160
vertex 0.43977085 -1.68253517 8.14947510
vertex -2.59747338 0.27179563 8.00648308
endloop
endfacet
facet normal 1.15818834 1.83505249 0.47973770
outer loop
vertex -2.59747338 0.27179563 8.00648308
vertex 0.43977085 -1.68253517 8.14947510
vertex -2.35199928 0.27179566 7.41385651
endloop
endfacet
facet normal -2.04458356 0.17149763 -0.84689474
outer loop
vertex -2.59747338 0.27179563 8.00648308
vertex -2.35199928 0.27179566 7.41385651
vertex -2.84447956 -3.17824149 7.90417004
endloop
endfacet
facet normal -4.23196745 0.35497344 -1.75293767
outer loop
vertex -2.84447956 -3.17824149 7.90417004
vertex -2.35199928 0.27179566 7.41385651
vertex -2.33638716 -3.17824149 6.67752600
endloop
endfacet
facet normal 1.83469927 -4.15324402 0.75995702
outer loop
vertex -2.84447956 -3.17824149 7.90417004
vertex -2.33638716 -3.17824149 6.67752600
vertex 0.04553235 -1.68253517 9.10125160
endloop
endfacet
facet normal 1.42357814 -3.22258067 0.58966500
outer loop
vertex 0.04553235 -1.68253517 9.10125160
vertex -2.33638716 -3.17824149 6.67752600
vertex 0.43977085 -1.68253517 8.14947510
endloop
endfacet
facet normal 2.52179313 3.99557018 1.04456091
outer loop
vertex -0.48895288 -1.68253517 10.39161301
vertex 0.04553235 -1.68253517 9.10125160
vertex -2.91419554 0.27179563 8.77111816
endloop
endfacet
facet normal 1.49434996 2.36767220 0.61897987
outer loop
vertex -2.91419554 0.27179563 8.77111816
vertex 0.04553235 -1.68253517 9.10125160
vertex -2.59747338 0.27179563 8.00648308
endloop
endfacet
facet normal -2.63801932 0.22127430 -1.09270310
outer loop
vertex -2.91419554 0.27179563 8.77111816
vertex -2.59747338 0.27179563 8.00648308
vertex -3.14085031 -3.17824149 8.61967278
endloop
endfacet
facet normal -2.46851087 0.20705619 -1.02249002
outer loop
vertex -3.14085031 -3.17824149 8.61967278
vertex -2.59747338 0.27179563 8.00648308
vertex -2.84447956 -3.17824149 7.90417004
endloop
endfacet
facet normal 1.07018197 -2.42259121 0.44328359
outer loop
vertex -3.14085031 -3.17824149 8.61967278
vertex -2.84447956 -3.17824149 7.90417004
vertex -0.48895288 -1.68253517 10.39161301
endloop
endfacet
facet normal 1.93000174 -4.36898232 0.79943293
outer loop
vertex -0.48895288 -1.68253517 10.39161301
vertex -2.84447956 -3.17824149 7.90417004
vertex 0.04553235 -1.68253517 9.10125160
endloop
endfacet
facet normal 1.93009770 3.99557161 1.93009722
outer loop
vertex -1.47655296 -1.68253517 11.37921333
vertex -0.48895288 -1.68253517 10.39161301
vertex -3.49942183 0.27179563 9.35634422
endloop
endfacet
facet normal 1.14372528 2.36767149 1.14372575
outer loop
vertex -3.49942183 0.27179563 9.35634422
vertex -0.48895288 -1.68253517 10.39161301
vertex -2.91419554 0.27179563 8.77111816
endloop
endfacet
facet normal -2.01905179 0.22127396 -2.01905274
outer loop
vertex -3.49942183 0.27179563 9.35634422
vertex -2.91419554 0.27179563 8.77111816
vertex -3.68847203 -3.17824173 9.16729450
endloop
endfacet
facet normal -1.88931537 0.20705587 -1.88931525
outer loop
vertex -3.68847203 -3.17824173 9.16729450
vertex -2.91419554 0.27179563 8.77111816
vertex -3.14085031 -3.17824149 8.61967278
endloop
endfacet
facet normal 0.81908196 -2.42258978 0.81908089
outer loop
vertex -3.68847203 -3.17824173 9.16729450
vertex -3.14085031 -3.17824149 8.61967278
vertex -1.47655296 -1.68253517 11.37921333
endloop
endfacet
facet normal 1.47716010 -4.36898327 1.47715974
outer loop
vertex -1.47655296 -1.68253517 11.37921333
vertex -3.14085031 -3.17824149 8.61967278
vertex -0.48895288 -1.68253517 10.39161301
endloop
endfacet
facet normal 1.42364681 2.94714832 1.42364728
outer loop
vertex -2.20501065 -1.68253517 12.10767078
vertex -1.47655296 -1.68253517 11.37921333
vertex -3.95299864 0.27179563 9.80992126
endloop
endfacet
facet normal 0.88643956 1.83505344 0.88643914
outer loop
vertex -3.95299864 0.27179563 9.80992126
vertex -1.47655296 -1.68253517 11.37921333
vertex -3.49942183 0.27179563 9.35634422
endloop
endfacet
facet normal -1.56485784 0.17149751 -1.56485701
outer loop
vertex -3.95299864 0.27179563 9.80992126
vertex -3.49942183 0.27179563 9.35634422
vertex -4.62730408 -3.17824173 10.10612679
endloop
endfacet
facet normal -3.23900652 0.35497236 -3.23900580
outer loop
vertex -4.62730408 -3.17824173 10.10612679
vertex -3.49942183 0.27179563 9.35634422
vertex -3.68847203 -3.17824173 9.16729450
endloop
endfacet
facet normal 1.40421760 -4.15324116 1.40421724
outer loop
vertex -4.62730408 -3.17824173 10.10612679
vertex -3.68847203 -3.17824173 9.16729450
vertex -2.20501065 -1.68253517 12.10767078
endloop
endfacet
facet normal 1.08955860 -3.22257805 1.08955896
outer loop
vertex -2.20501065 -1.68253517 12.10767078
vertex -3.68847203 -3.17824173 9.16729450
vertex -1.47655296 -1.68253517 11.37921333
endloop
endfacet
facet normal 2.22113991 2.72281027 0.62615466
outer loop
vertex -2.87801790 -1.28829658 12.78067780
vertex -2.20501065 -1.68253517 12.10767078
vertex -4.37204885 0.51726985 10.22897148
endloop
endfacet
facet normal 1.38300097 1.69536710 0.38987672
outer loop
vertex -4.37204885 0.51726985 10.22897148
vertex -2.20501065 -1.68253517 12.10767078
vertex -3.95299864 0.27179563 9.80992126
endloop
endfacet
facet normal -1.51844990 0.15844303 -1.61126375
outer loop
vertex -4.37204885 0.51726985 10.22897148
vertex -3.95299864 0.27179563 9.80992126
vertex -5.49467230 -2.67014933 10.97349453
endloop
endfacet
facet normal -3.14295101 0.32795155 -3.33506250
outer loop
vertex -5.49467230 -2.67014933 10.97349453
vertex -3.95299864 0.27179563 9.80992126
vertex -4.62730408 -3.17824173 10.10612679
endloop
endfacet
facet normal 0.28035843 -3.83709478 2.52807736
outer loop
vertex -5.49467230 -2.67014933 10.97349453
vertex -4.62730408 -3.17824173 10.10612679
vertex -2.87801790 -1.28829658 12.78067780
endloop
endfacet
facet normal 0.21753514 -2.97727394 1.96158290
outer loop
vertex -2.87801790 -1.28829658 12.78067780
vertex -4.62730408 -3.17824173 10.10612679
vertex -2.20501065 -1.68253517 12.10767078
endloop
endfacet
facet normal 1.37041068 1.67993355 0.38632807
outer loop
vertex -3.29325342 -1.04505718 13.19591331
vertex -2.87801790 -1.28829658 12.78067780
vertex -5.12093067 0.95595479 10.97785378
endloop
endfacet
facet normal 2.47155190 3.02977991 0.69674689
outer loop
vertex -5.12093067 0.95595479 10.97785378
vertex -2.87801790 -1.28829658 12.78067780
vertex -4.37204885 0.51726985 10.22897148
endloop
endfacet
facet normal -2.71361279 0.28315341 -2.87947822
outer loop
vertex -5.12093067 0.95595479 10.97785378
vertex -4.37204885 0.51726985 10.22897148
vertex -6.29112673 -2.20359707 11.76994896
endloop
endfacet
facet normal -2.88599300 0.30113983 -3.06239653
outer loop
vertex -6.29112673 -2.20359707 11.76994896
vertex -4.37204885 0.51726985 10.22897148
vertex -5.49467230 -2.67014933 10.97349453
endloop
endfacet
facet normal 0.25743735 -3.52338505 2.32138872
outer loop
vertex -6.29112673 -2.20359707 11.76994896
vertex -5.49467230 -2.67014933 10.97349453
vertex -3.29325342 -1.04505718 13.19591331
endloop
endfacet
facet normal 0.13421619 -1.83693457 1.21026778
outer loop
vertex -3.29325342 -1.04505718 13.19591331
vertex -5.49467230 -2.67014933 10.97349453
vertex -2.87801790 -1.28829658 12.78067780
endloop
endfacet
facet normal 1.63402259 1.49943566 0.00608504
outer loop
vertex -3.52007771 -0.80008811 13.74161816
vertex -3.29325342 -1.04505718 13.19591331
vertex -5.51705027 1.38345909 11.93547058
endloop
endfacet
facet normal 2.86443281 2.62883139 0.01130021
outer loop
vertex -5.51705027 1.38345909 11.93547058
vertex -3.29325342 -1.04505718 13.19591331
vertex -5.12093067 0.95595479 10.97785378
endloop
endfacet
facet normal -3.36388636 0.80912811 -1.75269175
outer loop
vertex -5.51705027 1.38345909 11.93547058
vertex -5.12093067 0.95595479 10.97785378
vertex -6.73143864 -1.73058891 12.82861137
endloop
endfacet
facet normal -3.71956635 0.89007372 -1.94470072
outer loop
vertex -6.73143864 -1.73058891 12.82861137
vertex -5.12093067 0.95595479 10.97785378
vertex -6.29112673 -2.20359707 11.76994896
endloop
endfacet
facet normal 0.55322659 -3.80175495 1.92871046
outer loop
vertex -6.73143864 -1.73058891 12.82861137
vertex -6.29112673 -2.20359707 11.76994896
vertex -3.52007771 -0.80008811 13.74161816
endloop
endfacet
facet normal 0.28290364 -1.95939732 0.99717122
outer loop
vertex -3.52007771 -0.80008811 13.74161816
vertex -6.29112673 -2.20359707 11.76994896
vertex -3.29325342 -1.04505718 13.19591331
endloop
endfacet
facet normal 3.31851673 3.04333568 0.01012051
outer loop
vertex -3.97929192 -0.30303809 14.85025978
vertex -3.52007771 -0.80008811 13.74161816
vertex -5.96113396 1.86413181 13.00758362
endloop
endfacet
facet normal 3.20917535 2.94306111 0.00978744
outer loop
vertex -5.96113396 1.86413181 13.00758362
vertex -3.52007771 -0.80008811 13.74161816
vertex -5.51705027 1.38345909 11.93547058
endloop
endfacet
facet normal -3.76791954 0.90533257 -1.96662128
outer loop
vertex -5.96113396 1.86413181 13.00758362
vertex -5.51705027 1.38345909 11.93547058
vertex -6.88833284 -1.56076789 13.20738697
endloop
endfacet
facet normal -1.33119953 0.31985211 -0.69480479
outer loop
vertex -6.88833284 -1.56076789 13.20738697
vertex -5.51705027 1.38345909 11.93547058
vertex -6.73143864 -1.73058891 12.82861137
endloop
endfacet
facet normal 0.19740298 -1.35963094 0.69134682
outer loop
vertex -6.88833284 -1.56076789 13.20738697
vertex -6.73143864 -1.73058891 12.82861137
vertex -3.97929192 -0.30303809 14.85025978
endloop
endfacet
facet normal 0.57778180 -3.97951412 2.02350616
outer loop
vertex -3.97929192 -0.30303809 14.85025978
vertex -6.73143864 -1.73058891 12.82861137
vertex -3.52007771 -0.80008811 13.74161816
endloop
endfacet
facet normal 2.04361939 3.60404134 2.03132582
outer loop
vertex -4.91676807 -0.30380180 15.79476452
vertex -3.97929192 -0.30303809 14.85025978
vertex -6.83179331 1.86144078 13.87973881
endloop
endfacet
facet normal 1.88514960 3.33281708 1.89219975
outer loop
vertex -6.83179331 1.86144078 13.87973881
vertex -3.97929192 -0.30303809 14.85025978
vertex -5.96113396 1.86413181 13.00758362
endloop
endfacet
facet normal -2.98727012 0.63695544 -2.98018146
outer loop
vertex -6.83179331 1.86144078 13.87973881
vertex -5.96113396 1.86413181 13.00758362
vertex -7.19726801 -1.56259048 13.51426315
endloop
endfacet
facet normal -1.05065596 0.22280899 -1.05638206
outer loop
vertex -7.19726801 -1.56259048 13.51426315
vertex -5.96113396 1.86413181 13.00758362
vertex -6.88833284 -1.56076789 13.20738697
endloop
endfacet
facet normal 0.39044869 -1.40435815 0.38472769
outer loop
vertex -7.19726801 -1.56259048 13.51426315
vertex -6.88833284 -1.56076789 13.20738697
vertex -4.91676807 -0.30380180 15.79476452
endloop
endfacet
facet normal 1.18918645 -4.28775692 1.17686999
outer loop
vertex -4.91676807 -0.30380180 15.79476452
vertex -6.88833284 -1.56076789 13.20738697
vertex -3.97929192 -0.30303809 14.85025978
endloop
endfacet
facet normal 2.13308120 3.77316141 2.13308120
outer loop
vertex -5.90191460 -0.30380180 16.77991104
vertex -4.91676807 -0.30380180 15.79476452
vertex -7.43601751 1.86144078 14.48396301
endloop
endfacet
facet normal 1.30829203 2.31420946 1.30829203
outer loop
vertex -7.43601751 1.86144078 14.48396301
vertex -4.91676807 -0.30380180 15.79476452
vertex -6.83179331 1.86144078 13.87973881
endloop
endfacet
facet normal -2.06888247 0.44165760 -2.06888247
outer loop
vertex -7.43601751 1.86144078 14.48396301
vertex -6.83179331 1.86144078 13.87973881
vertex -7.72879505 -1.56259048 14.04579067
endloop
endfacet
facet normal -1.81996679 0.38852006 -1.81996524
outer loop
vertex -7.72879505 -1.56259048 14.04579067
vertex -6.83179331 1.86144078 13.87973881
vertex -7.19726801 -1.56259048 13.51426315
endloop
endfacet
facet normal 0.66908085 -2.42429614 0.66908026
outer loop
vertex -7.72879505 -1.56259048 14.04579067
vertex -7.19726801 -1.56259048 13.51426315
vertex -5.90191460 -0.30380180 16.77991104
endloop
endfacet
facet normal 1.24009132 -4.49325466 1.24009132
outer loop
vertex -5.90191460 -0.30380180 16.77991104
vertex -7.19726801 -1.56259048 13.51426315
vertex -4.91676807 -0.30380180 15.79476452
endloop
endfacet
facet normal 1.15441489 3.77316213 2.78700638
outer loop
vertex -7.18907118 -0.30380183 17.31306839
vertex -5.90191460 -0.30380180 16.77991104
vertex -8.22547531 1.86144078 14.81096745
endloop
endfacet
facet normal 0.70804393 2.31421256 1.70936775
outer loop
vertex -8.22547531 1.86144078 14.81096745
vertex -5.90191460 -0.30380180 16.77991104
vertex -7.43601751 1.86144078 14.48396301
endloop
endfacet
facet normal -1.11967337 0.44165838 -2.70312810
outer loop
vertex -8.22547531 1.86144078 14.81096745
vertex -7.43601751 1.86144078 14.48396301
vertex -8.42326927 -1.56259048 14.33345127
endloop
endfacet
facet normal -0.98495889 0.38851994 -2.37790155
outer loop
vertex -8.42326927 -1.56259048 14.33345127
vertex -7.43601751 1.86144078 14.48396301
vertex -7.72879505 -1.56259048 14.04579067
endloop
endfacet
facet normal 0.36210388 -2.42429733 0.87419623
outer loop
vertex -8.42326927 -1.56259048 14.33345127
vertex -7.72879505 -1.56259048 14.04579067
vertex -7.18907118 -0.30380183 17.31306839
endloop
endfacet
facet normal 0.67113250 -4.49325609 1.62025797
outer loop
vertex -7.18907118 -0.30380183 17.31306839
vertex -7.72879505 -1.56259048 14.04579067
vertex -5.90191460 -0.30380180 16.77991104
endloop
endfacet
facet normal 0.55384481 1.81021500 1.33709478
outer loop
vertex -7.80659771 -0.30380183 17.56885719
vertex -7.18907118 -0.30380183 17.31306839
vertex -8.93499565 1.86144078 15.10486031
endloop
endfacet
facet normal 0.63634938 2.07988334 1.53628373
outer loop
vertex -8.93499565 1.86144078 15.10486031
vertex -7.18907118 -0.30380183 17.31306839
vertex -8.22547531 1.86144078 14.81096745
endloop
endfacet
facet normal -1.00629830 0.39693743 -2.42941976
outer loop
vertex -8.93499565 1.86144078 15.10486031
vertex -8.22547531 1.86144078 14.81096745
vertex -9.86933899 -1.56259048 14.93243313
endloop
endfacet
facet normal -2.05093265 0.80899668 -4.95138788
outer loop
vertex -9.86933899 -1.56259048 14.93243313
vertex -8.22547531 1.86144078 14.81096745
vertex -8.42326927 -1.56259048 14.33345127
endloop
endfacet
facet normal 0.75399154 -5.04799747 1.82029605
outer loop
vertex -9.86933899 -1.56259048 14.93243313
vertex -8.42326927 -1.56259048 14.33345127
vertex -7.80659771 -0.30380183 17.56885719
endloop
endfacet
facet normal 0.32198402 -2.15568662 0.77733535
outer loop
vertex -7.80659771 -0.30380183 17.56885719
vertex -8.42326927 -1.56259048 14.33345127
vertex -7.18907118 -0.30380183 17.31306839
endloop
endfacet
facet normal 1.64546943 1.64441717 0.69553912
outer loop
vertex -8.26731491 -0.03472158 18.02262878
vertex -7.80659771 -0.30380183 17.56885719
vertex -9.42109299 2.14882612 15.58975792
endloop
endfacet
facet normal 1.75803757 1.74489975 0.72823364
outer loop
vertex -9.42109299 2.14882612 15.58975792
vertex -7.80659771 -0.30380183 17.56885719
vertex -8.93499565 1.86144078 15.10486031
endloop
endfacet
facet normal -1.61357641 0.53456074 -1.93438804
outer loop
vertex -9.42109299 2.14882612 15.58975792
vertex -8.93499565 1.86144078 15.10486031
vertex -10.88483238 -0.96522254 15.95018578
endloop
endfacet
facet normal -3.38181424 1.12602901 -4.03522778
outer loop
vertex -10.88483238 -0.96522254 15.95018578
vertex -8.93499565 1.86144078 15.10486031
vertex -9.86933899 -1.56259048 14.93243313
endloop
endfacet
facet normal -0.29099119 -4.76853752 2.50853872
outer loop
vertex -10.88483238 -0.96522254 15.95018578
vertex -9.86933899 -1.56259048 14.93243313
vertex -8.26731491 -0.03472158 18.02262878
endloop
endfacet
facet normal -0.13820714 -2.15065932 1.13498855
outer loop
vertex -8.26731491 -0.03472158 18.02262878
vertex -9.86933899 -1.56259048 14.93243313
vertex -7.80659771 -0.30380183 17.56885719
endloop
endfacet
facet normal 3.20650864 3.18692398 1.33965337
outer loop
vertex -9.15586758 0.48578045 18.91118050
vertex -8.26731491 -0.03472158 18.02262878
vertex -9.99537754 2.48523426 16.16404343
endloop
endfacet
facet normal 2.07241750 2.05975819 0.86583734
outer loop
vertex -9.99537754 2.48523426 16.16404343
vertex -8.26731491 -0.03472158 18.02262878
vertex -9.42109299 2.14882612 15.58975792
endloop
endfacet
facet normal -1.90960348 0.63361669 -2.28076363
outer loop
vertex -9.99537754 2.48523426 16.16404343
vertex -9.42109299 2.14882612 15.58975792
vertex -11.38093185 -0.67461401 16.44628525
endloop
endfacet
facet normal -1.64962125 0.54735225 -1.97025299
outer loop
vertex -11.38093185 -0.67461401 16.44628525
vertex -9.42109299 2.14882612 15.58975792
vertex -10.88483238 -0.96522254 15.95018578
endloop
endfacet
facet normal -0.14064848 -2.32668638 1.22229373
outer loop
vertex -11.38093185 -0.67461401 16.44628525
vertex -10.88483238 -0.96522254 15.95018578
vertex -9.15586758 0.48578045 18.91118050
endloop
endfacet
facet normal -0.25191259 -4.16727448 2.18922234
outer loop
vertex -9.15586758 0.48578045 18.91118050
vertex -10.88483238 -0.96522254 15.95018578
vertex -8.26731491 -0.03472158 18.02262878
endloop
endfacet
facet normal 2.40125990 3.60522413 1.89123797
outer loop
vertex -10.32006359 1.00780404 19.39421082
vertex -9.15586758 0.48578045 18.91118050
vertex -10.72387028 2.81337166 16.46500206
endloop
endfacet
facet normal 1.50319123 2.25392723 1.18111300
outer loop
vertex -10.72387028 2.81337166 16.46500206
vertex -9.15586758 0.48578045 18.91118050
vertex -9.99537754 2.48523426 16.16404343
endloop
endfacet
facet normal -1.04401922 0.20976892 -2.75583863
outer loop
vertex -10.72387028 2.81337166 16.46500206
vertex -9.99537754 2.48523426 16.16404343
vertex -12.04595661 -0.37404895 16.72323990
endloop
endfacet
facet normal -0.95996666 0.19603792 -2.51782656
outer loop
vertex -12.04595661 -0.37404895 16.72323990
vertex -9.99537754 2.48523426 16.16404343
vertex -11.38093185 -0.67461401 16.44628525
endloop
endfacet
facet normal -0.42008993 -2.25425577 1.43770957
outer loop
vertex -12.04595661 -0.37404895 16.72323990
vertex -11.38093185 -0.67461401 16.44628525
vertex -10.32006359 1.00780404 19.39421082
endloop
endfacet
facet normal -0.72622758 -3.94439483 2.51246262
outer loop
vertex -10.32006359 1.00780404 19.39421082
vertex -11.38093185 -0.67461401 16.44628525
vertex -9.15586758 0.48578045 18.91118050
endloop
endfacet
facet normal 1.81244731 2.72280788 1.42848635
outer loop
vertex -11.19938946 1.40204239 19.75844002
vertex -10.32006359 1.00780404 19.39421082
vertex -11.27138519 3.05884552 16.69178963
endloop
endfacet
facet normal 1.12852454 1.69536388 0.88945127
outer loop
vertex -11.27138519 3.05884552 16.69178963
vertex -10.32006359 1.00780404 19.39421082
vertex -10.72387028 2.81337166 16.46500206
endloop
endfacet
facet normal -0.78625816 0.15844342 -2.06969810
outer loop
vertex -11.27138519 3.05884552 16.69178963
vertex -10.72387028 2.81337166 16.46500206
vertex -13.17922783 0.13404381 17.19265556
endloop
endfacet
facet normal -1.62743402 0.32795447 -4.28395462
outer loop
vertex -13.17922783 0.13404381 17.19265556
vertex -10.72387028 2.81337166 16.46500206
vertex -12.04595661 -0.37404895 16.72323990
endloop
endfacet
facet normal -0.70843804 -3.83709669 2.44292784
outer loop
vertex -13.17922783 0.13404381 17.19265556
vertex -12.04595661 -0.37404895 16.72323990
vertex -11.19938946 1.40204239 19.75844002
endloop
endfacet
facet normal -0.54968798 -2.97727442 1.89551234
outer loop
vertex -11.19938946 1.40204239 19.75844002
vertex -12.04595661 -0.37404895 16.72323990
vertex -10.32006359 1.00780404 19.39421082
endloop
endfacet
facet normal 2.69578934 2.08394742 1.06259418
outer loop
vertex -11.87239647 2.13050008 20.03720856
vertex -11.19938946 1.40204239 19.75844002
vertex -11.69043541 3.51242208 16.86536598
endloop
endfacet
facet normal 1.67854261 1.29757726 0.66162813
outer loop
vertex -11.69043541 3.51242208 16.86536598
vertex -11.19938946 1.40204239 19.75844002
vertex -11.27138519 3.05884552 16.69178963
endloop
endfacet
facet normal -0.73485732 0.12126830 -2.09099102
outer loop
vertex -11.69043541 3.51242208 16.86536598
vertex -11.27138519 3.05884552 16.69178963
vertex -14.04659557 1.07287681 17.55193138
endloop
endfacet
facet normal -1.52103996 0.25100672 -4.32802391
outer loop
vertex -14.04659557 1.07287681 17.55193138
vertex -11.27138519 3.05884552 16.69178963
vertex -13.17922783 0.13404381 17.19265556
endloop
endfacet
facet normal -1.95328188 -2.93678641 2.95855832
outer loop
vertex -14.04659557 1.07287681 17.55193138
vertex -13.17922783 0.13404381 17.19265556
vertex -11.87239647 2.13050008 20.03720856
endloop
endfacet
facet normal -1.51558721 -2.27870750 2.29560041
outer loop
vertex -11.87239647 2.13050008 20.03720856
vertex -13.17922783 0.13404381 17.19265556
vertex -11.19938946 1.40204239 19.75844002
endloop
endfacet
facet normal 3.41461086 2.63962197 1.34592950
outer loop
vertex -12.72485733 3.05319738 20.39031029
vertex -11.87239647 2.13050008 20.03720856
vertex -12.47223949 4.35864115 17.18919945
endloop
endfacet
facet normal 3.13158631 2.42083430 1.23437119
outer loop
vertex -12.47223949 4.35864115 17.18919945
vertex -11.87239647 2.13050008 20.03720856
vertex -11.69043541 3.51242208 16.86536598
endloop
endfacet
facet normal -1.37099147 0.22624370 -3.90107441
outer loop
vertex -12.47223949 4.35864115 17.18919945
vertex -11.69043541 3.51242208 16.86536598
vertex -14.37189770 1.42498100 17.68667603
endloop
endfacet
facet normal -0.57045817 0.09413877 -1.62320304
outer loop
vertex -14.37189770 1.42498100 17.68667603
vertex -11.69043541 3.51242208 16.86536598
vertex -14.04659557 1.07287681 17.55193138
endloop
endfacet
facet normal -0.73256749 -1.10142779 1.10959208
outer loop
vertex -14.37189770 1.42498100 17.68667603
vertex -14.04659557 1.07287681 17.55193138
vertex -12.72485733 3.05319738 20.39031029
endloop
endfacet
facet normal -1.91971004 -2.88631487 2.90771008
outer loop
vertex -12.72485733 3.05319738 20.39031029
vertex -14.04659557 1.07287681 17.55193138
vertex -11.87239647 2.13050008 20.03720856
endloop
endfacet
facet normal 1.72910357 4.10900116 1.79889286
outer loop
vertex -14.00643253 3.58623195 20.40461731
vertex -12.72485733 3.05319738 20.39031029
vertex -13.51046371 4.78360558 17.19286919
endloop
endfacet
facet normal 1.36514890 3.32254386 1.46269691
outer loop
vertex -13.51046371 4.78360558 17.19286919
vertex -12.72485733 3.05319738 20.39031029
vertex -12.47223949 4.35864115 17.18919945
endloop
endfacet
facet normal -0.22115628 -0.50703108 -3.85303640
outer loop
vertex -13.51046371 4.78360558 17.19286919
vertex -12.47223949 4.35864115 17.18919945
vertex -14.82483864 1.61042404 17.68587875
endloop
endfacet
facet normal -0.08991465 -0.22684205 -1.68105316
outer loop
vertex -14.82483864 1.61042404 17.68587875
vertex -12.47223949 4.35864115 17.18919945
vertex -14.37189770 1.42498100 17.68667603
endloop
endfacet
facet normal -0.50574636 -1.23077559 1.04669201
outer loop
vertex -14.82483864 1.61042404 17.68587875
vertex -14.37189770 1.42498100 17.68667603
vertex -14.00643253 3.58623195 20.40461731
endloop
endfacet
facet normal -1.41783559 -3.48847485 2.96461129
outer loop
vertex -14.00643253 3.58623195 20.40461731
vertex -14.37189770 1.42498100 17.68667603
vertex -12.72485733 3.05319738 20.39031029
endloop
endfacet
facet normal 0.74872339 1.80757928 0.78950500
outer loop
vertex -14.56923485 3.81935215 20.40461731
vertex -14.00643253 3.58623195 20.40461731
vertex -14.32213020 5.11980867 17.19286919
endloop
endfacet
facet normal 1.07979965 2.60686827 1.13861430
outer loop
vertex -14.32213020 5.11980867 17.19286919
vertex -14.00643253 3.58623195 20.40461731
vertex -13.51046371 4.78360558 17.19286919
endloop
endfacet
facet normal -0.16575134 -0.40015936 -3.01746178
outer loop
vertex -14.32213020 5.11980867 17.19286919
vertex -13.51046371 4.78360558 17.19286919
vertex -16.22093391 2.18870568 17.68587875
endloop
endfacet
facet normal -0.28509837 -0.68828833 -5.19014263
outer loop
vertex -16.22093391 2.18870568 17.68587875
vertex -13.51046371 4.78360558 17.19286919
vertex -14.82483864 1.61042404 17.68587875
endloop
endfacet
facet normal -1.57219660 -3.79561806 3.23168516
outer loop
vertex -16.22093391 2.18870568 17.68587875
vertex -14.82483864 1.61042404 17.68587875
vertex -14.56923485 3.81935215 20.40461731
endloop
endfacet
facet normal -0.63379288 -1.53011239 1.30277622
outer loop
vertex -14.56923485 3.81935215 20.40461731
vertex -14.82483864 1.61042404 17.68587875
vertex -14.00643253 3.58623195 20.40461731
endloop
endfacet
facet normal 1.79668105 1.41944599 0.72149998
outer loop
vertex -15.02671909 4.31008148 20.57840729
vertex -14.56923485 3.81935215 20.40461731
vertex -14.84475899 5.69200182 17.40656281
endloop
endfacet
facet normal 2.11563945 1.62574732 0.82104760
outer loop
vertex -14.84475899 5.69200182 17.40656281
vertex -14.56923485 3.81935215 20.40461731
vertex -14.32213020 5.11980867 17.19286919
endloop
endfacet
facet normal -0.91416281 0.14467734 -2.62315369
outer loop
vertex -14.84475899 5.69200182 17.40656281
vertex -14.32213020 5.11980867 17.19286919
vertex -17.20091820 3.25245881 18.09312820
endloop
endfacet
facet normal -1.71813059 0.29014516 -4.89229298
outer loop
vertex -17.20091820 3.25245881 18.09312820
vertex -14.32213020 5.11980867 17.19286919
vertex -16.22093391 2.18870568 17.68587875
endloop
endfacet
facet normal -2.21300721 -3.32097578 3.34926462
outer loop
vertex -17.20091820 3.25245881 18.09312820
vertex -16.22093391 2.18870568 17.68587875
vertex -15.02671909 4.31008148 20.57840729
endloop
endfacet
facet normal -1.05077481 -1.53082871 1.55653226
outer loop
vertex -15.02671909 4.31008148 20.57840729
vertex -16.22093391 2.18870568 17.68587875
vertex -14.56923485 3.81935215 20.40461731
endloop
endfacet
facet normal 2.11832070 1.63754272 0.83497244
outer loop
vertex -15.55556011 4.88249493 20.79746056
vertex -15.02671909 4.31008148 20.57840729
vertex -15.31590366 6.20196486 17.60171700
endloop
endfacet
facet normal 1.88721097 1.45888734 0.74387735
outer loop
vertex -15.31590366 6.20196486 17.60171700
vertex -15.02671909 4.31008148 20.57840729
vertex -14.84475899 5.69200182 17.40656281
endloop
endfacet
facet normal -0.82621074 0.13634202 -2.35093164
outer loop
vertex -15.31590366 6.20196486 17.60171700
vertex -14.84475899 5.69200182 17.40656281
vertex -18.16078949 4.29141569 18.49072075
endloop
endfacet
facet normal -1.68325591 0.27777696 -4.78959513
outer loop
vertex -18.16078949 4.29141569 18.49072075
vertex -14.84475899 5.69200182 17.40656281
vertex -17.20091820 3.25245881 18.09312820
endloop
endfacet
facet normal -2.16159439 -3.24999309 3.27408099
outer loop
vertex -18.16078949 4.29141569 18.49072075
vertex -17.20091820 3.25245881 18.09312820
vertex -15.55556011 4.88249493 20.79746056
endloop
endfacet
facet normal -1.19093144 -1.79058290 1.80385506
outer loop
vertex -15.55556011 4.88249493 20.79746056
vertex -17.20091820 3.25245881 18.09312820
vertex -15.02671909 4.31008148 20.57840729
endloop
endfacet
facet normal 3.11242795 0.76382083 0.55727518
outer loop
vertex -15.81353760 5.75328827 21.04474640
vertex -15.55556011 4.88249493 20.79746056
vertex -15.48612976 6.80830526 17.77010345
endloop
endfacet
facet normal 2.15988922 0.50364405 0.36992162
outer loop
vertex -15.48612976 6.80830526 17.77010345
vertex -15.55556011 4.88249493 20.79746056
vertex -15.31590366 6.20196486 17.60171700
endloop
endfacet
facet normal -0.87369430 0.32437959 -2.05129337
outer loop
vertex -15.48612976 6.80830526 17.77010345
vertex -15.31590366 6.20196486 17.60171700
vertex -18.52829552 5.59400702 18.87381172
endloop
endfacet
facet normal -1.88992262 0.76313579 -4.40786219
outer loop
vertex -18.52829552 5.59400702 18.87381172
vertex -15.31590366 6.20196486 17.60171700
vertex -18.16078949 4.29141569 18.49072075
endloop
endfacet
facet normal -2.76682138 -1.83783078 3.59475684
outer loop
vertex -18.52829552 5.59400702 18.87381172
vertex -18.16078949 4.29141569 18.49072075
vertex -15.81353760 5.75328827 21.04474640
endloop
endfacet
facet normal -1.86252820 -1.23932338 2.42110157
outer loop
vertex -15.81353760 5.75328827 21.04474640
vertex -18.16078949 4.29141569 18.49072075
vertex -15.55556011 4.88249493 20.79746056
endloop
endfacet
facet normal 3.50464487 0.84419447 0.62238461
outer loop
vertex -16.09997368 6.73124218 21.33118248
vertex -15.81353760 5.75328827 21.04474640
vertex -15.85146332 8.05563164 18.13543701
endloop
endfacet
facet normal 4.46998167 1.07672393 0.79381752
outer loop
vertex -15.85146332 8.05563164 18.13543701
vertex -15.81353760 5.75328827 21.04474640
vertex -15.48612976 6.80830526 17.77010345
endloop
endfacet
facet normal -1.82030773 0.70818365 -4.23819685
outer loop
vertex -15.85146332 8.05563164 18.13543701
vertex -15.48612976 6.80830526 17.77010345
vertex -18.68963051 6.14484024 19.03514671
endloop
endfacet
facet normal -0.80386794 0.31274104 -1.87163484
outer loop
vertex -18.68963051 6.14484024 19.03514671
vertex -15.48612976 6.80830526 17.77010345
vertex -18.52829552 5.59400702 18.87381172
endloop
endfacet
facet normal -1.17012572 -0.78823316 1.52107608
outer loop
vertex -18.68963051 6.14484024 19.03514671
vertex -18.52829552 5.59400702 18.87381172
vertex -16.09997368 6.73124218 21.33118248
endloop
endfacet
facet normal -2.07745028 -1.39943862 2.70053196
outer loop
vertex -16.09997368 6.73124218 21.33118248
vertex -18.52829552 5.59400702 18.87381172
vertex -15.81353760 5.75328827 21.04474640
endloop
endfacet
facet normal 3.12242889 2.39662814 1.22329569
outer loop
vertex -16.87447739 7.57205343 21.66080093
vertex -16.09997368 6.73124218 21.33118248
vertex -16.69251823 8.95397377 18.48895645
endloop
endfacet
facet normal 3.33907008 2.59994411 1.33713162
outer loop
vertex -16.69251823 8.95397377 18.48895645
vertex -16.09997368 6.73124218 21.33118248
vertex -15.85146332 8.05563164 18.13543701
endloop
endfacet
facet normal -1.47919655 0.25550824 -4.16842508
outer loop
vertex -16.69251823 8.95397377 18.48895645
vertex -15.85146332 8.05563164 18.13543701
vertex -19.04867554 6.51443052 19.17552185
endloop
endfacet
facet normal -0.60075158 0.07537183 -1.73501921
outer loop
vertex -19.04867554 6.51443052 19.17552185
vertex -15.85146332 8.05563164 18.13543701
vertex -18.68963051 6.14484024 19.03514671
endloop
endfacet
facet normal -0.77007103 -1.19753051 1.18329680
outer loop
vertex -19.04867554 6.51443052 19.17552185
vertex -18.68963051 6.14484024 19.03514671
vertex -16.87447739 7.57205343 21.66080093
endloop
endfacet
facet normal -1.73724365 -2.63188696 2.63158321
outer loop
vertex -16.87447739 7.57205343 21.66080093
vertex -18.68963051 6.14484024 19.03514671
vertex -16.09997368 6.73124218 21.33118248
endloop
endfacet
facet normal 3.34750128 2.58774471 1.31947327
outer loop
vertex -17.71018410 8.47661686 22.00696182
vertex -16.87447739 7.57205343 21.66080093
vertex -17.25552750 9.56337070 18.72216225
endloop
endfacet
facet normal 2.25518417 1.74334395 0.88891935
outer loop
vertex -17.25552750 9.56337070 18.72216225
vertex -16.87447739 7.57205343 21.66080093
vertex -16.69251823 8.95397377 18.48895645
endloop
endfacet
facet normal -0.98730671 0.16292664 -2.80932045
outer loop
vertex -17.25552750 9.56337070 18.72216225
vertex -16.69251823 8.95397377 18.48895645
vertex -19.60922050 7.12116003 19.40770721
endloop
endfacet
facet normal -0.98298573 0.16221446 -2.79702377
outer loop
vertex -19.60922050 7.12116003 19.40770721
vertex -16.69251823 8.95397377 18.48895645
vertex -19.04867554 6.51443052 19.17552185
endloop
endfacet
facet normal -1.26232719 -1.89792752 1.91199589
outer loop
vertex -19.60922050 7.12116003 19.40770721
vertex -19.04867554 6.51443052 19.17552185
vertex -17.71018410 8.47661686 22.00696182
endloop
endfacet
facet normal -1.88198495 -2.82958674 2.85056257
outer loop
vertex -17.71018410 8.47661686 22.00696182
vertex -19.04867554 6.51443052 19.17552185
vertex -16.87447739 7.57205343 21.66080093
endloop
endfacet
facet normal 2.96638083 2.96721911 1.39408064
outer loop
vertex -18.61306572 9.37940025 22.00662804
vertex -17.71018410 8.47661686 22.00696182
vertex -17.84100533 10.15145874 18.72052574
endloop
endfacet
facet normal 1.92997289 1.92392135 0.90364838
outer loop
vertex -17.84100533 10.15145874 18.72052574
vertex -17.71018410 8.47661686 22.00696182
vertex -17.25552750 9.56337070 18.72216225
endloop
endfacet
facet normal -0.40060183 -0.40665445 -2.81400156
outer loop
vertex -17.84100533 10.15145874 18.72052574
vertex -17.25552750 9.56337070 18.72216225
vertex -20.23882675 7.75363731 19.40839195
endloop
endfacet
facet normal -0.43526387 -0.43001175 -3.02628851
outer loop
vertex -20.23882675 7.75363731 19.40839195
vertex -17.25552750 9.56337070 18.72216225
vertex -19.60922050 7.12116003 19.40770721
endloop
endfacet
facet normal -1.64221215 -1.63697886 2.05184746
outer loop
vertex -20.23882675 7.75363731 19.40839195
vertex -19.60922050 7.12116003 19.40770721
vertex -18.61306572 9.37940025 22.00662804
endloop
endfacet
facet normal -2.34701633 -2.34618521 2.93823552
outer loop
vertex -18.61306572 9.37940025 22.00662804
vertex -19.60922050 7.12116003 19.40770721
vertex -17.71018410 8.47661686 22.00696182
endloop
endfacet
facet normal 1.62120807 1.62120807 0.76179552
outer loop
vertex -19.10641861 9.87275314 22.00662804
vertex -18.61306572 9.37940025 22.00662804
vertex -18.43238258 10.74283600 18.72052574
endloop
endfacet
facet normal 1.94332612 1.94332612 0.91315675
outer loop
vertex -18.43238258 10.74283600 18.72052574
vertex -18.61306572 9.37940025 22.00662804
vertex -17.84100533 10.15145874 18.72052574
endloop
endfacet
facet normal -0.40678844 -0.40678844 -2.83603430
outer loop
vertex -18.43238258 10.74283600 18.72052574
vertex -17.84100533 10.15145874 18.72052574
vertex -21.27528954 8.79010010 19.40839195
endloop
endfacet
facet normal -0.71294773 -0.71294773 -4.97050524
outer loop
vertex -21.27528954 8.79010010 19.40839195
vertex -17.84100533 10.15145874 18.72052574
vertex -20.23882675 7.75363731 19.40839195
endloop
endfacet
facet normal -2.69297504 -2.69297504 3.37008333
outer loop
vertex -21.27528954 8.79010010 19.40839195
vertex -20.23882675 7.75363731 19.40839195
vertex -19.10641861 9.87275314 22.00662804
endloop
endfacet
facet normal -1.28184724 -1.28184724 1.60414875
outer loop
vertex -19.10641861 9.87275314 22.00662804
vertex -20.23882675 7.75363731 19.40839195
vertex -18.61306572 9.37940025 22.00662804
endloop
endfacet
facet normal 2.58978391 0.89576060 0.77873981
outer loop
vertex -19.40164375 10.63397789 22.11281776
vertex -19.10641861 9.87275314 22.00662804
vertex -18.68702507 11.42914867 18.82161522
endloop
endfacet
facet normal 2.34325004 0.76864332 0.68415952
outer loop
vertex -18.68702507 11.42914867 18.82161522
vertex -19.10641861 9.87275314 22.00662804
vertex -18.43238258 10.74283600 18.72052574
endloop
endfacet
facet normal -0.68078822 0.10893480 -2.45446849
outer loop
vertex -18.68702507 11.42914867 18.82161522
vertex -18.43238258 10.74283600 18.72052574
vertex -21.77752876 10.11979675 19.62070656
endloop
endfacet
facet normal -1.32924771 0.25811726 -4.76094437
outer loop
vertex -21.77752876 10.11979675 19.62070656
vertex -18.43238258 10.74283600 18.72052574
vertex -21.27528954 8.79010010 19.40839195
endloop
endfacet
facet normal -3.20458388 -1.75607109 3.41744828
outer loop
vertex -21.77752876 10.11979675 19.62070656
vertex -21.27528954 8.79010010 19.40839195
vertex -19.40164375 10.63397789 22.11281776
endloop
endfacet
facet normal -1.86287487 -0.99737638 1.97062457
outer loop
vertex -19.40164375 10.63397789 22.11281776
vertex -21.27528954 8.79010010 19.40839195
vertex -19.10641861 9.87275314 22.00662804
endloop
endfacet
facet normal 3.71112680 1.24478662 1.10654378
outer loop
vertex -19.81723785 11.71997738 22.28496170
vertex -19.40164375 10.63397789 22.11281776
vertex -19.13337135 12.59550762 19.00649834
endloop
endfacet
facet normal 3.98573709 1.33689511 1.18842340
outer loop
vertex -19.13337135 12.59550762 19.00649834
vertex -19.40164375 10.63397789 22.11281776
vertex -18.68702507 11.42914867 18.82161522
endloop
endfacet
facet normal -1.17410314 0.21471080 -4.18905973
outer loop
vertex -19.13337135 12.59550762 19.00649834
vertex -18.68702507 11.42914867 18.82161522
vertex -21.97702599 10.64111042 19.70334053
endloop
endfacet
facet normal -0.52477419 0.09596409 -1.87233388
outer loop
vertex -21.97702599 10.64111042 19.70334053
vertex -18.68702507 11.42914867 18.82161522
vertex -21.77752876 10.11979675 19.62070656
endloop
endfacet
facet normal -1.25668335 -0.69349813 1.34115803
outer loop
vertex -21.97702599 10.64111042 19.70334053
vertex -21.77752876 10.11979675 19.62070656
vertex -19.81723785 11.71997738 22.28496170
endloop
endfacet
facet normal -2.61791825 -1.44470084 2.79390073
outer loop
vertex -19.81723785 11.71997738 22.28496170
vertex -21.77752876 10.11979675 19.62070656
vertex -19.40164375 10.63397789 22.11281776
endloop
endfacet
facet normal 3.03903627 3.00259137 1.41946065
outer loop
vertex -20.73438263 12.64137173 22.29952049
vertex -19.81723785 11.71997738 22.28496170
vertex -19.96232414 13.41343117 19.01341820
endloop
endfacet
facet normal 2.68759108 2.71295905 1.28512371
outer loop
vertex -19.96232414 13.41343117 19.01341820
vertex -19.81723785 11.71997738 22.28496170
vertex -19.13337135 12.59550762 19.00649834
endloop
endfacet
facet normal -0.57921302 -0.55361450 -3.94891596
outer loop
vertex -19.96232414 13.41343117 19.01341820
vertex -19.13337135 12.59550762 19.00649834
vertex -22.36014557 11.01560879 19.70128250
endloop
endfacet
facet normal -0.25694406 -0.27282622 -1.81371188
outer loop
vertex -22.36014557 11.01560879 19.70128250
vertex -19.13337135 12.59550762 19.00649834
vertex -21.97702599 10.64111042 19.70334053
endloop
endfacet
facet normal -0.97638172 -0.99208999 1.23170722
outer loop
vertex -22.36014557 11.01560879 19.70128250
vertex -21.97702599 10.64111042 19.70334053
vertex -20.73438263 12.64137173 22.29952049
endloop
endfacet
facet normal -2.36298418 -2.39916444 2.97949362
outer loop
vertex -20.73438263 12.64137173 22.29952049
vertex -21.97702599 10.64111042 19.70334053
vertex -19.81723785 11.71997738 22.28496170
endloop
endfacet
facet normal 2.13682079 2.13681769 1.00407684
outer loop
vertex -21.38464165 13.29163170 22.29952049
vertex -20.73438263 12.64137173 22.29952049
vertex -20.45901108 13.91011810 19.01341820
endloop
endfacet
facet normal 1.63216412 1.63216412 0.76694322
outer loop
vertex -20.45901108 13.91011810 19.01341820
vertex -20.73438263 12.64137173 22.29952049
vertex -19.96232414 13.41343117 19.01341820
endloop
endfacet
facet normal -0.34165323 -0.34165323 -2.38193369
outer loop
vertex -20.45901108 13.91011810 19.01341820
vertex -19.96232414 13.41343117 19.01341820
vertex -23.33378983 11.98925304 19.70128250
endloop
endfacet
facet normal -0.66973513 -0.66973513 -4.66925097
outer loop
vertex -23.33378983 11.98925304 19.70128250
vertex -19.96232414 13.41343117 19.01341820
vertex -22.36014557 11.01560879 19.70128250
endloop
endfacet
facet normal -2.52975941 -2.52975941 3.16583061
outer loop
vertex -23.33378983 11.98925304 19.70128250
vertex -22.36014557 11.01560879 19.70128250
vertex -21.38464165 13.29163170 22.29952049
endloop
endfacet
facet normal -1.68953013 -1.68952763 2.11433554
outer loop
vertex -21.38464165 13.29163170 22.29952049
vertex -22.36014557 11.01560879 19.70128250
vertex -20.73438263 12.64137173 22.29952049
endloop
endfacet
facet normal 2.79188538 1.15643740 1.00407600
outer loop
vertex -21.73655891 14.14123631 22.29951859
vertex -21.38464165 13.29163170 22.29952049
vertex -20.72781563 14.55907059 19.01341820
endloop
endfacet
facet normal 2.13252425 0.88331926 0.76694226
outer loop
vertex -20.72781563 14.55907059 19.01341820
vertex -21.38464165 13.29163170 22.29952049
vertex -20.45901108 13.91011810 19.01341820
endloop
endfacet
facet normal -0.44639125 -0.18490106 -2.38193226
outer loop
vertex -20.72781563 14.55907059 19.01341820
vertex -20.45901108 13.91011810 19.01341820
vertex -23.86072159 13.26137924 19.70128250
endloop
endfacet
facet normal -0.87505019 -0.36245754 -4.66924620
outer loop
vertex -23.86072159 13.26137924 19.70128250
vertex -20.45901108 13.91011810 19.01341820
vertex -23.33378983 11.98925304 19.70128250
endloop
endfacet
facet normal -3.30528426 -1.36909306 3.16582775
outer loop
vertex -23.86072159 13.26137924 19.70128250
vertex -23.33378983 11.98925304 19.70128250
vertex -21.73655891 14.14123631 22.29951859
endloop
endfacet
facet normal -2.20747733 -0.91436112 2.11433482
outer loop
vertex -21.73655891 14.14123631 22.29951859
vertex -23.33378983 11.98925304 19.70128250
vertex -21.38464165 13.29163170 22.29952049
endloop
endfacet
facet normal 3.92857814 1.62726808 1.41287506
outer loop
vertex -22.23175621 15.33675003 22.29951859
vertex -21.73655891 14.14123631 22.29951859
vertex -21.16270447 15.60898304 19.01341820
endloop
endfacet
facet normal 3.45011783 1.42908835 1.24080360
outer loop
vertex -21.16270447 15.60898304 19.01341820
vertex -21.73655891 14.14123631 22.29951859
vertex -20.72781563 14.55907059 19.01341820
endloop
endfacet
facet normal -0.72219729 -0.29914451 -3.85362792
outer loop
vertex -21.16270447 15.60898304 19.01341820
vertex -20.72781563 14.55907059 19.01341820
vertex -24.07871819 13.78767014 19.70128250
endloop
endfacet
facet normal -0.36201671 -0.14995208 -1.93171215
outer loop
vertex -24.07871819 13.78767014 19.70128250
vertex -20.72781563 14.55907059 19.01341820
vertex -23.86072159 13.26137924 19.70128250
endloop
endfacet
facet normal -1.36742795 -0.56640661 1.30973339
outer loop
vertex -24.07871819 13.78767014 19.70128250
vertex -23.86072159 13.26137924 19.70128250
vertex -22.23175621 15.33675003 22.29951859
endloop
endfacet
facet normal -3.10622692 -1.28663945 2.97516847
outer loop
vertex -22.23175621 15.33675003 22.29951859
vertex -23.86072159 13.26137924 19.70128250
vertex -21.73655891 14.14123631 22.29951859
endloop
endfacet
facet normal 3.18547559 3.39725995 1.30453646
outer loop
vertex -23.14570999 16.33254433 21.93801498
vertex -22.23175621 15.33675003 22.29951859
vertex -21.82926369 16.32557106 18.74161720
endloop
endfacet
facet normal 2.28078699 2.48094988 0.94752908
outer loop
vertex -21.82926369 16.32557106 18.74161720
vertex -22.23175621 15.33675003 22.29951859
vertex -21.16270447 15.60898304 19.01341820
endloop
endfacet
facet normal 0.00191063 -1.24942613 -3.29872704
outer loop
vertex -21.82926369 16.32557106 18.74161720
vertex -21.16270447 15.60898304 19.01341820
vertex -24.45861816 14.20338440 19.54389381
endloop
endfacet
facet normal 0.00069904 -0.72026718 -1.90414524
outer loop
vertex -24.45861816 14.20338440 19.54389381
vertex -21.16270447 15.60898304 19.01341820
vertex -24.07871819 13.78767014 19.70128250
endloop
endfacet
facet normal -1.33037603 -0.70288968 1.35466242
outer loop
vertex -24.45861816 14.20338440 19.54389381
vertex -24.07871819 13.78767014 19.70128250
vertex -23.14570999 16.33254433 21.93801498
endloop
endfacet
facet normal -3.14730668 -1.70698428 3.25498176
outer loop
vertex -23.14570999 16.33254433 21.93801498
vertex -24.07871819 13.78767014 19.70128250
vertex -22.23175621 15.33675003 22.29951859
endloop
endfacet
facet normal 1.80710745 1.95273793 0.74000359
outer loop
vertex -23.66759682 16.89743042 21.72184181
vertex -23.14570999 16.33254433 21.93801498
vertex -22.35243225 16.89184570 18.52491379
endloop
endfacet
facet normal 1.81155014 1.95753324 0.74182194
outer loop
vertex -22.35243225 16.89184570 18.52491379
vertex -23.14570999 16.33254433 21.93801498
vertex -21.82926369 16.32557106 18.74161720
endloop
endfacet
facet normal 0.00557712 -0.98951566 -2.59919930
outer loop
vertex -22.35243225 16.89184570 18.52491379
vertex -21.82926369 16.32557106 18.74161720
vertex -25.37178421 15.19178772 19.16564751
endloop
endfacet
facet normal 0.00973642 -1.72715545 -4.53677177
outer loop
vertex -25.37178421 15.19178772 19.16564751
vertex -21.82926369 16.32557106 18.74161720
vertex -24.45861816 14.20338440 19.54389381
endloop
endfacet
facet normal -3.17170405 -1.68962741 3.24195957
outer loop
vertex -25.37178421 15.19178772 19.16564751
vertex -24.45861816 14.20338440 19.54389381
vertex -23.66759682 16.89743042 21.72184181
endloop
endfacet
facet normal -1.81267309 -0.96564472 1.85282409
outer loop
vertex -23.66759682 16.89743042 21.72184181
vertex -24.45861816 14.20338440 19.54389381
vertex -23.14570999 16.33254433 21.93801498
endloop
endfacet
facet normal 2.36017847 1.05681598 0.96909374
outer loop
vertex -23.95004082 17.63549042 21.60485077
vertex -23.66759682 16.89743042 21.72184181
vertex -22.63556862 17.63171768 18.40763474
endloop
endfacet
facet normal 2.36597228 1.05940783 0.97147220
outer loop
vertex -22.63556862 17.63171768 18.40763474
vertex -23.66759682 16.89743042 21.72184181
vertex -22.35243225 16.89184570 18.52491379
endloop
endfacet
facet normal -0.27467996 -0.53552181 -2.71528196
outer loop
vertex -22.63556862 17.63171768 18.40763474
vertex -22.35243225 16.89184570 18.52491379
vertex -25.86598396 16.48319626 18.96094322
endloop
endfacet
facet normal -0.47943982 -0.93472475 -4.73938513
outer loop
vertex -25.86598396 16.48319626 18.96094322
vertex -22.35243225 16.89184570 18.52491379
vertex -25.37178421 15.19178772 19.16564751
endloop
endfacet
facet normal -3.65024447 -0.91441667 3.04372883
outer loop
vertex -25.86598396 16.48319626 18.96094322
vertex -25.37178421 15.19178772 19.16564751
vertex -23.95004082 17.63549042 21.60485077
endloop
endfacet
facet normal -2.08616972 -0.52260709 1.73954105
outer loop
vertex -23.95004082 17.63549042 21.60485077
vertex -25.37178421 15.19178772 19.16564751
vertex -23.66759682 16.89743042 21.72184181
endloop
endfacet
facet normal 2.15061808 0.96297699 0.88304716
outer loop
vertex -24.20740509 18.30801773 21.49824715
vertex -23.95004082 17.63549042 21.60485077
vertex -22.94113731 18.43020821 18.28106308
endloop
endfacet
facet normal 2.55342412 1.14334404 1.04844069
outer loop
vertex -22.94113731 18.43020821 18.28106308
vertex -23.95004082 17.63549042 21.60485077
vertex -22.63556862 17.63171768 18.40763474
endloop
endfacet
facet normal -0.29644248 -0.57795334 -2.93040895
outer loop
vertex -22.94113731 18.43020821 18.28106308
vertex -22.63556862 17.63171768 18.40763474
vertex -26.36267090 17.78110123 18.75520897
endloop
endfacet
facet normal -0.48185164 -0.93942821 -4.76322794
outer loop
vertex -26.36267090 17.78110123 18.75520897
vertex -22.63556862 17.63171768 18.40763474
vertex -25.86598396 16.48319626 18.96094322
endloop
endfacet
facet normal -3.66860771 -0.91901916 3.05904269
outer loop
vertex -26.36267090 17.78110123 18.75520897
vertex -25.86598396 16.48319626 18.96094322
vertex -24.20740509 18.30801773 21.49824715
endloop
endfacet
facet normal -1.90093875 -0.47620088 1.58508337
outer loop
vertex -24.20740509 18.30801773 21.49824715
vertex -25.86598396 16.48319626 18.96094322
vertex -23.95004082 17.63549042 21.60485077
endloop
endfacet
facet normal 2.77550745 0.02412202 1.10453773
outer loop
vertex -24.20946312 19.17241859 21.48454094
vertex -24.20740509 18.30801773 21.49824715
vertex -22.93165588 19.17241859 18.27363777
endloop
endfacet
facet normal 2.38692021 -0.02110108 0.93867856
outer loop
vertex -22.93165588 19.17241859 18.27363777
vertex -24.20740509 18.30801773 21.49824715
vertex -22.94113731 18.43020821 18.28106308
endloop
endfacet
facet normal -0.35817602 -0.02088228 -2.54468465
outer loop
vertex -22.93165588 19.17241859 18.27363777
vertex -22.94113731 18.43020821 18.28106308
vertex -26.36017799 19.17241859 18.75621796
endloop
endfacet
facet normal -0.66034234 0.00463428 -4.75882101
outer loop
vertex -26.36017799 19.17241859 18.75621796
vertex -22.94113731 18.43020821 18.28106308
vertex -26.36267090 17.78110123 18.75520897
endloop
endfacet
facet normal -3.79596305 0.00463140 2.99232697
outer loop
vertex -26.36017799 19.17241859 18.75621796
vertex -26.36267090 17.78110123 18.75520897
vertex -24.20946312 19.17241859 21.48454094
endloop
endfacet
facet normal -2.37830663 0.02389527 1.86409807
outer loop
vertex -24.20946312 19.17241859 21.48454094
vertex -26.36267090 17.78110123 18.75520897
vertex -24.20740509 18.30801773 21.49824715
endloop
endfacet
facet normal 3.64330411 0.00000000 1.44988501
outer loop
vertex -24.20946312 20.30708504 21.48454094
vertex -24.20946312 19.17241859 21.48454094
vertex -22.93165588 20.43177032 18.27363777
endloop
endfacet
facet normal 4.04365635 0.00000000 1.60920870
outer loop
vertex -22.93165588 20.43177032 18.27363777
vertex -24.20946312 19.17241859 21.48454094
vertex -22.93165588 19.17241859 18.27363777
endloop
endfacet
facet normal -0.60773820 -0.00000000 -4.31771517
outer loop
vertex -22.93165588 20.43177032 18.27363777
vertex -22.93165588 19.17241859 18.27363777
vertex -26.36017799 19.78162575 18.75621796
endloop
endfacet
facet normal -0.29399130 -0.00000000 -2.08868027
outer loop
vertex -26.36017799 19.78162575 18.75621796
vertex -22.93165588 19.17241859 18.27363777
vertex -26.36017799 19.17241859 18.75621796
endloop
endfacet
facet normal -1.66211390 0.00000000 1.31023085
outer loop
vertex -26.36017799 19.78162575 18.75621796
vertex -26.36017799 19.17241859 18.75621796
vertex -24.20946312 20.30708504 21.48454094
endloop
endfacet
facet normal -3.09573650 0.00000000 2.44034410
outer loop
vertex -24.20946312 20.30708504 21.48454094
vertex -26.36017799 19.17241859 18.75621796
vertex -24.20946312 19.17241859 21.48454094
endloop
endfacet
facet normal 3.76110363 1.65820122 1.54434454
outer loop
vertex -24.65714836 21.48324966 21.31195831
vertex -24.20946312 20.30708504 21.48454094
vertex -23.34267807 21.47947693 18.11474228
endloop
endfacet
facet normal 3.34427238 1.52279019 1.39001548
outer loop
vertex -23.34267807 21.47947693 18.11474228
vertex -24.20946312 20.30708504 21.48454094
vertex -22.93165588 20.43177032 18.27363777
endloop
endfacet
facet normal -0.39721006 -0.74072021 -3.85659337
outer loop
vertex -23.34267807 21.47947693 18.11474228
vertex -22.93165588 20.43177032 18.27363777
vertex -26.57309151 20.33095551 18.66805077
endloop
endfacet
facet normal -0.20777424 -0.40503100 -2.02181387
outer loop
vertex -26.57309151 20.33095551 18.66805077
vertex -22.93165588 20.43177032 18.27363777
vertex -26.36017799 19.78162575 18.75621796
endloop
endfacet
facet normal -1.55397165 -0.39400035 1.29782367
outer loop
vertex -26.57309151 20.33095551 18.66805077
vertex -26.36017799 19.78162575 18.75621796
vertex -24.65714836 21.48324966 21.31195831
endloop
endfacet
facet normal -3.29964209 -0.85025382 2.76483512
outer loop
vertex -24.65714836 21.48324966 21.31195831
vertex -26.36017799 19.78162575 18.75621796
vertex -24.20946312 20.30708504 21.48454094
endloop
endfacet
facet normal 2.15061808 0.96297681 0.88304585
outer loop
vertex -24.91451263 22.15577698 21.20535469
vertex -24.65714836 21.48324966 21.31195831
vertex -23.64824677 22.27796745 17.98817062
endloop
endfacet
facet normal 2.55342412 1.14334381 1.04843926
outer loop
vertex -23.64824677 22.27796745 17.98817062
vertex -24.65714836 21.48324966 21.31195831
vertex -23.34267807 21.47947693 18.11474228
endloop
endfacet
facet normal -0.29644248 -0.57795310 -2.93040752
outer loop
vertex -23.64824677 22.27796745 17.98817062
vertex -23.34267807 21.47947693 18.11474228
vertex -27.06977844 21.62886047 18.46231651
endloop
endfacet
facet normal -0.48185164 -0.93942785 -4.76322508
outer loop
vertex -27.06977844 21.62886047 18.46231651
vertex -23.34267807 21.47947693 18.11474228
vertex -26.57309151 20.33095551 18.66805077
endloop
endfacet
facet normal -3.66860771 -0.91901916 3.05904269
outer loop
vertex -27.06977844 21.62886047 18.46231651
vertex -26.57309151 20.33095551 18.66805077
vertex -24.91451263 22.15577698 21.20535469
endloop
endfacet
facet normal -1.90093875 -0.47620088 1.58508337
outer loop
vertex -24.91451263 22.15577698 21.20535469
vertex -26.57309151 20.33095551 18.66805077
vertex -24.65714836 21.48324966 21.31195831
endloop
endfacet
facet normal 2.77550745 0.02412202 1.10453773
outer loop
vertex -24.91657066 23.02017784 21.19164848
vertex -24.91451263 22.15577698 21.20535469
vertex -23.63876343 23.02017784 17.98074532
endloop
endfacet
facet normal 2.38692021 -0.02110723 0.93867689
outer loop
vertex -23.63876343 23.02017784 17.98074532
vertex -24.91451263 22.15577698 21.20535469
vertex -23.64824677 22.27796745 17.98817062
endloop
endfacet
facet normal -0.35817602 -0.02088136 -2.54468465
outer loop
vertex -23.63876343 23.02017784 17.98074532
vertex -23.64824677 22.27796745 17.98817062
vertex -27.06728554 23.02017784 18.46332550
endloop
endfacet
facet normal -0.66034234 0.00463428 -4.75881815
outer loop
vertex -27.06728554 23.02017784 18.46332550
vertex -23.64824677 22.27796745 17.98817062
vertex -27.06977844 21.62886047 18.46231651
endloop
endfacet
facet normal -3.79596305 0.00463140 2.99232697
outer loop
vertex -27.06728554 23.02017784 18.46332550
vertex -27.06977844 21.62886047 18.46231651
vertex -24.91657066 23.02017784 21.19164848
endloop
endfacet
facet normal -2.37830663 0.02389527 1.86409807
outer loop
vertex -24.91657066 23.02017784 21.19164848
vertex -27.06977844 21.62886047 18.46231651
vertex -24.91451263 22.15577698 21.20535469
endloop
endfacet
facet normal 3.64330411 0.00000000 1.44988501
outer loop
vertex -24.91657066 24.15484428 21.19164848
vertex -24.91657066 23.02017784 21.19164848
vertex -23.63876343 24.27952957 17.98074532
endloop
endfacet
facet normal 4.04365635 0.00000000 1.60920870
outer loop
vertex -23.63876343 24.27952957 17.98074532
vertex -24.91657066 23.02017784 21.19164848
vertex -23.63876343 23.02017784 17.98074532
endloop
endfacet
facet normal -0.60773820 -0.00000000 -4.31771517
outer loop
vertex -23.63876343 24.27952957 17.98074532
vertex -23.63876343 23.02017784 17.98074532
vertex -27.06728554 23.62938499 18.46332550
endloop
endfacet
facet normal -0.29399130 -0.00000000 -2.08868027
outer loop
vertex -27.06728554 23.62938499 18.46332550
vertex -23.63876343 23.02017784 17.98074532
vertex -27.06728554 23.02017784 18.46332550
endloop
endfacet
facet normal -1.66211390 0.00000000 1.31023085
outer loop
vertex -27.06728554 23.62938499 18.46332550
vertex -27.06728554 23.02017784 18.46332550
vertex -24.91657066 24.15484428 21.19164848
endloop
endfacet
facet normal -3.09573650 0.00000000 2.44034410
outer loop
vertex -24.91657066 24.15484428 21.19164848
vertex -27.06728554 23.02017784 18.46332550
vertex -24.91657066 23.02017784 21.19164848
endloop
endfacet
facet normal 3.76110363 1.65820122 1.54434454
outer loop
vertex -25.36425591 25.33100891 21.01906586
vertex -24.91657066 24.15484428 21.19164848
vertex -24.04978561 25.32723618 17.82184982
endloop
endfacet
facet normal 3.34427238 1.52279019 1.39001548
outer loop
vertex -24.04978561 25.32723618 17.82184982
vertex -24.91657066 24.15484428 21.19164848
vertex -23.63876343 24.27952957 17.98074532
endloop
endfacet
facet normal -0.39721006 -0.74072021 -3.85659337
outer loop
vertex -24.04978561 25.32723618 17.82184982
vertex -23.63876343 24.27952957 17.98074532
vertex -27.28019905 24.17871475 18.37515831
endloop
endfacet
facet normal -0.20777424 -0.40503100 -2.02181387
outer loop
vertex -27.28019905 24.17871475 18.37515831
vertex -23.63876343 24.27952957 17.98074532
vertex -27.06728554 23.62938499 18.46332550
endloop
endfacet
facet normal -1.55397165 -0.39400035 1.29782367
outer loop
vertex -27.28019905 24.17871475 18.37515831
vertex -27.06728554 23.62938499 18.46332550
vertex -25.36425591 25.33100891 21.01906586
endloop
endfacet
facet normal -3.29964209 -0.85025382 2.76483512
outer loop
vertex -25.36425591 25.33100891 21.01906586
vertex -27.06728554 23.62938499 18.46332550
vertex -24.91657066 24.15484428 21.19164848
endloop
endfacet
facet normal 4.08666706 1.82988596 1.67799211
outer loop
vertex -25.85330963 26.60896492 20.81649399
vertex -25.36425591 25.33100891 21.01906586
vertex -24.40254784 26.24905014 17.67572975
endloop
endfacet
facet normal 2.94778967 1.31992757 1.21036625
outer loop
vertex -24.40254784 26.24905014 17.67572975
vertex -25.36425591 25.33100891 21.01906586
vertex -24.04978561 25.32723618 17.82184982
endloop
endfacet
facet normal -0.34222651 -0.66721517 -3.38299656
outer loop
vertex -24.40254784 26.24905014 17.67572975
vertex -24.04978561 25.32723618 17.82184982
vertex -27.50028992 24.75383759 18.28399467
endloop
endfacet
facet normal -0.21351695 -0.41627437 -2.11066365
outer loop
vertex -27.50028992 24.75383759 18.28399467
vertex -24.04978561 25.32723618 17.82184982
vertex -27.28019905 24.17871475 18.37515831
endloop
endfacet
facet normal -1.62561834 -0.40723526 1.35551262
outer loop
vertex -27.50028992 24.75383759 18.28399467
vertex -27.28019905 24.17871475 18.37515831
vertex -25.85330963 26.60896492 20.81649399
endloop
endfacet
facet normal -3.61221981 -0.90489668 3.01202488
outer loop
vertex -25.85330963 26.60896492 20.81649399
vertex -27.28019905 24.17871475 18.37515831
vertex -25.36425591 25.33100891 21.01906586
endloop
endfacet
facet normal 3.53457999 3.34149981 1.24579096
outer loop
vertex -26.58329391 27.64790916 20.10092926
vertex -25.85330963 26.60896492 20.81649399
vertex -24.83248901 26.86268997 17.23965454
endloop
endfacet
facet normal 2.08424807 1.98298514 0.73550308
outer loop
vertex -24.83248901 26.86268997 17.23965454
vertex -25.85330963 26.60896492 20.81649399
vertex -24.40254784 26.24905014 17.67572975
endloop
endfacet
facet normal 0.27340335 -1.61240840 -2.53851938
outer loop
vertex -24.83248901 26.86268997 17.23965454
vertex -24.40254784 26.24905014 17.67572975
vertex -27.83301544 25.24089432 17.94661903
endloop
endfacet
facet normal 0.20818879 -1.24748802 -2.00627160
outer loop
vertex -27.83301544 25.24089432 17.94661903
vertex -24.40254784 26.24905014 17.67572975
vertex -27.50028992 24.75383759 18.28399467
endloop
endfacet
facet normal -1.86133957 -0.29516840 1.40956056
outer loop
vertex -27.83301544 25.24089432 17.94661903
vertex -27.50028992 24.75383759 18.28399467
vertex -26.58329391 27.64790916 20.10092926
endloop
endfacet
facet normal -3.95858908 -0.67016363 3.06533456
outer loop
vertex -26.58329391 27.64790916 20.10092926
vertex -27.50028992 24.75383759 18.28399467
vertex -25.85330963 26.60896492 20.81649399
endloop
endfacet
facet normal 1.30206954 1.24289727 0.45564538
outer loop
vertex -26.85278130 28.02902031 19.83144188
vertex -26.58329391 27.64790916 20.10092926
vertex -25.39917755 27.66410828 16.67296600
endloop
endfacet
facet normal 2.73805261 2.61361265 0.95815235
outer loop
vertex -25.39917755 27.66410828 16.67296600
vertex -26.58329391 27.64790916 20.10092926
vertex -24.83248901 26.86268997 17.23965454
endloop
endfacet
facet normal 0.35247859 -2.10099268 -3.32372975
outer loop
vertex -25.39917755 27.66410828 16.67296600
vertex -24.83248901 26.86268997 17.23965454
vertex -28.49249840 26.17354393 17.28713608
endloop
endfacet
facet normal 0.41019645 -2.44502687 -3.86798644
outer loop
vertex -28.49249840 26.17354393 17.28713608
vertex -24.83248901 26.86268997 17.23965454
vertex -27.83301544 25.24089432 17.94661903
endloop
endfacet
facet normal -3.59660101 -0.59656084 2.75293660
outer loop
vertex -28.49249840 26.17354393 17.28713608
vertex -27.83301544 25.24089432 17.94661903
vertex -26.85278130 28.02902031 19.83144188
endloop
endfacet
facet normal -1.46969175 -0.24377528 1.12494290
outer loop
vertex -26.85278130 28.02902031 19.83144188
vertex -27.83301544 25.24089432 17.94661903
vertex -26.58329391 27.64790916 20.10092926
endloop
endfacet
facet normal 1.80349636 0.83723319 0.74048501
outer loop
vertex -27.07136536 28.59297943 19.72617340
vertex -26.85278130 28.02902031 19.83144188
vertex -25.75689125 28.58920670 16.52895737
endloop
endfacet
facet normal 2.97445130 1.33916152 1.21419239
outer loop
vertex -25.75689125 28.58920670 16.52895737
vertex -26.85278130 28.02902031 19.83144188
vertex -25.39917755 27.66410828 16.67296600
endloop
endfacet
facet normal -0.34646803 -0.66313374 -3.39929342
outer loop
vertex -25.75689125 28.58920670 16.52895737
vertex -25.39917755 27.66410828 16.67296600
vertex -28.98730659 27.44068718 17.08226585
endloop
endfacet
facet normal -0.47286922 -0.93762571 -4.65722370
outer loop
vertex -28.98730659 27.44068718 17.08226585
vertex -25.39917755 27.66410828 16.67296600
vertex -28.49249840 26.17354393 17.28713608
endloop
endfacet
facet normal -3.58628011 -0.91570783 2.99793577
outer loop
vertex -28.98730659 27.44068718 17.08226585
vertex -28.49249840 26.17354393 17.28713608
vertex -27.07136536 28.59297943 19.72617340
endloop
endfacet
facet normal -1.63020766 -0.38353419 1.33031094
outer loop
vertex -27.07136536 28.59297943 19.72617340
vertex -28.49249840 26.17354393 17.28713608
vertex -26.85278130 28.02902031 19.83144188
endloop
endfacet
facet normal 2.15062428 0.96298325 0.88305110
outer loop
vertex -27.32873154 29.26550865 19.61956978
vertex -27.07136536 28.59297943 19.72617340
vertex -26.06246185 29.38769913 16.40238571
endloop
endfacet
facet normal 2.55343032 1.14335036 1.04844475
outer loop
vertex -26.06246185 29.38769913 16.40238571
vertex -27.07136536 28.59297943 19.72617340
vertex -25.75689125 28.58920670 16.52895737
endloop
endfacet
facet normal -0.29644337 -0.57795399 -2.93041515
outer loop
vertex -26.06246185 29.38769913 16.40238571
vertex -25.75689125 28.58920670 16.52895737
vertex -29.48399353 28.73859215 16.87653160
endloop
endfacet
facet normal -0.48185202 -0.93942821 -4.76322699
outer loop
vertex -29.48399353 28.73859215 16.87653160
vertex -25.75689125 28.58920670 16.52895737
vertex -28.98730659 27.44068718 17.08226585
endloop
endfacet
facet normal -3.66860771 -0.91901994 3.05903769
outer loop
vertex -29.48399353 28.73859215 16.87653160
vertex -28.98730659 27.44068718 17.08226585
vertex -27.32873154 29.26550865 19.61956978
endloop
endfacet
facet normal -1.90094352 -0.47620609 1.58508754
outer loop
vertex -27.32873154 29.26550865 19.61956978
vertex -28.98730659 27.44068718 17.08226585
vertex -27.07136536 28.59297943 19.72617340
endloop
endfacet
facet normal 2.77550745 0.02412208 1.10454094
outer loop
vertex -27.33078957 30.12990952 19.60586357
vertex -27.32873154 29.26550865 19.61956978
vertex -26.05297852 30.12990952 16.39496040
endloop
endfacet
facet normal 2.38692021 -0.02110720 0.93867970
outer loop
vertex -26.05297852 30.12990952 16.39496040
vertex -27.32873154 29.26550865 19.61956978
vertex -26.06246185 29.38769913 16.40238571
endloop
endfacet
facet normal -0.35817602 -0.02088136 -2.54468465
outer loop
vertex -26.05297852 30.12990952 16.39496040
vertex -26.06246185 29.38769913 16.40238571
vertex -29.48150063 30.12990952 16.87754059
endloop
endfacet
facet normal -0.66034234 0.00463428 -4.75881815
outer loop
vertex -29.48150063 30.12990952 16.87754059
vertex -26.06246185 29.38769913 16.40238571
vertex -29.48399353 28.73859215 16.87653160
endloop
endfacet
facet normal -3.79596305 0.00463141 2.99232173
outer loop
vertex -29.48150063 30.12990952 16.87754059
vertex -29.48399353 28.73859215 16.87653160
vertex -27.33078957 30.12990952 19.60586357
endloop
endfacet
facet normal -2.37830663 0.02389522 1.86409473
outer loop
vertex -27.33078957 30.12990952 19.60586357
vertex -29.48399353 28.73859215 16.87653160
vertex -27.32873154 29.26550865 19.61956978
endloop
endfacet
facet normal 3.64329791 0.00000000 1.44988692
outer loop
vertex -27.33078957 31.26457405 19.60586357
vertex -27.33078957 30.12990952 19.60586357
vertex -26.05297852 31.38926125 16.39496040
endloop
endfacet
facet normal 4.04365635 0.00000000 1.60921359
outer loop
vertex -26.05297852 31.38926125 16.39496040
vertex -27.33078957 30.12990952 19.60586357
vertex -26.05297852 30.12990952 16.39496040
endloop
endfacet
facet normal -0.60773820 -0.00000000 -4.31771517
outer loop
vertex -26.05297852 31.38926125 16.39496040
vertex -26.05297852 30.12990952 16.39496040
vertex -29.48150063 30.73911667 16.87754059
endloop
endfacet
facet normal -0.29399130 -0.00000000 -2.08868027
outer loop
vertex -29.48150063 30.73911667 16.87754059
vertex -26.05297852 30.12990952 16.39496040
vertex -29.48150063 30.12990952 16.87754059
endloop
endfacet
facet normal -1.66211390 0.00000000 1.31022859
outer loop
vertex -29.48150063 30.73911667 16.87754059
vertex -29.48150063 30.12990952 16.87754059
vertex -27.33078957 31.26457405 19.60586357
endloop
endfacet
facet normal -3.09573126 0.00000000 2.44033551
outer loop
vertex -27.33078957 31.26457405 19.60586357
vertex -29.48150063 30.12990952 16.87754059
vertex -27.33078957 30.12990952 19.60586357
endloop
endfacet
facet normal 3.76109123 1.65819573 1.54434395
outer loop
vertex -27.77847290 32.44073486 19.43328094
vertex -27.33078957 31.26457405 19.60586357
vertex -26.46399879 32.43696213 16.23606491
endloop
endfacet
facet normal 3.34425378 1.52278471 1.39001274
outer loop
vertex -26.46399879 32.43696213 16.23606491
vertex -27.33078957 31.26457405 19.60586357
vertex -26.05297852 31.38926125 16.39496040
endloop
endfacet
facet normal -0.39720750 -0.74071944 -3.85657310
outer loop
vertex -26.46399879 32.43696213 16.23606491
vertex -26.05297852 31.38926125 16.39496040
vertex -29.69441414 31.28844452 16.78937340
endloop
endfacet
facet normal -0.20777333 -0.40503100 -2.02180719
outer loop
vertex -29.69441414 31.28844452 16.78937340
vertex -26.05297852 31.38926125 16.39496040
vertex -29.48150063 30.73911667 16.87754059
endloop
endfacet
facet normal -1.55396628 -0.39400053 1.29781806
outer loop
vertex -29.69441414 31.28844452 16.78937340
vertex -29.48150063 30.73911667 16.87754059
vertex -27.77847290 32.44073486 19.43328094
endloop
endfacet
facet normal -3.29963136 -0.85024941 2.76482058
outer loop
vertex -27.77847290 32.44073486 19.43328094
vertex -29.48150063 30.73911667 16.87754059
vertex -27.33078957 31.26457405 19.60586357
endloop
endfacet
facet normal 2.15062857 0.96298522 0.88305396
outer loop
vertex -28.03583908 33.11326599 19.32667542
vertex -27.77847290 32.44073486 19.43328094
vertex -26.76956940 33.23545837 16.10949326
endloop
endfacet
facet normal 2.55344248 1.14335036 1.04844975
outer loop
vertex -26.76956940 33.23545837 16.10949326
vertex -27.77847290 32.44073486 19.43328094
vertex -26.46399879 32.43696213 16.23606491
endloop
endfacet
facet normal -0.29644495 -0.57795399 -2.93042874
outer loop
vertex -26.76956940 33.23545837 16.10949326
vertex -26.46399879 32.43696213 16.23606491
vertex -30.19110107 32.58634949 16.58363914
endloop
endfacet
facet normal -0.48185241 -0.93942821 -4.76322603
outer loop
vertex -30.19110107 32.58634949 16.58363914
vertex -26.46399879 32.43696213 16.23606491
vertex -29.69441414 31.28844452 16.78937340
endloop
endfacet
facet normal -3.66860533 -0.91901910 3.05903769
outer loop
vertex -30.19110107 32.58634949 16.58363914
vertex -29.69441414 31.28844452 16.78937340
vertex -28.03583908 33.11326599 19.32667542
endloop
endfacet
facet normal -1.90095067 -0.47620246 1.58509064
outer loop
vertex -28.03583908 33.11326599 19.32667542
vertex -29.69441414 31.28844452 16.78937340
vertex -27.77847290 32.44073486 19.43328094
endloop
endfacet
facet normal 2.77551365 0.02411349 1.10454178
outer loop
vertex -28.03789520 33.97766876 19.31297112
vertex -28.03583908 33.11326599 19.32667542
vertex -26.76008606 33.97766876 16.10206795
endloop
endfacet
facet normal 2.38691878 -0.02110718 0.93867970
outer loop
vertex -26.76008606 33.97766876 16.10206795
vertex -28.03583908 33.11326599 19.32667542
vertex -26.76956940 33.23545837 16.10949326
endloop
endfacet
facet normal -0.35817602 -0.02088136 -2.54468465
outer loop
vertex -26.76008606 33.97766876 16.10206795
vertex -26.76956940 33.23545837 16.10949326
vertex -30.18860817 33.97766876 16.58464813
endloop
endfacet
facet normal -0.66034329 0.00463428 -4.75882483
outer loop
vertex -30.18860817 33.97766876 16.58464813
vertex -26.76956940 33.23545837 16.10949326
vertex -30.19110107 32.58634949 16.58363914
endloop
endfacet
facet normal -3.79596829 0.00463141 2.99232841
outer loop
vertex -30.18860817 33.97766876 16.58464813
vertex -30.19110107 32.58634949 16.58363914
vertex -28.03789520 33.97766876 19.31297112
endloop
endfacet
facet normal -2.37830925 0.02389634 1.86409783
outer loop
vertex -28.03789520 33.97766876 19.31297112
vertex -30.19110107 32.58634949 16.58363914
vertex -28.03583908 33.11326599 19.32667542
endloop
endfacet
facet normal 3.64330411 0.00000000 1.44988716
outer loop
vertex -28.03789520 35.11233521 19.31297112
vertex -28.03789520 33.97766876 19.31297112
vertex -26.76008606 35.23702240 16.10206795
endloop
endfacet
facet normal 4.04366255 0.00000000 1.60921359
outer loop
vertex -26.76008606 35.23702240 16.10206795
vertex -28.03789520 33.97766876 19.31297112
vertex -26.76008606 33.97766876 16.10206795
endloop
endfacet
facet normal -0.60773909 -0.00000000 -4.31772184
outer loop
vertex -26.76008606 35.23702240 16.10206795
vertex -26.76008606 33.97766876 16.10206795
vertex -30.18860817 34.58687592 16.58464813
endloop
endfacet
facet normal -0.29399130 -0.00000000 -2.08868027
outer loop
vertex -30.18860817 34.58687592 16.58464813
vertex -26.76008606 33.97766876 16.10206795
vertex -30.18860817 33.97766876 16.58464813
endloop
endfacet
facet normal -1.66211390 0.00000000 1.31022978
outer loop
vertex -30.18860817 34.58687592 16.58464813
vertex -30.18860817 33.97766876 16.58464813
vertex -28.03789520 35.11233521 19.31297112
endloop
endfacet
facet normal -3.09573650 0.00000000 2.44034195
outer loop
vertex -28.03789520 35.11233521 19.31297112
vertex -30.18860817 33.97766876 16.58464813
vertex -28.03789520 33.97766876 19.31297112
endloop
endfacet
facet normal 3.76111150 1.65820193 1.54434741
outer loop
vertex -28.48558044 36.28850174 19.14038849
vertex -28.03789520 35.11233521 19.31297112
vertex -27.17110825 36.28472519 15.94317150
endloop
endfacet
facet normal 3.34425998 1.52279186 1.39001346
outer loop
vertex -27.17110825 36.28472519 15.94317150
vertex -28.03789520 35.11233521 19.31297112
vertex -26.76008606 35.23702240 16.10206795
endloop
endfacet
facet normal -0.39720911 -0.74072367 -3.85657787
outer loop
vertex -27.17110825 36.28472519 15.94317150
vertex -26.76008606 35.23702240 16.10206795
vertex -30.40152168 35.13621140 16.49648094
endloop
endfacet
facet normal -0.20777681 -0.40503100 -2.02183390
outer loop
vertex -30.40152168 35.13621140 16.49648094
vertex -26.76008606 35.23702240 16.10206795
vertex -30.18860817 34.58687592 16.58464813
endloop
endfacet
facet normal -1.55398643 -0.39400053 1.29783273
outer loop
vertex -30.40152168 35.13621140 16.49648094
vertex -30.18860817 34.58687592 16.58464813
vertex -28.48558044 36.28850174 19.14038849
endloop
endfacet
facet normal -3.29964733 -0.85025418 2.76483679
outer loop
vertex -28.48558044 36.28850174 19.14038849
vertex -30.18860817 34.58687592 16.58464813
vertex -28.03789520 35.11233521 19.31297112
endloop
endfacet
facet normal 2.15060639 0.96297705 0.88304150
outer loop
vertex -28.74294472 36.96102524 19.03378487
vertex -28.48558044 36.28850174 19.14038849
vertex -27.47667885 37.08321762 15.81659985
endloop
endfacet
facet normal 2.55343151 1.14335036 1.04844213
outer loop
vertex -27.47667885 37.08321762 15.81659985
vertex -28.48558044 36.28850174 19.14038849
vertex -27.17110825 36.28472519 15.94317150
endloop
endfacet
facet normal -0.29644436 -0.57795382 -2.93041134
outer loop
vertex -27.47667885 37.08321762 15.81659985
vertex -27.17110825 36.28472519 15.94317150
vertex -30.89820671 36.43411255 16.29074669
endloop
endfacet
facet normal -0.48185232 -0.93942720 -4.76320696
outer loop
vertex -30.89820671 36.43411255 16.29074669
vertex -27.17110825 36.28472519 15.94317150
vertex -30.40152168 35.13621140 16.49648094
endloop
endfacet
facet normal -3.66859627 -0.91901481 3.05902672
outer loop
vertex -30.89820671 36.43411255 16.29074669
vertex -30.40152168 35.13621140 16.49648094
vertex -28.74294472 36.96102524 19.03378487
endloop
endfacet
facet normal -1.90092826 -0.47620106 1.58507395
outer loop
vertex -28.74294472 36.96102524 19.03378487
vertex -30.40152168 35.13621140 16.49648094
vertex -28.48558044 36.28850174 19.14038849
endloop
endfacet
facet normal 2.77551532 0.02412203 1.10454011
outer loop
vertex -28.74500275 37.82542801 19.02007866
vertex -28.74294472 36.96102524 19.03378487
vertex -27.46719551 37.82542801 15.80917358
endloop
endfacet
facet normal 2.38692093 -0.02110603 0.93867689
outer loop
vertex -27.46719551 37.82542801 15.80917358
vertex -28.74294472 36.96102524 19.03378487
vertex -27.47667885 37.08321762 15.81659985
endloop
endfacet
facet normal -0.35817745 -0.02088460 -2.54468322
outer loop
vertex -27.46719551 37.82542801 15.80917358
vertex -27.47667885 37.08321762 15.81659985
vertex -30.89571571 37.82542801 16.29175568
endloop
endfacet
facet normal -0.66034275 0.00463338 -4.75880766
outer loop
vertex -30.89571571 37.82542801 16.29175568
vertex -27.47667885 37.08321762 15.81659985
vertex -30.89820671 36.43411255 16.29074669
endloop
endfacet
facet normal -3.79595804 0.00462620 2.99232030
outer loop
vertex -30.89571571 37.82542801 16.29175568
vertex -30.89820671 36.43411255 16.29074669
vertex -28.74500275 37.82542801 19.02007866
endloop
endfacet
facet normal -2.37831187 0.02389522 1.86409891
outer loop
vertex -28.74500275 37.82542801 19.02007866
vertex -30.89820671 36.43411255 16.29074669
vertex -28.74294472 36.96102524 19.03378487
endloop
endfacet
facet normal 0.00000000 -3.48048234 0.00000000
outer loop
vertex -29.04185867 37.82542801 17.04223251
vertex -27.46719551 37.82542801 15.80917358
vertex -28.74500275 37.82542801 19.02007866
endloop
endfacet
facet normal 0.00000000 -3.46766329 -0.00000000
outer loop
vertex -29.04185867 37.82542801 17.04223251
vertex -30.89571571 37.82542801 16.29175568
vertex -27.46719551 37.82542801 15.80917358
endloop
endfacet
facet normal -0.00000000 -3.44386053 0.00000000
outer loop
vertex -29.04185867 37.82542801 17.04223251
vertex -28.74500275 37.82542801 19.02007866
vertex -30.89571571 37.82542801 16.29175568
endloop
endfacet
endsolid