P3
# a piet program rain2.ppm
41 41
255
  0   0 255    0   0 255    0   0 255    0   0 255    0   0 255    0   0 255 
  0   0 255    0   0 255    0   0 192    0 255 255    0 255 255    0 255 255 
  0 255 255    0 255 255    0 255 255    0 255 255    0 192 192    0 255   0 
  0 255   0    0 255   0    0 255   0    0 255   0    0 192   0  255 255   0 
255 255   0  255 255   0  255 255   0  255 255   0  255 255   0  255 255   0 
192 192   0  255   0   0  255   0   0  255   0   0  255   0   0  255   0   0 
192   0   0  255   0 255  192   0 192    0   0 255  192 192   0  255 255 255 
  0   0 255  255 255 255    0   0 255  255 255 255    0   0 255  255 255 255 
  0   0 255  255 255 255    0 255 255  255 255 255    0 255 255  255 255 255 
  0 255 255  255 255 255    0 255 255  255 255 255    0 255   0  255 255 255 
  0 255   0  255 255 255    0 255   0  255 255 255  255 255   0  255 255 255 
255 255   0  255 255 255  255 255   0  255 255 255  255 255   0  255 255 255 
255   0   0  255 255 255  255   0   0  255 255 255  255   0   0  255 255 255 
255   0 255  255 255 255  255 255 255  255 255 255  255 255 255    0   0 255 
255 255 255    0   0 255  255 255 255    0   0 255  255 255 255    0   0 255 
255 255 255    0 255 255  255 255 255    0 255 255  255 255 255    0 255 255 
255 255 255    0 255 255  255 255 255    0 255   0  255 255 255    0 255   0 
255 255 255    0 255   0  255 255 255  255 255   0  255 255 255  255 255   0 
255 255 255  255 255   0  255 255 255  255 255   0  255 255 255  255   0   0 
255 255 255  255   0   0  255 255 255  255   0   0  255 255 255  255   0 255 
255 255 255  255 255 255  255 255 255  255 255 255    0   0 255  255 255 255 
  0   0 255  255 255 255    0   0 255  255 255 255    0   0 255  255 255 255 
  0 255 255  255 255 255    0 255 255  255 255 255    0 255 255  255 255 255 
  0 255 255  255 255 255    0 255   0  255 255 255    0 255   0  255 255 255 
  0 255   0  255 255 255  255 255   0  255 255 255  255 255   0  255 255 255 
255 255   0  255 255 255  255 255   0  255 255 255  255   0   0  255 255 255 
255   0   0  255 255 255  255   0   0  255 255 255  255   0 255  255 255 255 
255 255 255  255 255 255  255 255 255    0   0 255  255 255 255    0   0 255 
255 255 255    0   0 255  255 255 255    0   0 255  255 255 255    0 255 255 
255 255 255    0 255 255  255 255 255    0 255 255  255 255 255    0 255 255 
255 255 255    0 255   0  255 255 255    0 255   0  255 255 255    0 255   0 
255 255 255  255 255   0  255 255 255  255 255   0  255 255 255  255 255   0 
255 255 255  255 255   0  255 255 255  255   0   0  255 255 255  255 255 255 
255 255 255  255   0   0  255 255 255  255   0 255  255 255 255  255 255 255 
255 255 255  255 255 255    0   0 255  255 255 255    0   0 255  255 255 255 
  0   0 255  255 255 255    0   0 255  255 255 255    0 255 255  255 255 255 
  0 255 255  255 255 255    0 255 255  255 255 255    0 255 255  255 255 255 
  0 255   0  255 255 255    0 255   0  255 255 255    0 255   0  255 255 255 
255 255   0  255 255 255  255 255   0  255 255 255  255 255   0  255 255 255 
255 255   0  255 255 255  255   0   0  255 255 255  255 255 255  255 255 255 
255   0   0  255 255 255  255   0 255  255 255 255  255 255 255  255 255 255 
255 255 255    0   0 255  255 255 255    0   0 255  255 255 255    0   0 255 
255 255 255    0   0 255  255 255 255    0 255 255  255 255 255    0 255 255 
255 255 255    0 255 255  255 255 255    0 255 255  255 255 255    0 255   0 
255 255 255    0 255   0  255 255 255    0 255   0  255 255 255  255 255   0 
255 255 255  255 255   0  255 255 255  255 255   0  255 255 255  255 255   0 
255 255 255  255   0   0  255 255 255  255 255 255  255 255 255  255   0   0 
255 255 255  255   0 255  255 255 255  255 255 255  255 255 255  255 255 255 
  0   0 255  255 255 255    0   0 255  255 255 255    0   0 255  255 255 255 
255 255 255  255 255 255    0 255 255  255 255 255    0 255 255  255 255 255 
  0 255 255  255 255 255    0 255 255  255 255 255    0 255   0  255 255 255 
  0 255   0  255 255 255    0 255   0  255 255 255  255 255   0  255 255 255 
255 255   0  255 255 255  255 255   0  255 255 255  255 255   0  255 255 255 
255   0   0  255 255 255  255 255 255  255 255 255  255   0   0  255 255 255 
255   0 255  255 255 255  255 255 255  255 255 255  255 255 255    0   0 255 
255 255 255    0   0 255  255 255 255    0   0 255  255 255 255  255 255 255 
255 255 255    0 255 255  255 255 255    0 255 255  255 255 255    0 255 255 
255 255 255    0 255 255  255 255 255    0 255   0  255 255 255    0 255   0 
255 255 255    0 255   0  255 255 255  255 255   0  255 255 255  255 255   0 
255 255 255  255 255   0  255 255 255  255 255   0  255 255 255  255   0   0 
255 255 255  255 255 255  255 255 255  255   0   0  255 255 255  255   0 255 
255 255 255  255 255 255  255 255 255  255 255 255    0   0 255  255 255 255 
  0   0 255  255 255 255    0   0 255  255 255 255  255 255 255  255 255 255 
  0 255 255  255 255 255    0 255 255  255 255 255    0 255 255  255 255 255 
  0 255 255  255 255 255    0 255   0  255 255 255    0 255   0  255 255 255 
  0 255   0  255 255 255  255 255   0  255 255 255  255 255   0  255 255 255 
255 255   0  255 255 255  255 255   0  255 255 255  255   0   0  255 255 255 
255 255 255  255 255 255  255   0   0  255 255 255  255   0 255  255 255 255 
255 255 255  255 255 255  255 255 255    0   0 255  255 255 255    0   0 255 
255 255 255    0   0 255  255 255 255  255 255 255  255 255 255    0 255 255 
255 255 255    0 255 255  255 255 255    0 255 255  255 255 255    0 255 255 
255 255 255    0 255   0  255 255 255    0 255   0  255 255 255    0 255   0 
255 255 255  255 255   0  255 255 255  255 255   0  255 255 255  255 255   0 
255 255 255  255 255   0  255 255 255  255   0   0  255 255 255  255 255 255 
255 255 255  255   0   0  255 255 255  255   0 255  255 255 255  255 255 255 
255 255 255  255 255 255    0   0 255  255 255 255    0   0 255  255 255 255 
  0   0 255  255 255 255  255 255 255  255 255 255  255 255 255  255 255 255 
  0 255 255  255 255 255    0 255 255  255 255 255    0 255 255  255 255 255 
  0 255   0  255 255 255    0 255   0  255 255 255    0 255   0  255 255 255 
255 255   0  255 255 255  255 255   0  255 255 255  255 255   0  255 255 255 
255 255   0  255 255 255  255   0   0  255 255 255  255 255 255  255 255 255 
255   0   0  255 255 255  255   0 255  255 255 255  255 255 255  255 255 255 
255 255 255    0   0 255  255 255 255    0   0 255  255 255 255    0   0 255 
255 255 255  255 255 255  255 255 255  255 255 255  255 255 255    0 255 255 
255 255 255    0 255 255  255 255 255    0 255 255  255 255 255    0 255   0 
255 255 255    0 255   0  255 255 255    0 255   0  255 255 255  255 255   0 
255 255 255  255 255   0  255 255 255  255 255 255  255 255 255  255 255   0 
255 255 255  255   0   0  255 255 255  255 255 255  255 255 255  255   0   0 
255 255 255  255   0 255  255 255 255  255 255 255  255 255 255  255 255 255 
  0   0 255  255 255 255    0   0 255  255 255 255    0   0 255  255 255 255 
255 255 255  255 255 255  255 255 255  255 255 255    0 255 255  255 255 255 
  0 255 255  255 255 255    0 255 255  255 255 255    0 255   0  255 255 255 
  0 255   0  255 255 255    0 255   0  255 255 255  255 255   0  255 255 255 
255 255   0  255 255 255  255 255 255  255 255 255  255 255   0  255 255 255 
255   0   0  255 255 255  255 255 255  255 255 255  255   0   0  255 255 255 
255   0 255  255 255 255  255 255 255  255 255 255  255 255 255    0   0 255 
255 255 255    0   0 255  255 255 255    0   0 255  255 255 255  255 255 255 
255 255 255  255 255 255  255 255 255    0 255 255  255 255 255    0 255 255 
255 255 255  255 255 255  255 255 255    0 255   0  255 255 255    0 255   0 
255 255 255    0 255   0  255 255 255  255 255   0  255 255 255  255 255   0 
255 255 255  255 255 255  255 255 255  255 255   0  255 255 255  255   0   0 
255 255 255  255 255 255  255 255 255  255 255 255  255 255 255  255   0 255 
255 255 255  255 255 255  255 255 255  255 255 255    0   0 255  255 255 255 
  0   0 255  255 255 255    0   0 255  255 255 255  255 255 255  255 255 255 
255 255 255  255 255 255    0 255 255  255 255 255    0 255 255  255 255 255 
255 255 255  255 255 255    0 255   0  255 255 255    0 255   0  255 255 255 
  0 255   0  255 255 255  255 255   0  255 255 255  255 255   0  255 255 255 
255 255 255  255 255 255  255 255   0  255 255 255  255   0   0  255 255 255 
255 255 255  255 255 255  255 255 255  255 255 255  255   0 255  255 255 255 
255 255 255  255 255 255  255 255 255    0   0 255  255 255 255    0   0 255 
255 255 255    0   0 255  255 255 255  255 255 255  255 255 255  255 255 255 
255 255 255    0 255 255  255 255 255    0 255 255  255 255 255  255 255 255 
255 255 255    0 255   0  255 255 255    0 255   0  255 255 255    0 255   0 
255 255 255  255 255   0  255 255 255  255 255   0  255 255 255  255 255 255 
255 255 255  255 255   0  255 255 255  255   0   0  255 255 255  255 255 255 
255 255 255  255 255 255  255 255 255  255   0 255  255 255 255  255 255 255 
255 255 255  255 255 255    0   0 255  255 255 255  255 255 255  255 255 255 
  0   0 255  255 255 255  255 255 255  255 255 255  255 255 255  255 255 255 
  0 255 255  255 255 255    0 255 255  255 255 255  255 255 255  255 255 255 
  0 255   0  255 255 255    0 255   0  255 255 255    0 255   0  255 255 255 
255 255   0  255 255 255  255 255   0  255 255 255  255 255 255  255 255 255 
255 255   0  255 255 255  255   0   0  255 255 255  255 255 255  255 255 255 
255 255 255  255 255 255  255   0 255  255 255 255  255 255 255  255 255 255 
255 255 255    0   0 255  255 255 255  255 255 255  255 255 255    0   0 255 
255 255 255  255 255 255  255 255 255  255 255 255  255 255 255    0 255 255 
255 255 255    0 255 255  255 255 255  255 255 255  255 255 255    0 255   0 
255 255 255    0 255   0  255 255 255    0 255   0  255 255 255  255 255   0 
255 255 255  255 255   0  255 255 255  255 255 255  255 255 255  255 255   0 
255 255 255  255   0   0  255 255 255  255 255 255  255 255 255  255 255 255 
255 255 255  255   0 255  255 255 255  255 255 255  255 255 255  255 255 255 
  0   0 255  255 255 255  255 255 255  255 255 255    0   0 255  255 255 255 
255 255 255  255 255 255  255 255 255  255 255 255    0 255 255  255 255 255 
  0 255 255  255 255 255  255 255 255  255 255 255    0 255   0  255 255 255 
  0 255   0  255 255 255    0 255   0  255 255 255  255 255   0  255 255 255 
255 255   0  255 255 255  255 255 255  255 255 255  255 255   0  255 255 255 
255   0   0  255 255 255  255 255 255  255 255 255  255 255 255  255 255 255 
255   0 255  255 255 255  255 255 255  255 255 255  255 255 255    0   0 255 
255 255 255  255 255 255  255 255 255    0   0 255  255 255 255  255 255 255 
255 255 255  255 255 255  255 255 255    0 255 255  255 255 255    0 255 255 
255 255 255  255 255 255  255 255 255    0 255   0  255 255 255    0 255   0 
255 255 255    0 255   0  255 255 255  255 255   0  255 255 255  255 255   0 
255 255 255  255 255 255  255 255 255  255 255   0  255 255 255  255   0   0 
255 255 255  255 255 255  255 255 255  255 255 255  255 255 255  255   0 255 
255 255 255  255 255 255  255 255 255  255 255 255    0   0 255  255 255 255 
255 255 255  255 255 255    0   0 255  255 255 255  255 255 255  255 255 255 
255 255 255  255 255 255    0 255 255  255 255 255    0 255 255  255 255 255 
255 255 255  255 255 255    0 255   0  255 255 255    0 255   0  255 255 255 
  0 255   0  255 255 255  255 255   0  255 255 255  255 255   0  255 255 255 
255 255 255  255 255 255  255 255   0  255 255 255  255   0   0  255 255 255 
255 255 255  255 255 255  255 255 255  255 255 255  255   0 255  255 255 255 
255 255 255  255 255 255  255 255 255    0   0 255  255 255 255  255 255 255 
255 255 255    0   0 255  255 255 255  255 255 255  255 255 255  255 255 255 
255 255 255    0 255 255  255 255 255    0 255 255  255 255 255  255 255 255 
255 255 255    0 255   0  255 255 255    0 255   0  255 255 255    0 255   0 
255 255 255  255 255   0  255 255 255  255 255   0  255 255 255  255 255 255 
255 255 255  255 255   0  255 255 255  255   0   0  255 255 255  255 255 255 
255 255 255  255 255 255  255 255 255  255   0 255  255 255 255  255 255 255 
255 255 255  255 255 255    0   0 255  255 255 255  255 255 255  255 255 255 
  0   0 255  255 255 255  255 255 255  255 255 255  255 255 255  255 255 255 
  0 255 255  255 255 255    0 255 255  255 255 255  255 255 255  255 255 255 
  0 255   0  255 255 255    0 255   0  255 255 255    0 255   0  255 255 255 
255 255   0  255 255 255  255 255   0  255 255 255  255 255 255  255 255 255 
255 255   0  255 255 255  255   0   0  255 255 255  255 255 255  255 255 255 
255 255 255  255 255 255  255   0 255  255 255 255  255 255 255  255 255 255 
255 255 255    0   0 255  255 255 255  255 255 255  255 255 255    0   0 255 
255 255 255  255 255 255  255 255 255  255 255 255  255 255 255    0 255 255 
255 255 255    0 255 255  255 255 255  255 255 255  255 255 255    0 255   0 
255 255 255    0 255   0  255 255 255    0 255   0  255 255 255  255 255   0 
255 255 255  255 255 255  255 255 255  255 255 255  255 255 255  255 255   0 
255 255 255  255   0   0  255 255 255  255 255 255  255 255 255  255 255 255 
255 255 255  255   0 255  255 255 255  255 255 255  255 255 255  255 255 255 
  0   0 255  255 255 255  255 255 255  255 255 255    0   0 255  255 255 255 
255 255 255  255 255 255  255 255 255  255 255 255    0 255 255  255 255 255 
  0 255 255  255 255 255  255 255 255  255 255 255    0 255   0  255 255 255 
  0 255   0  255 255 255    0 255   0  255 255 255  255 255   0  255 255 255 
255 255 255  255 255 255  255 255 255  255 255 255  255 255   0  255 255 255 
255   0   0  255 255 255  255 255 255  255 255 255  255 255 255  255 255 255 
255   0 255  255 255 255  255 255 255  255 255 255  255 255 255    0   0 255 
255 255 255  255 255 255  255 255 255  255 255 255  255 255 255  255 255 255 
255 255 255  255 255 255  255 255 255    0 255 255  255 255 255    0 255 255 
255 255 255  255 255 255  255 255 255    0 255   0  255 255 255    0 255   0 
255 255 255    0 255   0  255 255 255  255 255   0  255 255 255  255 255 255 
255 255 255  255 255 255  255 255 255  255 255   0  255 255 255  255 255 255 
255 255 255  255 255 255  255 255 255  255 255 255  255 255 255  255   0 255 
255 255 255  255 255 255  255 255 255  255 255 255    0   0 255  255 255 255 
255 255 255  255 255 255  255 255 255  255 255 255  255 255 255  255 255 255 
255 255 255  255 255 255    0 255 255  255 255 255    0 255 255  255 255 255 
255 255 255  255 255 255    0 255   0  255 255 255    0 255   0  255 255 255 
  0 255   0  255 255 255  255 255   0  255 255 255  255 255 255  255 255 255 
255 255 255  255 255 255  255 255   0  255 255 255  255 255 255  255 255 255 
255 255 255  255 255 255  255 255 255  255 255 255  255   0 255  255 255 255 
255 255 255  255 255 255  255 255 255  255 255 255  255 255 255  255 255 255 
255 255 255  255 255 255  255 255 255  255 255 255  255 255 255  255 255 255 
255 255 255    0 255 255  255 255 255    0 255 255  255 255 255  255 255 255 
255 255 255    0 255   0  255 255 255    0 255   0  255 255 255    0 255   0 
255 255 255  255 255   0  255 255 255  255 255 255  255 255 255  255 255 255 
255 255 255  255 255   0  255 255 255  255 255 255  255 255 255  255 255 255 
255 255 255  255 255 255  255 255 255  255   0 255  255 255 255  255 255 255 
255 255 255  255 255 255  255 255 255  255 255 255  255 255 255  255 255 255 
255 255 255  255 255 255  255 255 255  255 255 255  255 255 255  255 255 255 
  0 255 255  255 255 255    0 255 255  255 255 255  255 255 255  255 255 255 
  0 255   0  255 255 255    0 255   0  255 255 255    0 255   0  255 255 255 
255 255   0  255 255 255  255 255 255  255 255 255  255 255 255  255 255 255 
255 255   0  255 255 255  255 255 255  255 255 255  255 255 255  255 255 255 
255 255 255  255 255 255  255   0 255  255 255 255  255 255 255  255 255 255 
255 255 255  255 255 255  255 255 255  255 255 255  255 255 255  255 255 255 
255 255 255  255 255 255  255 255 255  255 255 255  255 255 255    0 255 255 
255 255 255    0 255 255  255 255 255  255 255 255  255 255 255    0 255   0 
255 255 255    0 255   0  255 255 255    0 255   0  255 255 255  255 255   0 
255 255 255  255 255 255  255 255 255  255 255 255  255 255 255  255 255   0 
255 255 255  255 255 255  255 255 255  255 255 255  255 255 255  255 255 255 
255 255 255  255   0 255  255 255 255  255 255 255  255 255 255  255 255 255 
255 255 255  255 255 255  255 255 255  255 255 255  255 255 255  255 255 255 
255 255 255  255 255 255  255 255 255  255 255 255    0 255 255  255 255 255 
  0 255 255  255 255 255  255 255 255  255 255 255    0 255   0  255 255 255 
  0 255   0  255 255 255    0 255   0  255 255 255  255 255   0  255 255 255 
255 255 255  255 255 255  255 255 255  255 255 255  255 255 255  255 255 255 
255 255 255  255 255 255  255 255 255  255 255 255  255 255 255  255 255 255 
255   0 255  255 255 255  255 255 255  255 255 255  255 255 255  255 255 255 
255 255 255  255 255 255  255 255 255  255 255 255  255 255 255  255 255 255 
255 255 255  255 255 255  255 255 255    0 255 255  255 255 255  255 255 255 
255 255 255  255 255 255  255 255 255    0 255   0  255 255 255    0 255   0 
255 255 255    0 255   0  255 255 255  255 255   0  255 255 255  255 255 255 
255 255 255  255 255 255  255 255 255  255 255 255  255 255 255  255 255 255 
255 255 255  255 255 255  255 255 255  255 255 255  255 255 255  255 255 255 
255 255 255  255 255 255  255 255 255  255 255 255  255 255 255  255 255 255 
255 255 255  255 255 255  255 255 255  255 255 255  255 255 255  255 255 255 
255 255 255  255 255 255    0 255 255  255 255 255  255 255 255  255 255 255 
255 255 255  255 255 255    0 255   0  255 255 255    0 255   0  255 255 255 
255 255 255  255 255 255  255 255   0  255 255 255  255 255 255  255 255 255 
255 255 255  255 255 255  255 255 255  255 255 255  255 255 255  255 255 255 
255 255 255  255 255 255  255 255 255  255 255 255  255 255 255  255 255 255 
255 255 255  255 255 255  255 255 255  255 255 255  255 255 255  255 255 255 
255 255 255  255 255 255  255 255 255  255 255 255  255 255 255  255 255 255 
255 255 255    0 255 255  255 255 255  255 255 255  255 255 255  255 255 255 
255 255 255    0 255   0  255 255 255  255 255 255  255 255 255  255 255 255 
255 255 255  255 255   0  255 255 255  255 255 255  255 255 255  255 255 255 
255 255 255  255 255 255  255 255 255  255 255 255  255 255 255  255 255 255 
255 255 255  255 255 255  255 255 255  255 255 255  255 255 255  255 255 255 
255 255 255  255 255 255  255 255 255  255 255 255  255 255 255  255 255 255 
255 255 255  255 255 255  255 255 255  255 255 255  255 255 255  255 255 255 
  0 255 255  255 255 255  255 255 255  255 255 255  255 255 255  255 255 255 
  0 255   0  255 255 255  255 255 255  255 255 255  255 255 255  255 255 255 
255 255   0  255 255 255  255 255 255  255 255 255  255 255 255  255 255 255 
255 255 255  255 255 255  255 255 255  255 255 255  255 255 255  255 255 255 
255 255 255  255 255 255  255 255 255  255 255 255  255 255 255  255 255 255 
255 255 255  255 255 255  255 255 255  255 255 255  255 255 255  255 255 255 
255 255 255  255 255 255  255 255 255  255 255 255  255 255 255    0 255 255 
255 255 255  255 255 255  255 255 255  255 255 255  255 255 255  255 255 255 
255 255 255  255 255 255  255 255 255  255 255 255  255 255 255  255 255   0 
255 255 255  255 255 255  255 255 255  255 255 255  255 255 255  255 255 255 
255 255 255  255 255 255  255 255 255  255 255 255  255 255 255  255 255 255 
255 255 255  255 255 255  255 255 255  255 255 255  255 255 255  255 255 255 
255 255 255  255 255 255  255 255 255  255 255 255  255 255 255  255 255 255 
255 255 255  255 255 255  255 255 255  255 255 255  255 255 255  255 255 255 
255 255 255  255 255 255  255 255 255  255 255 255  255 255 255  255 255 255 
255 255 255  255 255 255  255 255 255  255 255 255  255 255   0  255 255 255 
255 255 255  255 255 255  255 255 255  255 255 255  255 255 255  255 255 255 
255 255 255  255 255 255  255 255 255  255 255 255  255 255 255  255 255 255 
255 255 255  255 255 255  255 255 255  255 255 255  255 255 255  255 255 255 
255 255 255  255 255 255  255 255 255  255 255 255  255 255 255  255 255 255 
255 255 255  255 255 255  255 255 255  255 255 255  255 255 255  255 255 255 
255 255 255  255 255 255  255 255 255  255 255 255  255 255 255  255 255 255 
255 255 255  255 255 255  255 255 255  255 255   0  255 255 255  255 255 255 
255 255 255  255 255 255  255 255 255  255 255 255  255 255 255  255 255 255 
255 255 255  255 255 255  255 255 255  255 255 255  255 255 255  255 255 255 
255 255 255  255 255 255  255 255 255  255 255 255  255 255 255  255 255 255 
255 255 255  255 255 255  255 255 255  255 255 255  255 255 255  255 255 255 
255 255 255  255 255 255  255 255 255  255 255 255  255 255 255  255 255 255 
255 255 255  255 255 255  255 255 255  255 255 255  255 255 255  255 255 255 
255 255 255  255 255 255  255 255   0  255 255 255  255 255 255  255 255 255 
255 255 255  255 255 255  255 255 255  255 255 255  255 255 255  255 255 255 
255 255 255  255 255 255  255 255 255  255 255 255  255 255 255  255 255 255 
255 255 255  255 255 255  255 255   0  255 255 255  255 255 255  255 255 255 
255 255 255  255 255 255  255 255 255  255 255 255  255 255 255  255 255 255 
255 255 255  255 255 255  255 255 255  255 255 255  255 255 255  255 255 255 
255 255 255  255 255 255  255 255 255  255 255 255  255 255 255  255 255 255 
255 255 255  255 255 255  255 255 255  255 255 255  255 255 255  255 255 255 
255 255 255  255 255 255  255 255 255  255 255 255  255 255 255  255 255 255 
255 255 255  255 255 255  255 255 255  255 255 255  255 255 255  255 255 255 
192 192 255  
