  0
SECTION
  2
HEADER
  9
$ACADVER
  1
AC1024
  9
$ACADMAINTVER
 70
     6
  9
$DWGCODEPAGE
  3
UNDEFINED
  9
$INSBASE
 10
0.0
 20
0.0
 30
0.0
  9
$EXTMIN
 10
1.000000000000000E+20
 20
1.000000000000000E+20
 30
1.000000000000000E+20
  9
$EXTMAX
 10
-1.000000000000000E+20
 20
-1.000000000000000E+20
 30
-1.000000000000000E+20
  9
$LIMMIN
 10
0.0
 20
0.0
  9
$LIMMAX
 10
12.0
 20
9.0
  9
$ORTHOMODE
 70
     0
  9
$REGENMODE
 70
     1
  9
$FILLMODE
 70
     1
  9
$QTEXTMODE
 70
     0
  9
$MIRRTEXT
 70
     1
  9
$LTSCALE
 40
1.0
  9
$ATTMODE
 70
     1
  9
$TEXTSIZE
 40
0.2
  9
$TRACEWID
 40
0.05
  9
$TEXTSTYLE
  7
Standard
  9
$CLAYER
  8
0
  9
$CELTYPE
  6
ByLayer
  9
$CECOLOR
 62
   256
  9
$CELTSCALE
 40
1.0
  9
$DISPSILH
 70
     0
  9
$DIMSCALE
 40
1.0
  9
$DIMASZ
 40
0.18
  9
$DIMEXO
 40
0.0625
  9
$DIMDLI
 40
0.38
  9
$DIMRND
 40
0.0
  9
$DIMDLE
 40
0.0
  9
$DIMEXE
 40
0.18
  9
$DIMTP
 40
0.0
  9
$DIMTM
 40
0.0
  9
$DIMTXT
 40
0.18
  9
$DIMCEN
 40
0.09
  9
$DIMTSZ
 40
0.0
  9
$DIMTOL
 70
     0
  9
$DIMLIM
 70
     0
  9
$DIMTIH
 70
     1
  9
$DIMTOH
 70
     1
  9
$DIMSE1
 70
     0
  9
$DIMSE2
 70
     0
  9
$DIMTAD
 70
     0
  9
$DIMZIN
 70
     0
  9
$DIMBLK
  1

  9
$DIMASO
 70
     1
  9
$DIMSHO
 70
     1
  9
$DIMPOST
  1

  9
$DIMAPOST
  1

  9
$DIMALT
 70
     0
  9
$DIMALTD
 70
     2
  9
$DIMALTF
 40
25.4
  9
$DIMLFAC
 40
1.0
  9
$DIMTOFL
 70
     0
  9
$DIMTVP
 40
0.0
  9
$DIMTIX
 70
     0
  9
$DIMSOXD
 70
     0
  9
$DIMSAH
 70
     0
  9
$DIMBLK1
  1

  9
$DIMBLK2
  1

  9
$DIMSTYLE
  2
Standard
  9
$DIMCLRD
 70
     0
  9
$DIMCLRE
 70
     0
  9
$DIMCLRT
 70
     0
  9
$DIMTFAC
 40
1.0
  9
$DIMGAP
 40
0.09
  9
$DIMJUST
 70
     0
  9
$DIMSD1
 70
     0
  9
$DIMSD2
 70
     0
  9
$DIMTOLJ
 70
     1
  9
$DIMTZIN
 70
     0
  9
$DIMALTZ
 70
     0
  9
$DIMALTTZ
 70
     0
  9
$DIMUPT
 70
     0
  9
$DIMDEC
 70
     4
  9
$DIMTDEC
 70
     4
  9
$DIMALTU
 70
     2
  9
$DIMALTTD
 70
     2
  9
$DIMTXSTY
  7
Standard
  9
$DIMAUNIT
 70
     0
  9
$DIMADEC
 70
     0
  9
$DIMALTRND
 40
0.0
  9
$DIMAZIN
 70
     0
  9
$DIMDSEP
 70
    46
  9
$DIMATFIT
 70
     3
  9
$DIMFRAC
 70
     0
  9
$DIMLDRBLK
  1

  9
$DIMLUNIT
 70
     2
  9
$DIMLWD
 70
    -2
  9
$DIMLWE
 70
    -2
  9
$DIMTMOVE
 70
     0
  9
$DIMFXL
 40
1.0
  9
$DIMFXLON
 70
     0
  9
$DIMJOGANG
 40
0.7853981633974483
  9
$DIMTFILL
 70
     0
  9
$DIMTFILLCLR
 70
     0
  9
$DIMARCSYM
 70
     0
  9
$DIMLTYPE
  6

  9
$DIMLTEX1
  6

  9
$DIMLTEX2
  6

  9
$DIMTXTDIRECTION
 70
     0
  9
$LUNITS
 70
     2
  9
$LUPREC
 70
     4
  9
$SKETCHINC
 40
0.1
  9
$FILLETRAD
 40
0.5
  9
$AUNITS
 70
     0
  9
$AUPREC
 70
     0
  9
$MENU
  1
.
  9
$ELEVATION
 40
0.0
  9
$PELEVATION
 40
0.0
  9
$THICKNESS
 40
0.0
  9
$LIMCHECK
 70
     0
  9
$CHAMFERA
 40
0.5
  9
$CHAMFERB
 40
0.5
  9
$CHAMFERC
 40
1.0
  9
$CHAMFERD
 40
0.0
  9
$SKPOLY
 70
     0
  9
$TDCREATE
 40
2457913.961307859
  9
$TDUCREATE
 40
2457913.58630787
  9
$TDUPDATE
 40
2457913.961307859
  9
$TDUUPDATE
 40
2457913.58630787
  9
$TDINDWG
 40
0.0000000116
  9
$TDUSRTIMER
 40
0.0000000116
  9
$USRTIMER
 70
     1
  9
$ANGBASE
 50
0.0
  9
$ANGDIR
 70
     0
  9
$PDMODE
 70
     0
  9
$PDSIZE
 40
0.0
  9
$PLINEWID
 40
0.0
  9
$SPLFRAME
 70
     0
  9
$SPLINETYPE
 70
     6
  9
$SPLINESEGS
 70
     8
  9
$HANDSEED
  5
B7
  9
$SURFTAB1
 70
     6
  9
$SURFTAB2
 70
     6
  9
$SURFTYPE
 70
     6
  9
$SURFU
 70
     6
  9
$SURFV
 70
     6
  9
$UCSBASE
  2

  9
$UCSNAME
  2

  9
$UCSORG
 10
0.0
 20
0.0
 30
0.0
  9
$UCSXDIR
 10
1.0
 20
0.0
 30
0.0
  9
$UCSYDIR
 10
0.0
 20
1.0
 30
0.0
  9
$UCSORTHOREF
  2

  9
$UCSORTHOVIEW
 70
     0
  9
$UCSORGTOP
 10
0.0
 20
0.0
 30
0.0
  9
$UCSORGBOTTOM
 10
0.0
 20
0.0
 30
0.0
  9
$UCSORGLEFT
 10
0.0
 20
0.0
 30
0.0
  9
$UCSORGRIGHT
 10
0.0
 20
0.0
 30
0.0
  9
$UCSORGFRONT
 10
0.0
 20
0.0
 30
0.0
  9
$UCSORGBACK
 10
0.0
 20
0.0
 30
0.0
  9
$PUCSBASE
  2

  9
$PUCSNAME
  2

  9
$PUCSORG
 10
0.0
 20
0.0
 30
0.0
  9
$PUCSXDIR
 10
1.0
 20
0.0
 30
0.0
  9
$PUCSYDIR
 10
0.0
 20
1.0
 30
0.0
  9
$PUCSORTHOREF
  2

  9
$PUCSORTHOVIEW
 70
     0
  9
$PUCSORGTOP
 10
0.0
 20
0.0
 30
0.0
  9
$PUCSORGBOTTOM
 10
0.0
 20
0.0
 30
0.0
  9
$PUCSORGLEFT
 10
0.0
 20
0.0
 30
0.0
  9
$PUCSORGRIGHT
 10
0.0
 20
0.0
 30
0.0
  9
$PUCSORGFRONT
 10
0.0
 20
0.0
 30
0.0
  9
$PUCSORGBACK
 10
0.0
 20
0.0
 30
0.0
  9
$USERI1
 70
     0
  9
$USERI2
 70
     0
  9
$USERI3
 70
     0
  9
$USERI4
 70
     0
  9
$USERI5
 70
     0
  9
$USERR1
 40
0.0
  9
$USERR2
 40
0.0
  9
$USERR3
 40
0.0
  9
$USERR4
 40
0.0
  9
$USERR5
 40
0.0
  9
$WORLDVIEW
 70
     1
  9
$SHADEDGE
 70
     3
  9
$SHADEDIF
 70
    70
  9
$TILEMODE
 70
     1
  9
$MAXACTVP
 70
    64
  9
$PINSBASE
 10
0.0
 20
0.0
 30
0.0
  9
$PLIMCHECK
 70
     0
  9
$PEXTMIN
 10
1.000000000000000E+20
 20
1.000000000000000E+20
 30
1.000000000000000E+20
  9
$PEXTMAX
 10
-1.000000000000000E+20
 20
-1.000000000000000E+20
 30
-1.000000000000000E+20
  9
$PLIMMIN
 10
0.0
 20
0.0
  9
$PLIMMAX
 10
12.0
 20
9.0
  9
$UNITMODE
 70
     0
  9
$VISRETAIN
 70
     1
  9
$PLINEGEN
 70
     0
  9
$PSLTSCALE
 70
     1
  9
$TREEDEPTH
 70
  3020
  9
$CMLSTYLE
  2
Standard
  9
$CMLJUST
 70
     0
  9
$CMLSCALE
 40
1.0
  9
$PROXYGRAPHICS
 70
     1
  9
$MEASUREMENT
 70
     0
  9
$CELWEIGHT
370
    -1
  9
$ENDCAPS
280
     0
  9
$JOINSTYLE
280
     0
  9
$LWDISPLAY
290
     1
  9
$INSUNITS
 70
     1
  9
$HYPERLINKBASE
  1

  9
$STYLESHEET
  1

  9
$XEDIT
290
     1
  9
$CEPSNTYPE
380
     0
  9
$PSTYLEMODE
290
     1
  9
$FINGERPRINTGUID
  2
{076B5544-2E8D-FF82-0904-F6BC3968241A}
  9
$VERSIONGUID
  2
{FAEB1C32-E019-11D5-929B-00C0DF256EC4}
  9
$EXTNAMES
290
     1
  9
$PSVPSCALE
 40
0.0
  9
$OLESTARTUP
290
     0
  9
$SORTENTS
280
   127
  9
$INDEXCTL
280
     0
  9
$HIDETEXT
280
     1
  9
$XCLIPFRAME
280
     2
  9
$HALOGAP
280
     0
  9
$OBSCOLOR
 70
   257
  9
$OBSLTYPE
280
     0
  9
$INTERSECTIONDISPLAY
280
     0
  9
$INTERSECTIONCOLOR
 70
   257
  9
$DIMASSOC
280
     2
  9
$PROJECTNAME
  1

  9
$CAMERADISPLAY
290
     0
  9
$LENSLENGTH
 40
50.0
  9
$CAMERAHEIGHT
 40
0.0
  9
$STEPSPERSEC
 40
2.0
  9
$STEPSIZE
 40
6.0
  9
$3DDWFPREC
 40
2.0
  9
$PSOLWIDTH
 40
0.25
  9
$PSOLHEIGHT
 40
4.0
  9
$LOFTANG1
 40
1.570796326794897
  9
$LOFTANG2
 40
1.570796326794897
  9
$LOFTMAG1
 40
0.0
  9
$LOFTMAG2
 40
0.0
  9
$LOFTPARAM
 70
     7
  9
$LOFTNORMALS
280
     1
  9
$LATITUDE
 40
37.795
  9
$LONGITUDE
 40
-122.394
  9
$NORTHDIRECTION
 40
0.0
  9
$TIMEZONE
 70
 -8000
  9
$LIGHTGLYPHDISPLAY
280
     1
  9
$TILEMODELIGHTSYNCH
280
     1
  9
$CMATERIAL
347
3C
  9
$SOLIDHIST
280
     1
  9
$SHOWHIST
280
     1
  9
$DWFFRAME
280
     2
  9
$DGNFRAME
280
     2
  9
$REALWORLDSCALE
290
     1
  9
$INTERFERECOLOR
 62
   256
  9
$CSHADOW
280
     0
  9
$SHADOWPLANELOCATION
 40
0.0
  0
ENDSEC
  0
SECTION
  2
CLASSES
  0
CLASS
  1
ACDBDICTIONARYWDFLT
  2
AcDbDictionaryWithDefault
  3
ObjectDBX Classes
 90
        0
 91
        4
280
     0
281
     0
  0
CLASS
  1
VISUALSTYLE
  2
AcDbVisualStyle
  3
ObjectDBX Classes
 90
     4095
 91
        4
280
     0
281
     0
  0
CLASS
  1
MATERIAL
  2
AcDbMaterial
  3
ObjectDBX Classes
 90
     1153
 91
        4
280
     0
281
     0
  0
CLASS
  1
SUN
  2
AcDbSun
  3
SCENEOE
 90
     1024
 91
        4
280
     0
281
     0
  0
ENDSEC
  0
SECTION
  2
TABLES
  0
TABLE
  2
VPORT
  5
8
330
0
100
AcDbSymbolTable
 70
     1
  0
VPORT
  5
29
330
8
100
AcDbSymbolTableRecord
100
AcDbViewportTableRecord
  2
*Active
 70
     0
 10
0.0
 20
0.0
 11
1.0
 21
1.0
 12
0.0
 22
0.0
 13
0.0
 23
0.0
 14
0.5
 24
0.5
 15
0.5
 25
0.5
 16
0.0
 26
0.0
 36
1.0
 17
148.5000416295408
 27
-105.0007777515271
 37
0.0
 40
899.9999997749989
 41
0.7222222222222219
 42
50.0
 43
0.0
 44
0.0
 50
0.0
 51
0.0
 71
     0
 72
   100
 73
     1
 74
     3
 75
     0
 76
     0
 77
     0
 78
     0
281
     0
 65
     1
110
0.0
120
0.0
130
0.0
111
1.0
121
0.0
131
0.0
112
0.0
122
1.0
132
0.0
 79
     0
146
0.0
 60
     3
 61
     5
292
     1
282
     1
141
0.0
142
0.0
 63
   250
361
3F
  0
ENDTAB
  0
TABLE
  2
LTYPE
  5
5
330
0
100
AcDbSymbolTable
 70
     1
  0
LTYPE
  5
14
330
5
100
AcDbSymbolTableRecord
100
AcDbLinetypeTableRecord
  2
ByBlock
 70
     0
  3

 72
    65
 73
     0
 40
0.0
  0
LTYPE
  5
15
330
5
100
AcDbSymbolTableRecord
100
AcDbLinetypeTableRecord
  2
ByLayer
 70
     0
  3

 72
    65
 73
     0
 40
0.0
  0
LTYPE
  5
16
330
5
100
AcDbSymbolTableRecord
100
AcDbLinetypeTableRecord
  2
Continuous
 70
     0
  3
Solid line
 72
    65
 73
     0
 40
0.0
  0
ENDTAB
  0
TABLE
  2
LAYER
  5
2
330
0
100
AcDbSymbolTable
 70
     2
  0
LAYER
  5
10
330
2
100
AcDbSymbolTableRecord
100
AcDbLayerTableRecord
  2
0
 70
     0
 62
     7
  6
Continuous
370
    -3
390
F
347
3E
  0
LAYER
  5
40
330
2
100
AcDbSymbolTableRecord
100
AcDbLayerTableRecord
  2
_U+30EC_U+30A4_U+30E4_U+30FC 1
 70
     0
 62
     7
  6
Continuous
370
    -3
390
F
347
3E
  0
ENDTAB
  0
TABLE
  2
STYLE
  5
3
330
0
100
AcDbSymbolTable
 70
     1
  0
STYLE
  5
11
330
3
100
AcDbSymbolTableRecord
100
AcDbTextStyleTableRecord
  2
Standard
 70
     0
 40
0.0
 41
1.0
 50
0.0
 71
     0
 42
0.2
  3
txt
  4

  0
ENDTAB
  0
TABLE
  2
VIEW
  5
6
330
0
100
AcDbSymbolTable
 70
     0
  0
ENDTAB
  0
TABLE
  2
UCS
  5
7
330
0
100
AcDbSymbolTable
 70
     0
  0
ENDTAB
  0
TABLE
  2
APPID
  5
9
330
0
100
AcDbSymbolTable
 70
     1
  0
APPID
  5
12
330
9
100
AcDbSymbolTableRecord
100
AcDbRegAppTableRecord
  2
ACAD
 70
     0
  0
ENDTAB
  0
TABLE
  2
DIMSTYLE
  5
A
330
0
100
AcDbSymbolTable
 70
     1
100
AcDbDimStyleTable
  0
DIMSTYLE
105
27
330
A
100
AcDbSymbolTableRecord
100
AcDbDimStyleTableRecord
  2
Standard
 70
     0
178
     0
340
11
  0
ENDTAB
  0
TABLE
  2
BLOCK_RECORD
  5
1
330
0
100
AcDbSymbolTable
 70
    10
  0
BLOCK_RECORD
  5
1F
330
1
100
AcDbSymbolTableRecord
100
AcDbBlockTableRecord
  2
*Model_Space
340
22
 70
     0
280
     1
281
     0
  0
BLOCK_RECORD
  5
1B
330
1
100
AcDbSymbolTableRecord
100
AcDbBlockTableRecord
  2
*Paper_Space
340
1E
 70
     0
280
     1
281
     0
  0
BLOCK_RECORD
  5
23
330
1
100
AcDbSymbolTableRecord
100
AcDbBlockTableRecord
  2
*Paper_Space0
340
26
 70
     0
280
     1
281
     0
  0
BLOCK_RECORD
  5
49
330
1
100
AcDbSymbolTableRecord
100
AcDbBlockTableRecord
  2
block 2
340
0
102
{BLKREFS
331
4A
102
}
 70
     0
280
     1
281
     0
  0
BLOCK_RECORD
  5
4D
330
1
100
AcDbSymbolTableRecord
100
AcDbBlockTableRecord
  2
block 3
340
0
102
{BLKREFS
331
4E
102
}
 70
     0
280
     1
281
     0
  0
BLOCK_RECORD
  5
5B
330
1
100
AcDbSymbolTableRecord
100
AcDbBlockTableRecord
  2
block 4
340
0
102
{BLKREFS
331
5C
102
}
 70
     0
280
     1
281
     0
  0
BLOCK_RECORD
  5
69
330
1
100
AcDbSymbolTableRecord
100
AcDbBlockTableRecord
  2
block 5
340
0
102
{BLKREFS
331
6A
102
}
 70
     0
280
     1
281
     0
  0
BLOCK_RECORD
  5
77
330
1
100
AcDbSymbolTableRecord
100
AcDbBlockTableRecord
  2
block 6
340
0
102
{BLKREFS
331
78
102
}
 70
     0
280
     1
281
     0
  0
BLOCK_RECORD
  5
85
330
1
100
AcDbSymbolTableRecord
100
AcDbBlockTableRecord
  2
block 7
340
0
102
{BLKREFS
331
86
102
}
 70
     0
280
     1
281
     0
  0
BLOCK_RECORD
  5
91
330
1
100
AcDbSymbolTableRecord
100
AcDbBlockTableRecord
  2
block 8
340
0
102
{BLKREFS
331
92
102
}
 70
     0
280
     1
281
     0
  0
BLOCK_RECORD
  5
9D
330
1
100
AcDbSymbolTableRecord
100
AcDbBlockTableRecord
  2
block 9
340
0
102
{BLKREFS
331
9E
102
}
 70
     0
280
     1
281
     0
  0
BLOCK_RECORD
  5
A9
330
1
100
AcDbSymbolTableRecord
100
AcDbBlockTableRecord
  2
block 10
340
0
102
{BLKREFS
331
AA
102
}
 70
     0
280
     1
281
     0
  0
ENDTAB
  0
ENDSEC
  0
SECTION
  2
BLOCKS
  0
BLOCK
  5
20
330
1F
100
AcDbEntity
  8
0
100
AcDbBlockBegin
  2
*Model_Space
 70
     0
 10
0.0
 20
0.0
 30
0.0
  3
*Model_Space
  1

  0
ENDBLK
  5
21
330
1F
100
AcDbEntity
  8
0
100
AcDbBlockEnd
  0
BLOCK
  5
1C
330
1B
100
AcDbEntity
 67
     1
  8
0
100
AcDbBlockBegin
  2
*Paper_Space
 70
     0
 10
0.0
 20
0.0
 30
0.0
  3
*Paper_Space
  1

  0
ENDBLK
  5
1D
330
1B
100
AcDbEntity
 67
     1
  8
0
100
AcDbBlockEnd
  0
BLOCK
  5
24
330
23
100
AcDbEntity
  8
0
100
AcDbBlockBegin
  2
*Paper_Space0
 70
     0
 10
0.0
 20
0.0
 30
0.0
  3
*Paper_Space0
  1

  0
ENDBLK
  5
25
330
23
100
AcDbEntity
  8
0
100
AcDbBlockEnd
  0
BLOCK
  5
4B
330
49
100
AcDbEntity
  8
0
100
AcDbBlockBegin
  2
block 2
 70
     0
 10
0.0
 20
0.0
 30
0.0
  3
block 2
  1

  0
INSERT
  5
4E
330
49
100
AcDbEntity
  8
_U+30EC_U+30A4_U+30E4_U+30FC 1
100
AcDbBlockReference
  2
block 3
 10
0.0
 20
0.0
 30
0.0
  0
INSERT
  5
5C
330
49
100
AcDbEntity
  8
_U+30EC_U+30A4_U+30E4_U+30FC 1
100
AcDbBlockReference
  2
block 4
 10
0.0
 20
0.0
 30
0.0
  0
INSERT
  5
6A
330
49
100
AcDbEntity
  8
_U+30EC_U+30A4_U+30E4_U+30FC 1
100
AcDbBlockReference
  2
block 5
 10
0.0
 20
0.0
 30
0.0
  0
INSERT
  5
78
330
49
100
AcDbEntity
  8
_U+30EC_U+30A4_U+30E4_U+30FC 1
100
AcDbBlockReference
  2
block 6
 10
0.0
 20
0.0
 30
0.0
  0
INSERT
  5
86
330
49
100
AcDbEntity
  8
_U+30EC_U+30A4_U+30E4_U+30FC 1
100
AcDbBlockReference
  2
block 7
 10
0.0
 20
0.0
 30
0.0
  0
INSERT
  5
92
330
49
100
AcDbEntity
  8
_U+30EC_U+30A4_U+30E4_U+30FC 1
100
AcDbBlockReference
  2
block 8
 10
0.0
 20
0.0
 30
0.0
  0
INSERT
  5
9E
330
49
100
AcDbEntity
  8
_U+30EC_U+30A4_U+30E4_U+30FC 1
100
AcDbBlockReference
  2
block 9
 10
0.0
 20
0.0
 30
0.0
  0
INSERT
  5
AA
330
49
100
AcDbEntity
  8
_U+30EC_U+30A4_U+30E4_U+30FC 1
100
AcDbBlockReference
  2
block 10
 10
0.0
 20
0.0
 30
0.0
  0
ENDBLK
  5
4C
330
49
100
AcDbEntity
  8
0
100
AcDbBlockEnd
  0
BLOCK
  5
4F
330
4D
100
AcDbEntity
  8
0
100
AcDbBlockBegin
  2
block 3
 70
     0
 10
0.0
 20
0.0
 30
0.0
  3
block 3
  1

  0
POLYLINE
  5
51
330
4D
100
AcDbEntity
  8
_U+30EC_U+30A4_U+30E4_U+30FC 1
 62
     7
420
 16777215
370
     9
100
AcDb2dPolyline
 66
     1
 10
0.0
 20
0.0
 30
0.0
  0
VERTEX
  5
52
330
51
100
AcDbEntity
  8
_U+30EC_U+30A4_U+30E4_U+30FC 1
 62
     7
420
 16777215
370
     9
100
AcDbVertex
100
AcDb2dVertex
 10
-160.4999579456992
 20
-525.5007776464033
 30
0.0
  0
VERTEX
  5
53
330
51
100
AcDbEntity
  8
_U+30EC_U+30A4_U+30E4_U+30FC 1
 62
     7
420
 16777215
370
     9
100
AcDbVertex
100
AcDb2dVertex
 10
-151.4999582022621
 20
-525.5007776464033
 30
0.0
  0
VERTEX
  5
54
330
51
100
AcDbEntity
  8
_U+30EC_U+30A4_U+30E4_U+30FC 1
 62
     7
420
 16777215
370
     9
100
AcDbVertex
100
AcDb2dVertex
 10
-151.4999582022621
 20
-537.5007773043185
 30
0.0
  0
SEQEND
  5
55
330
51
100
AcDbEntity
  8
_U+30EC_U+30A4_U+30E4_U+30FC 1
 62
     7
420
 16777215
370
     9
  0
POLYLINE
  5
56
330
4D
100
AcDbEntity
  8
_U+30EC_U+30A4_U+30E4_U+30FC 1
 62
     7
420
 16777215
370
     9
100
AcDb2dPolyline
 66
     1
 10
0.0
 20
0.0
 30
0.0
  0
VERTEX
  5
57
330
56
100
AcDbEntity
  8
_U+30EC_U+30A4_U+30E4_U+30FC 1
 62
     7
420
 16777215
370
     9
100
AcDbVertex
100
AcDb2dVertex
 10
-148.4999582877831
 20
-537.5007773043185
 30
0.0
  0
VERTEX
  5
58
330
56
100
AcDbEntity
  8
_U+30EC_U+30A4_U+30E4_U+30FC 1
 62
     7
420
 16777215
370
     9
100
AcDbVertex
100
AcDb2dVertex
 10
-148.4999582877831
 20
-528.500777560883
 30
0.0
  0
VERTEX
  5
59
330
56
100
AcDbEntity
  8
_U+30EC_U+30A4_U+30E4_U+30FC 1
 62
     7
420
 16777215
370
     9
100
AcDbVertex
100
AcDb2dVertex
 10
-160.4999579456992
 20
-528.500777560883
 30
0.0
  0
SEQEND
  5
5A
330
56
100
AcDbEntity
  8
_U+30EC_U+30A4_U+30E4_U+30FC 1
 62
     7
420
 16777215
370
     9
  0
ENDBLK
  5
50
330
4D
100
AcDbEntity
  8
0
100
AcDbBlockEnd
  0
BLOCK
  5
5D
330
5B
100
AcDbEntity
  8
0
100
AcDbBlockBegin
  2
block 4
 70
     0
 10
0.0
 20
0.0
 30
0.0
  3
block 4
  1

  0
POLYLINE
  5
5F
330
5B
100
AcDbEntity
  8
_U+30EC_U+30A4_U+30E4_U+30FC 1
 62
     7
420
 16777215
370
     9
100
AcDb2dPolyline
 66
     1
 10
0.0
 20
0.0
 30
0.0
  0
VERTEX
  5
60
330
5F
100
AcDbEntity
  8
_U+30EC_U+30A4_U+30E4_U+30FC 1
 62
     7
420
 16777215
370
     9
100
AcDbVertex
100
AcDb2dVertex
 10
-160.4999579456992
 20
315.4992221433473
 30
0.0
  0
VERTEX
  5
61
330
5F
100
AcDbEntity
  8
_U+30EC_U+30A4_U+30E4_U+30FC 1
 62
     7
420
 16777215
370
     9
100
AcDbVertex
100
AcDb2dVertex
 10
-151.4999582022621
 20
315.4992221433473
 30
0.0
  0
VERTEX
  5
62
330
5F
100
AcDbEntity
  8
_U+30EC_U+30A4_U+30E4_U+30FC 1
 62
     7
420
 16777215
370
     9
100
AcDbVertex
100
AcDb2dVertex
 10
-151.4999582022621
 20
327.4992218012631
 30
0.0
  0
SEQEND
  5
63
330
5F
100
AcDbEntity
  8
_U+30EC_U+30A4_U+30E4_U+30FC 1
 62
     7
420
 16777215
370
     9
  0
POLYLINE
  5
64
330
5B
100
AcDbEntity
  8
_U+30EC_U+30A4_U+30E4_U+30FC 1
 62
     7
420
 16777215
370
     9
100
AcDb2dPolyline
 66
     1
 10
0.0
 20
0.0
 30
0.0
  0
VERTEX
  5
65
330
64
100
AcDbEntity
  8
_U+30EC_U+30A4_U+30E4_U+30FC 1
 62
     7
420
 16777215
370
     9
100
AcDbVertex
100
AcDb2dVertex
 10
-148.4999582877831
 20
327.4992218012631
 30
0.0
  0
VERTEX
  5
66
330
64
100
AcDbEntity
  8
_U+30EC_U+30A4_U+30E4_U+30FC 1
 62
     7
420
 16777215
370
     9
100
AcDbVertex
100
AcDb2dVertex
 10
-148.4999582877831
 20
318.4992220578263
 30
0.0
  0
VERTEX
  5
67
330
64
100
AcDbEntity
  8
_U+30EC_U+30A4_U+30E4_U+30FC 1
 62
     7
420
 16777215
370
     9
100
AcDbVertex
100
AcDb2dVertex
 10
-160.4999579456992
 20
318.4992220578263
 30
0.0
  0
SEQEND
  5
68
330
64
100
AcDbEntity
  8
_U+30EC_U+30A4_U+30E4_U+30FC 1
 62
     7
420
 16777215
370
     9
  0
ENDBLK
  5
5E
330
5B
100
AcDbEntity
  8
0
100
AcDbBlockEnd
  0
BLOCK
  5
6B
330
69
100
AcDbEntity
  8
0
100
AcDbBlockBegin
  2
block 5
 70
     0
 10
0.0
 20
0.0
 30
0.0
  3
block 5
  1

  0
POLYLINE
  5
6D
330
69
100
AcDbEntity
  8
_U+30EC_U+30A4_U+30E4_U+30FC 1
 62
     7
420
 16777215
370
     9
100
AcDb2dPolyline
 66
     1
 10
0.0
 20
0.0
 30
0.0
  0
VERTEX
  5
6E
330
6D
100
AcDbEntity
  8
_U+30EC_U+30A4_U+30E4_U+30FC 1
 62
     7
420
 16777215
370
     9
100
AcDbVertex
100
AcDb2dVertex
 10
457.5000412216314
 20
315.4992221433473
 30
0.0
  0
VERTEX
  5
6F
330
6D
100
AcDbEntity
  8
_U+30EC_U+30A4_U+30E4_U+30FC 1
 62
     7
420
 16777215
370
     9
100
AcDbVertex
100
AcDb2dVertex
 10
448.5000414781965
 20
315.4992221433473
 30
0.0
  0
VERTEX
  5
70
330
6D
100
AcDbEntity
  8
_U+30EC_U+30A4_U+30E4_U+30FC 1
 62
     7
420
 16777215
370
     9
100
AcDbVertex
100
AcDb2dVertex
 10
448.5000414781965
 20
327.4992218012631
 30
0.0
  0
SEQEND
  5
71
330
6D
100
AcDbEntity
  8
_U+30EC_U+30A4_U+30E4_U+30FC 1
 62
     7
420
 16777215
370
     9
  0
POLYLINE
  5
72
330
69
100
AcDbEntity
  8
_U+30EC_U+30A4_U+30E4_U+30FC 1
 62
     7
420
 16777215
370
     9
100
AcDb2dPolyline
 66
     1
 10
0.0
 20
0.0
 30
0.0
  0
VERTEX
  5
73
330
72
100
AcDbEntity
  8
_U+30EC_U+30A4_U+30E4_U+30FC 1
 62
     7
420
 16777215
370
     9
100
AcDbVertex
100
AcDb2dVertex
 10
445.5000415637169
 20
327.4992218012631
 30
0.0
  0
VERTEX
  5
74
330
72
100
AcDbEntity
  8
_U+30EC_U+30A4_U+30E4_U+30FC 1
 62
     7
420
 16777215
370
     9
100
AcDbVertex
100
AcDb2dVertex
 10
445.5000415637169
 20
318.4992220578263
 30
0.0
  0
VERTEX
  5
75
330
72
100
AcDbEntity
  8
_U+30EC_U+30A4_U+30E4_U+30FC 1
 62
     7
420
 16777215
370
     9
100
AcDbVertex
100
AcDb2dVertex
 10
457.5000412216314
 20
318.4992220578263
 30
0.0
  0
SEQEND
  5
76
330
72
100
AcDbEntity
  8
_U+30EC_U+30A4_U+30E4_U+30FC 1
 62
     7
420
 16777215
370
     9
  0
ENDBLK
  5
6C
330
69
100
AcDbEntity
  8
0
100
AcDbBlockEnd
  0
BLOCK
  5
79
330
77
100
AcDbEntity
  8
0
100
AcDbBlockBegin
  2
block 6
 70
     0
 10
0.0
 20
0.0
 30
0.0
  3
block 6
  1

  0
POLYLINE
  5
7B
330
77
100
AcDbEntity
  8
_U+30EC_U+30A4_U+30E4_U+30FC 1
 62
     7
420
 16777215
370
     9
100
AcDb2dPolyline
 66
     1
 10
0.0
 20
0.0
 30
0.0
  0
VERTEX
  5
7C
330
7B
100
AcDbEntity
  8
_U+30EC_U+30A4_U+30E4_U+30FC 1
 62
     7
420
 16777215
370
     9
100
AcDbVertex
100
AcDb2dVertex
 10
457.5000412216314
 20
-525.5007776464033
 30
0.0
  0
VERTEX
  5
7D
330
7B
100
AcDbEntity
  8
_U+30EC_U+30A4_U+30E4_U+30FC 1
 62
     7
420
 16777215
370
     9
100
AcDbVertex
100
AcDb2dVertex
 10
448.5000414781965
 20
-525.5007776464033
 30
0.0
  0
VERTEX
  5
7E
330
7B
100
AcDbEntity
  8
_U+30EC_U+30A4_U+30E4_U+30FC 1
 62
     7
420
 16777215
370
     9
100
AcDbVertex
100
AcDb2dVertex
 10
448.5000414781965
 20
-537.5007773043185
 30
0.0
  0
SEQEND
  5
7F
330
7B
100
AcDbEntity
  8
_U+30EC_U+30A4_U+30E4_U+30FC 1
 62
     7
420
 16777215
370
     9
  0
POLYLINE
  5
80
330
77
100
AcDbEntity
  8
_U+30EC_U+30A4_U+30E4_U+30FC 1
 62
     7
420
 16777215
370
     9
100
AcDb2dPolyline
 66
     1
 10
0.0
 20
0.0
 30
0.0
  0
VERTEX
  5
81
330
80
100
AcDbEntity
  8
_U+30EC_U+30A4_U+30E4_U+30FC 1
 62
     7
420
 16777215
370
     9
100
AcDbVertex
100
AcDb2dVertex
 10
445.5000415637169
 20
-537.5007773043185
 30
0.0
  0
VERTEX
  5
82
330
80
100
AcDbEntity
  8
_U+30EC_U+30A4_U+30E4_U+30FC 1
 62
     7
420
 16777215
370
     9
100
AcDbVertex
100
AcDb2dVertex
 10
445.5000415637169
 20
-528.500777560883
 30
0.0
  0
VERTEX
  5
83
330
80
100
AcDbEntity
  8
_U+30EC_U+30A4_U+30E4_U+30FC 1
 62
     7
420
 16777215
370
     9
100
AcDbVertex
100
AcDb2dVertex
 10
457.5000412216314
 20
-528.500777560883
 30
0.0
  0
SEQEND
  5
84
330
80
100
AcDbEntity
  8
_U+30EC_U+30A4_U+30E4_U+30FC 1
 62
     7
420
 16777215
370
     9
  0
ENDBLK
  5
7A
330
77
100
AcDbEntity
  8
0
100
AcDbBlockEnd
  0
BLOCK
  5
87
330
85
100
AcDbEntity
  8
0
100
AcDbBlockBegin
  2
block 7
 70
     0
 10
0.0
 20
0.0
 30
0.0
  3
block 7
  1

  0
POLYLINE
  5
89
330
85
100
AcDbEntity
  8
_U+30EC_U+30A4_U+30E4_U+30FC 1
 62
     7
420
 16777215
370
     9
100
AcDb2dPolyline
 66
     1
 10
0.0
 20
0.0
 30
0.0
  0
VERTEX
  5
8A
330
89
100
AcDbEntity
  8
_U+30EC_U+30A4_U+30E4_U+30FC 1
 62
     7
420
 16777215
370
     9
100
AcDbVertex
100
AcDb2dVertex
 10
-161.1999582846081
 20
-105.0007777515277
 30
0.0
  0
VERTEX
  5
8B
330
89
100
AcDbEntity
  8
_U+30EC_U+30A4_U+30E4_U+30FC 1
 62
     7
420
 16777215
370
     9
100
AcDbVertex
100
AcDb2dVertex
 10
-152.7332916200581
 20
-105.0007777515277
 30
0.0
  0
SEQEND
  5
8C
330
89
100
AcDbEntity
  8
_U+30EC_U+30A4_U+30E4_U+30FC 1
 62
     7
420
 16777215
370
     9
  0
POLYLINE
  5
8D
330
85
100
AcDbEntity
  8
_U+30EC_U+30A4_U+30E4_U+30FC 1
 62
     7
420
 16777215
370
     9
100
AcDb2dPolyline
 66
     1
 10
0.0
 20
0.0
 30
0.0
  0
VERTEX
  5
8E
330
8D
100
AcDbEntity
  8
_U+30EC_U+30A4_U+30E4_U+30FC 1
 62
     7
420
 16777215
370
     9
100
AcDbVertex
100
AcDb2dVertex
 10
-154.8499582861956
 20
-92.30077775470271
 30
0.0
  0
VERTEX
  5
8F
330
8D
100
AcDbEntity
  8
_U+30EC_U+30A4_U+30E4_U+30FC 1
 62
     7
420
 16777215
370
     9
100
AcDbVertex
100
AcDb2dVertex
 10
-154.8499582861956
 20
-117.7007777483524
 30
0.0
  0
SEQEND
  5
90
330
8D
100
AcDbEntity
  8
_U+30EC_U+30A4_U+30E4_U+30FC 1
 62
     7
420
 16777215
370
     9
  0
ENDBLK
  5
88
330
85
100
AcDbEntity
  8
0
100
AcDbBlockEnd
  0
BLOCK
  5
93
330
91
100
AcDbEntity
  8
0
100
AcDbBlockBegin
  2
block 8
 70
     0
 10
0.0
 20
0.0
 30
0.0
  3
block 8
  1

  0
POLYLINE
  5
95
330
91
100
AcDbEntity
  8
_U+30EC_U+30A4_U+30E4_U+30FC 1
 62
     7
420
 16777215
370
     9
100
AcDb2dPolyline
 66
     1
 10
0.0
 20
0.0
 30
0.0
  0
VERTEX
  5
96
330
95
100
AcDbEntity
  8
_U+30EC_U+30A4_U+30E4_U+30FC 1
 62
     7
420
 16777215
370
     9
100
AcDbVertex
100
AcDb2dVertex
 10
458.2000415605419
 20
-105.0007777515277
 30
0.0
  0
VERTEX
  5
97
330
95
100
AcDbEntity
  8
_U+30EC_U+30A4_U+30E4_U+30FC 1
 62
     7
420
 16777215
370
     9
100
AcDbVertex
100
AcDb2dVertex
 10
449.7333748959919
 20
-105.0007777515277
 30
0.0
  0
SEQEND
  5
98
330
95
100
AcDbEntity
  8
_U+30EC_U+30A4_U+30E4_U+30FC 1
 62
     7
420
 16777215
370
     9
  0
POLYLINE
  5
99
330
91
100
AcDbEntity
  8
_U+30EC_U+30A4_U+30E4_U+30FC 1
 62
     7
420
 16777215
370
     9
100
AcDb2dPolyline
 66
     1
 10
0.0
 20
0.0
 30
0.0
  0
VERTEX
  5
9A
330
99
100
AcDbEntity
  8
_U+30EC_U+30A4_U+30E4_U+30FC 1
 62
     7
420
 16777215
370
     9
100
AcDbVertex
100
AcDb2dVertex
 10
451.8500415621294
 20
-117.7007777483524
 30
0.0
  0
VERTEX
  5
9B
330
99
100
AcDbEntity
  8
_U+30EC_U+30A4_U+30E4_U+30FC 1
 62
     7
420
 16777215
370
     9
100
AcDbVertex
100
AcDb2dVertex
 10
451.8500415621294
 20
-92.30077775470271
 30
0.0
  0
SEQEND
  5
9C
330
99
100
AcDbEntity
  8
_U+30EC_U+30A4_U+30E4_U+30FC 1
 62
     7
420
 16777215
370
     9
  0
ENDBLK
  5
94
330
91
100
AcDbEntity
  8
0
100
AcDbBlockEnd
  0
BLOCK
  5
9F
330
9D
100
AcDbEntity
  8
0
100
AcDbBlockBegin
  2
block 9
 70
     0
 10
0.0
 20
0.0
 30
0.0
  3
block 9
  1

  0
POLYLINE
  5
A1
330
9D
100
AcDbEntity
  8
_U+30EC_U+30A4_U+30E4_U+30FC 1
 62
     7
420
 16777215
370
     9
100
AcDb2dPolyline
 66
     1
 10
0.0
 20
0.0
 30
0.0
  0
VERTEX
  5
A2
330
A1
100
AcDbEntity
  8
_U+30EC_U+30A4_U+30E4_U+30FC 1
 62
     7
420
 16777215
370
     9
100
AcDbVertex
100
AcDb2dVertex
 10
135.8000416411421
 20
321.8492221417598
 30
0.0
  0
VERTEX
  5
A3
330
A1
100
AcDbEntity
  8
_U+30EC_U+30A4_U+30E4_U+30FC 1
 62
     7
420
 16777215
370
     9
100
AcDbVertex
100
AcDb2dVertex
 10
161.2000416347921
 20
321.8492221417598
 30
0.0
  0
SEQEND
  5
A4
330
A1
100
AcDbEntity
  8
_U+30EC_U+30A4_U+30E4_U+30FC 1
 62
     7
420
 16777215
370
     9
  0
POLYLINE
  5
A5
330
9D
100
AcDbEntity
  8
_U+30EC_U+30A4_U+30E4_U+30FC 1
 62
     7
420
 16777215
370
     9
100
AcDb2dPolyline
 66
     1
 10
0.0
 20
0.0
 30
0.0
  0
VERTEX
  5
A6
330
A5
100
AcDbEntity
  8
_U+30EC_U+30A4_U+30E4_U+30FC 1
 62
     7
420
 16777215
370
     9
100
AcDbVertex
100
AcDb2dVertex
 10
148.5000416379671
 20
328.1992221401723
 30
0.0
  0
VERTEX
  5
A7
330
A5
100
AcDbEntity
  8
_U+30EC_U+30A4_U+30E4_U+30FC 1
 62
     7
420
 16777215
370
     9
100
AcDbVertex
100
AcDb2dVertex
 10
148.5000416379671
 20
319.7325554756223
 30
0.0
  0
SEQEND
  5
A8
330
A5
100
AcDbEntity
  8
_U+30EC_U+30A4_U+30E4_U+30FC 1
 62
     7
420
 16777215
370
     9
  0
ENDBLK
  5
A0
330
9D
100
AcDbEntity
  8
0
100
AcDbBlockEnd
  0
BLOCK
  5
AB
330
A9
100
AcDbEntity
  8
0
100
AcDbBlockBegin
  2
block 10
 70
     0
 10
0.0
 20
0.0
 30
0.0
  3
block 10
  1

  0
POLYLINE
  5
AD
330
A9
100
AcDbEntity
  8
_U+30EC_U+30A4_U+30E4_U+30FC 1
 62
     7
420
 16777215
370
     9
100
AcDb2dPolyline
 66
     1
 10
0.0
 20
0.0
 30
0.0
  0
VERTEX
  5
AE
330
AD
100
AcDbEntity
  8
_U+30EC_U+30A4_U+30E4_U+30FC 1
 62
     7
420
 16777215
370
     9
100
AcDbVertex
100
AcDb2dVertex
 10
161.2000416347921
 20
-531.8507776448158
 30
0.0
  0
VERTEX
  5
AF
330
AD
100
AcDbEntity
  8
_U+30EC_U+30A4_U+30E4_U+30FC 1
 62
     7
420
 16777215
370
     9
100
AcDbVertex
100
AcDb2dVertex
 10
135.8000416411421
 20
-531.8507776448158
 30
0.0
  0
SEQEND
  5
B0
330
AD
100
AcDbEntity
  8
_U+30EC_U+30A4_U+30E4_U+30FC 1
 62
     7
420
 16777215
370
     9
  0
POLYLINE
  5
B1
330
A9
100
AcDbEntity
  8
_U+30EC_U+30A4_U+30E4_U+30FC 1
 62
     7
420
 16777215
370
     9
100
AcDb2dPolyline
 66
     1
 10
0.0
 20
0.0
 30
0.0
  0
VERTEX
  5
B2
330
B1
100
AcDbEntity
  8
_U+30EC_U+30A4_U+30E4_U+30FC 1
 62
     7
420
 16777215
370
     9
100
AcDbVertex
100
AcDb2dVertex
 10
148.5000416379671
 20
-538.2007776432283
 30
0.0
  0
VERTEX
  5
B3
330
B1
100
AcDbEntity
  8
_U+30EC_U+30A4_U+30E4_U+30FC 1
 62
     7
420
 16777215
370
     9
100
AcDbVertex
100
AcDb2dVertex
 10
148.5000416379671
 20
-529.7341109786784
 30
0.0
  0
SEQEND
  5
B4
330
B1
100
AcDbEntity
  8
_U+30EC_U+30A4_U+30E4_U+30FC 1
 62
     7
420
 16777215
370
     9
  0
ENDBLK
  5
AC
330
A9
100
AcDbEntity
  8
0
100
AcDbBlockEnd
  0
ENDSEC
  0
SECTION
  2
ENTITIES
  0
SPLINE
  5
41
330
1F
100
AcDbEntity
  8
_U+30EC_U+30A4_U+30E4_U+30FC 1
 62
   250
420
  4078137
370
   211
100
AcDbSpline
210
0.0
220
0.0
230
1.0
 70
     8
 71
     3
 72
  2033
 73
  2029
 74
     0
 42
0.0000000001
 43
0.0000000001
 12
1.0
 22
0.0
 32
0.0
 13
1.0
 23
0.0
 33
0.0
 40
0.0
 40
0.0
 40
0.0
 40
0.0
 40
1.0
 40
1.0
 40
1.0
 40
2.0
 40
2.0
 40
2.0
 40
3.0
 40
3.0
 40
3.0
 40
4.0
 40
4.0
 40
4.0
 40
5.0
 40
5.0
 40
5.0
 40
6.0
 40
6.0
 40
6.0
 40
7.0
 40
7.0
 40
7.0
 40
8.0
 40
8.0
 40
8.0
 40
9.0
 40
9.0
 40
9.0
 40
10.0
 40
10.0
 40
10.0
 40
11.0
 40
11.0
 40
11.0
 40
12.0
 40
12.0
 40
12.0
 40
13.0
 40
13.0
 40
13.0
 40
14.0
 40
14.0
 40
14.0
 40
15.0
 40
15.0
 40
15.0
 40
16.0
 40
16.0
 40
16.0
 40
17.0
 40
17.0
 40
17.0
 40
18.0
 40
18.0
 40
18.0
 40
19.0
 40
19.0
 40
19.0
 40
20.0
 40
20.0
 40
20.0
 40
21.0
 40
21.0
 40
21.0
 40
22.0
 40
22.0
 40
22.0
 40
23.0
 40
23.0
 40
23.0
 40
24.0
 40
24.0
 40
24.0
 40
25.0
 40
25.0
 40
25.0
 40
26.0
 40
26.0
 40
26.0
 40
27.0
 40
27.0
 40
27.0
 40
28.0
 40
28.0
 40
28.0
 40
29.0
 40
29.0
 40
29.0
 40
30.0
 40
30.0
 40
30.0
 40
31.0
 40
31.0
 40
31.0
 40
32.0
 40
32.0
 40
32.0
 40
33.0
 40
33.0
 40
33.0
 40
34.0
 40
34.0
 40
34.0
 40
35.0
 40
35.0
 40
35.0
 40
36.0
 40
36.0
 40
36.0
 40
37.0
 40
37.0
 40
37.0
 40
38.0
 40
38.0
 40
38.0
 40
39.0
 40
39.0
 40
39.0
 40
40.0
 40
40.0
 40
40.0
 40
41.0
 40
41.0
 40
41.0
 40
42.0
 40
42.0
 40
42.0
 40
43.0
 40
43.0
 40
43.0
 40
44.0
 40
44.0
 40
44.0
 40
45.0
 40
45.0
 40
45.0
 40
46.0
 40
46.0
 40
46.0
 40
47.0
 40
47.0
 40
47.0
 40
48.0
 40
48.0
 40
48.0
 40
49.0
 40
49.0
 40
49.0
 40
50.0
 40
50.0
 40
50.0
 40
51.0
 40
51.0
 40
51.0
 40
52.0
 40
52.0
 40
52.0
 40
53.0
 40
53.0
 40
53.0
 40
54.0
 40
54.0
 40
54.0
 40
55.0
 40
55.0
 40
55.0
 40
56.0
 40
56.0
 40
56.0
 40
57.0
 40
57.0
 40
57.0
 40
58.0
 40
58.0
 40
58.0
 40
59.0
 40
59.0
 40
59.0
 40
60.0
 40
60.0
 40
60.0
 40
61.0
 40
61.0
 40
61.0
 40
62.0
 40
62.0
 40
62.0
 40
63.0
 40
63.0
 40
63.0
 40
64.0
 40
64.0
 40
64.0
 40
65.0
 40
65.0
 40
65.0
 40
66.0
 40
66.0
 40
66.0
 40
67.0
 40
67.0
 40
67.0
 40
68.0
 40
68.0
 40
68.0
 40
69.0
 40
69.0
 40
69.0
 40
70.0
 40
70.0
 40
70.0
 40
71.0
 40
71.0
 40
71.0
 40
72.0
 40
72.0
 40
72.0
 40
73.0
 40
73.0
 40
73.0
 40
74.0
 40
74.0
 40
74.0
 40
75.0
 40
75.0
 40
75.0
 40
76.0
 40
76.0
 40
76.0
 40
77.0
 40
77.0
 40
77.0
 40
78.0
 40
78.0
 40
78.0
 40
79.0
 40
79.0
 40
79.0
 40
80.0
 40
80.0
 40
80.0
 40
81.0
 40
81.0
 40
81.0
 40
82.0
 40
82.0
 40
82.0
 40
83.0
 40
83.0
 40
83.0
 40
84.0
 40
84.0
 40
84.0
 40
85.0
 40
85.0
 40
85.0
 40
86.0
 40
86.0
 40
86.0
 40
87.0
 40
87.0
 40
87.0
 40
88.0
 40
88.0
 40
88.0
 40
89.0
 40
89.0
 40
89.0
 40
90.0
 40
90.0
 40
90.0
 40
91.0
 40
91.0
 40
91.0
 40
92.0
 40
92.0
 40
92.0
 40
93.0
 40
93.0
 40
93.0
 40
94.0
 40
94.0
 40
94.0
 40
95.0
 40
95.0
 40
95.0
 40
96.0
 40
96.0
 40
96.0
 40
97.0
 40
97.0
 40
97.0
 40
98.0
 40
98.0
 40
98.0
 40
99.0
 40
99.0
 40
99.0
 40
100.0
 40
100.0
 40
100.0
 40
101.0
 40
101.0
 40
101.0
 40
102.0
 40
102.0
 40
102.0
 40
103.0
 40
103.0
 40
103.0
 40
104.0
 40
104.0
 40
104.0
 40
105.0
 40
105.0
 40
105.0
 40
106.0
 40
106.0
 40
106.0
 40
107.0
 40
107.0
 40
107.0
 40
108.0
 40
108.0
 40
108.0
 40
109.0
 40
109.0
 40
109.0
 40
110.0
 40
110.0
 40
110.0
 40
111.0
 40
111.0
 40
111.0
 40
112.0
 40
112.0
 40
112.0
 40
113.0
 40
113.0
 40
113.0
 40
114.0
 40
114.0
 40
114.0
 40
115.0
 40
115.0
 40
115.0
 40
116.0
 40
116.0
 40
116.0
 40
117.0
 40
117.0
 40
117.0
 40
118.0
 40
118.0
 40
118.0
 40
119.0
 40
119.0
 40
119.0
 40
120.0
 40
120.0
 40
120.0
 40
121.0
 40
121.0
 40
121.0
 40
122.0
 40
122.0
 40
122.0
 40
123.0
 40
123.0
 40
123.0
 40
124.0
 40
124.0
 40
124.0
 40
125.0
 40
125.0
 40
125.0
 40
126.0
 40
126.0
 40
126.0
 40
127.0
 40
127.0
 40
127.0
 40
128.0
 40
128.0
 40
128.0
 40
129.0
 40
129.0
 40
129.0
 40
130.0
 40
130.0
 40
130.0
 40
131.0
 40
131.0
 40
131.0
 40
132.0
 40
132.0
 40
132.0
 40
133.0
 40
133.0
 40
133.0
 40
134.0
 40
134.0
 40
134.0
 40
135.0
 40
135.0
 40
135.0
 40
136.0
 40
136.0
 40
136.0
 40
137.0
 40
137.0
 40
137.0
 40
138.0
 40
138.0
 40
138.0
 40
139.0
 40
139.0
 40
139.0
 40
140.0
 40
140.0
 40
140.0
 40
141.0
 40
141.0
 40
141.0
 40
142.0
 40
142.0
 40
142.0
 40
143.0
 40
143.0
 40
143.0
 40
144.0
 40
144.0
 40
144.0
 40
145.0
 40
145.0
 40
145.0
 40
146.0
 40
146.0
 40
146.0
 40
147.0
 40
147.0
 40
147.0
 40
148.0
 40
148.0
 40
148.0
 40
149.0
 40
149.0
 40
149.0
 40
150.0
 40
150.0
 40
150.0
 40
151.0
 40
151.0
 40
151.0
 40
152.0
 40
152.0
 40
152.0
 40
153.0
 40
153.0
 40
153.0
 40
154.0
 40
154.0
 40
154.0
 40
155.0
 40
155.0
 40
155.0
 40
156.0
 40
156.0
 40
156.0
 40
157.0
 40
157.0
 40
157.0
 40
158.0
 40
158.0
 40
158.0
 40
159.0
 40
159.0
 40
159.0
 40
160.0
 40
160.0
 40
160.0
 40
161.0
 40
161.0
 40
161.0
 40
162.0
 40
162.0
 40
162.0
 40
163.0
 40
163.0
 40
163.0
 40
164.0
 40
164.0
 40
164.0
 40
165.0
 40
165.0
 40
165.0
 40
166.0
 40
166.0
 40
166.0
 40
167.0
 40
167.0
 40
167.0
 40
168.0
 40
168.0
 40
168.0
 40
169.0
 40
169.0
 40
169.0
 40
170.0
 40
170.0
 40
170.0
 40
171.0
 40
171.0
 40
171.0
 40
172.0
 40
172.0
 40
172.0
 40
173.0
 40
173.0
 40
173.0
 40
174.0
 40
174.0
 40
174.0
 40
175.0
 40
175.0
 40
175.0
 40
176.0
 40
176.0
 40
176.0
 40
177.0
 40
177.0
 40
177.0
 40
178.0
 40
178.0
 40
178.0
 40
179.0
 40
179.0
 40
179.0
 40
180.0
 40
180.0
 40
180.0
 40
181.0
 40
181.0
 40
181.0
 40
182.0
 40
182.0
 40
182.0
 40
183.0
 40
183.0
 40
183.0
 40
184.0
 40
184.0
 40
184.0
 40
185.0
 40
185.0
 40
185.0
 40
186.0
 40
186.0
 40
186.0
 40
187.0
 40
187.0
 40
187.0
 40
188.0
 40
188.0
 40
188.0
 40
189.0
 40
189.0
 40
189.0
 40
190.0
 40
190.0
 40
190.0
 40
191.0
 40
191.0
 40
191.0
 40
192.0
 40
192.0
 40
192.0
 40
193.0
 40
193.0
 40
193.0
 40
194.0
 40
194.0
 40
194.0
 40
195.0
 40
195.0
 40
195.0
 40
196.0
 40
196.0
 40
196.0
 40
197.0
 40
197.0
 40
197.0
 40
198.0
 40
198.0
 40
198.0
 40
199.0
 40
199.0
 40
199.0
 40
200.0
 40
200.0
 40
200.0
 40
201.0
 40
201.0
 40
201.0
 40
202.0
 40
202.0
 40
202.0
 40
203.0
 40
203.0
 40
203.0
 40
204.0
 40
204.0
 40
204.0
 40
205.0
 40
205.0
 40
205.0
 40
206.0
 40
206.0
 40
206.0
 40
207.0
 40
207.0
 40
207.0
 40
208.0
 40
208.0
 40
208.0
 40
209.0
 40
209.0
 40
209.0
 40
210.0
 40
210.0
 40
210.0
 40
211.0
 40
211.0
 40
211.0
 40
212.0
 40
212.0
 40
212.0
 40
213.0
 40
213.0
 40
213.0
 40
214.0
 40
214.0
 40
214.0
 40
215.0
 40
215.0
 40
215.0
 40
216.0
 40
216.0
 40
216.0
 40
217.0
 40
217.0
 40
217.0
 40
218.0
 40
218.0
 40
218.0
 40
219.0
 40
219.0
 40
219.0
 40
220.0
 40
220.0
 40
220.0
 40
221.0
 40
221.0
 40
221.0
 40
222.0
 40
222.0
 40
222.0
 40
223.0
 40
223.0
 40
223.0
 40
224.0
 40
224.0
 40
224.0
 40
225.0
 40
225.0
 40
225.0
 40
226.0
 40
226.0
 40
226.0
 40
227.0
 40
227.0
 40
227.0
 40
228.0
 40
228.0
 40
228.0
 40
229.0
 40
229.0
 40
229.0
 40
230.0
 40
230.0
 40
230.0
 40
231.0
 40
231.0
 40
231.0
 40
232.0
 40
232.0
 40
232.0
 40
233.0
 40
233.0
 40
233.0
 40
234.0
 40
234.0
 40
234.0
 40
235.0
 40
235.0
 40
235.0
 40
236.0
 40
236.0
 40
236.0
 40
237.0
 40
237.0
 40
237.0
 40
238.0
 40
238.0
 40
238.0
 40
239.0
 40
239.0
 40
239.0
 40
240.0
 40
240.0
 40
240.0
 40
241.0
 40
241.0
 40
241.0
 40
242.0
 40
242.0
 40
242.0
 40
243.0
 40
243.0
 40
243.0
 40
244.0
 40
244.0
 40
244.0
 40
245.0
 40
245.0
 40
245.0
 40
246.0
 40
246.0
 40
246.0
 40
247.0
 40
247.0
 40
247.0
 40
248.0
 40
248.0
 40
248.0
 40
249.0
 40
249.0
 40
249.0
 40
250.0
 40
250.0
 40
250.0
 40
251.0
 40
251.0
 40
251.0
 40
252.0
 40
252.0
 40
252.0
 40
253.0
 40
253.0
 40
253.0
 40
254.0
 40
254.0
 40
254.0
 40
255.0
 40
255.0
 40
255.0
 40
256.0
 40
256.0
 40
256.0
 40
257.0
 40
257.0
 40
257.0
 40
258.0
 40
258.0
 40
258.0
 40
259.0
 40
259.0
 40
259.0
 40
260.0
 40
260.0
 40
260.0
 40
261.0
 40
261.0
 40
261.0
 40
262.0
 40
262.0
 40
262.0
 40
263.0
 40
263.0
 40
263.0
 40
264.0
 40
264.0
 40
264.0
 40
265.0
 40
265.0
 40
265.0
 40
266.0
 40
266.0
 40
266.0
 40
267.0
 40
267.0
 40
267.0
 40
268.0
 40
268.0
 40
268.0
 40
269.0
 40
269.0
 40
269.0
 40
270.0
 40
270.0
 40
270.0
 40
271.0
 40
271.0
 40
271.0
 40
272.0
 40
272.0
 40
272.0
 40
273.0
 40
273.0
 40
273.0
 40
274.0
 40
274.0
 40
274.0
 40
275.0
 40
275.0
 40
275.0
 40
276.0
 40
276.0
 40
276.0
 40
277.0
 40
277.0
 40
277.0
 40
278.0
 40
278.0
 40
278.0
 40
279.0
 40
279.0
 40
279.0
 40
280.0
 40
280.0
 40
280.0
 40
281.0
 40
281.0
 40
281.0
 40
282.0
 40
282.0
 40
282.0
 40
283.0
 40
283.0
 40
283.0
 40
284.0
 40
284.0
 40
284.0
 40
285.0
 40
285.0
 40
285.0
 40
286.0
 40
286.0
 40
286.0
 40
287.0
 40
287.0
 40
287.0
 40
288.0
 40
288.0
 40
288.0
 40
289.0
 40
289.0
 40
289.0
 40
290.0
 40
290.0
 40
290.0
 40
291.0
 40
291.0
 40
291.0
 40
292.0
 40
292.0
 40
292.0
 40
293.0
 40
293.0
 40
293.0
 40
294.0
 40
294.0
 40
294.0
 40
295.0
 40
295.0
 40
295.0
 40
296.0
 40
296.0
 40
296.0
 40
297.0
 40
297.0
 40
297.0
 40
298.0
 40
298.0
 40
298.0
 40
299.0
 40
299.0
 40
299.0
 40
300.0
 40
300.0
 40
300.0
 40
301.0
 40
301.0
 40
301.0
 40
302.0
 40
302.0
 40
302.0
 40
303.0
 40
303.0
 40
303.0
 40
304.0
 40
304.0
 40
304.0
 40
305.0
 40
305.0
 40
305.0
 40
306.0
 40
306.0
 40
306.0
 40
307.0
 40
307.0
 40
307.0
 40
308.0
 40
308.0
 40
308.0
 40
309.0
 40
309.0
 40
309.0
 40
310.0
 40
310.0
 40
310.0
 40
311.0
 40
311.0
 40
311.0
 40
312.0
 40
312.0
 40
312.0
 40
313.0
 40
313.0
 40
313.0
 40
314.0
 40
314.0
 40
314.0
 40
315.0
 40
315.0
 40
315.0
 40
316.0
 40
316.0
 40
316.0
 40
317.0
 40
317.0
 40
317.0
 40
318.0
 40
318.0
 40
318.0
 40
319.0
 40
319.0
 40
319.0
 40
320.0
 40
320.0
 40
320.0
 40
321.0
 40
321.0
 40
321.0
 40
322.0
 40
322.0
 40
322.0
 40
323.0
 40
323.0
 40
323.0
 40
324.0
 40
324.0
 40
324.0
 40
325.0
 40
325.0
 40
325.0
 40
326.0
 40
326.0
 40
326.0
 40
327.0
 40
327.0
 40
327.0
 40
328.0
 40
328.0
 40
328.0
 40
329.0
 40
329.0
 40
329.0
 40
330.0
 40
330.0
 40
330.0
 40
331.0
 40
331.0
 40
331.0
 40
332.0
 40
332.0
 40
332.0
 40
333.0
 40
333.0
 40
333.0
 40
334.0
 40
334.0
 40
334.0
 40
335.0
 40
335.0
 40
335.0
 40
336.0
 40
336.0
 40
336.0
 40
337.0
 40
337.0
 40
337.0
 40
338.0
 40
338.0
 40
338.0
 40
339.0
 40
339.0
 40
339.0
 40
340.0
 40
340.0
 40
340.0
 40
341.0
 40
341.0
 40
341.0
 40
342.0
 40
342.0
 40
342.0
 40
343.0
 40
343.0
 40
343.0
 40
344.0
 40
344.0
 40
344.0
 40
345.0
 40
345.0
 40
345.0
 40
346.0
 40
346.0
 40
346.0
 40
347.0
 40
347.0
 40
347.0
 40
348.0
 40
348.0
 40
348.0
 40
349.0
 40
349.0
 40
349.0
 40
350.0
 40
350.0
 40
350.0
 40
351.0
 40
351.0
 40
351.0
 40
352.0
 40
352.0
 40
352.0
 40
353.0
 40
353.0
 40
353.0
 40
354.0
 40
354.0
 40
354.0
 40
355.0
 40
355.0
 40
355.0
 40
356.0
 40
356.0
 40
356.0
 40
357.0
 40
357.0
 40
357.0
 40
358.0
 40
358.0
 40
358.0
 40
359.0
 40
359.0
 40
359.0
 40
360.0
 40
360.0
 40
360.0
 40
361.0
 40
361.0
 40
361.0
 40
362.0
 40
362.0
 40
362.0
 40
363.0
 40
363.0
 40
363.0
 40
364.0
 40
364.0
 40
364.0
 40
365.0
 40
365.0
 40
365.0
 40
366.0
 40
366.0
 40
366.0
 40
367.0
 40
367.0
 40
367.0
 40
368.0
 40
368.0
 40
368.0
 40
369.0
 40
369.0
 40
369.0
 40
370.0
 40
370.0
 40
370.0
 40
371.0
 40
371.0
 40
371.0
 40
372.0
 40
372.0
 40
372.0
 40
373.0
 40
373.0
 40
373.0
 40
374.0
 40
374.0
 40
374.0
 40
375.0
 40
375.0
 40
375.0
 40
376.0
 40
376.0
 40
376.0
 40
377.0
 40
377.0
 40
377.0
 40
378.0
 40
378.0
 40
378.0
 40
379.0
 40
379.0
 40
379.0
 40
380.0
 40
380.0
 40
380.0
 40
381.0
 40
381.0
 40
381.0
 40
382.0
 40
382.0
 40
382.0
 40
383.0
 40
383.0
 40
383.0
 40
384.0
 40
384.0
 40
384.0
 40
385.0
 40
385.0
 40
385.0
 40
386.0
 40
386.0
 40
386.0
 40
387.0
 40
387.0
 40
387.0
 40
388.0
 40
388.0
 40
388.0
 40
389.0
 40
389.0
 40
389.0
 40
390.0
 40
390.0
 40
390.0
 40
391.0
 40
391.0
 40
391.0
 40
392.0
 40
392.0
 40
392.0
 40
393.0
 40
393.0
 40
393.0
 40
394.0
 40
394.0
 40
394.0
 40
395.0
 40
395.0
 40
395.0
 40
396.0
 40
396.0
 40
396.0
 40
397.0
 40
397.0
 40
397.0
 40
398.0
 40
398.0
 40
398.0
 40
399.0
 40
399.0
 40
399.0
 40
400.0
 40
400.0
 40
400.0
 40
401.0
 40
401.0
 40
401.0
 40
402.0
 40
402.0
 40
402.0
 40
403.0
 40
403.0
 40
403.0
 40
404.0
 40
404.0
 40
404.0
 40
405.0
 40
405.0
 40
405.0
 40
406.0
 40
406.0
 40
406.0
 40
407.0
 40
407.0
 40
407.0
 40
408.0
 40
408.0
 40
408.0
 40
409.0
 40
409.0
 40
409.0
 40
410.0
 40
410.0
 40
410.0
 40
411.0
 40
411.0
 40
411.0
 40
412.0
 40
412.0
 40
412.0
 40
413.0
 40
413.0
 40
413.0
 40
414.0
 40
414.0
 40
414.0
 40
415.0
 40
415.0
 40
415.0
 40
416.0
 40
416.0
 40
416.0
 40
417.0
 40
417.0
 40
417.0
 40
418.0
 40
418.0
 40
418.0
 40
419.0
 40
419.0
 40
419.0
 40
420.0
 40
420.0
 40
420.0
 40
421.0
 40
421.0
 40
421.0
 40
422.0
 40
422.0
 40
422.0
 40
423.0
 40
423.0
 40
423.0
 40
424.0
 40
424.0
 40
424.0
 40
425.0
 40
425.0
 40
425.0
 40
426.0
 40
426.0
 40
426.0
 40
427.0
 40
427.0
 40
427.0
 40
428.0
 40
428.0
 40
428.0
 40
429.0
 40
429.0
 40
429.0
 40
430.0
 40
430.0
 40
430.0
 40
431.0
 40
431.0
 40
431.0
 40
432.0
 40
432.0
 40
432.0
 40
433.0
 40
433.0
 40
433.0
 40
434.0
 40
434.0
 40
434.0
 40
435.0
 40
435.0
 40
435.0
 40
436.0
 40
436.0
 40
436.0
 40
437.0
 40
437.0
 40
437.0
 40
438.0
 40
438.0
 40
438.0
 40
439.0
 40
439.0
 40
439.0
 40
440.0
 40
440.0
 40
440.0
 40
441.0
 40
441.0
 40
441.0
 40
442.0
 40
442.0
 40
442.0
 40
443.0
 40
443.0
 40
443.0
 40
444.0
 40
444.0
 40
444.0
 40
445.0
 40
445.0
 40
445.0
 40
446.0
 40
446.0
 40
446.0
 40
447.0
 40
447.0
 40
447.0
 40
448.0
 40
448.0
 40
448.0
 40
449.0
 40
449.0
 40
449.0
 40
450.0
 40
450.0
 40
450.0
 40
451.0
 40
451.0
 40
451.0
 40
452.0
 40
452.0
 40
452.0
 40
453.0
 40
453.0
 40
453.0
 40
454.0
 40
454.0
 40
454.0
 40
455.0
 40
455.0
 40
455.0
 40
456.0
 40
456.0
 40
456.0
 40
457.0
 40
457.0
 40
457.0
 40
458.0
 40
458.0
 40
458.0
 40
459.0
 40
459.0
 40
459.0
 40
460.0
 40
460.0
 40
460.0
 40
461.0
 40
461.0
 40
461.0
 40
462.0
 40
462.0
 40
462.0
 40
463.0
 40
463.0
 40
463.0
 40
464.0
 40
464.0
 40
464.0
 40
465.0
 40
465.0
 40
465.0
 40
466.0
 40
466.0
 40
466.0
 40
467.0
 40
467.0
 40
467.0
 40
468.0
 40
468.0
 40
468.0
 40
469.0
 40
469.0
 40
469.0
 40
470.0
 40
470.0
 40
470.0
 40
471.0
 40
471.0
 40
471.0
 40
472.0
 40
472.0
 40
472.0
 40
473.0
 40
473.0
 40
473.0
 40
474.0
 40
474.0
 40
474.0
 40
475.0
 40
475.0
 40
475.0
 40
476.0
 40
476.0
 40
476.0
 40
477.0
 40
477.0
 40
477.0
 40
478.0
 40
478.0
 40
478.0
 40
479.0
 40
479.0
 40
479.0
 40
480.0
 40
480.0
 40
480.0
 40
481.0
 40
481.0
 40
481.0
 40
482.0
 40
482.0
 40
482.0
 40
483.0
 40
483.0
 40
483.0
 40
484.0
 40
484.0
 40
484.0
 40
485.0
 40
485.0
 40
485.0
 40
486.0
 40
486.0
 40
486.0
 40
487.0
 40
487.0
 40
487.0
 40
488.0
 40
488.0
 40
488.0
 40
489.0
 40
489.0
 40
489.0
 40
490.0
 40
490.0
 40
490.0
 40
491.0
 40
491.0
 40
491.0
 40
492.0
 40
492.0
 40
492.0
 40
493.0
 40
493.0
 40
493.0
 40
494.0
 40
494.0
 40
494.0
 40
495.0
 40
495.0
 40
495.0
 40
496.0
 40
496.0
 40
496.0
 40
497.0
 40
497.0
 40
497.0
 40
498.0
 40
498.0
 40
498.0
 40
499.0
 40
499.0
 40
499.0
 40
500.0
 40
500.0
 40
500.0
 40
501.0
 40
501.0
 40
501.0
 40
502.0
 40
502.0
 40
502.0
 40
503.0
 40
503.0
 40
503.0
 40
504.0
 40
504.0
 40
504.0
 40
505.0
 40
505.0
 40
505.0
 40
506.0
 40
506.0
 40
506.0
 40
507.0
 40
507.0
 40
507.0
 40
508.0
 40
508.0
 40
508.0
 40
509.0
 40
509.0
 40
509.0
 40
510.0
 40
510.0
 40
510.0
 40
511.0
 40
511.0
 40
511.0
 40
512.0
 40
512.0
 40
512.0
 40
513.0
 40
513.0
 40
513.0
 40
514.0
 40
514.0
 40
514.0
 40
515.0
 40
515.0
 40
515.0
 40
516.0
 40
516.0
 40
516.0
 40
517.0
 40
517.0
 40
517.0
 40
518.0
 40
518.0
 40
518.0
 40
519.0
 40
519.0
 40
519.0
 40
520.0
 40
520.0
 40
520.0
 40
521.0
 40
521.0
 40
521.0
 40
522.0
 40
522.0
 40
522.0
 40
523.0
 40
523.0
 40
523.0
 40
524.0
 40
524.0
 40
524.0
 40
525.0
 40
525.0
 40
525.0
 40
526.0
 40
526.0
 40
526.0
 40
527.0
 40
527.0
 40
527.0
 40
528.0
 40
528.0
 40
528.0
 40
529.0
 40
529.0
 40
529.0
 40
530.0
 40
530.0
 40
530.0
 40
531.0
 40
531.0
 40
531.0
 40
532.0
 40
532.0
 40
532.0
 40
533.0
 40
533.0
 40
533.0
 40
534.0
 40
534.0
 40
534.0
 40
535.0
 40
535.0
 40
535.0
 40
536.0
 40
536.0
 40
536.0
 40
537.0
 40
537.0
 40
537.0
 40
538.0
 40
538.0
 40
538.0
 40
539.0
 40
539.0
 40
539.0
 40
540.0
 40
540.0
 40
540.0
 40
541.0
 40
541.0
 40
541.0
 40
542.0
 40
542.0
 40
542.0
 40
543.0
 40
543.0
 40
543.0
 40
544.0
 40
544.0
 40
544.0
 40
545.0
 40
545.0
 40
545.0
 40
546.0
 40
546.0
 40
546.0
 40
547.0
 40
547.0
 40
547.0
 40
548.0
 40
548.0
 40
548.0
 40
549.0
 40
549.0
 40
549.0
 40
550.0
 40
550.0
 40
550.0
 40
551.0
 40
551.0
 40
551.0
 40
552.0
 40
552.0
 40
552.0
 40
553.0
 40
553.0
 40
553.0
 40
554.0
 40
554.0
 40
554.0
 40
555.0
 40
555.0
 40
555.0
 40
556.0
 40
556.0
 40
556.0
 40
557.0
 40
557.0
 40
557.0
 40
558.0
 40
558.0
 40
558.0
 40
559.0
 40
559.0
 40
559.0
 40
560.0
 40
560.0
 40
560.0
 40
561.0
 40
561.0
 40
561.0
 40
562.0
 40
562.0
 40
562.0
 40
563.0
 40
563.0
 40
563.0
 40
564.0
 40
564.0
 40
564.0
 40
565.0
 40
565.0
 40
565.0
 40
566.0
 40
566.0
 40
566.0
 40
567.0
 40
567.0
 40
567.0
 40
568.0
 40
568.0
 40
568.0
 40
569.0
 40
569.0
 40
569.0
 40
570.0
 40
570.0
 40
570.0
 40
571.0
 40
571.0
 40
571.0
 40
572.0
 40
572.0
 40
572.0
 40
573.0
 40
573.0
 40
573.0
 40
574.0
 40
574.0
 40
574.0
 40
575.0
 40
575.0
 40
575.0
 40
576.0
 40
576.0
 40
576.0
 40
577.0
 40
577.0
 40
577.0
 40
578.0
 40
578.0
 40
578.0
 40
579.0
 40
579.0
 40
579.0
 40
580.0
 40
580.0
 40
580.0
 40
581.0
 40
581.0
 40
581.0
 40
582.0
 40
582.0
 40
582.0
 40
583.0
 40
583.0
 40
583.0
 40
584.0
 40
584.0
 40
584.0
 40
585.0
 40
585.0
 40
585.0
 40
586.0
 40
586.0
 40
586.0
 40
587.0
 40
587.0
 40
587.0
 40
588.0
 40
588.0
 40
588.0
 40
589.0
 40
589.0
 40
589.0
 40
590.0
 40
590.0
 40
590.0
 40
591.0
 40
591.0
 40
591.0
 40
592.0
 40
592.0
 40
592.0
 40
593.0
 40
593.0
 40
593.0
 40
594.0
 40
594.0
 40
594.0
 40
595.0
 40
595.0
 40
595.0
 40
596.0
 40
596.0
 40
596.0
 40
597.0
 40
597.0
 40
597.0
 40
598.0
 40
598.0
 40
598.0
 40
599.0
 40
599.0
 40
599.0
 40
600.0
 40
600.0
 40
600.0
 40
601.0
 40
601.0
 40
601.0
 40
602.0
 40
602.0
 40
602.0
 40
603.0
 40
603.0
 40
603.0
 40
604.0
 40
604.0
 40
604.0
 40
605.0
 40
605.0
 40
605.0
 40
606.0
 40
606.0
 40
606.0
 40
607.0
 40
607.0
 40
607.0
 40
608.0
 40
608.0
 40
608.0
 40
609.0
 40
609.0
 40
609.0
 40
610.0
 40
610.0
 40
610.0
 40
611.0
 40
611.0
 40
611.0
 40
612.0
 40
612.0
 40
612.0
 40
613.0
 40
613.0
 40
613.0
 40
614.0
 40
614.0
 40
614.0
 40
615.0
 40
615.0
 40
615.0
 40
616.0
 40
616.0
 40
616.0
 40
617.0
 40
617.0
 40
617.0
 40
618.0
 40
618.0
 40
618.0
 40
619.0
 40
619.0
 40
619.0
 40
620.0
 40
620.0
 40
620.0
 40
621.0
 40
621.0
 40
621.0
 40
622.0
 40
622.0
 40
622.0
 40
623.0
 40
623.0
 40
623.0
 40
624.0
 40
624.0
 40
624.0
 40
625.0
 40
625.0
 40
625.0
 40
626.0
 40
626.0
 40
626.0
 40
627.0
 40
627.0
 40
627.0
 40
628.0
 40
628.0
 40
628.0
 40
629.0
 40
629.0
 40
629.0
 40
630.0
 40
630.0
 40
630.0
 40
631.0
 40
631.0
 40
631.0
 40
632.0
 40
632.0
 40
632.0
 40
633.0
 40
633.0
 40
633.0
 40
634.0
 40
634.0
 40
634.0
 40
635.0
 40
635.0
 40
635.0
 40
636.0
 40
636.0
 40
636.0
 40
637.0
 40
637.0
 40
637.0
 40
638.0
 40
638.0
 40
638.0
 40
639.0
 40
639.0
 40
639.0
 40
640.0
 40
640.0
 40
640.0
 40
641.0
 40
641.0
 40
641.0
 40
642.0
 40
642.0
 40
642.0
 40
643.0
 40
643.0
 40
643.0
 40
644.0
 40
644.0
 40
644.0
 40
645.0
 40
645.0
 40
645.0
 40
646.0
 40
646.0
 40
646.0
 40
647.0
 40
647.0
 40
647.0
 40
648.0
 40
648.0
 40
648.0
 40
649.0
 40
649.0
 40
649.0
 40
650.0
 40
650.0
 40
650.0
 40
651.0
 40
651.0
 40
651.0
 40
652.0
 40
652.0
 40
652.0
 40
653.0
 40
653.0
 40
653.0
 40
654.0
 40
654.0
 40
654.0
 40
655.0
 40
655.0
 40
655.0
 40
656.0
 40
656.0
 40
656.0
 40
657.0
 40
657.0
 40
657.0
 40
658.0
 40
658.0
 40
658.0
 40
659.0
 40
659.0
 40
659.0
 40
660.0
 40
660.0
 40
660.0
 40
661.0
 40
661.0
 40
661.0
 40
662.0
 40
662.0
 40
662.0
 40
663.0
 40
663.0
 40
663.0
 40
664.0
 40
664.0
 40
664.0
 40
665.0
 40
665.0
 40
665.0
 40
666.0
 40
666.0
 40
666.0
 40
667.0
 40
667.0
 40
667.0
 40
668.0
 40
668.0
 40
668.0
 40
669.0
 40
669.0
 40
669.0
 40
670.0
 40
670.0
 40
670.0
 40
671.0
 40
671.0
 40
671.0
 40
672.0
 40
672.0
 40
672.0
 40
673.0
 40
673.0
 40
673.0
 40
674.0
 40
674.0
 40
674.0
 40
675.0
 40
675.0
 40
675.0
 40
676.0
 40
676.0
 40
676.0
 40
676.0
 10
-89.59519640614427
 20
-35.64593905934463
 30
0.0
 10
-89.92588423669257
 20
-35.10830465078345
 30
0.0
 10
-90.25657206723957
 20
-34.57067024222098
 30
0.0
 10
-90.58725989778915
 20
-34.0330358336598
 30
0.0
 10
-91.57932338943274
 20
-32.42013260798138
 30
0.0
 10
-92.57138688151142
 20
-30.80722938300883
 30
0.0
 10
-93.56345037333982
 20
-29.19432615762303
 30
0.0
 10
-94.55551386516694
 20
-27.58142293223851
 30
0.0
 10
-95.5475773569517
 20
-25.96851970678469
 30
0.0
 10
-96.539640848766
 20
-24.3556164813822
 30
0.0
 10
-98.03689368207736
 20
-21.92137316529093
 30
0.0
 10
-99.84651915482004
 20
-20.05454121364994
 30
0.0
 10
-101.4999583078554
 20
-17.90400357979921
 30
0.0
 10
-101.4999583079298
 20
-17.36636917132914
 30
0.0
 10
-101.4999583078785
 20
-16.82873476283341
 30
0.0
 10
-101.4999583079581
 20
-16.29110035436463
 30
0.0
 10
-100.8385826467588
 20
-16.8287347628732
 30
0.0
 10
-100.1772069854299
 20
-17.36636917132144
 30
0.0
 10
-99.51583132423067
 20
-17.90400357982744
 30
0.0
 10
-99.51583132430768
 20
-18.44163798829622
 30
0.0
 10
-99.51583132424993
 20
-18.97927239670468
 30
0.0
 10
-99.51583132432694
 20
-19.51690680517474
 30
0.0
 10
-98.1930800019066
 20
-20.5921756220969
 30
0.0
 10
-96.87032867936979
 20
-21.66744443903959
 30
0.0
 10
-95.547577356944
 20
-22.74271325596688
 30
0.0
 10
-94.22482603452143
 20
-23.8179820728916
 30
0.0
 10
-92.90207471210847
 20
-24.89325088985226
 30
0.0
 10
-91.57932338969327
 20
-25.96851970679239
 30
0.0
 10
-90.2565720672755
 20
-27.04378852373508
 30
0.0
 10
-88.93382074485261
 20
-28.11905734065852
 30
0.0
 10
-87.61106942243484
 20
-29.19432615760506
 30
0.0
 10
-86.9496937612266
 20
-29.73196056607769
 30
0.0
 10
-86.28831810000808
 20
-30.26959497452593
 30
0.0
 10
-85.626942438796
 20
-30.80722938299343
 30
0.0
 10
-83.73305076423289
 20
-32.34678003457439
 30
0.0
 10
-82.32006413274708
 20
-35.10830465073852
 30
0.0
 10
-80.66662497972327
 20
-37.25884228461364
 30
0.0
 10
-79.57107412608325
 20
-38.68376520135472
 30
0.0
 10
-78.68249799609501
 20
-40.48464873542118
 30
0.0
 10
-77.69043450428553
 20
-42.0975519608365
 30
0.0
 10
-76.19318167098444
 20
-44.53179527694446
 30
0.0
 10
-75.04493185944135
 20
-47.47389604550119
 30
0.0
 10
-73.7221805370284
 20
-50.16206808784894
 30
0.0
 10
-73.39149270642362
 20
-50.1620680894827
 30
0.0
 10
-73.0608048758073
 20
-50.16206808864592
 30
0.0
 10
-72.73011704519998
 20
-50.16206809027712
 30
0.0
 10
-74.05286836762802
 20
-47.47389604795248
 30
0.0
 10
-75.37561969004706
 20
-44.78572400316115
 30
0.0
 10
-76.69837101247381
 20
-42.0975519608365
 30
0.0
 10
-74.38355619822893
 20
-43.71045518620338
 30
0.0
 10
-72.06874138398533
 20
-45.32335841160265
 30
0.0
 10
-69.75392656973787
 20
-46.93626163697081
 30
0.0
 10
-68.23417618979009
 20
-47.99518448232579
 30
0.0
 10
-67.10842392491132
 20
-50.1620680878361
 30
0.0
 10
-65.78567260249355
 20
-51.77497131323731
 30
0.0
 10
-64.46292128007322
 20
-53.38787453864011
 30
0.0
 10
-63.14016995765416
 20
-55.00077776404869
 30
0.0
 10
-61.81741863524281
 20
-56.61368098946787
 30
0.0
 10
-61.81741863524281
 20
-57.15131539793793
 30
0.0
 10
-61.81741863523126
 20
-57.68894980637975
 30
0.0
 10
-61.81741863523126
 20
-58.22658421484854
 30
0.0
 10
-60.16397948220873
 20
-59.83948744026001
 30
0.0
 10
-58.51054032918492
 20
-61.45239066566249
 30
0.0
 10
-56.85710117615982
 20
-63.0652938910714
 30
0.0
 10
-58.17985249858272
 20
-61.45239066566891
 30
0.0
 10
-59.50260382099664
 20
-59.83948744025648
 30
0.0
 10
-60.82535514341954
 20
-58.22658421485239
 30
0.0
 10
-61.57361628734617
 20
-57.31418836839004
 30
0.0
 10
-62.14810646582832
 20
-56.07604658096059
 30
0.0
 10
-62.8094821270186
 20
-55.00077776399736
 30
0.0
 10
-59.8332916515706
 20
-57.68894980632746
 30
0.0
 10
-56.85710117615244
 20
-60.37712184871467
 30
0.0
 10
-53.88091070070412
 20
-63.06529389104445
 30
0.0
 10
-50.35232293442956
 20
-66.25240542185773
 30
0.0
 10
-47.26715408860887
 20
-70.59217560960606
 30
0.0
 10
-43.96027578255643
 20
-74.35561646888239
 30
0.0
 10
-43.57715114881702
 20
-74.79163701979965
 30
0.0
 10
-43.2989001213376
 20
-75.43088528579813
 30
0.0
 10
-42.96821229071359
 20
-75.96851969423739
 30
0.0
 10
-42.63752446010882
 20
-75.96851969314906
 30
0.0
 10
-42.30683662953229
 20
-75.96851969374327
 30
0.0
 10
-41.97614879892753
 20
-75.96851969265752
 30
0.0
 10
-40.98408530710811
 20
-77.04378850958994
 30
0.0
 10
-39.99202181529382
 20
-78.11905732815646
 30
0.0
 10
-38.99995832347953
 20
-79.19432614508375
 30
0.0
 10
-37.39557828407132
 20
-80.93326709101483
 30
0.0
 10
-35.69308001743448
 20
-82.42013259590509
 30
0.0
 10
-34.03964086441451
 20
-84.03303582132426
 30
0.0
 10
-33.63862296597509
 20
-84.42422231322521
 30
0.0
 10
-33.37826520318445
 20
-85.10830463821817
 30
0.0
 10
-33.04757737255915
 20
-85.64593904665743
 30
0.0
 10
-32.71688954195439
 20
-85.64593904556912
 30
0.0
 10
-32.38620171138172
 20
-85.64593904616333
 30
0.0
 10
-32.05551388077438
 20
-85.64593904507629
 30
0.0
 10
-31.72482605016834
 20
-85.64593904398926
 30
0.0
 10
-31.39413821956614
 20
-85.64593904616333
 30
0.0
 10
-31.0634503889601
 20
-85.64593904507629
 30
0.0
 10
-31.72482605019914
 20
-84.57067022818751
 30
0.0
 10
-32.38620171139198
 20
-83.49540141285547
 30
0.0
 10
-33.0475773726323
 20
-82.42013259596669
 30
0.0
 10
-33.70895303387007
 20
-81.3448637790779
 30
0.0
 10
-34.37032869500002
 20
-80.26959496200944
 30
0.0
 10
-35.03170435619158
 20
-79.19432614504075
 30
0.0
 10
-36.20086239353795
 20
-77.29350146484832
 30
0.0
 10
-37.67720700105535
 20
-75.96851969427075
 30
0.0
 10
-38.9999583234667
 20
-74.35561646884933
 30
0.0
 10
-36.68514350923336
 20
-75.43088528579395
 30
0.0
 10
-34.37032869501157
 20
-76.50615410275365
 30
0.0
 10
-32.05551388077824
 20
-77.58142291969891
 30
0.0
 10
-32.05551388077824
 20
-78.11905732816768
 30
0.0
 10
-32.05551388077438
 20
-78.6566917366185
 30
0.0
 10
-32.05551388077438
 20
-79.19432614508857
 30
0.0
 10
-32.05551388077438
 20
-78.6566917366185
 30
0.0
 10
-32.05551388077438
 20
-78.11905732815646
 30
0.0
 10
-32.05551388077438
 20
-77.58142291968768
 30
0.0
 10
-32.38620171138172
 20
-77.5814229202328
 30
0.0
 10
-32.71688954198262
 20
-77.58142291995944
 30
0.0
 10
-33.04757737258867
 20
-77.58142292050103
 30
0.0
 10
-32.71688954198262
 20
-77.58142291995944
 30
0.0
 10
-32.38620171138172
 20
-77.581422919414
 30
0.0
 10
-32.05551388077438
 20
-77.5814229188724
 30
0.0
 10
-29.38942335621063
 20
-77.58142291451173
 30
0.0
 10
-27.42588425230642
 20
-81.88249818743117
 30
0.0
 10
-25.11106943807565
 20
-84.03303582131656
 30
0.0
 10
-24.70502405886779
 20
-84.41026507684076
 30
0.0
 10
-24.44969377686869
 20
-85.1083046382477
 30
0.0
 10
-24.1190059462819
 20
-85.6459390467524
 30
0.0
 10
-25.44175726869838
 20
-83.49540141287345
 30
0.0
 10
-26.76450859109176
 20
-81.34486377895598
 30
0.0
 10
-28.08725991350696
 20
-79.19432614507572
 30
0.0
 10
-26.1031329298694
 20
-80.8072293704628
 30
0.0
 10
-24.11900594625238
 20
-82.42013259588711
 30
0.0
 10
-22.1348789626161
 20
-84.03303582127195
 30
0.0
 10
-21.71658826692895
 20
-84.37306567711241
 30
0.0
 10
-21.47350330140016
 20
-85.10830463821817
 30
0.0
 10
-21.14281547077615
 20
-85.64593904665743
 30
0.0
 10
-23.45763028500692
 20
-82.42013259583835
 30
0.0
 10
-25.77244509927491
 20
-79.19432614508375
 30
0.0
 10
-28.08725991350696
 20
-75.96851969426562
 30
0.0
 10
-29.69493661714834
 20
-73.7281444169247
 30
0.0
 10
-31.39413821956614
 20
-71.6674444265449
 30
0.0
 10
-33.04757737259123
 20
-69.51690679267749
 30
0.0
 10
-33.41276099047253
 20
-69.04193248709927
 30
0.0
 10
-33.70895303380076
 20
-68.44163797573609
 30
0.0
 10
-34.03964086440553
 20
-67.90400356726731
 30
0.0
 10
-34.37032869501157
 20
-67.90400356781403
 30
0.0
 10
-34.70101652561505
 20
-67.90400356754067
 30
0.0
 10
-35.03170435621981
 20
-67.90400356808226
 30
0.0
 10
-33.3782652031883
 20
-69.51690679347192
 30
0.0
 10
-31.72482605016705
 20
-71.12981001806715
 30
0.0
 10
-30.07138689713426
 20
-72.74271324345551
 30
0.0
 10
-29.67036899869741
 20
-73.13389973534909
 30
0.0
 10
-29.41001123591446
 20
-73.81798206038056
 30
0.0
 10
-29.07932340527248
 20
-74.35561646878485
 30
0.0
 10
-28.74863557462793
 20
-74.89325087719331
 30
0.0
 10
-28.41794774412841
 20
-75.43088528583534
 30
0.0
 10
-28.08725991354162
 20
-75.96851969432979
 30
0.0
 10
-27.09519642177866
 20
-77.58142291981699
 30
0.0
 10
-26.10313292988737
 20
-79.19432614509626
 30
0.0
 10
-25.11106943808078
 20
-80.80722937051287
 30
0.0
 10
-23.85184769470928
 20
-82.85448020492068
 30
0.0
 10
-21.80419113201391
 20
-82.95776700435718
 30
0.0
 10
-20.15075197898624
 20
-84.03303582127549
 30
0.0
 10
-19.71653758471737
 20
-84.31541524670484
 30
0.0
 10
-19.48937631779083
 20
-85.1083046382477
 30
0.0
 10
-19.15868848720404
 20
-85.64593904674857
 30
0.0
 10
-18.82800065659799
 20
-85.64593904566024
 30
0.0
 10
-18.49731282596499
 20
-85.64593904616333
 30
0.0
 10
-18.16662499536152
 20
-85.64593904507629
 30
0.0
 10
-16.51318584234412
 20
-87.79647667895783
 30
0.0
 10
-14.85974668931517
 20
-89.94701431445644
 30
0.0
 10
-13.20630753629777
 20
-92.09755194833797
 30
0.0
 10
-13.20630753637478
 20
-91.55991753986919
 30
0.0
 10
-13.20630753632473
 20
-91.02228313138245
 30
0.0
 10
-13.20630753640301
 20
-90.48464872291495
 30
0.0
 10
-12.87561970579697
 20
-90.48464872236822
 30
0.0
 10
-12.54493187507541
 20
-90.4846487226403
 30
0.0
 10
-12.21424404446809
 20
-90.48464872209871
 30
0.0
 10
-12.21424404439237
 20
-91.02228313056877
 30
0.0
 10
-12.21424404443087
 20
-91.55991753984738
 30
0.0
 10
-12.2142440443513
 20
-92.09755194831487
 30
0.0
 10
-11.55286838314434
 20
-92.09755194831487
 30
0.0
 10
-10.89149272204904
 20
-92.09755194831487
 30
0.0
 10
-10.23011706084079
 20
-92.09755194831487
 30
0.0
 10
-9.899429230291217
 20
-92.63518635687605
 30
0.0
 10
-9.568741399659503
 20
-93.17282076529735
 30
0.0
 10
-9.238053569108644
 20
-93.71045517385757
 30
0.0
 10
-9.899429230328435
 20
-92.63518635693765
 30
0.0
 10
-10.56080489144684
 20
-91.55991753985508
 30
0.0
 10
-11.22218055266663
 20
-90.48464872293388
 30
0.0
 10
-9.899429230252714
 20
-91.02228313143635
 30
0.0
 10
-8.576677907816979
 20
-91.55991753986406
 30
0.0
 10
-7.253926585403063
 20
-92.09755194836364
 30
0.0
 10
-5.199712645301702
 20
-92.93249051761828
 30
0.0
 10
-3.947048279347735
 20
-96.39862721606511
 30
0.0
 10
-2.293609126330339
 20
-98.54916484995177
 30
0.0
 10
0.0160148670243144
 20
-101.5531661213514
 30
0.0
 10
2.997396163362549
 20
-102.8502401176712
 30
0.0
 10
5.642898808201934
 20
-105.0007777515515
 30
0.0
 10
4.981523146984708
 20
-103.9255089346306
 30
0.0
 10
4.320147485779033
 20
-102.8502401176776
 30
0.0
 10
3.658771824561807
 20
-101.7749713007567
 30
0.0
 10
2.815679973966143
 20
-100.4042671307957
 30
0.0
 10
2.336020502154307
 20
-98.5491648499261
 30
0.0
 10
1.674644840946065
 20
-96.93626162451976
 30
0.0
 10
2.005332671550828
 20
-97.47389603298758
 30
0.0
 10
2.336020502154307
 20
-98.01153044145636
 30
0.0
 10
2.666708332760353
 20
-98.5491648499261
 30
0.0
 10
2.005332671539277
 20
-97.47389603300651
 30
0.0
 10
1.343957010334885
 20
-96.39862721606511
 30
0.0
 10
0.6825813491138091
 20
-95.3233583991468
 30
0.0
 10
4.320147485771333
 20
-97.47389603301582
 30
0.0
 10
7.957713622439123
 20
-99.62443366686495
 30
0.0
 10
11.59527975909665
 20
-101.7749713007352
 30
0.0
 10
11.90605800752547
 20
-101.9587041303033
 30
0.0
 10
12.25665542030489
 20
-101.7749713004616
 30
0.0
 10
12.58734325091222
 20
-101.77497129992
 30
0.0
 10
15.89422155696369
 20
-105.5384121591889
 30
0.0
 10
19.20109986301517
 20
-109.3018530192789
 30
0.0
 10
22.50797816906537
 20
-113.0652938785475
 30
0.0
 10
23.48475816086276
 20
-114.1769325272733
 30
0.0
 10
24.49210515270293
 20
-115.2158315124072
 30
0.0
 10
25.4841686445339
 20
-116.2911003293063
 30
0.0
 10
25.87328796019324
 20
-116.7128554585143
 30
0.0
 10
26.14554430572032
 20
-117.3663691462952
 30
0.0
 10
26.47623213632637
 20
-117.9040035547652
 30
0.0
 10
26.80691996693113
 20
-117.9040035542236
 30
0.0
 10
27.13760779753333
 20
-117.9040035544919
 30
0.0
 10
27.46829562814066
 20
-117.9040035539516
 30
0.0
 10
27.79898345882242
 20
-118.4416379622907
 30
0.0
 10
28.12967128938869
 20
-118.9792723716412
 30
0.0
 10
28.46035912007174
 20
-119.5169067799829
 30
0.0
 10
31.10586176552843
 20
-123.8179820467167
 30
0.0
 10
33.75136440962986
 20
-128.1190573156554
 30
0.0
 10
36.39686705446668
 20
-132.4201325834107
 30
0.0
 10
37.44259379367557
 20
-134.1202818626492
 30
0.0
 10
39.04236969932018
 20
-134.570670217255
 30
0.0
 10
40.36512102174694
 20
-135.6459390341695
 30
0.0
 10
44.56889048686978
 20
-139.0631967928416
 30
0.0
 10
47.64025329504915
 20
-145.3233583866216
 30
0.0
 10
51.27781943170154
 20
-150.1620680628317
 30
0.0
 10
52.00172214926604
 20
-151.1250072789237
 30
0.0
 10
52.60057075411802
 20
-152.3126056967183
 30
0.0
 10
53.26194641530829
 20
-153.3878745136854
 30
0.0
 10
53.2619464154623
 20
-153.9255089221555
 30
0.0
 10
53.26194641541482
 20
-154.4631433305691
 30
0.0
 10
53.26194641556626
 20
-155.0007777390404
 30
0.0
 10
53.26194641571899
 20
-155.5384121475066
 30
0.0
 10
53.26194641533782
 20
-156.0760465559715
 30
0.0
 10
53.26194641533782
 20
-156.6136809644403
 30
0.0
 10
53.59263424594354
 20
-156.6136809644403
 30
0.0
 10
53.92332207654477
 20
-156.6136809644403
 30
0.0
 10
54.2540099071521
 20
-156.6136809644403
 30
0.0
 10
54.58469773775687
 20
-156.6136809644403
 30
0.0
 10
54.91538556836035
 20
-156.6136809641683
 30
0.0
 10
55.2460733989664
 20
-156.6136809636266
 30
0.0
 10
55.57676122957244
 20
-156.613680963085
 30
0.0
 10
55.9074490601772
 20
-156.6136809641683
 30
0.0
 10
56.23813689078325
 20
-156.6136809636266
 30
0.0
 10
58.90422741534444
 20
-156.6136809592682
 30
0.0
 10
60.86776651925378
 20
-160.9147562321854
 30
0.0
 10
63.18258133348968
 20
-163.065293866058
 30
0.0
 10
63.18258133348968
 20
-163.6029282745229
 30
0.0
 10
63.18258133348968
 20
-164.1405626829891
 30
0.0
 10
63.18258133348968
 20
-164.6781970914566
 30
0.0
 10
63.51326916417016
 20
-165.2158314997983
 30
0.0
 10
63.84395699473642
 20
-165.7534659083287
 30
0.0
 10
64.1746448254182
 20
-166.2911003166704
 30
0.0
 10
64.50533265609995
 20
-166.8287347250147
 30
0.0
 10
64.83602048649553
 20
-167.3663691338287
 30
0.0
 10
65.16670831706307
 20
-167.9040035423591
 30
0.0
 10
65.4973961476319
 20
-168.4416379508882
 30
0.0
 10
65.82808397830853
 20
-168.9792723592312
 30
0.0
 10
66.15877180887736
 20
-169.5169067677577
 30
0.0
 10
66.15877180887736
 20
-170.0545411762304
 30
0.0
 10
66.15877180893384
 20
-170.5921755846003
 30
0.0
 10
66.15877180893384
 20
-171.1298099930678
 30
0.0
 10
66.82014747014463
 20
-171.6674444015392
 30
0.0
 10
67.48152313135417
 20
-172.205078810008
 30
0.0
 10
68.14289879256626
 20
-172.7427132184754
 30
0.0
 10
69.86755551308691
 20
-174.1446922299952
 30
0.0
 10
71.44977709861132
 20
-175.9685196692933
 30
0.0
 10
73.10321625163256
 20
-177.5814228947137
 30
0.0
 10
74.91890201044814
 20
-179.3525950672077
 30
0.0
 10
76.41009455768788
 20
-181.8824981624306
 30
0.0
 10
78.06353371071171
 20
-184.0330357963057
 30
0.0
 10
78.42871732859172
 20
-184.5080101018839
 30
0.0
 10
78.72490937192508
 20
-185.1083046132279
 30
0.0
 10
79.05559720253241
 20
-185.6459390216979
 30
0.0
 10
79.38628503313717
 20
-185.6459390211525
 30
0.0
 10
79.71697286374322
 20
-185.6459390214258
 30
0.0
 10
80.04766069434798
 20
-185.6459390208817
 30
0.0
 10
80.37834852499253
 20
-186.1835734292901
 30
0.0
 10
80.70903635557964
 20
-186.7212078386047
 30
0.0
 10
81.03972418622259
 20
-187.258842247008
 30
0.0
 10
81.03972418622259
 20
-187.7964766554742
 30
0.0
 10
81.03972418616355
 20
-188.334111064038
 30
0.0
 10
81.03972418616355
 20
-188.8717454725055
 30
0.0
 10
81.37041201676959
 20
-188.8717454719587
 30
0.0
 10
81.70109984737051
 20
-188.8717454722334
 30
0.0
 10
82.03178767797785
 20
-188.8717454716918
 30
0.0
 10
82.36247550858388
 20
-188.8717454711476
 30
0.0
 10
82.69316333918736
 20
-188.8717454722334
 30
0.0
 10
83.0238511697947
 20
-188.8717454716918
 30
0.0
 10
83.0238511696407
 20
-189.4093798801567
 30
0.0
 10
83.02385116971898
 20
-189.9470142894379
 30
0.0
 10
83.02385116956496
 20
-190.4846486979054
 30
0.0
 10
83.6852268307809
 20
-191.0222831063523
 30
0.0
 10
84.34660249221888
 20
-191.5599175148365
 30
0.0
 10
85.00797815343482
 20
-192.0975519232809
 30
0.0
 10
84.0159146616154
 20
-189.9470142894109
 30
0.0
 10
83.02385116979212
 20
-187.7964766555705
 30
0.0
 10
82.03178767797527
 20
-185.6459390217018
 30
0.0
 10
82.36247550858003
 20
-185.6459390222472
 30
0.0
 10
82.69316333918736
 20
-185.6459390219726
 30
0.0
 10
83.0238511697947
 20
-185.6459390225129
 30
0.0
 10
83.0238511697947
 20
-186.1835734309791
 30
0.0
 10
83.0238511697947
 20
-186.7212078386329
 30
0.0
 10
83.0238511697947
 20
-187.2588422471042
 30
0.0
 10
83.0238511697947
 20
-186.7212078386329
 30
0.0
 10
83.0238511697947
 20
-186.1835734301667
 30
0.0
 10
83.0238511697947
 20
-185.6459390216979
 30
0.0
 10
83.68522683099908
 20
-186.1835734301834
 30
0.0
 10
84.34660249221375
 20
-186.7212078386445
 30
0.0
 10
85.00797815341556
 20
-187.2588422471299
 30
0.0
 10
88.86442781831857
 20
-190.3937626200288
 30
0.0
 10
92.28311042673575
 20
-194.7857239656556
 30
0.0
 10
95.92067656338686
 20
-198.5491648249396
 30
0.0
 10
95.92067656354087
 20
-199.0867992334097
 30
0.0
 10
95.92067656346771
 20
-199.6244336418567
 30
0.0
 10
95.920676563623
 20
-200.1620680503229
 30
0.0
 10
96.91274005542445
 20
-201.774971275751
 30
0.0
 10
97.90480354701543
 20
-203.3878745011432
 30
0.0
 10
98.89686703881945
 20
-205.0007777265662
 30
0.0
 10
98.89686703866417
 20
-204.4631433180988
 30
0.0
 10
98.8968670387617
 20
-203.9255089096017
 30
0.0
 10
98.89686703860897
 20
-203.3878745011355
 30
0.0
 10
98.89686703860897
 20
-204.4631433180718
 30
0.0
 10
98.8968670388387
 20
-205.5384121350029
 30
0.0
 10
98.8968670388387
 20
-206.6136809519405
 30
0.0
 10
99.88893053065428
 20
-209.3018529942754
 30
0.0
 10
100.8809940224686
 20
-211.9900250366142
 30
0.0
 10
101.8730575142845
 20
-214.6781970789529
 30
0.0
 10
102.534433175486
 20
-215.2158314874422
 30
0.0
 10
103.1958088366997
 20
-215.7534658958995
 30
0.0
 10
103.8571844979063
 20
-216.2911003043901
 30
0.0
 10
104.1878723285367
 20
-217.3663691213058
 30
0.0
 10
104.5185601591364
 20
-218.4416379382177
 30
0.0
 10
104.8492479897668
 20
-219.5169067551334
 30
0.0
 10
105.8413114815862
 20
-220.0545411635842
 30
0.0
 10
106.8333749733607
 20
-220.5921755720954
 30
0.0
 10
107.8254384651814
 20
-221.1298099805372
 30
0.0
 10
107.1640628039873
 20
-220.0545411635714
 30
0.0
 10
106.5026871427636
 20
-218.9792723466826
 30
0.0
 10
105.8413114815721
 20
-217.904003529713
 30
0.0
 10
105.8413114815721
 20
-217.3663691212442
 30
0.0
 10
105.8413114815439
 20
-216.8287347128306
 30
0.0
 10
105.8413114815439
 20
-216.2911003043593
 30
0.0
 10
105.5106236509365
 20
-216.2911003059905
 30
0.0
 10
105.1799358203356
 20
-216.2911003051768
 30
0.0
 10
104.8492479897296
 20
-216.291100306808
 30
0.0
 10
103.8571844979268
 20
-214.6781970813837
 30
0.0
 10
102.8651210061061
 20
-213.065293853544
 30
0.0
 10
101.8730575143034
 20
-211.4523906281223
 30
0.0
 10
101.8730575143034
 20
-210.9147562196509
 30
0.0
 10
101.8730575142845
 20
-210.377121811213
 30
0.0
 10
101.8730575142845
 20
-209.839487402748
 30
0.0
 10
102.8651210060907
 20
-210.9147562197023
 30
0.0
 10
103.8571844979101
 20
-211.9900250366244
 30
0.0
 10
104.8492479897167
 20
-213.0652938535787
 30
0.0
 10
106.7948445679685
 20
-215.174069499733
 30
0.0
 10
108.1561262957772
 20
-218.4416379382357
 30
0.0
 10
109.8095654487946
 20
-221.1298099805873
 30
0.0
 10
112.4550680936211
 20
-225.4308852483465
 30
0.0
 10
115.1005707384836
 20
-229.7319605160531
 30
0.0
 10
117.7460733833153
 20
-234.033035783811
 30
0.0
 10
119.1095342380029
 20
-236.2497592378985
 30
0.0
 10
119.7302003669631
 20
-239.4093798684603
 30
0.0
 10
120.722263858797
 20
-242.0975519107849
 30
0.0
 10
118.7381368751566
 20
-239.4093798684667
 30
0.0
 10
116.7540098915062
 20
-236.7212078261421
 30
0.0
 10
114.769882907866
 20
-234.0330357838213
 30
0.0
 10
118.0767612139226
 20
-239.4093798684924
 30
0.0
 10
121.3836395199831
 20
-244.7857239531481
 30
0.0
 10
124.6905178260359
 20
-250.162068037823
 30
0.0
 10
128.1979919381905
 20
-255.8645420782191
 30
0.0
 10
132.6270257605579
 20
-259.8394873902457
 30
0.0
 10
136.5952797278202
 20
-264.6781970664454
 30
0.0
 10
138.6614833452705
 20
-267.1976324451392
 30
0.0
 10
140.5635336950773
 20
-270.0545411511281
 30
0.0
 10
142.5476606787097
 20
-272.7427131934681
 30
0.0
 10
144.3795794709047
 20
-275.224667686119
 30
0.0
 10
146.5159146459682
 20
-277.0437884612158
 30
0.0
 10
148.5000416296006
 20
-279.1943260950858
 30
0.0
 10
147.507978137794
 20
-278.1190572781251
 30
0.0
 10
146.5159146459733
 20
-277.0437884612004
 30
0.0
 10
145.523851154168
 20
-275.9685196442462
 30
0.0
 10
143.7620385202205
 20
-274.0589420796535
 30
0.0
 10
142.2169728481011
 20
-271.6674443765421
 30
0.0
 10
140.5635336950747
 20
-269.5169067426734
 30
0.0
 10
140.2328458644674
 20
-269.5169067415877
 30
0.0
 10
139.9021580338691
 20
-269.5169067421241
 30
0.0
 10
139.5714702032643
 20
-269.5169067410307
 30
0.0
 10
136.9259675584211
 20
-264.6781970648219
 30
0.0
 10
134.2804649135804
 20
-259.839487390247
 30
0.0
 10
131.6349622687423
 20
-255.0007777140369
 30
0.0
 10
130.2282148488244
 20
-252.4277913040619
 30
0.0
 10
128.3280839626921
 20
-250.6997024462867
 30
0.0
 10
126.6746448096747
 20
-248.5491648123975
 30
0.0
 10
124.0924066838689
 20
-245.1905892887308
 30
0.0
 10
121.3836395199805
 20
-242.0975519108158
 30
0.0
 10
118.7381368751322
 20
-238.8717454600236
 30
0.0
 10
118.1465845002797
 20
-238.150433209403
 30
0.0
 10
118.076761213888
 20
-236.7212078261664
 30
0.0
 10
117.7460733831985
 20
-235.6459390093059
 30
0.0
 10
118.0767612138046
 20
-235.6459390087566
 30
0.0
 10
118.407449044539
 20
-235.6459390089273
 30
0.0
 10
118.7381368751437
 20
-235.645939008387
 30
0.0
 10
121.3836395199882
 20
-239.4093798676453
 30
0.0
 10
124.0291421648263
 20
-243.1728207277443
 30
0.0
 10
126.6746448096696
 20
-246.9362615870065
 30
0.0
 10
125.0212056566509
 20
-244.2480895446614
 30
0.0
 10
123.3677665036142
 20
-241.5599175023367
 30
0.0
 10
121.7143273505943
 20
-238.8717454599941
 30
0.0
 10
123.3677665036207
 20
-240.4846486853953
 30
0.0
 10
125.0212056566381
 20
-242.0975519108106
 30
0.0
 10
126.6746448096644
 20
-243.7104551362118
 30
0.0
 10
128.960798573787
 20
-245.9405612596644
 30
0.0
 10
131.3042744381362
 20
-248.0115304039531
 30
0.0
 10
133.619089252376
 20
-250.1620680378179
 30
0.0
 10
136.4902636634446
 20
-252.8294816842222
 30
0.0
 10
138.9100945420535
 20
-256.6136809394381
 30
0.0
 10
141.5555971868942
 20
-259.8394873902379
 30
0.0
 10
141.5555971867402
 20
-260.3771217987054
 30
0.0
 10
141.5555971868136
 20
-260.9147562071755
 30
0.0
 10
141.5555971866619
 20
-261.4523906156481
 30
0.0
 10
145.1931633233181
 20
-265.2158314749283
 30
0.0
 10
148.8307294602041
 20
-268.9792723341956
 30
0.0
 10
152.4682955968539
 20
-272.7427131934758
 30
0.0
 10
154.3398079342478
 20
-274.678987541381
 30
0.0
 10
156.4365495641213
 20
-275.9685196442757
 30
0.0
 10
158.4206765477525
 20
-277.5814228696756
 30
0.0
 10
158.7513643783829
 20
-278.6566916865964
 30
0.0
 10
159.0820522089736
 20
-279.7319605035391
 30
0.0
 10
159.412740039604
 20
-280.8072293204575
 30
0.0
 10
160.735491362023
 20
-281.8824981374015
 30
0.0
 10
162.0582426844074
 20
-282.9577669543608
 30
0.0
 10
163.3809940068226
 20
-284.0330357713086
 30
0.0
 10
166.4261962370636
 20
-286.508490487532
 30
0.0
 10
169.3333749577212
 20
-289.409379855972
 30
0.0
 10
172.3095654331666
 20
-292.0975518983108
 30
0.0
 10
172.5986386064128
 20
-292.358650248341
 30
0.0
 10
172.9709410943749
 20
-292.097551897764
 30
0.0
 10
173.3016289249809
 20
-292.0975518966783
 30
0.0
 10
170.6561262801364
 20
-287.7964766289409
 30
0.0
 10
168.010623635297
 20
-283.4954013628258
 30
0.0
 10
165.3651209904563
 20
-279.1943260950883
 30
0.0
 10
168.3413114658966
 20
-281.3448637289686
 30
0.0
 10
171.3175019413485
 20
-283.495401362827
 30
0.0
 10
174.2936924167913
 20
-285.6459389967047
 30
0.0
 10
176.228629213732
 20
-287.0440868757875
 30
0.0
 10
177.6005707228454
 20
-289.947014264437
 30
0.0
 10
179.2540098758718
 20
-292.0975518983082
 30
0.0
 10
181.1160882694935
 20
-294.5194551509107
 30
0.0
 10
183.2222638431315
 20
-296.3986271660495
 30
0.0
 10
185.2063908267639
 20
-298.5491647999207
 30
0.0
 10
187.3553724868374
 20
-300.878383631485
 30
0.0
 10
189.1746447940262
 20
-303.9255088845906
 30
0.0
 10
191.158771777665
 20
-306.6136809269203
 30
0.0
 10
191.158771777665
 20
-307.1513153353917
 30
0.0
 10
191.1587717776548
 20
-307.6889497438708
 30
0.0
 10
191.1587717776548
 20
-308.2265841523408
 30
0.0
 10
188.5132691328141
 20
-303.925508884597
 30
0.0
 10
185.8677664879721
 20
-299.6244336168531
 30
0.0
 10
183.2222638431315
 20
-295.3233583491145
 30
0.0
 10
182.3791719925512
 20
-293.9526541791367
 30
0.0
 10
181.2381368595003
 20
-293.1728207152419
 30
0.0
 10
180.2460733676873
 20
-292.0975518983082
 30
0.0
 10
183.222263843134
 20
-295.860992757573
 30
0.0
 10
186.1984543185808
 20
-299.6244336168531
 30
0.0
 10
189.1746447940275
 20
-303.3878744761244
 30
0.0
 10
186.8598299798031
 20
-299.6244336168314
 30
0.0
 10
184.5450151655582
 20
-295.860992757573
 30
0.0
 10
182.2302003513287
 20
-292.0975518982877
 30
0.0
 10
181.7073369817249
 20
-291.2474772586684
 30
0.0
 10
180.9074490288789
 20
-291.022283081431
 30
0.0
 10
180.2460733676334
 20
-290.4846486730841
 30
0.0
 10
180.5767611982382
 20
-290.4846486752582
 30
0.0
 10
185.8677664879721
 20
-293.7104551247978
 30
0.0
 10
186.1984543185782
 20
-293.7104551269719
 30
0.0
 10
186.1984543185782
 20
-294.2480895354406
 30
0.0
 10
186.1984543185782
 20
-294.785723940647
 30
0.0
 10
186.1984543185782
 20
-295.3233583491145
 30
0.0
 10
186.1984543185782
 20
-295.8609927575807
 30
0.0
 10
186.1984543185782
 20
-296.3986271660482
 30
0.0
 10
186.1984543185782
 20
-296.9362615745144
 30
0.0
 10
186.5291421492587
 20
-297.4738959828625
 30
0.0
 10
186.8598299798275
 20
-298.0115303913929
 30
0.0
 10
187.1905178105131
 20
-298.5491647997334
 30
0.0
 10
188.2362445499735
 20
-300.2493140785663
 30
0.0
 10
189.8360204552396
 20
-300.6997024337753
 30
0.0
 10
191.1587717776689
 20
-301.7749712506808
 30
0.0
 10
192.378288239977
 20
-302.7663201167854
 30
0.0
 10
193.8042744224967
 20
-302.8502400676402
 30
0.0
 10
195.1270257449273
 20
-303.3878744760602
 30
0.0
 10
198.4300113147359
 20
-304.730378288182
 30
0.0
 10
201.0794066958079
 20
-308.7642185608032
 30
0.0
 10
204.0555971712533
 20
-311.4523906031393
 30
0.0
 10
206.3133308289297
 20
-313.4916339068465
 30
0.0
 10
208.0238511385131
 20
-316.8287346878258
 30
0.0
 10
210.0079781221365
 20
-319.5169067301698
 30
0.0
 10
212.6234947091683
 20
-323.0605098480938
 30
0.0
 10
215.9603590730376
 20
-324.8932508148357
 30
0.0
 10
218.9365495484844
 20
-327.5814228571642
 30
0.0
 10
219.2256227217318
 20
-327.8425212071944
 30
0.0
 10
219.5979252096926
 20
-327.5814228571783
 30
0.0
 10
219.9286130402986
 20
-327.5814228571783
 30
0.0
 10
217.2831103954618
 20
-323.2803475894281
 30
0.0
 10
214.6376077506173
 20
-318.979272321692
 30
0.0
 10
211.9921051057831
 20
-314.6781970539379
 30
0.0
 10
211.0000416139675
 20
-313.0652938285316
 30
0.0
 10
210.0079781221532
 20
-311.4523906031368
 30
0.0
 10
209.0159146303492
 20
-309.8394873777112
 30
0.0
 10
209.3466024609719
 20
-310.3771217861466
 30
0.0
 10
209.6772902915484
 20
-310.9147561946616
 30
0.0
 10
210.0079781221737
 20
-311.4523906030983
 30
0.0
 10
213.6455442588313
 20
-311.4523906030726
 30
0.0
 10
217.2831103954554
 20
-311.4523906031304
 30
0.0
 10
220.9206765321129
 20
-311.4523906031098
 30
0.0
 10
222.574115685138
 20
-313.6029282369785
 30
0.0
 10
224.2275548381657
 20
-315.7534658708883
 30
0.0
 10
225.8809939911908
 20
-317.9040035047609
 30
0.0
 10
225.8809939913448
 20
-317.3663690962908
 30
0.0
 10
225.8809939912639
 20
-316.8287346878233
 30
0.0
 10
225.8809939914192
 20
-316.2911002793545
 30
0.0
 10
224.5582426689771
 20
-313.6029282370466
 30
0.0
 10
223.2354913463347
 20
-310.9147561946937
 30
0.0
 10
221.9127400238926
 20
-308.2265841523819
 30
0.0
 10
224.2275548381285
 20
-310.9147561947194
 30
0.0
 10
226.542369652399
 20
-313.6029282370132
 30
0.0
 10
228.8571844666324
 20
-316.2911002793596
 30
0.0
 10
230.7976327168076
 20
-318.5445240537574
 30
0.0
 10
232.8254384339036
 20
-320.5921755470803
 30
0.0
 10
234.8095654175463
 20
-322.7427131809157
 30
0.0
 10
233.8175019257346
 20
-320.054541138577
 30
0.0
 10
232.8254384338946
 20
-317.3663690962908
 30
0.0
 10
231.8333749420804
 20
-314.6781970539507
 30
0.0
 10
233.8175019257205
 20
-316.2911002793224
 30
0.0
 10
235.8016289093465
 20
-317.9040035047416
 30
0.0
 10
237.7857558929879
 20
-319.5169067301133
 30
0.0
 10
237.4550680623844
 20
-318.9792723216445
 30
0.0
 10
237.1243802317617
 20
-318.4416379132271
 30
0.0
 10
236.7936924011569
 20
-317.9040035047609
 30
0.0
 10
238.7778193847996
 20
-319.5169067301197
 30
0.0
 10
240.7619463684244
 20
-321.1298099555427
 30
0.0
 10
242.746073352067
 20
-322.7427131809003
 30
0.0
 10
244.2249542892091
 20
-323.9449002652426
 30
0.0
 10
245.3915759968833
 20
-325.9685196317835
 30
0.0
 10
246.714327319296
 20
-327.5814228572078
 30
0.0
 10
248.1389740933018
 20
-329.3185727945808
 30
0.0
 10
250.0212056253577
 20
-329.7319604910534
 30
0.0
 10
251.6746447783802
 20
-330.8072293079936
 30
0.0
 10
250.0212056253654
 20
-328.119057265642
 30
0.0
 10
248.367766472339
 20
-325.4308852233019
 30
0.0
 10
246.7143273193203
 20
-322.7427131809542
 30
0.0
 10
248.6984543029489
 20
-324.3556164063631
 30
0.0
 10
250.6825812865698
 20
-325.9685196317784
 30
0.0
 10
252.6667082701984
 20
-327.5814228571873
 30
0.0
 10
253.0849989658804
 20
-327.9214527130332
 30
0.0
 10
253.328083931449
 20
-328.6566916740492
 30
0.0
 10
253.658771762132
 20
-329.1943260823934
 30
0.0
 10
255.5439824517491
 20
-332.2593137827891
 30
0.0
 10
258.2884013904832
 20
-333.4954013503221
 30
0.0
 10
260.6032162047179
 20
-335.6459389842062
 30
0.0
 10
261.5111612745699
 20
-336.4894492426556
 30
0.0
 10
262.5873431883464
 20
-336.7212078011565
 30
0.0
 10
263.5794066801504
 20
-337.2588422096779
 30
0.0
 10
264.5714701719531
 20
-337.7964766182006
 30
0.0
 10
265.5635336638008
 20
-338.3341110265321
 30
0.0
 10
266.5555971556164
 20
-338.871745434988
 30
0.0
 10
266.5555971557704
 20
-338.3341110265244
 30
0.0
 10
266.5555971556896
 20
-337.7964766180672
 30
0.0
 10
266.5555971558435
 20
-337.2588422095984
 30
0.0
 10
265.2328458334284
 20
-335.6459389841882
 30
0.0
 10
263.9100945107757
 20
-334.033035758787
 30
0.0
 10
262.587343188358
 20
-332.4201325333742
 30
0.0
 10
264.5714701719827
 20
-334.0330357588049
 30
0.0
 10
266.5555971556113
 20
-335.6459389842075
 30
0.0
 10
268.5397241392296
 20
-337.2588422096369
 30
0.0
 10
268.5397241393836
 20
-337.7964766181057
 30
0.0
 10
268.5397241393194
 20
-338.3341110265321
 30
0.0
 10
268.5397241394734
 20
-338.8717454349957
 30
0.0
 10
268.8704119700756
 20
-338.8717454366334
 30
0.0
 10
269.2010998004532
 20
-338.8717454358132
 30
0.0
 10
269.531787631058
 20
-338.8717454374445
 30
0.0
 10
271.5159146146852
 20
-341.0222830713247
 30
0.0
 10
273.5000415983189
 20
-343.172820702746
 30
0.0
 10
275.484168581945
 20
-345.3233583366224
 30
0.0
 10
274.8227929207945
 20
-344.2480895195962
 30
0.0
 10
274.1614172595606
 20
-343.1728207026947
 30
0.0
 10
273.5000415984075
 20
-342.097551885666
 30
0.0
 10
276.1455442432546
 20
-344.2480895195141
 30
0.0
 10
278.7910468880041
 20
-346.3986271535381
 30
0.0
 10
281.4365495328499
 20
-348.5491647873876
 30
0.0
 10
283.5694219525061
 20
-350.2829836575416
 30
0.0
 10
285.404803500102
 20
-352.8502400551603
 30
0.0
 10
287.3889304837331
 20
-355.0007776890296
 30
0.0
 10
284.7434278389014
 20
-351.2373368297468
 30
0.0
 10
282.0979251940544
 20
-347.4738959704757
 30
0.0
 10
279.452422549224
 20
-343.7104551111904
 30
0.0
 10
279.452422549224
 20
-343.1728207027228
 30
0.0
 10
279.4524225492124
 20
-342.6351862942734
 30
0.0
 10
279.4524225492124
 20
-342.0975518858084
 30
0.0
 10
277.7989833962091
 20
-339.4093798434299
 30
0.0
 10
276.1455442431712
 20
-336.7212078011129
 30
0.0
 10
274.4921050901692
 20
-334.0330357587344
 30
0.0
 10
272.336284189549
 20
-330.5280882298779
 30
0.0
 10
269.8624754616691
 20
-327.5814228571642
 30
0.0
 10
267.5476606474448
 20
-324.3556164063413
 30
0.0
 10
266.0836432125577
 20
-322.3154372712402
 30
0.0
 10
265.5635336638008
 20
-318.9792723216933
 30
0.0
 10
264.5714701719839
 20
-316.2911002793545
 30
0.0
 10
263.2426539332009
 20
-312.6904369226515
 30
0.0
 10
260.6032162047281
 20
-310.9147561946718
 30
0.0
 10
258.6190892211034
 20
-308.2265841523164
 30
0.0
 10
259.2804648823116
 20
-308.2265841523164
 30
0.0
 10
259.9418405435134
 20
-308.2265841523408
 30
0.0
 10
260.603216204723
 20
-308.2265841523408
 30
0.0
 10
263.1216596914826
 20
-308.2265841523408
 30
0.0
 10
265.2328458331896
 20
-311.4523906031573
 30
0.0
 10
267.5476606474217
 20
-313.0652938285778
 30
0.0
 10
267.5476606474217
 20
-309.3018529693015
 30
0.0
 10
267.5476606474294
 20
-305.5384121099995
 30
0.0
 10
267.5476606474294
 20
-301.7749712507257
 30
0.0
 10
267.2169728168233
 20
-301.7749712534439
 30
0.0
 10
266.8862849862173
 20
-301.7749712520848
 30
0.0
 10
266.5555971556113
 20
-301.7749712548018
 30
0.0
 10
266.224909325027
 20
-301.2373368463061
 30
0.0
 10
265.894221494412
 20
-300.6997024337753
 30
0.0
 10
265.5635336638277
 20
-300.1620680252732
 30
0.0
 10
264.0662808306075
 20
-297.7278247090279
 30
0.0
 10
262.2566553577532
 20
-295.8609927575679
 30
0.0
 10
260.6032162047384
 20
-293.7104551236786
 30
0.0
 10
260.2380325868571
 20
-293.235480818094
 30
0.0
 10
259.9418405434826
 20
-292.6351863068219
 30
0.0
 10
259.6111527128188
 20
-292.0975518984469
 30
0.0
 10
262.5873431882642
 20
-295.3233583492595
 30
0.0
 10
265.5635336638008
 20
-298.5491647999207
 30
0.0
 10
268.5397241392398
 20
-301.7749712507373
 30
0.0
 10
268.9288434548915
 20
-302.1967263799658
 30
0.0
 10
269.2010998004147
 20
-302.8502400677249
 30
0.0
 10
269.531787630945
 20
-303.3878744763181
 30
0.0
 10
268.2090363085388
 20
-301.2373368424199
 30
0.0
 10
266.8862849862276
 20
-299.0867992083793
 30
0.0
 10
265.5635336638188
 20
-296.9362615744823
 30
0.0
 10
265.5635336638188
 20
-296.3986271660148
 30
0.0
 10
265.5635336638008
 20
-295.8609927575807
 30
0.0
 10
265.5635336638008
 20
-295.3233583491145
 30
0.0
 10
265.232845833155
 20
-294.785723940706
 30
0.0
 10
264.9021580025707
 20
-294.2480895322116
 30
0.0
 10
264.5714701719275
 20
-293.710455123807
 30
0.0
 10
264.2407823413201
 20
-293.7104551248889
 30
0.0
 10
263.9100945107731
 20
-293.7104551242523
 30
0.0
 10
263.5794066801671
 20
-293.710455125347
 30
0.0
 10
261.5952796965334
 20
-290.484648674546
 30
0.0
 10
259.6111527129023
 20
-287.2588422220995
 30
0.0
 10
257.6270257292711
 20
-284.0330357713035
 30
0.0
 10
256.634962237453
 20
-282.420132545901
 30
0.0
 10
255.6428987456554
 20
-280.8072293204715
 30
0.0
 10
254.6508352538603
 20
-279.194326095037
 30
0.0
 10
255.6428987456644
 20
-279.7319605035559
 30
0.0
 10
256.6349622374568
 20
-280.2695949120439
 30
0.0
 10
257.6270257292596
 20
-280.8072293205627
 30
0.0
 10
256.6349622374581
 20
-279.731960503593
 30
0.0
 10
255.6428987456528
 20
-278.6566916865964
 30
0.0
 10
254.6508352538526
 20
-277.5814228696268
 30
0.0
 10
252.8890226199167
 20
-275.6718453050111
 30
0.0
 10
251.3439569477819
 20
-273.2803476019305
 30
0.0
 10
249.6905177947658
 20
-271.1298099680451
 30
0.0
 10
249.6905177947658
 20
-270.592175559575
 30
0.0
 10
249.6905177947542
 20
-270.0545411511332
 30
0.0
 10
249.6905177947542
 20
-269.5169067426657
 30
0.0
 10
248.0370786417484
 20
-266.8287347002974
 30
0.0
 10
246.3836394887143
 20
-264.1405626579728
 30
0.0
 10
244.7302003357098
 20
-261.4523906155994
 30
0.0
 10
244.3995125051076
 20
-260.9147562071281
 30
0.0
 10
244.0688246744296
 20
-260.3771217987774
 30
0.0
 10
243.7381368437479
 20
-259.8394873904343
 30
0.0
 10
245.7222638273739
 20
-260.9147562073937
 30
0.0
 10
247.7063908111205
 20
-261.9900250241259
 30
0.0
 10
249.6905177947465
 20
-263.065293841084
 30
0.0
 10
248.3677664723095
 20
-260.9147562072436
 30
0.0
 10
247.0450151499046
 20
-258.7642185733209
 30
0.0
 10
245.722263827465
 20
-256.6136809394843
 30
0.0
 10
246.0529516580736
 20
-256.6136809367623
 30
0.0
 10
246.383639488704
 20
-256.613680938079
 30
0.0
 10
246.7143273193088
 20
-256.6136809353633
 30
0.0
 10
247.0450151499161
 20
-256.6136809326489
 30
0.0
 10
247.3757029805196
 20
-256.6136809402518
 30
0.0
 10
247.7063908111231
 20
-256.6136809418843
 30
0.0
 10
247.7063908111231
 20
-257.1513153503544
 30
0.0
 10
247.7063908111231
 20
-257.6889497563693
 30
0.0
 10
247.7063908111231
 20
-258.2265841648406
 30
0.0
 10
248.3677664723018
 20
-258.7642185734108
 30
0.0
 10
249.0291421335306
 20
-259.3018529818269
 30
0.0
 10
249.6905177947106
 20
-259.8394873903945
 30
0.0
 10
251.8233902142576
 20
-261.5733062608899
 30
0.0
 10
253.6587717620204
 20
-264.1405626579741
 30
0.0
 10
255.6428987456644
 20
-266.2911002918158
 30
0.0
 10
255.9735865762678
 20
-266.2911002923613
 30
0.0
 10
256.3042744068546
 20
-266.291100292129
 30
0.0
 10
256.6349622374619
 20
-266.2911002926731
 30
0.0
 10
256.9656500681065
 20
-266.8287347010739
 30
0.0
 10
257.2963378986882
 20
-267.3663691087585
 30
0.0
 10
257.6270257293327
 20
-267.9040035171682
 30
0.0
 10
257.9577135599388
 20
-267.9040035133604
 30
0.0
 10
258.2884013904883
 20
-267.9040035153548
 30
0.0
 10
258.6190892210918
 20
-267.9040035115508
 30
0.0
 10
259.3585296896583
 20
-267.9040035030406
 30
0.0
 10
259.941840543516
 20
-268.979272334188
 30
0.0
 10
260.603216204732
 20
-269.5169067426323
 30
0.0
 10
261.0215069004217
 20
-269.8569365984654
 30
0.0
 10
261.2645918659222
 20
-270.5921755596136
 30
0.0
 10
261.595279696509
 20
-271.1298099681144
 30
0.0
 10
262.6410064356589
 20
-272.8299592474453
 30
0.0
 10
264.2407823413869
 20
-273.2803476019164
 30
0.0
 10
265.5635336638226
 20
-274.3556164188
 30
0.0
 10
264.9021580026349
 20
-272.742713193368
 30
0.0
 10
264.2407823413882
 20
-271.1298099680528
 30
0.0
 10
263.579406680203
 20
-269.5169067426247
 30
0.0
 10
265.563533663847
 20
-271.1298099679873
 30
0.0
 10
267.5476606474358
 20
-272.7427131934527
 30
0.0
 10
269.5317876310785
 20
-274.3556164188129
 30
0.0
 10
268.2090363086749
 20
-272.2050787849108
 30
0.0
 10
266.8862849862276
 20
-270.0545411511152
 30
0.0
 10
265.5635336638265
 20
-267.9040035172119
 30
0.0
 10
266.5555971556344
 20
-268.441637925714
 30
0.0
 10
267.5476606474281
 20
-268.979272334211
 30
0.0
 10
268.5397241392373
 20
-269.516906742708
 30
0.0
 10
268.8534421609962
 20
-269.6869216706419
 30
0.0
 10
269.2010998004532
 20
-269.5169067421241
 30
0.0
 10
269.531787631058
 20
-269.5169067410307
 30
0.0
 10
268.5397241392
 20
-268.4416379242035
 30
0.0
 10
267.5476606474063
 20
-267.3663691088458
 30
0.0
 10
266.5555971555471
 20
-266.2911002920147
 30
0.0
 10
264.4066154953812
 20
-263.9618814606739
 30
0.0
 10
262.587343188358
 20
-260.9147562071652
 30
0.0
 10
260.6032162047384
 20
-258.2265841648034
 30
0.0
 10
257.9027187786542
 20
-254.5678457165153
 30
0.0
 10
255.3122109150468
 20
-250.6997024462803
 30
0.0
 10
252.6667082702202
 20
-246.9362615869873
 30
0.0
 10
254.6508352538526
 20
-248.0115304039274
 30
0.0
 10
256.6349622374619
 20
-249.0867992208919
 30
0.0
 10
258.6190892210918
 20
-250.1620680378282
 30
0.0
 10
260.0220788659552
 20
-250.9223979098814
 30
0.0
 10
261.2645918659235
 20
-252.3126056717238
 30
0.0
 10
262.5873431883259
 20
-253.3878744887255
 30
0.0
 10
264.720215607946
 20
-255.1216933589976
 30
0.0
 10
266.5555971556164
 20
-257.688949756368
 30
0.0
 10
268.5397241392514
 20
-259.839487390229
 30
0.0
 10
270.1441041786596
 20
-261.5784283361539
 30
0.0
 10
271.8466024453016
 20
-263.0652938410352
 30
0.0
 10
273.500041598337
 20
-264.6781970664121
 30
0.0
 10
274.1341065691195
 20
-265.2967172185412
 30
0.0
 10
274.8227929207418
 20
-265.7534658833881
 30
0.0
 10
275.4841685819501
 20
-266.2911002918582
 30
0.0
 10
275.1534807512696
 20
-265.7534658835177
 30
0.0
 10
274.8227929207008
 20
-265.2158314749873
 30
0.0
 10
274.492105090019
 20
-264.6781970666444
 30
0.0
 10
273.5000415979724
 20
-263.0652938416166
 30
0.0
 10
272.5079781064957
 20
-261.4523906156661
 30
0.0
 10
271.5159146146609
 20
-259.8394873902944
 30
0.0
 10
273.1693537676834
 20
-261.9900250241734
 30
0.0
 10
274.822792920738
 20
-264.1405626579908
 30
0.0
 10
276.4762320737618
 20
-266.291100291871
 30
0.0
 10
274.1614172595195
 20
-263.0652938410738
 30
0.0
 10
271.8466024452939
 20
-259.8394873902533
 30
0.0
 10
269.5317876310503
 20
-256.6136809394535
 30
0.0
 10
269.2010998004442
 20
-256.613680937282
 30
0.0
 10
268.8704119698497
 20
-256.6136809383524
 30
0.0
 10
268.539724139245
 20
-256.6136809361744
 30
0.0
 10
270.5238511228851
 20
-258.2265841615474
 30
0.0
 10
272.5079781065098
 20
-259.839487390229
 30
0.0
 10
274.4921050901538
 20
-261.4523906155994
 30
0.0
 10
275.8148564125805
 20
-262.52765943251
 30
0.0
 10
277.1376077349893
 20
-263.6029282494758
 30
0.0
 10
278.4603590574366
 20
-264.6781970663171
 30
0.0
 10
278.7910468880658
 20
-265.7534658832354
 30
0.0
 10
279.1217347186205
 20
-266.8287347003129
 30
0.0
 10
279.452422549247
 20
-267.9040035172286
 30
0.0
 10
277.7989833962425
 20
-265.2158314748564
 30
0.0
 10
276.1455442431712
 20
-262.5276594325716
 30
0.0
 10
274.4921050901666
 20
-259.8394873901969
 30
0.0
 10
275.484168581995
 20
-260.3771217985912
 30
0.0
 10
276.4762320737747
 20
-260.9147562071421
 30
0.0
 10
277.4682955656031
 20
-261.4523906155378
 30
0.0
 10
277.4682955656031
 20
-261.9900250240053
 30
0.0
 10
277.46829556558
 20
-262.5276594325805
 30
0.0
 10
277.46829556558
 20
-263.0652938410494
 30
0.0
 10
278.7910468879926
 20
-263.6029282495695
 30
0.0
 10
280.1137982104155
 20
-264.1405626580126
 30
0.0
 10
281.4365495328294
 20
-264.6781970665301
 30
0.0
 10
282.8712747825903
 20
-265.2613434584246
 30
0.0
 10
284.0820521776855
 20
-266.8287347003205
 30
0.0
 10
285.4048035001071
 20
-267.9040035172466
 30
0.0
 10
282.759300855269
 20
-264.1405626579664
 30
0.0
 10
280.1137982104258
 20
-260.3771217987054
 30
0.0
 10
277.4682955655864
 20
-256.6136809394304
 30
0.0
 10
278.7910468880067
 20
-257.1513153478979
 30
0.0
 10
280.1137982104207
 20
-257.6889497563693
 30
0.0
 10
281.436549532841
 20
-258.2265841648406
 30
0.0
 10
280.7751738715917
 20
-257.1513153479672
 30
0.0
 10
280.1137982104026
 20
-256.0760465310001
 30
0.0
 10
279.4524225491547
 20
-255.000777714128
 30
0.0
 10
280.7751738715673
 20
-255.538412122652
 30
0.0
 10
282.0979251940492
 20
-256.076046530995
 30
0.0
 10
283.4206765164631
 20
-256.6136809395151
 30
0.0
 10
283.7414908352134
 20
-256.744076436836
 30
0.0
 10
284.0820521776816
 20
-256.6136809386232
 30
0.0
 10
284.4127400082864
 20
-256.6136809369894
 30
0.0
 10
282.7593008552613
 20
-253.9255088946519
 30
0.0
 10
281.1058617022388
 20
-251.237336854758
 30
0.0
 10
279.4524225492124
 20
-248.5491648124193
 30
0.0
 10
276.6367171322695
 20
-243.9713727797138
 30
0.0
 10
274.1614172595272
 20
-238.8717454600031
 30
0.0
 10
271.5159146146814
 20
-234.0330357838059
 30
0.0
 10
272.8386659370748
 20
-235.6459390092635
 30
0.0
 10
274.161417259517
 20
-237.2588422346237
 30
0.0
 10
275.4841685819104
 20
-238.871745460089
 30
0.0
 10
275.4841685817563
 20
-239.4093798685578
 30
0.0
 10
275.4841685818744
 20
-239.9470142769406
 30
0.0
 10
275.4841685817191
 20
-240.4846486854055
 30
0.0
 10
275.8148564123264
 20
-240.4846486826886
 30
0.0
 10
276.1455442431609
 20
-240.4846486840477
 30
0.0
 10
276.4762320737682
 20
-240.4846486813321
 30
0.0
 10
275.1534807513466
 20
-238.3341110474621
 30
0.0
 10
273.8307294289237
 20
-236.183573417663
 30
0.0
 10
272.5079781065047
 20
-234.0330357837931
 30
0.0
 10
273.5000415983126
 20
-234.5706701922888
 30
0.0
 10
274.4921050901332
 20
-235.1083046007396
 30
0.0
 10
275.4841685819411
 20
-235.6459390092366
 30
0.0
 10
275.9278328630757
 20
-235.8863764261264
 30
0.0
 10
276.1455442431815
 20
-236.7212078260997
 30
0.0
 10
276.4762320738247
 20
-237.2588422345095
 30
0.0
 10
276.8069199044282
 20
-237.2588422345095
 30
0.0
 10
277.1376077349765
 20
-237.2588422346006
 30
0.0
 10
277.46829556558
 20
-237.2588422346006
 30
0.0
 10
276.1455442431558
 20
-234.5706701922682
 30
0.0
 10
274.822792920738
 20
-231.8824981499282
 30
0.0
 10
273.5000415983126
 20
-229.1943261075933
 30
0.0
 10
274.822792920738
 20
-230.269594924518
 30
0.0
 10
276.1455442431647
 20
-231.3448637414479
 30
0.0
 10
277.4682955655864
 20
-232.4201325583713
 30
0.0
 10
276.8069199043666
 20
-231.3448637414543
 30
0.0
 10
276.1455442431558
 20
-230.2695949245244
 30
0.0
 10
275.484168581936
 20
-229.1943261076048
 30
0.0
 10
273.8307294288891
 20
-226.5061540653059
 30
0.0
 10
272.1772902758973
 20
-223.8179820229106
 30
0.0
 10
270.523851122871
 20
-221.1298099805783
 30
0.0
 10
268.5123555776342
 20
-217.8595075457582
 30
0.0
 10
267.2169728168233
 20
-213.6029282620192
 30
0.0
 10
265.5635336637931
 20
-209.8394874027557
 30
0.0
 10
265.894221494394
 20
-209.8394874027557
 30
0.0
 10
266.2249093250078
 20
-209.839487402748
 30
0.0
 10
266.5555971556113
 20
-209.839487402748
 30
0.0
 10
266.8862849860453
 20
-210.3771218114953
 30
0.0
 10
267.2169728167374
 20
-210.9147562198229
 30
0.0
 10
267.5476606471701
 20
-211.4523906285715
 30
0.0
 10
267.8783484775991
 20
-211.9900250373239
 30
0.0
 10
268.2090363086684
 20
-212.527659445038
 30
0.0
 10
268.5397241393284
 20
-213.0652938534118
 30
0.0
 10
269.5317876313198
 20
-214.6781970785345
 30
0.0
 10
270.5238511228851
 20
-216.29110030434
 30
0.0
 10
271.5159146147199
 20
-217.904003529713
 30
0.0
 10
273.52741015999
 20
-221.1743059644714
 30
0.0
 10
276.1455442431609
 20
-223.2803476144354
 30
0.0
 10
278.4603590574007
 20
-225.9685196567652
 30
0.0
 10
278.4603590574007
 20
-225.4308852482977
 30
0.0
 10
278.4603590573943
 20
-224.8932508398431
 30
0.0
 10
278.4603590573943
 20
-224.3556164313717
 30
0.0
 10
277.1376077349444
 20
-222.2050787975505
 30
0.0
 10
275.8148564125433
 20
-220.0545411636523
 30
0.0
 10
274.4921050900922
 20
-217.9040035298311
 30
0.0
 10
273.5000415982535
 20
-216.2911003044658
 30
0.0
 10
272.5079781064957
 20
-214.6781970789735
 30
0.0
 10
271.5159146146609
 20
-213.0652938536005
 30
0.0
 10
273.5000415982946
 20
-215.2158314874641
 30
0.0
 10
275.484168581954
 20
-217.3663691212891
 30
0.0
 10
277.4682955655864
 20
-219.5169067551501
 30
0.0
 10
278.1296712267985
 20
-219.5169067550308
 30
0.0
 10
278.7910468880016
 20
-219.5169067551014
 30
0.0
 10
279.4524225492124
 20
-219.5169067549743
 30
0.0
 10
278.7910468880311
 20
-218.4416379379944
 30
0.0
 10
278.1296712268049
 20
-217.3663691212724
 30
0.0
 10
277.4682955656249
 20
-216.2911003042913
 30
0.0
 10
278.1296712268049
 20
-217.3663691212724
 30
0.0
 10
278.7910468879875
 20
-218.4416379382536
 30
0.0
 10
279.4524225491688
 20
-219.5169067552323
 30
0.0
 10
279.4524225493241
 20
-220.0545411637023
 30
0.0
 10
279.4524225492881
 20
-220.5921755721031
 30
0.0
 10
279.4524225494447
 20
-221.129809980568
 30
0.0
 10
278.7910468882685
 20
-220.0545411635714
 30
0.0
 10
278.12967122681
 20
-218.9792723466672
 30
0.0
 10
277.4682955656377
 20
-217.9040035296706
 30
0.0
 10
277.4682955656377
 20
-217.3663691211993
 30
0.0
 10
277.46829556558
 20
-216.8287347128306
 30
0.0
 10
277.46829556558
 20
-216.2911003043593
 30
0.0
 10
277.46829556558
 20
-216.8287347128306
 30
0.0
 10
277.46829556558
 20
-217.366369121293
 30
0.0
 10
277.46829556558
 20
-217.904003529763
 30
0.0
 10
278.7910468879978
 20
-219.5169067551784
 30
0.0
 10
280.1137982104194
 20
-221.1298099805732
 30
0.0
 10
281.4365495328333
 20
-222.7427132059898
 30
0.0
 10
282.619654282533
 20
-224.185337707254
 30
0.0
 10
284.0820521776906
 20
-224.8932508398238
 30
0.0
 10
285.4048035001225
 20
-225.9685196567152
 30
0.0
 10
284.7434278388732
 20
-224.8932508398456
 30
0.0
 10
284.0820521776662
 20
-223.8179820229388
 30
0.0
 10
283.4206765164143
 20
-222.7427132060655
 30
0.0
 10
282.7593008551651
 20
-221.6674443891895
 30
0.0
 10
282.0979251940325
 20
-220.59217557213
 30
0.0
 10
281.4365495327858
 20
-219.5169067552554
 30
0.0
 10
280.4444860409138
 20
-217.9040035299479
 30
0.0
 10
279.4524225492316
 20
-216.2911003043259
 30
0.0
 10
278.4603590574546
 20
-214.6781970788605
 30
0.0
 10
278.4603590574546
 20
-214.1405626703943
 30
0.0
 10
278.4603590573943
 20
-213.6029282620192
 30
0.0
 10
278.4603590573943
 20
-213.065293853553
 30
0.0
 10
277.1376077349329
 20
-210.9147562197523
 30
0.0
 10
275.8148564125344
 20
-208.7642185858477
 30
0.0
 10
274.4921050900704
 20
-206.613680952047
 30
0.0
 10
276.4762320736951
 20
-208.2265841774739
 30
0.0
 10
278.4603590573943
 20
-209.8394874027647
 30
0.0
 10
280.4444860410151
 20
-211.452390628189
 30
0.0
 10
280.4444860410151
 20
-211.990025036663
 30
0.0
 10
280.444486041028
 20
-212.5276594450842
 30
0.0
 10
280.444486041028
 20
-213.065293853553
 30
0.0
 10
282.7593008552587
 20
-215.2158314874384
 30
0.0
 10
285.0741156694959
 20
-217.3663691212981
 30
0.0
 10
287.388930483728
 20
-219.5169067551809
 30
0.0
 10
289.7037452979588
 20
-221.6674443890637
 30
0.0
 10
292.0185601122088
 20
-223.8179820229042
 30
0.0
 10
294.3333749264421
 20
-225.9685196567755
 30
0.0
 10
296.8032525446882
 20
-228.2631156375934
 30
0.0
 10
298.9630045549139
 20
-231.3448637414543
 30
0.0
 10
301.2778193691524
 20
-234.0330357837802
 30
0.0
 10
301.6085071997597
 20
-234.0330357854178
 30
0.0
 10
301.9391950303529
 20
-234.0330357846093
 30
0.0
 10
302.2698828609616
 20
-234.0330357862405
 30
0.0
 10
302.6005706914688
 20
-234.5706701948658
 30
0.0
 10
302.9312585221236
 20
-235.1083046008089
 30
0.0
 10
303.2619463526334
 20
-235.6459390094304
 30
0.0
 10
304.3076730915471
 20
-237.3460882891553
 30
0.0
 10
305.9074489976268
 20
-237.7964766430424
 30
0.0
 10
307.2302003200587
 20
-238.8717454599248
 30
0.0
 10
307.5259765074881
 20
-239.1121828767953
 30
0.0
 10
307.8915759812477
 20
-238.8717454608142
 30
0.0
 10
308.2222638118511
 20
-238.8717454624467
 30
0.0
 10
308.552951642479
 20
-239.4093798708885
 30
0.0
 10
308.8836394730722
 20
-239.9470142769201
 30
0.0
 10
309.2143273037001
 20
-240.4846486853619
 30
0.0
 10
309.2143273038541
 20
-241.0222830938243
 30
0.0
 10
309.2143273037437
 20
-241.5599175023405
 30
0.0
 10
309.2143273039016
 20
-242.0975519108106
 30
0.0
 10
311.5291421181208
 20
-244.2480895447191
 30
0.0
 10
313.8439569321334
 20
-246.3986271785724
 30
0.0
 10
316.1587717463526
 20
-248.5491648124796
 30
0.0
 10
313.8439569321359
 20
-244.2480895447191
 30
0.0
 10
311.5291421179129
 20
-239.9470142769278
 30
0.0
 10
309.2143273036962
 20
-235.6459390091596
 30
0.0
 10
308.8836394730889
 20
-235.6459390118817
 30
0.0
 10
308.5529516424585
 20
-235.6459390105572
 30
0.0
 10
308.2222638118511
 20
-235.6459390132806
 30
0.0
 10
311.5291421179026
 20
-237.7964766471518
 30
0.0
 10
314.8360204239567
 20
-239.9470142769419
 30
0.0
 10
318.1428987300056
 20
-242.0975519108183
 30
0.0
 10
320.6183016378497
 20
-243.7073623179894
 30
0.0
 10
322.77252835848
 20
-246.3986271785467
 30
0.0
 10
325.0873431727159
 20
-248.5491648124103
 30
0.0
 10
328.3357062063761
 20
-251.5669988565769
 30
0.0
 10
330.378348462387
 20
-257.1513153479159
 30
0.0
 10
333.0238511072135
 20
-261.4523906156815
 30
0.0
 10
333.0238511073675
 20
-260.914756207214
 30
0.0
 10
333.0238511073148
 20
-260.3771217987144
 30
0.0
 10
333.023851107465
 20
-259.839487390247
 30
0.0
 10
336.0000415829091
 20
-263.0652938410622
 30
0.0
 10
338.9762320581223
 20
-266.2911002918646
 30
0.0
 10
341.952422533569
 20
-269.5169067426785
 30
0.0
 10
340.9603590417419
 20
-268.4416379257615
 30
0.0
 10
339.9682955499379
 20
-267.3663691088021
 30
0.0
 10
338.9762320581146
 20
-266.2911002918928
 30
0.0
 10
339.3069198887579
 20
-266.8287347002974
 30
0.0
 10
339.6376077193575
 20
-267.3663691087585
 30
0.0
 10
339.9682955499995
 20
-267.9040035171682
 30
0.0
 10
339.6376077193575
 20
-267.3663691087623
 30
0.0
 10
339.3069198887117
 20
-266.8287347003552
 30
0.0
 10
338.9762320580697
 20
-266.2911002919493
 30
0.0
 10
339.306919888677
 20
-266.291100289774
 30
0.0
 10
339.6376077193344
 20
-266.2911002907699
 30
0.0
 10
339.9682955499404
 20
-266.2911002885983
 30
0.0
 10
342.6343860745042
 20
-266.2911002710723
 30
0.0
 10
344.5979251784097
 20
-270.5921755596033
 30
0.0
 10
346.912739992643
 20
-272.7427131934861
 30
0.0
 10
347.1998574337482
 20
-273.0094545581267
 30
0.0
 10
347.574115653859
 20
-272.7427131940149
 30
0.0
 10
347.9048034844663
 20
-272.7427131950993
 30
0.0
 10
348.8968669762369
 20
-274.355616420575
 30
0.0
 10
349.8889304680731
 20
-275.9685196443116
 30
0.0
 10
350.8809939598424
 20
-277.5814228697885
 30
0.0
 10
351.2116817904497
 20
-277.5814228676132
 30
0.0
 10
351.5423696211174
 20
-277.5814228685911
 30
0.0
 10
351.873057451726
 20
-277.5814228664183
 30
0.0
 10
352.2037452823487
 20
-278.1190572748537
 30
0.0
 10
352.5344331129446
 20
-278.6566916865964
 30
0.0
 10
352.8651209435711
 20
-279.194326095037
 30
0.0
 10
353.9108476828391
 20
-280.8944753741728
 30
0.0
 10
355.5106235883797
 20
-281.3448637289493
 30
0.0
 10
356.8333749108052
 20
-282.4201325458728
 30
0.0
 10
356.5026870803223
 20
-281.344863728839
 30
0.0
 10
356.1719992496521
 20
-280.2695949119681
 30
0.0
 10
355.8413114191731
 20
-279.1943260949344
 30
0.0
 10
354.7748752097435
 20
-275.7266883542772
 30
0.0
 10
353.1958087741348
 20
-272.7427131934809
 30
0.0
 10
351.8730574516914
 20
-269.5169067427004
 30
0.0
 10
352.2037452822743
 20
-270.0545411511987
 30
0.0
 10
352.5344331129227
 20
-270.5921755596136
 30
0.0
 10
352.8651209435108
 20
-271.1298099681144
 30
0.0
 10
353.5264966046818
 20
-272.20507878512
 30
0.0
 10
354.1878722659574
 20
-273.2803476019369
 30
0.0
 10
354.8492479271702
 20
-274.3556164188732
 30
0.0
 10
353.5264966047517
 20
-272.2050787850032
 30
0.0
 10
352.2037452823308
 20
-270.0545411511281
 30
0.0
 10
350.8809939599117
 20
-267.9040035172594
 30
0.0
 10
351.8730574517324
 20
-268.4416379256986
 30
0.0
 10
352.8651209435429
 20
-268.9792723341828
 30
0.0
 10
353.8571844353617
 20
-269.5169067426157
 30
0.0
 10
356.3864599871275
 20
-270.8876109125113
 30
0.0
 10
358.4868140638264
 20
-273.8179820104018
 30
0.0
 10
360.8016288780674
 20
-275.968519644259
 30
0.0
 10
362.4757968653345
 20
-277.523875709835
 30
0.0
 10
364.1085071841202
 20
-279.1943260950562
 30
0.0
 10
365.7619463371659
 20
-280.8072293204138
 30
0.0
 10
364.7698828453432
 20
-279.7319605034968
 30
0.0
 10
363.7778193535065
 20
-278.6566916866234
 30
0.0
 10
362.7857558616806
 20
-277.5814228697051
 30
0.0
 10
362.7857558616806
 20
-277.0437884612363
 30
0.0
 10
362.7857558616947
 20
-276.5061540527457
 30
0.0
 10
362.7857558616947
 20
-275.9685196442757
 30
0.0
 10
361.7936923698548
 20
-274.3556164189052
 30
0.0
 10
360.8016288780534
 20
-272.7427131934861
 30
0.0
 10
359.8095653862166
 20
-271.1298099681144
 30
0.0
 10
358.1233816850201
 20
-268.3884016282154
 30
0.0
 10
357.1640627414112
 20
-264.6781970664505
 30
0.0
 10
355.8413114189999
 20
-261.4523906156353
 30
0.0
 10
358.4868140638437
 20
-263.6029282494899
 30
0.0
 10
361.1323167086703
 20
-265.7534658833804
 30
0.0
 10
363.7778193535135
 20
-267.9040035172363
 30
0.0
 10
364.4391950147262
 20
-268.4416379256999
 30
0.0
 10
365.1005706759319
 20
-268.979272334188
 30
0.0
 10
365.7619463371485
 20
-269.5169067426323
 30
0.0
 10
367.2408272742924
 20
-270.7190938269644
 30
0.0
 10
368.4074489819924
 20
-272.742713193445
 30
0.0
 10
369.730200304432
 20
-274.3556164188026
 30
0.0
 10
368.076761151414
 20
-272.2050787849185
 30
0.0
 10
366.4233219983503
 20
-270.0545411511268
 30
0.0
 10
364.7698828453329
 20
-267.9040035172363
 30
0.0
 10
367.4153854901659
 20
-270.5921755596033
 30
0.0
 10
370.0608881349995
 20
-273.280347601951
 30
0.0
 10
372.7063907798325
 20
-275.968519644318
 30
0.0
 10
375.3518934246623
 20
-278.6566916866799
 30
0.0
 10
377.9973960695202
 20
-281.3448637289686
 30
0.0
 10
380.6428987143532
 20
-284.0330357713318
 30
0.0
 10
380.6428987143532
 20
-284.5706701798005
 30
0.0
 10
380.6428987143673
 20
-285.1083045882269
 30
0.0
 10
380.6428987143673
 20
-285.6459389966957
 30
0.0
 10
384.6111526816328
 20
-289.4093798559579
 30
0.0
 10
388.5794066488919
 20
-293.1728207152343
 30
0.0
 10
392.5476606161606
 20
-296.9362615744964
 30
0.0
 10
393.9758664704609
 20
-298.2907535782504
 30
0.0
 10
395.1931632609904
 20
-300.1620680253258
 30
0.0
 10
396.5159145834087
 20
-301.7749712507257
 30
0.0
 10
397.1772902446215
 20
-301.7749712507257
 30
0.0
 10
397.838665905831
 20
-301.7749712507257
 30
0.0
 10
398.5000415670399
 20
-301.7749712507257
 30
0.0
 10
397.8386659058625
 20
-300.6997024337471
 30
0.0
 10
397.1772902446356
 20
-299.6244336168314
 30
0.0
 10
396.5159145834511
 20
-298.5491647998501
 30
0.0
 10
396.1852267528624
 20
-298.0115303913595
 30
0.0
 10
395.8545389222384
 20
-297.4738959829228
 30
0.0
 10
395.52385109171
 20
-296.9362615743335
 30
0.0
 10
393.6975678556151
 20
-293.9670785052566
 30
0.0
 10
391.5555971243348
 20
-291.5599174898394
 30
0.0
 10
389.5714701407074
 20
-288.8717454475007
 30
0.0
 10
388.301262998832
 20
-287.1508196423842
 30
0.0
 10
387.5873431570905
 20
-284.5706701797402
 30
0.0
 10
386.5952796653031
 20
-282.4201325458343
 30
0.0
 10
385.8798925076724
 20
-280.8693578040634
 30
0.0
 10
384.6111526816187
 20
-280.2695949120362
 30
0.0
 10
383.6190891897961
 20
-279.1943260951268
 30
0.0
 10
382.4517312428225
 20
-277.92906070749
 30
0.0
 10
381.6349622061585
 20
-275.9685196443193
 30
0.0
 10
380.6428987142936
 20
-274.3556164189964
 30
0.0
 10
379.6508352224286
 20
-272.742713193676
 30
0.0
 10
378.6587717307118
 20
-271.129809968108
 30
0.0
 10
377.6667082388468
 20
-269.5169067427902
 30
0.0
 10
375.5108873380847
 20
-266.0119592141609
 30
0.0
 10
373.0370786104424
 20
-263.0652938410648
 30
0.0
 10
370.7222637961911
 20
-259.8394873902855
 30
0.0
 10
370.367187412549
 20
-259.344671268577
 30
0.0
 10
370.0608881350136
 20
-258.764218573294
 30
0.0
 10
369.7302003044249
 20
-258.2265841647957
 30
0.0
 10
371.7143272880593
 20
-259.8394873901969
 30
0.0
 10
373.6984542716583
 20
-261.4523906156481
 30
0.0
 10
375.6825812552894
 20
-263.0652938410494
 30
0.0
 10
377.0053325777117
 20
-264.1405626579805
 30
0.0
 10
378.3280839001301
 20
-265.2158314749206
 30
0.0
 10
379.6508352225486
 20
-266.2911002918582
 30
0.0
 10
379.9466114099754
 20
-266.5315377087338
 30
0.0
 10
380.3122108837613
 20
-266.2911002899536
 30
0.0
 10
380.6428987143673
 20
-266.2911002861483
 30
0.0
 10
379.9815230532425
 20
-265.2158314690709
 30
0.0
 10
379.3201473919881
 20
-264.140562657915
 30
0.0
 10
378.6587717308671
 20
-263.0652938408389
 30
0.0
 10
376.5029508304933
 20
-259.5603463115755
 30
0.0
 10
374.6905177634778
 20
-255.5384121225031
 30
0.0
 10
372.7063907798466
 20
-251.7749712632242
 30
0.0
 10
371.7933372219254
 20
-250.0431148372305
 30
0.0
 10
370.7222637962052
 20
-248.5491648124385
 30
0.0
 10
369.7302003043685
 20
-246.9362615870668
 30
0.0
 10
369.3995124737585
 20
-246.3986271786109
 30
0.0
 10
369.0688246432084
 20
-245.8609927700548
 30
0.0
 10
368.7381368126408
 20
-245.3233583615232
 30
0.0
 10
368.0767611515057
 20
-244.248089544465
 30
0.0
 10
367.4153854901447
 20
-243.172820727779
 30
0.0
 10
366.7540098288967
 20
-242.0975519109004
 30
0.0
 10
367.4153854901165
 20
-242.6351863193512
 30
0.0
 10
368.0767611513754
 20
-243.1728207277315
 30
0.0
 10
368.7381368125952
 20
-243.7104551361797
 30
0.0
 10
368.076761151326
 20
-242.6351863193384
 30
0.0
 10
367.4153854901344
 20
-241.5599175023906
 30
0.0
 10
366.7540098288684
 20
-240.4846486855506
 30
0.0
 10
365.7619463369618
 20
-238.8717454602893
 30
0.0
 10
364.76988284534
 20
-237.2588422345736
 30
0.0
 10
363.7778193535559
 20
-235.6459390091185
 30
0.0
 10
362.4550680311798
 20
-233.4954013751779
 30
0.0
 10
361.1323167086703
 20
-231.3448637414543
 30
0.0
 10
359.809565386248
 20
-229.194326107583
 30
0.0
 10
361.7936923698792
 20
-230.8072293329829
 30
0.0
 10
363.7778193535065
 20
-232.4201325583905
 30
0.0
 10
365.7619463371376
 20
-234.0330357837931
 30
0.0
 10
366.1802370328248
 20
-234.3730656396377
 30
0.0
 10
366.4233219984139
 20
-235.1083046006189
 30
0.0
 10
366.7540098291579
 20
-235.645939008867
 30
0.0
 10
366.0926341680087
 20
-234.570670191837
 30
0.0
 10
365.4312585065598
 20
-233.4954013752806
 30
0.0
 10
364.7698828454068
 20
-232.4201325582519
 30
0.0
 10
364.7698828454068
 20
-231.8824981497819
 30
0.0
 10
364.7698828453221
 20
-231.3448637414556
 30
0.0
 10
364.7698828453221
 20
-230.8072293329894
 30
0.0
 10
364.439195014716
 20
-230.8072293367972
 30
0.0
 10
364.1085071841131
 20
-230.8072293348901
 30
0.0
 10
363.7778193535065
 20
-230.8072293386966
 30
0.0
 10
362.1243802004749
 20
-228.1190572963694
 30
0.0
 10
360.4709410474537
 20
-225.4308852483182
 30
0.0
 10
358.8175018944183
 20
-222.7427132059898
 30
0.0
 10
359.4788775556311
 20
-222.7427132059898
 30
0.0
 10
360.1402532168509
 20
-222.7427132059705
 30
0.0
 10
360.8016288780604
 20
-222.7427132059705
 30
0.0
 10
360.8016288780604
 20
-223.2803476144418
 30
0.0
 10
360.8016288780604
 20
-223.8179820229042
 30
0.0
 10
360.8016288780604
 20
-224.3556164313717
 30
0.0
 10
360.4709410474114
 20
-222.7427132059936
 30
0.0
 10
360.1402532168297
 20
-221.1298099805783
 30
0.0
 10
359.8095653861774
 20
-219.516906755204
 30
0.0
 10
360.4709410473799
 20
-220.0545411636895
 30
0.0
 10
361.1323167086665
 20
-220.5921755721095
 30
0.0
 10
361.7936923698689
 20
-221.1298099805963
 30
0.0
 10
361.7936923698689
 20
-221.6674443890637
 30
0.0
 10
361.7936923698753
 20
-222.205078797503
 30
0.0
 10
361.7936923698753
 20
-222.7427132059705
 30
0.0
 10
361.1323167087158
 20
-221.1298099805167
 30
0.0
 10
360.4709410474787
 20
-219.5169067551424
 30
0.0
 10
359.8095653863186
 20
-217.9040035296873
 30
0.0
 10
357.9752393411904
 20
-213.4306148514251
 30
0.0
 10
354.5185600965641
 20
-211.4523906281467
 30
0.0
 10
351.873057451726
 20
-208.226584177343
 30
0.0
 10
352.8651209435602
 20
-209.3018529942254
 30
0.0
 10
353.8571844353655
 20
-210.377121811186
 30
0.0
 10
354.8492479272023
 20
-211.452390628071
 30
0.0
 10
353.195808774181
 20
-208.7642185857283
 30
0.0
 10
351.5423696211225
 20
-206.0760465434705
 30
0.0
 10
349.8889304680987
 20
-203.387874501124
 30
0.0
 10
350.2196182987048
 20
-203.3878745043851
 30
0.0
 10
350.5503061293031
 20
-203.3878745027667
 30
0.0
 10
350.8809939599117
 20
-203.3878745060279
 30
0.0
 10
352.2037452823333
 20
-205.0007777314214
 30
0.0
 10
353.5264966047517
 20
-206.6136809519315
 30
0.0
 10
354.8492479271772
 20
-208.226584177325
 30
0.0
 10
354.8492479271772
 20
-207.6889497688575
 30
0.0
 10
354.8492479271702
 20
-207.1513153604106
 30
0.0
 10
354.8492479271702
 20
-206.6136809519405
 30
0.0
 10
356.8333749107981
 20
-208.2265841773558
 30
0.0
 10
358.8175018944324
 20
-209.8394874027557
 30
0.0
 10
360.8016288780534
 20
-211.4523906281672
 30
0.0
 10
362.6955205526164
 20
-212.9919412797572
 30
0.0
 10
364.1085071841234
 20
-215.75346589587
 30
0.0
 10
365.7619463371697
 20
-217.9040035296937
 30
0.0
 10
364.4391950147513
 20
-216.2911003042938
 30
0.0
 10
363.1164436922976
 20
-214.6781970789529
 30
0.0
 10
361.7936923698753
 20
-213.065293853553
 30
0.0
 10
362.7857558617018
 20
-213.6029282619718
 30
0.0
 10
363.7778193535135
 20
-214.1405626704649
 30
0.0
 10
364.76988284534
 20
-214.6781970788849
 30
0.0
 10
365.4713776677743
 20
-215.0583620148788
 30
0.0
 10
366.0926341677513
 20
-215.7534658958623
 30
0.0
 10
366.7540098289814
 20
-216.2911003042694
 30
0.0
 10
369.1386336878856
 20
-218.2295687312328
 30
0.0
 10
371.3836394574211
 20
-220.5921755721044
 30
0.0
 10
373.6984542716513
 20
-222.7427132059859
 30
0.0
 10
374.9824825033352
 20
-223.9356168534864
 30
0.0
 10
376.3439569165022
 20
-224.8932508398366
 30
0.0
 10
377.6667082389277
 20
-225.9685196567652
 30
0.0
 10
377.9624844263552
 20
-226.2089570736422
 30
0.0
 10
378.3280839001301
 20
-225.9685196567806
 30
0.0
 10
378.6587717307362
 20
-225.9685196567806
 30
0.0
 10
378.6587717308915
 20
-226.5061540652494
 30
0.0
 10
378.6587717308106
 20
-227.0437884737105
 30
0.0
 10
378.6587717309659
 20
-227.5814228821805
 30
0.0
 10
380.3122108839904
 20
-229.7319605160518
 30
0.0
 10
381.9656500367857
 20
-231.8824981499231
 30
0.0
 10
383.619089189814
 20
-234.0330357837931
 30
0.0
 10
384.7739011864997
 20
-235.5350364194786
 30
0.0
 10
386.2645918346541
 20
-236.1835734176566
 30
0.0
 10
387.5873431570763
 20
-237.2588422345826
 30
0.0
 10
387.5873431569242
 20
-236.7212078261126
 30
0.0
 10
387.5873431569987
 20
-236.1835734176682
 30
0.0
 10
387.5873431568434
 20
-235.6459390091994
 30
0.0
 10
387.9180309874494
 20
-235.6459390086514
 30
0.0
 10
388.248718818282
 20
-235.6459390089273
 30
0.0
 10
388.579406648888
 20
-235.645939008387
 30
0.0
 10
391.9840462449229
 20
-235.6459390028132
 30
0.0
 10
394.5317875997847
 20
-241.0222830938551
 30
0.0
 10
397.5079780752455
 20
-243.7104551361579
 30
0.0
 10
397.7970512484936
 20
-243.971553486183
 30
0.0
 10
398.1693537364371
 20
-243.7104551359397
 30
0.0
 10
398.5000415670399
 20
-243.7104551353968
 30
0.0
 10
398.1693537364583
 20
-243.1728207268973
 30
0.0
 10
397.8386659058413
 20
-242.6351863192614
 30
0.0
 10
397.5079780752526
 20
-242.0975519107618
 30
0.0
 10
395.0223139922956
 20
-238.0563432076778
 30
0.0
 10
392.8783484467602
 20
-233.4954013753153
 30
0.0
 10
390.5635336325404
 20
-229.1943261075496
 30
0.0
 10
387.9413624968973
 20
-224.3221629651406
 30
0.0
 10
385.2725283428314
 20
-219.5169067551784
 30
0.0
 10
382.6270256979702
 20
-214.678197078994
 30
0.0
 10
382.2963378673642
 20
-214.6781970779044
 30
0.0
 10
381.9656500367857
 20
-214.6781970784062
 30
0.0
 10
381.6349622061829
 20
-214.6781970773217
 30
0.0
 10
379.9815230531476
 20
-212.5276594434659
 30
0.0
 10
378.3280839001301
 20
-210.3771218112207
 30
0.0
 10
376.674644747091
 20
-208.2265841773699
 30
0.0
 10
376.3439569164881
 20
-208.2265841773699
 30
0.0
 10
376.0132690858962
 20
-208.226584177343
 30
0.0
 10
375.6825812552894
 20
-208.226584177343
 30
0.0
 10
375.3518934247963
 20
-207.1513153603182
 30
0.0
 10
375.0212055941332
 20
-206.076046543423
 30
0.0
 10
374.6905177636433
 20
-205.0007777263994
 30
0.0
 10
376.0132690860617
 20
-205.5384121348592
 30
0.0
 10
377.3360204083178
 20
-206.0760465434705
 30
0.0
 10
378.6587717307362
 20
-206.6136809519277
 30
0.0
 10
378.3280839001333
 20
-206.6136809519277
 30
0.0
 10
377.9973960695273
 20
-206.6136809519405
 30
0.0
 10
377.6667082389245
 20
-206.6136809519405
 30
0.0
 10
377.9973960695273
 20
-206.6136809508548
 30
0.0
 10
378.3280839001301
 20
-206.6136809514015
 30
0.0
 10
378.6587717307362
 20
-206.6136809503132
 30
0.0
 10
377.9973960695414
 20
-205.000777724894
 30
0.0
 10
377.3360204083248
 20
-203.387874501124
 30
0.0
 10
376.6746447471301
 20
-201.7749712757035
 30
0.0
 10
376.3439569165234
 20
-201.7749712784256
 30
0.0
 10
376.0132690858962
 20
-201.7749712770909
 30
0.0
 10
375.6825812552894
 20
-201.7749712798104
 30
0.0
 10
375.0212055941159
 20
-200.6997024628138
 30
0.0
 10
374.3598299328891
 20
-199.624433641831
 30
0.0
 10
373.6984542717148
 20
-198.5491648248305
 30
0.0
 10
371.0529516270262
 20
-194.2480895568467
 30
0.0
 10
368.4074489819783
 20
-189.9470142894379
 30
0.0
 10
365.7619463371376
 20
-185.6459390216979
 30
0.0
 10
365.4312585065315
 20
-185.6459390206096
 30
0.0
 10
365.1005706759287
 20
-185.6459390211525
 30
0.0
 10
364.7698828453221
 20
-185.6459390200654
 30
0.0
 10
362.7857558616806
 20
-181.3448637523396
 30
0.0
 10
360.8016288780534
 20
-177.0437884862244
 30
0.0
 10
358.8175018944151
 20
-172.742713218496
 30
0.0
 10
357.9757081074967
 20
-170.9179215255764
 30
0.0
 10
356.8333749108013
 20
-169.5169067676641
 30
0.0
 10
355.8413114189928
 20
-167.9040035422475
 30
0.0
 10
354.672153381622
 20
-166.0031788621009
 30
0.0
 10
353.1958087741386
 20
-164.6781970914681
 30
0.0
 10
351.8730574517068
 20
-163.0652938660939
 30
0.0
 10
351.8730574517068
 20
-162.5276594576264
 30
0.0
 10
351.873057451726
 20
-161.9900250491178
 30
0.0
 10
351.873057451726
 20
-161.4523906406516
 30
0.0
 10
349.2275548068892
 20
-157.1513153729053
 30
0.0
 10
346.5820521620447
 20
-152.850240105164
 30
0.0
 10
343.9365495172066
 20
-148.5491648374189
 30
0.0
 10
343.2751738559983
 20
-147.4738960204813
 30
0.0
 10
342.6137981947555
 20
-146.3986272035964
 30
0.0
 10
341.9524225334997
 20
-145.3233583867384
 30
0.0
 10
341.6217347028718
 20
-144.785723978312
 30
0.0
 10
341.2910468722953
 20
-144.2480895697906
 30
0.0
 10
340.9603590415545
 20
-143.7104551615426
 30
0.0
 10
340.6296712108175
 20
-143.1728207532945
 30
0.0
 10
340.2989833805863
 20
-142.6351863442187
 30
0.0
 10
339.9682955500547
 20
-142.0975519356216
 30
0.0
 10
338.9762320584714
 20
-140.4846487098405
 30
0.0
 10
337.9841685663029
 20
-138.871745485022
 30
0.0
 10
336.9921050744655
 20
-137.2588422596515
 30
0.0
 10
340.298983380517
 20
-139.4093798935215
 30
0.0
 10
343.6058616865993
 20
-141.5599175273479
 30
0.0
 10
346.9127399926481
 20
-143.7104551612127
 30
0.0
 10
347.346954386917
 20
-143.9928345866472
 30
0.0
 10
347.5741156538897
 20
-144.7857239781067
 30
0.0
 10
347.9048034845497
 20
-145.3233583864766
 30
0.0
 10
350.6317251944152
 20
-149.7568052938558
 30
0.0
 10
354.5185600965571
 20
-151.7749712882508
 30
0.0
 10
357.8254384025996
 20
-155.0007777390866
 30
0.0
 10
357.1640627413124
 20
-153.92550892228
 30
0.0
 10
356.5026870801561
 20
-152.8502401052295
 30
0.0
 10
355.8413114188696
 20
-151.774971288419
 30
0.0
 10
355.5106235882629
 20
-151.774971289506
 30
0.0
 10
355.179935757773
 20
-151.7749712887745
 30
0.0
 10
354.8492479271702
 20
-151.7749712898641
 30
0.0
 10
356.8333749107911
 20
-153.3878745152986
 30
0.0
 10
358.8175018944254
 20
-155.0007777390507
 30
0.0
 10
360.8016288780462
 20
-156.6136809644878
 30
0.0
 10
361.0974050654661
 20
-156.8541183813686
 30
0.0
 10
361.4630045392731
 20
-156.6136809649871
 30
0.0
 10
361.7936923698753
 20
-156.6136809660728
 30
0.0
 10
360.4709410474364
 20
-154.4631433322336
 30
0.0
 10
359.148189725025
 20
-152.3126056967183
 30
0.0
 10
357.8254384025886
 20
-150.1620680628779
 30
0.0
 10
355.9991551660497
 20
-147.1928849945248
 30
0.0
 10
354.5185600965673
 20
-143.7104551612127
 30
0.0
 10
352.8651209435461
 20
-140.4846487104026
 30
0.0
 10
352.5344331129419
 20
-140.4846487114884
 30
0.0
 10
352.2037452823308
 20
-140.4846487109558
 30
0.0
 10
351.873057451726
 20
-140.4846487120428
 30
0.0
 10
351.5423696210443
 20
-139.9470143037036
 30
0.0
 10
351.2116817904754
 20
-139.4093798935395
 30
0.0
 10
350.8809939597949
 20
-138.8717454852003
 30
0.0
 10
350.8809939597949
 20
-138.3341110767277
 30
0.0
 10
350.8809939599117
 20
-137.7964766680703
 30
0.0
 10
350.8809939599117
 20
-137.2588422596028
 30
0.0
 10
350.8809939599117
 20
-131.7235572389492
 30
0.0
 10
347.5741156538461
 20
-127.581422907193
 30
0.0
 10
345.9206765007992
 20
-122.7427132310061
 30
0.0
 10
346.9127399926251
 20
-124.8932508648632
 30
0.0
 10
347.9048034844714
 20
-127.0437884987101
 30
0.0
 10
348.8968669762972
 20
-129.1943261325673
 30
0.0
 10
346.2513643314695
 20
-124.3556164563367
 30
0.0
 10
343.6058616866031
 20
-119.5169067801639
 30
0.0
 10
340.9603590417765
 20
-114.678197103932
 30
0.0
 10
339.1486908667534
 20
-111.3645975708694
 30
0.0
 10
339.6376077193344
 20
-106.0760465684778
 30
0.0
 10
338.9762320581223
 20
-101.7749713007352
 30
0.0
 10
338.1086977010052
 20
-96.13319948152757
 30
0.0
 10
335.0079780908626
 20
-92.09755194831487
 30
0.0
 10
333.023851107234
 20
-87.2588422721103
 30
0.0
 10
332.0885246773251
 20
-84.977852655949
 30
0.0
 10
332.3624754460399
 20
-81.88249818742219
 30
0.0
 10
332.0317876154685
 20
-79.19432614507059
 30
0.0
 10
331.0397241236593
 20
-77.58142291965656
 30
0.0
 10
330.0476606317924
 20
-75.96851969427749
 30
0.0
 10
329.0555971399833
 20
-74.35561646886056
 30
0.0
 10
329.0555971399833
 20
-74.89325087732935
 30
0.0
 10
329.055597139973
 20
-75.43088528581738
 30
0.0
 10
329.055597139973
 20
-75.96851969428486
 30
0.0
 10
329.3862849705778
 20
-75.96851969483
 30
0.0
 10
329.7169728011851
 20
-75.96851969455952
 30
0.0
 10
330.0476606317886
 20
-75.96851969509983
 30
0.0
 10
330.3783484624729
 20
-76.50615410344027
 30
0.0
 10
330.7090362930405
 20
-77.0437885111557
 30
0.0
 10
331.0397241237197
 20
-77.58142291949581
 30
0.0
 10
330.0476606318797
 20
-74.89325087718431
 30
0.0
 10
329.0555971399589
 20
-72.20507883502268
 30
0.0
 10
328.0635336481215
 20
-69.51690679270958
 30
0.0
 10
328.0635336482755
 20
-68.9792723842408
 30
0.0
 10
328.0635336482331
 20
-68.44163797573609
 30
0.0
 10
328.0635336483898
 20
-67.90400356726731
 30
0.0
 10
327.7328458177824
 20
-67.90400356835562
 30
0.0
 10
327.4021579869517
 20
-67.90400356781403
 30
0.0
 10
327.0714701563444
 20
-67.90400356890108
 30
0.0
 10
329.3862849705739
 20
-70.59217561125395
 30
0.0
 10
331.7010997848137
 20
-73.2803476519551
 30
0.0
 10
334.0159145990419
 20
-75.96851969430669
 30
0.0
 10
336.2992338665933
 20
-78.62011626309801
 30
0.0
 10
337.9841685663029
 20
-82.42013259590894
 30
0.0
 10
339.9682955499187
 20
-85.64593904674247
 30
0.0
 10
340.2989833805221
 20
-86.18357345521734
 30
0.0
 10
340.6296712111127
 20
-86.7212078637012
 30
0.0
 10
340.9603590416405
 20
-87.25884227229479
 30
0.0
 10
340.2989833804631
 20
-85.64593904685637
 30
0.0
 10
339.6376077193536
 20
-84.03303582128062
 30
0.0
 10
338.9762320581762
 20
-82.42013259584348
 30
0.0
 10
338.0590690355948
 20
-80.18343825673483
 30
0.0
 10
336.3307294132996
 20
-79.19432614505776
 30
0.0
 10
335.0079780909101
 20
-77.58142291958598
 30
0.0
 10
333.3140298804124
 20
-75.51589897245444
 30
0.0
 10
332.3624754460258
 20
-72.20507883500983
 30
0.0
 10
331.0397241236042
 20
-69.51690679266979
 30
0.0
 10
330.7475772293004
 20
-68.92318891069381
 30
0.0
 10
330.378348462378
 20
-68.44163797576817
 30
0.0
 10
330.0476606317334
 20
-67.90400356735971
 30
0.0
 10
330.0476606317334
 20
-67.36636915888964
 30
0.0
 10
330.0476606317886
 20
-66.82873475033487
 30
0.0
 10
330.0476606317886
 20
-66.29110034186739
 30
0.0
 10
330.0476606317886
 20
-65.75346593339732
 30
0.0
 10
330.0476606318668
 20
-65.21583152492758
 30
0.0
 10
330.0476606320209
 20
-64.67819711645977
 30
0.0
 10
330.3783484626282
 20
-64.67819711591817
 30
0.0
 10
330.7090362930007
 20
-64.67819711618769
 30
0.0
 10
331.0397241236042
 20
-64.67819711564609
 30
0.0
 10
330.0476606317565
 20
-62.52765948181076
 30
0.0
 10
329.0555971399589
 20
-60.37712184873777
 30
0.0
 10
328.0635336481125
 20
-58.226584214905
 30
0.0
 10
326.6327593327651
 20
-55.12503473146715
 30
0.0
 10
325.4180310033309
 20
-51.77497131321934
 30
0.0
 10
324.0952796809401
 20
-48.54916486238613
 30
0.0
 10
323.576453926746
 20
-47.28389947470431
 30
0.0
 10
322.7725283584979
 20
-46.3986272285277
 30
0.0
 10
322.1111526973243
 20
-45.32335841152982
 30
0.0
 10
322.4418405279291
 20
-45.32335841533767
 30
0.0
 10
322.7725283584774
 20
-45.32335841352165
 30
0.0
 10
323.1032161890822
 20
-45.32335841733078
 30
0.0
 10
321.4497770360327
 20
-43.17282078351214
 30
0.0
 10
319.7963378830178
 20
-41.02228314390793
 30
0.0
 10
318.1428987299697
 20
-38.87174551009057
 30
0.0
 10
315.0334722682198
 20
-34.8274850283882
 30
0.0
 10
312.8518934403216
 20
-29.19432615759736
 30
0.0
 10
310.2063907954707
 20
-24.35561648140017
 30
0.0
 10
309.8757029648647
 20
-24.35561648085472
 30
0.0
 10
309.5450151342766
 20
-24.35561648110884
 30
0.0
 10
309.2143273036706
 20
-24.35561648056724
 30
0.0
 10
309.2143273038246
 20
-23.81798207209975
 30
0.0
 10
309.2143273037437
 20
-23.28034766444849
 30
0.0
 10
309.2143273039016
 20
-22.74271325597971
 30
0.0
 10
309.875702965183
 20
-24.35561648130263
 30
0.0
 10
310.5370786261255
 20
-25.96851970674875
 30
0.0
 10
311.1984542874095
 20
-27.58142293207167
 30
0.0
 10
311.5291421180156
 20
-27.58142293424574
 30
0.0
 10
311.8598299485112
 20
-27.58142293327678
 30
0.0
 10
312.190517779116
 20
-27.58142293545086
 30
0.0
 10
313.6693987162452
 20
-27.58142294517259
 30
0.0
 10
314.8360204239644
 20
-29.73196056603405
 30
0.0
 10
316.1587717463975
 20
-30.80722938291771
 30
0.0
 10
316.9953531377782
 20
-31.48728909458513
 30
0.0
 10
317.4815230688307
 20
-32.95776701681079
 30
0.0
 10
318.1428987301069
 20
-34.03303583363926
 30
0.0
 10
316.4894595770729
 20
-31.34486379131333
 30
0.0
 10
314.8360204239528
 20
-28.6566917491273
 30
0.0
 10
313.18258127092
 20
-25.96851970680265
 30
0.0
 10
312.8518934403127
 20
-25.43088529833772
 30
0.0
 10
312.5212056096925
 20
-24.89325088989461
 30
0.0
 10
312.1905177790287
 20
-24.35561648152337
 30
0.0
 10
312.190517779184
 20
-23.81798207305459
 30
0.0
 10
312.1905177791917
 20
-23.28034766444849
 30
0.0
 10
312.190517779347
 20
-22.74271325597971
 30
0.0
 10
311.5291421181349
 20
-22.74271325585779
 30
0.0
 10
310.8677664566969
 20
-22.74271325591811
 30
0.0
 10
310.2063907954849
 20
-22.74271325579105
 30
0.0
 10
310.2063907954849
 20
-21.6674444388535
 30
0.0
 10
310.2063907954849
 20
-20.59217562211101
 30
0.0
 10
310.2063907954849
 20
-19.51690680517474
 30
0.0
 10
310.2063907954849
 20
-18.97927239670468
 30
0.0
 10
310.2063907955606
 20
-18.44163798823975
 30
0.0
 10
310.2063907957159
 20
-17.90400357977097
 30
0.0
 10
308.8836394732878
 20
-16.29110035437875
 30
0.0
 10
307.5608881506403
 20
-14.67819712897241
 30
0.0
 10
306.2381368282174
 20
-13.06529390357891
 30
0.0
 10
305.8640062562503
 20
-12.60909598034774
 30
0.0
 10
305.5767611669733
 20
-11.99002508668499
 30
0.0
 10
305.2460733362902
 20
-11.45239067834583
 30
0.0
 10
305.2460733362902
 20
-10.91475626987705
 30
0.0
 10
305.246073336407
 20
-10.37712186122347
 30
0.0
 10
305.246073336407
 20
-9.839487452753405
 30
0.0
 10
305.246073336407
 20
-10.37712186122347
 30
0.0
 10
305.246073336407
 20
-10.91475626968711
 30
0.0
 10
305.246073336407
 20
-11.45239067815589
 30
0.0
 10
304.5846976751628
 20
-9.839487452788056
 30
0.0
 10
303.9233220139712
 20
-8.226584227363752
 30
0.0
 10
303.2619463527309
 20
-6.613681001998484
 30
0.0
 10
304.58469767515
 20
-6.613681001998484
 30
0.0
 10
305.9074489976178
 20
-6.613681001945865
 30
0.0
 10
307.2302003200394
 20
-6.613681001945865
 30
0.0
 10
308.7090812571686
 20
-6.613681001945865
 30
0.0
 10
309.8757029648865
 20
-8.764218635794029
 30
0.0
 10
311.1984542873222
 20
-9.83948745268025
 30
0.0
 10
311.1984542871683
 20
-10.37712186114903
 30
0.0
 10
311.1984542872221
 20
-10.91475626968711
 30
0.0
 10
311.1984542870694
 20
-11.45239067815589
 30
0.0
 10
309.2143273034447
 20
-6.076046593473235
 30
0.0
 10
307.2302003200407
 20
-0.6997025087995634
 30
0.0
 10
305.2460733364185
 20
4.676641575888226
 30
0.0
 10
304.1566618811269
 20
7.628595196692377
 30
0.0
 10
301.9391950303529
 20
8.977716843607656
 30
0.0
 10
300.2857558773214
 20
11.12825447746352
 30
0.0
 10
298.7800652480484
 20
13.08662370881065
 30
0.0
 10
298.3016288937057
 20
16.50459856216414
 30
0.0
 10
297.3095654018965
 20
19.19277060451189
 30
0.0
 10
297.0689546628354
 20
19.84474809101092
 30
0.0
 10
296.6481897406819
 20
20.2680394214456
 30
0.0
 10
296.3175019100861
 20
20.80567382993234
 30
0.0
 10
295.148343872741
 20
22.70649851012767
 30
0.0
 10
293.6719992652352
 20
24.03148028072577
 30
0.0
 10
292.3492479428302
 20
25.6443835061552
 30
0.0
 10
292.0185601122229
 20
25.6443835061552
 30
0.0
 10
291.6878722816002
 20
25.64438350611542
 30
0.0
 10
291.3571844509967
 20
25.64438350611542
 30
0.0
 10
289.7037452979588
 20
28.87018995690499
 30
0.0
 10
288.0503061449414
 20
32.09599640771766
 30
0.0
 10
286.3968669918996
 20
35.32180285851108
 30
0.0
 10
286.0974762973866
 20
35.90590444573416
 30
0.0
 10
285.7354913306849
 20
36.39707167543067
 30
0.0
 10
285.4048035000314
 20
36.93470608381988
 30
0.0
 10
286.7275548224594
 20
35.32180285843665
 30
0.0
 10
288.0503061449504
 20
33.70889963314068
 30
0.0
 10
289.3730574673771
 20
32.09599640775617
 30
0.0
 10
289.3730574672231
 20
32.63363081622494
 30
0.0
 10
289.3730574672873
 20
33.17126522466292
 30
0.0
 10
289.3730574671333
 20
33.7088996331317
 30
0.0
 10
289.042369636386
 20
34.24653404136305
 30
0.0
 10
288.7116818060841
 20
34.7841684499499
 30
0.0
 10
288.3809939753331
 20
35.32180285817964
 30
0.0
 10
290.3651209589732
 20
33.70889963280572
 30
0.0
 10
292.3492479428161
 20
32.0959964077382
 30
0.0
 10
294.333374926455
 20
30.48309318236394
 30
0.0
 10
296.2272666010232
 20
28.94354253080737
 30
0.0
 10
297.6402532325
 20
26.18201791460601
 30
0.0
 10
299.2936923855444
 20
24.03148028077453
 30
0.0
 10
303.1063212883005
 20
19.07260294675878
 30
0.0
 10
307.8915759812477
 20
16.50459856216414
 30
0.0
 10
312.1905177791122
 20
12.74115770288269
 30
0.0
 10
313.4258096149036
 20
11.65974092951592
 30
0.0
 10
314.1746447627279
 20
9.515351252053334
 30
0.0
 10
315.166708254505
 20
7.902448026590527
 30
0.0
 10
313.8439569320846
 20
10.05298566045923
 30
0.0
 10
312.5212056097195
 20
12.20352329442418
 30
0.0
 10
311.1984542872991
 20
14.35406092829288
 30
0.0
 10
312.5212056097092
 20
13.27879211131682
 30
0.0
 10
313.8439569321334
 20
12.20352329440236
 30
0.0
 10
315.1667082545422
 20
11.12825447742373
 30
0.0
 10
316.2331444643587
 20
10.26134504230694
 30
0.0
 10
317.1508352381823
 20
8.977716843592255
 30
0.0
 10
318.1428987299799
 20
7.902448026617479
 30
0.0
 10
316.8201474075403
 20
10.05298566045538
 30
0.0
 10
315.4973960851547
 20
12.20352329440621
 30
0.0
 10
314.1746447627176
 20
14.35406092824924
 30
0.0
 10
314.1746447627176
 20
14.89169533671931
 30
0.0
 10
314.1746447627445
 20
15.4293297452253
 30
0.0
 10
314.1746447627445
 20
15.96696415369536
 30
0.0
 10
314.5053325933494
 20
15.96696415260833
 30
0.0
 10
314.8360204239567
 20
15.96696415315634
 30
0.0
 10
315.1667082545614
 20
15.96696415206288
 30
0.0
 10
313.1825812709354
 20
18.65513619441063
 30
0.0
 10
311.1984542873017
 20
21.34330823837674
 30
0.0
 10
309.2143273036744
 20
24.03148028072192
 30
0.0
 10
309.2143273036744
 20
24.56911468918941
 30
0.0
 10
309.2143273036706
 20
25.10674909764536
 30
0.0
 10
309.2143273036706
 20
25.64438350611542
 30
0.0
 10
308.222263811864
 20
27.25728673153331
 30
0.0
 10
307.2302003200458
 20
28.87018995692681
 30
0.0
 10
306.2381368282392
 20
30.48309318234598
 30
0.0
 10
306.2381368283137
 20
31.55836199928354
 30
0.0
 10
306.2381368282611
 20
32.63363081619414
 30
0.0
 10
306.2381368283419
 20
33.7088996331317
 30
0.0
 10
305.2460733364815
 20
35.32180285846328
 30
0.0
 10
304.2540098445709
 20
36.93470608389946
 30
0.0
 10
303.261946352713
 20
38.54760930923135
 30
0.0
 10
302.9312585220915
 20
39.08524371767318
 30
0.0
 10
302.6005706916164
 20
39.62287812635244
 30
0.0
 10
302.2698828611092
 20
40.16051253498036
 30
0.0
 10
300.7726300282393
 20
42.5947558517929
 30
0.0
 10
299.6243802161145
 20
45.5368566194089
 30
0.0
 10
298.3016288936749
 20
48.22502866172456
 30
0.0
 10
298.6323167242796
 20
48.2250286628116
 30
0.0
 10
298.9630045549088
 20
48.22502866230081
 30
0.0
 10
299.2936923855161
 20
48.22502866339298
 30
0.0
 10
298.6323167243079
 20
49.3002974803254
 30
0.0
 10
297.9709410630958
 20
50.37556629563048
 30
0.0
 10
297.3095654018863
 20
51.45083511256804
 30
0.0
 10
295.6233817007283
 20
54.19224345253249
 30
0.0
 10
293.3413114346317
 20
55.75191038032212
 30
0.0
 10
291.3571844510108
 20
57.90244801421905
 30
0.0
 10
291.3571844510108
 20
58.44008242268687
 30
0.0
 10
291.3571844509967
 20
58.97771683111169
 30
0.0
 10
291.3571844509967
 20
59.51535123958047
 30
0.0
 10
288.3809939755487
 20
63.81642650731786
 30
0.0
 10
285.4048035001045
 20
68.11750177506168
 30
0.0
 10
282.4286130246552
 20
72.41857704279907
 30
0.0
 10
283.7513643470769
 20
71.8809426343303
 30
0.0
 10
285.0741156694985
 20
71.34330822587563
 30
0.0
 10
286.3968669919188
 20
70.80567381740686
 30
0.0
 10
288.000938585674
 20
70.15369633091169
 30
0.0
 10
289.0423696367659
 20
67.57986736661985
 30
0.0
 10
290.3651209592055
 20
65.96696414125202
 30
0.0
 10
290.7392515311752
 20
65.51076621803111
 30
0.0
 10
291.0264966203843
 20
64.89169532425029
 30
0.0
 10
291.3571844509839
 20
64.35406091576739
 30
0.0
 10
293.2423951401132
 20
61.2890732145837
 30
0.0
 10
295.9868140794646
 20
60.0529856480454
 30
0.0
 10
298.3016288936993
 20
57.90244801417028
 30
0.0
 10
298.5887463348032
 20
57.63570664952715
 30
0.0
 10
298.9630045549088
 20
57.90244801472086
 30
0.0
 10
299.2936923855161
 20
57.90244801580661
 30
0.0
 10
298.3016288937006
 20
60.59062005814666
 30
0.0
 10
297.3095654018863
 20
63.27879209885807
 30
0.0
 10
296.3175019100732
 20
65.96696414120068
 30
0.0
 10
294.9886856712941
 20
69.56762749790623
 30
0.0
 10
292.3492479428084
 20
71.34330822587563
 30
0.0
 10
290.365120959185
 20
74.03148026821825
 30
0.0
 10
289.2873144589484
 20
75.49173423628557
 30
0.0
 10
288.3809939755384
 20
77.25728671899915
 30
0.0
 10
287.3889304837023
 20
78.8701899443718
 30
0.0
 10
287.7196183143084
 20
78.87018994545755
 30
0.0
 10
288.0503061449452
 20
78.8701899449596
 30
0.0
 10
288.3809939755487
 20
78.87018994605081
 30
0.0
 10
286.7275548225031
 20
81.02072757988196
 30
0.0
 10
285.0741156694882
 20
83.17126521214
 30
0.0
 10
283.4206765164426
 20
85.32180284597277
 30
0.0
 10
283.7513643470371
 20
84.78416843748987
 30
0.0
 10
284.0820521776803
 20
84.24653402908751
 30
0.0
 10
284.4127400082736
 20
83.70889962060494
 30
0.0
 10
282.7593008552562
 20
86.39707166295781
 30
0.0
 10
281.1058617022388
 20
89.08524370531069
 30
0.0
 10
279.452422549224
 20
91.77341574766356
 30
0.0
 10
279.78311037983
 20
91.77341574711812
 30
0.0
 10
280.1137982104207
 20
91.77341574737352
 30
0.0
 10
280.444486041028
 20
91.77341574683193
 30
0.0
 10
278.7910468880093
 20
93.92395338071859
 30
0.0
 10
277.1376077349817
 20
96.07449101539454
 30
0.0
 10
275.4841685819642
 20
98.22502864928282
 30
0.0
 10
275.4841685818885
 20
98.76266305775128
 30
0.0
 10
275.4841685819116
 20
99.3002974661931
 30
0.0
 10
275.4841685818346
 20
99.83793187466317
 30
0.0
 10
278.1296712266766
 20
97.68739424079831
 30
0.0
 10
280.7751738716327
 20
95.53685660692031
 30
0.0
 10
283.4206765164747
 20
93.3863189730558
 30
0.0
 10
283.4206765163989
 20
92.84868456458572
 30
0.0
 10
283.4206765164349
 20
92.3110501561131
 30
0.0
 10
283.4206765163579
 20
91.7734157476456
 30
0.0
 10
282.7593008551124
 20
92.84868456452669
 30
0.0
 10
282.0979251940325
 20
93.92395338148863
 30
0.0
 10
281.4365495327884
 20
94.999222198371
 30
0.0
 10
281.7672373633944
 20
94.99922219945675
 30
0.0
 10
282.0979251940531
 20
94.99922219899473
 30
0.0
 10
282.4286130246604
 20
94.99922220008594
 30
0.0
 10
283.4743397638693
 20
94.99922220353507
 30
0.0
 10
284.4127400082916
 20
93.92395338152842
 30
0.0
 10
285.4048035001135
 20
93.38631897309301
 30
0.0
 10
287.4135789689994
 20
92.29769226743487
 30
0.0
 10
288.7116818061496
 20
89.08524370530043
 30
0.0
 10
290.3651209591696
 20
86.93470607141761
 30
0.0
 10
291.7556987470464
 20
85.12605780020318
 30
0.0
 10
293.6719992652274
 20
84.7841684375579
 30
0.0
 10
295.32543841825
 20
83.70889962061007
 30
0.0
 10
295.32543841825
 20
83.17126521214
 30
0.0
 10
295.3254384182577
 20
82.63363080369433
 30
0.0
 10
295.3254384182577
 20
82.09599639522554
 30
0.0
 10
295.9868140794698
 20
81.55836198676832
 30
0.0
 10
296.648189740678
 20
81.02072757829826
 30
0.0
 10
297.3095654018914
 20
80.48309316983847
 30
0.0
 10
297.7278560975786
 20
80.14306331399641
 30
0.0
 10
297.970941063038
 20
79.40782435279567
 30
0.0
 10
298.3016288935273
 20
78.87018994413823
 30
0.0
 10
297.3095654016681
 20
80.48309316946884
 30
0.0
 10
296.3175019100489
 20
82.09599639518737
 30
0.0
 10
295.3254384181884
 20
83.70889962051895
 30
0.0
 10
294.8025750485589
 20
84.55897426009713
 30
0.0
 10
294.6640627570315
 20
85.85943725448358
 30
0.0
 10
294.3333749263959
 20
86.9347060713958
 30
0.0
 10
296.3175019100207
 20
84.78416843751297
 30
0.0
 10
298.3016288936993
 20
82.63363080369048
 30
0.0
 10
300.2857558773227
 20
80.48309316980766
 30
0.0
 10
298.632316724304
 20
83.17126521215155
 30
0.0
 10
296.9788775712854
 20
85.85943725450315
 30
0.0
 10
295.3254384182628
 20
88.54760929684704
 30
0.0
 10
293.8281855849515
 20
90.98185261294729
 30
0.0
 10
292.0185601122088
 20
92.84868456458572
 30
0.0
 10
290.3651209591901
 20
94.99922219847656
 30
0.0
 10
293.6719992652455
 20
91.77341574768025
 30
0.0
 10
296.9788775712854
 20
88.54760929684704
 30
0.0
 10
300.2857558773381
 20
85.32180284605363
 30
0.0
 10
302.3305539667799
 20
83.32713529042873
 30
0.0
 10
304.2540098445927
 20
81.02072757828927
 30
0.0
 10
306.2381368282225
 20
78.87018994441031
 30
0.0
 10
306.8533884877344
 20
78.20333653280441
 30
0.0
 10
307.5608881506429
 20
77.79492112748687
 30
0.0
 10
308.2222638118511
 20
77.25728671901808
 30
0.0
 10
306.5688246588325
 20
79.40782435289609
 30
0.0
 10
304.9153855058035
 20
81.55836198676062
 30
0.0
 10
303.2619463527848
 20
83.70889962064086
 30
0.0
 10
303.2619463527848
 20
84.24653402911093
 30
0.0
 10
303.2619463527784
 20
84.7841684375656
 30
0.0
 10
303.2619463527784
 20
85.32180284603437
 30
0.0
 10
301.6085071997443
 20
88.00997488835516
 30
0.0
 10
299.9550680467231
 20
90.6981469307042
 30
0.0
 10
298.3016288936877
 20
93.38631897302498
 30
0.0
 10
295.9633128189077
 20
97.18796833326934
 30
0.0
 10
293.0106236040269
 20
99.83793187467215
 30
0.0
 10
290.3651209591965
 20
103.0637383255015
 30
0.0
 10
292.3492479428199
 20
101.4508351000862
 30
0.0
 10
294.3333749264395
 20
99.83793187465386
 30
0.0
 10
296.317501910063
 20
98.22502864923501
 30
0.0
 10
295.3254384182166
 20
99.30029746609333
 30
0.0
 10
294.3333749264254
 20
100.3755662830922
 30
0.0
 10
293.341311434579
 20
101.4508350999514
 30
0.0
 10
294.3333749264254
 20
100.3755662830922
 30
0.0
 10
295.3254384182706
 20
99.30029746622904
 30
0.0
 10
296.3175019101169
 20
98.22502864937105
 30
0.0
 10
298.079314544135
 20
96.31545108495172
 30
0.0
 10
299.6243802161235
 20
93.92395338152103
 30
0.0
 10
301.2778193691562
 20
91.77341574766356
 30
0.0
 10
301.608507199761
 20
91.77341574766356
 30
0.0
 10
301.9391950303529
 20
91.7734157476456
 30
0.0
 10
302.2698828609616
 20
91.7734157476456
 30
0.0
 10
303.2619463527604
 20
90.69814693066569
 30
0.0
 10
304.2540098445824
 20
89.6228781137538
 30
0.0
 10
305.2460733363801
 20
88.5476092967726
 30
0.0
 10
305.5767611669848
 20
88.54760929840509
 30
0.0
 10
305.9074489976178
 20
88.54760929765303
 30
0.0
 10
306.2381368282264
 20
88.54760929928422
 30
0.0
 10
306.9775772967878
 20
88.54760930293676
 30
0.0
 10
307.5608881506403
 20
87.47234047989537
 30
0.0
 10
308.2222638118473
 20
86.93470607142177
 30
0.0
 10
305.5767611670105
 20
90.69814693069905
 30
0.0
 10
302.9312585221737
 20
94.46158778998692
 30
0.0
 10
300.2857558773355
 20
98.22502864926068
 30
0.0
 10
299.581851004245
 20
99.2263900977565
 30
0.0
 10
298.9630045549537
 20
100.3755662831935
 30
0.0
 10
298.3016288938238
 20
101.450835100262
 30
0.0
 10
299.6243802162595
 20
99.83793187488648
 30
0.0
 10
300.9471315385476
 20
98.22502864927095
 30
0.0
 10
302.2698828609808
 20
96.61212542389926
 30
0.0
 10
302.6005706915881
 20
96.61212542389926
 30
0.0
 10
302.9312585221737
 20
96.61212542385563
 30
0.0
 10
303.2619463527784
 20
96.61212542385563
 30
0.0
 10
305.9074489976127
 20
93.92395338150276
 30
0.0
 10
308.5529516424546
 20
91.23578133917265
 30
0.0
 10
311.1984542872914
 20
88.5476092968201
 30
0.0
 10
310.5370786260075
 20
90.16051252214173
 30
0.0
 10
309.8757029648416
 20
91.77341574760068
 30
0.0
 10
309.2143273035563
 20
93.38631897292488
 30
0.0
 10
310.5370786259831
 20
92.84868456451129
 30
0.0
 10
311.8598299485125
 20
92.31105015614004
 30
0.0
 10
313.1825812709431
 20
91.77341574772774
 30
0.0
 10
314.3392937471095
 20
91.30326809617921
 30
0.0
 10
315.1667082545499
 20
89.6228781137538
 30
0.0
 10
316.1587717463475
 20
88.5476092967726
 30
0.0
 10
316.4894595769561
 20
88.54760929948957
 30
0.0
 10
316.8201474075839
 20
88.54760929819717
 30
0.0
 10
317.15083523819
 20
88.54760930091285
 30
0.0
 10
317.15083523819
 20
88.00997489244408
 30
0.0
 10
317.15083523819
 20
87.47234047990564
 30
0.0
 10
317.15083523819
 20
86.9347060714359
 30
0.0
 10
318.1428987299953
 20
86.3970716629283
 30
0.0
 10
319.1349622218147
 20
85.85943725448037
 30
0.0
 10
320.1270257136213
 20
85.32180284597277
 30
0.0
 10
320.5706899947571
 20
85.08136542908075
 30
0.0
 10
320.7884013748796
 20
84.24653402914943
 30
0.0
 10
321.1190892055537
 20
83.70889962078974
 30
0.0
 10
321.6419525752653
 20
82.85882498134856
 30
0.0
 10
322.4418405278624
 20
82.63363080366
 30
0.0
 10
323.10321618905
 20
82.09599639512031
 30
0.0
 10
323.5215068847205
 20
81.75596653922564
 30
0.0
 10
323.7645918503648
 20
81.02072757840735
 30
0.0
 10
324.0952796811146
 20
80.48309317017728
 30
0.0
 10
325.781463383017
 20
77.74168483141825
 30
0.0
 10
328.0635336481639
 20
76.18201790209208
 30
0.0
 10
330.0476606318065
 20
74.03148026824906
 30
0.0
 10
330.436779947462
 20
73.60972513902948
 30
0.0
 10
330.7090362930276
 20
72.95621145131919
 30
0.0
 10
331.0397241236901
 20
72.41857704294796
 30
0.0
 10
331.8828159744206
 20
71.04787287321278
 30
0.0
 10
332.3624754460039
 20
69.19277059198
 30
0.0
 10
333.0238511071647
 20
67.57986736652231
 30
0.0
 10
333.4340188801448
 20
66.57958724908717
 30
0.0
 10
334.3466024296518
 20
66.5045985496531
 30
0.0
 10
335.0079780908575
 20
65.96696414116636
 30
0.0
 10
335.3037542782792
 20
65.72652672428171
 30
0.0
 10
335.6693537520747
 20
65.96696414065138
 30
0.0
 10
336.0000415826833
 20
65.96696413956306
 30
0.0
 10
333.6852267684436
 20
70.26803940730046
 30
0.0
 10
331.3704119542089
 20
74.56911467667291
 30
0.0
 10
329.0555971399692
 20
78.87018994441031
 30
0.0
 10
328.7249093093618
 20
78.87018994169208
 30
0.0
 10
328.3942214787635
 20
78.87018994306017
 30
0.0
 10
328.0635336481587
 20
78.87018994033969
 30
0.0
 10
328.3942214787635
 20
78.87018994088481
 30
0.0
 10
328.724909309367
 20
78.87018994469008
 30
0.0
 10
329.055597139973
 20
78.87018994523297
 30
0.0
 10
326.4100944951182
 20
83.17126521295239
 30
0.0
 10
323.7645918502852
 20
87.47234047989151
 30
0.0
 10
321.1190892054305
 20
91.77341574761095
 30
0.0
 10
319.4656500523964
 20
94.46158778993687
 30
0.0
 10
317.8122108993995
 20
97.14975983231928
 30
0.0
 10
316.1587717463655
 20
99.8379318746452
 30
0.0
 10
317.1508352381823
 20
99.30029746618284
 30
0.0
 10
318.1428987300056
 20
98.76266305773075
 30
0.0
 10
319.1349622218237
 20
98.22502864926581
 30
0.0
 10
319.5786265029621
 20
97.98459123239144
 30
0.0
 10
319.7963378830178
 20
97.14975983229745
 30
0.0
 10
320.1270257135944
 20
96.61212542378505
 30
0.0
 10
320.6498890831533
 20
95.76205078409552
 30
0.0
 10
321.4497770360661
 20
95.53685660694919
 30
0.0
 10
322.1111526972935
 20
94.9992221985401
 30
0.0
 10
322.4069288847294
 20
94.7587847816946
 30
0.0
 10
322.7725283584774
 20
94.99922219845186
 30
0.0
 10
323.1032161890822
 20
94.99922219845186
 30
0.0
 10
325.4180310033335
 20
90.69814693073371
 30
0.0
 10
327.7328458175604
 20
86.39707166298123
 30
0.0
 10
330.0476606318155
 20
82.09599639526148
 30
0.0
 10
330.8328035313594
 20
80.63715023354746
 30
0.0
 10
332.0317876154415
 20
79.94545876140049
 30
0.0
 10
333.0238511072918
 20
78.87018994455919
 30
0.0
 10
333.8020897386297
 20
78.02667968618805
 30
0.0
 10
334.3466024296376
 20
76.71965231052236
 30
0.0
 10
335.0079780908113
 20
75.6443834935309
 30
0.0
 10
332.362475445986
 20
79.40782435282904
 30
0.0
 10
329.7169728011928
 20
83.17126521217722
 30
0.0
 10
327.0714701563663
 20
86.93470607147536
 30
0.0
 10
324.7770209855337
 20
90.19874505324908
 30
0.0
 10
322.4418405278687
 20
93.38631897304424
 30
0.0
 10
320.1270257136277
 20
96.6121254238428
 30
0.0
 10
320.1270257136277
 20
97.14975983231157
 30
0.0
 10
320.1270257136342
 20
97.68739424078805
 30
0.0
 10
320.1270257136342
 20
98.22502864925683
 30
0.0
 10
319.7963378830307
 20
98.22502864925683
 30
0.0
 10
319.4656500524297
 20
98.22502864925683
 30
0.0
 10
319.1349622218211
 20
98.22502864925683
 30
0.0
 10
319.1349622216671
 20
98.76266305772432
 30
0.0
 10
319.1349622217454
 20
99.3002974661931
 30
0.0
 10
319.1349622215914
 20
99.83793187466317
 30
0.0
 10
318.8042743910726
 20
100.3755662832722
 30
0.0
 10
318.4735865606552
 20
100.9132006916665
 30
0.0
 10
318.1428987301365
 20
101.4508351002761
 30
0.0
 10
317.8122108995317
 20
101.4508350997294
 30
0.0
 10
317.481523068796
 20
101.4508350997897
 30
0.0
 10
317.15083523819
 20
101.4508350992494
 30
0.0
 10
314.8360204239515
 20
104.6766415500467
 30
0.0
 10
312.5212056097143
 20
107.9024480016705
 30
0.0
 10
310.2063907954758
 20
111.1282544524652
 30
0.0
 10
309.8757029648698
 20
111.1282544513781
 30
0.0
 10
309.5450151342766
 20
111.1282544519377
 30
0.0
 10
309.2143273036706
 20
111.1282544508507
 30
0.0
 10
309.2143273036706
 20
111.6658888593207
 30
0.0
 10
309.2143273036706
 20
112.2035232694168
 30
0.0
 10
309.2143273036706
 20
112.7411576778856
 30
0.0
 10
308.8836394730953
 20
113.2787920864019
 30
0.0
 10
308.5529516424726
 20
113.8164264948437
 30
0.0
 10
308.2222638118961
 20
114.3540609033613
 30
0.0
 10
307.2302003201704
 20
115.9669641289091
 30
0.0
 10
306.2381368282406
 20
117.5798673541239
 30
0.0
 10
305.2460733364596
 20
119.1927705795844
 30
0.0
 10
304.7232099668725
 20
120.0428452192316
 30
0.0
 10
304.584697675236
 20
121.3433082134015
 30
0.0
 10
304.2540098447108
 20
122.4185770304032
 30
0.0
 10
304.0448644969237
 20
123.0986367421387
 30
0.0
 10
303.5926341833986
 20
123.4938458472625
 30
0.0
 10
303.2619463528233
 20
124.0314802557787
 30
0.0
 10
303.2619463528233
 20
124.5691146642453
 30
0.0
 10
303.2619463527784
 20
125.1067490726419
 30
0.0
 10
303.2619463527784
 20
125.6443834811107
 30
0.0
 10
302.9312585222892
 20
126.1820178897681
 30
0.0
 10
302.6005706916241
 20
126.7196522981416
 30
0.0
 10
302.2698828611335
 20
127.2572867067968
 30
0.0
 10
301.1007248241632
 20
129.1581113875979
 30
0.0
 10
299.6243802161158
 20
130.4830931573107
 30
0.0
 10
298.3016288936839
 20
132.0959963826911
 30
0.0
 10
298.3016288937609
 20
132.633630791156
 30
0.0
 10
298.3016288937391
 20
133.1712651996607
 30
0.0
 10
298.3016288938173
 20
133.7088996081282
 30
0.0
 10
297.3095654019581
 20
135.3218028334566
 30
0.0
 10
296.3175019100489
 20
136.934706058896
 30
0.0
 10
295.3254384181884
 20
138.5476092842266
 30
0.0
 10
293.8281855848064
 20
140.9818526002101
 30
0.0
 10
292.0185601122088
 20
142.8486845520872
 30
0.0
 10
290.3651209591901
 20
144.9992221859726
 30
0.0
 10
291.0264966203843
 20
144.461587777455
 30
0.0
 10
291.6878722815925
 20
143.9239533689875
 30
0.0
 10
292.3492479427904
 20
143.3863189604713
 30
0.0
 10
293.67199926518
 20
142.3110501434362
 30
0.0
 10
294.9947505876414
 20
141.2357813266449
 30
0.0
 10
296.3175019100424
 20
140.1605125096496
 30
0.0
 10
297.6402532324461
 20
139.0852436926543
 30
0.0
 10
298.9630045549088
 20
138.0099748758605
 30
0.0
 10
300.2857558773227
 20
136.9347060589101
 30
0.0
 10
301.6085071997405
 20
135.8594372419584
 30
0.0
 10
302.9312585221685
 20
134.7841684250427
 30
0.0
 10
304.2540098445747
 20
133.7088996080679
 30
0.0
 10
304.9153855057779
 20
133.1712651995799
 30
0.0
 10
305.5767611669963
 20
132.6336307911278
 30
0.0
 10
306.2381368281648
 20
132.0959963825297
 30
0.0
 10
308.1320285026124
 20
130.5564457305749
 30
0.0
 10
309.5450151342843
 20
127.7949211150053
 30
0.0
 10
311.1984542873325
 20
125.64438348118
 30
0.0
 10
312.4895733502598
 20
123.9650957193902
 30
0.0
 10
313.1825812709277
 20
121.3433082133668
 30
0.0
 10
314.1746447627369
 20
119.1927705794866
 30
0.0
 10
315.4451059206322
 20
116.4387386500861
 30
0.0
 10
316.8201474075968
 20
113.8164264948309
 30
0.0
 10
318.1428987300312
 20
111.1282544525139
 30
0.0
 10
318.4350456243375
 20
110.5345365705473
 30
0.0
 10
318.8042743911689
 20
110.0529856354699
 30
0.0
 10
319.1349622216761
 20
109.5153512268484
 30
0.0
 10
318.1428987298503
 20
112.2035232691743
 30
0.0
 10
317.1508352381849
 20
114.8916953117505
 30
0.0
 10
316.1587717463565
 20
117.5798673540777
 30
0.0
 10
318.1428987299953
 20
115.9669641287021
 30
0.0
 10
320.1270257136418
 20
114.3540609032997
 30
0.0
 10
322.1111526972807
 20
112.7411576779241
 30
0.0
 10
323.8358094178113
 20
111.3391786664275
 30
0.0
 10
325.418031003318
 20
109.5153512270691
 30
0.0
 10
327.0714701563355
 20
107.9024480016451
 30
0.0
 10
328.887155915151
 20
106.1312758291443
 30
0.0
 10
330.3783484623831
 20
103.6013727339125
 30
0.0
 10
332.0317876153851
 20
101.4508350999976
 30
0.0
 10
334.1136545491427
 20
98.74306494606681
 30
0.0
 10
336.6614172438877
 20
97.14975983231157
 30
0.0
 10
338.9762320581146
 20
94.99922219841335
 30
0.0
 10
337.6534807357367
 20
97.14975983235392
 30
0.0
 10
336.3307294133048
 20
99.30029746622904
 30
0.0
 10
335.0079780909293
 20
101.4508351001696
 30
0.0
 10
334.3466024297404
 20
102.5261039171418
 30
0.0
 10
333.6852267684615
 20
103.601372733961
 30
0.0
 10
333.0238511072841
 20
104.6766415509515
 30
0.0
 10
336.0000415827282
 20
101.4508351001362
 30
0.0
 10
338.9762320581223
 20
98.22502864925683
 30
0.0
 10
341.952422533569
 20
94.99922219843903
 30
0.0
 10
345.3110429668895
 20
91.35891101907973
 30
0.0
 10
348.5661791456745
 20
87.47234047989537
 30
0.0
 10
351.873057451717
 20
83.70889962061007
 30
0.0
 10
352.2561820854587
 20
83.27287906969408
 30
0.0
 10
352.5344331129189
 20
82.63363080366737
 30
0.0
 10
352.8651209434935
 20
82.09599639515625
 30
0.0
 10
353.1958087740719
 20
81.55836198664414
 30
0.0
 10
353.5264966048223
 20
81.02072757840735
 30
0.0
 10
353.8571844355734
 20
80.48309317017728
 30
0.0
 10
354.5966249044627
 20
79.28090608632519
 30
0.0
 10
355.8413114189858
 20
79.40782435288294
 30
0.0
 10
356.8333749108013
 20
78.87018994441031
 30
0.0
 10
358.6626496042449
 20
77.87884107826844
 30
0.0
 10
360.1402532168438
 20
75.64438349359763
 30
0.0
 10
361.7936923698612
 20
74.0314802681605
 30
0.0
 10
362.4277573406342
 20
73.41296011600565
 30
0.0
 10
363.1164436922976
 20
72.95621145128582
 30
0.0
 10
363.7778193535135
 20
72.41857704283758
 30
0.0
 10
363.7778193535135
 20
71.8809426343704
 30
0.0
 10
363.7778193535065
 20
71.34330822587563
 30
0.0
 10
363.7778193535065
 20
70.80567381740686
 30
0.0
 10
364.1085071841131
 20
70.80567381740686
 30
0.0
 10
364.439195014716
 20
70.80567381740686
 30
0.0
 10
364.7698828453221
 20
70.80567381740686
 30
0.0
 10
364.1085071840778
 20
71.8809426342841
 30
0.0
 10
363.4471315228863
 20
72.95621145124476
 30
0.0
 10
362.7857558616421
 20
74.03148026812585
 30
0.0
 10
362.1243802003973
 20
75.10674908500565
 30
0.0
 10
361.4630045392552
 20
76.18201790204972
 30
0.0
 10
360.8016288780071
 20
77.25728671892472
 30
0.0
 10
359.6324708405581
 20
79.1581113989516
 30
0.0
 10
358.1561262332127
 20
80.48309316980253
 30
0.0
 10
356.8333749107731
 20
82.09599639516908
 30
0.0
 10
359.1481897250109
 20
81.02072757824692
 30
0.0
 10
361.4630045392731
 20
79.9454587613607
 30
0.0
 10
363.7778193535103
 20
78.87018994444239
 30
0.0
 10
363.7778193536656
 20
78.332555535972
 30
0.0
 10
363.7778193535809
 20
77.79492112748687
 30
0.0
 10
363.7778193537362
 20
77.25728671901808
 30
0.0
 10
363.7778193535809
 20
77.79492112748687
 30
0.0
 10
363.7778193534327
 20
78.33255553595052
 30
0.0
 10
363.7778193532774
 20
78.870189944418
 30
0.0
 10
363.7778193531259
 20
79.40782435288807
 30
0.0
 10
363.7778193534327
 20
79.94545876135685
 30
0.0
 10
363.7778193532774
 20
80.48309316982562
 30
0.0
 10
364.1085071838449
 20
79.94545876129268
 30
0.0
 10
364.439195014698
 20
79.40782435285598
 30
0.0
 10
364.7698828452656
 20
78.87018994432688
 30
0.0
 10
365.1005706758722
 20
78.87018994487104
 30
0.0
 10
365.4312585065315
 20
78.87018994469008
 30
0.0
 10
365.7619463371376
 20
78.87018994523297
 30
0.0
 10
367.7460733207585
 20
76.71965231132705
 30
0.0
 10
369.7302003043928
 20
74.56911467666136
 30
0.0
 10
371.7143272880099
 20
72.41857704276057
 30
0.0
 10
372.1034466036596
 20
71.99682191352689
 30
0.0
 10
372.3757029492328
 20
71.34330822585639
 30
0.0
 10
372.7063907798145
 20
70.80567381735938
 30
0.0
 10
371.3836394573788
 20
73.49384585967118
 30
0.0
 10
370.0608881349957
 20
76.18201790207026
 30
0.0
 10
368.7381368125561
 20
78.87018994438208
 30
0.0
 10
370.7222637961731
 20
76.71965231047615
 30
0.0
 10
372.7063907798395
 20
74.56911467666136
 30
0.0
 10
374.6905177634527
 20
72.41857704276057
 30
0.0
 10
375.3057694229665
 20
71.75172363114442
 30
0.0
 10
376.0132690858962
 20
71.34330822587563
 30
0.0
 10
376.674644747105
 20
70.80567381740686
 30
0.0
 10
374.3598299328679
 20
74.03148026820926
 30
0.0
 10
372.0450151186307
 20
77.25728671901808
 30
0.0
 10
369.7302003043928
 20
80.48309316982049
 30
0.0
 10
369.39951247379
 20
80.48309317254001
 30
0.0
 10
369.068824643191
 20
80.48309317118347
 30
0.0
 10
368.7381368125843
 20
80.48309317390554
 30
0.0
 10
367.0846976595631
 20
82.63363080777938
 30
0.0
 10
365.4312585065315
 20
84.7841684375656
 30
0.0
 10
363.7778193535103
 20
86.93470607143911
 30
0.0
 10
363.4126357356335
 20
87.40968037701893
 30
0.0
 10
363.1164436922764
 20
88.0099748883295
 30
0.0
 10
362.7857558616203
 20
88.5476092967187
 30
0.0
 10
364.1085071840496
 20
86.93470607133547
 30
0.0
 10
365.4312585065348
 20
85.32180284603822
 30
0.0
 10
366.7540098289673
 20
83.7088996206537
 30
0.0
 10
367.1281404009306
 20
83.25270169742767
 30
0.0
 10
367.4153854901486
 20
82.63363080366737
 30
0.0
 10
367.7460733207232
 20
82.09599639515625
 30
0.0
 10
369.2433261539069
 20
79.66175307885193
 30
0.0
 10
371.0529516268215
 20
77.79492112748943
 30
0.0
 10
372.7063907798504
 20
75.64438349362844
 30
0.0
 10
374.2120814091203
 20
73.68601426227745
 30
0.0
 10
376.0132690858923
 20
72.41857704279907
 30
0.0
 10
377.6667082389135
 20
70.80567381737991
 30
0.0
  0
POLYLINE
  5
42
330
1F
100
AcDbEntity
  8
_U+30EC_U+30A4_U+30E4_U+30FC 1
370
     0
100
AcDb2dPolyline
 66
     1
 10
0.0
 20
0.0
 30
0.0
  0
VERTEX
  5
43
330
42
100
AcDbEntity
  8
_U+30EC_U+30A4_U+30E4_U+30FC 1
370
     0
100
AcDbVertex
100
AcDb2dVertex
 10
445.5000415637169
 20
-525.5007776464033
 30
0.0
  0
VERTEX
  5
44
330
42
100
AcDbEntity
  8
_U+30EC_U+30A4_U+30E4_U+30FC 1
370
     0
100
AcDbVertex
100
AcDb2dVertex
 10
-148.4999582877831
 20
-525.5007776464033
 30
0.0
  0
VERTEX
  5
45
330
42
100
AcDbEntity
  8
_U+30EC_U+30A4_U+30E4_U+30FC 1
370
     0
100
AcDbVertex
100
AcDb2dVertex
 10
-148.4999582877831
 20
315.4992221433473
 30
0.0
  0
VERTEX
  5
46
330
42
100
AcDbEntity
  8
_U+30EC_U+30A4_U+30E4_U+30FC 1
370
     0
100
AcDbVertex
100
AcDb2dVertex
 10
445.5000415637169
 20
315.4992221433473
 30
0.0
  0
VERTEX
  5
47
330
42
100
AcDbEntity
  8
_U+30EC_U+30A4_U+30E4_U+30FC 1
370
     0
100
AcDbVertex
100
AcDb2dVertex
 10
445.5000415637169
 20
-525.5007776464033
 30
0.0
  0
SEQEND
  5
48
330
42
100
AcDbEntity
  8
_U+30EC_U+30A4_U+30E4_U+30FC 1
370
     0
  0
INSERT
  5
4A
330
1F
100
AcDbEntity
  8
_U+30EC_U+30A4_U+30E4_U+30FC 1
100
AcDbBlockReference
  2
block 2
 10
0.0
 20
0.0
 30
0.0
  0
ENDSEC
  0
SECTION
  2
OBJECTS
  0
DICTIONARY
  5
C
330
0
100
AcDbDictionary
281
     1
  3
ACAD_GROUP
350
D
  3
ACAD_LAYOUT
350
1A
  3
ACAD_MATERIAL
350
3B
  3
ACAD_MLEADERSTYLE
350
B6
  3
ACAD_MLINESTYLE
350
17
  3
ACAD_PLOTSETTINGS
350
19
  3
ACAD_PLOTSTYLENAME
350
E
  3
ACAD_TABLESTYLE
350
B5
  3
ACAD_VISUALSTYLE
350
2A
  0
SUN
  5
3F
330
29
100
AcDbSun
 90
        1
290
     0
 63
     7
421
 16777215
 40
1.0
291
     1
 91
  2455826
 92
 54000000
292
     0
 70
     2
 71
   256
280
     1
  0
DICTIONARY
  5
D
102
{ACAD_REACTORS
330
C
102
}
330
C
100
AcDbDictionary
281
     1
  0
DICTIONARY
  5
1A
102
{ACAD_REACTORS
330
C
102
}
330
C
100
AcDbDictionary
281
     1
  3
Layout1
350
1E
  3
Layout2
350
26
  3
Model
350
22
  0
DICTIONARY
  5
3B
102
{ACAD_REACTORS
330
C
102
}
330
C
100
AcDbDictionary
281
     1
  3
ByBlock
350
3D
  3
ByLayer
350
3C
  3
Global
350
3E
  0
DICTIONARY
  5
B6
102
{ACAD_REACTORS
330
C
102
}
330
C
100
AcDbDictionary
281
     1
  0
DICTIONARY
  5
17
102
{ACAD_REACTORS
330
C
102
}
330
C
100
AcDbDictionary
281
     1
  3
Standard
350
18
  0
DICTIONARY
  5
19
102
{ACAD_REACTORS
330
C
102
}
330
C
100
AcDbDictionary
281
     1
  0
ACDBDICTIONARYWDFLT
  5
E
102
{ACAD_REACTORS
330
C
102
}
330
C
100
AcDbDictionary
281
     1
  3
Normal
350
F
100
AcDbDictionaryWithDefault
340
F
  0
DICTIONARY
  5
B5
102
{ACAD_REACTORS
330
C
102
}
330
C
100
AcDbDictionary
281
     1
  0
DICTIONARY
  5
2A
102
{ACAD_REACTORS
330
C
102
}
330
C
100
AcDbDictionary
281
     1
  3
2dWireframe
350
2F
  3
3D Hidden
350
31
  3
3dWireframe
350
30
  3
Basic
350
32
  3
Brighten
350
36
  3
ColorChange
350
3A
  3
Conceptual
350
34
  3
Dim
350
35
  3
Facepattern
350
39
  3
Flat
350
2B
  3
FlatWithEdges
350
2C
  3
Gouraud
350
2D
  3
GouraudWithEdges
350
2E
  3
Linepattern
350
38
  3
Realistic
350
33
  3
Thicken
350
37
  0
LAYOUT
  5
1E
102
{ACAD_REACTORS
330
1A
102
}
330
1A
100
AcDbPlotSettings
  1

  2
none_device
  4

  6

 40
0.0
 41
0.0
 42
0.0
 43
0.0
 44
0.0
 45
0.0
 46
0.0
 47
0.0
 48
0.0
 49
0.0
140
0.0
141
0.0
142
1.0
143
1.0
 70
   688
 72
     0
 73
     0
 74
     5
  7

 75
    16
 76
     0
 77
     2
 78
   300
147
1.0
148
0.0
149
0.0
100
AcDbLayout
  1
Layout1
 70
     1
 71
     1
 10
0.0
 20
0.0
 11
12.0
 21
9.0
 12
0.0
 22
0.0
 32
0.0
 14
1.000000000000000E+20
 24
1.000000000000000E+20
 34
1.000000000000000E+20
 15
-1.000000000000000E+20
 25
-1.000000000000000E+20
 35
-1.000000000000000E+20
146
0.0
 13
0.0
 23
0.0
 33
0.0
 16
1.0
 26
0.0
 36
0.0
 17
0.0
 27
1.0
 37
0.0
 76
     0
330
1B
  0
LAYOUT
  5
26
102
{ACAD_REACTORS
330
1A
102
}
330
1A
100
AcDbPlotSettings
  1

  2
none_device
  4

  6

 40
0.0
 41
0.0
 42
0.0
 43
0.0
 44
0.0
 45
0.0
 46
0.0
 47
0.0
 48
0.0
 49
0.0
140
0.0
141
0.0
142
1.0
143
1.0
 70
   688
 72
     0
 73
     0
 74
     5
  7

 75
    16
 76
     0
 77
     2
 78
   300
147
1.0
148
0.0
149
0.0
100
AcDbLayout
  1
Layout2
 70
     1
 71
     2
 10
0.0
 20
0.0
 11
0.0
 21
0.0
 12
0.0
 22
0.0
 32
0.0
 14
0.0
 24
0.0
 34
0.0
 15
0.0
 25
0.0
 35
0.0
146
0.0
 13
0.0
 23
0.0
 33
0.0
 16
1.0
 26
0.0
 36
0.0
 17
0.0
 27
1.0
 37
0.0
 76
     0
330
23
  0
LAYOUT
  5
22
102
{ACAD_REACTORS
330
1A
102
}
330
1A
100
AcDbPlotSettings
  1

  2
none_device
  4

  6

 40
0.0
 41
0.0
 42
0.0
 43
0.0
 44
0.0
 45
0.0
 46
0.0
 47
0.0
 48
0.0
 49
0.0
140
0.0
141
0.0
142
1.0
143
1.0
 70
  1712
 72
     0
 73
     0
 74
     0
  7

 75
     0
 76
     0
 77
     2
 78
   300
147
1.0
148
0.0
149
0.0
100
AcDbLayout
  1
Model
 70
     1
 71
     0
 10
0.0
 20
0.0
 11
12.0
 21
9.0
 12
0.0
 22
0.0
 32
0.0
 14
1.000000000000000E+20
 24
1.000000000000000E+20
 34
1.000000000000000E+20
 15
-1.000000000000000E+20
 25
-1.000000000000000E+20
 35
-1.000000000000000E+20
146
0.0
 13
0.0
 23
0.0
 33
0.0
 16
1.0
 26
0.0
 36
0.0
 17
0.0
 27
1.0
 37
0.0
 76
     0
330
1F
331
29
  0
MATERIAL
  5
3D
102
{ACAD_REACTORS
330
3B
102
}
330
3B
100
AcDbMaterial
  1
ByBlock
 72
     1
 94
      127
  0
MATERIAL
  5
3C
102
{ACAD_REACTORS
330
3B
102
}
330
3B
100
AcDbMaterial
  1
ByLayer
 72
     1
 94
      127
  0
MATERIAL
  5
3E
102
{ACAD_REACTORS
330
3B
102
}
330
3B
100
AcDbMaterial
  1
Global
 72
     1
 94
      127
  0
MLINESTYLE
  5
18
102
{ACAD_REACTORS
330
17
102
}
330
17
100
AcDbMlineStyle
  2
Standard
 70
     0
  3

 62
   256
 51
90.0
 52
90.0
 71
     2
 49
0.5
 62
   256
  6
BYLAYER
 49
-0.5
 62
   256
  6
BYLAYER
  0
ACDBPLACEHOLDER
  5
F
102
{ACAD_REACTORS
330
E
102
}
330
E
  0
VISUALSTYLE
  5
2F
102
{ACAD_REACTORS
330
2A
102
}
330
2A
100
AcDbVisualStyle
  2
2dWireframe
 70
     4
177
     2
291
     0
 71
     0
176
     1
 72
     2
176
     1
 73
     0
176
     1
 90
        0
176
     1
 40
-0.6
176
     1
 41
-30.0
176
     1
 62
     5
 63
     7
421
 16777215
176
     1
 74
     1
176
     1
 91
        4
176
     1
 64
     7
176
     1
 65
   257
176
     1
 75
     1
176
     1
175
     1
176
     1
 42
1.0
176
     1
 92
        0
176
     1
 66
   257
176
     1
 43
1.0
176
     1
 76
     1
176
     1
 77
     6
176
     1
 78
     2
176
     1
 67
     7
176
     1
 79
     5
176
     1
170
     0
176
     1
171
     0
176
     1
290
     0
176
     1
 93
        1
176
     1
 44
0.0
176
     1
173
     0
176
     1
  0
VISUALSTYLE
  5
31
102
{ACAD_REACTORS
330
2A
102
}
330
2A
100
AcDbVisualStyle
  2
3D Hidden
 70
     6
177
     2
291
     0
 71
     1
176
     1
 72
     2
176
     1
 73
     2
176
     1
 90
        0
176
     1
 40
-0.6
176
     1
 41
-30.0
176
     1
 62
     5
 63
     7
421
 16777215
176
     1
 74
     2
176
     1
 91
        2
176
     1
 64
     7
176
     1
 65
   257
176
     1
 75
     2
176
     1
175
     1
176
     1
 42
40.0
176
     1
 92
        0
176
     1
 66
   257
176
     1
 43
1.0
176
     1
 76
     1
176
     1
 77
     6
176
     1
 78
     2
176
     1
 67
     7
176
     1
 79
     3
176
     1
170
     0
176
     1
171
     0
176
     1
290
     0
176
     1
 93
        1
176
     1
 44
0.0
176
     1
173
     0
176
     1
  0
VISUALSTYLE
  5
30
102
{ACAD_REACTORS
330
2A
102
}
330
2A
100
AcDbVisualStyle
  2
3dWireframe
 70
     5
177
     2
291
     0
 71
     0
176
     1
 72
     2
176
     1
 73
     0
176
     1
 90
        0
176
     1
 40
-0.6
176
     1
 41
-30.0
176
     1
 62
     5
 63
     7
421
 16777215
176
     1
 74
     1
176
     1
 91
        4
176
     1
 64
     7
176
     1
 65
   257
176
     1
 75
     1
176
     1
175
     1
176
     1
 42
1.0
176
     1
 92
        0
176
     1
 66
   257
176
     1
 43
1.0
176
     1
 76
     1
176
     1
 77
     6
176
     1
 78
     2
176
     1
 67
     7
176
     1
 79
     5
176
     1
170
     0
176
     1
171
     0
176
     1
290
     0
176
     1
 93
        1
176
     1
 44
0.0
176
     1
173
     0
176
     1
  0
VISUALSTYLE
  5
32
102
{ACAD_REACTORS
330
2A
102
}
330
2A
100
AcDbVisualStyle
  2
Basic
 70
     7
177
     2
291
     1
 71
     1
176
     1
 72
     0
176
     1
 73
     1
176
     1
 90
        0
176
     1
 40
-0.6
176
     1
 41
-30.0
176
     1
 62
     5
 63
     7
421
 16777215
176
     1
 74
     0
176
     1
 91
        4
176
     1
 64
     7
176
     1
 65
   257
176
     1
 75
     1
176
     1
175
     1
176
     1
 42
1.0
176
     1
 92
        8
176
     1
 66
     7
176
     1
 43
1.0
176
     1
 76
     1
176
     1
 77
     6
176
     1
 78
     2
176
     1
 67
     7
176
     1
 79
     5
176
     1
170
     0
176
     1
171
     0
176
     1
290
     0
176
     1
 93
        1
176
     1
 44
0.0
176
     1
173
     0
176
     1
  0
VISUALSTYLE
  5
36
102
{ACAD_REACTORS
330
2A
102
}
330
2A
100
AcDbVisualStyle
  2
Brighten
 70
    12
177
     2
291
     1
 71
     2
176
     1
 72
     2
176
     1
 73
     0
176
     1
 90
        0
176
     1
 40
-0.6
176
     1
 41
-30.0
176
     1
 62
     5
 63
     7
421
 16777215
176
     1
 74
     1
176
     1
 91
        4
176
     1
 64
     7
176
     1
 65
   257
176
     1
 75
     1
176
     1
175
     1
176
     1
 42
1.0
176
     1
 92
        8
176
     1
 66
     7
176
     1
 43
1.0
176
     1
 76
     1
176
     1
 77
     6
176
     1
 78
     2
176
     1
 67
     7
176
     1
 79
     5
176
     1
170
     0
176
     1
171
     0
176
     1
290
     0
176
     1
 93
        1
176
     1
 44
50.0
176
     1
173
     0
176
     1
  0
VISUALSTYLE
  5
3A
102
{ACAD_REACTORS
330
2A
102
}
330
2A
100
AcDbVisualStyle
  2
ColorChange
 70
    16
177
     2
291
     1
 71
     2
176
     1
 72
     2
176
     1
 73
     3
176
     1
 90
        0
176
     1
 40
-0.6
176
     1
 41
-30.0
176
     1
 62
     5
 63
     8
421
  8421504
176
     1
 74
     1
176
     1
 91
        4
176
     1
 64
     7
176
     1
 65
   257
176
     1
 75
     1
176
     1
175
     1
176
     1
 42
1.0
176
     1
 92
        8
176
     1
 66
     8
424
  8421504
176
     1
 43
1.0
176
     1
 76
     1
176
     1
 77
     6
176
     1
 78
     2
176
     1
 67
     7
176
     1
 79
     5
176
     1
170
     0
176
     1
171
     0
176
     1
290
     0
176
     1
 93
        1
176
     1
 44
0.0
176
     1
173
     0
176
     1
  0
VISUALSTYLE
  5
34
102
{ACAD_REACTORS
330
2A
102
}
330
2A
100
AcDbVisualStyle
  2
Conceptual
 70
     9
177
     2
291
     0
 71
     3
176
     1
 72
     2
176
     1
 73
     0
176
     1
 90
        0
176
     1
 40
-0.6
176
     1
 41
-30.0
176
     1
 62
     5
 63
     7
421
 16777215
176
     1
 74
     2
176
     1
 91
        2
176
     1
 64
     7
176
     1
 65
   257
176
     1
 75
     1
176
     1
175
     1
176
     1
 42
40.0
176
     1
 92
        8
176
     1
 66
     7
176
     1
 43
1.0
176
     1
 76
     1
176
     1
 77
     6
176
     1
 78
     2
176
     1
 67
     7
176
     1
 79
     3
176
     1
170
     0
176
     1
171
     0
176
     1
290
     0
176
     1
 93
        1
176
     1
 44
0.0
176
     1
173
     0
176
     1
  0
VISUALSTYLE
  5
35
102
{ACAD_REACTORS
330
2A
102
}
330
2A
100
AcDbVisualStyle
  2
Dim
 70
    11
177
     2
291
     1
 71
     2
176
     1
 72
     2
176
     1
 73
     0
176
     1
 90
        0
176
     1
 40
-0.6
176
     1
 41
-30.0
176
     1
 62
     5
 63
     7
421
 16777215
176
     1
 74
     1
176
     1
 91
        4
176
     1
 64
     7
176
     1
 65
   257
176
     1
 75
     1
176
     1
175
     1
176
     1
 42
1.0
176
     1
 92
        8
176
     1
 66
     7
176
     1
 43
1.0
176
     1
 76
     1
176
     1
 77
     6
176
     1
 78
     2
176
     1
 67
     7
176
     1
 79
     5
176
     1
170
     0
176
     1
171
     0
176
     1
290
     0
176
     1
 93
        1
176
     1
 44
-50.0
176
     1
173
     0
176
     1
  0
VISUALSTYLE
  5
39
102
{ACAD_REACTORS
330
2A
102
}
330
2A
100
AcDbVisualStyle
  2
Facepattern
 70
    15
177
     2
291
     1
 71
     2
176
     1
 72
     2
176
     1
 73
     0
176
     1
 90
        0
176
     1
 40
-0.6
176
     1
 41
-30.0
176
     1
 62
     5
 63
     7
421
 16777215
176
     1
 74
     1
176
     1
 91
        4
176
     1
 64
     7
176
     1
 65
   257
176
     1
 75
     1
176
     1
175
     1
176
     1
 42
1.0
176
     1
 92
        8
176
     1
 66
     7
176
     1
 43
1.0
176
     1
 76
     1
176
     1
 77
     6
176
     1
 78
     2
176
     1
 67
     7
176
     1
 79
     5
176
     1
170
     0
176
     1
171
     0
176
     1
290
     0
176
     1
 93
        1
176
     1
 44
0.0
176
     1
173
     0
176
     1
  0
VISUALSTYLE
  5
2B
102
{ACAD_REACTORS
330
2A
102
}
330
2A
100
AcDbVisualStyle
  2
Flat
 70
     0
177
     2
291
     1
 71
     2
176
     1
 72
     1
176
     1
 73
     1
176
     1
 90
        2
176
     1
 40
-0.6
176
     1
 41
30.0
176
     1
 62
     5
 63
     7
421
 16777215
176
     1
 74
     0
176
     1
 91
        4
176
     1
 64
     7
176
     1
 65
   257
176
     1
 75
     1
176
     1
175
     1
176
     1
 42
1.0
176
     1
 92
        8
176
     1
 66
     7
176
     1
 43
1.0
176
     1
 76
     1
176
     1
 77
     6
176
     1
 78
     2
176
     1
 67
     7
176
     1
 79
     5
176
     1
170
     0
176
     1
171
     0
176
     1
290
     0
176
     1
 93
       13
176
     1
 44
0.0
176
     1
173
     0
176
     1
  0
VISUALSTYLE
  5
2C
102
{ACAD_REACTORS
330
2A
102
}
330
2A
100
AcDbVisualStyle
  2
FlatWithEdges
 70
     1
177
     2
291
     1
 71
     2
176
     1
 72
     1
176
     1
 73
     1
176
     1
 90
        2
176
     1
 40
-0.6
176
     1
 41
30.0
176
     1
 62
     5
 63
     7
421
 16777215
176
     1
 74
     1
176
     1
 91
        4
176
     1
 64
     7
176
     1
 65
   257
176
     1
 75
     1
176
     1
175
     1
176
     1
 42
1.0
176
     1
 92
        0
176
     1
 66
   257
176
     1
 43
1.0
176
     1
 76
     1
176
     1
 77
     6
176
     1
 78
     2
176
     1
 67
     7
176
     1
 79
     5
176
     1
170
     0
176
     1
171
     0
176
     1
290
     0
176
     1
 93
       13
176
     1
 44
0.0
176
     1
173
     0
176
     1
  0
VISUALSTYLE
  5
2D
102
{ACAD_REACTORS
330
2A
102
}
330
2A
100
AcDbVisualStyle
  2
Gouraud
 70
     2
177
     2
291
     1
 71
     2
176
     1
 72
     2
176
     1
 73
     1
176
     1
 90
        2
176
     1
 40
-0.6
176
     1
 41
30.0
176
     1
 62
     5
 63
     7
421
 16777215
176
     1
 74
     0
176
     1
 91
        4
176
     1
 64
     7
176
     1
 65
   257
176
     1
 75
     1
176
     1
175
     1
176
     1
 42
1.0
176
     1
 92
        0
176
     1
 66
     7
176
     1
 43
1.0
176
     1
 76
     1
176
     1
 77
     6
176
     1
 78
     2
176
     1
 67
     7
176
     1
 79
     5
176
     1
170
     0
176
     1
171
     0
176
     1
290
     0
176
     1
 93
       13
176
     1
 44
0.0
176
     1
173
     0
176
     1
  0
VISUALSTYLE
  5
2E
102
{ACAD_REACTORS
330
2A
102
}
330
2A
100
AcDbVisualStyle
  2
GouraudWithEdges
 70
     3
177
     2
291
     1
 71
     2
176
     1
 72
     2
176
     1
 73
     1
176
     1
 90
        2
176
     1
 40
-0.6
176
     1
 41
30.0
176
     1
 62
     5
 63
     7
421
 16777215
176
     1
 74
     1
176
     1
 91
        4
176
     1
 64
     7
176
     1
 65
   257
176
     1
 75
     1
176
     1
175
     1
176
     1
 42
1.0
176
     1
 92
        0
176
     1
 66
   257
176
     1
 43
1.0
176
     1
 76
     1
176
     1
 77
     6
176
     1
 78
     2
176
     1
 67
     7
176
     1
 79
     5
176
     1
170
     0
176
     1
171
     0
176
     1
290
     0
176
     1
 93
       13
176
     1
 44
0.0
176
     1
173
     0
176
     1
  0
VISUALSTYLE
  5
38
102
{ACAD_REACTORS
330
2A
102
}
330
2A
100
AcDbVisualStyle
  2
Linepattern
 70
    14
177
     2
291
     1
 71
     2
176
     1
 72
     2
176
     1
 73
     0
176
     1
 90
        0
176
     1
 40
-0.6
176
     1
 41
-30.0
176
     1
 62
     5
 63
     7
421
 16777215
176
     1
 74
     1
176
     1
 91
        4
176
     1
 64
     7
176
     1
 65
   257
176
     1
 75
     7
176
     1
175
     7
176
     1
 42
1.0
176
     1
 92
        8
176
     1
 66
     7
176
     1
 43
1.0
176
     1
 76
     1
176
     1
 77
     6
176
     1
 78
     2
176
     1
 67
     7
176
     1
 79
     5
176
     1
170
     0
176
     1
171
     0
176
     1
290
     0
176
     1
 93
        1
176
     1
 44
0.0
176
     1
173
     0
176
     1
  0
VISUALSTYLE
  5
33
102
{ACAD_REACTORS
330
2A
102
}
330
2A
100
AcDbVisualStyle
  2
Realistic
 70
     8
177
     2
291
     0
 71
     2
176
     1
 72
     2
176
     1
 73
     0
176
     1
 90
        0
176
     1
 40
-0.6
176
     1
 41
-30.0
176
     1
 62
     5
 63
     7
421
 16777215
176
     1
 74
     1
176
     1
 91
        0
176
     1
 64
     7
176
     1
 65
   257
176
     1
 75
     1
176
     1
175
     1
176
     1
 42
1.0
176
     1
 92
        8
176
     1
 66
     8
424
  7895160
176
     1
 43
1.0
176
     1
 76
     1
176
     1
 77
     6
176
     1
 78
     2
176
     1
 67
     7
176
     1
 79
     5
176
     1
170
     0
176
     1
171
     0
176
     1
290
     0
176
     1
 93
       13
176
     1
 44
0.0
176
     1
173
     0
176
     1
  0
VISUALSTYLE
  5
37
102
{ACAD_REACTORS
330
2A
102
}
330
2A
100
AcDbVisualStyle
  2
Thicken
 70
    13
177
     2
291
     1
 71
     2
176
     1
 72
     2
176
     1
 73
     0
176
     1
 90
        0
176
     1
 40
-0.6
176
     1
 41
-30.0
176
     1
 62
     5
 63
     7
421
 16777215
176
     1
 74
     1
176
     1
 91
        4
176
     1
 64
     7
176
     1
 65
   257
176
     1
 75
     1
176
     1
175
     1
176
     1
 42
1.0
176
     1
 92
       12
176
     1
 66
     7
176
     1
 43
1.0
176
     1
 76
     1
176
     1
 77
     6
176
     1
 78
     2
176
     1
 67
     7
176
     1
 79
     5
176
     1
170
     0
176
     1
171
     0
176
     1
290
     0
176
     1
 93
        1
176
     1
 44
0.0
176
     1
173
     0
176
     1
  0
ENDSEC
  0
EOF
